<?xml version="1.0" encoding="utf-8"?>
<!-- Generator: Adobe Illustrator 14.0.0, SVG Export Plug-In . SVG Version: 6.00 Build 43363)  -->
<!DOCTYPE svg PUBLIC "-//W3C//DTD SVG 1.1//EN" "http://www.w3.org/Graphics/SVG/1.1/DTD/svg11.dtd">
<svg version="1.1" id="图层_1" xmlns="http://www.w3.org/2000/svg" xmlns:xlink="http://www.w3.org/1999/xlink" x="0px" y="0px"
	 width="50px" height="50px" viewBox="0 0 50 50" enable-background="new 0 0 50 50" xml:space="preserve">
<g>
	
		<linearGradient id="SVGID_1_" gradientUnits="userSpaceOnUse" x1="-7759.2993" y1="-7849.2012" x2="-7758.8765" y2="-7848.0732" gradientTransform="matrix(-0.468 0.1666 -0.1666 -0.468 -4895.5459 -2358.6304)">
		<stop  offset="0" style="stop-color:#F59695"/>
		<stop  offset="1" style="stop-color:#F05B4E"/>
	</linearGradient>
	<path fill="url(#SVGID_1_)" d="M42.998,22.263c0,0,0.734-0.109,0.753-0.265c0.019-0.154-0.112-0.573-0.295-0.62
		c-0.184-0.046-0.749,0.192-0.749,0.192L42.998,22.263z"/>
	
		<linearGradient id="SVGID_2_" gradientUnits="userSpaceOnUse" x1="-7758.668" y1="-7847.3794" x2="-7757.3999" y2="-7845.8291" gradientTransform="matrix(-0.468 0.1666 -0.1666 -0.468 -4895.5459 -2358.6304)">
		<stop  offset="0" style="stop-color:#F59695"/>
		<stop  offset="1" style="stop-color:#F05B4E"/>
	</linearGradient>
	<path fill="url(#SVGID_2_)" d="M42.893,21.911c0,0,0.696-0.123,0.771-0.364c0.053-0.167-0.712-0.955-1.366-0.813
		c-0.397,0.086-0.571,0.277-0.571,0.277L42.893,21.911z"/>
	
		<linearGradient id="SVGID_3_" gradientUnits="userSpaceOnUse" x1="-3818.9663" y1="-3946.5513" x2="-3823.4763" y2="-3944.9729" gradientTransform="matrix(0.3544 0 0 0.3544 1394.7749 1417.0967)">
		<stop  offset="0" style="stop-color:#F7A996"/>
		<stop  offset="1" style="stop-color:#F27060"/>
	</linearGradient>
	<path fill="url(#SVGID_3_)" d="M32.194,21.39c2.514,4.475,6.635,0.746,7.544,1.077c1.512,0.552,3.26-0.204,3.26-0.204
		c0.423-0.174-1.22-1.281-1.22-1.281l-0.39,0.296c0,0,0.347-0.405,0.263-0.432c-0.146-0.046-0.344,0.167-0.595,0.432
		c-1.03,0.184-1.433-1.003-1.88-0.952c-1.737,0.202-1.747-0.557-1.747-0.557c1.247-3.57-2.816-3.006-2.816-3.006
		S29.402,16.42,32.194,21.39z"/>
	
		<linearGradient id="SVGID_4_" gradientUnits="userSpaceOnUse" x1="-172.3286" y1="-313.5581" x2="-178.0078" y2="-312.7238" gradientTransform="matrix(0.9594 0 0 0.9594 182.9487 332.395)">
		<stop  offset="0" style="stop-color:#F7A996"/>
		<stop  offset="1" style="stop-color:#DC6F54"/>
	</linearGradient>
	<path fill="url(#SVGID_4_)" d="M13.024,34.6c0,0,3.069-2.148,6.056-1.982l-1.646-1.98l-5.553-0.586l-0.334,2.678L13.024,34.6z"/>
	
		<linearGradient id="SVGID_5_" gradientUnits="userSpaceOnUse" x1="-7625.2603" y1="-7611.5439" x2="-7629.1123" y2="-7613.0469" gradientTransform="matrix(0.3363 -0.1118 -0.1118 -0.3363 1751.1497 -3396.9023)">
		<stop  offset="0" style="stop-color:#F7A996"/>
		<stop  offset="1" style="stop-color:#F48573"/>
	</linearGradient>
	<path fill="url(#SVGID_5_)" d="M36.001,16.772c0,0,0.213-1.775,1.508-2.207c1.296-0.43,1.722,0.74,1.125,1.365
		c-0.585,0.614-1.441-0.433-1.441-0.433s0.451,1.391,1.59,0.771c1.207-0.659,0.422-2.834-1.514-2.119
		c-1.381,0.51-1.924,2.192-1.924,2.192L36.001,16.772z"/>
	
		<radialGradient id="SVGID_6_" cx="-159.8774" cy="-334.1445" r="7.0446" gradientTransform="matrix(0.9594 0 0 0.9594 185.687 333.1772)" gradientUnits="userSpaceOnUse">
		<stop  offset="0" style="stop-color:#FBD9DD"/>
		<stop  offset="1" style="stop-color:#F7A996"/>
	</radialGradient>
	<path fill="url(#SVGID_6_)" d="M19.956,23.792c0,0,2.416-0.468,4.371-2.737c3.59-4.17,6.577-6.294,11.005-5.25
		c5.936,1.397,10.528,10.973,1.482,16.627c-13.261,8.287-24.519-4.578-24.519-4.578L19.956,23.792z"/>
	
		<linearGradient id="SVGID_7_" gradientUnits="userSpaceOnUse" x1="-164.9351" y1="-309.0317" x2="-165.9618" y2="-315.6094" gradientTransform="matrix(0.9594 0 0 0.9594 185.687 333.1772)">
		<stop  offset="0" style="stop-color:#F7A996"/>
		<stop  offset="1" style="stop-color:#DC6F54"/>
	</linearGradient>
	<path fill="url(#SVGID_7_)" d="M28.905,35.16c-0.479-4.061-2.365-4.725-2.365-4.725l-1.051,4.639
		C26.585,35.217,27.726,35.256,28.905,35.16z"/>
	
		<linearGradient id="SVGID_8_" gradientUnits="userSpaceOnUse" x1="-7590.6382" y1="-7703.064" x2="-7590.6382" y2="-7698.46" gradientTransform="matrix(0.0699 -0.3475 0.3475 0.0699 3244.8145 -2068.0955)">
		<stop  offset="0" style="stop-color:#F7A996"/>
		<stop  offset="1" style="stop-color:#DC6F54"/>
	</linearGradient>
	<path fill="url(#SVGID_8_)" d="M36.814,32.432c1.065-0.699,1.934-1.441,2.628-2.211l-1.278-1.119
		c-0.467,1.965-1.772,3.348-2.521,4.006C36.03,32.912,36.422,32.689,36.814,32.432z"/>
	
		<linearGradient id="SVGID_9_" gradientUnits="userSpaceOnUse" x1="-7760.0142" y1="-7822.1499" x2="-7759.5913" y2="-7821.0229" gradientTransform="matrix(-0.5408 0.1926 -0.1926 -0.5408 -5654.6943 -2706.5308)">
		<stop  offset="0" style="stop-color:#F59695"/>
		<stop  offset="1" style="stop-color:#F05B4E"/>
	</linearGradient>
	<path fill="url(#SVGID_9_)" d="M47.893,29.283c0,0,0.848-0.125,0.87-0.305s-0.129-0.662-0.341-0.715
		c-0.213-0.055-0.865,0.221-0.865,0.221L47.893,29.283z"/>
	
		<linearGradient id="SVGID_10_" gradientUnits="userSpaceOnUse" x1="-7759.3984" y1="-7820.3286" x2="-7758.1309" y2="-7818.7793" gradientTransform="matrix(-0.5408 0.1926 -0.1926 -0.5408 -5654.6943 -2706.5308)">
		<stop  offset="0" style="stop-color:#F59695"/>
		<stop  offset="1" style="stop-color:#F05B4E"/>
	</linearGradient>
	<path fill="url(#SVGID_10_)" d="M47.771,28.877c0,0,0.805-0.143,0.892-0.422c0.061-0.191-0.823-1.104-1.58-0.939
		c-0.459,0.098-0.658,0.32-0.658,0.32L47.771,28.877z"/>
	
		<radialGradient id="SVGID_11_" cx="-161.8994" cy="-311.3252" r="6.9334" gradientTransform="matrix(1.0889 0 0 1.0889 208.5695 367.6632)" gradientUnits="userSpaceOnUse">
		<stop  offset="0" style="stop-color:#FBD9DD"/>
		<stop  offset="1" style="stop-color:#F7A996"/>
	</radialGradient>
	<path fill="url(#SVGID_11_)" d="M35.143,28.303c2.639,5.113,7.933,0.834,8.982,1.217c1.748,0.637,3.768-0.236,3.768-0.236
		c0.488-0.199-1.41-1.48-1.41-1.48l-0.45,0.342c0,0,0.4-0.469,0.304-0.498c-0.169-0.053-0.397,0.193-0.686,0.498
		c-1.191,0.213-1.657-1.158-2.174-1.1c-2.008,0.232-2.019-0.643-2.019-0.643c1.44-4.126-1.795-6.952-1.795-6.952
		S32.122,22.448,35.143,28.303z"/>
	
		<linearGradient id="SVGID_12_" gradientUnits="userSpaceOnUse" x1="-167.2266" y1="-319.4141" x2="-175.6448" y2="-318.772" gradientTransform="matrix(0.9594 0 0 0.9594 185.687 333.1772)">
		<stop  offset="0" style="stop-color:#F7A996"/>
		<stop  offset="1" style="stop-color:#DC6F54"/>
	</linearGradient>
	<path fill="url(#SVGID_12_)" d="M23.206,34.617c2.704-3.188,5.043-8.733,3.103-15.698c-0.647,0.634-1.304,1.348-1.981,2.135
		c-1.955,2.27-4.371,2.737-4.371,2.737l-7.661,4.062C12.295,27.854,16.683,32.867,23.206,34.617z"/>
	
		<linearGradient id="SVGID_13_" gradientUnits="userSpaceOnUse" x1="-7791.856" y1="-7990.7695" x2="-7791.4331" y2="-7989.6421" gradientTransform="matrix(0.6279 -0.2836 0.2836 0.6279 7177.2295 2845.1074)">
		<stop  offset="0" style="stop-color:#F59695"/>
		<stop  offset="1" style="stop-color:#F05B4E"/>
	</linearGradient>
	<path fill="url(#SVGID_13_)" d="M18.915,37.102c0,0-0.925,0.236-0.934,0.453s0.422,0.729,0.682,0.771
		c0.259,0.045,1.12-0.463,1.12-0.463L18.915,37.102z"/>
	
		<linearGradient id="SVGID_14_" gradientUnits="userSpaceOnUse" x1="-7790.9927" y1="-7988.9868" x2="-7789.7241" y2="-7987.4365" gradientTransform="matrix(0.6279 -0.2836 0.2836 0.6279 7177.2295 2845.1074)">
		<stop  offset="0" style="stop-color:#F59695"/>
		<stop  offset="1" style="stop-color:#F05B4E"/>
	</linearGradient>
	<path fill="url(#SVGID_14_)" d="M19.264,37.539c0,0-0.873,0.195-0.949,0.537c-0.053,0.236,1.242,1.17,2.131,0.9
		c0.539-0.164,0.757-0.449,0.757-0.449L19.264,37.539z"/>
	
		<radialGradient id="SVGID_15_" cx="-7625.0659" cy="-7754.7773" r="8.9317" gradientTransform="matrix(0.2342 -0.266 0.266 0.2342 3870.29 -179.6583)" gradientUnits="userSpaceOnUse">
		<stop  offset="0" style="stop-color:#FBD9DD"/>
		<stop  offset="1" style="stop-color:#F7A996"/>
	</radialGradient>
	<path fill="url(#SVGID_15_)" d="M23.453,30.455c-0.299,0.17-2.678,2.092-0.443,5.064c0.553,0.738-2.533,1.631-2.533,1.631
		s-0.8-0.338-1.562-0.049c-1.021,0.389,2.238,1.555,2.238,1.555s-0.173,0.445-0.055,0.473c0.114,0.025,0.52-0.592,0.573-0.727
		c0.235-0.158,2.006-0.6,2.876-1.229c0.883-0.635,4.333-2.617,3.231-5.158C26.501,29.068,24.1,30.084,23.453,30.455z"/>
	
		<linearGradient id="SVGID_16_" gradientUnits="userSpaceOnUse" x1="-7886.3105" y1="-8024.2695" x2="-7879.6396" y2="-8018.8672" gradientTransform="matrix(-0.5537 0.1795 0.1795 0.5537 -2921.4163 5876.0815)">
		<stop  offset="0" style="stop-color:#F7A996"/>
		<stop  offset="1" style="stop-color:#F05B4E"/>
	</linearGradient>
	<path fill="url(#SVGID_16_)" d="M9.067,16.791c0,0-0.56-1.535-2.104-2.04c-1.011-0.332-2.462-0.702-3.447-1.412
		c-2.665-1.925-2.927,2.587-1.146,5.775c1.235,2.213,3.55,4.568,5.301,3.053C9.152,20.884,9.067,16.791,9.067,16.791z"/>
	
		<linearGradient id="SVGID_17_" gradientUnits="userSpaceOnUse" x1="-7823.3965" y1="-8025.3687" x2="-7818.272" y2="-8021.2183" gradientTransform="matrix(0.5537 -0.1795 0.1795 0.5537 5778.9956 3055.6279)">
		<stop  offset="0" style="stop-color:#F7A996"/>
		<stop  offset="1" style="stop-color:#F05B4E"/>
	</linearGradient>
	<path fill="url(#SVGID_17_)" d="M8.986,18.472c0.095-0.945,0.081-1.682,0.081-1.682s-0.243-0.665-0.85-1.265
		c-0.957,0.739-1.754,2.06-1.754,2.06L8.986,18.472z"/>
	
		<linearGradient id="SVGID_18_" gradientUnits="userSpaceOnUse" x1="-7821.8311" y1="-8023.3042" x2="-7822.3008" y2="-8024.3848" gradientTransform="matrix(0.5537 -0.1795 0.1795 0.5537 5778.9956 3055.6279)">
		<stop  offset="0" style="stop-color:#F4836C"/>
		<stop  offset="1" style="stop-color:#F7A996"/>
	</linearGradient>
	<path fill="url(#SVGID_18_)" d="M8.986,18.472c0.095-0.945,0.081-1.682,0.081-1.682s-0.243-0.665-0.85-1.265
		c-0.957,0.739-1.754,2.06-1.754,2.06L8.986,18.472z"/>
	
		<linearGradient id="SVGID_19_" gradientUnits="userSpaceOnUse" x1="-7882.5708" y1="-8022.4604" x2="-7888.3496" y2="-8024.481" gradientTransform="matrix(-0.5537 0.1795 0.1795 0.5537 -2921.4163 5876.0815)">
		<stop  offset="0" style="stop-color:#F7A996"/>
		<stop  offset="1" style="stop-color:#DC6F54"/>
	</linearGradient>
	<path fill="url(#SVGID_19_)" d="M7.828,20.076c0,0,0.154-2.333-1.459-3.351c-1.897-1.195-3.282-3.213-4.159-3.165
		c-1.073,0.061-0.71,2.329-0.537,3.222c0.257,1.325,1.5,3.653,2.771,4.736c0.904,0.77,1.676,1.267,3.1,0.604
		C8.966,21.459,7.828,20.076,7.828,20.076z"/>
	
		<linearGradient id="SVGID_20_" gradientUnits="userSpaceOnUse" x1="-7795.2607" y1="-8024.3887" x2="-7788.5898" y2="-8018.9863" gradientTransform="matrix(0.5537 -0.1795 0.1795 0.5537 5777.2412 3056.1973)">
		<stop  offset="0" style="stop-color:#F7A996"/>
		<stop  offset="1" style="stop-color:#F05B4E"/>
	</linearGradient>
	<path fill="url(#SVGID_20_)" d="M16.852,14.267c0,0-0.447-1.571,0.506-2.886c0.625-0.862,1.583-2.013,1.963-3.167
		c1.029-3.121,3.888,0.379,4.316,4.005c0.298,2.517-0.194,5.783-2.502,5.582C19.185,17.632,16.852,14.267,16.852,14.267z"/>
	
		<linearGradient id="SVGID_21_" gradientUnits="userSpaceOnUse" x1="-7912.8926" y1="-8023.2036" x2="-7913.3623" y2="-8024.2842" gradientTransform="matrix(-0.5537 0.1795 0.1795 0.5537 -2923.1702 5876.6499)">
		<stop  offset="0" style="stop-color:#F4836C"/>
		<stop  offset="1" style="stop-color:#F7A996"/>
	</linearGradient>
	<path fill="url(#SVGID_21_)" d="M18.441,16.219c-0.632-0.709-1.59-1.952-1.59-1.952s-0.193-0.681-0.054-1.522
		c1.207,0.037,2.629,0.639,2.629,0.639L18.441,16.219z"/>
	
		<linearGradient id="SVGID_22_" gradientUnits="userSpaceOnUse" x1="-7791.5352" y1="-8022.583" x2="-7797.3135" y2="-8024.603" gradientTransform="matrix(0.5537 -0.1795 0.1795 0.5537 5777.2412 3056.1973)">
		<stop  offset="0" style="stop-color:#F7A996"/>
		<stop  offset="1" style="stop-color:#DC6F54"/>
	</linearGradient>
	<path fill="url(#SVGID_22_)" d="M19.782,16.2c0,0-1.493-1.798-0.783-3.57c0.834-2.081,0.771-4.527,1.512-5.002
		c0.903-0.581,1.94,1.469,2.323,2.294c0.57,1.223,0.929,3.838,0.535,5.46c-0.28,1.154-0.613,2.01-2.155,2.308
		C19.673,17.989,19.782,16.2,19.782,16.2z"/>
	<path fill="#F7A996" d="M8.06,16.838c0,0,1.834-2.234,4.227-2.922c1.669-0.481,3.681-0.884,5.874,0.089
		c2.982,1.321,4.794,4.643,5.479,6.432c1.813,4.725-0.255,8.895-5.22,10.584c-4.892,1.668-9.962-0.07-11.375-4.924
		C6.24,23.333,5.834,19.531,8.06,16.838z"/>
	<path fill="#F48D7D" d="M11.37,28.352c0.048-0.156,0.126-0.99,0.007-1.049c-0.124-0.061-0.286,0.455-0.286,0.455
		s-3.716-1.275-3.086-0.207c0.47,0.795,1.419,1.063,1.419,1.063s0.404,0.813,0.616,1.656c0.891,0.598,1.912,1.002,3.008,1.207
		C12.497,30.391,11.467,28.66,11.37,28.352z"/>
	<path fill="#F5947A" d="M14.205,27.723c0,0,1.072,1.092,2.978,0.588c1.907-0.502,2.596-2.279,2.364-2.462
		C19.314,25.665,14.205,27.723,14.205,27.723z"/>
	
		<linearGradient id="SVGID_23_" gradientUnits="userSpaceOnUse" x1="-177.1387" y1="-317.0586" x2="-176.5625" y2="-314.8556" gradientTransform="matrix(1.0889 0 0 1.0889 208.5695 367.6632)">
		<stop  offset="0" style="stop-color:#F7A996"/>
		<stop  offset="1" style="stop-color:#DC6F54"/>
	</linearGradient>
	<path fill="url(#SVGID_23_)" d="M13.746,25.998c0,0,0.068-2.717,1.746-3.261c1.015-0.329,2.361,0.318,3.481,1.695
		c1.29,1.585-0.56,3.248-1.67,3.56C16.295,28.275,13.816,28.475,13.746,25.998z"/>
	<path fill="#F7A996" d="M18.424,21.34c0,0-1.554-3.035,0.549-3.718c1.831-0.593,2.531,2.647,2.531,2.647l-3.043,1.042"/>
	
		<ellipse transform="matrix(0.3083 0.9513 -0.9513 0.3083 32.8296 -4.8263)" fill="#7B340F" cx="19.733" cy="20.161" rx="2.309" ry="1.666"/>
	
		<radialGradient id="SVGID_24_" cx="-174.2129" cy="-320.2266" r="3.4047" gradientTransform="matrix(1.0889 0 0 1.0889 208.5695 367.6632)" gradientUnits="userSpaceOnUse">
		<stop  offset="0.3446" style="stop-color:#FFFFFF"/>
		<stop  offset="0.5242" style="stop-color:#FCFCFC"/>
		<stop  offset="0.6538" style="stop-color:#F3F3F3"/>
		<stop  offset="0.7678" style="stop-color:#E3E4E5"/>
		<stop  offset="0.8727" style="stop-color:#CDCED0"/>
		<stop  offset="0.9705" style="stop-color:#B0B2B5"/>
		<stop  offset="1" style="stop-color:#A6A8AB"/>
	</radialGradient>
	<path fill="url(#SVGID_24_)" d="M19.117,18.259c-0.84,0.272-1.231,1.4-0.916,2.562c0.426,1.127,1.405,1.81,2.244,1.537
		c0.84-0.272,1.231-1.399,0.915-2.562C20.935,18.67,19.956,17.987,19.117,18.259z"/>
	<path fill="#F7A996" d="M12.315,23.321c0,0-0.523-3.37-2.626-2.688c-1.83,0.593-0.497,3.627-0.497,3.627l3.076-0.94"/>
	
		<ellipse transform="matrix(0.3083 0.9513 -0.9513 0.3083 29.3132 5.9539)" fill="#7B340F" cx="10.563" cy="23.134" rx="2.309" ry="1.667"/>
	
		<radialGradient id="SVGID_25_" cx="-182.2095" cy="-317.3135" r="3.1775" gradientTransform="matrix(1.0889 0 0 1.0889 208.5695 367.6632)" gradientUnits="userSpaceOnUse">
		<stop  offset="0.3446" style="stop-color:#FFFFFF"/>
		<stop  offset="0.5242" style="stop-color:#FCFCFC"/>
		<stop  offset="0.6538" style="stop-color:#F3F3F3"/>
		<stop  offset="0.7678" style="stop-color:#E3E4E5"/>
		<stop  offset="0.8727" style="stop-color:#CDCED0"/>
		<stop  offset="0.9705" style="stop-color:#B0B2B5"/>
		<stop  offset="1" style="stop-color:#A6A8AB"/>
	</radialGradient>
	<path fill="url(#SVGID_25_)" d="M9.946,21.232c0.839-0.271,1.818,0.411,2.244,1.537c0.316,1.163-0.076,2.289-0.916,2.562
		c-0.839,0.272-1.818-0.41-2.244-1.537C8.714,22.632,9.106,21.504,9.946,21.232z"/>
	
		<linearGradient id="SVGID_26_" gradientUnits="userSpaceOnUse" x1="-7812.2329" y1="-8002.5327" x2="-7812.2329" y2="-8000.0898" gradientTransform="matrix(0.5537 -0.1795 0.1795 0.5537 5778.9956 3055.6279)">
		<stop  offset="0" style="stop-color:#F27B76"/>
		<stop  offset="1" style="stop-color:#F05B4E"/>
	</linearGradient>
	<path fill="url(#SVGID_26_)" d="M13.723,26.393c0,0,0.191-2.8,1.869-3.344c1.014-0.329,2.492,0.319,3.612,1.697
		c1.29,1.586-0.874,3.01-1.984,3.323C16.212,28.352,13.792,28.871,13.723,26.393z"/>
	
		<radialGradient id="SVGID_27_" cx="-7808.6367" cy="-8003.0859" r="2.4955" gradientTransform="matrix(0.5537 -0.1795 0.1795 0.5537 5778.9956 3055.6279)" gradientUnits="userSpaceOnUse">
		<stop  offset="0" style="stop-color:#FFFFFF"/>
		<stop  offset="1" style="stop-color:#F3837A"/>
	</radialGradient>
	<circle fill="url(#SVGID_27_)" cx="17.757" cy="25.569" r="0.595"/>
	<circle fill="#231F20" cx="17.485" cy="25.496" r="0.262"/>
	
		<radialGradient id="SVGID_28_" cx="-7897.6694" cy="-8003.0024" r="2.4953" gradientTransform="matrix(-0.5537 0.1795 0.1795 0.5537 -2921.6379 5876.1538)" gradientUnits="userSpaceOnUse">
		<stop  offset="0" style="stop-color:#FFFFFF"/>
		<stop  offset="1" style="stop-color:#F3837A"/>
	</radialGradient>
	<circle fill="url(#SVGID_28_)" cx="15.397" cy="26.335" r="0.595"/>
	<circle fill="#231F20" cx="15.573" cy="26.115" r="0.261"/>
	<path fill="#F48D7D" d="M15.817,17.758c0,0,0.197-1.918,2.341-2.224C18.158,15.534,16.441,16.09,15.817,17.758z"/>
	<path fill="#F48D7D" d="M12.365,18.877c0,0-1.285-1.437-3.2-0.428C9.165,18.449,10.881,17.892,12.365,18.877z"/>
	<path fill="#F7A996" d="M11.522,14.494c0,0-0.494-0.99,0.583-1.483c0,0-0.716,0.807-0.366,1.355L11.522,14.494z"/>
	<path fill="#F7A996" d="M11.739,14.266c0,0,0.073-0.484,0.464-0.696c0,0-0.419,0.48-0.335,0.741L11.739,14.266z"/>
	
		<linearGradient id="SVGID_29_" gradientUnits="userSpaceOnUse" x1="-7857.8198" y1="-7851.0596" x2="-7857.397" y2="-7849.9321" gradientTransform="matrix(0.3312 0.6488 0.6488 -0.3312 7703.937 2524.8513)">
		<stop  offset="0" style="stop-color:#F59695"/>
		<stop  offset="1" style="stop-color:#F05B4E"/>
	</linearGradient>
	<path fill="url(#SVGID_29_)" d="M7.699,27.527c0,0-0.608-0.809-0.472-0.992s0.83-0.324,1.073-0.188
		c0.242,0.135,0.619,1.123,0.619,1.123L7.699,27.527z"/>
	
		<linearGradient id="SVGID_30_" gradientUnits="userSpaceOnUse" x1="-7856.9487" y1="-7849.2827" x2="-7855.6802" y2="-7847.7324" gradientTransform="matrix(0.3312 0.6488 0.6488 -0.3312 7703.937 2524.8513)">
		<stop  offset="0" style="stop-color:#F59695"/>
		<stop  offset="1" style="stop-color:#F05B4E"/>
	</linearGradient>
	<path fill="url(#SVGID_30_)" d="M8.275,27.395c0,0-0.592-0.736-0.429-1.07c0.113-0.229,1.798-0.146,2.354,0.664
		c0.336,0.492,0.328,0.869,0.328,0.869L8.275,27.395z"/>
	
		<radialGradient id="SVGID_31_" cx="-7854.0396" cy="-7560.0815" r="8.9317" gradientTransform="matrix(0.0177 0.3743 0.3743 -0.0177 2975.7156 2839.2222)" gradientUnits="userSpaceOnUse">
		<stop  offset="0" style="stop-color:#FBD9DD"/>
		<stop  offset="1" style="stop-color:#F7A996"/>
	</radialGradient>
	<path fill="url(#SVGID_31_)" d="M9.85,35.268c-0.615-0.631-1.416-1.729-0.458-3.764c0.483-1.025-0.371-2.986-0.371-2.986
		s-0.884-0.25-1.322-0.99c-0.587-0.994,2.875,0.191,2.875,0.191s0.151-0.48,0.267-0.424c0.111,0.055,0.038,0.832-0.007,0.979
		c0.09,0.285,1.05,1.9,1.565,2.912c0.375,0.736,1.643,2.98-0.043,4.109C11.333,35.98,10.417,35.85,9.85,35.268z"/>
	<path fill="none" stroke="#231F20" stroke-width="0.75" stroke-linecap="round" stroke-linejoin="round" d="M20.305,19.717
		c0,0,0.838,1.511,0.062,1.919c-0.892,0.47-1.597-1.145-1.597-1.145"/>
	<path fill="none" stroke="#231F20" stroke-width="0.75" stroke-linecap="round" stroke-linejoin="round" d="M11.23,22.816
		c0,0,0.836,1.51,0.061,1.919c-0.891,0.47-1.597-1.146-1.597-1.146"/>
	<ellipse fill="#F48D7D" cx="17.852" cy="29.537" rx="0.664" ry="0.922"/>
	<ellipse fill="#FFFFFF" cx="17.852" cy="29.646" rx="0.664" ry="0.924"/>
</g>
</svg>
