<?xml version="1.0" encoding="utf-8"?>
<!-- Generator: Adobe Illustrator 14.0.0, SVG Export Plug-In . SVG Version: 6.00 Build 43363)  -->
<!DOCTYPE svg PUBLIC "-//W3C//DTD SVG 1.1//EN" "http://www.w3.org/Graphics/SVG/1.1/DTD/svg11.dtd">
<svg version="1.1" id="图层_1" xmlns="http://www.w3.org/2000/svg" xmlns:xlink="http://www.w3.org/1999/xlink" x="0px" y="0px"
	 width="50px" height="50px" viewBox="0 0 50 50" enable-background="new 0 0 50 50" xml:space="preserve">
<g>
	<path fill="#231F20" d="M25.865,11.973c0,0,1.138-4.737-1.654-7.968c0,0,1.954,4.435-0.226,7.667
		C21.806,14.904,25.865,11.973,25.865,11.973z"/>
	<path fill="#231F20" d="M24.657,11.757c0,0-0.37-5.271-4.047-7.03c0,0,3.501,3.35,2.723,7.171
		C22.553,15.718,24.657,11.757,24.657,11.757z"/>
	
		<radialGradient id="SVGID_1_" cx="55.2744" cy="-326.1362" r="8.7191" gradientTransform="matrix(1 0 0 1 -10.4189 368.3848)" gradientUnits="userSpaceOnUse">
		<stop  offset="0" style="stop-color:#808184"/>
		<stop  offset="1" style="stop-color:#000000"/>
	</radialGradient>
	<path fill="url(#SVGID_1_)" d="M37.515,36.412c0,0,7.628,2.544,8.092,3.524c0.462,0.981-2.061,4.195-3.18,3.699
		c-2.081-0.925-5.72-6.068-5.72-6.068L37.515,36.412z"/>
	
		<linearGradient id="SVGID_2_" gradientUnits="userSpaceOnUse" x1="46.7402" y1="-332.8213" x2="44.8376" y2="-333.2805" gradientTransform="matrix(1 0 0 1 -3.7227 367.9019)">
		<stop  offset="0" style="stop-color:#FFDD00"/>
		<stop  offset="0.3644" style="stop-color:#FFDA02"/>
		<stop  offset="0.6526" style="stop-color:#FED007"/>
		<stop  offset="0.9139" style="stop-color:#FDBF0F"/>
		<stop  offset="1" style="stop-color:#FCB813"/>
	</linearGradient>
	<path fill="url(#SVGID_2_)" d="M39.771,33.705c0,0,1.902-0.261,3.215,0.92c0,0,3.807-2.277,4.133-1.247
		c0.395,1.247-0.853,0.852-1.902,1.377c-0.685,0.344-1.706,1.115-1.969,2.821c-0.091,0.587-1.443,0.59-0.853-1.837
		c0,0-0.525-1.049-2.23-0.592C39.394,35.355,39.771,33.705,39.771,33.705z"/>
	
		<linearGradient id="SVGID_3_" gradientUnits="userSpaceOnUse" x1="33.9746" y1="-321.2002" x2="32.0724" y2="-321.6594" gradientTransform="matrix(-0.1577 0.9875 0.9875 0.1577 356.9784 59.0593)">
		<stop  offset="0" style="stop-color:#FFDD00"/>
		<stop  offset="0.3644" style="stop-color:#FFDA02"/>
		<stop  offset="0.6526" style="stop-color:#FED007"/>
		<stop  offset="0.9139" style="stop-color:#FDBF0F"/>
		<stop  offset="1" style="stop-color:#FCB813"/>
	</linearGradient>
	<path fill="url(#SVGID_3_)" d="M33.586,38.483c0,0-0.56,1.838,0.399,3.319c0,0-2.85,3.399-1.881,3.885
		c1.167,0.584,0.976-0.709,1.659-1.664c0.447-0.62,1.37-1.507,3.095-1.495c0.596,0.002,0.813-1.334-1.679-1.134
		c0,0-0.952-0.684-0.23-2.295C35.275,38.371,33.586,38.483,33.586,38.483z"/>
	
		<radialGradient id="SVGID_4_" cx="27.8496" cy="-351.2896" r="12.7124" gradientTransform="matrix(1 0 0 1 10.8633 361.6338)" gradientUnits="userSpaceOnUse">
		<stop  offset="0" style="stop-color:#808184"/>
		<stop  offset="1" style="stop-color:#000000"/>
	</radialGradient>
	<path fill="url(#SVGID_4_)" d="M32.395,30.334c-0.911-1.834,1.873-13.626,6.357-15.833c5.024-2.474,9.634,0.37,9.352,3.323
		c-0.309,3.247-4.096,2.783-4.096,2.783s2.438,1.562,1.896,3.842c-0.691,2.903-4.137,1.801-4.137,1.801s2.164,1.468,1.082,3.479
		c-1.401,2.603-5.242,0.941-5.242,0.941S34.374,34.322,32.395,30.334z"/>
	
		<radialGradient id="SVGID_5_" cx="36.7959" cy="-334.623" r="14.9046" gradientTransform="matrix(0.7288 0 0 0.7288 9.0312 283.374)" gradientUnits="userSpaceOnUse">
		<stop  offset="0" style="stop-color:#808184"/>
		<stop  offset="1" style="stop-color:#000000"/>
	</radialGradient>
	<path fill="url(#SVGID_5_)" d="M27.24,29.771c0,0,0.484,9.063,7.086,9.51c6.601,0.449,8.179-8.535,3.014-10.598
		c-3.302-1.32-8.044-1.661-8.044-1.661L27.24,29.771z"/>
	
		<radialGradient id="SVGID_6_" cx="7.2778" cy="-350.4927" r="11.54" gradientTransform="matrix(1 0 0 1 7.9004 362.0571)" gradientUnits="userSpaceOnUse">
		<stop  offset="0" style="stop-color:#808184"/>
		<stop  offset="1" style="stop-color:#000000"/>
	</radialGradient>
	<circle fill="url(#SVGID_6_)" cx="23.787" cy="22.935" r="10.67"/>
	
		<linearGradient id="SVGID_7_" gradientUnits="userSpaceOnUse" x1="1.9453" y1="-355.1543" x2="24.6661" y2="-332.1264" gradientTransform="matrix(1 0 0 1 -6.7783 366.6445)">
		<stop  offset="0" style="stop-color:#FFDD00"/>
		<stop  offset="0.3214" style="stop-color:#FFDA02"/>
		<stop  offset="0.5756" style="stop-color:#FED007"/>
		<stop  offset="0.8061" style="stop-color:#FDBF0F"/>
		<stop  offset="0.882" style="stop-color:#FCB813"/>
		<stop  offset="1" style="stop-color:#FFDD00"/>
	</linearGradient>
	<path fill="url(#SVGID_7_)" d="M2.319,14.052c5.58-1.578,16.778,5.633,16.878,12.584c0.077,5.411-7.309,14.184-8.076,13.723
		c-0.768-0.459,2.203-10.712,2.203-11.48C13.324,28.11,8.282,19.929,2.319,14.052z"/>
	
		<radialGradient id="SVGID_8_" cx="13.4834" cy="-331.0244" r="12.0901" gradientTransform="matrix(1 0 0 1 7.9004 362.0571)" gradientUnits="userSpaceOnUse">
		<stop  offset="0" style="stop-color:#808184"/>
		<stop  offset="1" style="stop-color:#000000"/>
	</radialGradient>
	<path fill="url(#SVGID_8_)" d="M20.637,40.416c0.064-6.563,6.867-14.397,9.151-12.418c2.668,2.314,0.421,5.11,0.421,5.11
		s3.308,1.304,2.923,4.34c-0.427,3.362-3.695,3.166-3.695,3.166s0.041,2.243-1.392,3.464C25.727,46.063,20.589,45.338,20.637,40.416
		z"/>
	
		<ellipse transform="matrix(0.187 0.9824 -0.9824 0.187 38.2526 -4.8954)" fill="#231F20" cx="22.084" cy="20.664" rx="3.548" ry="2.452"/>
	
		<radialGradient id="SVGID_9_" cx="212.9443" cy="5.9751" r="5.2083" gradientTransform="matrix(1.0427 0.5189 -0.5189 1.0427 -198.588 -98.3951)" gradientUnits="userSpaceOnUse">
		<stop  offset="0.3034" style="stop-color:#FFFFFF"/>
		<stop  offset="0.455" style="stop-color:#FAFAFA"/>
		<stop  offset="0.6469" style="stop-color:#EAEAEB"/>
		<stop  offset="0.8597" style="stop-color:#D0D1D3"/>
		<stop  offset="1" style="stop-color:#BBBDBF"/>
	</radialGradient>
	<path fill="url(#SVGID_9_)" d="M22.793,24.393c-1.331,0.254-2.706-1.102-3.071-3.026c-0.367-1.926,0.416-3.691,1.747-3.944
		c1.33-0.253,2.704,1.103,3.069,3.027C24.905,22.375,24.123,24.14,22.793,24.393z"/>
	
		<radialGradient id="SVGID_10_" cx="217.1494" cy="9.2734" r="3.2124" gradientTransform="matrix(1.0427 0.5189 -0.5189 1.0427 -198.588 -98.3951)" gradientUnits="userSpaceOnUse">
		<stop  offset="0" style="stop-color:#A780B8"/>
		<stop  offset="1" style="stop-color:#7E499B"/>
	</radialGradient>
	<path fill="url(#SVGID_10_)" d="M23.066,24.028c-0.546,0.104-1.155-0.696-1.363-1.785c-0.207-1.087,0.067-2.055,0.612-2.157
		c0.544-0.104,1.153,0.695,1.36,1.783C23.882,22.957,23.608,23.924,23.066,24.028z"/>
	
		<ellipse transform="matrix(0.1869 0.9824 -0.9824 0.1869 40.533 -4.3118)" fill="#231F20" cx="22.871" cy="22.331" rx="1.42" ry="0.551"/>
	<circle fill="#FFFFFF" cx="22.268" cy="21.334" r="0.271"/>
	<polygon fill="#EC1C24" points="10.85,27.949 8.146,24.935 6.521,27.254 5.594,25.012 3.507,26.79 3.043,24.857 1.884,26.328 
		2.812,25.786 3.275,27.718 4.821,26.404 6.985,28.953 8.685,26.79 	"/>
	<polygon fill="#EC1C24" points="10.621,30.729 8.064,30.204 8.112,32.026 6.772,31.221 6.372,32.94 5.392,32.117 5.353,33.322 
		5.627,32.687 6.606,33.512 6.904,32.239 9.004,32.731 9.056,30.957 	"/>
</g>
</svg>
