<?xml version="1.0" encoding="utf-8"?>
<!-- Generator: Adobe Illustrator 14.0.0, SVG Export Plug-In . SVG Version: 6.00 Build 43363)  -->
<!DOCTYPE svg PUBLIC "-//W3C//DTD SVG 1.1//EN" "http://www.w3.org/Graphics/SVG/1.1/DTD/svg11.dtd">
<svg version="1.1" id="图层_1" xmlns="http://www.w3.org/2000/svg" xmlns:xlink="http://www.w3.org/1999/xlink" x="0px" y="0px"
	 width="50px" height="50px" viewBox="0 0 50 50" enable-background="new 0 0 50 50" xml:space="preserve">
<g>
	
		<linearGradient id="SVGID_1_" gradientUnits="userSpaceOnUse" x1="-150.0327" y1="210.3477" x2="-153.0862" y2="214.1647" gradientTransform="matrix(-0.4062 0.8523 0.8523 0.4062 -224.6591 77.6101)">
		<stop  offset="0.0056" style="stop-color:#A15C38"/>
		<stop  offset="0.2996" style="stop-color:#9C5733"/>
		<stop  offset="0.6709" style="stop-color:#8D4723"/>
		<stop  offset="1" style="stop-color:#7B340F"/>
	</linearGradient>
	<path fill="url(#SVGID_1_)" d="M13.26,33.914c-4.052-1.857-4.691,1.402-3.701,3.07c0.744,1.34,1.519,1.887,3.123,1.713
		c4.088-0.445,8.712-3.455,8.712-3.455s-0.673-3.482-1.311-3.623C19.732,31.543,16.124,31.85,13.26,33.914z"/>
	<g>
		
			<ellipse transform="matrix(-0.5516 -0.8341 0.8341 -0.5516 -12.5138 65.5522)" fill="#681D00" cx="11.363" cy="36.14" rx="2.769" ry="2.216"/>
		
			<linearGradient id="SVGID_2_" gradientUnits="userSpaceOnUse" x1="38.5918" y1="60.9697" x2="39.5732" y2="64.1321" gradientTransform="matrix(0.2746 -0.0838 0.0621 0.2549 -2.6924 24.3604)">
			<stop  offset="0" style="stop-color:#F48256"/>
			<stop  offset="0.0337" style="stop-color:#EBA079"/>
			<stop  offset="1" style="stop-color:#FABD96"/>
		</linearGradient>
		<path fill="url(#SVGID_2_)" d="M10.271,37.857c-0.365-0.352-0.643-0.955-0.606-1.354c0.051-0.521,1.44-2.176,2.616-1.699
			c1.178,0.479,1.409,1.656,1.263,2.43c-0.12,0.637-1.24,1.588-2.17,1.318C10.811,38.389,10.682,38.256,10.271,37.857z"/>
		
			<radialGradient id="SVGID_3_" cx="32.5645" cy="56.6367" r="7.6477" gradientTransform="matrix(0.2746 -0.0838 0.0621 0.2549 -2.6797 24.5308)" gradientUnits="userSpaceOnUse">
			<stop  offset="0" style="stop-color:#FCD0AF"/>
			<stop  offset="1" style="stop-color:#FABD96"/>
		</radialGradient>
		<path fill="url(#SVGID_3_)" d="M13.434,35.846c-0.155-0.502-0.472-0.852-1.074-1.047c-1.207-0.393-2.715,0.885-2.691,1.764
			c0.011,0.395,0.229,1.014,0.604,1.35c0.007,0.008,0.013,0.014,0.021,0.02c0.049,0.008,0.096,0.014,0.133,0.01
			c0.383-0.025,0.73-0.162,0.882-0.867c0.148-0.701,1.006-0.486,1.525-0.6s0.597-0.584,0.597-0.584L13.434,35.846z"/>
		
			<radialGradient id="SVGID_4_" cx="47.3955" cy="19.0459" r="2.1399" gradientTransform="matrix(0.2608 -0.0438 0.0247 0.2417 -3.1646 32.0606)" gradientUnits="userSpaceOnUse">
			<stop  offset="0" style="stop-color:#FCD0AF"/>
			<stop  offset="1" style="stop-color:#FABD96"/>
		</radialGradient>
		<path fill="url(#SVGID_4_)" d="M10.224,35.268c0.15-0.092,0.173-0.322,0.049-0.516c-0.125-0.191-0.346-0.271-0.497-0.178
			c-0.149,0.09-0.171,0.32-0.048,0.512C9.853,35.279,10.074,35.359,10.224,35.268z"/>
		
			<radialGradient id="SVGID_5_" cx="64.377" cy="1.3037" r="2.1402" gradientTransform="matrix(0.2348 -0.0394 0.0222 0.2175 -5.6696 37.328)" gradientUnits="userSpaceOnUse">
			<stop  offset="0" style="stop-color:#FCD0AF"/>
			<stop  offset="1" style="stop-color:#FABD96"/>
		</radialGradient>
		<path fill="url(#SVGID_5_)" d="M9.86,35.701c0.134-0.084,0.155-0.291,0.044-0.463c-0.111-0.172-0.311-0.244-0.446-0.162
			c-0.137,0.084-0.155,0.291-0.044,0.463C9.525,35.711,9.724,35.783,9.86,35.701z"/>
		
			<radialGradient id="SVGID_6_" cx="43.3809" cy="21.7266" r="2.1426" gradientTransform="matrix(0.2608 -0.0438 0.0247 0.2417 -1.7076 30.835)" gradientUnits="userSpaceOnUse">
			<stop  offset="0" style="stop-color:#FCD0AF"/>
			<stop  offset="1" style="stop-color:#FABD96"/>
		</radialGradient>
		<path fill="url(#SVGID_6_)" d="M10.7,34.867c0.15-0.094,0.172-0.324,0.05-0.516c-0.125-0.189-0.346-0.271-0.497-0.18
			c-0.149,0.092-0.172,0.322-0.049,0.514C10.328,34.879,10.548,34.959,10.7,34.867z"/>
		
			<radialGradient id="SVGID_7_" cx="38.5469" cy="22.2363" r="2.1407" gradientTransform="matrix(0.2608 -0.0438 0.0247 0.2417 0.1469 30.3394)" gradientUnits="userSpaceOnUse">
			<stop  offset="0" style="stop-color:#FCD0AF"/>
			<stop  offset="1" style="stop-color:#FABD96"/>
		</radialGradient>
		<path fill="url(#SVGID_7_)" d="M11.307,34.705c0.151-0.094,0.172-0.322,0.049-0.516c-0.124-0.191-0.345-0.27-0.497-0.178
			c-0.151,0.09-0.172,0.322-0.047,0.514C10.936,34.717,11.158,34.799,11.307,34.705z"/>
		
			<radialGradient id="SVGID_8_" cx="42.167" cy="32.374" r="2.1424" gradientTransform="matrix(0.2576 -0.0654 0.0481 0.2368 -0.8219 29.1056)" gradientUnits="userSpaceOnUse">
			<stop  offset="0" style="stop-color:#FCD0AF"/>
			<stop  offset="1" style="stop-color:#FABD96"/>
		</radialGradient>
		<path fill="url(#SVGID_8_)" d="M12.013,34.572c0.142-0.104,0.142-0.334-0.001-0.516c-0.143-0.176-0.373-0.238-0.514-0.133
			c-0.143,0.104-0.143,0.332,0.001,0.512C11.639,34.615,11.871,34.676,12.013,34.572z"/>
		
			<radialGradient id="SVGID_9_" cx="39.1143" cy="25.5366" r="1.2756" gradientTransform="matrix(0.2596 -0.0538 0.0355 0.2397 0.0638 29.738)" gradientUnits="userSpaceOnUse">
			<stop  offset="0" style="stop-color:#B77049"/>
			<stop  offset="1" style="stop-color:#681D00"/>
		</radialGradient>
		<path fill="url(#SVGID_9_)" d="M11.461,33.705c0,0-0.187-0.152-0.308-0.076c-0.06,0.039,0.014,0.17,0.145,0.232
			C11.427,33.926,11.531,33.803,11.461,33.705z"/>
		
			<radialGradient id="SVGID_10_" cx="59.2842" cy="49.7344" r="1.277" gradientTransform="matrix(0.251 -0.09 0.075 0.2285 -8.1641 27.5584)" gradientUnits="userSpaceOnUse">
			<stop  offset="0" style="stop-color:#B77049"/>
			<stop  offset="1" style="stop-color:#681D00"/>
		</radialGradient>
		<path fill="url(#SVGID_10_)" d="M10.872,33.734c0,0-0.213-0.123-0.321-0.031c-0.052,0.045,0.042,0.164,0.184,0.207
			C10.875,33.953,10.957,33.82,10.872,33.734z"/>
		
			<radialGradient id="SVGID_11_" cx="68.1338" cy="58.8721" r="1.2735" gradientTransform="matrix(0.2455 -0.105 0.0916 0.222 -12.0393 27.9402)" gradientUnits="userSpaceOnUse">
			<stop  offset="0" style="stop-color:#B77049"/>
			<stop  offset="1" style="stop-color:#681D00"/>
		</radialGradient>
		<path fill="url(#SVGID_11_)" d="M10.265,33.928c0,0-0.222-0.107-0.324-0.012c-0.05,0.049,0.054,0.16,0.197,0.195
			C10.284,34.143,10.355,34.006,10.265,33.928z"/>
		
			<radialGradient id="SVGID_12_" cx="74.5869" cy="60.9961" r="1.2749" gradientTransform="matrix(0.2433 -0.1101 0.0972 0.2196 -14.48 29.0901)" gradientUnits="userSpaceOnUse">
			<stop  offset="0" style="stop-color:#B77049"/>
			<stop  offset="1" style="stop-color:#681D00"/>
		</radialGradient>
		<path fill="url(#SVGID_12_)" d="M9.881,34.242c0,0-0.224-0.102-0.325-0.002c-0.048,0.051,0.059,0.156,0.204,0.189
			C9.906,34.461,9.974,34.322,9.881,34.242z"/>
		
			<radialGradient id="SVGID_13_" cx="39.2412" cy="270.3887" r="1.2733" gradientTransform="matrix(-0.0171 -0.2429 0.2615 -0.0367 -60.6827 54.387)" gradientUnits="userSpaceOnUse">
			<stop  offset="0" style="stop-color:#B77049"/>
			<stop  offset="1" style="stop-color:#681D00"/>
		</radialGradient>
		<path fill="url(#SVGID_13_)" d="M9.333,34.709c0,0-0.191,0.178-0.129,0.289c0.03,0.057,0.181-0.016,0.271-0.139
			C9.561,34.736,9.448,34.643,9.333,34.709z"/>
	</g>
	
		<linearGradient id="SVGID_14_" gradientUnits="userSpaceOnUse" x1="198.7344" y1="-127.6343" x2="202.5774" y2="-120.105" gradientTransform="matrix(-1.0905 0 0 1.0905 253.8794 177.7749)">
		<stop  offset="0.0056" style="stop-color:#A15C38"/>
		<stop  offset="0.2996" style="stop-color:#9C5733"/>
		<stop  offset="0.6709" style="stop-color:#8D4723"/>
		<stop  offset="1" style="stop-color:#7B340F"/>
	</linearGradient>
	<path fill="url(#SVGID_14_)" d="M26.421,42.883c0,0,3.95-3.496,7.85-2.334c2.531,0.758,3.406,2.426,3.406,2.426
		s3.249-2.379,4.417,0.152c0.803,1.738-0.583,3.719-1.158,4.461c-1.255,1.623-2.959,2.26-4.076,0.801
		c-0.591-0.771-2.01-1.164-3.515-1.441c-1.569-0.291-4.386,0.328-4.386,0.328L26.421,42.883z"/>
	<g>
		<path fill="#681D00" d="M37.298,48.301c-0.343-0.643-0.163-2.721,1.159-4.627c0.969-1.398,1.43-1.389,2.043-1.451
			c0.617,0.027,1.365,0.123,1.787,1.18c0.355,0.891-0.354,4.266-3.002,5.561c-0.028,0.016-0.062,0.027-0.09,0.037
			C38.374,49.162,37.575,48.822,37.298,48.301z"/>
		
			<linearGradient id="SVGID_15_" gradientUnits="userSpaceOnUse" x1="40.1201" y1="-12.981" x2="41.1016" y2="-9.8183" gradientTransform="matrix(-0.29 -0.0613 -0.0408 0.2678 50.9168 51.6072)">
			<stop  offset="0" style="stop-color:#F48256"/>
			<stop  offset="0.0337" style="stop-color:#EBA079"/>
			<stop  offset="1" style="stop-color:#FABD96"/>
		</linearGradient>
		<path fill="url(#SVGID_15_)" d="M41.303,46.963c0.356-0.381,0.575-1.041,0.5-1.447c-0.099-0.533-1.76-2.166-2.928-1.568
			s-1.646,2.879-1.588,3.766c0.063,0.885,1.029,1.51,2.157,0.967C40.447,48.199,40.641,47.676,41.303,46.963z"/>
		
			<radialGradient id="SVGID_16_" cx="34.0986" cy="-16.9072" r="7.6463" gradientTransform="matrix(-0.29 -0.0613 -0.0408 0.2678 50.9168 51.6072)" gradientUnits="userSpaceOnUse">
			<stop  offset="0" style="stop-color:#FCD0AF"/>
			<stop  offset="1" style="stop-color:#FABD96"/>
		</radialGradient>
		<path fill="url(#SVGID_16_)" d="M37.866,45.123c0.251-0.516,0.581-0.959,1.009-1.176c1.168-0.598,2.872,0.664,2.928,1.568
			c0.024,0.41-0.144,1.066-0.5,1.447c-0.006,0.008-0.01,0.014-0.019,0.021c-0.049,0.012-0.096,0.021-0.134,0.021
			c-0.397,0.008-0.767-0.102-0.987-0.811c-0.218-0.709-1.078-0.408-1.622-0.479c-0.546-0.07-0.669-0.551-0.669-0.551L37.866,45.123z
			"/>
		
			<radialGradient id="SVGID_17_" cx="45.4932" cy="-32.6934" r="2.1386" gradientTransform="matrix(-0.2915 -0.0501 -0.0287 0.2701 54.0427 54.5332)" gradientUnits="userSpaceOnUse">
			<stop  offset="0" style="stop-color:#FCD0AF"/>
			<stop  offset="1" style="stop-color:#FABD96"/>
		</radialGradient>
		<path fill="url(#SVGID_17_)" d="M41.271,44.215c-0.167-0.102-0.189-0.359-0.049-0.572c0.137-0.215,0.385-0.303,0.552-0.201
			c0.168,0.105,0.192,0.361,0.054,0.576C41.687,44.23,41.438,44.32,41.271,44.215z"/>
		
			<radialGradient id="SVGID_18_" cx="65.5137" cy="-55.4966" r="2.1405" gradientTransform="matrix(-0.2623 -0.0451 -0.0258 0.2431 58.0953 60.4094)" gradientUnits="userSpaceOnUse">
			<stop  offset="0" style="stop-color:#FCD0AF"/>
			<stop  offset="1" style="stop-color:#FABD96"/>
		</radialGradient>
		<path fill="url(#SVGID_18_)" d="M41.713,44.662c-0.149-0.096-0.172-0.324-0.047-0.52c0.124-0.193,0.349-0.271,0.499-0.178
			c0.151,0.094,0.171,0.326,0.049,0.518C42.086,44.674,41.863,44.754,41.713,44.662z"/>
		
			<radialGradient id="SVGID_19_" cx="41.4121" cy="-29.9146" r="2.1438" gradientTransform="matrix(-0.2915 -0.0501 -0.0287 0.2701 52.3923 53.1118)" gradientUnits="userSpaceOnUse">
			<stop  offset="0" style="stop-color:#FCD0AF"/>
			<stop  offset="1" style="stop-color:#FABD96"/>
		</radialGradient>
		<path fill="url(#SVGID_19_)" d="M40.732,43.752c-0.169-0.104-0.191-0.361-0.054-0.576c0.139-0.213,0.388-0.303,0.555-0.199
			c0.169,0.105,0.194,0.363,0.054,0.576C41.148,43.768,40.899,43.855,40.732,43.752z"/>
		
			<radialGradient id="SVGID_20_" cx="36.4404" cy="-29.8672" r="2.1411" gradientTransform="matrix(-0.2915 -0.0501 -0.0287 0.2701 50.24 52.7246)" gradientUnits="userSpaceOnUse">
			<stop  offset="0" style="stop-color:#FCD0AF"/>
			<stop  offset="1" style="stop-color:#FABD96"/>
		</radialGradient>
		<path fill="url(#SVGID_20_)" d="M40.027,43.625c-0.17-0.104-0.19-0.359-0.054-0.574c0.139-0.215,0.388-0.303,0.557-0.199
			s0.191,0.361,0.051,0.576C40.442,43.641,40.194,43.73,40.027,43.625z"/>
		
			<radialGradient id="SVGID_21_" cx="47.9268" cy="-19.2969" r="2.1391" gradientTransform="matrix(-0.2877 -0.0742 -0.0548 0.2645 52.7065 51.5347)" gradientUnits="userSpaceOnUse">
			<stop  offset="0" style="stop-color:#FCD0AF"/>
			<stop  offset="1" style="stop-color:#FABD96"/>
		</radialGradient>
		<path fill="url(#SVGID_21_)" d="M39.238,43.473c-0.157-0.115-0.155-0.373,0.002-0.572c0.161-0.201,0.418-0.266,0.577-0.15
			c0.16,0.117,0.156,0.375-0.003,0.574C39.654,43.521,39.397,43.59,39.238,43.473z"/>
		
			<radialGradient id="SVGID_22_" cx="40.9473" cy="-25.1138" r="1.2659" gradientTransform="matrix(-0.29 -0.0613 -0.0408 0.2678 51.1765 51.6257)" gradientUnits="userSpaceOnUse">
			<stop  offset="0" style="stop-color:#B77049"/>
			<stop  offset="1" style="stop-color:#681D00"/>
		</radialGradient>
		<path fill="url(#SVGID_22_)" d="M39.921,42.475c0,0,0.208-0.172,0.343-0.086c0.064,0.039-0.017,0.186-0.163,0.258
			C39.958,42.717,39.844,42.58,39.921,42.475z"/>
		
			<radialGradient id="SVGID_23_" cx="68.5547" cy="-3.1895" r="1.2724" gradientTransform="matrix(-0.2803 -0.1017 -0.0849 0.2552 59.8609 50.3677)" gradientUnits="userSpaceOnUse">
			<stop  offset="0" style="stop-color:#B77049"/>
			<stop  offset="1" style="stop-color:#681D00"/>
		</radialGradient>
		<path fill="url(#SVGID_23_)" d="M40.565,42.504c0,0,0.24-0.137,0.358-0.035c0.059,0.051-0.047,0.182-0.204,0.23
			C40.561,42.748,40.472,42.596,40.565,42.504z"/>
		
			<radialGradient id="SVGID_24_" cx="81.1787" cy="7.0171" r="1.2753" gradientTransform="matrix(-0.2741 -0.1185 -0.1034 0.2479 64.3574 50.7449)" gradientUnits="userSpaceOnUse">
			<stop  offset="0" style="stop-color:#B77049"/>
			<stop  offset="1" style="stop-color:#681D00"/>
		</radialGradient>
		<path fill="url(#SVGID_24_)" d="M41.256,42.723c0,0,0.249-0.117,0.363-0.01c0.055,0.055-0.063,0.178-0.223,0.215
			C41.233,42.967,41.152,42.813,41.256,42.723z"/>
		
			<radialGradient id="SVGID_25_" cx="89.0938" cy="11.6382" r="1.2736" gradientTransform="matrix(-0.2716 -0.1242 -0.1096 0.2451 67.5494 51.2992)" gradientUnits="userSpaceOnUse">
			<stop  offset="0" style="stop-color:#B77049"/>
			<stop  offset="1" style="stop-color:#681D00"/>
		</radialGradient>
		<path fill="url(#SVGID_25_)" d="M41.653,43.098c0,0,0.253-0.113,0.363-0.002c0.055,0.055-0.067,0.176-0.227,0.211
			C41.625,43.34,41.55,43.184,41.653,43.098z"/>
		
			<radialGradient id="SVGID_26_" cx="91.2354" cy="268.3135" r="1.2743" gradientTransform="matrix(0.0202 -0.2715 -0.2922 -0.0422 118.8041 79.9812)" gradientUnits="userSpaceOnUse">
			<stop  offset="0" style="stop-color:#B77049"/>
			<stop  offset="1" style="stop-color:#681D00"/>
		</radialGradient>
		<path fill="url(#SVGID_26_)" d="M42.173,43.521c0,0,0.215,0.199,0.146,0.326c-0.035,0.061-0.204-0.018-0.302-0.156
			S42.047,43.449,42.173,43.521z"/>
	</g>
	
		<linearGradient id="SVGID_27_" gradientUnits="userSpaceOnUse" x1="-147.1265" y1="206.7725" x2="-150.1799" y2="210.5895" gradientTransform="matrix(0.4563 0.8266 -0.8266 0.4563 272.0826 61.2459)">
		<stop  offset="0.0056" style="stop-color:#A15C38"/>
		<stop  offset="0.2996" style="stop-color:#9C5733"/>
		<stop  offset="0.6709" style="stop-color:#8D4723"/>
		<stop  offset="1" style="stop-color:#7B340F"/>
	</linearGradient>
	<path fill="url(#SVGID_27_)" d="M36.13,32.559c3.936-2.096,4.768,1.121,3.879,2.844c-0.665,1.381-1.404,1.975-3.017,1.896
		c-4.105-0.201-8.902-2.93-8.902-2.93s0.467-3.514,1.093-3.695C29.529,30.576,33.147,30.668,36.13,32.559z"/>
	
		<linearGradient id="SVGID_28_" gradientUnits="userSpaceOnUse" x1="194.9824" y1="-127.6338" x2="198.8255" y2="-120.1046" gradientTransform="matrix(1.0905 0 0 1.0905 -197.1967 177.7749)">
		<stop  offset="0.0056" style="stop-color:#A15C38"/>
		<stop  offset="0.2996" style="stop-color:#9C5733"/>
		<stop  offset="0.6709" style="stop-color:#8D4723"/>
		<stop  offset="1" style="stop-color:#7B340F"/>
	</linearGradient>
	<path fill="url(#SVGID_28_)" d="M26.17,42.883c0,0-3.951-3.496-7.849-2.334c-2.533,0.758-3.407,2.426-3.407,2.426
		s-3.249-2.379-4.417,0.152c-0.804,1.738,0.583,3.719,1.156,4.461c1.256,1.623,2.96,2.26,4.076,0.801
		c0.592-0.771,2.125-1.236,3.629-1.514c1.569-0.291,4.273,0.4,4.273,0.4L26.17,42.883z"/>
	
		<radialGradient id="SVGID_29_" cx="203.4502" cy="-136.4229" r="16.1263" gradientTransform="matrix(1.0369 0 0 1.0369 -188.6362 174.1275)" gradientUnits="userSpaceOnUse">
		<stop  offset="0" style="stop-color:#D79B7A"/>
		<stop  offset="0.8652" style="stop-color:#A15C38"/>
		<stop  offset="1" style="stop-color:#B77049"/>
	</radialGradient>
	<path fill="url(#SVGID_29_)" d="M19.26,33.311c0,0-4.762,10.539,3.184,14.086c7.206,3.219,17.563-5.492,9.664-14.393
		C24.94,24.922,19.26,33.311,19.26,33.311z"/>
	
		<radialGradient id="SVGID_30_" cx="389.4434" cy="-226.0273" r="10.6698" gradientTransform="matrix(0.7987 -0.1118 0.1118 0.7987 -275.4739 230.7213)" gradientUnits="userSpaceOnUse">
		<stop  offset="0" style="stop-color:#D79B7A"/>
		<stop  offset="0.8652" style="stop-color:#A15C38"/>
		<stop  offset="1" style="stop-color:#B77049"/>
	</radialGradient>
	<circle fill="url(#SVGID_30_)" cx="14.464" cy="7.72" r="5.01"/>
	
		<linearGradient id="SVGID_31_" gradientUnits="userSpaceOnUse" x1="392.1328" y1="-225.7217" x2="396.1383" y2="-222.6407" gradientTransform="matrix(0.7987 -0.1118 0.1118 0.7987 -275.4739 230.7213)">
		<stop  offset="0.0056" style="stop-color:#A15C38"/>
		<stop  offset="0.2996" style="stop-color:#9C5733"/>
		<stop  offset="0.6709" style="stop-color:#8D4723"/>
		<stop  offset="1" style="stop-color:#7B340F"/>
	</linearGradient>
	<circle fill="url(#SVGID_31_)" cx="14.464" cy="7.721" r="2.612"/>
	
		<radialGradient id="SVGID_32_" cx="340.0322" cy="-232.9443" r="10.6693" gradientTransform="matrix(0.7987 -0.1118 0.1118 0.7987 -215.6716 230.7213)" gradientUnits="userSpaceOnUse">
		<stop  offset="0" style="stop-color:#D79B7A"/>
		<stop  offset="0.8652" style="stop-color:#A15C38"/>
		<stop  offset="1" style="stop-color:#B77049"/>
	</radialGradient>
	<circle fill="url(#SVGID_32_)" cx="34.028" cy="7.72" r="5.01"/>
	
		<linearGradient id="SVGID_33_" gradientUnits="userSpaceOnUse" x1="342.7227" y1="-232.6382" x2="346.729" y2="-229.5566" gradientTransform="matrix(0.7987 -0.1118 0.1118 0.7987 -215.6716 230.7213)">
		<stop  offset="0.0056" style="stop-color:#A15C38"/>
		<stop  offset="0.2996" style="stop-color:#9C5733"/>
		<stop  offset="0.6709" style="stop-color:#8D4723"/>
		<stop  offset="1" style="stop-color:#7B340F"/>
	</linearGradient>
	<path fill="url(#SVGID_33_)" d="M36.58,8.27c-0.3,1.41-1.688,2.309-3.101,2.004c-1.41-0.302-2.31-1.69-2.004-3.102
		c0.3-1.411,1.69-2.31,3.103-2.005C35.987,5.468,36.886,6.859,36.58,8.27z"/>
	
		<radialGradient id="SVGID_34_" cx="123.7363" cy="-312.1372" r="25.6423" gradientTransform="matrix(0.9441 0 0 0.9441 -97.5285 305.5481)" gradientUnits="userSpaceOnUse">
		<stop  offset="0" style="stop-color:#D79B7A"/>
		<stop  offset="0.8652" style="stop-color:#A15C38"/>
		<stop  offset="1" style="stop-color:#B77049"/>
	</radialGradient>
	<path fill="url(#SVGID_34_)" d="M24.597,5.094c-0.074,0-0.146,0.004-0.221,0.004c0.562-1.557,1.983-2.982,1.983-2.982
		c-1.632,0.68-2.513,2.104-2.934,3.028c-7.401,0.597-13.222,6.789-13.222,14.343c0,7.95,6.444,14.394,14.394,14.394
		c7.951,0,14.394-6.443,14.394-14.394S32.548,5.094,24.597,5.094z"/>
	
		<radialGradient id="SVGID_35_" cx="129.8418" cy="-295.1206" r="12.3505" gradientTransform="matrix(1.0634 0 0 1.1179 -113.6933 349.5596)" gradientUnits="userSpaceOnUse">
		<stop  offset="0" style="stop-color:#FDDAB4"/>
		<stop  offset="0.2015" style="stop-color:#FAD5AE"/>
		<stop  offset="0.4742" style="stop-color:#F0C69D"/>
		<stop  offset="0.7864" style="stop-color:#E0AD80"/>
		<stop  offset="0.8933" style="stop-color:#D9A375"/>
		<stop  offset="1" style="stop-color:#F0C596"/>
	</radialGradient>
	<path fill="url(#SVGID_35_)" d="M36.211,27.986c-0.632-4.13-5.636-7.346-11.717-7.346c-5.968,0-10.895,3.101-11.672,7.119
		c2.605,3.701,6.907,6.121,11.776,6.121C29.366,33.881,33.592,31.561,36.211,27.986z"/>
	<path fill="#EDB38F" d="M22.659,20.692c0,0-0.297,0.815,0.313,1.806c0.273,0.441,0.946,0.948,1.478,0.948
		c0.57,0,0.95-0.255,1.284-0.547c1.235-1.083,0.648-2.428,0.648-2.428L22.659,20.692z"/>
	<g>
		
			<linearGradient id="SVGID_36_" gradientUnits="userSpaceOnUse" x1="26.9951" y1="108.3887" x2="27.1382" y2="111.3937" gradientTransform="matrix(0.4849 0 0 0.4849 11.3623 -32.1543)">
			<stop  offset="0" style="stop-color:#CB8361"/>
			<stop  offset="1" style="stop-color:#6E3E38"/>
		</linearGradient>
		<path fill="url(#SVGID_36_)" d="M22.534,19.923c0,0-0.644,1.209,0.209,2.112c0.851,0.901,1.732,0.938,1.732,0.938
			s1.197-0.177,1.717-0.898c0.171-0.237,0.823-1.168,0.178-2.081C25.496,19.276,22.534,19.923,22.534,19.923z"/>
		<path fill="#9F5935" d="M23.684,21.897c0,0,0.159,0.652,0.694,0.704c0.553,0.051,0.882-0.556,0.872-0.744
			c-0.073-0.205-0.694-0.041-0.694-0.041L23.684,21.897z"/>
		<path fill="#231F20" d="M26.074,21.223c0,0-0.467,0.159-1.171,0.01c-0.743-0.157,0.464-0.676,0.464-0.676l0.603,0.091
			L26.074,21.223z"/>
		<path fill="#231F20" d="M22.73,21.193c0,0,0.466,0.158,1.169,0.01c0.744-0.158-0.462-0.675-0.462-0.675l-0.605,0.089L22.73,21.193
			z"/>
		
			<radialGradient id="SVGID_37_" cx="25.4541" cy="109.2881" r="4.2997" gradientTransform="matrix(0.4849 0 0 0.4849 11.3623 -32.1543)" gradientUnits="userSpaceOnUse">
			<stop  offset="0" style="stop-color:#FFFFFF"/>
			<stop  offset="1" style="stop-color:#6E3E38"/>
		</radialGradient>
		<path fill="url(#SVGID_37_)" d="M22.416,21.014c0,0-0.189-1.385,0.763-1.953c1.015-0.605,2.109-0.449,2.882,0.304
			c0.774,0.753,0.45,1.58,0.45,1.58l-2.103-0.673l-0.773,0.009L22.416,21.014z"/>
		
			<linearGradient id="SVGID_38_" gradientUnits="userSpaceOnUse" x1="27.4082" y1="-21.8042" x2="27.4082" y2="-19.296" gradientTransform="matrix(0.4849 0 0 0.4849 11.1826 31.4195)">
			<stop  offset="0" style="stop-color:#613438"/>
			<stop  offset="1" style="stop-color:#363639"/>
		</linearGradient>
		<path fill="url(#SVGID_38_)" d="M24.448,22.498c-0.356-0.004-0.898-0.559-0.783-0.859c0.133-0.343,0.276-0.431,0.138-0.694
			c-0.124-0.239-0.436-0.268-0.604-0.099c-0.116,0.117-0.104,0.282-0.158,0.347c-0.269,0.308-1.004-0.081-0.364-0.862
			c0.641-0.784,1.791-0.744,1.791-0.744c0.714,0.02,1.254,0.247,1.751,0.744c0.767,0.763-0.13,1.135-0.342,0.819
			c-0.057-0.081-0.102-0.217-0.2-0.294c-0.186-0.147-0.458-0.186-0.613,0.039c-0.266,0.382,0.07,0.401,0.187,0.704
			C25.381,21.943,24.791,22.501,24.448,22.498z"/>
		<path fill="#9F5935" d="M25.729,20.91c-0.057-0.09-0.205-0.266-0.429-0.243c-0.25,0.026-0.356,0.159-0.336,0.479
			c-0.002-0.064,0.024-0.143,0.099-0.251c0.156-0.225,0.428-0.187,0.613-0.039C25.698,20.871,25.713,20.891,25.729,20.91z"/>
		<path fill="#9F5935" d="M23.594,20.667c-0.375-0.139-0.594,0.239-0.576,0.546c0.006-0.008,0.016-0.013,0.022-0.02
			c0.055-0.065,0.042-0.23,0.158-0.347c0.168-0.169,0.48-0.14,0.604,0.099c0.046,0.085,0.06,0.153,0.054,0.216
			C23.898,21.062,23.913,20.783,23.594,20.667z"/>
	</g>
	<g>
		<path fill="#FCD0AF" d="M32.744,16.687c-0.116,1.903-1.43,3.261-2.93,3.035c-1.504-0.229-2.629-1.957-2.513-3.861
			c0.113-1.902,1.427-3.261,2.929-3.033S32.858,14.782,32.744,16.687z"/>
	</g>
	<g>
		<path fill="#A15C38" d="M32.825,16.273c-0.118,1.904-1.429,3.262-2.929,3.035c-1.505-0.229-2.63-1.956-2.516-3.86
			c0.116-1.903,1.427-3.263,2.934-3.035C31.814,12.641,32.939,14.368,32.825,16.273z"/>
	</g>
	<g>
		
			<radialGradient id="SVGID_39_" cx="408.9639" cy="-214.4224" r="5.9532" gradientTransform="matrix(1.2356 -0.145 0.209 0.9756 -432.5478 281.7747)" gradientUnits="userSpaceOnUse">
			<stop  offset="0.3034" style="stop-color:#FFFFFF"/>
			<stop  offset="0.4322" style="stop-color:#FAFAFA"/>
			<stop  offset="0.5953" style="stop-color:#EAEAEB"/>
			<stop  offset="0.7768" style="stop-color:#D0D1D3"/>
			<stop  offset="0.9705" style="stop-color:#ACAEB1"/>
			<stop  offset="1" style="stop-color:#A6A8AB"/>
		</radialGradient>
		<path fill="url(#SVGID_39_)" d="M32.799,16.545c-0.118,1.903-1.429,3.263-2.931,3.036c-1.503-0.229-2.628-1.957-2.514-3.86
			c0.116-1.903,1.429-3.262,2.931-3.035C31.788,12.914,32.913,14.641,32.799,16.545z"/>
	</g>
	<g>
		
			<radialGradient id="SVGID_40_" cx="-149.8726" cy="315.6953" r="2.3454" gradientTransform="matrix(-2.4918 0.4805 0.5801 1.6742 -526.2377 -441.9392)" gradientUnits="userSpaceOnUse">
			<stop  offset="0.3034" style="stop-color:#363639"/>
			<stop  offset="0.4186" style="stop-color:#3B3839"/>
			<stop  offset="0.5645" style="stop-color:#4B3E39"/>
			<stop  offset="0.727" style="stop-color:#654739"/>
			<stop  offset="0.9001" style="stop-color:#895338"/>
			<stop  offset="1" style="stop-color:#A15C38"/>
		</radialGradient>
		<path fill="url(#SVGID_40_)" d="M30.043,19.447c-0.954,0.039-1.738-1.041-1.759-2.417c-0.021-1.373,0.735-2.519,1.688-2.559
			c0.952-0.038,1.736,1.043,1.757,2.417C31.751,18.264,30.995,19.409,30.043,19.447z"/>
		<path fill="#231F20" d="M30.021,18.622c-0.632,0.026-1.155-0.691-1.168-1.604c-0.017-0.912,0.487-1.674,1.121-1.699
			c0.63-0.024,1.156,0.69,1.168,1.604C31.154,17.836,30.652,18.598,30.021,18.622z"/>
		<path fill="#FFFFFF" d="M28.93,15.713c-0.04,0.302,0.116,0.549,0.345,0.552c0.227,0.007,0.442-0.232,0.478-0.533
			c0.036-0.3-0.116-0.548-0.345-0.554C29.181,15.175,28.965,15.414,28.93,15.713z"/>
	</g>
	<g>
		<path fill="#FCD0AF" d="M21.768,16.687c-0.117,1.903-1.427,3.261-2.93,3.035c-1.503-0.229-2.628-1.957-2.513-3.861
			c0.116-1.902,1.427-3.261,2.931-3.033C20.757,13.056,21.881,14.782,21.768,16.687z"/>
	</g>
	<g>
		<path fill="#A15C38" d="M21.85,16.273c-0.116,1.904-1.428,3.262-2.93,3.035c-1.503-0.229-2.628-1.956-2.513-3.86
			c0.115-1.903,1.427-3.263,2.931-3.035C20.838,12.641,21.964,14.368,21.85,16.273z"/>
	</g>
	<g>
		
			<radialGradient id="SVGID_41_" cx="426.7861" cy="-211.7744" r="5.9531" gradientTransform="matrix(1.2356 -0.145 0.209 0.9756 -466.0976 281.7747)" gradientUnits="userSpaceOnUse">
			<stop  offset="0.3034" style="stop-color:#FFFFFF"/>
			<stop  offset="0.4322" style="stop-color:#FAFAFA"/>
			<stop  offset="0.5953" style="stop-color:#EAEAEB"/>
			<stop  offset="0.7768" style="stop-color:#D0D1D3"/>
			<stop  offset="0.9705" style="stop-color:#ACAEB1"/>
			<stop  offset="1" style="stop-color:#A6A8AB"/>
		</radialGradient>
		<path fill="url(#SVGID_41_)" d="M21.822,16.545c-0.115,1.903-1.428,3.263-2.929,3.036c-1.504-0.229-2.628-1.957-2.513-3.86
			s1.427-3.262,2.93-3.035C20.812,12.914,21.937,14.641,21.822,16.545z"/>
	</g>
	<g>
		
			<radialGradient id="SVGID_42_" cx="-158.3823" cy="318.3369" r="2.3452" gradientTransform="matrix(-2.4918 0.4805 0.5801 1.6742 -560.0268 -442.4314)" gradientUnits="userSpaceOnUse">
			<stop  offset="0.3034" style="stop-color:#363639"/>
			<stop  offset="0.4186" style="stop-color:#3B3839"/>
			<stop  offset="0.5645" style="stop-color:#4B3E39"/>
			<stop  offset="0.727" style="stop-color:#654739"/>
			<stop  offset="0.9001" style="stop-color:#895338"/>
			<stop  offset="1" style="stop-color:#A15C38"/>
		</radialGradient>
		<path fill="url(#SVGID_42_)" d="M18.986,19.287c-0.951,0.039-1.74-1.042-1.757-2.417c-0.022-1.375,0.733-2.52,1.686-2.558
			c0.954-0.04,1.738,1.041,1.757,2.415C20.694,18.102,19.939,19.248,18.986,19.287z"/>
		<path fill="#231F20" d="M18.964,18.461c-0.631,0.026-1.156-0.692-1.168-1.604c-0.015-0.914,0.488-1.675,1.12-1.701
			c0.631-0.025,1.156,0.691,1.168,1.604C20.098,17.675,19.596,18.435,18.964,18.461z"/>
		<path fill="#FFFFFF" d="M17.873,15.553c-0.039,0.3,0.119,0.548,0.346,0.552c0.227,0.006,0.441-0.234,0.477-0.534
			c0.038-0.301-0.118-0.548-0.346-0.553C18.124,15.014,17.909,15.252,17.873,15.553z"/>
	</g>
	<ellipse fill="#FDE6D3" cx="24.563" cy="30.363" rx="2.983" ry="1.764"/>
	
		<radialGradient id="SVGID_43_" cx="-142.6216" cy="183.3711" r="5.3898" gradientTransform="matrix(0.9441 0 0 0.9441 159.0374 -145.4582)" gradientUnits="userSpaceOnUse">
		<stop  offset="0" style="stop-color:#8A0304"/>
		<stop  offset="0.1816" style="stop-color:#8F0406"/>
		<stop  offset="0.3945" style="stop-color:#9D080A"/>
		<stop  offset="0.623" style="stop-color:#B50E12"/>
		<stop  offset="0.8608" style="stop-color:#D5161D"/>
		<stop  offset="1" style="stop-color:#EC1C24"/>
	</radialGradient>
	<ellipse fill="url(#SVGID_43_)" cx="24.563" cy="30.23" rx="2.983" ry="1.631"/>
	<path fill="#F38486" d="M22.094,31.145c0.537,0.432,1.442,0.717,2.469,0.717c1.027,0,1.933-0.285,2.469-0.717
		c-0.536-0.432-1.442-0.715-2.469-0.715C23.536,30.43,22.631,30.713,22.094,31.145z"/>
	<g>
		<path fill="#681D00" d="M15.293,48.301c0.342-0.643,0.078-2.713-1.243-4.619c-0.968-1.396-1.347-1.396-1.96-1.459
			c-0.617,0.027-1.366,0.123-1.788,1.18c-0.354,0.891,0.356,4.266,3.002,5.561c0.03,0.016,0.063,0.027,0.091,0.037
			C14.216,49.162,15.017,48.822,15.293,48.301z"/>
		
			<linearGradient id="SVGID_44_" gradientUnits="userSpaceOnUse" x1="26.4453" y1="-16.1104" x2="27.4268" y2="-12.9476" gradientTransform="matrix(0.29 -0.0613 0.0408 0.2678 5.7668 51.6072)">
			<stop  offset="0" style="stop-color:#F48256"/>
			<stop  offset="0.0337" style="stop-color:#EBA079"/>
			<stop  offset="1" style="stop-color:#FABD96"/>
		</linearGradient>
		<path fill="url(#SVGID_44_)" d="M11.286,46.963c-0.356-0.381-0.573-1.041-0.498-1.447c0.098-0.533,1.76-2.166,2.928-1.568
			c1.167,0.598,1.646,2.879,1.585,3.766c-0.062,0.885-1.026,1.51-2.155,0.967C12.144,48.199,11.952,47.676,11.286,46.963z"/>
		
			<radialGradient id="SVGID_45_" cx="20.4282" cy="-20.0361" r="7.6457" gradientTransform="matrix(0.29 -0.0613 0.0408 0.2678 5.7668 51.6072)" gradientUnits="userSpaceOnUse">
			<stop  offset="0" style="stop-color:#FCD0AF"/>
			<stop  offset="1" style="stop-color:#FABD96"/>
		</radialGradient>
		<path fill="url(#SVGID_45_)" d="M14.725,45.123c-0.249-0.516-0.582-0.959-1.008-1.176c-1.168-0.598-2.873,0.664-2.928,1.568
			c-0.024,0.41,0.142,1.066,0.498,1.447c0.006,0.008,0.013,0.014,0.02,0.021c0.051,0.012,0.097,0.021,0.135,0.021
			c0.398,0.008,0.767-0.102,0.985-0.811c0.217-0.709,1.081-0.408,1.625-0.479s0.667-0.551,0.667-0.551L14.725,45.123z"/>
		
			<radialGradient id="SVGID_46_" cx="31.707" cy="-35.2515" r="2.1393" gradientTransform="matrix(0.2915 -0.0501 0.0287 0.2701 2.6409 54.5332)" gradientUnits="userSpaceOnUse">
			<stop  offset="0" style="stop-color:#FCD0AF"/>
			<stop  offset="1" style="stop-color:#FABD96"/>
		</radialGradient>
		<path fill="url(#SVGID_46_)" d="M11.318,44.215c0.168-0.102,0.192-0.359,0.053-0.572c-0.139-0.215-0.387-0.303-0.556-0.201
			c-0.167,0.105-0.19,0.361-0.051,0.576C10.903,44.23,11.151,44.32,11.318,44.215z"/>
		
			<radialGradient id="SVGID_47_" cx="50.1865" cy="-58.3403" r="2.1408" gradientTransform="matrix(0.2623 -0.0451 0.0258 0.2431 -1.4117 60.4094)" gradientUnits="userSpaceOnUse">
			<stop  offset="0" style="stop-color:#FCD0AF"/>
			<stop  offset="1" style="stop-color:#FABD96"/>
		</radialGradient>
		<path fill="url(#SVGID_47_)" d="M10.878,44.662c0.149-0.096,0.171-0.324,0.046-0.52c-0.124-0.193-0.348-0.271-0.499-0.178
			c-0.152,0.094-0.173,0.326-0.047,0.518S10.727,44.754,10.878,44.662z"/>
		
			<radialGradient id="SVGID_48_" cx="27.6221" cy="-32.4722" r="2.1435" gradientTransform="matrix(0.2915 -0.0501 0.0287 0.2701 4.2913 53.1118)" gradientUnits="userSpaceOnUse">
			<stop  offset="0" style="stop-color:#FCD0AF"/>
			<stop  offset="1" style="stop-color:#FABD96"/>
		</radialGradient>
		<path fill="url(#SVGID_48_)" d="M11.858,43.752c0.168-0.104,0.192-0.361,0.053-0.576c-0.139-0.213-0.388-0.303-0.555-0.199
			c-0.168,0.105-0.192,0.363-0.053,0.576C11.443,43.768,11.69,43.855,11.858,43.752z"/>
		
			<radialGradient id="SVGID_49_" cx="22.6499" cy="-32.4243" r="2.1407" gradientTransform="matrix(0.2915 -0.0501 0.0287 0.2701 6.4436 52.7246)" gradientUnits="userSpaceOnUse">
			<stop  offset="0" style="stop-color:#FCD0AF"/>
			<stop  offset="1" style="stop-color:#FABD96"/>
		</radialGradient>
		<path fill="url(#SVGID_49_)" d="M12.564,43.625c0.167-0.104,0.19-0.359,0.052-0.574c-0.139-0.215-0.388-0.303-0.556-0.199
			c-0.168,0.104-0.191,0.361-0.05,0.576C12.146,43.641,12.396,43.73,12.564,43.625z"/>
		
			<radialGradient id="SVGID_50_" cx="34.4199" cy="-23.0864" r="2.14" gradientTransform="matrix(0.2877 -0.0742 0.0548 0.2645 3.977 51.5347)" gradientUnits="userSpaceOnUse">
			<stop  offset="0" style="stop-color:#FCD0AF"/>
			<stop  offset="1" style="stop-color:#FABD96"/>
		</radialGradient>
		<path fill="url(#SVGID_50_)" d="M13.352,43.473c0.158-0.115,0.156-0.373-0.003-0.572c-0.16-0.201-0.417-0.266-0.575-0.15
			c-0.16,0.117-0.157,0.375,0.002,0.574C12.936,43.521,13.194,43.59,13.352,43.473z"/>
		
			<radialGradient id="SVGID_51_" cx="27.2725" cy="-28.2441" r="1.2689" gradientTransform="matrix(0.29 -0.0613 0.0408 0.2678 5.507 51.6257)" gradientUnits="userSpaceOnUse">
			<stop  offset="0" style="stop-color:#B77049"/>
			<stop  offset="1" style="stop-color:#681D00"/>
		</radialGradient>
		<path fill="url(#SVGID_51_)" d="M12.67,42.475c0,0-0.209-0.172-0.343-0.086c-0.066,0.039,0.016,0.186,0.163,0.258
			C12.634,42.717,12.749,42.58,12.67,42.475z"/>
		
			<radialGradient id="SVGID_52_" cx="55.5234" cy="-8.3833" r="1.2723" gradientTransform="matrix(0.2803 -0.1017 0.0849 0.2552 -3.1773 50.3677)" gradientUnits="userSpaceOnUse">
			<stop  offset="0" style="stop-color:#B77049"/>
			<stop  offset="1" style="stop-color:#681D00"/>
		</radialGradient>
		<path fill="url(#SVGID_52_)" d="M12.024,42.504c0,0-0.239-0.137-0.358-0.035c-0.058,0.051,0.048,0.182,0.207,0.23
			C12.028,42.748,12.119,42.596,12.024,42.504z"/>
		
			<radialGradient id="SVGID_53_" cx="68.5273" cy="0.9697" r="1.2746" gradientTransform="matrix(0.2741 -0.1185 0.1034 0.2479 -7.6748 50.7449)" gradientUnits="userSpaceOnUse">
			<stop  offset="0" style="stop-color:#B77049"/>
			<stop  offset="1" style="stop-color:#681D00"/>
		</radialGradient>
		<path fill="url(#SVGID_53_)" d="M11.334,42.723c0,0-0.249-0.117-0.361-0.01c-0.056,0.055,0.061,0.178,0.222,0.215
			C11.356,42.967,11.438,42.813,11.334,42.723z"/>
		
			<radialGradient id="SVGID_54_" cx="76.582" cy="5.2998" r="1.2736" gradientTransform="matrix(0.2716 -0.1242 0.1096 0.2451 -10.8659 51.2992)" gradientUnits="userSpaceOnUse">
			<stop  offset="0" style="stop-color:#B77049"/>
			<stop  offset="1" style="stop-color:#681D00"/>
		</radialGradient>
		<path fill="url(#SVGID_54_)" d="M10.938,43.098c0,0-0.253-0.113-0.362-0.002c-0.056,0.055,0.064,0.176,0.227,0.211
			C10.965,43.34,11.041,43.184,10.938,43.098z"/>
		
			<radialGradient id="SVGID_55_" cx="93.3896" cy="254.459" r="1.2745" gradientTransform="matrix(-0.0202 -0.2715 0.2922 -0.0422 -62.1224 79.9812)" gradientUnits="userSpaceOnUse">
			<stop  offset="0" style="stop-color:#B77049"/>
			<stop  offset="1" style="stop-color:#681D00"/>
		</radialGradient>
		<path fill="url(#SVGID_55_)" d="M10.417,43.521c0,0-0.214,0.199-0.144,0.326c0.034,0.061,0.202-0.018,0.302-0.156
			C10.671,43.553,10.544,43.449,10.417,43.521z"/>
	</g>
	<g>
		<path fill="#681D00" d="M39.544,32.27c1.06,0.613,1.296,2.184,0.53,3.508c-0.765,1.324-2.245,1.9-3.305,1.285
			c-1.06-0.609-1.299-2.18-0.532-3.506C37.002,32.234,38.483,31.656,39.544,32.27z"/>
		
			<linearGradient id="SVGID_56_" gradientUnits="userSpaceOnUse" x1="19.667" y1="62.5713" x2="20.6484" y2="65.7337" gradientTransform="matrix(-0.2791 -0.0673 -0.0469 0.2581 46.2873 20.3824)">
			<stop  offset="0" style="stop-color:#F48256"/>
			<stop  offset="0.0337" style="stop-color:#EBA079"/>
			<stop  offset="1" style="stop-color:#FABD96"/>
		</linearGradient>
		<path fill="url(#SVGID_56_)" d="M39.348,36.316c0.343-0.371,0.586-0.99,0.526-1.387c-0.081-0.52-1.567-2.084-2.713-1.539
			c-1.147,0.547-1.307,1.736-1.117,2.5c0.157,0.627,1.335,1.512,2.246,1.186C38.841,36.879,38.965,36.738,39.348,36.316z"/>
		
			<radialGradient id="SVGID_57_" cx="14.5918" cy="57.9453" r="7.6486" gradientTransform="matrix(-0.2791 -0.0673 -0.0469 0.2581 46.2854 20.5528)" gradientUnits="userSpaceOnUse">
			<stop  offset="0" style="stop-color:#FCD0AF"/>
			<stop  offset="1" style="stop-color:#FABD96"/>
		</radialGradient>
		<path fill="url(#SVGID_57_)" d="M36.07,34.496c0.127-0.51,0.42-0.877,1.011-1.107c1.183-0.465,2.763,0.721,2.791,1.598
			c0.012,0.396-0.167,1.029-0.524,1.387c-0.006,0.008-0.01,0.016-0.016,0.02c-0.051,0.012-0.096,0.02-0.133,0.018
			c-0.385-0.002-0.74-0.119-0.934-0.813c-0.189-0.691-1.033-0.424-1.558-0.508c-0.525-0.084-0.63-0.549-0.63-0.549L36.07,34.496z"/>
		
			<radialGradient id="SVGID_58_" cx="30.417" cy="21.208" r="2.1414" gradientTransform="matrix(-0.263 -0.0281 -0.0102 0.2427 47.9891 28.8381)" gradientUnits="userSpaceOnUse">
			<stop  offset="0" style="stop-color:#FCD0AF"/>
			<stop  offset="1" style="stop-color:#FABD96"/>
		</radialGradient>
		<path fill="url(#SVGID_58_)" d="M39.24,33.729c-0.155-0.084-0.189-0.313-0.077-0.51c0.111-0.199,0.328-0.293,0.484-0.209
			c0.153,0.082,0.189,0.311,0.08,0.51C39.613,33.717,39.397,33.813,39.24,33.729z"/>
		
			<radialGradient id="SVGID_59_" cx="46.2109" cy="4.7378" r="2.1394" gradientTransform="matrix(-0.2367 -0.0253 -0.0092 0.2184 51.0499 33.6407)" gradientUnits="userSpaceOnUse">
			<stop  offset="0" style="stop-color:#FCD0AF"/>
			<stop  offset="1" style="stop-color:#FABD96"/>
		</radialGradient>
		<path fill="url(#SVGID_59_)" d="M39.63,34.139c-0.139-0.074-0.172-0.279-0.069-0.459c0.098-0.178,0.293-0.264,0.434-0.188
			s0.174,0.279,0.071,0.459C39.966,34.129,39.771,34.213,39.63,34.139z"/>
		
			<radialGradient id="SVGID_60_" cx="26.4082" cy="23.897" r="2.1413" gradientTransform="matrix(-0.263 -0.0281 -0.0102 0.2427 46.4618 27.7009)" gradientUnits="userSpaceOnUse">
			<stop  offset="0" style="stop-color:#FCD0AF"/>
			<stop  offset="1" style="stop-color:#FABD96"/>
		</radialGradient>
		<path fill="url(#SVGID_60_)" d="M38.743,33.357c-0.157-0.084-0.192-0.313-0.08-0.51s0.328-0.293,0.483-0.211
			c0.157,0.084,0.191,0.313,0.079,0.512C39.116,33.346,38.897,33.441,38.743,33.357z"/>
		
			<radialGradient id="SVGID_61_" cx="21.5757" cy="24.4028" r="2.1411" gradientTransform="matrix(-0.263 -0.0281 -0.0102 0.2427 44.5809 27.3171)" gradientUnits="userSpaceOnUse">
			<stop  offset="0" style="stop-color:#FCD0AF"/>
			<stop  offset="1" style="stop-color:#FABD96"/>
		</radialGradient>
		<path fill="url(#SVGID_61_)" d="M38.127,33.232c-0.154-0.086-0.191-0.313-0.079-0.512c0.112-0.197,0.328-0.291,0.482-0.209
			c0.159,0.084,0.192,0.314,0.08,0.512C38.498,33.223,38.282,33.316,38.127,33.232z"/>
		
			<radialGradient id="SVGID_62_" cx="25.8223" cy="34.3311" r="2.1396" gradientTransform="matrix(-0.261 -0.0499 -0.0339 0.2392 45.8221 25.6153)" gradientUnits="userSpaceOnUse">
			<stop  offset="0" style="stop-color:#FCD0AF"/>
			<stop  offset="1" style="stop-color:#FABD96"/>
		</radialGradient>
		<path fill="url(#SVGID_62_)" d="M37.416,33.139c-0.149-0.094-0.163-0.322-0.031-0.512c0.131-0.186,0.357-0.26,0.506-0.164
			c0.148,0.094,0.161,0.324,0.028,0.51C37.789,33.162,37.563,33.236,37.416,33.139z"/>
		
			<radialGradient id="SVGID_63_" cx="21.8833" cy="29.0977" r="1.2724" gradientTransform="matrix(-0.2623 -0.0382 -0.0212 0.2413 44.61 25.951)" gradientUnits="userSpaceOnUse">
			<stop  offset="0" style="stop-color:#B77049"/>
			<stop  offset="1" style="stop-color:#681D00"/>
		</radialGradient>
		<path fill="url(#SVGID_63_)" d="M37.915,32.246c0,0,0.176-0.166,0.3-0.098c0.062,0.033-0.004,0.17-0.129,0.242
			C37.96,32.463,37.85,32.346,37.915,32.246z"/>
		
			<radialGradient id="SVGID_64_" cx="41.4385" cy="48.7598" r="1.2776" gradientTransform="matrix(-0.256 -0.0749 -0.0612 0.2326 52.4371 23.8992)" gradientUnits="userSpaceOnUse">
			<stop  offset="0" style="stop-color:#B77049"/>
			<stop  offset="1" style="stop-color:#681D00"/>
		</radialGradient>
		<path fill="url(#SVGID_64_)" d="M38.502,32.238c0,0,0.208-0.135,0.32-0.053c0.055,0.043-0.035,0.168-0.171,0.221
			C38.515,32.457,38.425,32.326,38.502,32.238z"/>
		
			<radialGradient id="SVGID_65_" cx="51.6133" cy="57.1855" r="1.2758" gradientTransform="matrix(-0.2513 -0.0902 -0.0782 0.2271 56.8274 24.0528)" gradientUnits="userSpaceOnUse">
			<stop  offset="0" style="stop-color:#B77049"/>
			<stop  offset="1" style="stop-color:#681D00"/>
		</radialGradient>
		<path fill="url(#SVGID_65_)" d="M39.12,32.395c0,0,0.216-0.123,0.324-0.031c0.053,0.045-0.045,0.162-0.186,0.205
			C39.116,32.611,39.034,32.479,39.12,32.395z"/>
		
			<radialGradient id="SVGID_66_" cx="56.8301" cy="58.7695" r="1.2761" gradientTransform="matrix(-0.2495 -0.0954 -0.0839 0.225 58.8492 24.926)" gradientUnits="userSpaceOnUse">
			<stop  offset="0" style="stop-color:#B77049"/>
			<stop  offset="1" style="stop-color:#681D00"/>
		</radialGradient>
		<path fill="url(#SVGID_66_)" d="M39.521,32.688c0,0,0.22-0.117,0.326-0.023c0.051,0.045-0.051,0.158-0.193,0.201
			C39.511,32.904,39.434,32.768,39.521,32.688z"/>
		
			<radialGradient id="SVGID_67_" cx="36.5049" cy="253.8975" r="1.2728" gradientTransform="matrix(0.0026 -0.2434 -0.2632 -0.0211 106.881 47.6995)" gradientUnits="userSpaceOnUse">
			<stop  offset="0" style="stop-color:#B77049"/>
			<stop  offset="1" style="stop-color:#681D00"/>
		</radialGradient>
		<path fill="url(#SVGID_67_)" d="M40.099,33.119c0,0,0.201,0.166,0.145,0.281c-0.026,0.057-0.18-0.004-0.277-0.123
			C39.872,33.16,39.98,33.061,40.099,33.119z"/>
	</g>
</g>
</svg>
