<?xml version="1.0" encoding="utf-8"?>
<!-- Generator: Adobe Illustrator 14.0.0, SVG Export Plug-In . SVG Version: 6.00 Build 43363)  -->
<!DOCTYPE svg PUBLIC "-//W3C//DTD SVG 1.1//EN" "http://www.w3.org/Graphics/SVG/1.1/DTD/svg11.dtd">
<svg version="1.1" id="图层_1" xmlns="http://www.w3.org/2000/svg" xmlns:xlink="http://www.w3.org/1999/xlink" x="0px" y="0px"
	 width="50px" height="50px" viewBox="0 0 50 50" enable-background="new 0 0 50 50" xml:space="preserve">
<g>
	
		<linearGradient id="SVGID_1_" gradientUnits="userSpaceOnUse" x1="-7687.4932" y1="-7527" x2="-7674.4453" y2="-7527" gradientTransform="matrix(0.8253 -0.3906 -0.3906 -0.8253 3438.2834 -9187.3594)">
		<stop  offset="0" style="stop-color:#EC1C24"/>
		<stop  offset="0.209" style="stop-color:#E81B23"/>
		<stop  offset="0.4092" style="stop-color:#DD181F"/>
		<stop  offset="0.606" style="stop-color:#C91319"/>
		<stop  offset="0.8006" style="stop-color:#AE0C10"/>
		<stop  offset="0.992" style="stop-color:#8C0305"/>
		<stop  offset="1" style="stop-color:#8A0304"/>
	</linearGradient>
	<path fill="url(#SVGID_1_)" d="M42.829,27.053c0,0-1.956-5.871-9.851-2.025l-0.87-2.018c0,0,3.569-2.299,7.686-1.22
		c1.868,0.49,4.992,3.037,4.79,5.803L42.829,27.053z"/>
	
		<linearGradient id="SVGID_2_" gradientUnits="userSpaceOnUse" x1="-7676.3901" y1="-7569.9229" x2="-7663.3413" y2="-7569.9229" gradientTransform="matrix(-0.9065 -0.1099 -0.1099 0.9065 -7772.04 6041.4263)">
		<stop  offset="0" style="stop-color:#D71921"/>
		<stop  offset="0.2347" style="stop-color:#D31820"/>
		<stop  offset="0.4596" style="stop-color:#C8151B"/>
		<stop  offset="0.6805" style="stop-color:#B40F14"/>
		<stop  offset="0.8978" style="stop-color:#99070A"/>
		<stop  offset="1" style="stop-color:#8A0304"/>
	</linearGradient>
	<path fill="url(#SVGID_2_)" d="M9.469,17.43c0,0-0.067,6.479,8.915,6.797l-0.671,2.997c0,0-9.594-1.089-11.145-9.929L9.469,17.43z"
		/>
	
		<radialGradient id="SVGID_3_" cx="-154.1582" cy="-325.6724" r="3.8915" gradientTransform="matrix(0.9617 0 0 0.9617 192.6262 344.989)" gradientUnits="userSpaceOnUse">
		<stop  offset="0" style="stop-color:#FFFFFF"/>
		<stop  offset="0.0127" style="stop-color:#FBD1D3"/>
		<stop  offset="0.028" style="stop-color:#F7A2A5"/>
		<stop  offset="0.0437" style="stop-color:#F4787D"/>
		<stop  offset="0.0596" style="stop-color:#F1575D"/>
		<stop  offset="0.0759" style="stop-color:#EF3D44"/>
		<stop  offset="0.0926" style="stop-color:#ED2B32"/>
		<stop  offset="0.11" style="stop-color:#EC2027"/>
		<stop  offset="0.1292" style="stop-color:#EC1C24"/>
		<stop  offset="0.7921" style="stop-color:#8A0304"/>
		<stop  offset="0.8341" style="stop-color:#8F0506"/>
		<stop  offset="0.8872" style="stop-color:#9F090C"/>
		<stop  offset="0.9462" style="stop-color:#B91016"/>
		<stop  offset="1" style="stop-color:#D71921"/>
	</radialGradient>
	<path fill="url(#SVGID_3_)" d="M41.166,32.392c0,0,0.751-0.881,1.616-0.76c1.612,0.216,2.956,2.112,3.611,3.213
		c0,0-3.386-0.615-4.711-1.476C41.028,32.942,41.166,32.392,41.166,32.392z"/>
	
		<radialGradient id="SVGID_4_" cx="-155.356" cy="-326.0605" r="3.7019" gradientTransform="matrix(0.9617 0 0 0.9617 191.655 345.0886)" gradientUnits="userSpaceOnUse">
		<stop  offset="0" style="stop-color:#FFFFFF"/>
		<stop  offset="0.0127" style="stop-color:#FBD1D3"/>
		<stop  offset="0.028" style="stop-color:#F7A2A5"/>
		<stop  offset="0.0437" style="stop-color:#F4787D"/>
		<stop  offset="0.0596" style="stop-color:#F1575D"/>
		<stop  offset="0.0759" style="stop-color:#EF3D44"/>
		<stop  offset="0.0926" style="stop-color:#ED2B32"/>
		<stop  offset="0.11" style="stop-color:#EC2027"/>
		<stop  offset="0.1292" style="stop-color:#EC1C24"/>
		<stop  offset="0.7921" style="stop-color:#8A0304"/>
		<stop  offset="0.8341" style="stop-color:#8F0506"/>
		<stop  offset="0.8872" style="stop-color:#9F090C"/>
		<stop  offset="0.9462" style="stop-color:#B91016"/>
		<stop  offset="1" style="stop-color:#D71921"/>
	</radialGradient>
	<path fill="url(#SVGID_4_)" d="M37.594,31.838c0,0,4.275-1.313,4.956-0.312c1.338,1.968-2.172,2.595-5.778,1.361L37.594,31.838z"/>
	
		<radialGradient id="SVGID_5_" cx="-158.0107" cy="-325.6445" r="2.5069" gradientTransform="matrix(0.9617 0 0 0.9617 191.4123 344.6032)" gradientUnits="userSpaceOnUse">
		<stop  offset="0" style="stop-color:#FFFFFF"/>
		<stop  offset="0.0127" style="stop-color:#FBD1D3"/>
		<stop  offset="0.028" style="stop-color:#F7A2A5"/>
		<stop  offset="0.0437" style="stop-color:#F4787D"/>
		<stop  offset="0.0596" style="stop-color:#F1575D"/>
		<stop  offset="0.0759" style="stop-color:#EF3D44"/>
		<stop  offset="0.0926" style="stop-color:#ED2B32"/>
		<stop  offset="0.11" style="stop-color:#EC2027"/>
		<stop  offset="0.1292" style="stop-color:#EC1C24"/>
		<stop  offset="0.7921" style="stop-color:#8A0304"/>
		<stop  offset="0.8341" style="stop-color:#8F0506"/>
		<stop  offset="0.8872" style="stop-color:#9F090C"/>
		<stop  offset="0.9462" style="stop-color:#B91016"/>
		<stop  offset="1" style="stop-color:#D71921"/>
	</radialGradient>
	<path fill="url(#SVGID_5_)" d="M34.751,32.342c0,0,4.152-1.953,4.801-1.266c1.261,1.343-0.897,2.503-5.403,2.456L34.751,32.342z"/>
	
		<radialGradient id="SVGID_6_" cx="-154.0605" cy="-323.5273" r="4.378" gradientTransform="matrix(0.9617 0 0 0.9617 192.1403 344.3601)" gradientUnits="userSpaceOnUse">
		<stop  offset="0" style="stop-color:#FFFFFF"/>
		<stop  offset="0.0127" style="stop-color:#FBD1D3"/>
		<stop  offset="0.028" style="stop-color:#F7A2A5"/>
		<stop  offset="0.0437" style="stop-color:#F4787D"/>
		<stop  offset="0.0596" style="stop-color:#F1575D"/>
		<stop  offset="0.0759" style="stop-color:#EF3D44"/>
		<stop  offset="0.0926" style="stop-color:#ED2B32"/>
		<stop  offset="0.11" style="stop-color:#EC2027"/>
		<stop  offset="0.1292" style="stop-color:#EC1C24"/>
		<stop  offset="0.7921" style="stop-color:#8A0304"/>
		<stop  offset="0.8341" style="stop-color:#8F0506"/>
		<stop  offset="0.8872" style="stop-color:#9F090C"/>
		<stop  offset="0.9462" style="stop-color:#B91016"/>
		<stop  offset="1" style="stop-color:#D71921"/>
	</radialGradient>
	<path fill="url(#SVGID_6_)" d="M41.077,34.328c0,0,0.834-0.972,1.795-0.843c1.784,0.241,3.273,2.345,4,3.562
		c0,0-3.752-0.68-5.223-1.637C40.925,34.942,41.077,34.328,41.077,34.328z"/>
	
		<radialGradient id="SVGID_7_" cx="-155.9648" cy="-322.8511" r="3.7752" gradientTransform="matrix(0.9617 0 0 0.9617 193.111 344.3601)" gradientUnits="userSpaceOnUse">
		<stop  offset="0" style="stop-color:#FFFFFF"/>
		<stop  offset="0.0127" style="stop-color:#FBD1D3"/>
		<stop  offset="0.028" style="stop-color:#F7A2A5"/>
		<stop  offset="0.0437" style="stop-color:#F4787D"/>
		<stop  offset="0.0596" style="stop-color:#F1575D"/>
		<stop  offset="0.0759" style="stop-color:#EF3D44"/>
		<stop  offset="0.0926" style="stop-color:#ED2B32"/>
		<stop  offset="0.11" style="stop-color:#EC2027"/>
		<stop  offset="0.1292" style="stop-color:#EC1C24"/>
		<stop  offset="0.7921" style="stop-color:#8A0304"/>
		<stop  offset="0.8341" style="stop-color:#8F0506"/>
		<stop  offset="0.8872" style="stop-color:#9F090C"/>
		<stop  offset="0.9462" style="stop-color:#B91016"/>
		<stop  offset="1" style="stop-color:#D71921"/>
	</radialGradient>
	<path fill="url(#SVGID_7_)" d="M37.944,32.854c0,0,5.063-0.354,5.424,0.936c0.55,1.965-1.919,2.364-6.444,0.242L37.944,32.854z"/>
	
		<radialGradient id="SVGID_8_" cx="-157.6631" cy="-323.7354" r="3.7085" gradientTransform="matrix(0.9617 0 0 0.9617 191.6555 344.6032)" gradientUnits="userSpaceOnUse">
		<stop  offset="0" style="stop-color:#FFFFFF"/>
		<stop  offset="0.0127" style="stop-color:#FBD1D3"/>
		<stop  offset="0.028" style="stop-color:#F7A2A5"/>
		<stop  offset="0.0437" style="stop-color:#F4787D"/>
		<stop  offset="0.0596" style="stop-color:#F1575D"/>
		<stop  offset="0.0759" style="stop-color:#EF3D44"/>
		<stop  offset="0.0926" style="stop-color:#ED2B32"/>
		<stop  offset="0.11" style="stop-color:#EC2027"/>
		<stop  offset="0.1292" style="stop-color:#EC1C24"/>
		<stop  offset="0.7921" style="stop-color:#8A0304"/>
		<stop  offset="0.8341" style="stop-color:#8F0506"/>
		<stop  offset="0.8872" style="stop-color:#9F090C"/>
		<stop  offset="0.9462" style="stop-color:#B91016"/>
		<stop  offset="1" style="stop-color:#D71921"/>
	</radialGradient>
	<path fill="url(#SVGID_8_)" d="M34.664,34.31c0,0,4.606-2.166,5.323-1.4c1.396,1.485-0.993,2.773-5.989,2.72L34.664,34.31z"/>
	
		<radialGradient id="SVGID_9_" cx="-151.2363" cy="-320.4639" r="4.166" gradientTransform="matrix(0.9617 0 0 0.9617 192.1403 344.3601)" gradientUnits="userSpaceOnUse">
		<stop  offset="0" style="stop-color:#FFFFFF"/>
		<stop  offset="0.0127" style="stop-color:#FBD1D3"/>
		<stop  offset="0.028" style="stop-color:#F7A2A5"/>
		<stop  offset="0.0437" style="stop-color:#F4787D"/>
		<stop  offset="0.0596" style="stop-color:#F1575D"/>
		<stop  offset="0.0759" style="stop-color:#EF3D44"/>
		<stop  offset="0.0926" style="stop-color:#ED2B32"/>
		<stop  offset="0.11" style="stop-color:#EC2027"/>
		<stop  offset="0.1292" style="stop-color:#EC1C24"/>
		<stop  offset="0.7921" style="stop-color:#8A0304"/>
		<stop  offset="0.8341" style="stop-color:#8F0506"/>
		<stop  offset="0.8872" style="stop-color:#9F090C"/>
		<stop  offset="0.9462" style="stop-color:#B91016"/>
		<stop  offset="1" style="stop-color:#D71921"/>
	</radialGradient>
	<path fill="url(#SVGID_9_)" d="M43.043,36.251c0,0,1.036-0.757,1.941-0.408c1.682,0.646,2.645,3.035,3.071,4.387
		c0,0-3.492-1.527-4.705-2.795C42.753,36.81,43.043,36.251,43.043,36.251z"/>
	
		<radialGradient id="SVGID_10_" cx="-153.5166" cy="-320.8145" r="4.9161" gradientTransform="matrix(0.9617 0 0 0.9617 191.4123 344.1179)" gradientUnits="userSpaceOnUse">
		<stop  offset="0" style="stop-color:#FFFFFF"/>
		<stop  offset="0.0127" style="stop-color:#FBD1D3"/>
		<stop  offset="0.028" style="stop-color:#F7A2A5"/>
		<stop  offset="0.0437" style="stop-color:#F4787D"/>
		<stop  offset="0.0596" style="stop-color:#F1575D"/>
		<stop  offset="0.0759" style="stop-color:#EF3D44"/>
		<stop  offset="0.0926" style="stop-color:#ED2B32"/>
		<stop  offset="0.11" style="stop-color:#EC2027"/>
		<stop  offset="0.1292" style="stop-color:#EC1C24"/>
		<stop  offset="0.7921" style="stop-color:#8A0304"/>
		<stop  offset="0.8341" style="stop-color:#8F0506"/>
		<stop  offset="0.8872" style="stop-color:#9F090C"/>
		<stop  offset="0.9462" style="stop-color:#B91016"/>
		<stop  offset="1" style="stop-color:#D71921"/>
	</radialGradient>
	<path fill="url(#SVGID_10_)" d="M39.072,35.02c0,0,4.552-0.764,5.203,0.765c0.798,1.879-1.825,2.507-6.235,0.154L39.072,35.02z"/>
	
		<radialGradient id="SVGID_11_" cx="-157.8789" cy="-321.4189" r="4.138" gradientTransform="matrix(0.9617 0 0 0.9617 192.1403 344.3601)" gradientUnits="userSpaceOnUse">
		<stop  offset="0" style="stop-color:#FFFFFF"/>
		<stop  offset="0.0127" style="stop-color:#FBD1D3"/>
		<stop  offset="0.028" style="stop-color:#F7A2A5"/>
		<stop  offset="0.0437" style="stop-color:#F4787D"/>
		<stop  offset="0.0596" style="stop-color:#F1575D"/>
		<stop  offset="0.0759" style="stop-color:#EF3D44"/>
		<stop  offset="0.0926" style="stop-color:#ED2B32"/>
		<stop  offset="0.11" style="stop-color:#EC2027"/>
		<stop  offset="0.1292" style="stop-color:#EC1C24"/>
		<stop  offset="0.7921" style="stop-color:#8A0304"/>
		<stop  offset="0.8341" style="stop-color:#8F0506"/>
		<stop  offset="0.8872" style="stop-color:#9F090C"/>
		<stop  offset="0.9462" style="stop-color:#B91016"/>
		<stop  offset="1" style="stop-color:#D71921"/>
	</radialGradient>
	<path fill="url(#SVGID_11_)" d="M35.324,37.158c0,0,3.878-3.281,4.992-2.318c1.543,1.331-0.489,2.905-5.417,3.734L35.324,37.158z"
		/>
	
		<radialGradient id="SVGID_12_" cx="-151.478" cy="-318.6494" r="5.5826" gradientTransform="matrix(0.9617 0 0 0.9617 192.1403 344.3601)" gradientUnits="userSpaceOnUse">
		<stop  offset="0" style="stop-color:#FFFFFF"/>
		<stop  offset="0.0127" style="stop-color:#FBD1D3"/>
		<stop  offset="0.028" style="stop-color:#F7A2A5"/>
		<stop  offset="0.0437" style="stop-color:#F4787D"/>
		<stop  offset="0.0596" style="stop-color:#F1575D"/>
		<stop  offset="0.0759" style="stop-color:#EF3D44"/>
		<stop  offset="0.0926" style="stop-color:#ED2B32"/>
		<stop  offset="0.11" style="stop-color:#EC2027"/>
		<stop  offset="0.1292" style="stop-color:#EC1C24"/>
		<stop  offset="0.7921" style="stop-color:#8A0304"/>
		<stop  offset="0.8341" style="stop-color:#8F0506"/>
		<stop  offset="0.8872" style="stop-color:#9F090C"/>
		<stop  offset="0.9462" style="stop-color:#B91016"/>
		<stop  offset="1" style="stop-color:#D71921"/>
	</radialGradient>
	<path fill="url(#SVGID_12_)" d="M43.84,38.728c0,0,0.998-0.806,1.917-0.502c1.712,0.562,2.792,2.904,3.285,4.233
		c0,0-3.031-0.778-4.836-2.562C43.591,39.289,43.84,38.728,43.84,38.728z"/>
	
		<radialGradient id="SVGID_13_" cx="-153.3052" cy="-318.1167" r="4.3405" gradientTransform="matrix(0.9617 0 0 0.9617 192.1403 344.3601)" gradientUnits="userSpaceOnUse">
		<stop  offset="0" style="stop-color:#FFFFFF"/>
		<stop  offset="0.0127" style="stop-color:#FBD1D3"/>
		<stop  offset="0.028" style="stop-color:#F7A2A5"/>
		<stop  offset="0.0437" style="stop-color:#F4787D"/>
		<stop  offset="0.0596" style="stop-color:#F1575D"/>
		<stop  offset="0.0759" style="stop-color:#EF3D44"/>
		<stop  offset="0.0926" style="stop-color:#ED2B32"/>
		<stop  offset="0.11" style="stop-color:#EC2027"/>
		<stop  offset="0.1292" style="stop-color:#EC1C24"/>
		<stop  offset="0.7921" style="stop-color:#8A0304"/>
		<stop  offset="0.8341" style="stop-color:#8F0506"/>
		<stop  offset="0.8872" style="stop-color:#9F090C"/>
		<stop  offset="0.9462" style="stop-color:#B91016"/>
		<stop  offset="1" style="stop-color:#D71921"/>
	</radialGradient>
	<path fill="url(#SVGID_13_)" d="M40.214,37.106c0,0,5.116-0.406,5.432,1.594c0.319,2.013-2.021,2.548-6.488-0.133L40.214,37.106z"
		/>
	
		<radialGradient id="SVGID_14_" cx="-157.1636" cy="-318.9531" r="5.5552" gradientTransform="matrix(0.9617 0 0 0.9617 192.1403 344.3601)" gradientUnits="userSpaceOnUse">
		<stop  offset="0" style="stop-color:#FFFFFF"/>
		<stop  offset="0.0127" style="stop-color:#FBD1D3"/>
		<stop  offset="0.028" style="stop-color:#F7A2A5"/>
		<stop  offset="0.0437" style="stop-color:#F4787D"/>
		<stop  offset="0.0596" style="stop-color:#F1575D"/>
		<stop  offset="0.0759" style="stop-color:#EF3D44"/>
		<stop  offset="0.0926" style="stop-color:#ED2B32"/>
		<stop  offset="0.11" style="stop-color:#EC2027"/>
		<stop  offset="0.1292" style="stop-color:#EC1C24"/>
		<stop  offset="0.7921" style="stop-color:#8A0304"/>
		<stop  offset="0.8341" style="stop-color:#8F0506"/>
		<stop  offset="0.8872" style="stop-color:#9F090C"/>
		<stop  offset="0.9462" style="stop-color:#B91016"/>
		<stop  offset="1" style="stop-color:#D71921"/>
	</radialGradient>
	<path fill="url(#SVGID_14_)" d="M35.376,38.544c0,0,4.601-2.616,5.662-1.415c1.351,1.528-0.727,3.597-5.931,2.983L35.376,38.544z"
		/>
	
		<radialGradient id="SVGID_15_" cx="-136.4712" cy="-325.6724" r="3.8913" gradientTransform="matrix(-0.9617 0 0 0.9617 -124.5788 344.989)" gradientUnits="userSpaceOnUse">
		<stop  offset="0" style="stop-color:#FFFFFF"/>
		<stop  offset="0.0127" style="stop-color:#FBD1D3"/>
		<stop  offset="0.028" style="stop-color:#F7A2A5"/>
		<stop  offset="0.0437" style="stop-color:#F4787D"/>
		<stop  offset="0.0596" style="stop-color:#F1575D"/>
		<stop  offset="0.0759" style="stop-color:#EF3D44"/>
		<stop  offset="0.0926" style="stop-color:#ED2B32"/>
		<stop  offset="0.11" style="stop-color:#EC2027"/>
		<stop  offset="0.1292" style="stop-color:#EC1C24"/>
		<stop  offset="0.7921" style="stop-color:#8A0304"/>
		<stop  offset="0.8341" style="stop-color:#8F0506"/>
		<stop  offset="0.8872" style="stop-color:#9F090C"/>
		<stop  offset="0.9462" style="stop-color:#B91016"/>
		<stop  offset="1" style="stop-color:#D71921"/>
	</radialGradient>
	<path fill="url(#SVGID_15_)" d="M9.873,32.392c0,0-0.751-0.881-1.616-0.76c-1.611,0.216-2.955,2.112-3.611,3.213
		c0,0,3.386-0.615,4.712-1.476C10.012,32.942,9.873,32.392,9.873,32.392z"/>
	
		<radialGradient id="SVGID_16_" cx="-137.6694" cy="-326.0605" r="3.7018" gradientTransform="matrix(-0.9617 0 0 0.9617 -123.6062 345.0886)" gradientUnits="userSpaceOnUse">
		<stop  offset="0" style="stop-color:#FFFFFF"/>
		<stop  offset="0.0127" style="stop-color:#FBD1D3"/>
		<stop  offset="0.028" style="stop-color:#F7A2A5"/>
		<stop  offset="0.0437" style="stop-color:#F4787D"/>
		<stop  offset="0.0596" style="stop-color:#F1575D"/>
		<stop  offset="0.0759" style="stop-color:#EF3D44"/>
		<stop  offset="0.0926" style="stop-color:#ED2B32"/>
		<stop  offset="0.11" style="stop-color:#EC2027"/>
		<stop  offset="0.1292" style="stop-color:#EC1C24"/>
		<stop  offset="0.7921" style="stop-color:#8A0304"/>
		<stop  offset="0.8341" style="stop-color:#8F0506"/>
		<stop  offset="0.8872" style="stop-color:#9F090C"/>
		<stop  offset="0.9462" style="stop-color:#B91016"/>
		<stop  offset="1" style="stop-color:#D71921"/>
	</radialGradient>
	<path fill="url(#SVGID_16_)" d="M13.445,31.838c0,0-4.275-1.313-4.956-0.312c-1.339,1.968,2.172,2.595,5.778,1.361L13.445,31.838z"
		/>
	
		<radialGradient id="SVGID_17_" cx="-140.3262" cy="-325.6445" r="2.507" gradientTransform="matrix(-0.9617 0 0 0.9617 -123.3649 344.6032)" gradientUnits="userSpaceOnUse">
		<stop  offset="0" style="stop-color:#FFFFFF"/>
		<stop  offset="0.0127" style="stop-color:#FBD1D3"/>
		<stop  offset="0.028" style="stop-color:#F7A2A5"/>
		<stop  offset="0.0437" style="stop-color:#F4787D"/>
		<stop  offset="0.0596" style="stop-color:#F1575D"/>
		<stop  offset="0.0759" style="stop-color:#EF3D44"/>
		<stop  offset="0.0926" style="stop-color:#ED2B32"/>
		<stop  offset="0.11" style="stop-color:#EC2027"/>
		<stop  offset="0.1292" style="stop-color:#EC1C24"/>
		<stop  offset="0.7921" style="stop-color:#8A0304"/>
		<stop  offset="0.8341" style="stop-color:#8F0506"/>
		<stop  offset="0.8872" style="stop-color:#9F090C"/>
		<stop  offset="0.9462" style="stop-color:#B91016"/>
		<stop  offset="1" style="stop-color:#D71921"/>
	</radialGradient>
	<path fill="url(#SVGID_17_)" d="M16.289,32.342c0,0-4.154-1.953-4.801-1.266c-1.26,1.343,0.896,2.503,5.403,2.456L16.289,32.342z"
		/>
	
		<radialGradient id="SVGID_18_" cx="-136.376" cy="-323.5273" r="4.3784" gradientTransform="matrix(-0.9617 0 0 0.9617 -124.0944 344.3601)" gradientUnits="userSpaceOnUse">
		<stop  offset="0" style="stop-color:#FFFFFF"/>
		<stop  offset="0.0127" style="stop-color:#FBD1D3"/>
		<stop  offset="0.028" style="stop-color:#F7A2A5"/>
		<stop  offset="0.0437" style="stop-color:#F4787D"/>
		<stop  offset="0.0596" style="stop-color:#F1575D"/>
		<stop  offset="0.0759" style="stop-color:#EF3D44"/>
		<stop  offset="0.0926" style="stop-color:#ED2B32"/>
		<stop  offset="0.11" style="stop-color:#EC2027"/>
		<stop  offset="0.1292" style="stop-color:#EC1C24"/>
		<stop  offset="0.7921" style="stop-color:#8A0304"/>
		<stop  offset="0.8341" style="stop-color:#8F0506"/>
		<stop  offset="0.8872" style="stop-color:#9F090C"/>
		<stop  offset="0.9462" style="stop-color:#B91016"/>
		<stop  offset="1" style="stop-color:#D71921"/>
	</radialGradient>
	<path fill="url(#SVGID_18_)" d="M9.964,34.328c0,0-0.836-0.972-1.797-0.843c-1.784,0.241-3.273,2.345-4,3.562
		c0,0,3.751-0.68,5.222-1.637C10.114,34.942,9.964,34.328,9.964,34.328z"/>
	
		<radialGradient id="SVGID_19_" cx="-138.2783" cy="-322.8511" r="3.7755" gradientTransform="matrix(-0.9617 0 0 0.9617 -125.0603 344.3601)" gradientUnits="userSpaceOnUse">
		<stop  offset="0" style="stop-color:#FFFFFF"/>
		<stop  offset="0.0127" style="stop-color:#FBD1D3"/>
		<stop  offset="0.028" style="stop-color:#F7A2A5"/>
		<stop  offset="0.0437" style="stop-color:#F4787D"/>
		<stop  offset="0.0596" style="stop-color:#F1575D"/>
		<stop  offset="0.0759" style="stop-color:#EF3D44"/>
		<stop  offset="0.0926" style="stop-color:#ED2B32"/>
		<stop  offset="0.11" style="stop-color:#EC2027"/>
		<stop  offset="0.1292" style="stop-color:#EC1C24"/>
		<stop  offset="0.7921" style="stop-color:#8A0304"/>
		<stop  offset="0.8341" style="stop-color:#8F0506"/>
		<stop  offset="0.8872" style="stop-color:#9F090C"/>
		<stop  offset="0.9462" style="stop-color:#B91016"/>
		<stop  offset="1" style="stop-color:#D71921"/>
	</radialGradient>
	<path fill="url(#SVGID_19_)" d="M13.093,32.854c0,0-5.061-0.354-5.422,0.936c-0.549,1.965,1.919,2.364,6.443,0.242L13.093,32.854z"
		/>
	
		<radialGradient id="SVGID_20_" cx="-139.9771" cy="-323.7354" r="3.7086" gradientTransform="matrix(-0.9617 0 0 0.9617 -123.6062 344.6032)" gradientUnits="userSpaceOnUse">
		<stop  offset="0" style="stop-color:#FFFFFF"/>
		<stop  offset="0.0127" style="stop-color:#FBD1D3"/>
		<stop  offset="0.028" style="stop-color:#F7A2A5"/>
		<stop  offset="0.0437" style="stop-color:#F4787D"/>
		<stop  offset="0.0596" style="stop-color:#F1575D"/>
		<stop  offset="0.0759" style="stop-color:#EF3D44"/>
		<stop  offset="0.0926" style="stop-color:#ED2B32"/>
		<stop  offset="0.11" style="stop-color:#EC2027"/>
		<stop  offset="0.1292" style="stop-color:#EC1C24"/>
		<stop  offset="0.7921" style="stop-color:#8A0304"/>
		<stop  offset="0.8341" style="stop-color:#8F0506"/>
		<stop  offset="0.8872" style="stop-color:#9F090C"/>
		<stop  offset="0.9462" style="stop-color:#B91016"/>
		<stop  offset="1" style="stop-color:#D71921"/>
	</radialGradient>
	<path fill="url(#SVGID_20_)" d="M16.375,34.31c0,0-4.606-2.166-5.323-1.4c-1.396,1.485,0.993,2.773,5.99,2.72L16.375,34.31z"/>
	
		<radialGradient id="SVGID_21_" cx="-133.5513" cy="-320.4639" r="4.166" gradientTransform="matrix(-0.9617 0 0 0.9617 -124.0944 344.3601)" gradientUnits="userSpaceOnUse">
		<stop  offset="0" style="stop-color:#FFFFFF"/>
		<stop  offset="0.0127" style="stop-color:#FBD1D3"/>
		<stop  offset="0.028" style="stop-color:#F7A2A5"/>
		<stop  offset="0.0437" style="stop-color:#F4787D"/>
		<stop  offset="0.0596" style="stop-color:#F1575D"/>
		<stop  offset="0.0759" style="stop-color:#EF3D44"/>
		<stop  offset="0.0926" style="stop-color:#ED2B32"/>
		<stop  offset="0.11" style="stop-color:#EC2027"/>
		<stop  offset="0.1292" style="stop-color:#EC1C24"/>
		<stop  offset="0.7921" style="stop-color:#8A0304"/>
		<stop  offset="0.8341" style="stop-color:#8F0506"/>
		<stop  offset="0.8872" style="stop-color:#9F090C"/>
		<stop  offset="0.9462" style="stop-color:#B91016"/>
		<stop  offset="1" style="stop-color:#D71921"/>
	</radialGradient>
	<path fill="url(#SVGID_21_)" d="M7.996,36.251c0,0-1.035-0.757-1.94-0.408c-1.682,0.646-2.645,3.035-3.072,4.387
		c0,0,3.493-1.527,4.706-2.795C8.286,36.81,7.996,36.251,7.996,36.251z"/>
	
		<radialGradient id="SVGID_22_" cx="-135.8315" cy="-320.8145" r="4.916" gradientTransform="matrix(-0.9617 0 0 0.9617 -123.3649 344.1179)" gradientUnits="userSpaceOnUse">
		<stop  offset="0" style="stop-color:#FFFFFF"/>
		<stop  offset="0.0127" style="stop-color:#FBD1D3"/>
		<stop  offset="0.028" style="stop-color:#F7A2A5"/>
		<stop  offset="0.0437" style="stop-color:#F4787D"/>
		<stop  offset="0.0596" style="stop-color:#F1575D"/>
		<stop  offset="0.0759" style="stop-color:#EF3D44"/>
		<stop  offset="0.0926" style="stop-color:#ED2B32"/>
		<stop  offset="0.11" style="stop-color:#EC2027"/>
		<stop  offset="0.1292" style="stop-color:#EC1C24"/>
		<stop  offset="0.7921" style="stop-color:#8A0304"/>
		<stop  offset="0.8341" style="stop-color:#8F0506"/>
		<stop  offset="0.8872" style="stop-color:#9F090C"/>
		<stop  offset="0.9462" style="stop-color:#B91016"/>
		<stop  offset="1" style="stop-color:#D71921"/>
	</radialGradient>
	<path fill="url(#SVGID_22_)" d="M11.967,35.02c0,0-4.553-0.764-5.203,0.765C5.965,37.663,8.59,38.291,13,35.938L11.967,35.02z"/>
	
		<radialGradient id="SVGID_23_" cx="-140.1948" cy="-321.4189" r="4.1381" gradientTransform="matrix(-0.9617 0 0 0.9617 -124.0944 344.3601)" gradientUnits="userSpaceOnUse">
		<stop  offset="0" style="stop-color:#FFFFFF"/>
		<stop  offset="0.0127" style="stop-color:#FBD1D3"/>
		<stop  offset="0.028" style="stop-color:#F7A2A5"/>
		<stop  offset="0.0437" style="stop-color:#F4787D"/>
		<stop  offset="0.0596" style="stop-color:#F1575D"/>
		<stop  offset="0.0759" style="stop-color:#EF3D44"/>
		<stop  offset="0.0926" style="stop-color:#ED2B32"/>
		<stop  offset="0.11" style="stop-color:#EC2027"/>
		<stop  offset="0.1292" style="stop-color:#EC1C24"/>
		<stop  offset="0.7921" style="stop-color:#8A0304"/>
		<stop  offset="0.8341" style="stop-color:#8F0506"/>
		<stop  offset="0.8872" style="stop-color:#9F090C"/>
		<stop  offset="0.9462" style="stop-color:#B91016"/>
		<stop  offset="1" style="stop-color:#D71921"/>
	</radialGradient>
	<path fill="url(#SVGID_23_)" d="M15.715,37.158c0,0-3.877-3.281-4.992-2.318c-1.542,1.331,0.488,2.905,5.417,3.734L15.715,37.158z"
		/>
	
		<radialGradient id="SVGID_24_" cx="-133.7925" cy="-318.6494" r="5.5827" gradientTransform="matrix(-0.9617 0 0 0.9617 -124.0944 344.3601)" gradientUnits="userSpaceOnUse">
		<stop  offset="0" style="stop-color:#FFFFFF"/>
		<stop  offset="0.0127" style="stop-color:#FBD1D3"/>
		<stop  offset="0.028" style="stop-color:#F7A2A5"/>
		<stop  offset="0.0437" style="stop-color:#F4787D"/>
		<stop  offset="0.0596" style="stop-color:#F1575D"/>
		<stop  offset="0.0759" style="stop-color:#EF3D44"/>
		<stop  offset="0.0926" style="stop-color:#ED2B32"/>
		<stop  offset="0.11" style="stop-color:#EC2027"/>
		<stop  offset="0.1292" style="stop-color:#EC1C24"/>
		<stop  offset="0.7921" style="stop-color:#8A0304"/>
		<stop  offset="0.8341" style="stop-color:#8F0506"/>
		<stop  offset="0.8872" style="stop-color:#9F090C"/>
		<stop  offset="0.9462" style="stop-color:#B91016"/>
		<stop  offset="1" style="stop-color:#D71921"/>
	</radialGradient>
	<path fill="url(#SVGID_24_)" d="M7.199,38.728c0,0-0.996-0.806-1.916-0.502c-1.713,0.562-2.792,2.904-3.286,4.233
		c0,0,3.031-0.778,4.836-2.562C7.449,39.289,7.199,38.728,7.199,38.728z"/>
	
		<radialGradient id="SVGID_25_" cx="-135.6191" cy="-318.1167" r="4.3405" gradientTransform="matrix(-0.9617 0 0 0.9617 -124.0944 344.3601)" gradientUnits="userSpaceOnUse">
		<stop  offset="0" style="stop-color:#FFFFFF"/>
		<stop  offset="0.0127" style="stop-color:#FBD1D3"/>
		<stop  offset="0.028" style="stop-color:#F7A2A5"/>
		<stop  offset="0.0437" style="stop-color:#F4787D"/>
		<stop  offset="0.0596" style="stop-color:#F1575D"/>
		<stop  offset="0.0759" style="stop-color:#EF3D44"/>
		<stop  offset="0.0926" style="stop-color:#ED2B32"/>
		<stop  offset="0.11" style="stop-color:#EC2027"/>
		<stop  offset="0.1292" style="stop-color:#EC1C24"/>
		<stop  offset="0.7921" style="stop-color:#8A0304"/>
		<stop  offset="0.8341" style="stop-color:#8F0506"/>
		<stop  offset="0.8872" style="stop-color:#9F090C"/>
		<stop  offset="0.9462" style="stop-color:#B91016"/>
		<stop  offset="1" style="stop-color:#D71921"/>
	</radialGradient>
	<path fill="url(#SVGID_25_)" d="M10.827,37.106c0,0-5.117-0.406-5.434,1.594c-0.319,2.013,2.022,2.548,6.489-0.133L10.827,37.106z"
		/>
	
		<radialGradient id="SVGID_26_" cx="-139.478" cy="-318.9531" r="5.5551" gradientTransform="matrix(-0.9617 0 0 0.9617 -124.0944 344.3601)" gradientUnits="userSpaceOnUse">
		<stop  offset="0" style="stop-color:#FFFFFF"/>
		<stop  offset="0.0127" style="stop-color:#FBD1D3"/>
		<stop  offset="0.028" style="stop-color:#F7A2A5"/>
		<stop  offset="0.0437" style="stop-color:#F4787D"/>
		<stop  offset="0.0596" style="stop-color:#F1575D"/>
		<stop  offset="0.0759" style="stop-color:#EF3D44"/>
		<stop  offset="0.0926" style="stop-color:#ED2B32"/>
		<stop  offset="0.11" style="stop-color:#EC2027"/>
		<stop  offset="0.1292" style="stop-color:#EC1C24"/>
		<stop  offset="0.7921" style="stop-color:#8A0304"/>
		<stop  offset="0.8341" style="stop-color:#8F0506"/>
		<stop  offset="0.8872" style="stop-color:#9F090C"/>
		<stop  offset="0.9462" style="stop-color:#B91016"/>
		<stop  offset="1" style="stop-color:#D71921"/>
	</radialGradient>
	<path fill="url(#SVGID_26_)" d="M15.663,38.544c0,0-4.6-2.616-5.662-1.415c-1.35,1.528,0.727,3.597,5.93,2.983L15.663,38.544z"/>
	<path fill="#670000" d="M20.893,8.637l-2.151-0.636l-1.054,1.191l-2.066-0.187l-1.434,1.461l-1.45-0.254l-0.998,1.397l-4.915-0.012
		l7.562,3.305C14.388,14.903,20.19,10.584,20.893,8.637z"/>
	
		<radialGradient id="SVGID_27_" cx="-7743.3481" cy="-7656.6528" r="17.9706" gradientTransform="matrix(-0.6483 0.3521 0.3521 0.6483 -2313.7878 7694.0303)" gradientUnits="userSpaceOnUse">
		<stop  offset="0" style="stop-color:#FFFFFF"/>
		<stop  offset="0.0127" style="stop-color:#FBD1D3"/>
		<stop  offset="0.028" style="stop-color:#F7A2A5"/>
		<stop  offset="0.0437" style="stop-color:#F4787D"/>
		<stop  offset="0.0596" style="stop-color:#F1575D"/>
		<stop  offset="0.0759" style="stop-color:#EF3D44"/>
		<stop  offset="0.0926" style="stop-color:#ED2B32"/>
		<stop  offset="0.11" style="stop-color:#EC2027"/>
		<stop  offset="0.1292" style="stop-color:#EC1C24"/>
		<stop  offset="0.7921" style="stop-color:#8A0304"/>
		<stop  offset="0.8341" style="stop-color:#8F0506"/>
		<stop  offset="0.8872" style="stop-color:#9F090C"/>
		<stop  offset="0.9462" style="stop-color:#B91016"/>
		<stop  offset="1" style="stop-color:#D71921"/>
	</radialGradient>
	<path fill="url(#SVGID_27_)" d="M8.321,4.49c4.586-2.492,9.807-1.782,11.796,1.563l-2.521-0.001l-1.542,1.821L13.899,7.78
		l-1.432,1.761l-1.86,0.45l-1.09,2.137c0,0,2.591,1.4,4.88-1.106c0,0,1.733,0.602,3.333-1.109l1.929-0.065l1.234-1.211
		c0.166,3.089-2.005,6.544-5.68,8.541c-4.671,2.539-10.002,1.756-11.906-1.75C1.404,11.925,3.648,7.03,8.321,4.49z"/>
	
		<radialGradient id="SVGID_28_" cx="-179.5166" cy="-331.064" r="22.5347" gradientTransform="matrix(0.9617 0 0 0.9617 192.1403 344.3601)" gradientUnits="userSpaceOnUse">
		<stop  offset="0" style="stop-color:#FFFFFF"/>
		<stop  offset="0.0127" style="stop-color:#FBD1D3"/>
		<stop  offset="0.028" style="stop-color:#F7A2A5"/>
		<stop  offset="0.0437" style="stop-color:#F4787D"/>
		<stop  offset="0.0596" style="stop-color:#F1575D"/>
		<stop  offset="0.0759" style="stop-color:#EF3D44"/>
		<stop  offset="0.0926" style="stop-color:#ED2B32"/>
		<stop  offset="0.11" style="stop-color:#EC2027"/>
		<stop  offset="0.1292" style="stop-color:#EC1C24"/>
		<stop  offset="0.7921" style="stop-color:#8A0304"/>
		<stop  offset="0.8341" style="stop-color:#8F0506"/>
		<stop  offset="0.8872" style="stop-color:#9F090C"/>
		<stop  offset="0.9462" style="stop-color:#B91016"/>
		<stop  offset="1" style="stop-color:#D71921"/>
	</radialGradient>
	<circle fill="url(#SVGID_28_)" cx="25.75" cy="32.103" r="12.987"/>
	
		<radialGradient id="SVGID_29_" cx="-169.9321" cy="-340.3208" r="8.4339" gradientTransform="matrix(0.9617 0 0 0.9617 192.1403 344.3601)" gradientUnits="userSpaceOnUse">
		<stop  offset="0" style="stop-color:#FFDD00"/>
		<stop  offset="0.3414" style="stop-color:#FFDA01"/>
		<stop  offset="0.5719" style="stop-color:#FED105"/>
		<stop  offset="0.7696" style="stop-color:#FCC20C"/>
		<stop  offset="0.9479" style="stop-color:#FAAD16"/>
		<stop  offset="1" style="stop-color:#F9A51A"/>
	</radialGradient>
	<path fill="url(#SVGID_29_)" d="M35.254,20.41c0,2.302-1.865,4.171-4.17,4.171c-2.304,0-4.169-1.869-4.169-4.171
		c0-2.299,1.865-4.167,4.169-4.167C33.389,16.242,35.254,18.111,35.254,20.41z"/>
	<path fill="none" stroke="#231F20" stroke-width="0.9617" stroke-linecap="round" stroke-linejoin="round" d="M27.962,19.649
		c0.342-1.408,1.609-2.452,3.122-2.452c1.529,0,2.812,1.07,3.134,2.501"/>
	
		<radialGradient id="SVGID_30_" cx="-148.9141" cy="-340.3208" r="8.4335" gradientTransform="matrix(0.9617 0 0 0.9617 161.7644 344.3601)" gradientUnits="userSpaceOnUse">
		<stop  offset="0" style="stop-color:#FFDD00"/>
		<stop  offset="0.3414" style="stop-color:#FFDA01"/>
		<stop  offset="0.5719" style="stop-color:#FED105"/>
		<stop  offset="0.7696" style="stop-color:#FCC20C"/>
		<stop  offset="0.9479" style="stop-color:#FAAD16"/>
		<stop  offset="1" style="stop-color:#F9A51A"/>
	</radialGradient>
	<path fill="url(#SVGID_30_)" d="M25.09,20.41c0,2.302-1.864,4.171-4.169,4.171c-2.303,0-4.168-1.869-4.168-4.171
		c0-2.299,1.866-4.167,4.168-4.167C23.226,16.242,25.09,18.111,25.09,20.41z"/>
	<path fill="none" stroke="#231F20" stroke-width="0.9617" stroke-linecap="round" stroke-linejoin="round" d="M17.799,19.649
		c0.341-1.408,1.609-2.452,3.121-2.452c1.53,0,2.812,1.07,3.133,2.501"/>
	<path fill="#D71921" d="M15.77,34.631c-0.005,0.076-0.01,0.151-0.01,0.229c0,3.223,3.662,6.326,10.125,6.326
		c6.578,0,10.125-3.104,10.125-6.326c0-0.077-0.005-0.152-0.01-0.229H15.77z"/>
	
		<linearGradient id="SVGID_31_" gradientUnits="userSpaceOnUse" x1="-172.8765" y1="-313.0596" x2="-172.8765" y2="-315.1096" gradientTransform="matrix(0.9617 0 0 0.9617 192.1403 337.8611)">
		<stop  offset="0" style="stop-color:#FFFFFF"/>
		<stop  offset="0.8885" style="stop-color:#C3C5C6"/>
		<stop  offset="1" style="stop-color:#BBBDBF"/>
	</linearGradient>
	<path fill="url(#SVGID_31_)" d="M15.77,34.631c-0.005,0.076-0.01,0.151-0.01,0.229c0,3.223,4.533,5.834,10.125,5.834
		c5.593,0,10.125-2.611,10.125-5.834c0-0.077-0.005-0.152-0.01-0.229H15.77z"/>
	<path fill="#6D6E70" d="M16.07,36.296c0.047,0.107,0.1,0.214,0.157,0.317c3.204,1.095,10.641,2.876,19.358-0.079
		c0.053-0.104,0.101-0.208,0.146-0.313C26.761,39.34,19.123,37.373,16.07,36.296z"/>
	<path fill="#6D6E70" d="M17.514,38.141c0.081,0.067,0.164,0.136,0.25,0.203v-3.713h-0.25V38.141z"/>
	<path fill="#6D6E70" d="M19.952,39.586c0.084,0.034,0.167,0.069,0.251,0.103v-5.058h-0.251V39.586z"/>
	<path fill="#6D6E70" d="M22.392,40.338c0.083,0.018,0.167,0.032,0.251,0.049v-5.756h-0.251V40.338z"/>
	<path fill="#6D6E70" d="M24.831,40.663c0.083,0.005,0.167,0.007,0.251,0.01v-6.042h-0.251V40.663z"/>
	<path fill="#6D6E70" d="M27.271,40.638c0.084-0.006,0.168-0.013,0.251-0.021v-5.985h-0.251V40.638z"/>
	<path fill="#6D6E70" d="M29.71,40.263c0.084-0.021,0.168-0.041,0.25-0.062v-5.57h-0.25V40.263z"/>
	<path fill="#6D6E70" d="M32.149,39.44c0.084-0.038,0.169-0.076,0.251-0.115v-4.694h-0.251V39.44z"/>
	<path fill="#670000" d="M29.233,38.104l0.467-1.651l1.476-0.185l0.897-2.135l1.779-0.068l0.947-1.752l2.058-0.338l2.577-3.996
		l-1.393,8.132C38.042,36.11,31.242,38.588,29.233,38.104z"/>
	
		<radialGradient id="SVGID_32_" cx="-77.3247" cy="-389.4849" r="15.3612" gradientTransform="matrix(-0.12 -0.9542 0.9542 -0.12 392.6659 -92.4658)" gradientUnits="userSpaceOnUse">
		<stop  offset="0" style="stop-color:#FFFFFF"/>
		<stop  offset="0.0127" style="stop-color:#FBD1D3"/>
		<stop  offset="0.028" style="stop-color:#F7A2A5"/>
		<stop  offset="0.0437" style="stop-color:#F4787D"/>
		<stop  offset="0.0596" style="stop-color:#F1575D"/>
		<stop  offset="0.0759" style="stop-color:#EF3D44"/>
		<stop  offset="0.0926" style="stop-color:#ED2B32"/>
		<stop  offset="0.11" style="stop-color:#EC2027"/>
		<stop  offset="0.1292" style="stop-color:#EC1C24"/>
		<stop  offset="0.7921" style="stop-color:#8A0304"/>
		<stop  offset="0.8341" style="stop-color:#8F0506"/>
		<stop  offset="0.8872" style="stop-color:#9F090C"/>
		<stop  offset="0.9462" style="stop-color:#B91016"/>
		<stop  offset="1" style="stop-color:#D71921"/>
	</radialGradient>
	<path fill="url(#SVGID_32_)" d="M32.676,25.321c-4.604,2.463-6.876,7.215-5.175,10.713l1.384-2.104l2.366-0.287l1.107-1.854
		l2.257-0.228l1.398-1.309l2.384,0.265c0,0-0.251,2.933-3.604,3.469c0,0-0.448,1.778-2.757,2.175l-1.114,1.576l-1.689,0.366
		c2.489,1.837,6.569,1.921,10.257-0.052c4.688-2.509,6.962-7.394,5.078-10.908C42.688,23.627,37.364,22.814,32.676,25.321z"/>
</g>
</svg>
