<?xml version="1.0" encoding="utf-8"?>
<!-- Generator: Adobe Illustrator 14.0.0, SVG Export Plug-In . SVG Version: 6.00 Build 43363)  -->
<!DOCTYPE svg PUBLIC "-//W3C//DTD SVG 1.1//EN" "http://www.w3.org/Graphics/SVG/1.1/DTD/svg11.dtd">
<svg version="1.1" id="图层_1" xmlns="http://www.w3.org/2000/svg" xmlns:xlink="http://www.w3.org/1999/xlink" x="0px" y="0px"
	 width="50px" height="50px" viewBox="0 0 50 50" enable-background="new 0 0 50 50" xml:space="preserve">
<g>
	
		<radialGradient id="SVGID_1_" cx="-11.3633" cy="76.3896" r="7.482" gradientTransform="matrix(1.2734 0 0 1.2734 20.9541 -69.6016)" gradientUnits="userSpaceOnUse">
		<stop  offset="0" style="stop-color:#929497"/>
		<stop  offset="1" style="stop-color:#000000"/>
	</radialGradient>
	<path fill="url(#SVGID_1_)" d="M15.902,30.857c0,0-3.536-0.76-5.653,0.605c-2.162,1.393-2.891,4.355-2.019,7.064
		c0,0-3.512-2.221-5.237,0.459c-1.001,1.559-2.061,5.955,6.615,6.523c6.104,0.4,2.938-3.607,5.399-4.143
		c2.46-0.533,2.526-1.143,2.526-1.143L15.902,30.857z"/>
	
		<radialGradient id="SVGID_2_" cx="30.7676" cy="70.7969" r="9.6623" gradientTransform="matrix(-1.1434 0.2698 0.2698 1.1434 30.9797 -85.3658)" gradientUnits="userSpaceOnUse">
		<stop  offset="0" style="stop-color:#929497"/>
		<stop  offset="1" style="stop-color:#000000"/>
	</radialGradient>
	<path fill="url(#SVGID_2_)" d="M14.529,28.803c0,0-7.303-14.802,0.224-20.754c2.475-1.957,5.981,0.699,3.293,3.84
		c-4.865,5.685,1.937,13.896,1.937,13.896S16.544,30.66,14.529,28.803z"/>
	
		<radialGradient id="SVGID_3_" cx="4.3916" cy="69.2002" r="21.5491" gradientTransform="matrix(1.2734 0 0 1.2734 20.9541 -69.6016)" gradientUnits="userSpaceOnUse">
		<stop  offset="0" style="stop-color:#FFFFFF"/>
		<stop  offset="0.2293" style="stop-color:#FCFCFC"/>
		<stop  offset="0.4106" style="stop-color:#F2F2F3"/>
		<stop  offset="0.5756" style="stop-color:#E1E2E3"/>
		<stop  offset="0.7298" style="stop-color:#CACBCD"/>
		<stop  offset="0.8539" style="stop-color:#B1B3B5"/>
		<stop  offset="1" style="stop-color:#DBDCDD"/>
	</radialGradient>
	<path fill="url(#SVGID_3_)" d="M20.47,23.251c0,0-6.915,4.286-8.765,8.377c-3.151,6.963,3.453,21.02,25.366,13.037
		c10.667-3.885,9.596-20.148,9.596-20.148L31.716,13.496L20.47,23.251z"/>
	
		<radialGradient id="SVGID_4_" cx="4.3916" cy="69.2002" r="21.5491" gradientTransform="matrix(1.2734 0 0 1.2734 20.9541 -69.6016)" gradientUnits="userSpaceOnUse">
		<stop  offset="0" style="stop-color:#FFFFFF"/>
		<stop  offset="0.2293" style="stop-color:#FCFCFC"/>
		<stop  offset="0.4106" style="stop-color:#F2F2F3"/>
		<stop  offset="0.5756" style="stop-color:#E1E2E3"/>
		<stop  offset="0.7298" style="stop-color:#CACBCD"/>
		<stop  offset="0.8539" style="stop-color:#B1B3B5"/>
		<stop  offset="1" style="stop-color:#DBDCDD"/>
	</radialGradient>
	<path fill="url(#SVGID_4_)" d="M20.47,23.251c0,0-6.915,4.286-8.765,8.377c-3.151,6.963,3.453,21.02,25.366,13.037
		c10.667-3.885,9.596-20.148,9.596-20.148L31.716,13.496L20.47,23.251z"/>
	<path fill="#231F20" d="M37.246,17.573l-11.063,0.723l-5.713,4.956c0,0-4.674,1.56-6.542,5.264
		c3.814-1.271,24.753-1.172,30.483,8.959c2.718-5.922,2.255-12.957,2.255-12.957L37.246,17.573z"/>
	<path fill="#A6A8AB" d="M36.271,43.303c0.648-7.037-4.656-6.75-4.656-6.75s-2.657-0.305-3.477,2.703
		c-0.766,2.809,0.51,5.699,2.234,7.285c1.959-0.365,4.085-0.943,6.377-1.762C36.403,44.467,36.163,44.059,36.271,43.303z"/>
	<path fill="#231F20" d="M31.244,6.604c0,0,0.628-2.536,0.447-3.583c-0.28-1.623,4.029-1.903,4.197,0.896
		c0.168,2.798-2.238,3.861-2.91,4.252C32.307,8.563,31.244,6.604,31.244,6.604z"/>
	<path fill="#231F20" d="M21.015,7.345c0,0-1.116-2.362-1.146-3.424c-0.044-1.646-4.325-1.072-3.938,1.705
		c0.386,2.777,2.955,3.345,3.691,3.597C20.358,9.475,21.015,7.345,21.015,7.345z"/>
	
		<radialGradient id="SVGID_5_" cx="2.5264" cy="59.0742" r="16.1163" gradientTransform="matrix(1.2734 0 0 1.2734 20.9541 -69.6016)" gradientUnits="userSpaceOnUse">
		<stop  offset="0" style="stop-color:#FFFFFF"/>
		<stop  offset="0.2293" style="stop-color:#FCFCFC"/>
		<stop  offset="0.4106" style="stop-color:#F2F2F3"/>
		<stop  offset="0.5756" style="stop-color:#E1E2E3"/>
		<stop  offset="0.7298" style="stop-color:#CACBCD"/>
		<stop  offset="0.8539" style="stop-color:#B1B3B5"/>
		<stop  offset="1" style="stop-color:#DBDCDD"/>
	</radialGradient>
	<path fill="url(#SVGID_5_)" d="M21.819,5.168c1.819-1.002,7.262-2.124,12.001,0.505c5.662,3.142,9.233,8.565,6.964,13.481
		c-4.229,9.162-21.076,9.556-25.01,3.368C11.839,16.333,17.451,7.573,21.819,5.168z"/>
	<path fill="#231F20" d="M27.426,16.517c-0.578-0.732-1.419-3.354,0.848-4.857c1.542-1.021,3.586-0.693,4.666,1.002
		c1.272,2.002,3.861,3.123,3.699,4.88c-0.294,3.19-3.093,2.994-5.435,2.138C29.522,19.064,28.004,17.25,27.426,16.517z"/>
	
		<radialGradient id="SVGID_6_" cx="2.6484" cy="75.5537" r="3.8331" fx="-0.1573" fy="72.9421" gradientTransform="matrix(0.841 0 0 0.841 27.0759 -50.4798)" gradientUnits="userSpaceOnUse">
		<stop  offset="0.3034" style="stop-color:#FFFFFF"/>
		<stop  offset="0.4322" style="stop-color:#FAFAFA"/>
		<stop  offset="0.5953" style="stop-color:#EAEAEB"/>
		<stop  offset="0.7768" style="stop-color:#D0D1D3"/>
		<stop  offset="0.9705" style="stop-color:#ACAEB1"/>
		<stop  offset="1" style="stop-color:#A6A8AB"/>
	</radialGradient>
	<circle fill="url(#SVGID_6_)" cx="30.22" cy="14.305" r="2.03"/>
	
		<radialGradient id="SVGID_7_" cx="0.2178" cy="64.083" r="8.6132" gradientTransform="matrix(1.0296 0 0 1.0296 24.9228 -46.6212)" gradientUnits="userSpaceOnUse">
		<stop  offset="0" style="stop-color:#FFFFFF"/>
		<stop  offset="0.2425" style="stop-color:#FCFCFC"/>
		<stop  offset="0.4343" style="stop-color:#F2F2F3"/>
		<stop  offset="0.6088" style="stop-color:#E1E2E3"/>
		<stop  offset="0.772" style="stop-color:#CACBCD"/>
		<stop  offset="0.8539" style="stop-color:#BBBDBF"/>
		<stop  offset="1" style="stop-color:#E6E7E8"/>
	</radialGradient>
	<path fill="url(#SVGID_7_)" d="M23.757,19.244c-0.579,0.696-2.36,3.509-2.028,6.084c0.134,1.03,1.523,3.038,3.826,2.282
		c1.177,0.504,2.859,0,3.706-1.182c2.813-3.917-1.823-7.299-2.259-7.589C25.785,18.027,24.337,18.549,23.757,19.244z"/>
	<path fill="#808184" d="M25.228,26.506c0,0,0.027,0.725,0.269,1.127c0,0-0.215-0.965-0.107-1.207S25.228,26.506,25.228,26.506z"/>
	
		<radialGradient id="SVGID_8_" cx="3.8223" cy="69.7578" r="1.5202" gradientTransform="matrix(1.2734 0 0 1.2734 20.8672 -64.4297)" gradientUnits="userSpaceOnUse">
		<stop  offset="0" style="stop-color:#A15C38"/>
		<stop  offset="1" style="stop-color:#681D00"/>
	</radialGradient>
	<path fill="url(#SVGID_8_)" d="M23.09,25.145c0.261-0.241,1.558,0.639,2.241,0.618c0.874-0.023,2.038-0.841,2.577-0.668
		c0.436,0.138-0.256,1.51-2.579,1.526C23.606,26.635,22.764,25.447,23.09,25.145z"/>
	<path fill="#231F20" d="M23.092,25.255c0,0,0.013,0.551,0.827,0.722c0.66,0.138,1.052,0.382,1.207,0.566
		c0.154,0.184,0.103-0.461,0.103-0.461l-0.821-0.613L23.092,25.255z"/>
	<path fill="#231F20" d="M25.403,26.561c0,0-0.001,0.035,0.012,0.037c0.36,0.049,0.465-0.647,1.198-0.721
		c1.293-0.13,1.59-0.438,1.137-0.758c-0.242-0.17-1.802,0.751-1.802,0.751"/>
	
		<radialGradient id="SVGID_9_" cx="-3926.9521" cy="-3873.2393" r="9.2889" gradientTransform="matrix(0.2537 0.0647 -0.0647 0.2537 770.9227 1262.147)" gradientUnits="userSpaceOnUse">
		<stop  offset="0" style="stop-color:#A15C38"/>
		<stop  offset="1" style="stop-color:#7B340F"/>
	</radialGradient>
	<path fill="url(#SVGID_9_)" d="M23.557,25.644c-0.175-0.031-0.44-0.122-0.5-0.271c-0.115-0.287,0.109-0.475,0.378-0.4
		c0.541,0.146,1.406,0.634,1.821,0.659c0.5,0.029,2.142-1.155,2.738-0.555c0.146,0.146,0.015,0.676-0.623,0.469
		c-0.371-0.119-1.158,0.229-1.42,0.442c-0.318,0.261-0.353,0.671-0.353,0.671s-0.231,0.293-0.513,0.049
		c-0.153-0.135,0.007-0.496-0.309-0.686C24.581,25.908,23.862,25.702,23.557,25.644z"/>
	
		<radialGradient id="SVGID_10_" cx="18.2046" cy="68.2686" r="9.6623" gradientTransform="matrix(1.2734 0 0 1.2734 14.1846 -84.7881)" gradientUnits="userSpaceOnUse">
		<stop  offset="0" style="stop-color:#929497"/>
		<stop  offset="1" style="stop-color:#000000"/>
	</radialGradient>
	<path fill="url(#SVGID_10_)" d="M46.667,24.518c0,0,2.337-12.563-8.178-17.836c-3.058-1.532-6.136,2.225-2.519,4.87
		c6.548,4.787,3.002,10.532,3.002,10.532S42.09,25.493,46.667,24.518z"/>
	
		<radialGradient id="SVGID_11_" cx="-7676.7993" cy="-7625.2148" r="2.0022" gradientTransform="matrix(0.3527 -0.2754 0.2754 0.3527 4810.6855 616.4057)" gradientUnits="userSpaceOnUse">
		<stop  offset="0" style="stop-color:#CB8361"/>
		<stop  offset="1" style="stop-color:#944B36"/>
	</radialGradient>
	<path fill="url(#SVGID_11_)" d="M4.411,41.76c0.128-0.244-0.053-0.594-0.404-0.777c-0.352-0.186-0.741-0.135-0.869,0.109
		c-0.128,0.246,0.053,0.594,0.404,0.777C3.894,42.053,4.282,42.006,4.411,41.76z"/>
	
		<radialGradient id="SVGID_12_" cx="-7656.4526" cy="-7631.4614" r="2.0018" gradientTransform="matrix(0.3174 -0.2479 0.2479 0.3174 4325.0454 566.2605)" gradientUnits="userSpaceOnUse">
		<stop  offset="0" style="stop-color:#CB8361"/>
		<stop  offset="1" style="stop-color:#944B36"/>
	</radialGradient>
	<path fill="url(#SVGID_12_)" d="M4.213,42.625c0.116-0.219-0.047-0.533-0.364-0.699s-0.667-0.121-0.782,0.1
		s0.048,0.533,0.364,0.699S4.098,42.848,4.213,42.625z"/>
	
		<radialGradient id="SVGID_13_" cx="-7681.0103" cy="-7622.3452" r="2.0024" gradientTransform="matrix(0.3527 -0.2754 0.2754 0.3527 4811.6865 613.2768)" gradientUnits="userSpaceOnUse">
		<stop  offset="0" style="stop-color:#CB8361"/>
		<stop  offset="1" style="stop-color:#944B36"/>
	</radialGradient>
	<path fill="url(#SVGID_13_)" d="M4.717,40.803c0.128-0.244-0.053-0.594-0.405-0.777c-0.352-0.184-0.74-0.135-0.869,0.109
		c-0.128,0.246,0.053,0.594,0.404,0.777C4.2,41.096,4.588,41.049,4.717,40.803z"/>
	
		<radialGradient id="SVGID_14_" cx="-7686.145" cy="-7622.3057" r="2.0017" gradientTransform="matrix(0.3527 -0.2754 0.2754 0.3527 4814.2803 611.2192)" gradientUnits="userSpaceOnUse">
		<stop  offset="0" style="stop-color:#CB8361"/>
		<stop  offset="1" style="stop-color:#944B36"/>
	</radialGradient>
	<path fill="url(#SVGID_14_)" d="M5.51,40.172c0.128-0.244-0.053-0.594-0.405-0.777c-0.352-0.184-0.741-0.133-0.869,0.111
		c-0.128,0.246,0.053,0.592,0.405,0.777C4.993,40.467,5.382,40.418,5.51,40.172z"/>
	
		<radialGradient id="SVGID_15_" cx="-7690.1973" cy="-7609.9214" r="2.0022" gradientTransform="matrix(0.3264 -0.3061 0.3061 0.3264 4844.519 168.9016)" gradientUnits="userSpaceOnUse">
		<stop  offset="0" style="stop-color:#CB8361"/>
		<stop  offset="1" style="stop-color:#944B36"/>
	</radialGradient>
	<path fill="url(#SVGID_15_)" d="M6.388,39.453c0.105-0.256-0.106-0.586-0.473-0.736c-0.367-0.152-0.75-0.068-0.855,0.188
		c-0.106,0.256,0.105,0.586,0.473,0.738C5.899,39.793,6.283,39.709,6.388,39.453z"/>
	
		<radialGradient id="SVGID_16_" cx="-7689.3281" cy="-7616.9771" r="1.1901" gradientTransform="matrix(0.341 -0.2899 0.2899 0.341 4834.4697 407.0464)" gradientUnits="userSpaceOnUse">
		<stop  offset="0" style="stop-color:#FBBC85"/>
		<stop  offset="1" style="stop-color:#944B36"/>
	</radialGradient>
	<path fill="url(#SVGID_16_)" d="M4.704,38.613c0,0-0.407-0.08-0.507,0.117c-0.05,0.098,0.175,0.232,0.419,0.229
		C4.858,38.953,4.891,38.701,4.704,38.613z"/>
	
		<radialGradient id="SVGID_17_" cx="-7684.7041" cy="-7593.8989" r="1.1908" gradientTransform="matrix(0.2923 -0.3389 0.3389 0.2923 4823.2935 -345.2984)" gradientUnits="userSpaceOnUse">
		<stop  offset="0" style="stop-color:#FBBC85"/>
		<stop  offset="1" style="stop-color:#944B36"/>
	</radialGradient>
	<path fill="url(#SVGID_17_)" d="M3.919,39.121c0,0-0.414-0.018-0.483,0.193c-0.034,0.105,0.209,0.203,0.449,0.162
		S4.118,39.18,3.919,39.121z"/>
	
		<radialGradient id="SVGID_18_" cx="-11.8413" cy="86.7432" r="7.2939" gradientTransform="matrix(1.2734 0 0 1.2734 20.9541 -69.6016)" gradientUnits="userSpaceOnUse">
		<stop  offset="0" style="stop-color:#CB8361"/>
		<stop  offset="1" style="stop-color:#944B36"/>
	</radialGradient>
	<path fill="url(#SVGID_18_)" d="M4.877,43.168C4.693,42.758,4.399,41,5.705,40.271c0.384-0.213,0.792-0.563,1.529-0.547
		c1.918,0.043,2.022,1.861,2.743,2.293c0.72,0.434,2.036,0.322,2.356,0.994C13.79,46.063,5.935,45.51,4.877,43.168z"/>
	
		<radialGradient id="SVGID_19_" cx="-31.8721" cy="65.416" r="7.482" gradientTransform="matrix(-1.1497 0.5476 0.5476 1.1497 -36.2297 -28.0453)" gradientUnits="userSpaceOnUse">
		<stop  offset="0" style="stop-color:#929497"/>
		<stop  offset="1" style="stop-color:#000000"/>
	</radialGradient>
	<path fill="url(#SVGID_19_)" d="M29.203,36.48c0.706-0.938,2.763-2.359,5.364-1.883c2.531,0.463,4.483,2.688,4.86,5.512
		c0,0,2.303-3.48,4.925-1.84c1.569,0.982,4.422,4.49-3.166,8.734c-5.339,2.986-4.333-2.389-6.656-1.418
		c-0.801,0.334-1.818,0.334-2.772,0.053C28.08,44.563,26.947,39.477,29.203,36.48z"/>
	
		<radialGradient id="SVGID_20_" cx="-7703.2969" cy="-7684.8965" r="2.0026" gradientTransform="matrix(-0.4369 -0.097 -0.097 0.4369 -4065.8086 2650.6125)" gradientUnits="userSpaceOnUse">
		<stop  offset="0" style="stop-color:#CB8361"/>
		<stop  offset="1" style="stop-color:#944B36"/>
	</radialGradient>
	<path fill="url(#SVGID_20_)" d="M44.267,41.383c-0.222-0.166-0.207-0.561,0.031-0.877c0.238-0.318,0.61-0.439,0.832-0.273
		c0.221,0.166,0.207,0.559-0.031,0.877C44.86,41.426,44.487,41.549,44.267,41.383z"/>
	
		<radialGradient id="SVGID_21_" cx="-7685.8345" cy="-7697.8135" r="2.002" gradientTransform="matrix(-0.3932 -0.0873 -0.0873 0.3932 -3648.459 2396.8923)" gradientUnits="userSpaceOnUse">
		<stop  offset="0" style="stop-color:#CB8361"/>
		<stop  offset="1" style="stop-color:#944B36"/>
	</radialGradient>
	<path fill="url(#SVGID_21_)" d="M44.817,42.08c-0.199-0.15-0.187-0.502,0.028-0.789c0.215-0.285,0.549-0.396,0.748-0.246
		s0.187,0.502-0.027,0.787C45.352,42.119,45.016,42.229,44.817,42.08z"/>
	
		<radialGradient id="SVGID_22_" cx="-7707.5093" cy="-7682.0293" r="2.0021" gradientTransform="matrix(-0.4369 -0.097 -0.097 0.4369 -4068.0586 2648.218)" gradientUnits="userSpaceOnUse">
		<stop  offset="0" style="stop-color:#CB8361"/>
		<stop  offset="1" style="stop-color:#944B36"/>
	</radialGradient>
	<path fill="url(#SVGID_22_)" d="M43.579,40.65c-0.221-0.166-0.207-0.559,0.031-0.875c0.238-0.318,0.61-0.441,0.832-0.275
		c0.221,0.168,0.207,0.559-0.031,0.875C44.173,40.693,43.8,40.816,43.579,40.65z"/>
	
		<radialGradient id="SVGID_23_" cx="-7712.6431" cy="-7681.9873" r="2.0012" gradientTransform="matrix(-0.4369 -0.097 -0.097 0.4369 -4071.2842 2647.4758)" gradientUnits="userSpaceOnUse">
		<stop  offset="0" style="stop-color:#CB8361"/>
		<stop  offset="1" style="stop-color:#944B36"/>
	</radialGradient>
	<path fill="url(#SVGID_23_)" d="M42.592,40.422c-0.222-0.166-0.207-0.557,0.031-0.875c0.238-0.316,0.611-0.439,0.833-0.273
		c0.221,0.166,0.206,0.559-0.033,0.875C43.186,40.467,42.813,40.588,42.592,40.422z"/>
	
		<radialGradient id="SVGID_24_" cx="-7711.147" cy="-7671.7129" r="2.0031" gradientTransform="matrix(-0.4263 -0.136 -0.136 0.4263 -4288.1084 2260.8894)" gradientUnits="userSpaceOnUse">
		<stop  offset="0" style="stop-color:#CB8361"/>
		<stop  offset="1" style="stop-color:#944B36"/>
	</radialGradient>
	<path fill="url(#SVGID_24_)" d="M41.49,40.152c-0.205-0.186-0.156-0.576,0.11-0.871c0.266-0.295,0.648-0.383,0.853-0.197
		c0.206,0.186,0.156,0.574-0.109,0.869S41.695,40.338,41.49,40.152z"/>
	
		<radialGradient id="SVGID_25_" cx="-7713.251" cy="-7677.6484" r="1.1888" gradientTransform="matrix(-0.4325 -0.1151 -0.1151 0.4325 -4176.5386 2471.4165)" gradientUnits="userSpaceOnUse">
		<stop  offset="0" style="stop-color:#FBBC85"/>
		<stop  offset="1" style="stop-color:#944B36"/>
	</radialGradient>
	<path fill="url(#SVGID_25_)" d="M42.649,38.668c0,0,0.332-0.248,0.509-0.111c0.086,0.064-0.059,0.285-0.28,0.385
		C42.657,39.041,42.519,38.828,42.649,38.668z"/>
	
		<radialGradient id="SVGID_26_" cx="-7698.9248" cy="-7657.5659" r="1.1902" gradientTransform="matrix(-0.4096 -0.1802 -0.1802 0.4096 -4489.2886 1788.0031)" gradientUnits="userSpaceOnUse">
		<stop  offset="0" style="stop-color:#FBBC85"/>
		<stop  offset="1" style="stop-color:#944B36"/>
	</radialGradient>
	<path fill="url(#SVGID_26_)" d="M43.576,38.789c0,0,0.365-0.195,0.52-0.033c0.075,0.08-0.102,0.273-0.336,0.338
		C43.524,39.16,43.422,38.928,43.576,38.789z"/>
	
		<radialGradient id="SVGID_27_" cx="-7690.6733" cy="-7648.144" r="1.19" gradientTransform="matrix(-0.3967 -0.2071 -0.2071 0.3967 -4589.7939 1480.4768)" gradientUnits="userSpaceOnUse">
		<stop  offset="0" style="stop-color:#FBBC85"/>
		<stop  offset="1" style="stop-color:#944B36"/>
	</radialGradient>
	<path fill="url(#SVGID_27_)" d="M44.554,39.16c0,0,0.379-0.168,0.521,0.002c0.07,0.084-0.119,0.266-0.358,0.314
		C44.479,39.527,44.392,39.287,44.554,39.16z"/>
	
		<radialGradient id="SVGID_28_" cx="-7685.5435" cy="-7649.9556" r="1.1907" gradientTransform="matrix(-0.3967 -0.2071 -0.2071 0.3967 -4587.4023 1483.0422)" gradientUnits="userSpaceOnUse">
		<stop  offset="0" style="stop-color:#FBBC85"/>
		<stop  offset="1" style="stop-color:#944B36"/>
	</radialGradient>
	<path fill="url(#SVGID_28_)" d="M45.285,39.945c0,0,0.379-0.17,0.521,0.002c0.069,0.084-0.119,0.266-0.357,0.314
		C45.21,40.313,45.123,40.072,45.285,39.945z"/>
	
		<radialGradient id="SVGID_29_" cx="-7681.5771" cy="-7652.5156" r="1.1904" gradientTransform="matrix(-0.3967 -0.2071 -0.2071 0.3967 -4585.8984 1485.6892)" gradientUnits="userSpaceOnUse">
		<stop  offset="0" style="stop-color:#FBBC85"/>
		<stop  offset="1" style="stop-color:#944B36"/>
	</radialGradient>
	<path fill="url(#SVGID_29_)" d="M45.746,40.756c0,0,0.377-0.172,0.52,0c0.071,0.084-0.119,0.266-0.357,0.316
		C45.67,41.121,45.583,40.881,45.746,40.756z"/>
	
		<radialGradient id="SVGID_30_" cx="-32.3501" cy="75.7695" r="7.2934" gradientTransform="matrix(-1.1497 0.5476 0.5476 1.1497 -36.2297 -28.0453)" gradientUnits="userSpaceOnUse">
		<stop  offset="0" style="stop-color:#CB8361"/>
		<stop  offset="1" style="stop-color:#944B36"/>
	</radialGradient>
	<path fill="url(#SVGID_30_)" d="M44.45,42.854c-0.009-0.447-0.5-2.162-1.991-2.258c-0.438-0.027-0.957-0.168-1.615,0.164
		c-1.714,0.863-1.025,2.549-1.49,3.25c-0.464,0.701-1.7,1.166-1.701,1.91C37.649,49.299,44.504,45.424,44.45,42.854z"/>
	<g>
		
			<radialGradient id="SVGID_31_" cx="-143.7866" cy="327.7139" r="2.1939" gradientTransform="matrix(-1.731 0.237 0.403 0.8259 -351.0362 -223.8324)" gradientUnits="userSpaceOnUse">
			<stop  offset="0.3034" style="stop-color:#363639"/>
			<stop  offset="0.4186" style="stop-color:#3B3839"/>
			<stop  offset="0.5645" style="stop-color:#4B3E39"/>
			<stop  offset="0.727" style="stop-color:#654739"/>
			<stop  offset="0.9001" style="stop-color:#895338"/>
			<stop  offset="1" style="stop-color:#A15C38"/>
		</radialGradient>
		<path fill="url(#SVGID_31_)" d="M29.636,14.991c-0.618,0.019-1.13-0.479-1.143-1.114c-0.013-0.633,0.477-1.161,1.096-1.181
			c0.619-0.018,1.129,0.481,1.142,1.116C30.745,14.445,30.254,14.973,29.636,14.991z"/>
		<path fill="#231F20" d="M29.622,14.61c-0.411,0.012-0.751-0.318-0.76-0.739s0.316-0.771,0.728-0.785
			c0.411-0.01,0.751,0.32,0.76,0.741C30.356,14.248,30.031,14.598,29.622,14.61z"/>
		<path fill="#FFFFFF" d="M28.912,13.268c-0.025,0.141,0.076,0.254,0.225,0.256c0.147,0.003,0.287-0.108,0.311-0.245
			c0.023-0.14-0.076-0.255-0.226-0.256C29.075,13.02,28.936,13.13,28.912,13.268z"/>
	</g>
	<path fill="#231F20" d="M23.56,16.6c0.281-0.891,0.135-3.64-2.518-4.24c-1.804-0.406-3.598,0.626-4.004,2.595
		c-0.479,2.324-2.501,4.292-1.726,5.876c1.409,2.878,3.956,1.7,5.84,0.067C22.505,19.725,23.281,17.491,23.56,16.6z"/>
	
		<radialGradient id="SVGID_32_" cx="11.6909" cy="75.3281" r="3.8324" fx="8.8857" fy="72.717" gradientTransform="matrix(-0.7862 0.2987 0.2987 0.7862 7.2314 -48.5768)" gradientUnits="userSpaceOnUse">
		<stop  offset="0.3034" style="stop-color:#FFFFFF"/>
		<stop  offset="0.4322" style="stop-color:#FAFAFA"/>
		<stop  offset="0.5953" style="stop-color:#EAEAEB"/>
		<stop  offset="0.7768" style="stop-color:#D0D1D3"/>
		<stop  offset="0.9705" style="stop-color:#ACAEB1"/>
		<stop  offset="1" style="stop-color:#A6A8AB"/>
	</radialGradient>
	<circle fill="url(#SVGID_32_)" cx="20.163" cy="15.524" r="2.031"/>
	<g>
		
			<radialGradient id="SVGID_33_" cx="-155.9375" cy="328.0801" r="2.1929" gradientTransform="matrix(-1.7413 0.1437 0.3581 0.8463 -368.1408 -241.5476)" gradientUnits="userSpaceOnUse">
			<stop  offset="0.3034" style="stop-color:#363639"/>
			<stop  offset="0.4186" style="stop-color:#3B3839"/>
			<stop  offset="0.5645" style="stop-color:#4B3E39"/>
			<stop  offset="0.727" style="stop-color:#654739"/>
			<stop  offset="0.9001" style="stop-color:#895338"/>
			<stop  offset="1" style="stop-color:#A15C38"/>
		</radialGradient>
		<path fill="url(#SVGID_33_)" d="M20.528,16.025c-0.617-0.017-1.102-0.539-1.08-1.174c0.021-0.634,0.539-1.135,1.157-1.12
			c0.619,0.016,1.101,0.541,1.08,1.174C21.666,15.539,21.147,16.041,20.528,16.025z"/>
		<path fill="#231F20" d="M20.536,15.644c-0.411-0.01-0.733-0.359-0.719-0.78c0.014-0.42,0.357-0.753,0.768-0.743
			c0.411,0.011,0.733,0.359,0.719,0.779C21.289,15.321,20.946,15.654,20.536,15.644z"/>
		<path fill="#FFFFFF" d="M19.898,14.266c-0.032,0.138,0.063,0.257,0.211,0.267c0.146,0.011,0.292-0.093,0.322-0.229
			c0.032-0.138-0.063-0.257-0.21-0.268C20.076,14.027,19.93,14.129,19.898,14.266z"/>
	</g>
	
		<radialGradient id="SVGID_34_" cx="-7673.2236" cy="-7582.563" r="1.1903" gradientTransform="matrix(0.256 -0.3402 0.3402 0.256 4546.7598 -629.2175)" gradientUnits="userSpaceOnUse">
		<stop  offset="0" style="stop-color:#FBBC85"/>
		<stop  offset="1" style="stop-color:#944B36"/>
	</radialGradient>
	<path fill="url(#SVGID_34_)" d="M3.207,39.854c0,0-0.394,0.012-0.446,0.215c-0.026,0.102,0.211,0.18,0.436,0.125
		C3.421,40.139,3.399,39.896,3.207,39.854z"/>
	
		<radialGradient id="SVGID_35_" cx="-7667.9058" cy="-7584.0615" r="1.1902" gradientTransform="matrix(0.256 -0.3402 0.3402 0.256 4545.5332 -626.0574)" gradientUnits="userSpaceOnUse">
		<stop  offset="0" style="stop-color:#FBBC85"/>
		<stop  offset="1" style="stop-color:#944B36"/>
	</radialGradient>
	<path fill="url(#SVGID_35_)" d="M2.831,40.822c0,0-0.394,0.01-0.446,0.215c-0.025,0.1,0.212,0.18,0.437,0.125
		C3.046,41.105,3.023,40.863,2.831,40.822z"/>
	
		<radialGradient id="SVGID_36_" cx="-7663.9673" cy="-7586.7095" r="1.1894" gradientTransform="matrix(0.256 -0.3402 0.3402 0.256 4545.3779 -623.1511)" gradientUnits="userSpaceOnUse">
		<stop  offset="0" style="stop-color:#FBBC85"/>
		<stop  offset="1" style="stop-color:#944B36"/>
	</radialGradient>
	<path fill="url(#SVGID_36_)" d="M2.784,41.711c0,0-0.394,0.01-0.446,0.215c-0.026,0.1,0.211,0.18,0.436,0.125
		C2.999,41.994,2.976,41.754,2.784,41.711z"/>
</g>
</svg>
