<?xml version="1.0" encoding="utf-8"?>
<!-- Generator: Adobe Illustrator 14.0.0, SVG Export Plug-In . SVG Version: 6.00 Build 43363)  -->
<!DOCTYPE svg PUBLIC "-//W3C//DTD SVG 1.1//EN" "http://www.w3.org/Graphics/SVG/1.1/DTD/svg11.dtd">
<svg version="1.1" id="图层_1" xmlns="http://www.w3.org/2000/svg" xmlns:xlink="http://www.w3.org/1999/xlink" x="0px" y="0px"
	 width="50px" height="50px" viewBox="0 0 50 50" enable-background="new 0 0 50 50" xml:space="preserve">
<g>
	<path fill="none" stroke="#ECAA83" stroke-width="0.6276" stroke-linecap="round" stroke-linejoin="round" d="M30.816,19.059
		c0,0,3.016-0.933,4.926-0.596"/>
	<path fill="none" stroke="#ECAA83" stroke-width="0.6276" stroke-linecap="round" stroke-linejoin="round" d="M31.283,19.008
		c0,0,3.158,0.036,4.873,0.939"/>
	<g>
		
			<linearGradient id="SVGID_1_" gradientUnits="userSpaceOnUse" x1="-338.0674" y1="-49.9429" x2="-341.4826" y2="-48.9244" gradientTransform="matrix(1.2552 0 0 1.2552 463.3062 78.8697)">
			<stop  offset="0" style="stop-color:#B77049"/>
			<stop  offset="1" style="stop-color:#7B340F"/>
		</linearGradient>
		<path fill="url(#SVGID_1_)" d="M40.906,4.082C37.934,4.845,36.748,6.58,36.277,7.9c-0.842,2.355-0.039,5.012,1.127,6.6
			c0.246,0.333,0.715,0.405,1.047,0.16c0.334-0.245,0.406-0.713,0.16-1.045c-0.902-1.228-1.576-3.383-0.926-5.211
			c0.51-1.423,1.717-2.39,3.594-2.872c2.701-0.694,4.244,0.606,5.063,1.818c1.363,2.021,1.451,4.906,0.615,6.038
			c-0.629,0.854-1.414,1.392-2.174,1.911c-1.621,1.109-3.297,2.256-2.57,6.029c0.27,1.4,0.037,2.491-0.709,3.339
			c-2.068,2.344-7.305,2.034-7.357,2.03c-0.412-0.027-0.768,0.286-0.795,0.698s0.285,0.768,0.697,0.795
			c0.244,0.017,6.018,0.364,8.574-2.531c1.061-1.201,1.418-2.754,1.061-4.614c-0.543-2.809,0.395-3.449,1.945-4.511
			c0.822-0.562,1.752-1.199,2.533-2.257c1.318-1.789,1.051-5.343-0.58-7.763C46.045,4.234,43.674,3.372,40.906,4.082z"/>
		<path fill="#A6A8AB" d="M19.509,47.823c0,0.67,3.968,1.213,8.864,1.213c4.895,0,8.863-0.543,8.863-1.213
			c0-0.667-3.969-1.208-8.863-1.208C23.477,46.615,19.509,47.156,19.509,47.823z"/>
		
			<linearGradient id="SVGID_2_" gradientUnits="userSpaceOnUse" x1="-71.1533" y1="307.9805" x2="-73.1888" y2="305.9937" gradientTransform="matrix(-1.4977 0 0 1.4977 -87.9739 -425.198)">
			<stop  offset="0" style="stop-color:#B77049"/>
			<stop  offset="1" style="stop-color:#7B340F"/>
		</linearGradient>
		<path fill="url(#SVGID_2_)" d="M27.213,29.371c-0.488-0.599-3.375-1.539-5.639,2.904c-2.265,4.444-4.252,1.126-5.751,2.525
			c-1.5,1.398,3.934,0.92,5.509,1.207c1.454,0.264,0.078-0.841,0.701-1.741c0.535-0.775,1.227-0.922,3.104-1.294
			C27.033,32.598,28.082,30.441,27.213,29.371z"/>
		
			<linearGradient id="SVGID_3_" gradientUnits="userSpaceOnUse" x1="-121.4541" y1="302.1221" x2="-117.9327" y2="303.1379" gradientTransform="matrix(-0.8432 0 0 0.8432 -61.612 -223.3997)">
			<stop  offset="0" style="stop-color:#B77049"/>
			<stop  offset="1" style="stop-color:#7B340F"/>
		</linearGradient>
		<path fill="url(#SVGID_3_)" d="M32.068,32.359c0.488,2.807,4.096,4.804,8.236,1.663c4.141-3.139,4.496,0.873,6.537,0.243
			s-3.271-2.646-4.615-3.633c-1.244-0.907-0.455,0.753-1.447,1.314c-0.855,0.482-1.9-3.172-3.867-3.496
			C33.354,27.869,31.656,29.991,32.068,32.359z"/>
		
			<linearGradient id="SVGID_4_" gradientUnits="userSpaceOnUse" x1="-360.0264" y1="-59.811" x2="-359.5569" y2="-53.7095" gradientTransform="matrix(1.2552 0 0 1.2552 471.1246 83.1568)">
			<stop  offset="0" style="stop-color:#B77049"/>
			<stop  offset="1" style="stop-color:#7B340F"/>
		</linearGradient>
		<path fill="url(#SVGID_4_)" d="M22.616,14.964c0,0,2.503-4.127,0.754-7.451c-2.259-4.293-9.357-1.836-8.549,3.351
			c0.423,2.717,3.076,4.5,3.076,4.5L22.616,14.964z"/>
		
			<linearGradient id="SVGID_5_" gradientUnits="userSpaceOnUse" x1="-107.2651" y1="300.4863" x2="-104.2181" y2="299.1319" gradientTransform="matrix(-0.8432 0 0 0.8432 -61.612 -223.3997)">
			<stop  offset="0" style="stop-color:#B77049"/>
			<stop  offset="1" style="stop-color:#7B340F"/>
		</linearGradient>
		<path fill="url(#SVGID_5_)" d="M26.123,27.438c0,0,2.867,2.06,4.715,0.362c2.789-2.567,4.584-2.216,5.781-1.982
			c3.461,0.669,6.504,9.642-2.322,11.916c-8.451,2.175-13.283-7.143-13.283-7.143L26.123,27.438z"/>
		
			<linearGradient id="SVGID_6_" gradientUnits="userSpaceOnUse" x1="-107.2437" y1="301.5869" x2="-105.28" y2="299.2166" gradientTransform="matrix(-0.8432 0 0 0.8432 -61.612 -223.3997)">
			<stop  offset="0" style="stop-color:#FCD0AF"/>
			<stop  offset="1" style="stop-color:#EDB38F"/>
		</linearGradient>
		<path fill="url(#SVGID_6_)" d="M21.457,31.343l1.789-1.088c0,0,0.741,2.847,4.465,3.015c3.143,0.141,5.916-4.912,8.482-2.791
			c1.395,1.15,2.623,2.931,2.488,4.779c-0.914,1.057-2.324,1.944-4.385,2.476C27.332,39.527,22.827,33.513,21.457,31.343z"/>
		<path fill="#EDB38F" d="M35.867,34.622l2.492,0.98c-0.912,0.903-2.229,1.659-4.063,2.131c-0.357,0.092-0.705,0.158-1.047,0.211
			c1.139-1.118,0.74-2.459,0.74-2.459L35.867,34.622z"/>
		<path fill="#EDB38F" d="M36.193,30.479c1.395,1.15,2.623,2.931,2.488,4.779c-0.592,0.686-1.395,1.298-2.449,1.792
			c-3.492-1.118-4.695-3.672-4.256-5.786C33.453,30.222,34.852,29.369,36.193,30.479z"/>
		
			<radialGradient id="SVGID_7_" cx="-110.833" cy="294.4082" r="12.1221" gradientTransform="matrix(-0.8432 0 0 0.8432 -61.612 -223.3997)" gradientUnits="userSpaceOnUse">
			<stop  offset="0" style="stop-color:#CB8361"/>
			<stop  offset="1" style="stop-color:#A15C38"/>
		</radialGradient>
		<path fill="url(#SVGID_7_)" d="M28.514,29.355c-0.658-0.536-3.693-0.986-5.151,4.312c-1.458,5.301-4.339,2.16-5.646,4.004
			c-1.309,1.843,4.452,0.117,6.215,0.08c1.627-0.039-0.103-0.928,0.369-2.036c0.407-0.956,1.072-1.487,3.014-2.305
			C29.279,32.584,29.691,30.319,28.514,29.355z"/>
		
			<linearGradient id="SVGID_8_" gradientUnits="userSpaceOnUse" x1="-105.958" y1="299.6914" x2="-94.2423" y2="307.4794" gradientTransform="matrix(-0.8432 0 0 0.8432 -61.612 -223.3997)">
			<stop  offset="0" style="stop-color:#A15C38"/>
			<stop  offset="1" style="stop-color:#7B340F"/>
		</linearGradient>
		<path fill="url(#SVGID_8_)" d="M27.77,29.074c-0.193,0.423-0.418,0.815-0.686,1.147c-1.059,1.319-2.245,2.126-3.462,2.616
			C24.794,29.455,26.676,28.913,27.77,29.074z"/>
		
			<radialGradient id="SVGID_9_" cx="-379.5483" cy="79.3311" r="14.3411" gradientTransform="matrix(1 0 0 1 408.75 -49.9941)" gradientUnits="userSpaceOnUse">
			<stop  offset="0" style="stop-color:#FCD0AF"/>
			<stop  offset="0.06" style="stop-color:#F4C6A5"/>
			<stop  offset="0.3632" style="stop-color:#D19976"/>
			<stop  offset="0.6318" style="stop-color:#B77854"/>
			<stop  offset="0.8532" style="stop-color:#A76340"/>
			<stop  offset="1" style="stop-color:#A15C38"/>
		</radialGradient>
		<path fill="url(#SVGID_9_)" d="M33.855,15.51c-0.283-1.861-1.949-2.916-2.896-2.521c-5.015,2.09-7.277-0.212-11.433,0.164
			c0.664-0.535,1.412-0.921,1.412-0.921c-0.906,0.022-1.736,0.535-2.346,1.047c-0.066,0.013-0.132,0.022-0.2,0.035
			c0.566-0.906,1.832-1.777,1.832-1.777c-1.256,0.193-2.242,1.32-2.732,1.997c-4.286,1.293-6.693,6.069-6.091,10.262
			c0.184,1.277,0.802,3.182,1.783,4.611c-0.17,0.93-0.173,2.021,0.343,2.994c0,0-0.037-1.077,0.145-2.094
			c-0.063,0.772,0.021,1.604,0.425,2.366c0,0-0.037-1.063,0.142-2.074c0.002,0.002,0.004,0.003,0.006,0.004
			c0.027,0.654,0.173,1.325,0.537,1.938c0,0-0.059-0.716-0.01-1.536c2.847,2.017,5.736,1.706,8.113,1.176
			c2.342-0.521,4.222-1.485,5.712-3.145c0.43-0.479-0.33-0.947,0.037-1.549c0.373-0.611,1.873-1.359,2.186-2.108
			C30.854,24.273,34.371,18.888,33.855,15.51z"/>
		
			<linearGradient id="SVGID_10_" gradientUnits="userSpaceOnUse" x1="-85.1968" y1="305.2334" x2="-83.5005" y2="305.2334" gradientTransform="matrix(0.8229 -0.1835 0.1835 0.8229 24.7447 -245.4882)">
			<stop  offset="0" style="stop-color:#A15C38"/>
			<stop  offset="1" style="stop-color:#7B340F"/>
		</linearGradient>
		<path fill="url(#SVGID_10_)" d="M12.419,21.273l-0.533-1.975l-0.05,0.027c-0.391,1.162-0.571,2.388-0.516,3.593
			C11.694,21.976,12.419,21.273,12.419,21.273z"/>
		<path fill="none" stroke="#ECAA83" stroke-width="0.6276" stroke-linecap="round" stroke-linejoin="round" d="M27.984,18.14
			c0,0-4.795,2.388-7.018,8.09"/>
		<path fill="none" stroke="#ECAA83" stroke-width="0.6276" stroke-linecap="round" stroke-linejoin="round" d="M28.816,19.158
			c0,0-4.014,2.693-5.354,7.097"/>
		<path fill="none" stroke="#ECAA83" stroke-width="0.6276" stroke-linecap="round" stroke-linejoin="round" d="M29.672,20.041
			c0,0-2.742,3.137-2.393,7.09"/>
		<circle fill="#CB8361" cx="29.866" cy="18.276" r="0.143"/>
		<path fill="#CB8361" d="M28.891,18.098c0.076,0.026,0.156-0.015,0.184-0.091c0.025-0.074-0.016-0.154-0.09-0.18
			c-0.076-0.027-0.158,0.012-0.184,0.088C28.777,17.991,28.816,18.073,28.891,18.098z"/>
		<path fill="#CB8361" d="M30.881,17.523c0.074,0.026,0.156-0.012,0.182-0.091c0.025-0.073-0.014-0.156-0.09-0.181
			c-0.076-0.024-0.158,0.015-0.184,0.09C30.766,17.417,30.805,17.5,30.881,17.523z"/>
		<circle fill="#CB8361" cx="32.477" cy="16.068" r="0.144"/>
		<path fill="#CB8361" d="M31.223,16.713c0.076,0.024,0.158-0.016,0.182-0.093c0.025-0.074-0.014-0.155-0.088-0.18
			c-0.076-0.028-0.158,0.014-0.182,0.088C31.107,16.604,31.146,16.686,31.223,16.713z"/>
		<circle fill="#CB8361" cx="31.797" cy="18.983" r="0.143"/>
		<circle fill="#CB8361" cx="32.822" cy="18.053" r="0.144"/>
		<path fill="#CB8361" d="M30.473,19.488c0.074,0.026,0.156-0.015,0.182-0.089c0.025-0.075-0.014-0.157-0.09-0.184
			c-0.074-0.023-0.158,0.016-0.182,0.09C30.355,19.381,30.396,19.464,30.473,19.488z"/>
		<circle fill="#CB8361" cx="30.988" cy="18.208" r="0.143"/>
		<circle fill="#CB8361" cx="29.298" cy="19.04" r="0.145"/>
		<circle fill="#CB8361" cx="31.841" cy="17.708" r="0.144"/>
		
			<radialGradient id="SVGID_11_" cx="-375.5737" cy="-56.4595" r="8.4925" gradientTransform="matrix(1.2552 0 0 1.2552 471.1246 83.1568)" gradientUnits="userSpaceOnUse">
			<stop  offset="0" style="stop-color:#CB8361"/>
			<stop  offset="1" style="stop-color:#A15C38"/>
		</radialGradient>
		<path fill="url(#SVGID_11_)" d="M15.639,15.941c0,0-2.237-7.06-8.045-6.958C1.698,9.088-0.542,19.099,5.249,21.458
			c3.404,1.388,7.284-0.01,7.284-0.01L15.639,15.941z"/>
		
			<radialGradient id="SVGID_12_" cx="-7672.5488" cy="-7782.7661" r="26.8326" gradientTransform="matrix(0.334 0.0712 -0.0712 0.334 2020.7789 3163.3303)" gradientUnits="userSpaceOnUse">
			<stop  offset="0" style="stop-color:#F8BFC6"/>
			<stop  offset="1" style="stop-color:#F59695"/>
		</radialGradient>
		<path fill="url(#SVGID_12_)" d="M15.241,17.03c0,0-2.183-0.255-3.184-2.392c-0.85-1.817-0.476-3.379-2.001-4.272
			C8.53,9.468,6.031,9.807,4.752,10.848c-1.374,1.116-3.939,5.624-0.979,8.998c2.757,3.143,8.861,1.129,8.861,1.129L15.241,17.03z"
			/>
		
			<radialGradient id="SVGID_13_" cx="-58.7456" cy="301.5781" r="2.4331" gradientTransform="matrix(1.2285 -0.8567 0.8567 1.2285 -171.079 -403.469)" gradientUnits="userSpaceOnUse">
			<stop  offset="0" style="stop-color:#F6ABBB"/>
			<stop  offset="1" style="stop-color:#F38486"/>
		</radialGradient>
		<path fill="url(#SVGID_13_)" d="M14.781,16.931c-0.627-0.182-1.76-0.663-2.499-1.875c-0.725,0.051-2.188,1.927-1.087,3.701
			c0.578,0.928,1.575,1.241,2.29,1.274l1.628-2.823L14.781,16.931z"/>
		<path fill="#A15C38" d="M16.263,14.791c0,0-3.32,1.919-4.123,5.685c-0.801,3.767,2.229-0.343,2.229-0.343l1.215-1.524
			L16.263,14.791z"/>
		
			<radialGradient id="SVGID_14_" cx="-80.2539" cy="301.4629" r="1.956" gradientTransform="matrix(-1.3619 0.6236 0.6236 1.3619 -264.936 -347.9267)" gradientUnits="userSpaceOnUse">
			<stop  offset="0" style="stop-color:#FFFFFF"/>
			<stop  offset="0.0183" style="stop-color:#EAEAEA"/>
			<stop  offset="0.0595" style="stop-color:#C1C0C0"/>
			<stop  offset="0.1054" style="stop-color:#9B9999"/>
			<stop  offset="0.1551" style="stop-color:#7A7878"/>
			<stop  offset="0.2098" style="stop-color:#5F5C5D"/>
			<stop  offset="0.271" style="stop-color:#494546"/>
			<stop  offset="0.3419" style="stop-color:#383435"/>
			<stop  offset="0.4284" style="stop-color:#2C2829"/>
			<stop  offset="0.547" style="stop-color:#252122"/>
			<stop  offset="0.8483" style="stop-color:#231F20"/>
			<stop  offset="0.9888" style="stop-color:#58595B"/>
		</radialGradient>
		<path fill="url(#SVGID_14_)" d="M30.959,12.99c0,0,1.693-1.346,2.629-0.572c1.297,1.074,0.268,3.092,0.268,3.092
			S31.439,14.62,30.959,12.99z"/>
		<circle fill="#CB8361" cx="21.586" cy="15.829" r="1.003"/>
		<circle fill="#7B340F" cx="21.525" cy="15.552" r="1.003"/>
		
			<radialGradient id="SVGID_15_" cx="-57.5518" cy="299.6582" r="0.525" gradientTransform="matrix(1.4615 -0.3262 0.3262 1.4615 7.8897 -441.9375)" gradientUnits="userSpaceOnUse">
			<stop  offset="0" style="stop-color:#FFFFFF"/>
			<stop  offset="0.0582" style="stop-color:#DAD9D9"/>
			<stop  offset="0.1353" style="stop-color:#AFAEAE"/>
			<stop  offset="0.2184" style="stop-color:#898788"/>
			<stop  offset="0.3066" style="stop-color:#6A6768"/>
			<stop  offset="0.4013" style="stop-color:#504D4D"/>
			<stop  offset="0.5049" style="stop-color:#3C3839"/>
			<stop  offset="0.622" style="stop-color:#2E2A2B"/>
			<stop  offset="0.764" style="stop-color:#252223"/>
			<stop  offset="1" style="stop-color:#231F20"/>
		</radialGradient>
		<circle fill="url(#SVGID_15_)" cx="21.562" cy="15.719" r="0.945"/>
		
			<radialGradient id="SVGID_16_" cx="-117.7393" cy="294.4756" r="10.3642" gradientTransform="matrix(-0.8432 0 0 0.8432 -61.612 -223.3997)" gradientUnits="userSpaceOnUse">
			<stop  offset="0" style="stop-color:#CB8361"/>
			<stop  offset="1" style="stop-color:#A15C38"/>
		</radialGradient>
		<path fill="url(#SVGID_16_)" d="M33.133,29.016c-1.945,2.301-1.117,6.584,4.242,7.812c5.357,1.229,2.344,4.242,4.242,5.47
			c1.898,1.229-0.074-4.452-0.188-6.213c-0.107-1.624-0.92,0.141-2.049-0.28c-0.975-0.366,1.283-3.698,0.211-5.512
			C37.648,27.009,34.775,27.072,33.133,29.016z"/>
		<path fill="#7B340F" d="M18.903,38.423c0,0,0-0.883,1.405-1.047C20.308,37.376,18.707,37.343,18.903,38.423z"/>
		<path fill="#7B340F" d="M17.988,38.455c0,0,0.065-0.948,1.242-1.11C19.23,37.345,17.792,37.376,17.988,38.455z"/>
		<path fill="#7B340F" d="M42.342,41.163c0,0-0.879-0.073-0.926-1.488C41.416,39.675,41.252,41.269,42.342,41.163z"/>
		<path fill="#7B340F" d="M42.299,42.077c0,0-0.939-0.143-1.004-1.329C41.295,40.748,41.207,42.185,42.299,42.077z"/>
		<path fill="#7B340F" d="M46.26,32.881c0,0-0.68,0.565-1.705-0.411C44.555,32.47,45.555,33.723,46.26,32.881z"/>
		<path fill="#7B340F" d="M46.869,33.564c0,0-0.771,0.556-1.648-0.244C45.221,33.32,46.166,34.405,46.869,33.564z"/>
		<path fill="#7B340F" d="M16.965,35.809c0,0,0.19-0.863,1.599-0.721C18.563,35.088,17.006,34.711,16.965,35.809z"/>
		<path fill="#7B340F" d="M16.064,35.643c0,0,0.268-0.912,1.453-0.818C17.517,34.824,16.104,34.546,16.064,35.643z"/>
	</g>
</g>
</svg>
