<?xml version="1.0" encoding="utf-8"?>
<!-- Generator: Adobe Illustrator 14.0.0, SVG Export Plug-In . SVG Version: 6.00 Build 43363)  -->
<!DOCTYPE svg PUBLIC "-//W3C//DTD SVG 1.1//EN" "http://www.w3.org/Graphics/SVG/1.1/DTD/svg11.dtd">
<svg version="1.1" id="图层_1" xmlns="http://www.w3.org/2000/svg" xmlns:xlink="http://www.w3.org/1999/xlink" x="0px" y="0px"
	 width="100px" height="100px" viewBox="0 0 100 100" enable-background="new 0 0 100 100" xml:space="preserve">
<g>
	<g>
		
			<radialGradient id="SVGID_1_" cx="-55.25" cy="91.1318" r="4.5171" gradientTransform="matrix(1.5335 0 0 1 168.3735 0)" gradientUnits="userSpaceOnUse">
			<stop  offset="0.4438" style="stop-color:#E3E3E3"/>
			<stop  offset="1" style="stop-color:#C9C9C9"/>
		</radialGradient>
		<path fill="url(#SVGID_1_)" d="M73.102,92.183c2.769,1.886,3.533,3.44,10.524,3.467c6.989,0.025,6.102-1.562,8.67-3.933
			C84.733,90.476,77.907,91.207,73.102,92.183z"/>
		
			<radialGradient id="SVGID_2_" cx="-99.4453" cy="89.0664" r="5.7827" gradientTransform="matrix(1.5335 0 0 1 168.3735 0)" gradientUnits="userSpaceOnUse">
			<stop  offset="0.4438" style="stop-color:#E3E3E3"/>
			<stop  offset="1" style="stop-color:#C9C9C9"/>
		</radialGradient>
		<path fill="url(#SVGID_2_)" d="M6.503,92.03c3.305,2.329,7.255,3.497,11.213,3.38c4.48-0.132,7.35-1.83,9.629-3.693
			C19.072,90.135,11.572,90.959,6.503,92.03z"/>
		
			<radialGradient id="SVGID_3_" cx="-75.6387" cy="81.5313" r="48.287" gradientTransform="matrix(1.5335 0 0 1.1273 168.3735 -4.5265)" gradientUnits="userSpaceOnUse">
			<stop  offset="0.2865" style="stop-color:#909090"/>
			<stop  offset="0.6124" style="stop-color:#E3E3E3"/>
			<stop  offset="1" style="stop-color:#E3E3E3"/>
		</radialGradient>
		<path fill="url(#SVGID_3_)" d="M88.301,50.377C80.071,30,71.461,5.222,50.628,5.355C29.796,5.49,13.054,42.667,9.527,54.23
			C6,65.796,1.292,88.359,6.503,92.03c5.069-1.071,12.569-1.896,20.842-0.313c2.909-2.373,6.538-8.705,22.467-8.104
			c15.934,0.6,20.062,6.364,23.29,8.57c4.806-0.976,11.632-1.707,19.194-0.466C97.819,86.627,96.532,70.753,88.301,50.377z"/>
	</g>
	<g>
		
			<radialGradient id="SVGID_4_" cx="-1173.2861" cy="-325.0596" r="11.1874" gradientTransform="matrix(-0.6548 -0.3229 -0.3815 0.6789 -814.0532 -138.3274)" gradientUnits="userSpaceOnUse">
			<stop  offset="0.4438" style="stop-color:#E3E3E3"/>
			<stop  offset="1" style="stop-color:#C9C9C9"/>
		</radialGradient>
		<path fill="url(#SVGID_4_)" d="M70.101,18.599c0,0,3.171-12.171,13.206-5.946c10.033,6.224-1.584,14.175-3.192,16.502
			C78.505,31.481,68.158,24.196,70.101,18.599z"/>
		<path fill="#7D7D7D" d="M71.102,20.964c0,0,1.792-8.85,8.191-4.893c6.396,3.958-0.828,10.46-2.039,12.274
			C76.037,30.161,69.478,25.237,71.102,20.964z"/>
	</g>
	<g>
		
			<radialGradient id="SVGID_5_" cx="-8.7197" cy="358.4512" r="11.2198" gradientTransform="matrix(0.7644 -0.4931 0.4645 0.6319 -140.1785 -211.4421)" gradientUnits="userSpaceOnUse">
			<stop  offset="0.4438" style="stop-color:#E3E3E3"/>
			<stop  offset="1" style="stop-color:#C9C9C9"/>
		</radialGradient>
		<path fill="url(#SVGID_5_)" d="M29.809,17.885c0,0-6.468-14.043-16.46-5.509c-9.216,7.873,1.921,15.659,3.865,17.757
			C19.161,32.23,32.22,23.373,29.809,17.885z"/>
		<path fill="#7D7D7D" d="M27.656,19.377c0,0-2.307-8.972-9.759-3.302c-7.451,5.667,1.204,10.898,2.671,12.543
			C22.041,30.262,29.662,23.532,27.656,19.377z"/>
	</g>
	
		<radialGradient id="SVGID_6_" cx="-511.8564" cy="122.0645" r="24.7451" gradientTransform="matrix(-1.0675 0 0 -0.8013 -499.2557 157.6871)" gradientUnits="userSpaceOnUse">
		<stop  offset="0.4438" style="stop-color:#E3E3E3"/>
		<stop  offset="1" style="stop-color:#C9C9C9"/>
	</radialGradient>
	<path fill="url(#SVGID_6_)" d="M50.283,74.224c25.606-0.601,35.825-34.331,31.029-43.677c-4.795-9.346-11.58-16.662-32.262-16.662
		c-20.68,0-20.908,5.254-30.194,15.112C9.569,38.852,24.675,74.824,50.283,74.224z"/>
	<g>
		
			<linearGradient id="SVGID_7_" gradientUnits="userSpaceOnUse" x1="-52.6914" y1="100.499" x2="-52.6914" y2="89.9156" gradientTransform="matrix(-0.8274 -0.004 -0.1032 0.984 16.2533 -29.5039)">
			<stop  offset="0" style="stop-color:#000000"/>
			<stop  offset="0.2069" style="stop-color:#040404"/>
			<stop  offset="0.3965" style="stop-color:#0E0F0F"/>
			<stop  offset="0.5795" style="stop-color:#212121"/>
			<stop  offset="0.7583" style="stop-color:#3A3B3C"/>
			<stop  offset="0.9325" style="stop-color:#5B5C5D"/>
			<stop  offset="1" style="stop-color:#6A6B6C"/>
		</linearGradient>
		<path fill="url(#SVGID_7_)" d="M40.056,64.807c-0.398,2.861,3.716,5.19,9.196,5.213c5.481,0.018,10.246-2.284,10.647-5.142
			c0.396-2.856-3.721-5.188-9.201-5.21C45.22,59.65,40.455,61.946,40.056,64.807z"/>
		
			<linearGradient id="SVGID_8_" gradientUnits="userSpaceOnUse" x1="-52.7358" y1="90.1563" x2="-52.7358" y2="96.6502" gradientTransform="matrix(-0.8274 -0.004 -0.1032 0.984 16.2533 -29.5039)">
			<stop  offset="0" style="stop-color:#8C8C8C"/>
			<stop  offset="0.1961" style="stop-color:#7A7A7A"/>
			<stop  offset="0.5908" style="stop-color:#4A4A4A"/>
			<stop  offset="1" style="stop-color:#131313"/>
		</linearGradient>
		<path fill="url(#SVGID_8_)" d="M41.922,63.72c-0.27,1.925,16.147,1.985,16.416,0.057c0.269-1.921-3.191-3.497-7.723-3.515
			C46.081,60.245,42.191,61.795,41.922,63.72z"/>
	</g>
	<g>
		<g>
			<path fill="#FFFFFF" d="M66.114,24.963c4.985,0,9.041,3.806,9.041,8.473c0,4.672-4.056,8.475-9.041,8.475
				c-4.991,0-9.046-3.803-9.046-8.475C57.068,28.769,61.123,24.963,66.114,24.963z"/>
			
				<linearGradient id="SVGID_9_" gradientUnits="userSpaceOnUse" x1="-18.54" y1="33.438" x2="1.1563" y2="33.438" gradientTransform="matrix(-1 0 0 1 57.4189 0)">
				<stop  offset="0" style="stop-color:#272C34"/>
				<stop  offset="1" style="stop-color:#292933"/>
			</linearGradient>
			<path fill="url(#SVGID_9_)" d="M56.263,33.437c0,5.088,4.416,9.227,9.852,9.227c5.429,0,9.845-4.139,9.845-9.227
				c0-5.085-4.416-9.224-9.845-9.224C60.679,24.212,56.263,28.351,56.263,33.437z M57.068,33.437c0-4.667,4.055-8.473,9.046-8.473
				c4.985,0,9.041,3.806,9.041,8.473c0,4.672-4.056,8.475-9.041,8.475C61.123,41.912,57.068,38.109,57.068,33.437z"/>
		</g>
		
			<radialGradient id="SVGID_10_" cx="14.1343" cy="33.4375" r="8.6133" gradientTransform="matrix(-1.0675 0 0 1 81.1993 0)" gradientUnits="userSpaceOnUse">
			<stop  offset="0" style="stop-color:#FFFFFF"/>
			<stop  offset="1" style="stop-color:#E5E5E5"/>
		</radialGradient>
		<path fill="url(#SVGID_10_)" d="M56.915,33.437c0,4.761,4.115,8.613,9.199,8.613c5.075,0,9.193-3.852,9.193-8.613
			c0-4.758-4.118-8.61-9.193-8.61C61.03,24.826,56.915,28.678,56.915,33.437z"/>
	</g>
	<g>
		<path fill="#FFFFFF" d="M34.03,26.705c3.944,0,7.155,3.013,7.155,6.705c0,3.697-3.211,6.704-7.155,6.704
			c-3.946,0-7.156-3.007-7.156-6.704C26.874,29.718,30.083,26.705,34.03,26.705z"/>
		
			<linearGradient id="SVGID_11_" gradientUnits="userSpaceOnUse" x1="15.5996" y1="33.4111" x2="31.1816" y2="33.4111" gradientTransform="matrix(-1 0 0 1 57.4189 0)">
			<stop  offset="0" style="stop-color:#272C34"/>
			<stop  offset="1" style="stop-color:#292933"/>
		</linearGradient>
		<path fill="url(#SVGID_11_)" d="M26.237,33.41c0,4.024,3.493,7.301,7.792,7.301c4.294,0,7.79-3.277,7.79-7.301
			c0-4.023-3.495-7.298-7.79-7.298C29.73,26.112,26.237,29.386,26.237,33.41z M26.874,33.41c0-3.692,3.21-6.705,7.156-6.705
			c3.944,0,7.155,3.013,7.155,6.705c0,3.697-3.211,6.704-7.155,6.704C30.083,40.114,26.874,37.106,26.874,33.41z"/>
	</g>
	
		<radialGradient id="SVGID_12_" cx="44.1875" cy="33.4111" r="6.8142" gradientTransform="matrix(-1.0675 0 0 1 81.1993 0)" gradientUnits="userSpaceOnUse">
		<stop  offset="0" style="stop-color:#FFFFFF"/>
		<stop  offset="1" style="stop-color:#E5E5E5"/>
	</radialGradient>
	<ellipse fill="url(#SVGID_12_)" cx="34.029" cy="33.41" rx="7.275" ry="6.814"/>
	<g>
		
			<linearGradient id="SVGID_13_" gradientUnits="userSpaceOnUse" x1="19.8433" y1="33.5396" x2="26.3628" y2="33.5396" gradientTransform="matrix(-1 0 0 1 57.4189 0)">
			<stop  offset="0" style="stop-color:#F3AF18"/>
			<stop  offset="1" style="stop-color:#CAA21B"/>
		</linearGradient>
		<circle fill="url(#SVGID_13_)" cx="34.316" cy="33.54" r="3.26"/>
		
			<radialGradient id="SVGID_14_" cx="23.1016" cy="33.54" r="2.3452" gradientTransform="matrix(-1 0 0 1 57.4189 0)" gradientUnits="userSpaceOnUse">
			<stop  offset="0" style="stop-color:#1F1600"/>
			<stop  offset="1" style="stop-color:#000000"/>
		</radialGradient>
		<circle fill="url(#SVGID_14_)" cx="34.317" cy="33.54" r="2.345"/>
		
			<radialGradient id="SVGID_15_" cx="289.9707" cy="292.3916" r="1.2485" gradientTransform="matrix(-0.6642 -0.4101 -0.5253 0.8509 379.3198 -97.4959)" gradientUnits="userSpaceOnUse">
			<stop  offset="0" style="stop-color:#FFFFFF"/>
			<stop  offset="1" style="stop-color:#E5E5E5"/>
		</radialGradient>
		<path fill="url(#SVGID_15_)" d="M32.3,31.871c-0.363,0.585-0.284,1.29,0.172,1.574c0.458,0.284,1.123,0.035,1.486-0.549
			c0.361-0.589,0.284-1.292-0.173-1.573C33.327,31.036,32.662,31.284,32.3,31.871z"/>
		
			<radialGradient id="SVGID_16_" cx="-206.4111" cy="-132.8506" r="0.6555" gradientTransform="matrix(-0.6444 0.4405 0.5644 0.8255 -22.0567 235.8591)" gradientUnits="userSpaceOnUse">
			<stop  offset="0" style="stop-color:#FFFFFF"/>
			<stop  offset="1" style="stop-color:#E5E5E5"/>
		</radialGradient>
		<path fill="url(#SVGID_16_)" d="M35.552,35.556c0.205,0.299,0.56,0.411,0.792,0.251c0.235-0.159,0.258-0.53,0.052-0.829
			c-0.205-0.3-0.558-0.414-0.792-0.253C35.371,34.883,35.348,35.256,35.552,35.556z"/>
		
			<radialGradient id="SVGID_17_" cx="-146.5527" cy="-311.7373" r="0.6555" gradientTransform="matrix(-0.478 0.3268 0.4186 0.6124 95.2145 274.4133)" gradientUnits="userSpaceOnUse">
			<stop  offset="0" style="stop-color:#FFFFFF"/>
			<stop  offset="1" style="stop-color:#E5E5E5"/>
		</radialGradient>
		<path fill="url(#SVGID_17_)" d="M34.46,35.826c0.151,0.223,0.414,0.307,0.588,0.188c0.173-0.119,0.191-0.394,0.039-0.615
			c-0.151-0.223-0.414-0.307-0.587-0.188C34.327,35.327,34.309,35.604,34.46,35.826z"/>
	</g>
	<g>
		
			<linearGradient id="SVGID_18_" gradientUnits="userSpaceOnUse" x1="-13.6211" y1="33.4375" x2="-3.7637" y2="33.4375" gradientTransform="matrix(-1 0 0 1 57.4189 0)">
			<stop  offset="0" style="stop-color:#F3AF18"/>
			<stop  offset="1" style="stop-color:#CAA21B"/>
		</linearGradient>
		<path fill="url(#SVGID_18_)" d="M61.183,33.437c0,2.726,2.207,4.928,4.932,4.928c2.719,0,4.926-2.202,4.926-4.928
			c0-2.719-2.207-4.926-4.926-4.926C63.39,28.511,61.183,30.717,61.183,33.437z"/>
		
			<radialGradient id="SVGID_19_" cx="-8.6914" cy="33.4385" r="3.5466" gradientTransform="matrix(-1 0 0 1 57.4189 0)" gradientUnits="userSpaceOnUse">
			<stop  offset="0" style="stop-color:#1F1600"/>
			<stop  offset="1" style="stop-color:#000000"/>
		</radialGradient>
		<path fill="url(#SVGID_19_)" d="M62.563,33.437c0,1.961,1.59,3.548,3.551,3.548c1.955,0,3.543-1.587,3.543-3.548
			c0-1.957-1.588-3.545-3.543-3.545C64.153,29.892,62.563,31.479,62.563,33.437z"/>
		
			<radialGradient id="SVGID_20_" cx="256.4434" cy="275.416" r="1.8877" gradientTransform="matrix(-0.6642 -0.4101 -0.5253 0.8509 379.3198 -97.4959)" gradientUnits="userSpaceOnUse">
			<stop  offset="0" style="stop-color:#FFFFFF"/>
			<stop  offset="1" style="stop-color:#E5E5E5"/>
		</radialGradient>
		<path fill="url(#SVGID_20_)" d="M63.062,30.915c-0.549,0.884-0.433,1.951,0.261,2.38c0.693,0.427,1.698,0.051,2.245-0.832
			c0.549-0.888,0.431-1.954-0.261-2.381C64.613,29.653,63.607,30.025,63.062,30.915z"/>
		
			<radialGradient id="SVGID_21_" cx="-240.3691" cy="-113.7832" r="0.9912" gradientTransform="matrix(-0.6444 0.4405 0.5644 0.8255 -22.0567 235.8591)" gradientUnits="userSpaceOnUse">
			<stop  offset="0" style="stop-color:#FFFFFF"/>
			<stop  offset="1" style="stop-color:#E5E5E5"/>
		</radialGradient>
		<path fill="url(#SVGID_21_)" d="M67.98,36.486c0.309,0.454,0.845,0.623,1.196,0.38c0.355-0.24,0.391-0.803,0.08-1.255
			c-0.309-0.451-0.845-0.625-1.198-0.381C67.706,35.472,67.67,36.032,67.98,36.486z"/>
		
			<radialGradient id="SVGID_22_" cx="-191.2837" cy="-286.2998" r="0.9924" gradientTransform="matrix(-0.478 0.3268 0.4186 0.6124 95.2145 274.4133)" gradientUnits="userSpaceOnUse">
			<stop  offset="0" style="stop-color:#FFFFFF"/>
			<stop  offset="1" style="stop-color:#E5E5E5"/>
		</radialGradient>
		<path fill="url(#SVGID_22_)" d="M66.328,36.896c0.229,0.337,0.628,0.463,0.89,0.285c0.263-0.18,0.287-0.596,0.06-0.932
			c-0.23-0.335-0.629-0.463-0.889-0.285C66.128,36.142,66.099,36.56,66.328,36.896z"/>
	</g>
</g>
</svg>
