<?xml version="1.0" encoding="utf-8"?>
<!-- Generator: Adobe Illustrator 14.0.0, SVG Export Plug-In . SVG Version: 6.00 Build 43363)  -->
<!DOCTYPE svg PUBLIC "-//W3C//DTD SVG 1.1//EN" "http://www.w3.org/Graphics/SVG/1.1/DTD/svg11.dtd">
<svg version="1.1" id="图层_1" xmlns="http://www.w3.org/2000/svg" xmlns:xlink="http://www.w3.org/1999/xlink" x="0px" y="0px"
	 width="50px" height="50px" viewBox="0 0 50 50" enable-background="new 0 0 50 50" xml:space="preserve">
<g>
	
		<radialGradient id="SVGID_1_" cx="-500.0693" cy="-326.1685" r="6.364" gradientTransform="matrix(-1.0746 0 0 1.0746 -500.8592 380.4032)" gradientUnits="userSpaceOnUse">
		<stop  offset="0" style="stop-color:#B271AE"/>
		<stop  offset="1" style="stop-color:#941B81"/>
	</radialGradient>
	<path fill="url(#SVGID_1_)" d="M40.517,36.133c0,0,1.605-14.177-0.535-14.647c-2.142-0.467-8.159,16.999-8.159,16.999
		L40.517,36.133z"/>
	<path fill="#FFDD00" d="M39.936,21.487c-0.018-0.001-0.035,0.003-0.051,0.003c-0.044-0.003-0.094,0.008-0.14,0.016
		c-2.315,0.702-7.923,16.978-7.923,16.978l2.78-0.752l2.304-0.682l-1.235-3.289l3.043-0.555l-1.452-3.951l2.592-1.322l-1.167-3.676
		l1.56-0.908L39.936,21.487z"/>
	<g>
		
			<linearGradient id="SVGID_2_" gradientUnits="userSpaceOnUse" x1="-472.6406" y1="-330.1851" x2="-473.0552" y2="-327.9943" gradientTransform="matrix(1.3807 -0.1692 0.1692 1.3807 743.8349 408.5347)">
			<stop  offset="0" style="stop-color:#EC1C24"/>
			<stop  offset="0.3955" style="stop-color:#C01115"/>
			<stop  offset="0.7922" style="stop-color:#990709"/>
			<stop  offset="1" style="stop-color:#8A0304"/>
		</linearGradient>
		<path fill="url(#SVGID_2_)" d="M38.933,27.215l-1.126-3.274c-2.596,4.712-5.984,14.544-5.984,14.544l2.78-0.752l0.614-0.18
			l0.768-1.221l-1.235-3.289l2.85-0.559l-1.724-3.852L38.933,27.215z"/>
		<path fill="#EC1C24" d="M37.834,23.894l1.519-0.9l-0.166-1.089C38.782,22.318,38.323,23.009,37.834,23.894z"/>
	</g>
	
		<radialGradient id="SVGID_3_" cx="-486.9497" cy="-352.832" r="3.1393" gradientTransform="matrix(1.6939 -0.2076 0.2016 1.6441 911.5494 482.1129)" gradientUnits="userSpaceOnUse">
		<stop  offset="0" style="stop-color:#B271AE"/>
		<stop  offset="1" style="stop-color:#A2238D"/>
	</radialGradient>
	<path fill="url(#SVGID_3_)" d="M23.85,8.008c0.457,3.728-2.046,7.1-5.589,7.534c-3.545,0.435-6.788-2.234-7.244-5.961
		c-0.458-3.726,2.046-7.1,5.59-7.534C20.149,1.613,23.394,4.282,23.85,8.008z"/>
	
		<linearGradient id="SVGID_4_" gradientUnits="userSpaceOnUse" x1="208.248" y1="-133.8516" x2="208.248" y2="-138.4815" gradientTransform="matrix(0.9649 0 0 0.9649 -172.541 170.0034)">
		<stop  offset="0" style="stop-color:#7C0A6B"/>
		<stop  offset="1" style="stop-color:#A2238D"/>
	</linearGradient>
	<path fill="url(#SVGID_4_)" d="M15.275,36.57c0,0,19.912-4.854,25.165-0.453c5.256,4.402-10.361,8.506-10.361,8.506L16.617,44.85
		L15.275,36.57z"/>
	<path fill="#FFDD00" d="M40.439,36.117c-3.854-3.229-15.59-1.479-21.572-0.313l0.199,1.289l4.067,1.352l3.266-2.361l3.009,2.127
		l3.283-2.68l2.898,2.166l5.111-1.332C40.616,36.281,40.538,36.199,40.439,36.117z"/>
	
		<linearGradient id="SVGID_5_" gradientUnits="userSpaceOnUse" x1="203.8955" y1="-138.7397" x2="197.3038" y2="-138.3362" gradientTransform="matrix(0.9649 0 0 0.9649 -172.541 170.0034)">
		<stop  offset="0" style="stop-color:#EC1C24"/>
		<stop  offset="0.3955" style="stop-color:#C01115"/>
		<stop  offset="0.7922" style="stop-color:#990709"/>
		<stop  offset="1" style="stop-color:#8A0304"/>
	</linearGradient>
	<path fill="url(#SVGID_5_)" d="M26.197,35.275l3.254,1.98l3.037-2.533l2.897,2.168l4.488-1.174
		c-4.33-2.67-15.292-1.023-21.007,0.088l0.078,0.504l3.984,1.33L26.197,35.275z"/>
	
		<linearGradient id="SVGID_6_" gradientUnits="userSpaceOnUse" x1="214.9023" y1="-140.0049" x2="218.1976" y2="-137.1131" gradientTransform="matrix(0.9649 0 0 0.9649 -172.541 170.0034)">
		<stop  offset="0" style="stop-color:#EC1C24"/>
		<stop  offset="0.3955" style="stop-color:#C01115"/>
		<stop  offset="0.7922" style="stop-color:#990709"/>
		<stop  offset="1" style="stop-color:#8A0304"/>
	</linearGradient>
	<path fill="url(#SVGID_6_)" d="M31.448,35.588l1.04-0.865l2.897,2.168l4.488-1.174c-1.886-1.162-5.031-1.508-8.452-1.434
		L31.448,35.588z"/>
	
		<radialGradient id="SVGID_7_" cx="190.2998" cy="-151.8667" r="13.9347" gradientTransform="matrix(0.9649 0 0 0.9649 -172.541 170.0034)" gradientUnits="userSpaceOnUse">
		<stop  offset="0" style="stop-color:#B271AE"/>
		<stop  offset="1" style="stop-color:#A2238D"/>
	</radialGradient>
	<path fill="url(#SVGID_7_)" d="M18.309,21.872c0,0-2.384,14.179,5.975,18.419l-10.479,1.283c0,0-10.645-8.773-1.209-19.699
		c2.084-2.415,0.261-7.041,0.261-7.041l8.083-0.179L18.309,21.872z"/>
	<path fill="#7C0A6B" d="M13.583,19.042c1.254,0.403,3.332,0.773,5.731,0.073l1.626-4.459l-8.083,0.179
		C12.856,14.835,13.68,16.936,13.583,19.042z"/>
	<path fill="#FFDD00" d="M18.309,21.872l2.631-7.216l-1.91,0.043l-3.001,3.726l1.444,2.329l-2.722,2.927l1.589,3.698l-2.573,3.777
		l3.56,2.576l-1.97,3.311l6.016,3.604l2.912-0.355C15.925,36.051,18.309,21.872,18.309,21.872z"/>
	<path fill="#FCB813" d="M16.028,18.425l0.671,1.083c0.805-0.007,1.685-0.122,2.614-0.393l1.626-4.459l-1.91,0.043L16.028,18.425z"
		/>
	
		<linearGradient id="SVGID_8_" gradientUnits="userSpaceOnUse" x1="-122.978" y1="-272.2402" x2="-122.3322" y2="-271.0626" gradientTransform="matrix(2.7031 -0.3314 0.3314 2.7031 446.2519 727.8802)">
		<stop  offset="0" style="stop-color:#EC1C24"/>
		<stop  offset="0.3955" style="stop-color:#C01115"/>
		<stop  offset="0.7922" style="stop-color:#990709"/>
		<stop  offset="1" style="stop-color:#8A0304"/>
	</linearGradient>
	<path fill="url(#SVGID_8_)" d="M18.309,21.872l2.631-7.216l-1.063,0.022l-2.924,3.633l1.444,2.328l-2.721,2.928l1.586,3.697
		l-2.571,3.777l3.559,2.576l-1.968,3.311l6.014,3.605l1.988-0.244C15.925,36.051,18.309,21.872,18.309,21.872z"/>
	<path fill="#B9131A" d="M16.952,18.312l0.702,1.133c0.531-0.06,1.085-0.162,1.66-0.33l1.626-4.459l-1.063,0.022L16.952,18.312z"/>
	<path fill="#A2238D" d="M9.681,16.48c0,0,0.688,0.93,1.357,1.096c1.094,0.273,2.099-0.491,3.315,0.071
		c2.569,1.189,6.071,1.151,7.841-1.064c1.765-2.213-0.93-1.924-0.93-1.924l-6.356,0.698L9.681,16.48z"/>
	
		<ellipse transform="matrix(0.9926 -0.1216 0.1216 0.9926 -0.7701 2.074)" fill="#7C0A6B" cx="16.612" cy="7.348" rx="1.693" ry="2.455"/>
	
		<ellipse transform="matrix(0.9926 -0.1218 0.1218 0.9926 -0.8248 2.0886)" fill="#B271AE" cx="16.667" cy="7.789" rx="1.693" ry="2.456"/>
	
		<ellipse transform="matrix(0.9926 -0.1212 0.1212 0.9926 -0.8476 1.6392)" fill="#7C0A6B" cx="13.047" cy="7.785" rx="1.559" ry="2.454"/>
	
		<ellipse transform="matrix(0.9926 -0.1216 0.1216 0.9926 -0.9028 1.6538)" fill="#B271AE" cx="13.102" cy="8.226" rx="1.558" ry="2.456"/>
	
		<radialGradient id="SVGID_9_" cx="-116.4424" cy="239.1563" r="2.2994" gradientTransform="matrix(1.6965 -0.2079 0.2079 1.6965 160.2996 -422.9912)" gradientUnits="userSpaceOnUse">
		<stop  offset="0.3034" style="stop-color:#FFFFFF"/>
		<stop  offset="0.4322" style="stop-color:#FAFAFA"/>
		<stop  offset="0.5953" style="stop-color:#EAEAEB"/>
		<stop  offset="0.7768" style="stop-color:#D0D1D3"/>
		<stop  offset="0.9705" style="stop-color:#ACAEB1"/>
		<stop  offset="1" style="stop-color:#A6A8AB"/>
	</radialGradient>
	<path fill="url(#SVGID_9_)" d="M14.622,7.829c0.166,1.347-0.394,2.522-1.247,2.627c-0.854,0.105-1.68-0.901-1.845-2.249
		c-0.165-1.345,0.393-2.521,1.248-2.626C13.63,5.477,14.457,6.482,14.622,7.829z"/>
	
		<radialGradient id="SVGID_10_" cx="-116.6631" cy="239.2959" r="2.5215" gradientTransform="matrix(1.8433 -0.226 0.2079 1.6965 181.0072 -426.3683)" gradientUnits="userSpaceOnUse">
		<stop  offset="0.3034" style="stop-color:#FFFFFF"/>
		<stop  offset="0.4322" style="stop-color:#FAFAFA"/>
		<stop  offset="0.5953" style="stop-color:#EAEAEB"/>
		<stop  offset="0.7768" style="stop-color:#D0D1D3"/>
		<stop  offset="0.9705" style="stop-color:#ACAEB1"/>
		<stop  offset="1" style="stop-color:#A6A8AB"/>
	</radialGradient>
	<path fill="url(#SVGID_10_)" d="M18.321,7.376c0.164,1.346-0.455,2.529-1.382,2.643c-0.927,0.113-1.814-0.885-1.979-2.231
		c-0.165-1.346,0.454-2.529,1.381-2.644C17.269,5.03,18.155,6.03,18.321,7.376z"/>
	<path fill="#7C0A6B" d="M23.255,11.952c0,0-8.959-1.962-12.193,0.183c-3.233,2.144-2.354,4.687-0.588,4.82
		c1.765,0.132,2.674-0.647,4.62,0.255C19.575,19.292,25.942,13.895,23.255,11.952z"/>
	
		<radialGradient id="SVGID_11_" cx="188.3564" cy="-163.7827" r="9.2283" gradientTransform="matrix(0.9649 0 0 0.9649 -172.541 170.0034)" gradientUnits="userSpaceOnUse">
		<stop  offset="0" style="stop-color:#B271AE"/>
		<stop  offset="1" style="stop-color:#A2238D"/>
	</radialGradient>
	<path fill="url(#SVGID_11_)" d="M15.018,16.934c3.879,1.801,9.16-1.994,8.776-4.31c-0.099-0.252-0.273-0.479-0.54-0.672
		c0,0-8.19-2.361-12.193,0.183c-1.806,1.147-2.313,2.486-2.136,3.44c0.225,0.626,0.78,1.052,1.474,1.103
		C12.162,16.812,13.073,16.03,15.018,16.934z"/>
	
		<radialGradient id="SVGID_12_" cx="200.0957" cy="-162.9023" r="2.8909" gradientTransform="matrix(0.9649 0 0 0.9649 -172.541 170.0034)" gradientUnits="userSpaceOnUse">
		<stop  offset="0" style="stop-color:#B271AE"/>
		<stop  offset="1" style="stop-color:#A2238D"/>
	</radialGradient>
	<circle fill="url(#SVGID_12_)" cx="21.995" cy="14.108" r="2.532"/>
	
		<radialGradient id="SVGID_13_" cx="208.333" cy="-149.7256" r="25.933" gradientTransform="matrix(0.9649 0 0 0.9649 -172.541 170.0034)" gradientUnits="userSpaceOnUse">
		<stop  offset="0" style="stop-color:#B271AE"/>
		<stop  offset="0.8539" style="stop-color:#941B81"/>
		<stop  offset="1" style="stop-color:#A2238D"/>
	</radialGradient>
	<path fill="url(#SVGID_13_)" d="M39.92,45.283c-8.681,5.229-27.413,1.988-29.704-2.012c-2.793-4.873-0.489-7.227-0.489-7.227
		s6.514,3.787,14.775,3.34C35.723,38.777,36.135,35,40.037,35.508C43.623,35.979,45.066,42.18,39.92,45.283z"/>
	<path fill="#FFDD00" d="M8.847,39.207l2.65,3.795l4.064-2.299l4.048,3.869l5.147-3.092l3.816,3.074l4.037-3.621l4.654,1.41
		l1.483-3.936l4.375,0.201c-0.244-1.012-0.781-1.887-1.521-2.451c-0.007-0.004-0.011-0.01-0.016-0.014
		c-0.137-0.104-0.283-0.193-0.435-0.273c-0.021-0.012-0.045-0.025-0.068-0.035c-0.146-0.076-0.3-0.139-0.459-0.191
		c-0.024-0.008-0.049-0.016-0.073-0.021c-0.166-0.051-0.337-0.092-0.513-0.115c-3.902-0.508-4.314,3.27-15.535,3.877
		c-8.262,0.447-14.775-3.34-14.775-3.34S8.713,37.082,8.847,39.207z"/>
	<path fill="#EC1C24" d="M8.853,38.369l2.519,3.604l4.063-2.297l4.466,3.859l4.729-3.084l3.819,3.078l4.035-3.623l4.656,1.41
		l1.481-3.938l4.117,0.191c-0.41-0.82-1.04-1.471-1.827-1.814c-0.024-0.012-0.046-0.023-0.071-0.031
		c-0.1-0.039-0.202-0.076-0.306-0.107c-0.033-0.008-0.066-0.02-0.1-0.029c-0.129-0.033-0.262-0.063-0.397-0.08
		c-3.902-0.508-4.314,3.27-15.535,3.877c-8.262,0.447-14.775-3.34-14.775-3.34S8.98,36.811,8.853,38.369z"/>
	
		<radialGradient id="SVGID_14_" cx="195.0557" cy="-168.9609" r="0.5151" gradientTransform="matrix(0.9649 0 0 0.9649 -172.541 170.0034)" gradientUnits="userSpaceOnUse">
		<stop  offset="0" style="stop-color:#FFFFFF"/>
		<stop  offset="0.0582" style="stop-color:#DAD9D9"/>
		<stop  offset="0.1353" style="stop-color:#AFAEAE"/>
		<stop  offset="0.2184" style="stop-color:#898788"/>
		<stop  offset="0.3066" style="stop-color:#6A6768"/>
		<stop  offset="0.4013" style="stop-color:#504D4D"/>
		<stop  offset="0.5049" style="stop-color:#3C3839"/>
		<stop  offset="0.622" style="stop-color:#2E2A2B"/>
		<stop  offset="0.764" style="stop-color:#252223"/>
		<stop  offset="1" style="stop-color:#231F20"/>
	</radialGradient>
	<circle fill="url(#SVGID_14_)" cx="15.849" cy="7.183" r="0.533"/>
	
		<radialGradient id="SVGID_15_" cx="200.2275" cy="-169.6812" r="0.5151" gradientTransform="matrix(0.9649 0 0 0.9649 -179.7114 171.0015)" gradientUnits="userSpaceOnUse">
		<stop  offset="0" style="stop-color:#FFFFFF"/>
		<stop  offset="0.0582" style="stop-color:#DAD9D9"/>
		<stop  offset="0.1353" style="stop-color:#AFAEAE"/>
		<stop  offset="0.2184" style="stop-color:#898788"/>
		<stop  offset="0.3066" style="stop-color:#6A6768"/>
		<stop  offset="0.4013" style="stop-color:#504D4D"/>
		<stop  offset="0.5049" style="stop-color:#3C3839"/>
		<stop  offset="0.622" style="stop-color:#2E2A2B"/>
		<stop  offset="0.764" style="stop-color:#252223"/>
		<stop  offset="1" style="stop-color:#231F20"/>
	</radialGradient>
	<circle fill="url(#SVGID_15_)" cx="13.67" cy="7.487" r="0.532"/>
</g>
</svg>
