<?xml version="1.0" encoding="utf-8"?>
<!-- Generator: Adobe Illustrator 14.0.0, SVG Export Plug-In . SVG Version: 6.00 Build 43363)  -->
<!DOCTYPE svg PUBLIC "-//W3C//DTD SVG 1.1//EN" "http://www.w3.org/Graphics/SVG/1.1/DTD/svg11.dtd">
<svg version="1.1" id="图层_1" xmlns="http://www.w3.org/2000/svg" xmlns:xlink="http://www.w3.org/1999/xlink" x="0px" y="0px"
	 width="50px" height="50px" viewBox="0 0 50 50" enable-background="new 0 0 50 50" xml:space="preserve">
<g>
	
		<linearGradient id="SVGID_1_" gradientUnits="userSpaceOnUse" x1="37.1572" y1="-299.4912" x2="34.3416" y2="-299.2239" gradientTransform="matrix(1.0324 0 0 1.0324 -0.5348 356.472)">
		<stop  offset="0" style="stop-color:#FCD0AF"/>
		<stop  offset="0.2097" style="stop-color:#F6C6A5"/>
		<stop  offset="0.5666" style="stop-color:#E5AB8A"/>
		<stop  offset="1" style="stop-color:#CB8361"/>
	</linearGradient>
	<path fill="url(#SVGID_1_)" d="M36.137,47.744c0,0,0.49-0.066,0.818,0.164c0.475,0.332,1.031,0.001,0.613-0.508
		c-0.42-0.506-2.053-0.728-2.449-0.563C34.721,47,36.137,47.744,36.137,47.744z"/>
	
		<linearGradient id="SVGID_2_" gradientUnits="userSpaceOnUse" x1="36.6289" y1="-299.1313" x2="33.6563" y2="-299.5245" gradientTransform="matrix(1.0324 0 0 1.0324 -0.5348 356.472)">
		<stop  offset="0" style="stop-color:#FCD0AF"/>
		<stop  offset="0.2097" style="stop-color:#F6C6A5"/>
		<stop  offset="0.5666" style="stop-color:#E5AB8A"/>
		<stop  offset="1" style="stop-color:#CB8361"/>
	</linearGradient>
	<path fill="url(#SVGID_2_)" d="M35.994,47.933c0,0,0.488-0.068,0.822,0.165c0.473,0.329,1.027,0.001,0.611-0.509
		c-0.418-0.508-1.684-0.867-2.082-0.703C34.949,47.049,35.994,47.933,35.994,47.933z"/>
	
		<radialGradient id="SVGID_3_" cx="-189.1265" cy="139.7822" r="2.9766" gradientTransform="matrix(0.6092 0.1037 0.1037 -0.6092 134.7113 153.7794)" gradientUnits="userSpaceOnUse">
		<stop  offset="0.2472" style="stop-color:#FDE6D3"/>
		<stop  offset="1" style="stop-color:#FCD0AF"/>
	</radialGradient>
	<path fill="url(#SVGID_3_)" d="M34.996,45.955c0,0,0.162,0.926,1.156,1.051c0.605,0.075,1.115,0.971,0.688,1.303
		c-0.381,0.295-0.377,0.042-0.826-0.333c-0.289-0.243-0.689-0.17-1.102-0.126c-0.471,0.046-0.822-0.436-1.271-0.399
		c-0.447,0.032-1.078,0.497-1.27,0.328c-0.176-0.157-0.25-0.851,1.301-1.811c0.146-0.091,0.133-0.435,0.307-0.548
		C34.385,45.163,34.996,45.955,34.996,45.955z"/>
	
		<linearGradient id="SVGID_4_" gradientUnits="userSpaceOnUse" x1="-185.7803" y1="-269.126" x2="-190.9226" y2="-269.1975" gradientTransform="matrix(0.8379 0.6032 0.6032 -0.8379 348.8717 -72.6102)">
		<stop  offset="0.0056" style="stop-color:#7B340F"/>
		<stop  offset="1" style="stop-color:#541000"/>
	</linearGradient>
	<path fill="url(#SVGID_4_)" d="M26.242,35.169c0,0,5.041,1.895,7.301,4.992c1.949,2.677,1.924,4.771,1.488,5.985l-0.338-0.372
		l-0.381,0.286l-0.24-0.425l-0.4,0.332c0,0,0.494-3.11-2.549-5.905c-3.443-3.161-5.6-2.246-5.6-2.246L26.242,35.169z"/>
	
		<linearGradient id="SVGID_5_" gradientUnits="userSpaceOnUse" x1="11.9277" y1="-306.4678" x2="15.4183" y2="-308.1161" gradientTransform="matrix(1.0324 0 0 1.0324 0.0414 356.5863)">
		<stop  offset="0.0056" style="stop-color:#7B340F"/>
		<stop  offset="1" style="stop-color:#541000"/>
	</linearGradient>
	<path fill="url(#SVGID_5_)" d="M22.493,35.691c0,0-5.352-0.596-8.77,1.143c-2.95,1.502-3.875,3.38-4.038,4.662l0.468-0.18
		l0.213,0.428l0.405-0.271l0.206,0.479c0,0,0.969-2.998,4.949-4.11c4.501-1.258,6.012,0.535,6.012,0.535L22.493,35.691z"/>
	<g>
		<path fill="#FCD0AF" d="M20.865,8.417c0,0,0.463-2.336-0.901-3.313c-1.286-0.919-2.219-2.672-1.523-3.2
			c0.696-0.529,1.294-1.008,1.839-0.47c0.523,0.516,0.429,1.36,1.431,2.089c0.272,0.199,0.648,0.438,1.273,0.73
			c0.53,0.246,0.743,1.017,0.329,1.622c-0.61,0.896-0.492,2.283-1.183,3.156C20.935,10.539,20.865,8.417,20.865,8.417z"/>
		
			<linearGradient id="SVGID_6_" gradientUnits="userSpaceOnUse" x1="-150.2642" y1="-277.7095" x2="-152.147" y2="-279.2727" gradientTransform="matrix(-0.9378 -0.4318 0.4318 -0.9378 2.666 -311.3604)">
			<stop  offset="0.0056" style="stop-color:#7B340F"/>
			<stop  offset="1" style="stop-color:#541000"/>
		</linearGradient>
		<path fill="url(#SVGID_6_)" d="M24.447,18.44c0,0-3.628-2.475-3.816-7.128c-0.025-0.624,0.055-1.871,0.137-2.626
			c0.015-0.135-0.429-0.559-0.682-0.942c0.123,0.035,0.556,0.241,0.828,0.416c0.127-0.127,0.198-0.302,0.327-0.462l0.231,0.48
			l0.31-0.512l0.296,0.482l0.255-0.414c0,0,0.16,0.129,0.272,0.272c0.127-0.063,0.285-0.031,0.685-0.237
			c-0.496,0.557-0.724,0.807-0.751,0.939c-0.156,0.751-0.627,2.076-0.329,3.113c0.284,0.988,0.446,3.78,3.465,4.662
			C26.617,16.759,24.447,18.44,24.447,18.44z"/>
		
			<radialGradient id="SVGID_7_" cx="-306.0874" cy="-278.5586" r="0.3763" gradientTransform="matrix(-0.575 -0.5782 0.5782 -0.575 3.0657 -334.8635)" gradientUnits="userSpaceOnUse">
			<stop  offset="0.2472" style="stop-color:#FDE6D3"/>
			<stop  offset="1" style="stop-color:#FCD0AF"/>
		</radialGradient>
		<path fill="url(#SVGID_7_)" d="M18.61,2.98c0,0-0.667-0.513-0.53-0.896c0.139-0.384,1.132-0.418,1.286,0.222"/>
		
			<radialGradient id="SVGID_8_" cx="-305.9771" cy="-278.0054" r="0.4317" gradientTransform="matrix(-0.575 -0.5782 0.5782 -0.575 3.0657 -334.8635)" gradientUnits="userSpaceOnUse">
			<stop  offset="0.2472" style="stop-color:#FDE6D3"/>
			<stop  offset="1" style="stop-color:#FCD0AF"/>
		</radialGradient>
		<path fill="url(#SVGID_8_)" d="M18.88,2.692c0,0-0.667-0.513-0.53-0.896c0.138-0.384,1.131-0.418,1.284,0.222"/>
		
			<radialGradient id="SVGID_9_" cx="-306.0322" cy="-277.4521" r="0.4756" gradientTransform="matrix(-0.575 -0.5782 0.5782 -0.575 3.0657 -334.8635)" gradientUnits="userSpaceOnUse">
			<stop  offset="0.2472" style="stop-color:#FDE6D3"/>
			<stop  offset="1" style="stop-color:#FCD0AF"/>
		</radialGradient>
		<path fill="url(#SVGID_9_)" d="M19.251,2.419c0,0-0.667-0.513-0.528-0.897c0.137-0.383,1.13-0.418,1.283,0.223"/>
		
			<radialGradient id="SVGID_10_" cx="197.5518" cy="2.999" r="0.8276" gradientTransform="matrix(-0.788 -0.2098 0.2098 -0.788 174.2601 45.086)" gradientUnits="userSpaceOnUse">
			<stop  offset="0.2472" style="stop-color:#FDE6D3"/>
			<stop  offset="1" style="stop-color:#FCD0AF"/>
		</radialGradient>
		<path fill="url(#SVGID_10_)" d="M19.594,2.259c0,0-0.667-0.514-0.529-0.897c0.138-0.382,1.132-0.417,1.284,0.223"/>
	</g>
	<g>
		<path fill="#FCD0AF" d="M37.242,14.784c0,0,1.295-2.001,2.955-1.751c1.561,0.234,3.451-0.374,3.32-1.238
			c-0.131-0.864-0.229-1.626-0.994-1.618c-0.734,0.006-1.256,0.677-2.482,0.504c-0.332-0.046-0.768-0.136-1.42-0.362
			c-0.555-0.192-1.242,0.214-1.367,0.936c-0.186,1.067-1.236,1.981-1.348,3.089C35.717,16.259,37.242,14.784,37.242,14.784z"/>
		
			<linearGradient id="SVGID_11_" gradientUnits="userSpaceOnUse" x1="-158.894" y1="-277.1602" x2="-160.777" y2="-278.7235" gradientTransform="matrix(0.9738 0.3428 0.3428 -0.9738 280.9542 -198.5596)">
			<stop  offset="0.0056" style="stop-color:#7B340F"/>
			<stop  offset="1" style="stop-color:#541000"/>
		</linearGradient>
		<path fill="url(#SVGID_11_)" d="M27.695,19.484c0,0,4.326,0.75,7.701-2.459c0.451-0.43,1.264-1.38,1.73-1.982
			c0.084-0.106,0.697-0.102,1.146-0.202c-0.113-0.06-0.566-0.214-0.885-0.275c-0.004-0.182,0.068-0.356,0.086-0.561l-0.498,0.183
			l0.133-0.583l-0.547,0.14l0.104-0.475c0,0-0.203-0.02-0.383,0.007c-0.047-0.134-0.186-0.222-0.326-0.648
			c-0.033,0.745-0.043,1.084-0.115,1.198c-0.412,0.646-0.996,1.926-1.932,2.462c-0.893,0.512-2.951,2.404-5.732,0.937
			C27.309,16.768,27.695,19.484,27.695,19.484z"/>
		
			<radialGradient id="SVGID_12_" cx="-316.1611" cy="-275.1631" r="0.3762" gradientTransform="matrix(0.8153 -0.0149 -0.0149 -0.8153 297.1786 -216.7158)" gradientUnits="userSpaceOnUse">
			<stop  offset="0.2472" style="stop-color:#FDE6D3"/>
			<stop  offset="1" style="stop-color:#FCD0AF"/>
		</radialGradient>
		<path fill="url(#SVGID_12_)" d="M42.648,12.45c0,0,0.834,0.095,1.004-0.275c0.166-0.372-0.521-1.088-1.078-0.734"/>
		
			<radialGradient id="SVGID_13_" cx="-316.0508" cy="-274.6099" r="0.4319" gradientTransform="matrix(0.8153 -0.0149 -0.0149 -0.8153 297.1786 -216.7158)" gradientUnits="userSpaceOnUse">
			<stop  offset="0.2472" style="stop-color:#FDE6D3"/>
			<stop  offset="1" style="stop-color:#FCD0AF"/>
		</radialGradient>
		<path fill="url(#SVGID_13_)" d="M42.654,12.055c0,0,0.836,0.096,1.004-0.275c0.168-0.372-0.521-1.087-1.076-0.735"/>
		
			<radialGradient id="SVGID_14_" cx="-316.1064" cy="-274.0571" r="0.4756" gradientTransform="matrix(0.8153 -0.0149 -0.0149 -0.8153 297.1786 -216.7158)" gradientUnits="userSpaceOnUse">
			<stop  offset="0.2472" style="stop-color:#FDE6D3"/>
			<stop  offset="1" style="stop-color:#FCD0AF"/>
		</radialGradient>
		<path fill="url(#SVGID_14_)" d="M42.578,11.601c0,0,0.836,0.095,1.002-0.276c0.17-0.371-0.52-1.087-1.076-0.733"/>
		
			<radialGradient id="SVGID_15_" cx="186.7529" cy="0.8623" r="0.8284" gradientTransform="matrix(0.7118 0.3979 0.3979 -0.7118 -89.8229 -62.8689)" gradientUnits="userSpaceOnUse">
			<stop  offset="0.2472" style="stop-color:#FDE6D3"/>
			<stop  offset="1" style="stop-color:#FCD0AF"/>
		</radialGradient>
		<path fill="url(#SVGID_15_)" d="M42.443,11.248c0,0,0.836,0.095,1.004-0.276c0.168-0.372-0.521-1.087-1.078-0.734"/>
	</g>
	
		<radialGradient id="SVGID_16_" cx="23.2783" cy="-328.4292" r="6.8091" gradientTransform="matrix(1.0324 0 0 1.0324 0.0414 356.5863)" gradientUnits="userSpaceOnUse">
		<stop  offset="0" style="stop-color:#7B340F"/>
		<stop  offset="1" style="stop-color:#5E1700"/>
	</radialGradient>
	<path fill="url(#SVGID_16_)" d="M22.475,24.308c0,0-1.46-6.854,1.695-8.497c2.302-1.195,6.24-0.11,6.087,3.468
		c-0.164,3.791-5.114,6.122-5.114,6.122L22.475,24.308z"/>
	
		<radialGradient id="SVGID_17_" cx="-127.4849" cy="-126.0366" r="1.9695" gradientTransform="matrix(1.1919 0 0 1.1919 179.328 167.6424)" gradientUnits="userSpaceOnUse">
		<stop  offset="0" style="stop-color:#F59695"/>
		<stop  offset="0.2707" style="stop-color:#F7A79C"/>
		<stop  offset="1" style="stop-color:#FCD0AF"/>
	</radialGradient>
	<path fill="url(#SVGID_17_)" d="M29.932,17.49c-0.877-1.905-3.324-2.519-5.162-1.925c-0.173,0.328-0.273,0.693-0.273,1.08
		c0,1.391,1.254,2.517,2.8,2.517C28.512,19.161,29.545,18.465,29.932,17.49z"/>
	<g>
		
			<radialGradient id="SVGID_18_" cx="-3.3721" cy="-170.064" r="10.2155" gradientTransform="matrix(0.3738 -0.4597 0.4597 0.3738 106.8617 86.979)" gradientUnits="userSpaceOnUse">
			<stop  offset="0.2472" style="stop-color:#FDE6D3"/>
			<stop  offset="1" style="stop-color:#FCD0AF"/>
		</radialGradient>
		<path fill="url(#SVGID_18_)" d="M29.525,29.19c0.115-1.066-0.5-2.227-0.951-2.559c-1.438-1.058-1.023-2.988,0.123-3.986
			c1.285-1.117,2.879-0.91,3.621-0.687c2.629,0.789,3.717,4.364,3.061,6.805c-0.648,2.421-2.701,4.888-4.936,3.491
			C29.357,31.577,29.346,30.856,29.525,29.19z"/>
		
			<radialGradient id="SVGID_19_" cx="1.0947" cy="-155.0615" r="14.2968" gradientTransform="matrix(0.3738 -0.4597 0.4597 0.3738 106.8617 86.979)" gradientUnits="userSpaceOnUse">
			<stop  offset="0" style="stop-color:#EDB38F"/>
			<stop  offset="0.4109" style="stop-color:#EBB18D"/>
			<stop  offset="0.5878" style="stop-color:#E5AA86"/>
			<stop  offset="0.7197" style="stop-color:#DA9D79"/>
			<stop  offset="0.8294" style="stop-color:#CA8B67"/>
			<stop  offset="0.9241" style="stop-color:#B67551"/>
			<stop  offset="1" style="stop-color:#A15C38"/>
		</radialGradient>
		<path fill="url(#SVGID_19_)" d="M28.715,26.075c-0.303-0.566-0.201-2.686,2.002-3.215c2.379-0.569,4.484,2.025,4.57,3.757
			c0.117,2.306-1.094,4.798-2.867,5.471c-0.662,0.25,0.484-1.854-1.168-1.835c-1.314,0.016-1.303-1.332-0.834-2.246
			C30.889,27.094,29.229,27.039,28.715,26.075z"/>
		<path fill="#FBC6A2" d="M32.553,27.562c-0.76-0.715-1.738-0.458-2.25-0.244c0.193,0.178,0.273,0.388,0.115,0.689
			c-0.469,0.914-0.48,2.262,0.834,2.246c0.631-0.008,0.852,0.294,0.926,0.654C32.854,29.99,33.379,28.336,32.553,27.562z"/>
		
			<radialGradient id="SVGID_20_" cx="-6.8247" cy="-157.5322" r="6.3606" gradientTransform="matrix(0.3738 -0.4597 0.4597 0.3738 106.8617 86.979)" gradientUnits="userSpaceOnUse">
			<stop  offset="0" style="stop-color:#EDB38F"/>
			<stop  offset="0.4109" style="stop-color:#EBB18D"/>
			<stop  offset="0.5878" style="stop-color:#E5AA86"/>
			<stop  offset="0.7197" style="stop-color:#DA9D79"/>
			<stop  offset="0.8294" style="stop-color:#CA8B67"/>
			<stop  offset="0.9241" style="stop-color:#B67551"/>
			<stop  offset="1" style="stop-color:#A15C38"/>
		</radialGradient>
		<path fill="url(#SVGID_20_)" d="M32.264,27.912c-0.576-0.54-1.283-0.475-1.779-0.323c0.033,0.117,0.02,0.253-0.066,0.418
			c-0.01,0.022-0.023,0.046-0.033,0.071c-0.006,0.073-0.027,0.153-0.072,0.241c-0.037,0.068-0.068,0.14-0.098,0.213
			c-0.229,0.829-0.041,1.734,1.037,1.721c0.496-0.005,0.738,0.18,0.855,0.436C32.625,29.823,32.941,28.547,32.264,27.912z"/>
	</g>
	<g>
		
			<radialGradient id="SVGID_21_" cx="43.252" cy="-108.0522" r="9.4359" gradientTransform="matrix(0.7877 -0.2138 0.2138 0.7877 -3.9942 125.3551)" gradientUnits="userSpaceOnUse">
			<stop  offset="0.2472" style="stop-color:#FDE6D3"/>
			<stop  offset="1" style="stop-color:#FCD0AF"/>
		</radialGradient>
		<path fill="url(#SVGID_21_)" d="M14.74,33.201c-0.639-0.859-0.694-2.172-0.473-2.688c0.705-1.639-0.629-3.096-2.123-3.377
			c-1.672-0.313-2.941,0.67-3.471,1.238c-1.87,2.009-1,5.646,0.799,7.421c1.785,1.759,4.802,2.849,6.024,0.515
			C16.091,35.176,15.737,34.547,14.74,33.201z"/>
		
			<radialGradient id="SVGID_22_" cx="-42.0972" cy="-185.7959" r="14.296" gradientTransform="matrix(-0.5549 -0.2077 -0.2077 0.5549 -53.161 130.1902)" gradientUnits="userSpaceOnUse">
			<stop  offset="0" style="stop-color:#EDB38F"/>
			<stop  offset="0.4109" style="stop-color:#EBB18D"/>
			<stop  offset="0.5878" style="stop-color:#E5AA86"/>
			<stop  offset="0.7197" style="stop-color:#DA9D79"/>
			<stop  offset="0.8294" style="stop-color:#CA8B67"/>
			<stop  offset="0.9241" style="stop-color:#B67551"/>
			<stop  offset="1" style="stop-color:#A15C38"/>
		</radialGradient>
		<path fill="url(#SVGID_22_)" d="M13.864,30.106c-0.025-0.644-1.184-2.421-3.352-1.764c-2.34,0.712-2.846,4.016-2.045,5.552
			c1.066,2.051,3.371,3.589,5.24,3.271c0.696-0.117-1.356-1.354,0.08-2.173c1.142-0.65,0.45-1.809-0.417-2.358
			C12.503,32.083,13.908,31.196,13.864,30.106z"/>
		<path fill="#FBC6A2" d="M11.303,33.328c0.295-1.002,1.269-1.275,1.82-1.349c-0.078,0.252-0.04,0.473,0.248,0.654
			c0.867,0.55,1.559,1.708,0.417,2.358c-0.547,0.313-0.587,0.685-0.468,1.032C12.271,35.575,10.982,34.413,11.303,33.328z"/>
		
			<radialGradient id="SVGID_23_" cx="-50.0161" cy="-188.2671" r="6.363" gradientTransform="matrix(-0.5549 -0.2077 -0.2077 0.5549 -53.161 130.1902)" gradientUnits="userSpaceOnUse">
			<stop  offset="0" style="stop-color:#EDB38F"/>
			<stop  offset="0.4109" style="stop-color:#EBB18D"/>
			<stop  offset="0.5878" style="stop-color:#E5AA86"/>
			<stop  offset="0.7197" style="stop-color:#DA9D79"/>
			<stop  offset="0.8294" style="stop-color:#CA8B67"/>
			<stop  offset="0.9241" style="stop-color:#B67551"/>
			<stop  offset="1" style="stop-color:#A15C38"/>
		</radialGradient>
		<path fill="url(#SVGID_23_)" d="M11.729,33.484c0.224-0.757,0.87-1.059,1.373-1.179c0.03,0.119,0.112,0.229,0.268,0.328
			c0.022,0.013,0.043,0.027,0.066,0.044c0.041,0.06,0.1,0.117,0.185,0.17c0.064,0.042,0.128,0.087,0.19,0.136
			c0.615,0.602,0.912,1.476-0.025,2.009c-0.43,0.245-0.546,0.528-0.517,0.809C12.385,35.316,11.467,34.372,11.729,33.484z"/>
	</g>
	
		<radialGradient id="SVGID_24_" cx="56.1279" cy="-109.6597" r="3.9902" gradientTransform="matrix(0.7877 -0.2138 0.2138 0.7877 -3.9942 125.3551)" gradientUnits="userSpaceOnUse">
		<stop  offset="0" style="stop-color:#FDE6D3"/>
		<stop  offset="1" style="stop-color:#FCD0AF"/>
	</radialGradient>
	<circle fill="url(#SVGID_24_)" cx="22.407" cy="31.58" r="9.213"/>
	<path fill="#7B340F" d="M20.45,24.886c2.26-2.581,5.937-1.613,5.937-1.613c-1.922-0.922-4.172-1.188-6.393-0.585
		c-2.221,0.602-4.027,1.969-5.22,3.736C14.774,26.424,17.337,23.751,20.45,24.886z"/>
	<g>
		<path fill="#E3AC89" d="M25.041,28.937c0.205,0.759,0.168,1.429-0.08,1.497c-0.251,0.067-0.62-0.493-0.827-1.251
			c-0.206-0.762-0.169-1.433,0.08-1.5C24.463,27.614,24.834,28.175,25.041,28.937z"/>
		
			<ellipse transform="matrix(0.9646 -0.2636 0.2636 0.9646 -6.8802 7.5458)" fill="#FDE6D3" cx="24.684" cy="29.417" rx="0.469" ry="1.426"/>
		
			<radialGradient id="SVGID_25_" cx="23.2773" cy="-317.7617" r="1.2639" gradientTransform="matrix(1.0324 0 0 1.0324 0.0414 356.5863)" gradientUnits="userSpaceOnUse">
			<stop  offset="0" style="stop-color:#FFFFFF"/>
			<stop  offset="0.0582" style="stop-color:#DAD9D9"/>
			<stop  offset="0.1353" style="stop-color:#AFAEAE"/>
			<stop  offset="0.2184" style="stop-color:#898788"/>
			<stop  offset="0.3066" style="stop-color:#6A6768"/>
			<stop  offset="0.4013" style="stop-color:#504D4D"/>
			<stop  offset="0.5049" style="stop-color:#3C3839"/>
			<stop  offset="0.622" style="stop-color:#2E2A2B"/>
			<stop  offset="0.764" style="stop-color:#252223"/>
			<stop  offset="1" style="stop-color:#231F20"/>
		</radialGradient>
		<path fill="url(#SVGID_25_)" d="M25.093,29.136c0.207,0.761,0.17,1.431-0.078,1.498c-0.251,0.068-0.62-0.491-0.827-1.252
			c-0.206-0.76-0.171-1.43,0.079-1.497C24.518,27.816,24.887,28.376,25.093,29.136z"/>
	</g>
	<g>
		
			<ellipse transform="matrix(0.9649 -0.2625 0.2625 0.9649 -7.3526 6.0721)" fill="#E3AC89" cx="19.054" cy="30.56" rx="0.469" ry="1.425"/>
		
			<ellipse transform="matrix(0.965 -0.2622 0.2622 0.965 -7.4367 6.1031)" fill="#FDE6D3" cx="19.152" cy="30.919" rx="0.469" ry="1.425"/>
		
			<radialGradient id="SVGID_26_" cx="17.9448" cy="-316.4043" r="1.1758" gradientTransform="matrix(1.0324 0 0 1.0324 0.0414 356.5863)" gradientUnits="userSpaceOnUse">
			<stop  offset="0" style="stop-color:#FFFFFF"/>
			<stop  offset="0.0582" style="stop-color:#DAD9D9"/>
			<stop  offset="0.1353" style="stop-color:#AFAEAE"/>
			<stop  offset="0.2184" style="stop-color:#898788"/>
			<stop  offset="0.3066" style="stop-color:#6A6768"/>
			<stop  offset="0.4013" style="stop-color:#504D4D"/>
			<stop  offset="0.5049" style="stop-color:#3C3839"/>
			<stop  offset="0.622" style="stop-color:#2E2A2B"/>
			<stop  offset="0.764" style="stop-color:#252223"/>
			<stop  offset="1" style="stop-color:#231F20"/>
		</radialGradient>
		<path fill="url(#SVGID_26_)" d="M19.561,30.638c0.206,0.76,0.171,1.43-0.079,1.498c-0.25,0.067-0.62-0.492-0.826-1.252
			s-0.171-1.433,0.079-1.499C18.986,29.317,19.355,29.877,19.561,30.638z"/>
	</g>
	
		<ellipse transform="matrix(0.9654 -0.2608 0.2608 0.9654 -7.9182 7.1172)" fill="#EDB38F" cx="22.862" cy="33.398" rx="0.616" ry="0.419"/>
	
		<radialGradient id="SVGID_27_" cx="60.5781" cy="-105.3687" r="1.0071" gradientTransform="matrix(0.7877 -0.2138 0.1986 0.7316 -4.3777 123.2341)" gradientUnits="userSpaceOnUse">
		<stop  offset="0" style="stop-color:#FCD0AF"/>
		<stop  offset="0.1629" style="stop-color:#CB8361"/>
		<stop  offset="0.6636" style="stop-color:#904925"/>
		<stop  offset="0.8371" style="stop-color:#7B340F"/>
		<stop  offset="1" style="stop-color:#A15C38"/>
	</radialGradient>
	<path fill="url(#SVGID_27_)" d="M23.318,33.157c0.061,0.224-0.156,0.477-0.485,0.565s-0.644-0.021-0.705-0.243
		c-0.059-0.222,0.158-0.476,0.485-0.564C22.942,32.825,23.258,32.935,23.318,33.157z"/>
	
		<radialGradient id="SVGID_28_" cx="67.9063" cy="-91.4429" r="1.8997" gradientTransform="matrix(0.889 -0.2413 0.2413 0.889 -9.6251 129.7584)" gradientUnits="userSpaceOnUse">
		<stop  offset="0" style="stop-color:#F9B39A"/>
		<stop  offset="1" style="stop-color:#FCD0A6"/>
	</radialGradient>
	<circle fill="url(#SVGID_28_)" cx="28.762" cy="32.329" r="1.751"/>
	
		<radialGradient id="SVGID_29_" cx="100.4629" cy="-91.2886" r="1.9003" gradientTransform="matrix(0.889 -0.2413 0.2413 0.889 -49.9962 140.5104)" gradientUnits="userSpaceOnUse">
		<stop  offset="0" style="stop-color:#F9B39A"/>
		<stop  offset="1" style="stop-color:#FCD0A6"/>
	</radialGradient>
	<circle fill="url(#SVGID_29_)" cx="17.371" cy="35.363" r="1.75"/>
	<g>
		<path fill="#FDE6D3" d="M23.593,39.965c-1.607,0.911-4.008,0.507-3.842-0.724c0.165-1.229,2.281-1.463,3.277-1.084
			c0.489,0.187,1.039,0.043,1.039,0.043s0.551-0.124,0.901-0.514c0.713-0.792,2.699-1.553,3.412-0.536
			c0.709,1.018-1.24,2.477-3.086,2.403c-0.385-0.017-0.649,0.006-0.874,0.066C24.42,39.62,23.927,39.774,23.593,39.965z"/>
		<path fill="#EDB38F" d="M23.525,39.684c-1.605,0.91-4.008,0.506-3.842-0.723c0.167-1.231,2.281-1.463,3.276-1.084
			c0.492,0.186,1.039,0.041,1.039,0.041s0.553-0.121,0.903-0.513c0.711-0.792,2.699-1.554,3.412-0.537
			c0.709,1.017-1.24,2.477-3.086,2.402c-0.383-0.016-0.649,0.009-0.874,0.069C24.352,39.34,23.86,39.493,23.525,39.684z"/>
		
			<linearGradient id="SVGID_30_" gradientUnits="userSpaceOnUse" x1="-119.3892" y1="-393.2925" x2="-119.3892" y2="-398.5144" gradientTransform="matrix(0.7769 -0.1883 0.1883 0.7769 191.4462 323.6208)">
			<stop  offset="0" style="stop-color:#D71921"/>
			<stop  offset="0.7888" style="stop-color:#9B080A"/>
			<stop  offset="1" style="stop-color:#8A0304"/>
		</linearGradient>
		<path fill="url(#SVGID_30_)" d="M23.552,39.794c-1.607,0.912-4.009,0.506-3.843-0.723c0.166-1.229,2.283-1.463,3.276-1.086
			c0.492,0.188,1.041,0.043,1.041,0.043s0.551-0.122,0.902-0.513c0.712-0.794,2.701-1.554,3.41-0.537
			c0.711,1.018-1.238,2.479-3.083,2.402c-0.386-0.017-0.649,0.007-0.875,0.069C24.379,39.45,23.886,39.605,23.552,39.794z"/>
		<path fill="#EC1C24" d="M24.283,39.107c-1.848-0.418-2.913,0.634-2.913,0.634c0.347,0.296,1.308,0.03,2.15-0.028
			c0.071-0.036,0.237-0.088,0.309-0.128c0.415-0.24,0.833-0.298,1.565-0.269c0.114,0.005,0.226,0.005,0.338-0.002
			c0.813-0.434,1.555-1.045,1.555-1.045C26.143,37.748,24.283,39.107,24.283,39.107z"/>
		
			<linearGradient id="SVGID_31_" gradientUnits="userSpaceOnUse" x1="224.001" y1="-331.1519" x2="224.001" y2="-332.0556" gradientTransform="matrix(0.7769 -0.1883 0.2107 0.8688 -80.1994 368.0938)">
			<stop  offset="0" style="stop-color:#FFFFFF"/>
			<stop  offset="1" style="stop-color:#D0D2D3"/>
		</linearGradient>
		<path fill="url(#SVGID_31_)" d="M26.146,37.309c0.061-0.13,0.061-0.39,0.025-0.595c-0.505,0.196-0.968,0.497-1.244,0.802
			c-0.352,0.391-0.902,0.513-0.902,0.513s-0.549,0.145-1.041-0.043c-0.389-0.147-0.948-0.198-1.496-0.137
			c0.038,0.224,0.108,0.453,0.246,0.53C22.526,38.818,25.752,38.136,26.146,37.309z"/>
		
			<linearGradient id="SVGID_32_" gradientUnits="userSpaceOnUse" x1="221.2334" y1="-336.1606" x2="221.2334" y2="-337.1727" gradientTransform="matrix(0.8736 -0.2118 0.1954 0.806 -103.2227 357.2934)">
			<stop  offset="0" style="stop-color:#FFFFFF"/>
			<stop  offset="1" style="stop-color:#D0D2D3"/>
		</linearGradient>
		<path fill="url(#SVGID_32_)" d="M27.531,37.782c0.018,0.326-0.395,0.6-1.443,1.057c-0.667,0.289-2.518,0.776-3.343,0.811
			c-0.862,0.034-1.67,0.222-1.945-0.154c-0.315-0.432-0.688-0.321-0.792-0.063c-0.017,0.218,0.114,0.425,0.341,0.613
			c0.794,0.376,2.166,0.338,3.204-0.251c0.334-0.188,0.827-0.344,0.827-0.344c0.226-0.063,0.489-0.086,0.875-0.069
			c1.082,0.044,2.199-0.44,2.794-1.053c0.023-0.028,0.049-0.056,0.072-0.082c0.137-0.28,0.178-0.543,0.115-0.765
			C28.111,37.16,27.494,37.084,27.531,37.782z"/>
	</g>
	<g>
		<path fill="#EDB38F" d="M23.69,25.593c0,0,1.746-0.583,2.775,1.074c0,0-0.436-0.313-0.637-0.336c0,0,0.418,0.318,0.424,0.913
			c0,0-0.294-0.475-0.635-0.663c0,0,0.405,0.473,0.333,1.159C25.95,27.74,25.168,25.853,23.69,25.593z"/>
		<path fill="#7B340F" d="M23.69,25.453c0,0,1.746-0.583,2.775,1.074c0,0-0.436-0.313-0.637-0.336c0,0,0.418,0.317,0.424,0.91
			c0,0-0.294-0.473-0.635-0.659c0,0,0.405,0.472,0.333,1.157C25.95,27.6,25.168,25.713,23.69,25.453z"/>
	</g>
	<g>
		<path fill="#EDB38F" d="M19.244,27.147c0,0-1.799-0.39-2.641,1.37c0,0,0.399-0.358,0.598-0.401c0,0-0.382,0.359-0.324,0.949
			c0,0,0.243-0.501,0.561-0.726c0,0-0.351,0.515-0.205,1.189C17.232,29.529,17.803,27.566,19.244,27.147z"/>
		<path fill="#7B340F" d="M19.228,27.007c0,0-1.799-0.388-2.64,1.371c0,0,0.399-0.358,0.597-0.401c0,0-0.382,0.36-0.324,0.949
			c0,0,0.243-0.501,0.561-0.726c0,0-0.351,0.515-0.204,1.19C17.218,29.391,17.787,27.426,19.228,27.007z"/>
	</g>
	<path fill="none" stroke="#7B340F" stroke-width="4.0815" stroke-linecap="round" stroke-linejoin="round" d="M26.729,16.807
		c0,0-1.563-1.621-2.042-4.503c-0.388-2.323,0.927-4.541,2.832-5.473c3.934-1.93,7.254,3.068,3.268,5.384"/>
	
		<linearGradient id="SVGID_33_" gradientUnits="userSpaceOnUse" x1="199.0332" y1="-82.3604" x2="203.7647" y2="-81.5834" gradientTransform="matrix(0.3268 -0.6633 -0.6633 -0.3268 -110.0073 148.8046)">
		<stop  offset="0" style="stop-color:#FCD0AF"/>
		<stop  offset="0.3167" style="stop-color:#F5C2A0"/>
		<stop  offset="0.9222" style="stop-color:#E49E79"/>
		<stop  offset="1" style="stop-color:#E19974"/>
	</linearGradient>
	<path fill="url(#SVGID_33_)" d="M11.35,43.99c0,0,0.888-1.068,0.387-1.935c-0.278-0.481-0.864-0.34-1.125-0.757
		c-0.29-0.46-0.819-0.652-1.139-0.573c-0.663,0.166-1.25,1.233-1.25,1.233L11.35,43.99z"/>
	
		<radialGradient id="SVGID_34_" cx="194.3555" cy="-93.8184" r="1.8793" gradientTransform="matrix(0.475 -0.5667 0.5667 0.475 -31.6789 197.4369)" gradientUnits="userSpaceOnUse">
		<stop  offset="0.2472" style="stop-color:#FDE6D3"/>
		<stop  offset="1" style="stop-color:#FCD0AF"/>
	</radialGradient>
	<path fill="url(#SVGID_34_)" d="M8.606,43.074c-0.257,0.171-0.835-0.047-0.809-0.557c0.018-0.345,1.263-1.831,1.847-1.449
		C9.94,41.262,9.498,42.488,8.606,43.074z"/>
	
		<radialGradient id="SVGID_35_" cx="196.8594" cy="-92.1377" r="1.3415" gradientTransform="matrix(0.475 -0.5667 0.5667 0.475 -32.9572 198.433)" gradientUnits="userSpaceOnUse">
		<stop  offset="0.2472" style="stop-color:#FDE6D3"/>
		<stop  offset="1" style="stop-color:#FCD0AF"/>
	</radialGradient>
	<path fill="url(#SVGID_35_)" d="M9.313,43.693c-0.256,0.17-0.835-0.048-0.808-0.558c0.019-0.345,1.262-1.831,1.846-1.449
		C10.648,41.88,10.205,43.106,9.313,43.693z"/>
	
		<radialGradient id="SVGID_36_" cx="197.377" cy="-91.0093" r="1.3307" gradientTransform="matrix(0.475 -0.5667 0.5667 0.475 -32.9768 198.6586)" gradientUnits="userSpaceOnUse">
		<stop  offset="0.2472" style="stop-color:#FDE6D3"/>
		<stop  offset="1" style="stop-color:#FCD0AF"/>
	</radialGradient>
	<path fill="url(#SVGID_36_)" d="M10.078,44.171c-0.256,0.168-0.834-0.048-0.809-0.558c0.019-0.345,1.263-1.832,1.848-1.449
		C11.412,42.356,10.969,43.583,10.078,44.171z"/>
	
		<radialGradient id="SVGID_37_" cx="197.9063" cy="-89.896" r="1.3674" gradientTransform="matrix(0.475 -0.5667 0.5667 0.475 -33.2473 198.8217)" gradientUnits="userSpaceOnUse">
		<stop  offset="0.2472" style="stop-color:#FDE6D3"/>
		<stop  offset="1" style="stop-color:#FCD0AF"/>
	</radialGradient>
	<path fill="url(#SVGID_37_)" d="M10.841,44.547c-0.256,0.171-0.834-0.046-0.808-0.557c0.018-0.345,1.093-1.683,1.678-1.303
		C12.007,42.881,11.733,43.961,10.841,44.547z"/>
	
		<radialGradient id="SVGID_38_" cx="197.4395" cy="-93.8906" r="2.6662" gradientTransform="matrix(0.475 -0.5667 0.5667 0.475 -32.0071 197.892)" gradientUnits="userSpaceOnUse">
		<stop  offset="0.2472" style="stop-color:#FDE6D3"/>
		<stop  offset="1" style="stop-color:#FBC6A2"/>
	</radialGradient>
	<path fill="url(#SVGID_38_)" d="M9.02,41.578c-0.222-0.215-0.136-0.826,0.369-0.911c0.338-0.058,1.673,0.746,1.429,1.398
		C10.694,42.396,9.787,42.318,9.02,41.578z"/>
</g>
</svg>
