<?xml version="1.0" encoding="utf-8"?>
<!-- Generator: Adobe Illustrator 14.0.0, SVG Export Plug-In . SVG Version: 6.00 Build 43363)  -->
<!DOCTYPE svg PUBLIC "-//W3C//DTD SVG 1.1//EN" "http://www.w3.org/Graphics/SVG/1.1/DTD/svg11.dtd">
<svg version="1.1" id="图层_1" xmlns="http://www.w3.org/2000/svg" xmlns:xlink="http://www.w3.org/1999/xlink" x="0px" y="0px"
	 width="50px" height="50px" viewBox="0 0 50 50" enable-background="new 0 0 50 50" xml:space="preserve">
<g>
	
		<radialGradient id="SVGID_1_" cx="-156.0913" cy="72.2803" r="4.3145" gradientTransform="matrix(1 0 0 1 188.0371 -22.3691)" gradientUnits="userSpaceOnUse">
		<stop  offset="0" style="stop-color:#D79B7A"/>
		<stop  offset="0.4252" style="stop-color:#C28361"/>
		<stop  offset="1" style="stop-color:#A15C38"/>
	</radialGradient>
	<circle fill="url(#SVGID_1_)" cx="30.402" cy="45.881" r="1.697"/>
	
		<radialGradient id="SVGID_2_" cx="-192.9272" cy="69.3389" r="6.9763" gradientTransform="matrix(-0.7814 0.6241 0.6241 0.7814 -158.3897 104.7636)" gradientUnits="userSpaceOnUse">
		<stop  offset="0" style="stop-color:#D79B7A"/>
		<stop  offset="0.4252" style="stop-color:#C28361"/>
		<stop  offset="1" style="stop-color:#A15C38"/>
	</radialGradient>
	<path fill="url(#SVGID_2_)" d="M33.129,45.721c0.791,0.988,3.084,0.469,5.123-1.158c2.039-1.629,3.053-3.752,2.262-4.74
		c-0.789-0.988-3.082-0.469-5.121,1.158C33.354,42.609,32.34,44.732,33.129,45.721z"/>
	<path fill="#A15C38" d="M40.197,41.941c0,0-0.252-0.902-1.242-0.883C38.955,41.059,39.619,41.211,40.197,41.941z"/>
	<path fill="#A15C38" d="M40.574,40.982c0,0-0.199-0.846-1.146-0.781C39.428,40.201,40.055,40.314,40.574,40.982z"/>
	<path fill="#A15C38" d="M40.652,40.338c0,0-0.156-0.664-0.9-0.613C39.752,39.725,40.246,39.814,40.652,40.338z"/>
	
		<radialGradient id="SVGID_3_" cx="-167.6401" cy="64.5479" r="6.9741" gradientTransform="matrix(1 0 0 1 188.0371 -22.3691)" gradientUnits="userSpaceOnUse">
		<stop  offset="0" style="stop-color:#D79B7A"/>
		<stop  offset="0.4252" style="stop-color:#C28361"/>
		<stop  offset="1" style="stop-color:#A15C38"/>
	</radialGradient>
	<ellipse fill="url(#SVGID_3_)" cx="22.163" cy="46.379" rx="4.725" ry="2.291"/>
	
		<radialGradient id="SVGID_4_" cx="-168.5244" cy="67.4111" r="11.7316" gradientTransform="matrix(1 0 0 1 198.4717 -20.4111)" gradientUnits="userSpaceOnUse">
		<stop  offset="0" style="stop-color:#D79B7A"/>
		<stop  offset="0.4252" style="stop-color:#C28361"/>
		<stop  offset="1" style="stop-color:#A15C38"/>
	</radialGradient>
	<path fill="url(#SVGID_4_)" d="M23.571,43.217c0.947,4.336,8.14,3.881,10.237,0.98c4.59-6.34-6.445-11.867-6.445-11.867
		l-0.187,0.504C27.177,32.834,22.446,38.07,23.571,43.217z"/>
	<path fill="#985633" d="M32.072,35.658c-0.615-0.318-1.32-0.568-2.098-0.701c0.027-0.104,0.043-0.193,0.041-0.264
		c-0.031-0.969-2.264-1.836-3.16-1.479c-0.836,1.037-3.042,4.053-3.404,7.436c0.193-0.1,0.354-0.26,0.457-0.494
		c0.546-1.25,0.643-1.51,1.553-2.271c-0.038,1.219,0.085,2.223,0.35,2.322c0.435,0.166,1.423-0.855,2.332-2.076
		c1.693,0.041,2.234,0.262,3.576,0.963c0.951,0.498,1.945-0.563,1.953-1.604C33.211,36.83,32.656,36.217,32.072,35.658z"/>
	<g>
		
			<radialGradient id="SVGID_5_" cx="-146.416" cy="35.4736" r="12.6481" gradientTransform="matrix(0.8855 -0.1871 0.1871 0.8855 151.7643 -55.6027)" gradientUnits="userSpaceOnUse">
			<stop  offset="0" style="stop-color:#D79B7A"/>
			<stop  offset="0.5073" style="stop-color:#C38361"/>
			<stop  offset="1" style="stop-color:#AC6944"/>
		</radialGradient>
		<path fill="url(#SVGID_5_)" d="M25.697,17.917c0,0-3.047-10.894,4.162-16.586C29.859,1.33,33.473,11.733,25.697,17.917z"/>
		<path fill="#B77049" d="M25.999,16.885c0,0-2.048-9.333,3.378-13.419C29.377,3.466,31.666,12.413,25.999,16.885z"/>
		
			<radialGradient id="SVGID_6_" cx="-147.3013" cy="37.7275" r="9.8921" gradientTransform="matrix(0.8855 -0.1871 0.1871 0.8855 151.7643 -55.6027)" gradientUnits="userSpaceOnUse">
			<stop  offset="0" style="stop-color:#F6A099"/>
			<stop  offset="0.6361" style="stop-color:#E78880"/>
			<stop  offset="1" style="stop-color:#DD786F"/>
		</radialGradient>
		<path fill="url(#SVGID_6_)" d="M25.999,16.885c0,0-1.761-9.066,3.231-13.007C29.23,3.878,31.385,12.603,25.999,16.885z"/>
		
			<radialGradient id="SVGID_7_" cx="-159.8159" cy="35.7158" r="12.6474" gradientTransform="matrix(-0.8855 0.1871 0.1871 0.8855 -136.3411 4.9537)" gradientUnits="userSpaceOnUse">
			<stop  offset="0" style="stop-color:#D79B7A"/>
			<stop  offset="0.5073" style="stop-color:#C38361"/>
			<stop  offset="1" style="stop-color:#AC6944"/>
		</radialGradient>
		<path fill="url(#SVGID_7_)" d="M20.713,18.969c0,0-1.622-11.195-10.517-13.484C10.196,5.485,11.101,16.46,20.713,18.969z"/>
		<path fill="#B77049" d="M20.018,18.15c0,0-1.913-9.295-8.5-10.95C11.518,7.2,12.892,16.323,20.018,18.15z"/>
		
			<radialGradient id="SVGID_8_" cx="-160.7012" cy="37.9688" r="9.8936" gradientTransform="matrix(-0.8855 0.1871 0.1871 0.8855 -136.3411 4.9537)" gradientUnits="userSpaceOnUse">
			<stop  offset="0" style="stop-color:#F6A099"/>
			<stop  offset="0.6361" style="stop-color:#E78880"/>
			<stop  offset="1" style="stop-color:#DD786F"/>
		</radialGradient>
		<path fill="url(#SVGID_8_)" d="M20.018,18.15c0,0-2.056-9.004-8.216-10.589C11.802,7.561,13.362,16.412,20.018,18.15z"/>
		
			<radialGradient id="SVGID_9_" cx="-156.2231" cy="46.543" r="24.3811" gradientTransform="matrix(0.8855 -0.1871 0.1871 0.8855 151.7643 -55.6027)" gradientUnits="userSpaceOnUse">
			<stop  offset="0" style="stop-color:#D79B7A"/>
			<stop  offset="0.4475" style="stop-color:#C38361"/>
			<stop  offset="0.882" style="stop-color:#AC6944"/>
			<stop  offset="1" style="stop-color:#CB8361"/>
		</radialGradient>
		<path fill="url(#SVGID_9_)" d="M34.303,23.289c1.965,5.542-2.061,11.727-7.422,12.86c-5.359,1.133-11.636-2.773-11.989-8.758
			c-0.359-6.092,2.92-11.91,7.422-12.861C26.934,13.553,32.266,17.537,34.303,23.289z"/>
		<path fill="#985633" d="M30.178,34.461l0.027,0.246c0.625-0.426,1.201-0.924,1.725-1.479
			C30.258,33.336,30.178,34.461,30.178,34.461z"/>
		<path fill="#985633" d="M30.871,31.365c-0.229,0.125-0.221-0.033-0.566-0.133c-0.424-0.123-0.42,0.41-0.531,0.645
			c-0.086,0.188-0.209,0.248-0.439,0.258c0.002-0.002,0.004-0.002,0.006-0.006c0.355-0.508-0.146-0.732,0.031-0.961
			c0.18-0.229,0.639-0.352,0.514-0.783c-0.086-0.297-0.629-0.193-0.813,0.201c-0.111,0.234-0.197,0.104-0.535,0.227
			c-0.416,0.152-0.098,0.58-0.047,0.834c0.049,0.254-0.06,0.381-0.365,0.582c-0.107,0.072-0.122,0.26-0.1,0.475
			c-0.529-0.119-1.029-0.115-1.304,0.082c-0.644,0.459-1.026,2.018-1.177,3.539c0.444-0.025,0.891-0.08,1.336-0.176
			c1.057-0.223,2.033-0.627,2.912-1.176c0.154-0.34,0.242-0.617,0.236-0.789c-0.012-0.416-0.432-0.811-0.977-1.1
			c0.094-0.096,0.186-0.195,0.27-0.281c0.252-0.256,0.51,0.082,0.852-0.033c0.588-0.199,0.316-0.68,0.594-0.758
			c0.279-0.078,0.725,0.096,0.879-0.328C31.752,31.393,31.252,31.156,30.871,31.365z M28.672,32.662V32.66
			c0.014-0.09,0.049-0.148,0.098-0.193C28.734,32.529,28.701,32.596,28.672,32.662z"/>
		<g>
			
				<ellipse transform="matrix(0.9784 -0.2066 0.2066 0.9784 -4.1696 6.2309)" fill="#A15C38" cx="27.756" cy="23.084" rx="0.728" ry="3.277"/>
			
				<ellipse transform="matrix(0.9784 -0.2066 0.2066 0.9784 -4.2518 6.2574)" fill="#D79B7A" cx="27.842" cy="23.492" rx="0.728" ry="3.279"/>
			
				<ellipse transform="matrix(0.9784 -0.2069 0.2069 0.9784 -4.2154 6.2559)" fill="#231F20" cx="27.798" cy="23.279" rx="0.729" ry="3.278"/>
		</g>
		<g>
			
				<ellipse transform="matrix(0.9785 -0.2064 0.2064 0.9785 -4.621 4.8202)" fill="#A15C38" cx="20.79" cy="24.556" rx="0.729" ry="3.278"/>
			
				<ellipse transform="matrix(0.9783 -0.2071 0.2071 0.9783 -4.7165 4.8635)" fill="#D79B7A" cx="20.876" cy="24.964" rx="0.729" ry="3.279"/>
			
				<ellipse transform="matrix(0.9783 -0.2072 0.2072 0.9783 -4.6762 4.8532)" fill="#231F20" cx="20.832" cy="24.751" rx="0.728" ry="3.279"/>
		</g>
		<path fill="#CB8361" d="M24.369,31.709c0,0,0.664,0.383,1.371-0.568c0,0,0.783,0.684,1.729-0.145c0,0,0.499,3.508-0.947,3.813
			C25.336,35.059,24.369,31.709,24.369,31.709z"/>
		
			<linearGradient id="SVGID_10_" gradientUnits="userSpaceOnUse" x1="41.2031" y1="-139.4565" x2="41.4918" y2="-140.6901" gradientTransform="matrix(0.8741 -0.5218 0.5218 0.8741 63.1475 176.2455)">
			<stop  offset="0" style="stop-color:#EC1C24"/>
			<stop  offset="0.2452" style="stop-color:#E71B23"/>
			<stop  offset="0.5176" style="stop-color:#DA1920"/>
			<stop  offset="0.8021" style="stop-color:#C4151B"/>
			<stop  offset="1" style="stop-color:#B01117"/>
		</linearGradient>
		<path fill="url(#SVGID_10_)" d="M24.369,31.709c0,0,0.664,0.383,1.371-0.568c0,0,0.783,0.684,1.729-0.145
			c0,0,0.448,3.264-0.997,3.57C25.284,34.816,24.369,31.709,24.369,31.709z"/>
		
			<linearGradient id="SVGID_11_" gradientUnits="userSpaceOnUse" x1="41.5059" y1="-140.021" x2="41.5359" y2="-140.7995" gradientTransform="matrix(0.8741 -0.5218 0.5218 0.8741 62.8038 175.8915)">
			<stop  offset="0" style="stop-color:#FFFFFF"/>
			<stop  offset="0.2801" style="stop-color:#FAFBFB"/>
			<stop  offset="0.5912" style="stop-color:#EDEEEE"/>
			<stop  offset="0.9163" style="stop-color:#D7D9DA"/>
			<stop  offset="1" style="stop-color:#D0D2D3"/>
		</linearGradient>
		<path fill="url(#SVGID_11_)" d="M25.429,32.09c0.164,0.078,1.023-0.104,1.101-0.266c0.024-0.053,0.036-0.223,0.018-0.42
			c-0.482,0.018-0.807-0.264-0.807-0.264c-0.186,0.25-0.368,0.406-0.537,0.504C25.253,31.842,25.347,32.051,25.429,32.09z"/>
		<path fill="none" stroke="#231F20" stroke-width="0.5" stroke-linecap="round" stroke-linejoin="round" d="M31.508,28.088
			c0,0,4.539-1.818,8.096-1.631"/>
		<path fill="none" stroke="#231F20" stroke-width="0.5" stroke-linecap="round" stroke-linejoin="round" d="M31.654,29.152
			c0,0,6.305-0.863,9.668,1.004"/>
		<path fill="none" stroke="#231F20" stroke-width="0.5" stroke-linecap="round" stroke-linejoin="round" d="M19.463,30.635
			c0,0-4.887,0.172-8.063,1.781"/>
		<path fill="none" stroke="#231F20" stroke-width="0.5" stroke-linecap="round" stroke-linejoin="round" d="M19.76,31.666
			c0,0-6.115,1.76-8.436,4.828"/>
		
			<ellipse transform="matrix(0.9783 -0.2071 0.2071 0.9783 -5.4503 5.8894)" fill="#A15C38" cx="25.411" cy="28.982" rx="1.038" ry="0.844"/>
		
			<radialGradient id="SVGID_12_" cx="33.0586" cy="-158.0537" r="1.5891" gradientTransform="matrix(0.996 -0.2105 0.1709 0.8088 18.984 163.0672)" gradientUnits="userSpaceOnUse">
			<stop  offset="0" style="stop-color:#FFFFFF"/>
			<stop  offset="0.118" style="stop-color:#A15C38"/>
			<stop  offset="0.3306" style="stop-color:#985330"/>
			<stop  offset="0.6829" style="stop-color:#823919"/>
			<stop  offset="1" style="stop-color:#681D00"/>
		</radialGradient>
		<path fill="url(#SVGID_12_)" d="M26.287,28.678c0.096,0.455-0.28,0.92-0.842,1.041c-0.561,0.117-1.093-0.156-1.189-0.613
			c-0.096-0.453,0.28-0.92,0.842-1.037C25.658,27.949,26.191,28.223,26.287,28.678z"/>
	</g>
	<path fill="#F48D83" d="M27.441,33.203c-1.046-0.021-1.746,0.223-2.199,0.502c0.342,0.543,0.765,0.959,1.229,0.861
		C27.042,34.445,27.316,33.865,27.441,33.203z"/>
	
		<linearGradient id="SVGID_13_" gradientUnits="userSpaceOnUse" x1="-150.4761" y1="58.585" x2="-153.3329" y2="59.4534" gradientTransform="matrix(0.9887 -0.1501 0.1501 0.9887 171.1231 -48.9389)">
		<stop  offset="0" style="stop-color:#00A551"/>
		<stop  offset="0.4631" style="stop-color:#008C46"/>
		<stop  offset="1" style="stop-color:#006938"/>
	</linearGradient>
	<path fill="url(#SVGID_13_)" d="M28.239,33.438c0,0,0.331-1.18,0.698-1.162c0.365,0.018,0.529-0.021,0.639-0.256
		s0.105-0.768,0.531-0.645c0.344,0.1,0.336,0.258,0.564,0.133c0.381-0.209,0.881,0.027,0.775,0.318
		c-0.154,0.422-0.6,0.25-0.879,0.328c-0.277,0.078-0.006,0.559-0.594,0.758c-0.342,0.113-0.6-0.223-0.852,0.033
		s-0.572,0.627-0.744,0.689C28.206,33.697,28.239,33.438,28.239,33.438z"/>
	
		<linearGradient id="SVGID_14_" gradientUnits="userSpaceOnUse" x1="-153.0034" y1="58.4541" x2="-153.6415" y2="59.6886" gradientTransform="matrix(0.9887 -0.1501 0.1501 0.9887 171.1231 -48.9389)">
		<stop  offset="0" style="stop-color:#00A551"/>
		<stop  offset="0.4631" style="stop-color:#008C46"/>
		<stop  offset="1" style="stop-color:#006938"/>
	</linearGradient>
	<path fill="url(#SVGID_14_)" d="M28.051,33.721c0,0-0.431-1.148-0.124-1.35c0.305-0.201,0.414-0.328,0.363-0.582
		c-0.05-0.254-0.367-0.682,0.048-0.836c0.338-0.123,0.424,0.012,0.535-0.227c0.184-0.395,0.727-0.496,0.813-0.201
		c0.127,0.434-0.334,0.557-0.514,0.785c-0.178,0.229,0.326,0.455-0.031,0.961c-0.209,0.295-0.615,0.176-0.669,0.531
		c-0.052,0.355-0.091,0.844-0.192,0.996C28.177,33.951,28.051,33.721,28.051,33.721z"/>
	
		<radialGradient id="SVGID_15_" cx="-162.6689" cy="58.1396" r="5.0204" gradientTransform="matrix(1 0 0 1 188.5933 -27.1572)" gradientUnits="userSpaceOnUse">
		<stop  offset="0" style="stop-color:#FCB813"/>
		<stop  offset="0.6961" style="stop-color:#F89F1A"/>
		<stop  offset="1" style="stop-color:#F6921E"/>
	</radialGradient>
	<path fill="url(#SVGID_15_)" d="M26.522,32.926c0.764-0.543,3.274,0.371,3.308,1.4c0.033,1.027-3.296,5.859-4.203,5.514
		C24.975,39.592,25.183,33.881,26.522,32.926z"/>
	<path fill="#F48120" d="M26.907,34.857c-0.168-0.439-0.521-0.779-1.071-0.82c-0.368,1.033-0.55,2.523-0.564,3.736
		c0.151-0.129,0.326-0.271,0.534-0.439c0.314,0.361,0.76,0.611,1.211,0.609c0.296-0.002,0.561-0.002,0.806,0
		c0.848-1.107,1.652-2.43,1.916-3.188C28.871,34.623,27.918,34.635,26.907,34.857z"/>
	
		<radialGradient id="SVGID_16_" cx="-186.3911" cy="157.5215" r="7.744" gradientTransform="matrix(0.7317 0.6816 0.6816 -0.7317 55.1697 276.1742)" gradientUnits="userSpaceOnUse">
		<stop  offset="0" style="stop-color:#D79B7A"/>
		<stop  offset="0.4252" style="stop-color:#C28361"/>
		<stop  offset="1" style="stop-color:#A15C38"/>
	</radialGradient>
	<path fill="url(#SVGID_16_)" d="M20.899,38.344c0.392-1.713,1.309-3.059,3.683-4.213c2.415-1.174,2.908,1.615,1.798,2.498
		c-2,1.588-1.942,1.525-2.655,3.158C23.12,41.174,20.513,40.039,20.899,38.344z"/>
	<path fill="#B77049" d="M26.725,35.162c0,0-1.154-0.018-1.474,1.162C25.251,36.324,25.661,35.592,26.725,35.162z"/>
	<path fill="#B77049" d="M26.486,34.457c0,0-1.142-0.17-1.614,0.959C24.872,35.416,25.375,34.744,26.486,34.457z"/>
	<path fill="#B77049" d="M25.87,33.992c0,0-1.031-0.205-1.335,0.852C24.535,34.844,24.882,34.205,25.87,33.992z"/>
	
		<radialGradient id="SVGID_17_" cx="-156.4746" cy="53.9912" r="4.2933" gradientTransform="matrix(1 0 0 1 187.8887 -22.2197)" gradientUnits="userSpaceOnUse">
		<stop  offset="0" style="stop-color:#D79B7A"/>
		<stop  offset="0.4252" style="stop-color:#C28361"/>
		<stop  offset="1" style="stop-color:#A15C38"/>
	</radialGradient>
	<path fill="url(#SVGID_17_)" d="M29.791,34.904c0,0,0.703-1.637,2.295-1.377c1.076,0.176,1.814,3.17,1.273,4.082
		c-0.541,0.91-3.197-0.996-3.197-0.996L29.791,34.904z"/>
	
		<radialGradient id="SVGID_18_" cx="-201.1411" cy="134.791" r="7.7425" gradientTransform="matrix(-0.1424 0.9898 -0.9898 -0.1424 130.0136 253.6041)" gradientUnits="userSpaceOnUse">
		<stop  offset="0" style="stop-color:#D79B7A"/>
		<stop  offset="0.4252" style="stop-color:#C28361"/>
		<stop  offset="1" style="stop-color:#A15C38"/>
	</radialGradient>
	<path fill="url(#SVGID_18_)" d="M32.936,35.961c-1.379-1.088-3.592-1.867-6.166-1.277c-2.615,0.602-1.25,3.084,0.168,3.074
		c2.555-0.02,3.018,0.143,4.598,0.969C32.873,39.426,34.301,37.039,32.936,35.961z"/>
	<path fill="#B77049" d="M25.748,36.83c0,0,0.889-0.736,1.877-0.018C27.625,36.813,26.847,36.498,25.748,36.83z"/>
	<path fill="#B77049" d="M25.492,36.133c0,0,0.783-0.848,1.858-0.266C27.351,35.867,26.537,35.658,25.492,36.133z"/>
	<path fill="#B77049" d="M25.681,35.385c0,0,0.675-0.807,1.574-0.176C27.255,35.209,26.583,34.93,25.681,35.385z"/>
	<path fill="#A15C38" d="M19.007,47.836c0,0-0.366-0.861,0.42-1.465C19.428,46.371,19.004,46.904,19.007,47.836z"/>
	<path fill="#A15C38" d="M18.116,47.322c0,0-0.374-0.785,0.408-1.326C18.524,45.996,18.104,46.477,18.116,47.322z"/>
	<path fill="#A15C38" d="M17.652,46.869c0,0-0.293-0.617,0.321-1.043C17.974,45.826,17.644,46.203,17.652,46.869z"/>
</g>
</svg>
