<?xml version="1.0" encoding="utf-8"?>
<!-- Generator: Adobe Illustrator 14.0.0, SVG Export Plug-In . SVG Version: 6.00 Build 43363)  -->
<!DOCTYPE svg PUBLIC "-//W3C//DTD SVG 1.1//EN" "http://www.w3.org/Graphics/SVG/1.1/DTD/svg11.dtd">
<svg version="1.1" id="图层_1" xmlns="http://www.w3.org/2000/svg" xmlns:xlink="http://www.w3.org/1999/xlink" x="0px" y="0px"
	 width="50px" height="50px" viewBox="0 0 50 50" enable-background="new 0 0 50 50" xml:space="preserve">
<g>
	<path fill="#6D6E70" d="M7.377,36.358c0,0-0.087,2.884-0.218,3.613c-0.131,0.731-0.114,2.551-0.215,3.197
		c-0.101,0.642-1.086,2.508-2.414,3.202l1.842-3.614l0.372-2.436L7.377,36.358z"/>
	
		<linearGradient id="SVGID_1_" gradientUnits="userSpaceOnUse" x1="14.4761" y1="45.168" x2="17.2006" y2="42.3591" gradientTransform="matrix(1.029 0.2202 -0.2202 1.029 -2.0448 -5.2034)">
		<stop  offset="0" style="stop-color:#6D6E70"/>
		<stop  offset="0.3812" style="stop-color:#535354"/>
		<stop  offset="1" style="stop-color:#231F20"/>
	</linearGradient>
	<path fill="url(#SVGID_1_)" d="M7.65,38.384c0,0-0.893,2.567-0.86,3.828c0.061,2.344-2.26,4.159-2.26,4.159s0.72-1.554-0.187-2.173
		c-0.583-0.399-1.881,0.289-2.636-0.437C2.782,40.999,7.65,38.384,7.65,38.384z"/>
	<path fill="#6D6E70" d="M13.319,14.641c0,0-0.975,0.488-1.189,0.879c-0.214,0.392-1.178,2.151-2.762,2.151
		c-2.479,0-3.745-1.47-3.745-1.47l3.912-1.094L13.319,14.641z"/>
	
		<linearGradient id="SVGID_2_" gradientUnits="userSpaceOnUse" x1="9.8223" y1="48.4619" x2="15.6213" y2="49.8311" gradientTransform="matrix(1.0523 0 0 1.0523 -5.3559 -37.1235)">
		<stop  offset="0" style="stop-color:#6D6E70"/>
		<stop  offset="0.3812" style="stop-color:#535354"/>
		<stop  offset="1" style="stop-color:#231F20"/>
	</linearGradient>
	<path fill="url(#SVGID_2_)" d="M11.887,12.892c1.725,0.5,2.652,0.557,4.083,1.191c0,0-0.863,0.192-1.699,1.005
		c-1.214,1.177-3.042,2.366-4.835,2.322c-1.967-0.049-3.814-1.209-3.814-1.209S9.577,12.223,11.887,12.892z"/>
	
		<linearGradient id="SVGID_3_" gradientUnits="userSpaceOnUse" x1="33.8955" y1="18.1602" x2="41.7384" y2="42.6914" gradientTransform="matrix(1.029 0.2202 -0.2202 1.029 -2.6014 -15.0618)">
		<stop  offset="0" style="stop-color:#FFF1D9"/>
		<stop  offset="0.3607" style="stop-color:#F8DABD"/>
		<stop  offset="0.882" style="stop-color:#EDB38F"/>
		<stop  offset="1" style="stop-color:#FCD0AF"/>
	</linearGradient>
	<path fill="url(#SVGID_3_)" d="M48.671,11.471c0,0-2.97,9.694-8.952,13.242c-5.986,3.549-8.181,2.507-12.617,5.064
		c-9.382,5.403-16.549,3.917-17.01,3.039c-0.684-1.298,11.341-13.064,11.341-13.064l9.801-9.558L48.671,11.471z"/>
	<path fill="#231F20" d="M46.637,9.659l1.503,0.456c0,0,0.363,0.52,0.386,0.549c0.02,0.031-0.123,0.891-0.123,0.891l-1.06,0.984
		l-0.498,0.116l-0.403-0.961L46.637,9.659z"/>
	
		<linearGradient id="SVGID_4_" gradientUnits="userSpaceOnUse" x1="47.5186" y1="19.2534" x2="44.9833" y2="16.334" gradientTransform="matrix(1.029 0.2202 -0.2202 1.029 -2.6014 -15.0618)">
		<stop  offset="0" style="stop-color:#FFFFFF"/>
		<stop  offset="0.1806" style="stop-color:#F9F9F9"/>
		<stop  offset="0.4272" style="stop-color:#E7E8E9"/>
		<stop  offset="0.7119" style="stop-color:#CBCCCD"/>
		<stop  offset="1" style="stop-color:#A6A8AB"/>
	</linearGradient>
	<path fill="url(#SVGID_4_)" d="M46.719,8.706c0,0,0.577,2.403,0.243,3.842c0,0-9.374,5.543-11.447,5.083
		c-2.076-0.461,0.689-5.072,0.689-5.072l6-4.257L46.719,8.706z"/>
	<path fill="#FFF1D9" d="M46.948,9.904c0,0,1.479-0.117,1.489,1.135c0.011,1.522-11.814,6.329-12.402,6.517
		c-0.587,0.189-6.216,2.328-6.216,2.328l-0.59,0.433c0,0,1.425,0.696,3.231,0.518c1.806-0.177,2.964-1.652,3.786-2.742
		c0.58-0.768,12.005-4.63,12.477-6.754c0.19-0.872-0.258-1.391-0.78-1.64c-0.522-0.25-1.084-0.23-1.084-0.23L46.948,9.904z"/>
	
		<radialGradient id="SVGID_5_" cx="29.2969" cy="15.2412" r="28.3968" gradientTransform="matrix(1.029 0.2202 -0.2202 1.029 -2.6014 -15.0618)" gradientUnits="userSpaceOnUse">
		<stop  offset="0" style="stop-color:#6D6E70"/>
		<stop  offset="0.8315" style="stop-color:#231F20"/>
		<stop  offset="1" style="stop-color:#4D4D4F"/>
	</radialGradient>
	<path fill="url(#SVGID_5_)" d="M26.839,2.726c11.05-3.339,19.735,1.404,20.872,5.454c0.415,1.473-9.103,5.436-10.706,8.307
		c-1.832,3.28-4.053,4.646-6.738,4.13c-4.248-0.815-6.139,5.757-12.495,8.743c-1.526,0.717-3.36,1.535-5.239,3.073
		c-3.782,3.1-5.837,10.871-5.837,10.871S2.984,31.969,6.113,24.061c1.999-5.051,4.621-9.004,7.464-11.546
		C16.502,9.898,21.399,4.372,26.839,2.726z"/>
	<circle fill="#231F20" cx="32.57" cy="16.805" r="2.52"/>
	<circle fill="#58595B" cx="32.623" cy="17.109" r="2.528"/>
	
		<radialGradient id="SVGID_6_" cx="37.416" cy="21.5313" r="4.2042" gradientTransform="matrix(1.029 0.2202 -0.2202 1.029 -2.6014 -15.0618)" gradientUnits="userSpaceOnUse">
		<stop  offset="0.3034" style="stop-color:#FFFFFF"/>
		<stop  offset="0.455" style="stop-color:#FAFAFA"/>
		<stop  offset="0.6469" style="stop-color:#EAEAEB"/>
		<stop  offset="0.8597" style="stop-color:#D0D1D3"/>
		<stop  offset="1" style="stop-color:#BBBDBF"/>
	</radialGradient>
	<circle fill="url(#SVGID_6_)" cx="32.581" cy="16.981" r="2.458"/>
	
		<linearGradient id="SVGID_7_" gradientUnits="userSpaceOnUse" x1="-3941.9888" y1="-3869.3335" x2="-3945.5054" y2="-3877.8145" gradientTransform="matrix(0.4047 0.2074 -0.2074 0.4047 825.2562 2401.3447)">
		<stop  offset="0" style="stop-color:#25BCBD"/>
		<stop  offset="1" style="stop-color:#008183"/>
	</linearGradient>
	<circle fill="url(#SVGID_7_)" cx="32.543" cy="16.5" r="1.53"/>
	<circle fill="#231F20" cx="32.544" cy="16.182" r="0.82"/>
	<circle fill="#FFFFFF" cx="32.31" cy="15.581" r="0.339"/>
	<path fill="#58595B" d="M28.906,20.945c0,0-0.55,1.424-0.742,2.077c-0.471,1.614-1.439,4.21-3.598,5.3
		c-2.159,1.089-4.564,0.655-4.564,0.655l4.291-4.479L28.906,20.945z"/>
	
		<linearGradient id="SVGID_8_" gradientUnits="userSpaceOnUse" x1="-3950.8408" y1="-3852.2212" x2="-3953.2383" y2="-3837.5969" gradientTransform="matrix(0.4047 0.2074 -0.2074 0.4047 825.7469 2401.9063)">
		<stop  offset="0" style="stop-color:#6D6E70"/>
		<stop  offset="0.3812" style="stop-color:#535354"/>
		<stop  offset="1" style="stop-color:#231F20"/>
	</linearGradient>
	<path fill="url(#SVGID_8_)" d="M24.668,22.606c2.006-0.917,2.491-1.512,4.269-1.72c0,0-0.737,0.689-1.088,1.974
		c-0.506,1.861-1.612,4.091-3.399,5.089c-1.961,1.094-4.448,1.028-4.448,1.028S22.172,23.748,24.668,22.606z"/>
	<path fill="#6D6E70" d="M7.942,35.611c0,0,0.996,2.606,1.527,4.535c0.26,0.943,1.167,3.169,1.324,4.02
		c0.245,1.332,0.079,3.383-1.365,5.117l0.793-3.355l-2.552-6.716L7.942,35.611z"/>
	
		<linearGradient id="SVGID_9_" gradientUnits="userSpaceOnUse" x1="18.209" y1="45.7695" x2="22.8994" y2="53.3807" gradientTransform="matrix(1.029 0.2202 -0.2202 1.029 -2.6014 -15.0618)">
		<stop  offset="0" style="stop-color:#6D6E70"/>
		<stop  offset="0.3812" style="stop-color:#535354"/>
		<stop  offset="1" style="stop-color:#231F20"/>
	</linearGradient>
	<path fill="url(#SVGID_9_)" d="M7.942,35.611c0,0,1.523,5.931,2.188,7.457c1.24,2.842-0.702,6.215-0.702,6.215
		s0.549-3.095-0.846-3.465c-1.202-0.317-1.727-1.397-1.887-2.515C6.569,39.725,7.942,35.611,7.942,35.611z"/>
	
		<ellipse transform="matrix(0.4903 0.8715 -0.8715 0.4903 16.6811 -18.2436)" fill="#808184" cx="23.939" cy="5.141" rx="0.405" ry="1.227"/>
	
		<ellipse transform="matrix(0.489 0.8723 -0.8723 0.489 16.7178 -18.255)" fill="#231F20" cx="23.939" cy="5.141" rx="0.298" ry="0.903"/>
</g>
</svg>
