<?xml version="1.0" encoding="utf-8"?>
<!-- Generator: Adobe Illustrator 14.0.0, SVG Export Plug-In . SVG Version: 6.00 Build 43363)  -->
<!DOCTYPE svg PUBLIC "-//W3C//DTD SVG 1.1//EN" "http://www.w3.org/Graphics/SVG/1.1/DTD/svg11.dtd">
<svg version="1.1" id="图层_1" xmlns="http://www.w3.org/2000/svg" xmlns:xlink="http://www.w3.org/1999/xlink" x="0px" y="0px"
	 width="50px" height="50px" viewBox="0 0 50 50" enable-background="new 0 0 50 50" xml:space="preserve">
<g>
	
		<linearGradient id="SVGID_1_" gradientUnits="userSpaceOnUse" x1="208.1973" y1="-122.2251" x2="205.6092" y2="-109.4685" gradientTransform="matrix(0.911 0 0 0.911 -159.4565 139.6451)">
		<stop  offset="0" style="stop-color:#008183"/>
		<stop  offset="1" style="stop-color:#96ACD9"/>
	</linearGradient>
	<path fill="url(#SVGID_1_)" d="M29.073,20.853c0,0,6.263,4.123,3.044,10.592c-2.002,4.027-2.814,12.1-2.552,15.5
		c0,0-1.983-10.018,1.328-17.766c1.525-3.563-2.507-7.347-2.507-7.347L29.073,20.853z"/>
	
		<linearGradient id="SVGID_2_" gradientUnits="userSpaceOnUse" x1="206.4521" y1="-124.2393" x2="203.1861" y2="-104.1504" gradientTransform="matrix(0.911 0 0 0.911 -160.2197 139.836)">
		<stop  offset="0" style="stop-color:#008183"/>
		<stop  offset="1" style="stop-color:#95D4D1"/>
	</linearGradient>
	<path fill="url(#SVGID_2_)" d="M27.347,21.628c0,0,5.531,4.457,2.031,11.538c-1.992,4.033-2.555,11.389-2.292,14.787
		c0,0-1.976-9.186,1.395-17.594c1.592-3.972-3.144-7.299-3.144-7.299L27.347,21.628z"/>
	
		<linearGradient id="SVGID_3_" gradientUnits="userSpaceOnUse" x1="203.4551" y1="-128.646" x2="206.2281" y2="-109.9129" gradientTransform="matrix(0.911 0 0 0.911 -160.9848 139.6451)">
		<stop  offset="0" style="stop-color:#009B9D"/>
		<stop  offset="1" style="stop-color:#EBCFE4"/>
	</linearGradient>
	<path fill="url(#SVGID_3_)" d="M27.121,21.573c0,0-5.62,4.106-3.268,10.331c1.59,4.207,1.653,7.576,0.939,15.346
		c0,0,3.092-9.988,0.814-17.305c-1.152-3.704,2.018-7.352,2.018-7.352L27.121,21.573z"/>
	
		<linearGradient id="SVGID_4_" gradientUnits="userSpaceOnUse" x1="201.377" y1="-123.8735" x2="205.5672" y2="-109.8846" gradientTransform="matrix(0.911 0 0 0.911 -159.4565 141.2632)">
		<stop  offset="0" style="stop-color:#009B9D"/>
		<stop  offset="1" style="stop-color:#95D4D1"/>
	</linearGradient>
	<path fill="url(#SVGID_4_)" d="M24.369,22.825c0,0-4.815,4.417-0.997,11.491c2.505,4.641,3.649,7.803,4.301,12.701
		c0,0,0.244-8.773-2.69-13.174c-3.24-4.863,0.175-10.536,0.175-10.536L24.369,22.825z"/>
	
		<linearGradient id="SVGID_5_" gradientUnits="userSpaceOnUse" x1="208.2031" y1="-119.5596" x2="207.7718" y2="-104.8932" gradientTransform="matrix(0.911 0 0 0.911 -159.4565 139.6451)">
		<stop  offset="0" style="stop-color:#009B9D"/>
		<stop  offset="1" style="stop-color:#A7D7B6"/>
	</linearGradient>
	<path fill="url(#SVGID_5_)" d="M28.275,22.042c0,0,5.555,3.409,4.696,10.618c-0.624,5.238-1.123,9.488-0.182,13.553
		c0,0-2.903-6.246-1.576-13.391c1.186-6.375-3.801-9.817-3.801-9.817L28.275,22.042z"/>
	
		<linearGradient id="SVGID_6_" gradientUnits="userSpaceOnUse" x1="206.1211" y1="-124.7393" x2="208.2162" y2="-104.8974" gradientTransform="matrix(0.911 0 0 0.911 -159.4565 139.6451)">
		<stop  offset="0" style="stop-color:#009B9D"/>
		<stop  offset="1" style="stop-color:#FABDA7"/>
	</linearGradient>
	<path fill="url(#SVGID_6_)" d="M28.295,23.002c0,0-3.87,2.558,0.298,9.771c3.097,5.359-0.14,13.334-0.14,13.334
		s5.377-7.734,1.655-13.896c-3.768-6.234-0.875-9.427-0.875-9.427L28.295,23.002z"/>
	
		<linearGradient id="SVGID_7_" gradientUnits="userSpaceOnUse" x1="204.3857" y1="-122.4795" x2="206.4193" y2="-108.244" gradientTransform="matrix(0.911 0 0 0.911 -159.4565 139.6451)">
		<stop  offset="0" style="stop-color:#009B9D"/>
		<stop  offset="1" style="stop-color:#FFF8B7"/>
	</linearGradient>
	<path fill="url(#SVGID_7_)" d="M26.652,23.359c0,0-3.43,4.262-0.699,9.527c2.724,5.246,2.147,12.111,2.147,13.387
		c0,0,2.074-8.664-0.688-14.287c-2.938-5.98,0.599-9.153,0.599-9.153L26.652,23.359z"/>
	
		<linearGradient id="SVGID_8_" gradientUnits="userSpaceOnUse" x1="207.9063" y1="-130.5273" x2="210.3207" y2="-123.4017" gradientTransform="matrix(0.911 0 0 0.911 -163.3779 139.023)">
		<stop  offset="0" style="stop-color:#009B9D"/>
		<stop  offset="0.5419" style="stop-color:#12ABAD"/>
		<stop  offset="1" style="stop-color:#25BCBD"/>
	</linearGradient>
	<path fill="url(#SVGID_8_)" d="M16.951,22.456c0,0-0.197,6.296,2.022,6.849c2.641,0.66,2.132-2.49,3.971-1.252
		c1.293,0.869,2.64,1.094,3.552-0.783c0.66-1.359,1.828-1.884,3.115-1.239c1.288,0.645,2.649,0.461,3.455-1.097
		c0.805-1.557,1.075-1.597,2.196-1.209c1.555,0.536,3.171-3.647-0.556-8.165C32,12.275,21.511,16.534,21.511,16.534l-3.487,4.024
		L16.951,22.456z"/>
	<g>
		<defs>
			<path id="SVGID_9_" d="M16.54,7.361c0,0,3.292-3.46,9.998-3.26c7.278,0.218,12.161,9.051,11.033,12.29
				c-1.608,4.625-6.155-1.417-7.706,4.225c-0.75,2.736-3.586,3.589-5.786,2.142c-2.54-1.674-4.114-0.697-5.708,1.108
				c-2.207,2.502-5.103,0.907-5.479-2.593C12.517,17.785,13.565,9.592,16.54,7.361z"/>
		</defs>
		<linearGradient id="SVGID_10_" gradientUnits="userSpaceOnUse" x1="20.373" y1="6.0308" x2="27.6255" y2="23.53">
			<stop  offset="0" style="stop-color:#8197CC"/>
			<stop  offset="1" style="stop-color:#00AFB4"/>
		</linearGradient>
		<use xlink:href="#SVGID_9_"  overflow="visible" fill="url(#SVGID_10_)"/>
		<clipPath id="SVGID_11_">
			<use xlink:href="#SVGID_9_"  overflow="visible"/>
		</clipPath>
	</g>
	
		<radialGradient id="SVGID_12_" cx="228.6006" cy="-156.8794" r="5.1341" gradientTransform="matrix(0.911 0 0 0.911 -191.8056 148.0816)" gradientUnits="userSpaceOnUse">
		<stop  offset="0.3333" style="stop-color:#FFFFFF"/>
		<stop  offset="0.8933" style="stop-color:#A6A8AB"/>
		<stop  offset="1" style="stop-color:#BBBDBF"/>
	</radialGradient>
	<circle fill="url(#SVGID_12_)" cx="17.901" cy="6.635" r="2.479"/>
	
		<radialGradient id="SVGID_13_" cx="83.1895" cy="-126.0781" r="5.5599" gradientTransform="matrix(0.5422 0 0 0.5422 -28.0298 73.7466)" gradientUnits="userSpaceOnUse">
		<stop  offset="0" style="stop-color:#FFCA05"/>
		<stop  offset="1" style="stop-color:#F48120"/>
	</radialGradient>
	<circle fill="url(#SVGID_13_)" cx="17.609" cy="6.116" r="1.465"/>
	<circle fill="#231F20" cx="17.589" cy="5.857" r="0.761"/>
	<circle fill="#FFFFFF" cx="17.119" cy="5.406" r="0.331"/>
	<path fill="#5E89C6" d="M25.954,9.46c-3.543,4.131-7.225,2.444-7.225,2.444s1.688,0.996,3.839,0.279
		C25.024,11.365,25.954,9.46,25.954,9.46z"/>
	
		<radialGradient id="SVGID_14_" cx="209.7686" cy="-151.3174" r="5.1334" gradientTransform="matrix(0.911 0 0 0.911 -167.5112 140.9063)" gradientUnits="userSpaceOnUse">
		<stop  offset="0.3333" style="stop-color:#FFFFFF"/>
		<stop  offset="0.8933" style="stop-color:#A6A8AB"/>
		<stop  offset="1" style="stop-color:#BBBDBF"/>
	</radialGradient>
	<circle fill="url(#SVGID_14_)" cx="25.041" cy="4.526" r="2.479"/>
	
		<radialGradient id="SVGID_15_" cx="51.5518" cy="-116.7334" r="5.5581" gradientTransform="matrix(0.5422 0 0 0.5422 -3.7354 66.5717)" gradientUnits="userSpaceOnUse">
		<stop  offset="0" style="stop-color:#FFCA05"/>
		<stop  offset="1" style="stop-color:#F48120"/>
	</radialGradient>
	<circle fill="url(#SVGID_15_)" cx="24.749" cy="4.008" r="1.465"/>
	<circle fill="#231F20" cx="24.729" cy="3.749" r="0.76"/>
	<circle fill="#FFFFFF" cx="24.258" cy="3.297" r="0.331"/>
</g>
</svg>
