<?xml version="1.0" encoding="utf-8"?>
<!-- Generator: Adobe Illustrator 14.0.0, SVG Export Plug-In . SVG Version: 6.00 Build 43363)  -->
<!DOCTYPE svg PUBLIC "-//W3C//DTD SVG 1.1//EN" "http://www.w3.org/Graphics/SVG/1.1/DTD/svg11.dtd">
<svg version="1.1" id="图层_1" xmlns="http://www.w3.org/2000/svg" xmlns:xlink="http://www.w3.org/1999/xlink" x="0px" y="0px"
	 width="100px" height="100px" viewBox="0 0 100 100" enable-background="new 0 0 100 100" xml:space="preserve">
<g>
	<g>
		
			<radialGradient id="SVGID_1_" cx="79.2754" cy="86.2773" r="6.25" gradientTransform="matrix(1 0 0 1.1273 0 -4.5265)" gradientUnits="userSpaceOnUse">
			<stop  offset="0" style="stop-color:#140300"/>
			<stop  offset="1" style="stop-color:#3F1C00"/>
		</radialGradient>
		<path fill="url(#SVGID_1_)" d="M70.764,92.008c1.124,1.175,2.343,2.305,3.718,3.164c1.62,1.013,2.952-1.364,5.106-1.469
			c1.371-0.063,3.23,2.422,4.525,1.507c1.296-0.92,2.533-2.222,3.673-3.835C81.079,89.683,75.597,89.313,70.764,92.008z"/>
		
			<radialGradient id="SVGID_2_" cx="20.937" cy="86.5166" r="6.9273" gradientTransform="matrix(1 0 0 1.1273 0 -4.5265)" gradientUnits="userSpaceOnUse">
			<stop  offset="0" style="stop-color:#140300"/>
			<stop  offset="1" style="stop-color:#3F1C00"/>
		</radialGradient>
		<path fill="url(#SVGID_2_)" d="M11.695,91.802c1.466,1.584,2.02,3.897,4.017,4.698c1.995,0.797,3.833-1.519,5.588-1.6
			c1.772-0.08,5.502,1.959,6.787,1.198c1.595-0.941,0.974-3.321,2.093-4.724C22.897,87.315,16.191,90.343,11.695,91.802z"/>
		
			<radialGradient id="SVGID_3_" cx="51.625" cy="78.9268" r="59.6862" gradientTransform="matrix(1 0 0 1.1273 0 -4.5265)" gradientUnits="userSpaceOnUse">
			<stop  offset="0" style="stop-color:#1F0F00"/>
			<stop  offset="1" style="stop-color:#5F3D00"/>
		</radialGradient>
		<path fill="url(#SVGID_3_)" d="M89.239,63.603c-9.061-19.2-19.932-38.288-38.408-38.106C32.354,25.68,20.036,45.63,11.339,62.378
			c-5.604,10.793-4.266,24.431,0.355,29.424c4.496-1.459,11.148-2.578,18.484-0.427c2.582-3.229,5.798-11.842,19.928-11.025
			c14.13,0.815,17.792,8.659,20.656,11.658c4.262-1.326,10.315-2.325,17.022-0.633C92.685,84.452,94.428,74.604,89.239,63.603z"/>
	</g>
	
		<radialGradient id="SVGID_4_" cx="93.2549" cy="16.0449" r="7.2246" gradientTransform="matrix(1.1915 0 0 1 -65.5282 0)" gradientUnits="userSpaceOnUse">
		<stop  offset="0" style="stop-color:#1F0F00"/>
		<stop  offset="1" style="stop-color:#5F3D00"/>
	</radialGradient>
	<path fill="url(#SVGID_4_)" d="M37.657,32.161c0,0,0.411-6.884,3.705-9.006c3.294-2.119,2.026-12.629,4.089-12.682
		c2.063-0.055,3.294,9.586,5.756,13.371c2.771,4.265,1.217,10.383-4.115,10.039C41.759,33.539,37.657,32.161,37.657,32.161z"/>
	
		<radialGradient id="SVGID_5_" cx="90.5752" cy="21.6333" r="7.2252" gradientTransform="matrix(1.1915 0 0 1 -65.5282 0)" gradientUnits="userSpaceOnUse">
		<stop  offset="0" style="stop-color:#1F0F00"/>
		<stop  offset="1" style="stop-color:#5F3D00"/>
	</radialGradient>
	<path fill="url(#SVGID_5_)" d="M34.463,37.752c0,0,0.411-6.887,3.704-9.006c3.296-2.121,2.026-12.63,4.089-12.686
		c2.063-0.054,3.294,9.585,5.757,13.375c2.771,4.262,1.217,10.382-4.115,10.038C38.565,39.127,34.463,37.752,34.463,37.752z"/>
	<radialGradient id="SVGID_6_" cx="49.7646" cy="10.3999" r="8.3784" gradientUnits="userSpaceOnUse">
		<stop  offset="0" style="stop-color:#1F0F00"/>
		<stop  offset="1" style="stop-color:#5F3D00"/>
	</radialGradient>
	<path fill="url(#SVGID_6_)" d="M42.048,29.091c0,0,0.399-7.985,3.606-10.444c3.206-2.457,1.971-14.646,3.979-14.708
		c2.009-0.063,3.208,11.117,5.604,15.507c2.698,4.945,1.183,12.041-4.006,11.642C46.041,30.688,42.048,29.091,42.048,29.091z"/>
	<g>
		
			<radialGradient id="SVGID_7_" cx="-1070.3159" cy="-421.436" r="11.3726" gradientTransform="matrix(-0.8202 -0.3124 -0.3198 0.8395 -934.5522 56.0193)" gradientUnits="userSpaceOnUse">
			<stop  offset="0.2135" style="stop-color:#3F3200"/>
			<stop  offset="1" style="stop-color:#5F4400"/>
		</radialGradient>
		<path fill="url(#SVGID_7_)" d="M64.09,29.737c0,0,7.104-8.305,15.175-4.334c8.074,3.966-5.711,9.688-6.62,11.523
			C71.732,38.761,63.31,34.022,64.09,29.737z"/>
		<path fill="#271700" d="M65.094,31.433c0,0,7.117-6.018,12.265-3.497c5.144,2.524-6.224,7.148-6.905,8.576
			C69.771,37.939,64.394,34.711,65.094,31.433z"/>
	</g>
	<g>
		
			<radialGradient id="SVGID_8_" cx="-1451.9043" cy="-734.2764" r="11.3733" gradientTransform="matrix(0.6624 -0.4641 0.5833 0.8323 1412.6696 -23.7272)" gradientUnits="userSpaceOnUse">
			<stop  offset="0.2135" style="stop-color:#3F3200"/>
			<stop  offset="1" style="stop-color:#5F4400"/>
		</radialGradient>
		<path fill="url(#SVGID_8_)" d="M33.425,29.439c0,0-9.46-7.588-15.677-2.077c-6.218,5.51,8.62,9.276,10.095,11.06
			C29.317,40.206,35.604,33.828,33.425,29.439z"/>
		<path fill="#271700" d="M33.058,31.391c0,0-8.702-5.172-12.668-1.67c-3.964,3.505,8.246,6.514,9.365,7.905
			C30.877,39.02,34.82,34.732,33.058,31.391z"/>
	</g>
	
		<radialGradient id="SVGID_9_" cx="-534.4927" cy="108.709" r="26.2717" gradientTransform="matrix(-1 0 0 -0.8013 -486.3389 157.6871)" gradientUnits="userSpaceOnUse">
		<stop  offset="0" style="stop-color:#4A2E00"/>
		<stop  offset="1" style="stop-color:#7F5700"/>
	</radialGradient>
	<path fill="url(#SVGID_9_)" d="M50.953,86.282C74.14,85.7,81.872,51.236,77.527,42.205c-4.343-9.035-15.249-22.232-26.684-21.96
		c-11.435,0.272-23.493,11.503-28.347,22.321C17.643,53.383,27.766,86.862,50.953,86.282z"/>
	<g>
		<g>
			<path fill="#FFFFFF" d="M65.095,34.476c5.485,0,9.948,4.471,9.948,9.954c0,5.49-4.463,9.956-9.948,9.956
				c-5.491,0-9.955-4.466-9.955-9.956C55.14,38.947,59.604,34.476,65.095,34.476z"/>
			
				<linearGradient id="SVGID_10_" gradientUnits="userSpaceOnUse" x1="-18.5098" y1="44.4321" x2="3.167" y2="44.4321" gradientTransform="matrix(-1 0 0 1 57.4189 0)">
				<stop  offset="0" style="stop-color:#272C34"/>
				<stop  offset="1" style="stop-color:#292933"/>
			</linearGradient>
			<path fill="url(#SVGID_10_)" d="M54.252,44.43c0,5.977,4.862,10.84,10.843,10.84c5.973,0,10.834-4.863,10.834-10.84
				c0-5.975-4.861-10.836-10.834-10.836C59.114,33.594,54.252,38.455,54.252,44.43z M55.14,44.43c0-5.483,4.464-9.954,9.955-9.954
				c5.485,0,9.948,4.471,9.948,9.954c0,5.49-4.463,9.956-9.948,9.956C59.604,54.386,55.14,49.92,55.14,44.43z"/>
		</g>
		
			<radialGradient id="SVGID_11_" cx="-7.6724" cy="44.4316" r="10.1189" gradientTransform="matrix(-1 0 0 1 57.4189 0)" gradientUnits="userSpaceOnUse">
			<stop  offset="0" style="stop-color:#FFFFFF"/>
			<stop  offset="1" style="stop-color:#E5E5E5"/>
		</radialGradient>
		<path fill="url(#SVGID_11_)" d="M54.971,44.43c0,5.593,4.531,10.119,10.124,10.119c5.586,0,10.117-4.525,10.117-10.119
			c0-5.589-4.531-10.116-10.117-10.116C59.502,34.314,54.971,38.841,54.971,44.43z"/>
		
			<linearGradient id="SVGID_12_" gradientUnits="userSpaceOnUse" x1="-15.3525" y1="44.4316" x2="0.0078" y2="44.4316" gradientTransform="matrix(-1 0 0 1 57.4189 0)">
			<stop  offset="0" style="stop-color:#F3AF18"/>
			<stop  offset="1" style="stop-color:#CAA21B"/>
		</linearGradient>
		<path fill="url(#SVGID_12_)" d="M57.411,44.43c0,4.244,3.44,7.68,7.684,7.68c4.238,0,7.677-3.437,7.677-7.68
			c0-4.238-3.438-7.677-7.677-7.677C60.852,36.753,57.411,40.192,57.411,44.43z"/>
		
			<radialGradient id="SVGID_13_" cx="-7.6724" cy="44.4341" r="5.5264" gradientTransform="matrix(-1 0 0 1 57.4189 0)" gradientUnits="userSpaceOnUse">
			<stop  offset="0" style="stop-color:#1F1600"/>
			<stop  offset="1" style="stop-color:#000000"/>
		</radialGradient>
		<path fill="url(#SVGID_13_)" d="M59.565,44.43c0,3.054,2.474,5.531,5.529,5.531c3.048,0,5.522-2.477,5.522-5.531
			c0-3.052-2.475-5.523-5.522-5.523C62.039,38.907,59.565,41.378,59.565,44.43z"/>
		
			<radialGradient id="SVGID_14_" cx="-231.7666" cy="-103.29" r="1.5449" gradientTransform="matrix(-0.6444 0.4405 0.5644 0.8255 -22.0567 235.8591)" gradientUnits="userSpaceOnUse">
			<stop  offset="0" style="stop-color:#FFFFFF"/>
			<stop  offset="1" style="stop-color:#E5E5E5"/>
		</radialGradient>
		<path fill="url(#SVGID_14_)" d="M68.001,49.182c0.483,0.705,1.32,0.971,1.867,0.592c0.551-0.375,0.606-1.248,0.126-1.954
			c-0.482-0.706-1.317-0.974-1.868-0.595C67.574,47.599,67.522,48.478,68.001,49.182z"/>
		
			<radialGradient id="SVGID_15_" cx="-177.9609" cy="-272.6001" r="1.5471" gradientTransform="matrix(-0.478 0.3268 0.4186 0.6124 95.2145 274.4133)" gradientUnits="userSpaceOnUse">
			<stop  offset="0" style="stop-color:#FFFFFF"/>
			<stop  offset="1" style="stop-color:#E5E5E5"/>
		</radialGradient>
		<path fill="url(#SVGID_15_)" d="M65.429,49.819c0.358,0.525,0.978,0.721,1.39,0.442c0.406-0.279,0.444-0.93,0.091-1.451
			c-0.36-0.526-0.98-0.724-1.387-0.444C65.117,48.644,65.071,49.295,65.429,49.819z"/>
	</g>
	<g>
		<g>
			<path fill="#FFFFFF" d="M33.318,34.69c4.377,0,7.945,3.568,7.945,7.947c0,4.382-3.568,7.948-7.945,7.948
				c-4.382,0-7.946-3.565-7.946-7.948C25.372,38.259,28.936,34.69,33.318,34.69z"/>
			
				<linearGradient id="SVGID_16_" gradientUnits="userSpaceOnUse" x1="15.4512" y1="42.6396" x2="32.7544" y2="42.6396" gradientTransform="matrix(-1 0 0 1 57.4189 0)">
				<stop  offset="0" style="stop-color:#272C34"/>
				<stop  offset="1" style="stop-color:#292933"/>
			</linearGradient>
			<path fill="url(#SVGID_16_)" d="M24.665,42.637c0,4.77,3.879,8.655,8.654,8.655c4.771,0,8.649-3.885,8.649-8.655
				c0-4.77-3.879-8.65-8.649-8.65C28.544,33.987,24.665,37.867,24.665,42.637z M25.372,42.637c0-4.378,3.564-7.947,7.946-7.947
				c4.377,0,7.945,3.568,7.945,7.947c0,4.382-3.568,7.948-7.945,7.948C28.936,50.585,25.372,47.02,25.372,42.637z"/>
		</g>
		
			<radialGradient id="SVGID_17_" cx="24.1016" cy="42.6396" r="8.0781" gradientTransform="matrix(-1 0 0 1 57.4189 0)" gradientUnits="userSpaceOnUse">
			<stop  offset="0" style="stop-color:#FFFFFF"/>
			<stop  offset="1" style="stop-color:#E5E5E5"/>
		</radialGradient>
		<path fill="url(#SVGID_17_)" d="M25.238,42.637c0,4.464,3.618,8.08,8.08,8.08c4.458,0,8.078-3.615,8.078-8.08
			c0-4.46-3.621-8.075-8.078-8.075C28.856,34.562,25.238,38.177,25.238,42.637z"/>
		
			<linearGradient id="SVGID_18_" gradientUnits="userSpaceOnUse" x1="17.9712" y1="42.6387" x2="30.2324" y2="42.6387" gradientTransform="matrix(-1 0 0 1 57.4189 0)">
			<stop  offset="0" style="stop-color:#F3AF18"/>
			<stop  offset="1" style="stop-color:#CAA21B"/>
		</linearGradient>
		<path fill="url(#SVGID_18_)" d="M27.187,42.637c0,3.39,2.745,6.13,6.132,6.13c3.384,0,6.129-2.74,6.129-6.13
			c0-3.382-2.745-6.127-6.129-6.127C29.932,36.51,27.187,39.255,27.187,42.637z"/>
		
			<radialGradient id="SVGID_19_" cx="24.1021" cy="42.6401" r="4.4116" gradientTransform="matrix(-1 0 0 1 57.4189 0)" gradientUnits="userSpaceOnUse">
			<stop  offset="0" style="stop-color:#1F1600"/>
			<stop  offset="1" style="stop-color:#000000"/>
		</radialGradient>
		<path fill="url(#SVGID_19_)" d="M28.905,42.637c0,2.438,1.977,4.415,4.413,4.415c2.434,0,4.41-1.976,4.41-4.415
			c0-2.437-1.976-4.409-4.41-4.409C30.882,38.229,28.905,40.2,28.905,42.637z"/>
		
			<radialGradient id="SVGID_20_" cx="-199.2207" cy="-123.8247" r="1.2327" gradientTransform="matrix(-0.6444 0.4405 0.5644 0.8255 -22.0567 235.8591)" gradientUnits="userSpaceOnUse">
			<stop  offset="0" style="stop-color:#FFFFFF"/>
			<stop  offset="1" style="stop-color:#E5E5E5"/>
		</radialGradient>
		<path fill="url(#SVGID_20_)" d="M35.64,46.429c0.383,0.565,1.053,0.776,1.49,0.472c0.441-0.296,0.485-0.996,0.101-1.559
			c-0.384-0.564-1.053-0.777-1.492-0.474C35.3,45.167,35.257,45.868,35.64,46.429z"/>
		
			<radialGradient id="SVGID_21_" cx="-135.0547" cy="-300.0332" r="1.2344" gradientTransform="matrix(-0.478 0.3268 0.4186 0.6124 95.2145 274.4133)" gradientUnits="userSpaceOnUse">
			<stop  offset="0" style="stop-color:#FFFFFF"/>
			<stop  offset="1" style="stop-color:#E5E5E5"/>
		</radialGradient>
		<path fill="url(#SVGID_21_)" d="M33.585,46.938c0.288,0.42,0.781,0.576,1.109,0.354c0.323-0.225,0.356-0.741,0.071-1.159
			c-0.288-0.416-0.783-0.577-1.106-0.353C33.335,46.002,33.301,46.521,33.585,46.938z"/>
	</g>
	
		<radialGradient id="SVGID_22_" cx="762.5703" cy="155.3027" r="16.3884" gradientTransform="matrix(-0.8974 -0.3855 0.8097 -1.8849 621.543 673.3497)" gradientUnits="userSpaceOnUse">
		<stop  offset="0.2865" style="stop-color:#909090"/>
		<stop  offset="0.7472" style="stop-color:#D6D6D6"/>
	</radialGradient>
	<path fill="url(#SVGID_22_)" d="M66.855,81.538c0,0-2.521-1.448-4.961-1.396c-2.436,0.051-3.577,0.664-1.422-2.817
		c2.151-3.479,4.958-15.919,7.706-14.877C70.929,63.491,73.775,78.612,66.855,81.538z"/>
	
		<radialGradient id="SVGID_23_" cx="1029.3496" cy="100.1768" r="16.3879" gradientTransform="matrix(0.8974 -0.3855 -0.8097 -1.8849 -803.5665 673.3497)" gradientUnits="userSpaceOnUse">
		<stop  offset="0.2865" style="stop-color:#909090"/>
		<stop  offset="0.7472" style="stop-color:#D6D6D6"/>
	</radialGradient>
	<path fill="url(#SVGID_23_)" d="M35.163,82.603c0,0,2.521-1.447,4.961-1.396c2.435,0.051,3.578,0.665,1.423-2.817
		c-2.152-3.479-4.958-15.92-7.708-14.878C31.089,64.555,28.245,79.675,35.163,82.603z"/>
	<g>
		<radialGradient id="SVGID_24_" cx="48.6729" cy="96.9619" r="11.1212" gradientUnits="userSpaceOnUse">
			<stop  offset="0" style="stop-color:#5F3D00"/>
			<stop  offset="0.9831" style="stop-color:#8D3F00"/>
		</radialGradient>
		<path fill="url(#SVGID_24_)" d="M48.387,71.877c-2.5,0-10.308-4.061-13.431,3.123c-3.123,7.182,3.743,16.14,15.616,15.613
			c10.617-0.467,17.644-4.526,16.707-12.647c-0.889-7.7-9.525-8.588-12.961-7.026C50.884,72.501,48.387,71.877,48.387,71.877z"/>
		
			<radialGradient id="SVGID_25_" cx="106.6162" cy="281.9873" r="6.8492" gradientTransform="matrix(1.0707 -0.2588 0.2349 0.972 -132.32 -164.4735)" gradientUnits="userSpaceOnUse">
			<stop  offset="0" style="stop-color:#140300"/>
			<stop  offset="1" style="stop-color:#3F1C00"/>
		</radialGradient>
		<path fill="url(#SVGID_25_)" d="M47.18,79.217c0.899,3.721-0.589,7.275-3.321,7.935c-2.733,0.661-5.68-1.819-6.582-5.544
			c-0.897-3.723,0.589-7.276,3.323-7.935C43.333,73.012,46.28,75.493,47.18,79.217z"/>
		
			<radialGradient id="SVGID_26_" cx="-54.2319" cy="-105.4536" r="5.6899" gradientTransform="matrix(1.1137 0.2953 -0.2563 0.9666 87.5341 198.0987)" gradientUnits="userSpaceOnUse">
			<stop  offset="0" style="stop-color:#140300"/>
			<stop  offset="1" style="stop-color:#3F1C00"/>
		</radialGradient>
		<path fill="url(#SVGID_26_)" d="M64.565,81.579c-0.981,3.703-4.084,6.095-6.929,5.339c-2.843-0.754-4.352-4.365-3.369-8.066
			c0.979-3.703,4.085-6.094,6.925-5.339C64.036,74.266,65.546,77.879,64.565,81.579z"/>
	</g>
</g>
</svg>
