<?xml version="1.0" encoding="utf-8"?>
<!-- Generator: Adobe Illustrator 14.0.0, SVG Export Plug-In . SVG Version: 6.00 Build 43363)  -->
<!DOCTYPE svg PUBLIC "-//W3C//DTD SVG 1.1//EN" "http://www.w3.org/Graphics/SVG/1.1/DTD/svg11.dtd">
<svg version="1.1" id="图层_1" xmlns="http://www.w3.org/2000/svg" xmlns:xlink="http://www.w3.org/1999/xlink" x="0px" y="0px"
	 width="50px" height="50px" viewBox="0 0 50 50" enable-background="new 0 0 50 50" xml:space="preserve">
<g>
	
		<radialGradient id="SVGID_1_" cx="198.0439" cy="-344.8467" r="3.1037" gradientTransform="matrix(1.0599 0.6877 -0.6877 1.0599 -426.0536 231.4174)" gradientUnits="userSpaceOnUse">
		<stop  offset="0" style="stop-color:#BB8BBE"/>
		<stop  offset="0.2207" style="stop-color:#B180B8"/>
		<stop  offset="0.6074" style="stop-color:#9663A9"/>
		<stop  offset="0.8933" style="stop-color:#7E499B"/>
		<stop  offset="1" style="stop-color:#B271AE"/>
	</radialGradient>
	<path fill="url(#SVGID_1_)" d="M21.203,6.301c0,0-2.812-1.192-1.604-5.004c3.577,0.469,3.876,3.59,2.93,4.812
		C21.105,6.513,21.203,6.301,21.203,6.301z"/>
	
		<radialGradient id="SVGID_2_" cx="192.0273" cy="-326.9121" r="2.9056" gradientTransform="matrix(1.6101 0 0 1.6101 -281.9407 552.7399)" gradientUnits="userSpaceOnUse">
		<stop  offset="0" style="stop-color:#FCD0AF"/>
		<stop  offset="1" style="stop-color:#EBA079"/>
	</radialGradient>
	<path fill="url(#SVGID_2_)" d="M27.018,20.425c0,0-0.73,2.377,1.158,5.365l-3.229,0.245c0,0-0.184-4.818,0.121-5.61
		C25.374,19.633,27.018,20.425,27.018,20.425z"/>
	
		<linearGradient id="SVGID_3_" gradientUnits="userSpaceOnUse" x1="191.252" y1="-325.2769" x2="191.0386" y2="-332.1122" gradientTransform="matrix(1.6101 0 0 1.6101 -282.8929 552.7399)">
		<stop  offset="0" style="stop-color:#9564A9"/>
		<stop  offset="1" style="stop-color:#5D2684"/>
	</linearGradient>
	<path fill="url(#SVGID_3_)" d="M26.287,19.694c0,0-2.255,6.584,2.623,11.277l-7.445-0.126c0,0-1.274-7.006,1.72-11.35
		C26.895,14.113,26.287,19.694,26.287,19.694z"/>
	
		<radialGradient id="SVGID_4_" cx="198.3887" cy="-308.2725" r="7.9947" gradientTransform="matrix(0.8188 0 0 0.8188 -133.7742 294.1174)" gradientUnits="userSpaceOnUse">
		<stop  offset="0" style="stop-color:#9564A9"/>
		<stop  offset="0.3851" style="stop-color:#9362A8"/>
		<stop  offset="0.6038" style="stop-color:#8C59A4"/>
		<stop  offset="0.7809" style="stop-color:#804C9E"/>
		<stop  offset="0.9347" style="stop-color:#6F3895"/>
		<stop  offset="1" style="stop-color:#652D90"/>
	</radialGradient>
	<path fill="url(#SVGID_4_)" d="M27.264,36.071c0,0-2.916,3.072-2.602,5.903c0.374,3.364,5.65,4.413,8.107,2.304
		c2.473-2.122,0.402-5.406-1.203-5.307c-1.598,0.103-1.498,2.103-0.598,2.703c0,0-2.008-0.423-1.502-2
		c0.637-1.982,3.027-2.532,5.006-0.703c2.439,2.264,1.455,9.918-6.291,9.729c-8.221-0.201-8.575-10.124-5.558-12.075
		C25.297,34.894,27.264,36.071,27.264,36.071z"/>
	
		<linearGradient id="SVGID_5_" gradientUnits="userSpaceOnUse" x1="184.6182" y1="-322.6016" x2="187.4689" y2="-323.0066" gradientTransform="matrix(1.6101 0 0 1.6101 -282.8929 552.7399)">
		<stop  offset="0" style="stop-color:#9564A9"/>
		<stop  offset="1" style="stop-color:#5D2684"/>
	</linearGradient>
	<path fill="url(#SVGID_5_)" d="M18.363,30.851c0,0-3.735-1.34-4.695-0.427c-0.593,0.567,1.037,5.852,2.684,5.792
		c1.049-0.039,2.577-3.458,2.577-3.458L18.363,30.851z"/>
	
		<radialGradient id="SVGID_6_" cx="188.6729" cy="-342.2397" r="3.1031" gradientTransform="matrix(1.6101 0 0 1.6101 -285.5403 553.5817)" gradientUnits="userSpaceOnUse">
		<stop  offset="0" style="stop-color:#BB8BBE"/>
		<stop  offset="0.2207" style="stop-color:#B180B8"/>
		<stop  offset="0.6074" style="stop-color:#9663A9"/>
		<stop  offset="0.8933" style="stop-color:#7E499B"/>
		<stop  offset="1" style="stop-color:#B271AE"/>
	</radialGradient>
	<path fill="url(#SVGID_6_)" d="M21.573,6.462c0,0-2.404,0.743-5.416-3.103c4.15-1.979,6.13,0.361,6.474,2.564
		C21.392,7.343,21.573,6.462,21.573,6.462z"/>
	
		<radialGradient id="SVGID_7_" cx="207.6025" cy="24.1816" r="5.7477" gradientTransform="matrix(0.0892 0.753 0.753 -0.0892 -18.6659 -147.0984)" gradientUnits="userSpaceOnUse">
		<stop  offset="0" style="stop-color:#F48D83"/>
		<stop  offset="1" style="stop-color:#F3837A"/>
	</radialGradient>
	<path fill="url(#SVGID_7_)" d="M18.69,3.15c-0.672-0.104-1.874,0.088-2.529,0.226c1.683,4.567,4.891,3.937,4.891,3.937
		s-0.193-0.144,0.356-0.361c0.739-0.462,0.673-0.431,0.583-0.829C21.7,4.844,20.678,3.454,18.69,3.15z"/>
	
		<radialGradient id="SVGID_8_" cx="192.2793" cy="-328.0483" r="8.7176" gradientTransform="matrix(1.6101 0 0 1.6101 -282.8929 552.7399)" gradientUnits="userSpaceOnUse">
		<stop  offset="0" style="stop-color:#FCD0AF"/>
		<stop  offset="0.2855" style="stop-color:#FBCDAB"/>
		<stop  offset="0.5471" style="stop-color:#F7C3A0"/>
		<stop  offset="0.7986" style="stop-color:#F2B28E"/>
		<stop  offset="1" style="stop-color:#EBA079"/>
	</radialGradient>
	<circle fill="url(#SVGID_8_)" cx="25.023" cy="31.501" r="7.219"/>
	
		<radialGradient id="SVGID_9_" cx="195.3594" cy="-326.5903" r="8.4956" gradientTransform="matrix(1.6101 0 0 1.6101 -288.22 551.9772)" gradientUnits="userSpaceOnUse">
		<stop  offset="0" style="stop-color:#BB8BBE"/>
		<stop  offset="0.2207" style="stop-color:#B180B8"/>
		<stop  offset="0.6074" style="stop-color:#9663A9"/>
		<stop  offset="0.8933" style="stop-color:#7E499B"/>
		<stop  offset="1" style="stop-color:#B271AE"/>
	</radialGradient>
	<path fill="url(#SVGID_9_)" d="M30.533,31.257c0-3.343-2.271-6.145-5.354-6.968c-0.052,0-0.104-0.007-0.156-0.007
		c-3.987,0-7.219,3.232-7.219,7.219c0,3.34,2.273,6.145,5.355,6.967c0.053,0.001,0.103,0.008,0.157,0.008
		C27.303,38.476,30.533,35.245,30.533,31.257z"/>
	
		<radialGradient id="SVGID_10_" cx="194.5762" cy="-338.9893" r="9.9552" gradientTransform="matrix(1.6101 0 0 1.6101 -282.8929 552.7399)" gradientUnits="userSpaceOnUse">
		<stop  offset="0" style="stop-color:#BB8BBE"/>
		<stop  offset="0.2207" style="stop-color:#B180B8"/>
		<stop  offset="0.6074" style="stop-color:#9663A9"/>
		<stop  offset="0.8933" style="stop-color:#7E499B"/>
		<stop  offset="1" style="stop-color:#B271AE"/>
	</radialGradient>
	<circle fill="url(#SVGID_10_)" cx="25.626" cy="12.514" r="8.428"/>
	
		<radialGradient id="SVGID_11_" cx="192.3311" cy="-339.0122" r="8.169" gradientTransform="matrix(1.6101 0 0 1.6101 -282.8362 552.7956)" gradientUnits="userSpaceOnUse">
		<stop  offset="0" style="stop-color:#FCD0AF"/>
		<stop  offset="1" style="stop-color:#EDB38F"/>
	</radialGradient>
	<path fill="url(#SVGID_11_)" d="M36.141,10.729c-0.846,0-1.609,0.293-2.152,0.762c-0.365-3.007-2.311-5.525-4.984-6.697
		c-1.309-0.029-2.578,0.665-3.195,2.578c-1.099,3.416,2.253,5.051,2.253,5.051s-5.954,3.08-1.932,8.496
		c3.684-0.219,6.721-2.801,7.633-6.25c0.545,0.596,1.404,0.981,2.377,0.981c1.646,0,2.982-1.101,2.982-2.459
		C39.123,11.831,37.787,10.729,36.141,10.729z"/>
	<g>
		<ellipse fill="#D79B7A" cx="30.383" cy="9.648" rx="0.777" ry="2.043"/>
		
			<radialGradient id="SVGID_12_" cx="5.0591" cy="73.9912" r="6.4157" gradientTransform="matrix(-0.5484 0 0 0.5484 33.4552 -32.1339)" gradientUnits="userSpaceOnUse">
			<stop  offset="0.3034" style="stop-color:#FFFFFF"/>
			<stop  offset="0.493" style="stop-color:#FAFAFA"/>
			<stop  offset="0.7329" style="stop-color:#EAEBEB"/>
			<stop  offset="0.999" style="stop-color:#D0D2D3"/>
			<stop  offset="1" style="stop-color:#D0D2D3"/>
		</radialGradient>
		<ellipse fill="url(#SVGID_12_)" cx="30.383" cy="9.833" rx="0.777" ry="2.042"/>
		<g>
			
				<radialGradient id="SVGID_13_" cx="-165.3315" cy="333.9131" r="2.2972" gradientTransform="matrix(0.6249 0.2839 -0.1455 0.9894 182.3272 -275.6505)" gradientUnits="userSpaceOnUse">
				<stop  offset="0.3034" style="stop-color:#8A0304"/>
				<stop  offset="0.4249" style="stop-color:#8F0406"/>
				<stop  offset="0.5788" style="stop-color:#9F080B"/>
				<stop  offset="0.7501" style="stop-color:#B90F13"/>
				<stop  offset="0.9328" style="stop-color:#DD181F"/>
				<stop  offset="1" style="stop-color:#EC1C24"/>
			</radialGradient>
			<path fill="url(#SVGID_13_)" d="M30.609,11.089c0.232,0.023,0.428-0.602,0.434-1.398c0.002-0.794-0.182-1.458-0.416-1.481
				c-0.234-0.023-0.426,0.603-0.434,1.398C30.189,10.403,30.375,11.066,30.609,11.089z"/>
			<path fill="#231F20" d="M30.615,10.612c0.154,0.014,0.285-0.401,0.287-0.929c0.004-0.529-0.121-0.969-0.275-0.984
				c-0.156-0.014-0.285,0.4-0.287,0.929C30.338,10.156,30.459,10.597,30.615,10.612z"/>
			<path fill="#FFFFFF" d="M30.883,8.927c0.01,0.176-0.027,0.318-0.086,0.32c-0.053,0.006-0.109-0.134-0.115-0.307
				c-0.01-0.174,0.029-0.32,0.084-0.321C30.822,8.616,30.875,8.754,30.883,8.927z"/>
		</g>
	</g>
	
		<linearGradient id="SVGID_14_" gradientUnits="userSpaceOnUse" x1="179.2314" y1="-328.4795" x2="182.0805" y2="-328.8843" gradientTransform="matrix(1.262 0 0 1.262 -206.1489 447.5054)">
		<stop  offset="0" style="stop-color:#6BC8C6"/>
		<stop  offset="1" style="stop-color:#9564A9"/>
	</linearGradient>
	<path fill="url(#SVGID_14_)" d="M23.134,31.036c0,0-2.927-1.051-3.68-0.334c-0.465,0.443,0.812,4.588,2.102,4.54
		c0.824-0.03,2.02-2.711,2.02-2.711L23.134,31.036z"/>
	<ellipse fill="#F7AA9E" cx="28.497" cy="11.375" rx="0.778" ry="0.381"/>
	<ellipse fill="#FFFFFF" cx="31.276" cy="17.572" rx="0.452" ry="0.312"/>
</g>
</svg>
