<?xml version="1.0" encoding="utf-8"?>
<!-- Generator: Adobe Illustrator 14.0.0, SVG Export Plug-In . SVG Version: 6.00 Build 43363)  -->
<!DOCTYPE svg PUBLIC "-//W3C//DTD SVG 1.1//EN" "http://www.w3.org/Graphics/SVG/1.1/DTD/svg11.dtd">
<svg version="1.1" id="图层_1" xmlns="http://www.w3.org/2000/svg" xmlns:xlink="http://www.w3.org/1999/xlink" x="0px" y="0px"
	 width="100px" height="100px" viewBox="0 0 100 100" enable-background="new 0 0 100 100" xml:space="preserve">
<g>
	<g>
		<radialGradient id="SVGID_1_" cx="42.9482" cy="93.8711" r="3.2847" gradientUnits="userSpaceOnUse">
			<stop  offset="0" style="stop-color:#140300"/>
			<stop  offset="1" style="stop-color:#3F1C00"/>
		</radialGradient>
		<path fill="url(#SVGID_1_)" d="M44.577,92.903c-2.443-0.821-4.335-1.125-5.737-1.197c0.289,1.967,1.111,3.556,2.863,4.128
			c1.861,0.609,3.7-0.213,5.355-1.642C46.427,93.702,45.625,93.257,44.577,92.903z"/>
		<path fill="#D26D00" d="M47.755,80.672c-5.825-2.316-7.095-0.917-7.095-0.917s-0.22,0.615-0.51,1.598
			c-0.195,0.669-0.424,1.508-0.643,2.449c-0.227,0.981-0.44,2.068-0.589,3.18c-0.107,0.799-0.178,1.608-0.201,2.401
			c-0.021,0.806,0.013,1.589,0.121,2.323c1.402,0.072,3.294,0.376,5.737,1.197c1.049,0.354,1.85,0.799,2.481,1.289
			c0.498-0.431,0.978-0.914,1.438-1.432c0.543-0.61,1.057-1.266,1.534-1.931c0.474-0.659,0.91-1.327,1.305-1.969
			c0.482-0.785,0.903-1.531,1.243-2.168c0.639-1.202,1.002-2.022,1.002-2.022S53.582,82.99,47.755,80.672z"/>
	</g>
	<g>
		<radialGradient id="SVGID_2_" cx="81.6777" cy="94.4238" r="3.2932" gradientUnits="userSpaceOnUse">
			<stop  offset="0" style="stop-color:#140300"/>
			<stop  offset="1" style="stop-color:#3F1C00"/>
		</radialGradient>
		<path fill="url(#SVGID_2_)" d="M83.251,92.716c-2.57-0.231-4.48-0.087-5.859,0.169c0.739,1.846,1.908,3.201,3.745,3.35
			c1.95,0.159,3.548-1.069,4.826-2.842C85.235,93.062,84.353,92.814,83.251,92.716z"/>
		<path fill="#D26D00" d="M83.494,80.079c-6.203-0.897-7.114,0.76-7.114,0.76s-0.067,0.649-0.119,1.672
			c-0.036,0.697-0.063,1.564-0.059,2.531c0.01,1.008,0.055,2.115,0.166,3.23c0.085,0.802,0.203,1.605,0.366,2.382
			c0.168,0.788,0.382,1.542,0.657,2.23c1.379-0.256,3.289-0.4,5.859-0.169c1.102,0.099,1.984,0.346,2.712,0.677
			c0.384-0.534,0.739-1.116,1.065-1.727c0.387-0.721,0.733-1.478,1.043-2.236c0.308-0.751,0.576-1.502,0.811-2.218
			c0.288-0.877,0.522-1.7,0.704-2.398c0.344-1.318,0.505-2.2,0.505-2.2S89.7,80.979,83.494,80.079z"/>
	</g>
	<g>
		<path fill="#C56200" d="M34.496,17.46c0,0,3.351-4.785,3.83-9.572c0.478-4.785,4.305-5.742,4.783-3.827
			c0.481,1.912,3.354,9.571-0.478,11.963C38.804,18.417,34.496,17.46,34.496,17.46z"/>
	</g>
	<g>
		<radialGradient id="SVGID_3_" cx="35.5308" cy="31.5674" r="55.9342" gradientUnits="userSpaceOnUse">
			<stop  offset="0.2865" style="stop-color:#BF7400"/>
			<stop  offset="1" style="stop-color:#DF8800"/>
		</radialGradient>
		<path fill="url(#SVGID_3_)" d="M91.266,67.627c-1.54-5.647-4.249-10.161-6.859-13.273c-1.625-0.268-2.91,0.102-3.242,1.431
			c-0.348,1.393-2.091,1.742-3.831-0.349c-1.355-1.625-2.08-1.568-3.317-2.118c-0.65,2.222-0.911,4.489-3.998,3.976
			c-2.466-0.411-3.16-1.937-3.77-3.589c-0.132,0.004-0.269,0-0.41-0.01c-4.181-0.349-0.696,2.786-5.225,2.09
			c-4.528-0.698-1.393-2.787-5.573-2.787c-0.24,0-0.455-0.016-0.655-0.039c-1.301,2.134-2.173,3.988-3.873,2.477
			c-9.297-8.267,6.967-19.971-6.502-18.577c-6.648,0.688-11.206,12.924-10.681,25.543c0.537,12.944,8.595,26.78,10.692,30.384
			c1.476-0.229,3.324-0.407,5.589-0.407c2.135,0,4.163,0.28,5.928,0.655c1.821-2.32,2.271-4.98,2.271-4.98s5.335,2.019,12.001,1.153
			c6.67-0.864,8.004-2.882,8.004-2.882s0.255,4.652,1.589,7.073c1.371-0.183,2.997-0.32,4.955-0.32c1.564,0,3.064,0.153,4.45,0.379
			C89.888,91.927,94.4,79.122,91.266,67.627z"/>
		<radialGradient id="SVGID_4_" cx="50.0298" cy="90.8301" r="6.8686" gradientUnits="userSpaceOnUse">
			<stop  offset="0" style="stop-color:#382300"/>
			<stop  offset="1" style="stop-color:#3F1C00"/>
		</radialGradient>
		<path fill="url(#SVGID_4_)" d="M44.021,92.785c1.32,2.266,2.935,3.699,4.789,3.631c3.262-0.123,5.373-1.661,6.729-3.383
			c-1.766-0.375-3.793-0.655-5.928-0.655C47.346,92.378,45.498,92.557,44.021,92.785z"/>
		<radialGradient id="SVGID_5_" cx="83.249" cy="92.7148" r="4.1141" gradientUnits="userSpaceOnUse">
			<stop  offset="0" style="stop-color:#382300"/>
			<stop  offset="1" style="stop-color:#3F1C00"/>
		</radialGradient>
		<path fill="url(#SVGID_5_)" d="M79.403,93.397c0.932,1.688,2.281,3.195,4.199,3.432c1.493,0.185,3.538-1.003,5.206-3.373
			c-1.386-0.226-2.886-0.379-4.45-0.379C82.4,93.077,80.774,93.215,79.403,93.397z"/>
		<radialGradient id="SVGID_6_" cx="60.5068" cy="39.1011" r="19.447" gradientUnits="userSpaceOnUse">
			<stop  offset="0" style="stop-color:#C56200"/>
			<stop  offset="1" style="stop-color:#5F3D00"/>
		</radialGradient>
		<path fill="url(#SVGID_6_)" d="M60.613,55.784c4.528,0.696,1.044-2.438,5.225-2.09c0.142,0.01,0.278,0.014,0.41,0.01
			c2.726-2.797-2.013-14.364-5.461-14.64c-3.108-0.249-8.011,11.494-6.402,13.894c0.2,0.023,0.415,0.039,0.655,0.039
			C59.221,52.997,56.085,55.086,60.613,55.784z"/>
		<radialGradient id="SVGID_7_" cx="80.2676" cy="37.1875" r="16.4453" gradientUnits="userSpaceOnUse">
			<stop  offset="0" style="stop-color:#C56200"/>
			<stop  offset="1" style="stop-color:#5F3D00"/>
		</radialGradient>
		<path fill="url(#SVGID_7_)" d="M77.333,55.436c1.74,2.091,3.483,1.741,3.831,0.349c0.332-1.329,1.617-1.698,3.242-1.431
			c4.422-3.795-1.451-15.206-4.984-15.115c-2.934,0.075-8.36,11.32-5.406,14.079C75.253,53.867,75.978,53.811,77.333,55.436z"/>
	</g>
	<radialGradient id="SVGID_8_" cx="16.0273" cy="53.6934" r="39.376" gradientUnits="userSpaceOnUse">
		<stop  offset="0" style="stop-color:#C56200"/>
		<stop  offset="1" style="stop-color:#5F3D00"/>
	</radialGradient>
	<path fill="url(#SVGID_8_)" d="M39.366,42.199c0,0,4.18,7.315-0.698,8.011c-4.876,0.697-1.742,5.574,0,7.316
		c1.742,1.74-2.09,1.74-2.438,4.178c-0.348,2.439,1.393,2.439,0.696,4.878c-0.696,2.438,0,7.663-1.393,7.663
		c-1.394,0-1.045-4.528-2.438-3.832c-1.393,0.697-3.832,0-2.438-2.438c1.393-2.438,3.482-4.877,1.393-6.271
		c-2.09-1.393-3.832-3.134-1.741-4.875c2.09-1.743,4.528-4.528,2.09-6.271c-2.439-1.741-2.09-6.965,0.696-7.663
		c2.788-0.696,5.225-7.314,6.966-5.921C41.805,38.368,41.805,41.154,39.366,42.199z"/>
	<g>
		<radialGradient id="SVGID_9_" cx="41.2231" cy="19.209" r="25.4816" gradientUnits="userSpaceOnUse">
			<stop  offset="0.2865" style="stop-color:#BF7400"/>
			<stop  offset="1" style="stop-color:#DF8800"/>
		</radialGradient>
		<path fill="url(#SVGID_9_)" d="M20.904,49.514c3.446-1.969,10.887-5.649,13.236-5.573c5.432,0.174,7.807,5.493,18.114-2.438
			c10.308-7.932-7.315-29.956-14.63-30.305c-7.314-0.348-8.84,15.397-8.84,15.397l0.042,0.083
			c-8.481,2.893-20.962,7.716-22.313,17.547C6.032,47.116,8.712,56.48,20.904,49.514z"/>
	</g>
	<g>
		<path fill="#DF8800" d="M45.011,21.374c0,0,4.445-6.35,5.081-12.699c0.634-6.353,5.713-7.621,6.348-5.082
			c0.638,2.541,4.446,12.701-0.633,15.876C50.727,22.643,45.011,21.374,45.011,21.374z"/>
		<path fill="#C56200" d="M47.391,20.996c0,0,2.708-3.866,3.097-7.734c0.384-3.867,3.48-4.639,3.864-3.092
			c0.389,1.545,2.711,7.733-0.384,9.667C50.872,21.77,47.391,20.996,47.391,20.996z"/>
	</g>
	<path fill="#EDA900" d="M19.477,32.489c1.567,1.565-2.805,1.576-5.606,5.08c-2.804,3.504-3.68,8.935-5.08,8.409
		c-1.401-0.526,0.524-4.731,2.627-7.884C13.52,34.94,18.951,31.963,19.477,32.489z"/>
	<g>
		<g>
			<path fill="#FFFFFF" d="M28.237,14.381c4.6,0,8.348,3.75,8.348,8.349c0,4.605-3.748,8.353-8.348,8.353
				c-4.605,0-8.351-3.747-8.351-8.353C19.886,18.131,23.632,14.381,28.237,14.381z"/>
			
				<linearGradient id="SVGID_10_" gradientUnits="userSpaceOnUse" x1="20.0938" y1="22.7319" x2="38.2754" y2="22.7319" gradientTransform="matrix(-1 0 0 1 57.4189 0)">
				<stop  offset="0" style="stop-color:#272C34"/>
				<stop  offset="1" style="stop-color:#292933"/>
			</linearGradient>
			<path fill="url(#SVGID_10_)" d="M19.144,22.729c0,5.014,4.075,9.094,9.094,9.094c5.011,0,9.088-4.08,9.088-9.094
				c0-5.009-4.077-9.089-9.088-9.089C23.219,13.641,19.144,17.72,19.144,22.729z M19.886,22.729c0-4.599,3.746-8.349,8.351-8.349
				c4.6,0,8.348,3.75,8.348,8.349c0,4.605-3.748,8.353-8.348,8.353C23.632,31.082,19.886,27.335,19.886,22.729z"/>
		</g>
		
			<radialGradient id="SVGID_11_" cx="29.1836" cy="22.7319" r="8.488" gradientTransform="matrix(-1 0 0 1 57.4189 0)" gradientUnits="userSpaceOnUse">
			<stop  offset="0" style="stop-color:#FFFFFF"/>
			<stop  offset="1" style="stop-color:#E5E5E5"/>
		</radialGradient>
		<path fill="url(#SVGID_11_)" d="M19.746,22.729c0,4.691,3.8,8.489,8.491,8.489c4.685,0,8.487-3.798,8.487-8.489
			c0-4.687-3.802-8.484-8.487-8.484C23.546,14.245,19.746,18.043,19.746,22.729z"/>
		
			<linearGradient id="SVGID_12_" gradientUnits="userSpaceOnUse" x1="22.7427" y1="22.7319" x2="35.6265" y2="22.7319" gradientTransform="matrix(-1 0 0 1 57.4189 0)">
			<stop  offset="0" style="stop-color:#F3AF18"/>
			<stop  offset="1" style="stop-color:#CAA21B"/>
		</linearGradient>
		<path fill="url(#SVGID_12_)" d="M21.792,22.729c0,3.562,2.886,6.444,6.445,6.444c3.556,0,6.439-2.882,6.439-6.444
			c0-3.553-2.883-6.439-6.439-6.439C24.679,16.291,21.792,19.177,21.792,22.729z"/>
		
			<radialGradient id="SVGID_13_" cx="29.1846" cy="22.7334" r="4.635" gradientTransform="matrix(-1 0 0 1 57.4189 0)" gradientUnits="userSpaceOnUse">
			<stop  offset="0" style="stop-color:#1F1600"/>
			<stop  offset="1" style="stop-color:#000000"/>
		</radialGradient>
		<path fill="url(#SVGID_13_)" d="M23.6,22.729c0,2.563,2.077,4.639,4.638,4.639c2.557,0,4.632-2.077,4.632-4.639
			c0-2.559-2.076-4.631-4.632-4.631C25.676,18.099,23.6,20.171,23.6,22.729z"/>
		
			<radialGradient id="SVGID_14_" cx="-208.2876" cy="-142.8999" r="1.2949" gradientTransform="matrix(-0.6444 0.4405 0.5644 0.8255 -22.0567 235.8591)" gradientUnits="userSpaceOnUse">
			<stop  offset="0" style="stop-color:#FFFFFF"/>
			<stop  offset="1" style="stop-color:#E5E5E5"/>
		</radialGradient>
		<path fill="url(#SVGID_14_)" d="M30.677,26.716c0.403,0.593,1.106,0.814,1.564,0.495c0.464-0.313,0.511-1.046,0.106-1.638
			c-0.403-0.592-1.104-0.817-1.566-0.498C30.319,25.389,30.274,26.125,30.677,26.716z"/>
		
			<radialGradient id="SVGID_15_" cx="-147.0786" cy="-325.7998" r="1.2966" gradientTransform="matrix(-0.478 0.3268 0.4186 0.6124 95.2145 274.4133)" gradientUnits="userSpaceOnUse">
			<stop  offset="0" style="stop-color:#FFFFFF"/>
			<stop  offset="1" style="stop-color:#E5E5E5"/>
		</radialGradient>
		<path fill="url(#SVGID_15_)" d="M28.517,27.25c0.302,0.442,0.821,0.607,1.165,0.373c0.341-0.236,0.375-0.78,0.076-1.217
			c-0.3-0.44-0.819-0.606-1.161-0.373S28.219,26.812,28.517,27.25z"/>
	</g>
	<radialGradient id="SVGID_16_" cx="26.6304" cy="23.3682" r="15.9331" gradientUnits="userSpaceOnUse">
		<stop  offset="0.2865" style="stop-color:#BF7400"/>
		<stop  offset="1" style="stop-color:#DF8800"/>
	</radialGradient>
	<path fill="url(#SVGID_16_)" d="M28.225,13.239c-5.078,0-9.206,4.134-9.206,9.213c0,0.004,0,0.009,0,0.011H37.43
		c0-0.002,0-0.006,0-0.011C37.43,17.373,33.3,13.239,28.225,13.239z"/>
	<g>
		<g>
			<g>
				<path fill="#FFFFFF" d="M46.247,13.553c5.139,0,9.324,4.19,9.324,9.326c0,5.146-4.185,9.331-9.324,9.331
					c-5.146,0-9.331-4.185-9.331-9.331C36.916,17.743,41.101,13.553,46.247,13.553z"/>
				
					<linearGradient id="SVGID_17_" gradientUnits="userSpaceOnUse" x1="1.0205" y1="22.8818" x2="21.3325" y2="22.8818" gradientTransform="matrix(-1 0 0 1 57.4189 0)">
					<stop  offset="0" style="stop-color:#272C34"/>
					<stop  offset="1" style="stop-color:#292933"/>
				</linearGradient>
				<path fill="url(#SVGID_17_)" d="M36.086,22.878c0,5.601,4.555,10.16,10.16,10.16c5.598,0,10.152-4.559,10.152-10.16
					c0-5.597-4.554-10.153-10.152-10.153C40.641,12.726,36.086,17.281,36.086,22.878z M36.916,22.878
					c0-5.136,4.185-9.326,9.331-9.326c5.139,0,9.324,4.19,9.324,9.326c0,5.146-4.185,9.331-9.324,9.331
					C41.101,32.209,36.916,28.024,36.916,22.878z"/>
			</g>
			
				<radialGradient id="SVGID_18_" cx="11.1753" cy="22.8813" r="9.4822" gradientTransform="matrix(-1 0 0 1 57.4189 0)" gradientUnits="userSpaceOnUse">
				<stop  offset="0" style="stop-color:#FFFFFF"/>
				<stop  offset="1" style="stop-color:#E5E5E5"/>
			</radialGradient>
			<path fill="url(#SVGID_18_)" d="M36.76,22.878c0,5.244,4.246,9.483,9.487,9.483c5.234,0,9.481-4.24,9.481-9.483
				c0-5.236-4.247-9.478-9.481-9.478C41.005,13.401,36.76,17.642,36.76,22.878z"/>
			
				<linearGradient id="SVGID_19_" gradientUnits="userSpaceOnUse" x1="3.9785" y1="22.8809" x2="18.3711" y2="22.8809" gradientTransform="matrix(-1 0 0 1 57.4189 0)">
				<stop  offset="0" style="stop-color:#F3AF18"/>
				<stop  offset="1" style="stop-color:#CAA21B"/>
			</linearGradient>
			<path fill="url(#SVGID_19_)" d="M39.048,22.878c0,3.979,3.223,7.198,7.199,7.198c3.973,0,7.194-3.219,7.194-7.198
				c0-3.97-3.221-7.193-7.194-7.193C42.271,15.686,39.048,18.908,39.048,22.878z"/>
			
				<radialGradient id="SVGID_20_" cx="11.1758" cy="22.8818" r="5.1782" gradientTransform="matrix(-1 0 0 1 57.4189 0)" gradientUnits="userSpaceOnUse">
				<stop  offset="0" style="stop-color:#1F1600"/>
				<stop  offset="1" style="stop-color:#000000"/>
			</radialGradient>
			<path fill="url(#SVGID_20_)" d="M41.065,22.878c0,2.863,2.317,5.182,5.182,5.182c2.857,0,5.174-2.318,5.174-5.182
				c0-2.858-2.317-5.174-5.174-5.174C43.382,17.704,41.065,20.02,41.065,22.878z"/>
			
				<radialGradient id="SVGID_21_" cx="-227.3408" cy="-132.0674" r="1.4482" gradientTransform="matrix(-0.6444 0.4405 0.5644 0.8255 -22.0567 235.8591)" gradientUnits="userSpaceOnUse">
				<stop  offset="0" style="stop-color:#FFFFFF"/>
				<stop  offset="1" style="stop-color:#E5E5E5"/>
			</radialGradient>
			<path fill="url(#SVGID_21_)" d="M48.969,27.333c0.454,0.661,1.238,0.907,1.75,0.554c0.516-0.351,0.57-1.169,0.118-1.832
				c-0.451-0.66-1.235-0.913-1.75-0.556C48.572,25.849,48.522,26.673,48.969,27.333z"/>
			
				<radialGradient id="SVGID_22_" cx="-172.293" cy="-311.3169" r="1.4492" gradientTransform="matrix(-0.478 0.3268 0.4186 0.6124 95.2145 274.4133)" gradientUnits="userSpaceOnUse">
				<stop  offset="0" style="stop-color:#FFFFFF"/>
				<stop  offset="1" style="stop-color:#E5E5E5"/>
			</radialGradient>
			<path fill="url(#SVGID_22_)" d="M46.559,27.929c0.336,0.493,0.918,0.676,1.3,0.416c0.382-0.263,0.418-0.872,0.087-1.36
				c-0.338-0.492-0.917-0.678-1.298-0.416C46.266,26.829,46.224,27.439,46.559,27.929z"/>
		</g>
		<radialGradient id="SVGID_23_" cx="48.3452" cy="24.0908" r="18.383" gradientUnits="userSpaceOnUse">
			<stop  offset="0.2865" style="stop-color:#BF7400"/>
			<stop  offset="1" style="stop-color:#DF8800"/>
		</radialGradient>
		<path fill="url(#SVGID_23_)" d="M46.193,12.675c-5.674,0-10.288,4.619-10.288,10.295c0,0.005,0,0.008,0,0.012h20.572
			c0-0.004,0-0.007,0-0.012C56.478,17.294,51.866,12.675,46.193,12.675z"/>
	</g>
</g>
</svg>
