<?xml version="1.0" encoding="utf-8"?>
<!-- Generator: Adobe Illustrator 14.0.0, SVG Export Plug-In . SVG Version: 6.00 Build 43363)  -->
<!DOCTYPE svg PUBLIC "-//W3C//DTD SVG 1.1//EN" "http://www.w3.org/Graphics/SVG/1.1/DTD/svg11.dtd">
<svg version="1.1" id="图层_1" xmlns="http://www.w3.org/2000/svg" xmlns:xlink="http://www.w3.org/1999/xlink" x="0px" y="0px"
	 width="50px" height="50px" viewBox="0 0 50 50" enable-background="new 0 0 50 50" xml:space="preserve">
<g>
	
		<radialGradient id="SVGID_1_" cx="35.2148" cy="-333.252" r="10.5372" gradientTransform="matrix(1.2121 0 0 1.2121 3.7706 439.7481)" gradientUnits="userSpaceOnUse">
		<stop  offset="0" style="stop-color:#E2A278"/>
		<stop  offset="1" style="stop-color:#996121"/>
	</radialGradient>
	<path fill="url(#SVGID_1_)" d="M43.368,34.695c-1.953,0.16-2.95,1.99-3.917,3.762c-0.538,0.988-1.095,2.01-1.817,2.797
		c-2.379,2.602-7.101,0.537-7.148,0.516c-0.462-0.205-1.002,0-1.21,0.463c-0.206,0.463,0,1.004,0.46,1.211
		c0.243,0.105,5.976,2.627,9.251-0.953c0.871-0.951,1.51-2.123,2.072-3.156c0.803-1.467,1.491-2.732,2.462-2.813
		c1.111-0.094,1.979,0.252,2.383,0.951c0.35,0.604,0.294,1.375-0.147,2.014c-0.285,0.416-0.182,0.988,0.235,1.273
		c0.414,0.289,0.986,0.182,1.274-0.232c0.845-1.229,0.93-2.748,0.221-3.973C46.727,35.236,45.185,34.543,43.368,34.695z"/>
	
		<radialGradient id="SVGID_2_" cx="19.6489" cy="-324.8916" r="9.7843" gradientTransform="matrix(1.2121 0 0 1.2121 3.7706 439.7481)" gradientUnits="userSpaceOnUse">
		<stop  offset="0" style="stop-color:#E2A278"/>
		<stop  offset="1" style="stop-color:#996121"/>
	</radialGradient>
	<path fill="url(#SVGID_2_)" d="M28.912,33.342c0,0,7,5.465,6.397,10.33c-0.496,4.043-11.358,5.688-13.998,3.4
		c-5.467-4.734,1.732-11.934,1.732-11.934L28.912,33.342z"/>
	<path fill="#AD6F29" d="M21.88,44.275c-0.789,0-1.521,0.279-2.142,0.748c0.326,0.713,0.829,1.406,1.574,2.049
		c0.85,0.738,2.554,1.064,4.488,1.035C25.428,45.922,23.814,44.275,21.88,44.275z"/>
	<path fill="#AD6F29" d="M28.926,47.781c2.659-0.512,5.158-1.604,6.054-3.152c-0.618-0.465-1.344-0.738-2.126-0.738
		C30.903,43.891,29.277,45.566,28.926,47.781z"/>
	<path fill="#231F20" d="M22.756,44.555c0-1.303-1.056-2.357-2.356-2.357c-0.411,0-0.789,0.115-1.125,0.297
		c-0.076,1.48,0.374,2.984,1.759,4.316C22.026,46.533,22.756,45.633,22.756,44.555z"/>
	<path fill="#996121" d="M28.471,37.936c0.003-0.004,0.012-0.014,0.012-0.018c0.144-0.377-0.175-0.441-0.175-0.441l-0.002,0.002
		c-0.308-0.6-0.93-0.984-1.622-0.975c-0.062-0.285-0.328-0.482-0.623-0.441c-0.306,0.047-0.518,0.33-0.473,0.637
		c0.01,0.057,0.033,0.104,0.055,0.154c-0.431,0.318-0.711,0.82-0.732,1.373l-0.005-0.004c0,0-0.201,0.242,0.002,0.48
		c0.017,0.02,0.04,0.037,0.064,0.057c0.008,0.023,0.01,0.053,0.02,0.076c0.001,0.004,0.002,0.004,0.003,0.006
		c0.257,0.807,1.052,1.342,1.916,1.242c0.002,0,0.002,0,0.006,0c0.016,0,0.034,0,0.053-0.002c0.112-0.016,0.217-0.047,0.317-0.08
		c0.043-0.018,0.08-0.033,0.118-0.049s0.074-0.027,0.109-0.045c-0.002,0-0.005-0.004-0.008-0.004
		c0.681-0.338,1.101-1.078,0.985-1.869C28.487,38,28.477,37.973,28.471,37.936z"/>
	
		<linearGradient id="SVGID_3_" gradientUnits="userSpaceOnUse" x1="14.6768" y1="-332.1479" x2="21.6726" y2="-334.1155" gradientTransform="matrix(1.2121 0 0 1.2121 3.7706 439.7481)">
		<stop  offset="0" style="stop-color:#00ADEE"/>
		<stop  offset="0.7022" style="stop-color:#005AA9"/>
		<stop  offset="1" style="stop-color:#0088CF"/>
	</linearGradient>
	<path fill="url(#SVGID_3_)" d="M20.815,36.307l0.163,1.387c0,0,7.317,0.305,9.539-3.08l-0.405-1.041l-2.957,0.799l-4.525,1.16
		L20.815,36.307z"/>
	<path fill="#224099" d="M25.175,37.375c0.798-0.141,1.625-0.35,2.404-0.645c-0.267-0.148-0.572-0.23-0.896-0.227
		c-0.062-0.285-0.328-0.482-0.623-0.441c-0.306,0.047-0.518,0.33-0.473,0.637c0.01,0.057,0.033,0.104,0.055,0.154
		C25.453,36.996,25.298,37.174,25.175,37.375z"/>
	
		<radialGradient id="SVGID_4_" cx="202.7627" cy="-158.2563" r="5.3156" gradientTransform="matrix(0.7729 -0.6357 0.6357 0.7729 -30.3814 252.7805)" gradientUnits="userSpaceOnUse">
		<stop  offset="0" style="stop-color:#E2A278"/>
		<stop  offset="1" style="stop-color:#996121"/>
	</radialGradient>
	<path fill="url(#SVGID_4_)" d="M23.689,9.195c0,0,3.577-8.987,6.857-8.077c3.828,1.065,3.8,11.343,3.8,11.343L23.689,9.195z"/>
	
		<radialGradient id="SVGID_5_" cx="-149.7466" cy="-123.2202" r="3.7638" gradientTransform="matrix(0.9583 -0.0842 0.0842 0.9583 183.2639 111.1921)" gradientUnits="userSpaceOnUse">
		<stop  offset="0" style="stop-color:#EDB38F"/>
		<stop  offset="1" style="stop-color:#FCD0AF"/>
	</radialGradient>
	<path fill="url(#SVGID_5_)" d="M24.556,9.071c0,0,3.354-8.187,6.013-7.317c2.201,0.72,3.107,8.459,3.107,8.459L24.556,9.071z"/>
	
		<radialGradient id="SVGID_6_" cx="210.5518" cy="-135.6069" r="5.3148" gradientTransform="matrix(-0.2576 -0.9671 0.9671 -0.2576 187.7715 183.1628)" gradientUnits="userSpaceOnUse">
		<stop  offset="0" style="stop-color:#E2A278"/>
		<stop  offset="1" style="stop-color:#996121"/>
	</radialGradient>
	<path fill="url(#SVGID_6_)" d="M8.254,19.742c0,0-6.692-6.983-4.502-9.589c2.558-3.042,11.895,1.25,11.895,1.25L8.254,19.742z"/>
	
		<radialGradient id="SVGID_7_" cx="-129.1201" cy="-108.0264" r="3.7635" gradientTransform="matrix(0.3211 -0.9068 0.9068 0.3211 146.7948 -69.2537)" gradientUnits="userSpaceOnUse">
		<stop  offset="0" style="stop-color:#EDB38F"/>
		<stop  offset="1" style="stop-color:#FCD0AF"/>
	</radialGradient>
	<path fill="url(#SVGID_7_)" d="M8.5,18.903c0,0-6.056-6.449-4.162-8.506c1.569-1.705,8.405,0.57,8.405,0.57L8.5,18.903z"/>
	
		<radialGradient id="SVGID_8_" cx="-6.4824" cy="-301.2305" r="32.474" gradientTransform="matrix(0.9578 0 0 0.9578 34.3648 322.6212)" gradientUnits="userSpaceOnUse">
		<stop  offset="0" style="stop-color:#E2A278"/>
		<stop  offset="1" style="stop-color:#996121"/>
	</radialGradient>
	<path fill="url(#SVGID_8_)" d="M19.249,6.779c0.417-0.768,1-1.467,1-1.467c-0.774,0.178-1.485,0.9-1.999,1.571
		c0.27-0.884,0.782-1.772,0.782-1.772c-0.9,0.379-1.563,1.554-1.937,2.387C4.2,12.889,5.327,32.16,5.327,32.16
		s12.184,8.121,23.786,2.176C40.716,28.389,41.877,16.64,41.877,16.64C37.966,12.169,28.133,4.607,19.249,6.779z"/>
	<circle fill="#231F20" cx="25.074" cy="14.041" r="3.99"/>
	
		<line fill="none" stroke="#AD6F29" stroke-linecap="round" stroke-linejoin="round" x1="22.57" y1="20.833" x2="23.741" y2="24.048"/>
	<path fill="none" stroke="#231F20" stroke-width="0.5" stroke-linecap="round" stroke-linejoin="round" d="M35.931,19.25
		c0,0,5.511-1.304,8.848-0.87"/>
	<path fill="none" stroke="#231F20" stroke-width="0.5" stroke-linecap="round" stroke-linejoin="round" d="M35.931,20.846
		c0,0,5.946-0.725,10.008,1.451"/>
	<path fill="none" stroke="#231F20" stroke-width="0.5" stroke-linecap="round" stroke-linejoin="round" d="M9.533,29.258
		c0,0-4.497,4.063-4.931,7.688"/>
	<path fill="none" stroke="#231F20" stroke-width="0.5" stroke-linecap="round" stroke-linejoin="round" d="M10.548,31.578
		c0,0-3.771,3.627-3.771,8.992"/>
	<path fill="#E3AC89" d="M11.998,25.778c0.491-2.287,3.488-3.354,8.457-1.863c2.498,0.75,5.001-0.41,5.86-2.435
		c1.026-2.416,3.69-3.562,6.423-2.955c3.917,0.871,4.446,10.049-3.967,14.254C21.359,36.488,10.258,33.898,11.998,25.778z"/>
	<path fill="#AD6F29" d="M11.881,25.543c0.49-2.286,3.488-3.353,8.456-1.862c2.498,0.748,5-0.41,5.86-2.435
		c1.026-2.417,3.689-3.563,6.426-2.956c3.916,0.871,4.35,9.719-4.061,13.922C21.149,35.922,10.141,33.664,11.881,25.543z"/>
	
		<linearGradient id="SVGID_9_" gradientUnits="userSpaceOnUse" x1="-9.0767" y1="-303.8262" x2="-12.3822" y2="-314.4942" gradientTransform="matrix(0.9578 0 0 0.9578 34.2954 322.5508)">
		<stop  offset="0" style="stop-color:#D71921"/>
		<stop  offset="1" style="stop-color:#8A0304"/>
	</linearGradient>
	<path fill="url(#SVGID_9_)" d="M11.998,25.778c0.491-2.287,3.488-3.354,8.457-1.863c2.498,0.75,5.001-0.41,5.86-2.435
		c1.026-2.416,3.69-3.562,6.423-2.955c3.917,0.871,4.353,9.717-4.06,13.924C21.267,36.154,10.258,33.898,11.998,25.778z"/>
	<path fill="#EC1C24" d="M25.687,30.865c0,0-3.76-0.33-2.686-2.201c0.727-1.266,1.835-0.209,1.835-0.209s0.017-1.289,1.456-1.074
		C27.731,27.598,26.622,30.072,25.687,30.865z"/>
	<path fill="none" stroke="#FFFFFF" stroke-linecap="round" stroke-linejoin="round" d="M23.235,13.235c0,0,2.633-0.2,4.57,1.341"/>
	<path fill="none" stroke="#231F20" stroke-linecap="round" stroke-linejoin="round" d="M17.779,14.84c0,0-2.129,1.563-2.598,3.992"
		/>
	<path fill="#F59695" d="M18.814,33.996c3.133,0.494,6.804-0.018,9.863-1.547c2.097-1.049,3.64-2.383,4.723-3.813
		C27.862,28.279,20.476,32.014,18.814,33.996z"/>
	<g>
		
			<radialGradient id="SVGID_10_" cx="23.1753" cy="-335.3286" r="5.3242" gradientTransform="matrix(1.2121 0 0 1.2121 3.7706 449.8087)" gradientUnits="userSpaceOnUse">
			<stop  offset="0" style="stop-color:#E2A278"/>
			<stop  offset="1" style="stop-color:#996121"/>
		</radialGradient>
		<path fill="url(#SVGID_10_)" d="M36.419,48.945c0-2.65-1.792-4.797-4.003-4.797s-4.004,2.146-4.004,4.797H36.419z"/>
		<polygon fill="#865519" points="34.615,48.945 34.407,46.59 34.195,48.945 		"/>
		<polygon fill="#865519" points="30.734,48.945 30.525,46.59 30.314,48.945 		"/>
		<polygon fill="#865519" points="32.655,48.945 32.447,46.59 32.235,48.945 		"/>
	</g>
	<g>
		
			<radialGradient id="SVGID_11_" cx="38.1279" cy="-335.3286" r="5.3247" gradientTransform="matrix(1.2121 0 0 1.2121 -25.3535 449.8087)" gradientUnits="userSpaceOnUse">
			<stop  offset="0" style="stop-color:#E2A278"/>
			<stop  offset="1" style="stop-color:#996121"/>
		</radialGradient>
		<path fill="url(#SVGID_11_)" d="M25.42,48.945c0-2.65-1.792-4.797-4.004-4.797c-2.209,0-4.001,2.146-4.001,4.797H25.42z"/>
		<polygon fill="#865519" points="23.618,48.945 23.409,46.59 23.197,48.945 		"/>
		<polygon fill="#865519" points="19.734,48.945 19.526,46.59 19.315,48.945 		"/>
		<polygon fill="#865519" points="21.657,48.945 21.447,46.59 21.236,48.945 		"/>
	</g>
	<g>
		
			<radialGradient id="SVGID_12_" cx="42.7529" cy="-38.9463" r="4.1599" gradientTransform="matrix(0.5258 -0.183 0.183 0.5258 10.4471 66.2372)" gradientUnits="userSpaceOnUse">
			<stop  offset="0" style="stop-color:#FFFFFF"/>
			<stop  offset="0.3146" style="stop-color:#FFF100"/>
			<stop  offset="0.8371" style="stop-color:#F9A51A"/>
			<stop  offset="0.9944" style="stop-color:#FFDD00"/>
		</radialGradient>
		<circle fill="url(#SVGID_12_)" cx="26.437" cy="38.258" r="1.803"/>
		<path fill="#F9A51A" d="M28.083,37.527c-0.013-0.002-0.019-0.006-0.019-0.006s-0.462,0.936-1.693,1.184
			c-1.231,0.246-1.709-0.438-1.709-0.438s-0.011,0.014-0.026,0.037c0.002,0.072,0.008,0.143,0.019,0.215
			c0.014,0.096,0.036,0.189,0.064,0.275c0.243,0.199,0.955,0.453,1.691,0.303c0.779-0.158,1.647-0.811,1.811-1.098
			c0-0.002,0-0.002,0-0.004C28.196,37.83,28.147,37.672,28.083,37.527z"/>
		<path fill="#FFC10E" d="M26.174,36.475c0.197-0.029,0.393-0.025,0.579,0.008c-0.117,0.275-0.397,0.547-0.665,0.611
			c-0.313,0.074-0.539-0.064-0.68-0.314C25.632,36.625,25.89,36.516,26.174,36.475z"/>
		
			<radialGradient id="SVGID_13_" cx="12.2466" cy="66.3232" r="1.7853" gradientTransform="matrix(-0.5026 0.1684 0.1684 0.5026 20.4802 0.5892)" gradientUnits="userSpaceOnUse">
			<stop  offset="0.0955" style="stop-color:#FFF100"/>
			<stop  offset="0.8371" style="stop-color:#FCB813"/>
			<stop  offset="0.9944" style="stop-color:#FFDD00"/>
		</radialGradient>
		<path fill="url(#SVGID_13_)" d="M25.952,37.133c0.305-0.045,0.516-0.332,0.473-0.637c-0.046-0.305-0.331-0.518-0.635-0.473
			c-0.308,0.045-0.519,0.328-0.473,0.637C25.361,36.963,25.645,37.176,25.952,37.133z"/>
		
			<radialGradient id="SVGID_14_" cx="41.9072" cy="-37.6182" r="5.0704" gradientTransform="matrix(0.5258 -0.183 0.183 0.5258 10.4471 66.2372)" gradientUnits="userSpaceOnUse">
			<stop  offset="0" style="stop-color:#FFF698"/>
			<stop  offset="0.3146" style="stop-color:#FFF100"/>
			<stop  offset="0.8371" style="stop-color:#FFCA05"/>
			<stop  offset="0.9944" style="stop-color:#FFCA05"/>
		</radialGradient>
		<path fill="url(#SVGID_14_)" d="M24.634,38.182c0,0,0.478,0.688,1.708,0.439c1.23-0.25,1.693-1.186,1.693-1.186
			s0.317,0.064,0.177,0.441c-0.1,0.262-1.017,0.973-1.836,1.139c-0.798,0.16-1.57-0.154-1.741-0.354
			C24.432,38.426,24.634,38.182,24.634,38.182z"/>
		<path fill="#F9A51A" d="M26.168,39.752c-0.04-0.143,0.183-0.336,0.502-0.434c0.321-0.1,0.615-0.064,0.657,0.074
			c0.03,0.094-0.061,0.205-0.216,0.305c0.005,0.002,0.019,0.139,0.131,0.17c-0.166,0.086-0.35,0.145-0.542,0.174
			c-0.02,0.004-0.038,0.004-0.057,0.006c-0.077-0.059-0.106-0.102-0.128-0.168C26.334,39.887,26.197,39.84,26.168,39.752z"/>
		<path fill="#CF9810" d="M26.188,39.699c-0.006-0.021-0.006-0.045,0.002-0.066c0.062-0.117,0.243-0.244,0.48-0.314
			c0.321-0.1,0.615-0.064,0.657,0.074c0.009,0.02,0.006,0.041,0,0.059c-0.031,0.066-0.099,0.133-0.197,0.195
			c0.003,0,0.006,0.012,0.011,0.029c-0.011,0.004-0.019,0.012-0.029,0.021c0.005,0.002,0.019,0.139,0.131,0.17
			c-0.166,0.086-0.35,0.145-0.542,0.174c-0.006,0-0.011,0-0.017,0c-0.063-0.061-0.13-0.127-0.149-0.215
			C26.353,39.836,26.217,39.791,26.188,39.699z"/>
	</g>
	<path fill="#AD6F29" d="M23.692,18.768c0.275,0.716-0.365,2.376-0.94,2.596c-0.537,0.207-2.091-0.611-2.367-1.329
		c-0.275-0.716,0.405-1.346,1.221-1.659C22.421,18.063,23.417,18.049,23.692,18.768z"/>
	
		<radialGradient id="SVGID_15_" cx="159.4316" cy="253.1328" r="2.7254" gradientTransform="matrix(0.7054 -0.2706 0.2706 0.7054 -159.6497 -116.5511)" gradientUnits="userSpaceOnUse">
		<stop  offset="0" style="stop-color:#B77049"/>
		<stop  offset="0.0961" style="stop-color:#AA633D"/>
		<stop  offset="0.4077" style="stop-color:#863D1C"/>
		<stop  offset="0.6582" style="stop-color:#702608"/>
		<stop  offset="0.8146" style="stop-color:#681D00"/>
		<stop  offset="1" style="stop-color:#7B340F"/>
	</radialGradient>
	<path fill="url(#SVGID_15_)" d="M23.618,18.587c0.262,0.68-0.406,2.273-0.98,2.496c-0.537,0.207-2.067-0.545-2.329-1.225
		c-0.26-0.68,0.426-1.292,1.243-1.606C22.364,17.94,23.357,17.908,23.618,18.587z"/>
	<path fill="none" stroke="#231F20" stroke-width="0.5" stroke-linecap="round" stroke-linejoin="round" d="M36.282,17.27
		c0,0,3.497-1.747,5.699-1.747"/>
	<path fill="none" stroke="#231F20" stroke-width="0.5" stroke-linecap="round" stroke-linejoin="round" d="M7.632,28.518
		c0,0-3.192,1.672-4.864,3.801"/>
	<path fill="#231F20" d="M32.383,36.74c-0.648,0.443-1.078,1.191-1.078,2.037c0,1.363,1.106,2.469,2.469,2.469
		c0.431,0,0.826-0.117,1.18-0.309C34.418,39.428,33.42,37.967,32.383,36.74z"/>
	<path fill="#231F20" d="M7.534,18.761c1.944,0,3.521-1.536,3.521-3.433c0-0.859-0.327-1.643-0.862-2.244
		c-1.26,1.758-2.199,3.706-2.897,5.665C7.375,18.754,7.454,18.761,7.534,18.761z"/>
</g>
</svg>
