<?xml version="1.0" encoding="utf-8"?>
<!-- Generator: Adobe Illustrator 14.0.0, SVG Export Plug-In . SVG Version: 6.00 Build 43363)  -->
<!DOCTYPE svg PUBLIC "-//W3C//DTD SVG 1.1//EN" "http://www.w3.org/Graphics/SVG/1.1/DTD/svg11.dtd">
<svg version="1.1" id="图层_1" xmlns="http://www.w3.org/2000/svg" xmlns:xlink="http://www.w3.org/1999/xlink" x="0px" y="0px"
	 width="50px" height="50px" viewBox="0 0 50 50" enable-background="new 0 0 50 50" xml:space="preserve">
<g>
	
		<radialGradient id="SVGID_1_" cx="280.5762" cy="325.207" r="9.1999" gradientTransform="matrix(-0.4339 -0.6562 -0.6562 0.4339 349.6126 74.5459)" gradientUnits="userSpaceOnUse">
		<stop  offset="0" style="stop-color:#00AE62"/>
		<stop  offset="0.4096" style="stop-color:#00AC61"/>
		<stop  offset="0.6507" style="stop-color:#00A35C"/>
		<stop  offset="0.8476" style="stop-color:#009554"/>
		<stop  offset="1" style="stop-color:#00844A"/>
	</radialGradient>
	<path fill="url(#SVGID_1_)" d="M24.856,30.785c0,0-2.972-1.068-5.046-0.338c-1.14,0.404-1.799,1.092-1.799,1.092l-1.241-2.229
		l0.179,1.43l-1.125-1.182l0.424,1.52l-1.423-1.037c0,0,2.533,4.32,3.236,4.041c0.747-0.299,1.951-0.943,2.893-1.211
		c1.173-0.336,2.691-0.336,2.691-0.336L24.856,30.785z"/>
	
		<radialGradient id="SVGID_2_" cx="177.3975" cy="130.9043" r="0.519" gradientTransform="matrix(0.9446 0 0 0.9446 -150.5791 -94.3609)" gradientUnits="userSpaceOnUse">
		<stop  offset="0" style="stop-color:#72C5A4"/>
		<stop  offset="0.3784" style="stop-color:#28B679"/>
		<stop  offset="0.6067" style="stop-color:#00AE62"/>
		<stop  offset="0.8933" style="stop-color:#007742"/>
		<stop  offset="1" style="stop-color:#009F5A"/>
	</radialGradient>
	<circle fill="url(#SVGID_2_)" cx="16.851" cy="29.365" r="0.302"/>
	
		<radialGradient id="SVGID_3_" cx="180.0391" cy="130.5156" r="0.5184" gradientTransform="matrix(0.9446 0 0 0.9446 -154.0684 -93.8457)" gradientUnits="userSpaceOnUse">
		<stop  offset="0" style="stop-color:#72C5A4"/>
		<stop  offset="0.3784" style="stop-color:#28B679"/>
		<stop  offset="0.6067" style="stop-color:#00AE62"/>
		<stop  offset="0.8933" style="stop-color:#007742"/>
		<stop  offset="1" style="stop-color:#009F5A"/>
	</radialGradient>
	<circle fill="url(#SVGID_3_)" cx="15.857" cy="29.512" r="0.302"/>
	
		<radialGradient id="SVGID_4_" cx="182.5713" cy="129.1475" r="0.5173" gradientTransform="matrix(0.9446 0 0 0.9446 -157.4141 -92.0371)" gradientUnits="userSpaceOnUse">
		<stop  offset="0" style="stop-color:#72C5A4"/>
		<stop  offset="0.3784" style="stop-color:#28B679"/>
		<stop  offset="0.6067" style="stop-color:#00AE62"/>
		<stop  offset="0.8933" style="stop-color:#007742"/>
		<stop  offset="1" style="stop-color:#009F5A"/>
	</radialGradient>
	<circle fill="url(#SVGID_4_)" cx="14.903" cy="30.027" r="0.302"/>
	
		<radialGradient id="SVGID_5_" cx="248.9727" cy="303.3467" r="9.1975" gradientTransform="matrix(0.7123 -0.3338 0.3338 0.7123 -240.9371 -96.2436)" gradientUnits="userSpaceOnUse">
		<stop  offset="0" style="stop-color:#00AE62"/>
		<stop  offset="0.4096" style="stop-color:#00AC61"/>
		<stop  offset="0.6507" style="stop-color:#00A35C"/>
		<stop  offset="0.8476" style="stop-color:#009554"/>
		<stop  offset="1" style="stop-color:#00844A"/>
	</radialGradient>
	<path fill="url(#SVGID_5_)" d="M29.336,30.742c0,0,3.094,0.637,4.482,2.344c0.764,0.938,0.967,1.869,0.967,1.869l2.221-1.254
		l-0.897,1.127l1.576-0.424L36.53,35.48l1.753-0.143c0,0-4.253,2.502-4.706,1.895c-0.481-0.645-0.995-1.969-1.659-2.689
		c-0.826-0.896-2.46-1.676-2.46-1.676L29.336,30.742z"/>
	
		<radialGradient id="SVGID_6_" cx="207.5127" cy="142.9521" r="0.5185" gradientTransform="matrix(-0.8061 -0.4924 -0.4924 0.8061 274.51 20.4771)" gradientUnits="userSpaceOnUse">
		<stop  offset="0" style="stop-color:#72C5A4"/>
		<stop  offset="0.3784" style="stop-color:#28B679"/>
		<stop  offset="0.6067" style="stop-color:#00AE62"/>
		<stop  offset="0.8933" style="stop-color:#007742"/>
		<stop  offset="1" style="stop-color:#009F5A"/>
	</radialGradient>
	<circle fill="url(#SVGID_6_)" cx="36.909" cy="33.704" r="0.302"/>
	
		<radialGradient id="SVGID_7_" cx="210.1484" cy="142.5586" r="0.5196" gradientTransform="matrix(-0.8061 -0.4924 -0.4924 0.8061 277.2132 22.7349)" gradientUnits="userSpaceOnUse">
		<stop  offset="0" style="stop-color:#72C5A4"/>
		<stop  offset="0.3784" style="stop-color:#28B679"/>
		<stop  offset="0.6067" style="stop-color:#00AE62"/>
		<stop  offset="0.8933" style="stop-color:#007742"/>
		<stop  offset="1" style="stop-color:#009F5A"/>
	</radialGradient>
	<circle fill="url(#SVGID_7_)" cx="37.68" cy="34.349" r="0.302"/>
	
		<radialGradient id="SVGID_8_" cx="212.6846" cy="141.1904" r="0.5172" gradientTransform="matrix(-0.8061 -0.4924 -0.4924 0.8061 279.1272 26.0225)" gradientUnits="userSpaceOnUse">
		<stop  offset="0" style="stop-color:#72C5A4"/>
		<stop  offset="0.3784" style="stop-color:#28B679"/>
		<stop  offset="0.6067" style="stop-color:#00AE62"/>
		<stop  offset="0.8933" style="stop-color:#007742"/>
		<stop  offset="1" style="stop-color:#009F5A"/>
	</radialGradient>
	<circle fill="url(#SVGID_8_)" cx="38.226" cy="35.284" r="0.302"/>
	
		<radialGradient id="SVGID_9_" cx="208.5781" cy="293.6797" r="9.1996" gradientTransform="matrix(0.7615 0.1972 -0.1972 0.7615 -65.9125 -217.1713)" gradientUnits="userSpaceOnUse">
		<stop  offset="0" style="stop-color:#00AE62"/>
		<stop  offset="0.4096" style="stop-color:#00AC61"/>
		<stop  offset="0.6507" style="stop-color:#00A35C"/>
		<stop  offset="0.8476" style="stop-color:#009554"/>
		<stop  offset="1" style="stop-color:#00844A"/>
	</radialGradient>
	<path fill="url(#SVGID_9_)" d="M31.136,39.117c0,0,3.672,0.941,3.653,3.143c-0.01,1.209-0.962,2.25-0.962,2.25l2.511,0.449
		l-1.41,0.297l1.483,0.68l-1.575,0.092l1.442,1.01c0,0-4.711-1.002-4.673-1.76c0.04-0.803,1.394-2.006,0.553-3.094
		c-0.746-0.965-2.336-1.211-2.336-1.211L31.136,39.117z"/>
	
		<radialGradient id="SVGID_10_" cx="233.8203" cy="166.3809" r="0.5187" gradientTransform="matrix(-0.3068 -0.8933 -0.8933 0.3068 256.8332 202.8303)" gradientUnits="userSpaceOnUse">
		<stop  offset="0" style="stop-color:#72C5A4"/>
		<stop  offset="0.3784" style="stop-color:#28B679"/>
		<stop  offset="0.6067" style="stop-color:#00AE62"/>
		<stop  offset="0.8933" style="stop-color:#007742"/>
		<stop  offset="1" style="stop-color:#009F5A"/>
	</radialGradient>
	<circle fill="url(#SVGID_10_)" cx="36.26" cy="44.9" r="0.302"/>
	
		<radialGradient id="SVGID_11_" cx="236.4639" cy="165.9932" r="0.5179" gradientTransform="matrix(-0.3068 -0.8933 -0.8933 0.3068 257.4817 206.2991)" gradientUnits="userSpaceOnUse">
		<stop  offset="0" style="stop-color:#72C5A4"/>
		<stop  offset="0.3784" style="stop-color:#28B679"/>
		<stop  offset="0.6067" style="stop-color:#00AE62"/>
		<stop  offset="0.8933" style="stop-color:#007742"/>
		<stop  offset="1" style="stop-color:#009F5A"/>
	</radialGradient>
	<circle fill="url(#SVGID_11_)" cx="36.445" cy="45.889" r="0.302"/>
	
		<radialGradient id="SVGID_12_" cx="238.9941" cy="164.6201" r="0.5182" gradientTransform="matrix(-0.3068 -0.8933 -0.8933 0.3068 256.8528 210.051)" gradientUnits="userSpaceOnUse">
		<stop  offset="0" style="stop-color:#72C5A4"/>
		<stop  offset="0.3784" style="stop-color:#28B679"/>
		<stop  offset="0.6067" style="stop-color:#00AE62"/>
		<stop  offset="0.8933" style="stop-color:#007742"/>
		<stop  offset="1" style="stop-color:#009F5A"/>
	</radialGradient>
	<circle fill="url(#SVGID_12_)" cx="36.268" cy="46.957" r="0.301"/>
	
		<radialGradient id="SVGID_13_" cx="292.2393" cy="310.5479" r="9.1992" gradientTransform="matrix(-0.4339 -0.6562 -0.6562 0.4339 343.2376 94.1455)" gradientUnits="userSpaceOnUse">
		<stop  offset="0" style="stop-color:#00AE62"/>
		<stop  offset="0.4096" style="stop-color:#00AC61"/>
		<stop  offset="0.6507" style="stop-color:#00A35C"/>
		<stop  offset="0.8476" style="stop-color:#009554"/>
		<stop  offset="1" style="stop-color:#00844A"/>
	</radialGradient>
	<path fill="url(#SVGID_13_)" d="M22.168,37.92c0,0-2.083-3.168-4.158-2.436c-1.141,0.4-1.816,1.639-1.816,1.639l-1.241-2.229
		l0.179,1.43l-1.125-1.18l0.425,1.518l-1.422-1.035c0,0,2.478,4.129,3.181,3.85c0.747-0.299,1.445-1.973,2.746-1.529
		c1.155,0.393,1.904,1.816,1.904,1.816L22.168,37.92z"/>
	
		<linearGradient id="SVGID_14_" gradientUnits="userSpaceOnUse" x1="179.5303" y1="106.4277" x2="181.4125" y2="102.8027" gradientTransform="matrix(0.9446 0 0 0.9446 -155.5684 -73.375)">
		<stop  offset="0" style="stop-color:#EC1C24"/>
		<stop  offset="1" style="stop-color:#8A0304"/>
	</linearGradient>
	<path fill="url(#SVGID_14_)" d="M15.625,23.421c0,0-4.042,0.257-4.602,4.062c-0.443,3.01,3.787,4.17,3.787,0.936
		c0-2.37,2.058-3.129,2.913-2.701C18.578,26.144,15.625,23.421,15.625,23.421z"/>
	
		<radialGradient id="SVGID_15_" cx="190.0645" cy="124.0029" r="15.4298" gradientTransform="matrix(0.9446 0 0 0.9446 -156.9546 -74.7613)" gradientUnits="userSpaceOnUse">
		<stop  offset="0" style="stop-color:#FFFFFF"/>
		<stop  offset="0.2547" style="stop-color:#8EDBBA"/>
		<stop  offset="0.4987" style="stop-color:#28BB7B"/>
		<stop  offset="0.6067" style="stop-color:#00AE62"/>
		<stop  offset="0.8933" style="stop-color:#007742"/>
		<stop  offset="1" style="stop-color:#009F5A"/>
	</radialGradient>
	<path fill="url(#SVGID_15_)" d="M24.631,29.262c0,0-4.733,2.566-4.628,8.367c0.104,5.686,9.188,8.012,12.318,1.855
		c2.411-4.74-3.794-10.355-3.794-10.355L24.631,29.262z"/>
	
		<radialGradient id="SVGID_16_" cx="198.7227" cy="82.7441" r="31.0619" gradientTransform="matrix(0.9446 0 0 0.9446 -156.9546 -74.7613)" gradientUnits="userSpaceOnUse">
		<stop  offset="0" style="stop-color:#82C893"/>
		<stop  offset="0.0095" style="stop-color:#79C690"/>
		<stop  offset="0.0485" style="stop-color:#59C083"/>
		<stop  offset="0.0924" style="stop-color:#3DBA79"/>
		<stop  offset="0.1416" style="stop-color:#26B670"/>
		<stop  offset="0.1986" style="stop-color:#15B26A"/>
		<stop  offset="0.2681" style="stop-color:#09B065"/>
		<stop  offset="0.3636" style="stop-color:#02AE63"/>
		<stop  offset="0.6067" style="stop-color:#00AE62"/>
		<stop  offset="0.8933" style="stop-color:#00844A"/>
		<stop  offset="1" style="stop-color:#009F5A"/>
	</radialGradient>
	<path fill="url(#SVGID_16_)" d="M43.251,24.921c-2.465,6.479-12.19,8.796-21.722,5.169c-1.462-0.557-2.836-1.221-4.104-1.969
		c-1.303-0.77-0.606-2.566-1.668-3.491c-1.132-0.984-4.006-1.104-4.825-2.206c-2.541-3.418-3.479-7.259-2.195-10.634
		c2.466-6.481,12.191-8.796,21.722-5.171C39.99,10.246,45.716,18.439,43.251,24.921z"/>
	
		<radialGradient id="SVGID_17_" cx="221.3623" cy="238.2354" r="14.8615" gradientTransform="matrix(0.7866 0 0 0.7866 -139.1337 -183.6811)" gradientUnits="userSpaceOnUse">
		<stop  offset="0" style="stop-color:#00AE62"/>
		<stop  offset="0.4096" style="stop-color:#00AC61"/>
		<stop  offset="0.6507" style="stop-color:#00A35C"/>
		<stop  offset="0.8476" style="stop-color:#009554"/>
		<stop  offset="1" style="stop-color:#00844A"/>
	</radialGradient>
	<path fill="url(#SVGID_17_)" d="M24.162,11.241c0,0,4.472-3.68,8.01-3.903c-0.558-0.255-1.127-0.496-1.713-0.719
		c-2.433-0.925-4.878-1.461-7.212-1.642L24.162,11.241z"/>
	
		<radialGradient id="SVGID_18_" cx="196.8672" cy="245.4111" r="38.5141" gradientTransform="matrix(0.7866 0 0 0.7866 -139.1337 -183.6811)" gradientUnits="userSpaceOnUse">
		<stop  offset="0" style="stop-color:#00AE62"/>
		<stop  offset="0.4096" style="stop-color:#00AC61"/>
		<stop  offset="0.6507" style="stop-color:#00A35C"/>
		<stop  offset="0.8476" style="stop-color:#009554"/>
		<stop  offset="1" style="stop-color:#00844A"/>
	</radialGradient>
	<path fill="url(#SVGID_18_)" d="M40.25,13.283l-2.692,0.367l-0.591,4.367c0,0,4.41,0.722,6.84,3.253
		C43.667,18.57,42.394,15.782,40.25,13.283z"/>
	<g>
		<circle fill="#00AE62" cx="37.333" cy="12.878" r="5.23"/>
		<circle fill="#00844A" cx="37.445" cy="12.586" r="3.638"/>
		<circle fill="#53BD94" cx="37.261" cy="13.072" r="3.638"/>
		
			<radialGradient id="SVGID_19_" cx="175.1748" cy="195.0957" r="10.0103" gradientTransform="matrix(0.7352 0.2798 -0.2798 0.7352 -38.0982 -182.6712)" gradientUnits="userSpaceOnUse">
			<stop  offset="0" style="stop-color:#FFDD00"/>
			<stop  offset="0.3958" style="stop-color:#FFDA01"/>
			<stop  offset="0.663" style="stop-color:#FED106"/>
			<stop  offset="0.8915" style="stop-color:#FDC20E"/>
			<stop  offset="1" style="stop-color:#FCB813"/>
		</radialGradient>
		<circle fill="url(#SVGID_19_)" cx="37.334" cy="12.878" r="3.586"/>
		<path fill="#231F20" d="M38.486,9.851c-0.231-0.087-0.468-0.136-0.702-0.148l-0.014,2.056l-1.729-1.414
			c-0.247,0.234-0.447,0.524-0.577,0.863c-0.459,1.209,0.147,2.563,1.356,3.021s2.563-0.147,3.021-1.356
			C40.303,11.663,39.694,10.312,38.486,9.851z"/>
	</g>
	<g>
		<circle fill="#00AE62" cx="21.379" cy="6.807" r="5.23"/>
		<circle fill="#00844A" cx="21.49" cy="6.517" r="3.638"/>
		<circle fill="#53BD94" cx="21.306" cy="7.002" r="3.639"/>
		
			<radialGradient id="SVGID_20_" cx="229.6338" cy="195.0898" r="10.0098" gradientTransform="matrix(0.7352 0.2798 -0.2798 0.7352 -94.0924 -203.975)" gradientUnits="userSpaceOnUse">
			<stop  offset="0" style="stop-color:#FFDD00"/>
			<stop  offset="0.3958" style="stop-color:#FFDA01"/>
			<stop  offset="0.663" style="stop-color:#FED106"/>
			<stop  offset="0.8915" style="stop-color:#FDC20E"/>
			<stop  offset="1" style="stop-color:#FCB813"/>
		</radialGradient>
		<circle fill="url(#SVGID_20_)" cx="21.379" cy="6.808" r="3.586"/>
		<path fill="#231F20" d="M22.531,3.78c-0.23-0.087-0.466-0.136-0.701-0.149l-0.015,2.056l-1.73-1.414
			c-0.246,0.234-0.447,0.524-0.576,0.863c-0.459,1.208,0.147,2.561,1.356,3.021s2.562-0.147,3.021-1.356
			C24.347,5.593,23.74,4.241,22.531,3.78z"/>
	</g>
	
		<ellipse transform="matrix(0.9357 0.3529 -0.3529 0.9357 8.5835 -7.063)" fill="#00844A" cx="23.661" cy="20.008" rx="0.224" ry="0.56"/>
	
		<ellipse transform="matrix(0.9351 0.3545 -0.3545 0.9351 8.1886 -6.3626)" fill="#00844A" cx="21.462" cy="19.17" rx="0.225" ry="0.561"/>
	
		<radialGradient id="SVGID_21_" cx="182.2246" cy="116.0693" r="0.5189" gradientTransform="matrix(0.9446 0 0 0.9446 -156.9546 -74.7613)" gradientUnits="userSpaceOnUse">
		<stop  offset="0" style="stop-color:#72C5A4"/>
		<stop  offset="0.3784" style="stop-color:#28B679"/>
		<stop  offset="0.6067" style="stop-color:#00AE62"/>
		<stop  offset="0.8933" style="stop-color:#007742"/>
		<stop  offset="1" style="stop-color:#009F5A"/>
	</radialGradient>
	<circle fill="url(#SVGID_21_)" cx="15.034" cy="34.949" r="0.302"/>
	
		<radialGradient id="SVGID_22_" cx="184.8643" cy="115.6797" r="0.5182" gradientTransform="matrix(0.9446 0 0 0.9446 -160.4444 -74.2466)" gradientUnits="userSpaceOnUse">
		<stop  offset="0" style="stop-color:#72C5A4"/>
		<stop  offset="0.3784" style="stop-color:#28B679"/>
		<stop  offset="0.6067" style="stop-color:#00AE62"/>
		<stop  offset="0.8933" style="stop-color:#007742"/>
		<stop  offset="1" style="stop-color:#009F5A"/>
	</radialGradient>
	<circle fill="url(#SVGID_22_)" cx="14.04" cy="35.096" r="0.301"/>
	
		<radialGradient id="SVGID_23_" cx="187.3975" cy="114.3096" r="0.5175" gradientTransform="matrix(0.9446 0 0 0.9446 -163.7901 -72.4375)" gradientUnits="userSpaceOnUse">
		<stop  offset="0" style="stop-color:#72C5A4"/>
		<stop  offset="0.3784" style="stop-color:#28B679"/>
		<stop  offset="0.6067" style="stop-color:#00AE62"/>
		<stop  offset="0.8933" style="stop-color:#007742"/>
		<stop  offset="1" style="stop-color:#009F5A"/>
	</radialGradient>
	<circle fill="url(#SVGID_23_)" cx="13.087" cy="35.611" r="0.302"/>
</g>
</svg>
