<?xml version="1.0" encoding="utf-8"?>
<!-- Generator: Adobe Illustrator 14.0.0, SVG Export Plug-In . SVG Version: 6.00 Build 43363)  -->
<!DOCTYPE svg PUBLIC "-//W3C//DTD SVG 1.1//EN" "http://www.w3.org/Graphics/SVG/1.1/DTD/svg11.dtd">
<svg version="1.1" id="图层_1" xmlns="http://www.w3.org/2000/svg" xmlns:xlink="http://www.w3.org/1999/xlink" x="0px" y="0px"
	 width="100px" height="100px" viewBox="0 0 100 100" enable-background="new 0 0 100 100" xml:space="preserve">
<g>
	<linearGradient id="SVGID_1_" gradientUnits="userSpaceOnUse" x1="29.1128" y1="82.7422" x2="29.1128" y2="95.9658">
		<stop  offset="0.0449" style="stop-color:#D66F00"/>
		<stop  offset="0.8483" style="stop-color:#793100"/>
	</linearGradient>
	<path fill="url(#SVGID_1_)" d="M43.029,79.413c0,0-7.661,7.079-19.919,8.851c-12.258,1.771-16.088,2.063-16.343,4.129
		c-0.255,2.066,27.835,7.968,36.518,0.297c8.685-7.673,8.172-10.918,8.172-10.918L43.029,79.413z"/>
	<g>
		<radialGradient id="SVGID_2_" cx="50.6709" cy="66.2256" r="25.4663" gradientUnits="userSpaceOnUse">
			<stop  offset="0.2135" style="stop-color:#9F6700"/>
			<stop  offset="1" style="stop-color:#FFBB3F"/>
		</radialGradient>
		<path fill="url(#SVGID_2_)" d="M66.239,82.596c-0.396,1.034,1.021,2.551,3.206,3.482c0.707-1.114,1.335-2.392,1.862-3.79
			c-0.007-0.002-0.015-0.005-0.021-0.008C68.919,81.369,66.659,81.508,66.239,82.596z"/>
		<radialGradient id="SVGID_3_" cx="50.6738" cy="66.2266" r="25.4646" gradientUnits="userSpaceOnUse">
			<stop  offset="0.2135" style="stop-color:#9F6700"/>
			<stop  offset="1" style="stop-color:#FFBB3F"/>
		</radialGradient>
		<path fill="url(#SVGID_3_)" d="M68.241,75.91c-0.071,1.123,1.792,2.159,4.205,2.373c0.271-1.348,0.447-2.747,0.516-4.183
			C70.428,73.938,68.314,74.75,68.241,75.91z"/>
		<radialGradient id="SVGID_4_" cx="50.6768" cy="66.2256" r="25.4608" gradientUnits="userSpaceOnUse">
			<stop  offset="0.2135" style="stop-color:#9F6700"/>
			<stop  offset="1" style="stop-color:#FFBB3F"/>
		</radialGradient>
		<path fill="url(#SVGID_4_)" d="M66.915,68.397c0.351,1.11,2.598,1.389,5.019,0.619c0.255-0.079,0.501-0.172,0.737-0.269
			c-0.028-0.183-0.05-0.364-0.082-0.548c-0.227-1.253-0.776-2.344-1.554-3.308c-0.126,0.034-0.251,0.068-0.376,0.107
			C68.239,65.767,66.563,67.289,66.915,68.397z"/>
		<radialGradient id="SVGID_5_" cx="50.6753" cy="66.2246" r="25.4656" gradientUnits="userSpaceOnUse">
			<stop  offset="0.2135" style="stop-color:#9F6700"/>
			<stop  offset="1" style="stop-color:#FFBB3F"/>
		</radialGradient>
		<path fill="url(#SVGID_5_)" d="M34.832,69.937c0.417-1.086-1.163-2.706-3.532-3.619c-0.099-0.038-0.196-0.063-0.294-0.098
			c-0.699,1.139-1.244,2.428-1.559,3.892c0.112,0.048,0.224,0.094,0.339,0.14C32.153,71.165,34.415,71.022,34.832,69.937z"/>
		<radialGradient id="SVGID_6_" cx="50.668" cy="66.2236" r="25.4597" gradientUnits="userSpaceOnUse">
			<stop  offset="0.2135" style="stop-color:#9F6700"/>
			<stop  offset="1" style="stop-color:#FFBB3F"/>
		</radialGradient>
		<path fill="url(#SVGID_6_)" d="M32.83,76.622c0.067-1.046-1.539-2.015-3.705-2.318c0.017,1.466,0.132,2.838,0.333,4.121
			C31.352,78.281,32.771,77.568,32.83,76.622z"/>
		<radialGradient id="SVGID_7_" cx="50.6724" cy="66.2344" r="25.4546" gradientUnits="userSpaceOnUse">
			<stop  offset="0.2135" style="stop-color:#9F6700"/>
			<stop  offset="1" style="stop-color:#FFBB3F"/>
		</radialGradient>
		<path fill="url(#SVGID_7_)" d="M34.157,84.134c-0.272-0.86-1.684-1.218-3.431-0.978c0.511,1.277,1.128,2.407,1.825,3.385
			C33.728,85.784,34.391,84.868,34.157,84.134z"/>
		<radialGradient id="SVGID_8_" cx="50.8926" cy="54.3965" r="32.2456" gradientUnits="userSpaceOnUse">
			<stop  offset="0" style="stop-color:#5F3D00"/>
			<stop  offset="0.9831" style="stop-color:#8D3F00"/>
		</radialGradient>
		<path fill="url(#SVGID_8_)" d="M72.671,68.748c-0.028-0.183-0.05-0.364-0.082-0.548c-0.227-1.253-0.776-2.344-1.554-3.308
			c-5.962-7.395-19.706-13.825-19.706-13.825S35.221,59.347,31.005,66.22c-0.699,1.139-1.244,2.428-1.559,3.892
			c-0.154,0.721-0.259,1.481-0.295,2.29c-0.029,0.65-0.034,1.284-0.027,1.902c0.017,1.466,0.132,2.838,0.333,4.121
			c0.275,1.747,0.706,3.329,1.269,4.731c0.511,1.277,1.128,2.407,1.825,3.385c0.494,0.694,1.024,1.314,1.588,1.855
			c3.066-0.882,7.603-1.558,12.605-0.257c1.761-1.954,8.216-2.068,10.17-0.257c2.985-0.603,6.982-1.004,11.556,0.021
			c0.335-0.423,0.668-1.34,0.976-1.826c0.707-1.114,1.335-2.392,1.862-3.79c0.47-1.25,0.854-2.595,1.139-4.005
			c0.271-1.348,0.447-2.747,0.516-4.183C73.043,72.343,72.954,70.542,72.671,68.748z"/>
	</g>
	<linearGradient id="SVGID_9_" gradientUnits="userSpaceOnUse" x1="32.8682" y1="88.4131" x2="32.8682" y2="97.9249">
		<stop  offset="0.0449" style="stop-color:#D66F00"/>
		<stop  offset="0.8483" style="stop-color:#793100"/>
	</linearGradient>
	<path fill="url(#SVGID_9_)" d="M46.744,88.14c-2.36-0.614-4.616-0.784-6.663-0.705c-0.71-0.875-1.783-1.446-2.999-1.446
		c-1.518,0-2.829,0.874-3.466,2.144c-0.637-1.27-1.946-2.144-3.465-2.144c-1.172,0-2.217,0.524-2.927,1.348
		c-0.18,0-0.36,1.009-0.541,1.015c-0.171,0.005-0.34-0.993-0.51-0.983c-0.709-0.841-1.765-1.379-2.952-1.379
		c-1.061,0-4.324,0.702-4.324,5.044c0,4.341,3.255,5.526,4.324,5.681c2.635,0.383,9.956,0.383,13.861,0
		c3.903-0.382,6.24-1.247,7.351-1.34C49.031,94.989,45.366,89.67,46.744,88.14z"/>
	
		<radialGradient id="SVGID_10_" cx="-34.605" cy="87.7109" r="5.2355" gradientTransform="matrix(1.0909 0 0 1 60.2586 0)" gradientUnits="userSpaceOnUse">
		<stop  offset="0.0899" style="stop-color:#F1AC45"/>
		<stop  offset="1" style="stop-color:#DF8000"/>
	</radialGradient>
	<ellipse fill="url(#SVGID_10_)" cx="22.855" cy="88.542" rx="2.298" ry="1.468"/>
	
		<radialGradient id="SVGID_11_" cx="-27.8169" cy="87.584" r="5.2377" gradientTransform="matrix(1.0909 0 0 1 60.2586 0)" gradientUnits="userSpaceOnUse">
		<stop  offset="0.0899" style="stop-color:#F1AC45"/>
		<stop  offset="1" style="stop-color:#DF8000"/>
	</radialGradient>
	<ellipse fill="url(#SVGID_11_)" cx="30.261" cy="88.414" rx="2.298" ry="1.47"/>
	
		<radialGradient id="SVGID_12_" cx="-21.4966" cy="87.5215" r="5.235" gradientTransform="matrix(1.0909 0 0 1 60.2586 0)" gradientUnits="userSpaceOnUse">
		<stop  offset="0.0899" style="stop-color:#F1AC45"/>
		<stop  offset="1" style="stop-color:#DF8000"/>
	</radialGradient>
	<ellipse fill="url(#SVGID_12_)" cx="37.155" cy="88.352" rx="2.299" ry="1.468"/>
	<g>
		<linearGradient id="SVGID_13_" gradientUnits="userSpaceOnUse" x1="70.791" y1="87.876" x2="70.791" y2="96.3929">
			<stop  offset="0.0449" style="stop-color:#D66F00"/>
			<stop  offset="0.8483" style="stop-color:#793100"/>
		</linearGradient>
		<path fill="url(#SVGID_13_)" d="M56.914,87.883c2.361-0.612,4.615-0.784,6.664-0.704c0.71-0.874,1.781-1.446,2.998-1.446
			c1.518,0,2.828,0.873,3.465,2.145c0.637-1.271,1.948-2.145,3.465-2.145c1.174,0,2.219,0.525,2.929,1.348
			c0.182,0,0.362,1.009,0.54,1.016c0.172,0.005,0.342-0.993,0.51-0.983c0.711-0.841,1.766-1.38,2.952-1.38
			c1.062,0,4.325,0.701,4.325,5.046c0,4.339-3.256,5.524-4.325,5.68c-2.634,0.383-9.956,0.383-13.86,0
			c-3.905-0.384-6.239-1.249-7.352-1.341C54.628,94.735,58.293,89.415,56.914,87.883z"/>
		
			<radialGradient id="SVGID_14_" cx="-1247.23" cy="87.457" r="5.2366" gradientTransform="matrix(-1.0909 0 0 1 -1279.452 0)" gradientUnits="userSpaceOnUse">
			<stop  offset="0.0899" style="stop-color:#F1AC45"/>
			<stop  offset="1" style="stop-color:#DF8000"/>
		</radialGradient>
		<ellipse fill="url(#SVGID_14_)" cx="80.803" cy="88.285" rx="2.298" ry="1.471"/>
		
			<radialGradient id="SVGID_15_" cx="-1240.4409" cy="87.3281" r="5.2366" gradientTransform="matrix(-1.0909 0 0 1 -1279.452 0)" gradientUnits="userSpaceOnUse">
			<stop  offset="0.0899" style="stop-color:#F1AC45"/>
			<stop  offset="1" style="stop-color:#DF8000"/>
		</radialGradient>
		<ellipse fill="url(#SVGID_15_)" cx="73.397" cy="88.158" rx="2.298" ry="1.469"/>
		
			<radialGradient id="SVGID_16_" cx="-1234.1206" cy="87.2676" r="5.2328" gradientTransform="matrix(-1.0909 0 0 1 -1279.452 0)" gradientUnits="userSpaceOnUse">
			<stop  offset="0.0899" style="stop-color:#F1AC45"/>
			<stop  offset="1" style="stop-color:#DF8000"/>
		</radialGradient>
		<ellipse fill="url(#SVGID_16_)" cx="66.503" cy="88.096" rx="2.298" ry="1.469"/>
	</g>
	<g>
		<radialGradient id="SVGID_17_" cx="52.2588" cy="88.123" r="10.2392" gradientUnits="userSpaceOnUse">
			<stop  offset="0.2135" style="stop-color:#FFD17F"/>
			<stop  offset="1" style="stop-color:#DF8000"/>
		</radialGradient>
		<path fill="url(#SVGID_17_)" d="M62.962,81.587c0,1.167-0.847,2.722-1.957,3.321c-5.657,3.024-12.545,3.021-18.204,0
			c-1.11-0.6-1.957-2.154-1.957-3.321c0-3.344,0-5.017,0-8.36c0-1.165,0.946-2.114,2.113-2.114c5.965,0,11.929,0,17.892,0
			c1.167,0,2.113,0.949,2.113,2.114C62.962,76.57,62.962,78.243,62.962,81.587z"/>
	</g>
	<g>
		<radialGradient id="SVGID_18_" cx="69.9707" cy="71.623" r="15.6764" gradientUnits="userSpaceOnUse">
			<stop  offset="0.4101" style="stop-color:#DC7E00"/>
			<stop  offset="1" style="stop-color:#AC4C00"/>
		</radialGradient>
		<path fill="url(#SVGID_18_)" d="M73.478,64.162c1.275,5.274-2.116,10.213-4.226,10.794c-2.108,0.584-0.191-4.007-1.466-9.282
			s-6.125-7.237-4.016-7.82C65.879,57.268,72.205,58.888,73.478,64.162z"/>
	</g>
	<g>
		
			<radialGradient id="SVGID_19_" cx="-108.625" cy="-52.6777" r="6.2313" gradientTransform="matrix(1.062 0.3898 -0.3644 1.136 167.7454 168.4471)" gradientUnits="userSpaceOnUse">
			<stop  offset="0.2135" style="stop-color:#FFD17F"/>
			<stop  offset="1" style="stop-color:#DF8000"/>
		</radialGradient>
		<path fill="url(#SVGID_19_)" d="M72.462,71.323c-0.232-0.083-0.468-0.106-0.696-0.083c-0.138-0.767-0.634-1.439-1.374-1.711
			c-0.772-0.282-1.589-0.051-2.138,0.523c-0.187-0.238-0.428-0.43-0.721-0.537c-0.864-0.317-1.804,0.175-2.099,1.099l-0.413,1.28
			c-0.294,0.924,0.164,1.928,1.029,2.246c0.404,0.148,0.824,0.112,1.188-0.056c0.216,0.597,0.66,1.095,1.269,1.318
			c0.565,0.208,1.154,0.139,1.646-0.133c0.196,0.304,0.474,0.551,0.825,0.678c0.861,0.317,1.803-0.174,2.099-1.099l0.411-1.279
			C73.783,72.646,73.325,71.642,72.462,71.323z"/>
		
			<radialGradient id="SVGID_20_" cx="117.7197" cy="-46.9526" r="2.9552" gradientTransform="matrix(0.7502 0.2754 -0.3644 1.136 -39.1067 92.897)" gradientUnits="userSpaceOnUse">
			<stop  offset="0.0899" style="stop-color:#F1AC45"/>
			<stop  offset="1" style="stop-color:#DF8000"/>
		</radialGradient>
		<path fill="url(#SVGID_20_)" d="M67.174,72.889c-0.166,0.521-0.702,0.795-1.193,0.613c-0.494-0.182-0.759-0.749-0.591-1.268
			c0.167-0.523,0.701-0.798,1.194-0.614C67.076,71.799,67.341,72.366,67.174,72.889z"/>
		
			<radialGradient id="SVGID_21_" cx="121.4404" cy="-46.9541" r="2.9562" gradientTransform="matrix(0.7502 0.2754 -0.3644 1.136 -39.1067 92.897)" gradientUnits="userSpaceOnUse">
			<stop  offset="0.0899" style="stop-color:#F1AC45"/>
			<stop  offset="1" style="stop-color:#DF8000"/>
		</radialGradient>
		<path fill="url(#SVGID_21_)" d="M69.965,73.912c-0.167,0.521-0.701,0.796-1.195,0.614c-0.492-0.181-0.755-0.749-0.589-1.27
			c0.166-0.52,0.699-0.795,1.193-0.614S70.134,73.393,69.965,73.912z"/>
		
			<radialGradient id="SVGID_22_" cx="125.0557" cy="-46.9536" r="2.9568" gradientTransform="matrix(0.7502 0.2754 -0.3644 1.136 -39.1067 92.897)" gradientUnits="userSpaceOnUse">
			<stop  offset="0.0899" style="stop-color:#F1AC45"/>
			<stop  offset="1" style="stop-color:#DF8000"/>
		</radialGradient>
		<path fill="url(#SVGID_22_)" d="M72.677,74.909c-0.167,0.52-0.7,0.794-1.194,0.613c-0.492-0.182-0.758-0.749-0.59-1.27
			c0.166-0.521,0.702-0.795,1.194-0.614C72.58,73.818,72.843,74.387,72.677,74.909z"/>
	</g>
	<g>
		<g>
			<radialGradient id="SVGID_23_" cx="33.7085" cy="70.9844" r="13.2883" gradientUnits="userSpaceOnUse">
				<stop  offset="0.4101" style="stop-color:#DC7E00"/>
				<stop  offset="1" style="stop-color:#AC4C00"/>
			</radialGradient>
			<path fill="url(#SVGID_23_)" d="M29.453,64.079c-1.367,5.313,2.271,10.281,4.535,10.869c2.262,0.588,0.206-4.035,1.573-9.349
				c1.367-5.311,6.569-7.288,4.307-7.874C37.605,57.136,30.819,58.767,29.453,64.079z"/>
		</g>
		<g>
			
				<radialGradient id="SVGID_24_" cx="-1255.4912" cy="341.7285" r="6.2306" gradientTransform="matrix(-1.1394 0.3925 0.3909 1.144 -1532.6001 168.0374)" gradientUnits="userSpaceOnUse">
				<stop  offset="0.2135" style="stop-color:#FFD17F"/>
				<stop  offset="1" style="stop-color:#DF8000"/>
			</radialGradient>
			<path fill="url(#SVGID_24_)" d="M30.544,71.291c0.249-0.086,0.501-0.109,0.747-0.086c0.146-0.771,0.68-1.448,1.474-1.722
				c0.829-0.285,1.704-0.049,2.292,0.523c0.2-0.236,0.461-0.43,0.775-0.538c0.926-0.318,1.934,0.175,2.253,1.105l0.44,1.289
				c0.317,0.932-0.177,1.943-1.102,2.263c-0.435,0.151-0.887,0.115-1.278-0.054c-0.231,0.6-0.707,1.102-1.361,1.325
				c-0.606,0.21-1.236,0.141-1.764-0.134c-0.208,0.306-0.508,0.556-0.884,0.685c-0.927,0.319-1.935-0.178-2.253-1.105l-0.441-1.291
				C29.125,72.623,29.618,71.609,30.544,71.291z"/>
			
				<radialGradient id="SVGID_25_" cx="-1505.9897" cy="347.5566" r="2.9562" gradientTransform="matrix(-0.8049 0.2773 0.3909 1.144 -1310.8936 91.9551)" gradientUnits="userSpaceOnUse">
				<stop  offset="0.0899" style="stop-color:#F1AC45"/>
				<stop  offset="1" style="stop-color:#DF8000"/>
			</radialGradient>
			<path fill="url(#SVGID_25_)" d="M36.218,72.865c0.178,0.521,0.752,0.802,1.281,0.619c0.529-0.183,0.813-0.754,0.634-1.278
				c-0.18-0.524-0.753-0.802-1.282-0.619C36.321,71.768,36.037,72.342,36.218,72.865z"/>
			
				<radialGradient id="SVGID_26_" cx="-1502.269" cy="347.5557" r="2.9562" gradientTransform="matrix(-0.8049 0.2773 0.3909 1.144 -1310.8936 91.9551)" gradientUnits="userSpaceOnUse">
				<stop  offset="0.0899" style="stop-color:#F1AC45"/>
				<stop  offset="1" style="stop-color:#DF8000"/>
			</radialGradient>
			<path fill="url(#SVGID_26_)" d="M33.223,73.896c0.18,0.525,0.753,0.802,1.281,0.618c0.53-0.181,0.813-0.753,0.634-1.277
				c-0.181-0.524-0.752-0.802-1.282-0.619C33.328,72.8,33.043,73.374,33.223,73.896z"/>
			
				<radialGradient id="SVGID_27_" cx="-1498.6548" cy="347.5557" r="2.96" gradientTransform="matrix(-0.8049 0.2773 0.3909 1.144 -1310.8936 91.9551)" gradientUnits="userSpaceOnUse">
				<stop  offset="0.0899" style="stop-color:#F1AC45"/>
				<stop  offset="1" style="stop-color:#DF8000"/>
			</radialGradient>
			<path fill="url(#SVGID_27_)" d="M30.313,74.899c0.18,0.523,0.753,0.8,1.282,0.62c0.527-0.184,0.813-0.756,0.634-1.281
				c-0.18-0.523-0.754-0.801-1.283-0.618C30.417,73.804,30.134,74.375,30.313,74.899z"/>
		</g>
	</g>
	<radialGradient id="SVGID_28_" cx="63.2451" cy="26.8628" r="23.3786" gradientUnits="userSpaceOnUse">
		<stop  offset="0.2135" style="stop-color:#FFD17F"/>
		<stop  offset="1" style="stop-color:#DF8000"/>
	</radialGradient>
	<path fill="url(#SVGID_28_)" d="M61.363,28.083c2.552,1.788,10.471-0.511,13.278-4.597c2.808-4.085,4.214-14.092,1.277-15.576
		c-2.936-1.487-12.513,4.34-14.556,8.427C59.321,20.421,58.809,26.295,61.363,28.083z"/>
	<path fill="#C56200" d="M62.544,27.196c1.916,1.34,7.853-0.384,9.961-3.45c2.108-3.064,3.162-10.571,0.959-11.685
		c-2.204-1.115-9.387,3.256-10.92,6.322C61.012,21.449,60.628,25.855,62.544,27.196z"/>
	
		<radialGradient id="SVGID_29_" cx="-1213.3374" cy="-197.5674" r="23.3762" gradientTransform="matrix(-0.9465 -0.3353 -0.3412 0.943 -1176.4254 -194.4514)" gradientUnits="userSpaceOnUse">
		<stop  offset="0.2135" style="stop-color:#FFD17F"/>
		<stop  offset="1" style="stop-color:#DF8000"/>
	</radialGradient>
	<path fill="url(#SVGID_29_)" d="M40.775,27.855c-3.026,0.83-9.735-3.991-11-8.786c-1.265-4.794,0.82-14.701,4.106-15.116
		c3.287-0.417,10.362,8.288,10.902,12.826C45.322,21.316,43.802,27.027,40.775,27.855z"/>
	<path fill="#C56200" d="M39.96,26.624c-2.27,0.623-7.303-2.995-8.251-6.592c-0.948-3.596,0.617-11.028,3.08-11.339
		c2.466-0.312,7.775,6.217,8.178,9.622C43.373,21.719,42.232,26.001,39.96,26.624z"/>
	
		<radialGradient id="SVGID_30_" cx="42.6592" cy="60.8096" r="13.0808" gradientTransform="matrix(1.2437 0 0 1.1284 -5.3808 -16.9566)" gradientUnits="userSpaceOnUse">
		<stop  offset="0.0449" style="stop-color:#D66F00"/>
		<stop  offset="0.8034" style="stop-color:#BB5D00"/>
	</radialGradient>
	<path fill="url(#SVGID_30_)" d="M38.979,52.701c0,0-0.558,8.397,10.682,8.397c11.244,0,11.165-7.14,10.448-9.546
		C59.394,49.148,42.928,42.772,38.979,52.701z"/>
	
		<radialGradient id="SVGID_31_" cx="75.3516" cy="13.374" r="17.7957" gradientTransform="matrix(1 6.000000e-004 -6.000000e-004 1 -24.7904 37.5428)" gradientUnits="userSpaceOnUse">
		<stop  offset="0.2135" style="stop-color:#FFD17F"/>
		<stop  offset="0.4101" style="stop-color:#DC7E00"/>
		<stop  offset="1" style="stop-color:#AC4C00"/>
	</radialGradient>
	<path fill="url(#SVGID_31_)" d="M50.532,20.082c-15.808,0.483-14.569,10.883-19.029,16.293c-4.462,5.409-5.518,15.031,0.901,20.221
		c6.42,5.19,17.368-0.692,17.368-0.692s9.999,5.892,18.895,1.203c8.896-4.689,3.246-17.586,1.624-21.945
		C68.666,30.804,66.344,19.596,50.532,20.082z"/>
	<g>
		<g>
			<path fill="#FFFFFF" d="M59.005,28.901c4.159,0,7.545,3.388,7.545,7.546c0,4.163-3.386,7.549-7.545,7.549
				c-4.162,0-7.549-3.386-7.549-7.549C51.456,32.289,54.843,28.901,59.005,28.901z"/>
			
				<linearGradient id="SVGID_32_" gradientUnits="userSpaceOnUse" x1="-9.8018" y1="36.4492" x2="6.6328" y2="36.4492" gradientTransform="matrix(-1 0 0 1 57.4189 0)">
				<stop  offset="0" style="stop-color:#272C34"/>
				<stop  offset="1" style="stop-color:#292933"/>
			</linearGradient>
			<path fill="url(#SVGID_32_)" d="M50.786,36.447c0,4.531,3.683,8.219,8.219,8.219c4.529,0,8.216-3.688,8.216-8.219
				c0-4.53-3.687-8.215-8.216-8.215C54.469,28.232,50.786,31.917,50.786,36.447z M51.456,36.447c0-4.158,3.387-7.546,7.549-7.546
				c4.159,0,7.545,3.388,7.545,7.546c0,4.163-3.386,7.549-7.545,7.549C54.843,43.996,51.456,40.61,51.456,36.447z"/>
		</g>
		
			<radialGradient id="SVGID_33_" cx="-1.584" cy="36.4482" r="7.6716" gradientTransform="matrix(-1 0 0 1 57.4189 0)" gradientUnits="userSpaceOnUse">
			<stop  offset="0" style="stop-color:#FFFFFF"/>
			<stop  offset="1" style="stop-color:#E5E5E5"/>
		</radialGradient>
		<path fill="url(#SVGID_33_)" d="M51.33,36.447c0,4.242,3.435,7.672,7.675,7.672c4.235,0,7.671-3.43,7.671-7.672
			c0-4.239-3.436-7.669-7.671-7.669C54.765,28.777,51.33,32.208,51.33,36.447z"/>
		
			<linearGradient id="SVGID_34_" gradientUnits="userSpaceOnUse" x1="-7.4053" y1="36.4482" x2="4.2393" y2="36.4482" gradientTransform="matrix(-1 0 0 1 57.4189 0)">
			<stop  offset="0" style="stop-color:#F3AF18"/>
			<stop  offset="1" style="stop-color:#CAA21B"/>
		</linearGradient>
		<path fill="url(#SVGID_34_)" d="M53.18,36.447c0,3.219,2.608,5.824,5.825,5.824c3.214,0,5.819-2.605,5.819-5.824
			c0-3.213-2.605-5.821-5.819-5.821C55.788,30.625,53.18,33.234,53.18,36.447z"/>
		
			<radialGradient id="SVGID_35_" cx="-1.583" cy="36.4492" r="4.1897" gradientTransform="matrix(-1 0 0 1 57.4189 0)" gradientUnits="userSpaceOnUse">
			<stop  offset="0" style="stop-color:#1F1600"/>
			<stop  offset="1" style="stop-color:#000000"/>
		</radialGradient>
		<path fill="url(#SVGID_35_)" d="M54.813,36.447c0,2.317,1.876,4.192,4.192,4.192c2.312,0,4.187-1.875,4.187-4.192
			c0-2.313-1.875-4.188-4.187-4.188C56.688,32.259,54.813,34.134,54.813,36.447z"/>
		
			<radialGradient id="SVGID_36_" cx="-230.812" cy="-114.6611" r="1.1709" gradientTransform="matrix(-0.6444 0.4405 0.5644 0.8255 -22.0567 235.8591)" gradientUnits="userSpaceOnUse">
			<stop  offset="0" style="stop-color:#FFFFFF"/>
			<stop  offset="1" style="stop-color:#E5E5E5"/>
		</radialGradient>
		<path fill="url(#SVGID_36_)" d="M61.209,40.05c0.367,0.536,1,0.735,1.416,0.448c0.418-0.284,0.461-0.946,0.094-1.481
			c-0.362-0.535-0.997-0.739-1.415-0.45C60.887,38.85,60.847,39.516,61.209,40.05z"/>
		
			<radialGradient id="SVGID_37_" cx="-177.8398" cy="-287.6299" r="1.1719" gradientTransform="matrix(-0.478 0.3268 0.4186 0.6124 95.2145 274.4133)" gradientUnits="userSpaceOnUse">
			<stop  offset="0" style="stop-color:#FFFFFF"/>
			<stop  offset="1" style="stop-color:#E5E5E5"/>
		</radialGradient>
		<path fill="url(#SVGID_37_)" d="M59.26,40.532c0.271,0.399,0.74,0.549,1.052,0.337c0.308-0.213,0.338-0.705,0.068-1.1
			c-0.272-0.397-0.742-0.549-1.052-0.337C59.021,39.642,58.989,40.136,59.26,40.532z"/>
	</g>
	<g>
		<g>
			<path fill="#FFFFFF" d="M42.419,29.907c3.721,0,6.752,3.034,6.752,6.757c0,3.725-3.031,6.755-6.752,6.755
				c-3.727,0-6.756-3.03-6.756-6.755C35.664,32.941,38.693,29.907,42.419,29.907z"/>
			
				<linearGradient id="SVGID_38_" gradientUnits="userSpaceOnUse" x1="7.6465" y1="36.6631" x2="22.3569" y2="36.6631" gradientTransform="matrix(-1 0 0 1 57.4189 0)">
				<stop  offset="0" style="stop-color:#272C34"/>
				<stop  offset="1" style="stop-color:#292933"/>
			</linearGradient>
			<path fill="url(#SVGID_38_)" d="M35.062,36.664c0,4.055,3.299,7.356,7.357,7.356c4.055,0,7.353-3.301,7.353-7.356
				c0-4.056-3.298-7.356-7.353-7.356C38.361,29.307,35.062,32.607,35.062,36.664z M35.664,36.664c0-3.723,3.029-6.757,6.756-6.757
				c3.721,0,6.752,3.034,6.752,6.757c0,3.725-3.031,6.755-6.752,6.755C38.693,43.418,35.664,40.388,35.664,36.664z"/>
		</g>
		
			<radialGradient id="SVGID_39_" cx="15.001" cy="36.6641" r="6.8682" gradientTransform="matrix(-1 0 0 1 57.4189 0)" gradientUnits="userSpaceOnUse">
			<stop  offset="0" style="stop-color:#FFFFFF"/>
			<stop  offset="1" style="stop-color:#E5E5E5"/>
		</radialGradient>
		<circle fill="url(#SVGID_39_)" cx="42.418" cy="36.664" r="6.869"/>
		
			<linearGradient id="SVGID_40_" gradientUnits="userSpaceOnUse" x1="9.7891" y1="36.6631" x2="20.2134" y2="36.6631" gradientTransform="matrix(-1 0 0 1 57.4189 0)">
			<stop  offset="0" style="stop-color:#F3AF18"/>
			<stop  offset="1" style="stop-color:#CAA21B"/>
		</linearGradient>
		<circle fill="url(#SVGID_40_)" cx="42.418" cy="36.664" r="5.212"/>
		
			<radialGradient id="SVGID_41_" cx="15.0015" cy="36.6641" r="3.7502" gradientTransform="matrix(-1 0 0 1 57.4189 0)" gradientUnits="userSpaceOnUse">
			<stop  offset="0" style="stop-color:#1F1600"/>
			<stop  offset="1" style="stop-color:#000000"/>
		</radialGradient>
		<circle fill="url(#SVGID_41_)" cx="42.417" cy="36.664" r="3.75"/>
		
			<radialGradient id="SVGID_42_" cx="-213.0225" cy="-124.2852" r="1.0483" gradientTransform="matrix(-0.6444 0.4405 0.5644 0.8255 -22.0567 235.8591)" gradientUnits="userSpaceOnUse">
			<stop  offset="0" style="stop-color:#FFFFFF"/>
			<stop  offset="1" style="stop-color:#E5E5E5"/>
		</radialGradient>
		<path fill="url(#SVGID_42_)" d="M44.393,39.887c0.327,0.479,0.896,0.658,1.268,0.401c0.375-0.253,0.413-0.847,0.084-1.326
			c-0.327-0.479-0.895-0.661-1.268-0.403C44.104,38.813,44.067,39.409,44.393,39.887z"/>
		
			<radialGradient id="SVGID_43_" cx="-154.2402" cy="-300.5059" r="1.0498" gradientTransform="matrix(-0.478 0.3268 0.4186 0.6124 95.2145 274.4133)" gradientUnits="userSpaceOnUse">
			<stop  offset="0" style="stop-color:#FFFFFF"/>
			<stop  offset="1" style="stop-color:#E5E5E5"/>
		</radialGradient>
		<path fill="url(#SVGID_43_)" d="M42.646,40.319c0.243,0.357,0.664,0.491,0.942,0.302c0.276-0.191,0.303-0.631,0.063-0.986
			c-0.246-0.355-0.666-0.489-0.941-0.3C42.434,39.523,42.405,39.965,42.646,40.319z"/>
	</g>
	<radialGradient id="SVGID_44_" cx="42.1772" cy="26.48" r="9.4485" gradientUnits="userSpaceOnUse">
		<stop  offset="0.2135" style="stop-color:#FFD17F"/>
		<stop  offset="1" style="stop-color:#DF8000"/>
	</radialGradient>
	<path fill="url(#SVGID_44_)" d="M42.411,28.983c-4.11,0-7.451,3.345-7.451,7.454c0,0.004,0,0.007,0,0.009h14.897
		c0-0.002,0-0.004,0-0.009C49.857,32.328,46.516,28.983,42.411,28.983z"/>
	<radialGradient id="SVGID_45_" cx="59.2881" cy="25.2036" r="12.0021" gradientUnits="userSpaceOnUse">
		<stop  offset="0.2135" style="stop-color:#FFD17F"/>
		<stop  offset="1" style="stop-color:#DF8000"/>
	</radialGradient>
	<path fill="url(#SVGID_45_)" d="M58.963,28.19c-4.593,0-8.326,3.737-8.326,8.331c0,0.003,0,0.006,0,0.009h16.647
		c0-0.003,0-0.006,0-0.009C67.284,31.927,63.552,28.19,58.963,28.19z"/>
	<g>
		
			<linearGradient id="SVGID_46_" gradientUnits="userSpaceOnUse" x1="45.6177" y1="43.0547" x2="45.6177" y2="55.1913" gradientTransform="matrix(0.897 0.0193 -0.0916 0.9855 14.0374 1.7641)">
			<stop  offset="0" style="stop-color:#000000"/>
			<stop  offset="0.2069" style="stop-color:#040404"/>
			<stop  offset="0.3965" style="stop-color:#0E0F0F"/>
			<stop  offset="0.5795" style="stop-color:#212121"/>
			<stop  offset="0.7583" style="stop-color:#3A3B3C"/>
			<stop  offset="0.9325" style="stop-color:#5B5C5D"/>
			<stop  offset="1" style="stop-color:#6A6B6C"/>
		</linearGradient>
		<path fill="url(#SVGID_46_)" d="M42.872,49.283c-0.458,3.268,5.361,6.436,6.884,6.661c1.521,0.229,8.283-2.606,8.492-5.304
			c0.207-2.694-2.774-4.236-7.02-4.613C46.985,45.651,43.19,47.02,42.872,49.283z"/>
		
			<linearGradient id="SVGID_47_" gradientUnits="userSpaceOnUse" x1="42.2075" y1="40.5469" x2="42.2075" y2="46.777" gradientTransform="matrix(-0.9184 -0.0491 -0.0963 0.9901 93.5305 7.6104)">
			<stop  offset="0" style="stop-color:#8C8C8C"/>
			<stop  offset="0.1961" style="stop-color:#7A7A7A"/>
			<stop  offset="0.5908" style="stop-color:#4A4A4A"/>
			<stop  offset="1" style="stop-color:#131313"/>
		</linearGradient>
		<path fill="url(#SVGID_47_)" d="M43.891,49.511c-0.182,1.856,12.949,2.563,13.131,0.703c0.181-1.859-2.613-3.527-6.236-3.719
			C47.158,46.298,44.074,47.649,43.891,49.511z"/>
	</g>
</g>
</svg>
