<?xml version="1.0" encoding="utf-8"?>
<!-- Generator: Adobe Illustrator 14.0.0, SVG Export Plug-In . SVG Version: 6.00 Build 43363)  -->
<!DOCTYPE svg PUBLIC "-//W3C//DTD SVG 1.1//EN" "http://www.w3.org/Graphics/SVG/1.1/DTD/svg11.dtd">
<svg version="1.1" id="图层_1" xmlns="http://www.w3.org/2000/svg" xmlns:xlink="http://www.w3.org/1999/xlink" x="0px" y="0px"
	 width="50px" height="50px" viewBox="0 0 50 50" enable-background="new 0 0 50 50" xml:space="preserve">
<g>
	
		<radialGradient id="SVGID_1_" cx="-47.5508" cy="-68.6909" r="13.1765" gradientTransform="matrix(0.8425 0.3611 -0.3611 0.8425 55.0136 112.274)" gradientUnits="userSpaceOnUse">
		<stop  offset="0" style="stop-color:#DE8995"/>
		<stop  offset="0.7921" style="stop-color:#7C3A40"/>
		<stop  offset="0.8378" style="stop-color:#813F45"/>
		<stop  offset="0.8956" style="stop-color:#914B52"/>
		<stop  offset="0.9597" style="stop-color:#AB6169"/>
		<stop  offset="1" style="stop-color:#BF717A"/>
	</radialGradient>
	<path fill="url(#SVGID_1_)" d="M25.935,34.432c0,0,4.626-3.311,5.594,2.26c0.301,1.721,3.165,1.023,4.104,0.398
		c1.64-1.094,2.487-0.086,3.431,0.924c1.338,1.432,1.587-0.535,2.731,0.547c1.055,0.998-0.387,2.176-0.387,2.176
		s0.776-1.057-0.224-1.643c-0.807-0.471-1.672,1.795-2.717,0.41c-0.563-0.744-1.864-2.141-3.834-0.096
		c-0.739,0.768-3.582,1.805-4.6-0.74c-0.474-1.186-2.473-0.783-2.473-0.783L25.935,34.432z"/>
	
		<radialGradient id="SVGID_2_" cx="-150.604" cy="-276.8853" r="13.1813" gradientTransform="matrix(0.8741 0 0 0.8741 167.2539 287.166)" gradientUnits="userSpaceOnUse">
		<stop  offset="0" style="stop-color:#DE8995"/>
		<stop  offset="0.7921" style="stop-color:#7C3A40"/>
		<stop  offset="0.8378" style="stop-color:#813F45"/>
		<stop  offset="0.8956" style="stop-color:#914B52"/>
		<stop  offset="0.9597" style="stop-color:#AB6169"/>
		<stop  offset="1" style="stop-color:#BF717A"/>
	</radialGradient>
	<path fill="url(#SVGID_2_)" d="M30.561,34.389c0,0,2.148,1.57,0.682,3.529c-2.398,3.203,2.396,1.973,4.063,4.617
		c0.999,1.586,0.504,3.625-2.466,4.742c1.589-0.879,2.968-2.652,1.021-4.164c-1.296-1.002-3.602,1.127-5.699-1.951
		c-1.508-2.215,0.229-2.465-1.362-4.102C25.495,35.719,27.168,32.795,30.561,34.389z"/>
	
		<radialGradient id="SVGID_3_" cx="-55.7686" cy="-104.2979" r="14.5813" gradientTransform="matrix(-0.4562 -0.3574 -0.3574 0.4562 -35.1728 64.636)" gradientUnits="userSpaceOnUse">
		<stop  offset="0" style="stop-color:#AB656D"/>
		<stop  offset="0.7921" style="stop-color:#8D4550"/>
		<stop  offset="0.8466" style="stop-color:#924A55"/>
		<stop  offset="0.9156" style="stop-color:#A25862"/>
		<stop  offset="0.9922" style="stop-color:#BC6E77"/>
		<stop  offset="1" style="stop-color:#BF717A"/>
	</radialGradient>
	<path fill="url(#SVGID_3_)" d="M19.944,38.141c0.12,0.096,0.208,0.725,0.613,0.871c0,0,2.441-2.127,4.189-0.896
		c1.889,1.332,0.973,1.293,0.565,4.195c-0.385,2.732,2.868,2.092,4.409,3.102c2.026,1.33,0.58,3.783,0.58,3.783
		s1.879-2.287,0.575-4.043c-0.861-1.162-1.924-1.096-2.442-1.352c-0.747-0.371-0.884-1.293-0.342-2.213
		C31.135,36.436,23.93,32.229,19.944,38.141z"/>
	
		<radialGradient id="SVGID_4_" cx="-162.1494" cy="-272.897" r="13.5594" gradientTransform="matrix(0.8741 0 0 0.8741 167.2539 287.166)" gradientUnits="userSpaceOnUse">
		<stop  offset="0" style="stop-color:#DE8995"/>
		<stop  offset="0.7921" style="stop-color:#7C3A40"/>
		<stop  offset="0.8378" style="stop-color:#813F45"/>
		<stop  offset="0.8956" style="stop-color:#914B52"/>
		<stop  offset="0.9597" style="stop-color:#AB6169"/>
		<stop  offset="1" style="stop-color:#BF717A"/>
	</radialGradient>
	<path fill="url(#SVGID_4_)" d="M26.334,44.975c-1.609-0.348-1.973-0.027-2.53-0.436c-1.35-0.99,1.458-1.838,1.705-4.217
		c0.079-0.758-0.922-3.934,0.558-3.982c1.848-0.061,5.144,1.859,5.742-1.217c0.578-2.984-2.404-3.906-2.404-3.906
		c-1.973-0.568-4.706,0.68-6.269,2.031c-0.862,0.744-2.378,3.035-1.887,4.709c0.448,1.529,2.441,1.01,0.589,4.098
		c-0.51,0.756-0.927,2.445-0.325,3.217c1.099,1.404,2.39,0.24,4.332,0.492c1.71,0.221,1.104,2.221-1.275,3.016
		C27.432,48.564,28.517,45.445,26.334,44.975z"/>
	
		<radialGradient id="SVGID_5_" cx="-42.7427" cy="-53.7983" r="15.54" gradientTransform="matrix(0.4796 -0.5645 0.5645 0.4796 69.7443 33.399)" gradientUnits="userSpaceOnUse">
		<stop  offset="0" style="stop-color:#DE8995"/>
		<stop  offset="0.7921" style="stop-color:#8D4550"/>
		<stop  offset="0.8466" style="stop-color:#924A55"/>
		<stop  offset="0.9156" style="stop-color:#A25862"/>
		<stop  offset="0.9922" style="stop-color:#BC6E77"/>
		<stop  offset="1" style="stop-color:#BF717A"/>
	</radialGradient>
	<path fill="url(#SVGID_5_)" d="M17.758,31.705c0.603-2.768,3.933-3.791,7.272,0.072c2.788,3.223,0.745,7.951-3.29,8.676
		c-1.886,0.338-1.965,1.424-1.87,2.898c0.078,1.209-0.705,2.152-2.039,2.418c-1.469,0.293-1.999,0.471-2.248,1.211
		c-0.097,0.287-0.051,0.643-0.014,1.092c-0.663-1.059-0.893-2.197,1.995-3.576c1.923-0.918-1.93-4.094,1.711-5.488
		c2.569-0.984,3.268-1.527,2.661-2.953c-0.229-0.537-1.014-0.756-1.873-1.021C18.653,34.82,17.459,33.076,17.758,31.705z"/>
	
		<radialGradient id="SVGID_6_" cx="-183.1333" cy="-140.1201" r="20.304" gradientTransform="matrix(-0.6252 -0.6107 0.6107 -0.6252 -17.5034 -153.8983)" gradientUnits="userSpaceOnUse">
		<stop  offset="0" style="stop-color:#DE8995"/>
		<stop  offset="0.7921" style="stop-color:#A0505C"/>
		<stop  offset="0.8622" style="stop-color:#A55561"/>
		<stop  offset="0.9508" style="stop-color:#B4656F"/>
		<stop  offset="1" style="stop-color:#BF717A"/>
	</radialGradient>
	<path fill="url(#SVGID_6_)" d="M17.47,32.252c0,0,5.312,0.402,6.412,4.438c1.038,3.818-3.527,6.545-7.162,5.23
		c-3.047-1.102-5.473-0.078-5.144,1.459c0.421,1.967,2.422,1.479,2.587,0.736c0.226-1.006-0.452-1.475-0.452-1.475
		s0.985,0.031,1.064,1.184c0.146,2.129-3.209,2.869-4.111,0.18c-0.859-2.559,1.669-4.6,4.281-4.318
		c3.172,0.342,5.418-0.596,5.673-2.221c0.371-2.352-2.145-4.266-2.973-4.299C17.819,32.232,17.47,32.252,17.47,32.252z"/>
	
		<radialGradient id="SVGID_7_" cx="-52.395" cy="-59.2578" r="13.1767" gradientTransform="matrix(-0.7593 0.5135 0.5135 0.7593 1.8664 109.4375)" gradientUnits="userSpaceOnUse">
		<stop  offset="0" style="stop-color:#DE8995"/>
		<stop  offset="0.7921" style="stop-color:#A0505C"/>
		<stop  offset="0.8622" style="stop-color:#A55561"/>
		<stop  offset="0.9508" style="stop-color:#B4656F"/>
		<stop  offset="1" style="stop-color:#BF717A"/>
	</radialGradient>
	<path fill="url(#SVGID_7_)" d="M24.287,32.148c0,0-7.06-2.521-6.962,3.133c0.031,1.748-1.021,1.744-2.061,1.307
		c-1.816-0.764-2.459,0.385-3.194,1.555c-1.043,1.658-1.661-0.229-2.581,1.051c-0.848,1.182,0.79,2.066,0.79,2.066
		s-0.961-0.893-0.09-1.654c0.704-0.617,1.979,1.445,2.745-0.113c0.412-0.834,1.427-2.451,3.748-0.816
		c0.871,0.617,3.858,1.096,4.377-1.596c0.242-1.254,2.282-1.232,2.282-1.232L24.287,32.148z"/>
	
		<radialGradient id="SVGID_8_" cx="-72.0562" cy="-52.8223" r="13.3042" gradientTransform="matrix(0.3417 0.8045 -0.8045 0.3417 21.4422 118.2615)" gradientUnits="userSpaceOnUse">
		<stop  offset="0" style="stop-color:#DE8995"/>
		<stop  offset="0.7921" style="stop-color:#A0505C"/>
		<stop  offset="0.8622" style="stop-color:#A55561"/>
		<stop  offset="0.9508" style="stop-color:#B4656F"/>
		<stop  offset="1" style="stop-color:#BF717A"/>
	</radialGradient>
	<path fill="url(#SVGID_8_)" d="M27.354,29.285c0,0,5.549,1.928,4.795,5.439c-0.842,3.928,1.59,4.553,3.965,4.59
		c2.761,0.043,4.851,3.162,1.773,5.898c1.276-2.158,0.868-4.348-1.707-4.107c-2.182,0.203-6.275-0.166-6.666-3.178
		c-0.586-4.514-1.934-5.279-4.15-5.043C23.148,33.123,27.354,29.285,27.354,29.285z"/>
	
		<radialGradient id="SVGID_9_" cx="-162.856" cy="-326.0337" r="13.4546" gradientTransform="matrix(0.8741 0 0 0.8741 167.2539 287.166)" gradientUnits="userSpaceOnUse">
		<stop  offset="0" style="stop-color:#D4838E"/>
		<stop  offset="0.7921" style="stop-color:#A0505C"/>
		<stop  offset="0.8622" style="stop-color:#A55561"/>
		<stop  offset="0.9508" style="stop-color:#B4656F"/>
		<stop  offset="1" style="stop-color:#BF717A"/>
	</radialGradient>
	<path fill="url(#SVGID_9_)" d="M24.943,2.244c0,0,9.4,3.25,9.666,6.271c0.267,3.021-7.82,4.534-7.82,4.534l-1.845-6.608V2.244z"/>
	
		<radialGradient id="SVGID_10_" cx="-165.0361" cy="-326.0337" r="13.4549" gradientTransform="matrix(-0.8741 0 0 0.8741 -119.2724 287.166)" gradientUnits="userSpaceOnUse">
		<stop  offset="0" style="stop-color:#D4838E"/>
		<stop  offset="0.7921" style="stop-color:#A0505C"/>
		<stop  offset="0.8622" style="stop-color:#A55561"/>
		<stop  offset="0.9508" style="stop-color:#B4656F"/>
		<stop  offset="1" style="stop-color:#BF717A"/>
	</radialGradient>
	<path fill="url(#SVGID_10_)" d="M24.943,2.244c0,0-9.399,3.25-9.666,6.271c-0.267,3.021,7.82,4.534,7.82,4.534l1.846-6.608V2.244z"
		/>
	
		<radialGradient id="SVGID_11_" cx="-162.7144" cy="-325.2339" r="37.5059" gradientTransform="matrix(0.8741 0 0 0.8741 167.2539 287.166)" gradientUnits="userSpaceOnUse">
		<stop  offset="0" style="stop-color:#DE8995"/>
		<stop  offset="0.7921" style="stop-color:#A0505C"/>
		<stop  offset="0.8622" style="stop-color:#A55561"/>
		<stop  offset="0.9508" style="stop-color:#B4656F"/>
		<stop  offset="1" style="stop-color:#BF717A"/>
	</radialGradient>
	<path fill="url(#SVGID_11_)" d="M24.943,2.244c0,0,12.998,19.119,12.243,25.432c-0.633,5.299-6.199,9.096-12.313,9.096
		c-6.114,0-11.868-4.443-12.165-8.365C11.885,17.534,24.943,2.244,24.943,2.244z"/>
	
		<radialGradient id="SVGID_12_" cx="-159.7788" cy="-291.2334" r="6.726" gradientTransform="matrix(0.8741 0 0 0.8741 167.2539 287.166)" gradientUnits="userSpaceOnUse">
		<stop  offset="0.3034" style="stop-color:#FFFFFF"/>
		<stop  offset="0.4322" style="stop-color:#FAFAFA"/>
		<stop  offset="0.5953" style="stop-color:#EAEAEB"/>
		<stop  offset="0.7768" style="stop-color:#D0D1D3"/>
		<stop  offset="0.9705" style="stop-color:#ACAEB1"/>
		<stop  offset="1" style="stop-color:#A6A8AB"/>
	</radialGradient>
	<circle fill="url(#SVGID_12_)" cx="29.107" cy="34.938" r="3.243"/>
	<g>
		<g>
			
				<radialGradient id="SVGID_13_" cx="-161.5015" cy="238.248" r="2.1861" gradientTransform="matrix(-1.1663 0.1578 0.2715 0.5496 -222.2723 -69.4171)" gradientUnits="userSpaceOnUse">
				<stop  offset="0.3034" style="stop-color:#B01117"/>
				<stop  offset="0.4669" style="stop-color:#B51218"/>
				<stop  offset="0.6739" style="stop-color:#C5151C"/>
				<stop  offset="0.9034" style="stop-color:#DF1A21"/>
				<stop  offset="1" style="stop-color:#EC1C24"/>
			</radialGradient>
			<path fill="url(#SVGID_13_)" d="M30.729,37.252c-0.417,0.014-0.761-0.316-0.769-0.738c-0.01-0.42,0.319-0.771,0.735-0.783
				s0.759,0.318,0.768,0.738C31.473,36.891,31.142,37.242,30.729,37.252z"/>
			<path fill="#231F20" d="M30.717,37c-0.275,0.008-0.504-0.213-0.51-0.49c-0.005-0.279,0.213-0.514,0.488-0.52
				c0.277-0.008,0.505,0.211,0.511,0.49C31.211,36.76,30.992,36.994,30.717,37z"/>
			<path fill="#FFFFFF" d="M30.241,36.109c-0.018,0.094,0.052,0.168,0.15,0.17c0.1,0.004,0.192-0.07,0.208-0.162
				c0.018-0.092-0.053-0.17-0.15-0.17C30.351,35.945,30.257,36.02,30.241,36.109z"/>
		</g>
	</g>
	
		<radialGradient id="SVGID_14_" cx="-138.2354" cy="-291.2334" r="6.7255" gradientTransform="matrix(0.8741 0 0 0.8741 140.1582 287.166)" gradientUnits="userSpaceOnUse">
		<stop  offset="0.3034" style="stop-color:#FFFFFF"/>
		<stop  offset="0.4322" style="stop-color:#FAFAFA"/>
		<stop  offset="0.5953" style="stop-color:#EAEAEB"/>
		<stop  offset="0.7768" style="stop-color:#D0D1D3"/>
		<stop  offset="0.9705" style="stop-color:#ACAEB1"/>
		<stop  offset="1" style="stop-color:#A6A8AB"/>
	</radialGradient>
	<circle fill="url(#SVGID_14_)" cx="20.843" cy="34.938" r="3.243"/>
	
		<radialGradient id="SVGID_15_" cx="-163.7754" cy="-290.2773" r="3.5713" gradientTransform="matrix(0.9363 0 0 0.9535 178.7797 313.8081)" gradientUnits="userSpaceOnUse">
		<stop  offset="0" style="stop-color:#00ADEE"/>
		<stop  offset="0.4184" style="stop-color:#00ABEC"/>
		<stop  offset="0.6405" style="stop-color:#00A3E5"/>
		<stop  offset="0.8164" style="stop-color:#0095D9"/>
		<stop  offset="0.9674" style="stop-color:#0082C9"/>
		<stop  offset="1" style="stop-color:#007DC4"/>
	</radialGradient>
	<ellipse fill="url(#SVGID_15_)" cx="25.552" cy="38.747" rx="3.256" ry="1.603"/>
	<ellipse fill="#231F20" cx="25.775" cy="38.747" rx="2.141" ry="1.028"/>
	<path fill="#A0505C" d="M24.943,34.141c0,0,2.733-26.021,0-26.021C22.209,8.12,24.943,34.141,24.943,34.141z"/>
	<polygon fill="#FFDD00" points="21.023,30.438 22.821,29.201 24.591,32.764 26.529,30.887 27.541,31.898 24.591,33.662 	"/>
	<g>
		<g>
			
				<radialGradient id="SVGID_16_" cx="-176.6177" cy="242.5869" r="2.1863" gradientTransform="matrix(-1.1663 0.1578 0.2715 0.5496 -249.3329 -69.4171)" gradientUnits="userSpaceOnUse">
				<stop  offset="0.3034" style="stop-color:#B01117"/>
				<stop  offset="0.4669" style="stop-color:#B51218"/>
				<stop  offset="0.6739" style="stop-color:#C5151C"/>
				<stop  offset="0.9034" style="stop-color:#DF1A21"/>
				<stop  offset="1" style="stop-color:#EC1C24"/>
			</radialGradient>
			<path fill="url(#SVGID_16_)" d="M22.473,37.252c-0.415,0.014-0.76-0.316-0.768-0.738c-0.008-0.42,0.321-0.771,0.736-0.783
				c0.417-0.012,0.759,0.318,0.767,0.738C23.219,36.891,22.888,37.242,22.473,37.252z"/>
			<path fill="#231F20" d="M22.463,37c-0.275,0.008-0.505-0.213-0.51-0.49c-0.005-0.279,0.213-0.514,0.488-0.52
				c0.277-0.008,0.505,0.211,0.51,0.49C22.958,36.76,22.738,36.994,22.463,37z"/>
			<path fill="#FFFFFF" d="M21.986,36.109c-0.016,0.094,0.051,0.168,0.151,0.17c0.099,0.004,0.193-0.07,0.209-0.162
				c0.016-0.092-0.052-0.17-0.152-0.17C22.096,35.945,22.003,36.02,21.986,36.109z"/>
		</g>
	</g>
</g>
</svg>
