<?xml version="1.0" encoding="utf-8"?>
<!-- Generator: Adobe Illustrator 14.0.0, SVG Export Plug-In . SVG Version: 6.00 Build 43363)  -->
<!DOCTYPE svg PUBLIC "-//W3C//DTD SVG 1.1//EN" "http://www.w3.org/Graphics/SVG/1.1/DTD/svg11.dtd">
<svg version="1.1" id="图层_1" xmlns="http://www.w3.org/2000/svg" xmlns:xlink="http://www.w3.org/1999/xlink" x="0px" y="0px"
	 width="50px" height="50px" viewBox="0 0 50 50" enable-background="new 0 0 50 50" xml:space="preserve">
<g>
	
		<radialGradient id="SVGID_1_" cx="228.9268" cy="-125.8267" r="5.7478" gradientTransform="matrix(1 0 0 1 -186.5195 155.3325)" gradientUnits="userSpaceOnUse">
		<stop  offset="0.6124" style="stop-color:#FDCE8B"/>
		<stop  offset="1" style="stop-color:#FAB16A"/>
	</radialGradient>
	<path fill="url(#SVGID_1_)" d="M38.229,34.159c0,0,0.127-1.021,0.764-1.768c2.355-2.767,4.592-2.003,4.592-2.003
		s-2.189,0.818-2.297,2.24c-0.119,1.53-1.824,2-1.824,2L38.229,34.159z"/>
	
		<radialGradient id="SVGID_2_" cx="215.1338" cy="-133.3501" r="11.7857" gradientTransform="matrix(-0.8072 0 0 0.8072 193.9862 140.608)" gradientUnits="userSpaceOnUse">
		<stop  offset="0.6124" style="stop-color:#E4AA6C"/>
		<stop  offset="1" style="stop-color:#FAB16A"/>
	</radialGradient>
	<path fill="url(#SVGID_2_)" d="M17.873,33.57c0,0-0.809,1.758-1.141,5.799c0,0-4.611,0.713-6.179,2.09c0,0,6.559-0.761,8.366-0.476
		c0,0,0.665-3.753,2.138-5.322"/>
	
		<radialGradient id="SVGID_3_" cx="214.0625" cy="-115.1675" r="22.0441" gradientTransform="matrix(1 0 0 1 -186.5195 155.3325)" gradientUnits="userSpaceOnUse">
		<stop  offset="0.6124" style="stop-color:#FDCE8B"/>
		<stop  offset="1" style="stop-color:#FAB16A"/>
	</radialGradient>
	<path fill="url(#SVGID_3_)" d="M40.994,34.041c-1.297-0.177-4.777,0.402-5.541-6.766c-0.584-5.481-2.762-9.198-7.326-10.92
		c-1.407-0.53-3.14-0.788-4.415-0.82c-6.801-0.172-11.429,5.007-10.686-2.926l-6.582,6.697c0,0-0.162,1.888,1.4,6.668
		c2.885,8.833,8.548,13.67,19.605,14.662c4.771,0.426,11.273-4.283,11.939-4.643c0.662-0.363,1.18,0.27,1.488,0.46
		c3.529,2.181,7.77-0.115,7.77-0.115C45.096,35.728,42.289,34.217,40.994,34.041z"/>
	
		<radialGradient id="SVGID_4_" cx="216.4736" cy="-166.3916" r="2.1978" gradientTransform="matrix(0.4637 0.9814 -0.9814 0.4637 -248.3162 -118.1546)" gradientUnits="userSpaceOnUse">
		<stop  offset="0.6124" style="stop-color:#FDCE8B"/>
		<stop  offset="1" style="stop-color:#FAB16A"/>
	</radialGradient>
	<path fill="url(#SVGID_4_)" d="M13.116,16.359c0,0,1.343-0.206,1.243,1.261c-0.091,1.349-3.141,3.104-3.141,3.104
		S12.912,18.698,13.116,16.359z"/>
	
		<radialGradient id="SVGID_5_" cx="218.6104" cy="-167.3652" r="2.1982" gradientTransform="matrix(0.4637 0.9814 -0.9814 0.4637 -250.9939 -120.4203)" gradientUnits="userSpaceOnUse">
		<stop  offset="0.6124" style="stop-color:#FDCE8B"/>
		<stop  offset="1" style="stop-color:#FAB16A"/>
	</radialGradient>
	<path fill="url(#SVGID_5_)" d="M12.384,15.74c0,0,1.342-0.206,1.245,1.26c-0.093,1.348-3.144,3.104-3.144,3.104
		S12.182,18.079,12.384,15.74z"/>
	
		<radialGradient id="SVGID_6_" cx="215.3926" cy="-171.1313" r="2.1982" gradientTransform="matrix(0.1798 1.0704 -1.0704 0.1798 -207.5372 -183.6013)" gradientUnits="userSpaceOnUse">
		<stop  offset="0.6124" style="stop-color:#FDCE8B"/>
		<stop  offset="1" style="stop-color:#FAB16A"/>
	</radialGradient>
	<path fill="url(#SVGID_6_)" d="M12.232,14.842c0,0,1.349,0.167,0.855,1.551c-0.454,1.273-3.868,2.134-3.868,2.134
		S11.403,17.038,12.232,14.842z"/>
	
		<radialGradient id="SVGID_7_" cx="212.5449" cy="-114.4043" r="2.198" gradientTransform="matrix(0.3034 1.0422 1.0422 -0.3034 60.2415 -235.4348)" gradientUnits="userSpaceOnUse">
		<stop  offset="0.6124" style="stop-color:#FDCE8B"/>
		<stop  offset="1" style="stop-color:#FAB16A"/>
	</radialGradient>
	<path fill="url(#SVGID_7_)" d="M6.734,18.396c0,0-1.142,0.736-0.095,1.768c0.962,0.949,4.411,0.24,4.411,0.24
		S8.437,20.011,6.734,18.396z"/>
	
		<radialGradient id="SVGID_8_" cx="210.5771" cy="-114.1274" r="2.1978" gradientTransform="matrix(0.1324 1.0773 1.0773 -0.1324 100.5299 -223.0172)" gradientUnits="userSpaceOnUse">
		<stop  offset="0.6124" style="stop-color:#FDCE8B"/>
		<stop  offset="1" style="stop-color:#FAB16A"/>
	</radialGradient>
	<path fill="url(#SVGID_8_)" d="M7.065,17.078c0,0-1.246,0.544-0.378,1.731c0.797,1.09,4.314,0.945,4.314,0.945
		S8.487,18.946,7.065,17.078z"/>
	
		<radialGradient id="SVGID_9_" cx="222.0693" cy="-118.9648" r="2.1973" gradientTransform="matrix(0.42 1.0009 1.0009 -0.42 31.7863 -253.8849)" gradientUnits="userSpaceOnUse">
		<stop  offset="0.6124" style="stop-color:#FDCE8B"/>
		<stop  offset="1" style="stop-color:#FAB16A"/>
	</radialGradient>
	<path fill="url(#SVGID_9_)" d="M6.889,16.064c0,0-1.051,0.86,0.107,1.767c1.063,0.833,4.408-0.262,4.408-0.262
		S8.764,17.475,6.889,16.064z"/>
	
		<radialGradient id="SVGID_10_" cx="203.0264" cy="-140.8584" r="2.1982" gradientTransform="matrix(1.0158 0.3825 -0.3825 1.0158 -235.6216 79.9416)" gradientUnits="userSpaceOnUse">
		<stop  offset="0.6124" style="stop-color:#FDCE8B"/>
		<stop  offset="1" style="stop-color:#FAB16A"/>
	</radialGradient>
	<path fill="url(#SVGID_10_)" d="M22.231,15.476c0,0,0.793-0.961,1.742,0.162c0.871,1.032-0.099,4.416-0.099,4.416
		S23.711,17.296,22.231,15.476z"/>
	<path fill="#E4AA6C" d="M28.393,34.512l0.221,6.13c0.496-0.033,1.006-0.107,1.516-0.217C29.898,37.227,28.393,34.512,28.393,34.512
		z"/>
	<path fill="#E4AA6C" d="M24.213,35.571c0,0,1.47,2.77,1.704,4.895c0.501,0.065,1.009,0.123,1.533,0.17
		c0.137,0.012,0.277,0.018,0.414,0.022v-1.848l-0.766-2.473L24.213,35.571z"/>
	
		<radialGradient id="SVGID_11_" cx="192.9463" cy="-148.3545" r="5.465" gradientTransform="matrix(1 0 0 1 -187.1113 153.5591)" gradientUnits="userSpaceOnUse">
		<stop  offset="0" style="stop-color:#FDCE8B"/>
		<stop  offset="1" style="stop-color:#FAB16A"/>
	</radialGradient>
	<path fill="url(#SVGID_11_)" d="M9.376,14.139C6.33,14.218,7.82,15.99,5.901,13.374C4.537,11.515,3.84,6.191,8.08,5.635
		c2.952-0.387,4.729,1.623,4.946,4.677C13.286,13.968,13.121,14.044,9.376,14.139z"/>
	
		<radialGradient id="SVGID_12_" cx="196.543" cy="-136.4233" r="3.3691" gradientTransform="matrix(1 0 0 1 -186.5195 155.3325)" gradientUnits="userSpaceOnUse">
		<stop  offset="0" style="stop-color:#FFFFFF"/>
		<stop  offset="1" style="stop-color:#FCD0AF"/>
	</radialGradient>
	<path fill="url(#SVGID_12_)" d="M12.299,13.733c0,0,0.374,3.479-2.296,3.829c-2.523,0.332-3.526-3.419-3.526-3.419l2.634-2.122
		L12.299,13.733z"/>
	
		<linearGradient id="SVGID_13_" gradientUnits="userSpaceOnUse" x1="195.9736" y1="-139.0732" x2="195.9736" y2="-140.4862" gradientTransform="matrix(1 0 0 1 -186.5195 155.3325)">
		<stop  offset="0" style="stop-color:#EC1C24"/>
		<stop  offset="1" style="stop-color:#9D0B0F"/>
	</linearGradient>
	<path fill="url(#SVGID_13_)" d="M11.373,13.66c0,0-0.046,2.949-1.498,3.132c-1.854,0.233-2.338-2.387-2.338-2.387
		s0.957-1.48,1.901-1.689C10.38,12.503,11.373,13.66,11.373,13.66z"/>
	
		<linearGradient id="SVGID_14_" gradientUnits="userSpaceOnUse" x1="195.0059" y1="-137.9951" x2="194.3581" y2="-140.3504" gradientTransform="matrix(1 0 0 1 -186.5195 155.3325)">
		<stop  offset="0" style="stop-color:#FFFFFF"/>
		<stop  offset="1" style="stop-color:#A6A8AB"/>
	</linearGradient>
	<path fill="url(#SVGID_14_)" d="M8.515,15.158c0,0,1.332,7.294,0.978,7.461c-0.354,0.164-1.841-6.624-1.841-6.624L8.515,15.158z"/>
	
		<linearGradient id="SVGID_15_" gradientUnits="userSpaceOnUse" x1="197.7236" y1="-138.1343" x2="197.9002" y2="-141.3724" gradientTransform="matrix(1 0 0 1 -186.5195 155.3325)">
		<stop  offset="0" style="stop-color:#FFFFFF"/>
		<stop  offset="1" style="stop-color:#A6A8AB"/>
	</linearGradient>
	<path fill="url(#SVGID_15_)" d="M10.661,14.853c0,0,0.385,7.47,0.775,7.53c0.39,0.06,0.308-6.968,0.308-6.968L10.661,14.853z"/>
	
		<radialGradient id="SVGID_16_" cx="195.5283" cy="-145.6089" r="8.4126" gradientTransform="matrix(1 0 0 1 -186.5195 155.3325)" gradientUnits="userSpaceOnUse">
		<stop  offset="0" style="stop-color:#FFFFFF"/>
		<stop  offset="0.9382" style="stop-color:#EEBD9B"/>
		<stop  offset="1" style="stop-color:#FCD0AF"/>
	</radialGradient>
	<path fill="url(#SVGID_16_)" d="M13.403,10.283C11.5,9.609,7.23,9.063,4.437,11.592c-2.522,2.28-1.45,5.551,0.71,5.839
		c2.863,0.383,3.07-2.874,4.505-2.907c1.436-0.032,2.543,2.865,5.214,1.698C16.245,15.618,17.349,11.679,13.403,10.283z"/>
	<circle fill="#D79B7A" cx="5.186" cy="12.721" r="0.144"/>
	<circle fill="#D79B7A" cx="4.248" cy="13.677" r="0.145"/>
	<circle fill="#D79B7A" cx="6.042" cy="14.857" r="0.145"/>
	<circle fill="#D79B7A" cx="4.736" cy="15.048" r="0.145"/>
	<circle fill="#D79B7A" cx="7.549" cy="15.266" r="0.145"/>
	<circle fill="#D79B7A" cx="13.425" cy="12.408" r="0.144"/>
	<circle fill="#D79B7A" cx="12.658" cy="13.739" r="0.144"/>
	<circle fill="#D79B7A" cx="14.662" cy="14.065" r="0.145"/>
	<circle fill="#D79B7A" cx="14.77" cy="12.522" r="0.145"/>
	<circle fill="#D79B7A" cx="13.792" cy="14.99" r="0.144"/>
	<circle fill="#D79B7A" cx="12.035" cy="12.759" r="0.144"/>
	<path fill="#D79B7A" d="M7.196,13.706c-0.081,0.012-0.158-0.043-0.169-0.123c-0.013-0.079,0.043-0.151,0.124-0.164
		c0.081-0.011,0.156,0.044,0.168,0.124C7.331,13.621,7.276,13.694,7.196,13.706z"/>
	<path fill="none" stroke="#231F20" stroke-width="0.25" stroke-linecap="round" stroke-linejoin="round" d="M5.077,14.139
		c0,0-2.132,0.897-3.583,4.079"/>
	<path fill="none" stroke="#231F20" stroke-width="0.25" stroke-linecap="round" stroke-linejoin="round" d="M5.486,14.561
		c0,0-1.178,1.197-1.768,4.142"/>
	<path fill="none" stroke="#231F20" stroke-width="0.25" stroke-linecap="round" stroke-linejoin="round" d="M5.003,13.483
		c0,0-1.697,0.127-3.65,2.351"/>
	<path fill="none" stroke="#231F20" stroke-width="0.25" stroke-linecap="round" stroke-linejoin="round" d="M13.85,13.256
		c0,0,1.692-0.048,4.229,1.919"/>
	<path fill="none" stroke="#231F20" stroke-width="0.25" stroke-linecap="round" stroke-linejoin="round" d="M13.773,12.66
		c0,0,2.031-1.097,4.152-0.025"/>
	<path fill="none" stroke="#231F20" stroke-width="0.25" stroke-linecap="round" stroke-linejoin="round" d="M13.482,13.768
		c0,0,1.474,1.24,1.756,2.955"/>
	<g>
		
			<ellipse transform="matrix(0.9896 -0.1439 0.1439 0.9896 -1.1254 1.5602)" fill="#CE9258" cx="10.225" cy="8.561" rx="0.278" ry="0.539"/>
		
			<ellipse transform="matrix(0.9895 -0.1449 0.1449 0.9895 -1.1597 1.5782)" fill="#FDCE8B" cx="10.257" cy="8.753" rx="0.278" ry="0.539"/>
		
			<radialGradient id="SVGID_17_" cx="164.7559" cy="-164.6963" r="0.3291" gradientTransform="matrix(0.9896 -0.1441 0.2789 1.9153 -107.0354 347.6233)" gradientUnits="userSpaceOnUse">
			<stop  offset="0" style="stop-color:#FFFFFF"/>
			<stop  offset="0.0582" style="stop-color:#DAD9D9"/>
			<stop  offset="0.1353" style="stop-color:#AFAEAE"/>
			<stop  offset="0.2184" style="stop-color:#898788"/>
			<stop  offset="0.3066" style="stop-color:#6A6768"/>
			<stop  offset="0.4013" style="stop-color:#504D4D"/>
			<stop  offset="0.5049" style="stop-color:#3C3839"/>
			<stop  offset="0.622" style="stop-color:#2E2A2B"/>
			<stop  offset="0.764" style="stop-color:#252223"/>
			<stop  offset="1" style="stop-color:#231F20"/>
		</radialGradient>
		<path fill="url(#SVGID_17_)" d="M10.517,8.629c0.042,0.294-0.045,0.551-0.197,0.573c-0.153,0.022-0.311-0.198-0.354-0.493
			c-0.043-0.294,0.046-0.551,0.197-0.573C10.317,8.114,10.475,8.334,10.517,8.629z"/>
	</g>
	<g>
		
			<ellipse transform="matrix(0.9897 -0.143 0.143 0.9897 -1.2058 1.1359)" fill="#CE9258" cx="7.299" cy="8.956" rx="0.278" ry="0.538"/>
		
			<ellipse transform="matrix(0.9896 -0.1441 0.1441 0.9896 -1.2419 1.1523)" fill="#FDCE8B" cx="7.332" cy="9.148" rx="0.278" ry="0.538"/>
		
			<radialGradient id="SVGID_18_" cx="172.6084" cy="-164.6533" r="0.3293" gradientTransform="matrix(0.9896 -0.1441 0.2789 1.9153 -117.7444 349.0686)" gradientUnits="userSpaceOnUse">
			<stop  offset="0" style="stop-color:#FFFFFF"/>
			<stop  offset="0.0582" style="stop-color:#DAD9D9"/>
			<stop  offset="0.1353" style="stop-color:#AFAEAE"/>
			<stop  offset="0.2184" style="stop-color:#898788"/>
			<stop  offset="0.3066" style="stop-color:#6A6768"/>
			<stop  offset="0.4013" style="stop-color:#504D4D"/>
			<stop  offset="0.5049" style="stop-color:#3C3839"/>
			<stop  offset="0.622" style="stop-color:#2E2A2B"/>
			<stop  offset="0.764" style="stop-color:#252223"/>
			<stop  offset="1" style="stop-color:#231F20"/>
		</radialGradient>
		<path fill="url(#SVGID_18_)" d="M7.592,9.024c0.042,0.294-0.046,0.551-0.198,0.573s-0.31-0.198-0.353-0.492
			C6.998,8.81,7.086,8.553,7.239,8.531C7.391,8.509,7.55,8.729,7.592,9.024z"/>
	</g>
	<path fill="#FCD0AF" d="M8.025,9.818c0.27-0.27,1.436-0.45,1.759-0.091c0.239,0.267-0.269,1.347-0.646,1.418
		C8.643,11.24,7.674,10.169,8.025,9.818z"/>
	<polygon fill="#EDB38F" points="8.959,10.84 9.551,14.394 9.175,10.733 	"/>
	<path fill="#D79B7A" d="M9.175,10.733L8.959,10.84l0.05,0.305c0.044,0.006,0.089,0.009,0.129,0.001
		c0.023-0.004,0.049-0.014,0.074-0.026L9.175,10.733z"/>
	
		<radialGradient id="SVGID_19_" cx="195.1543" cy="-145.4072" r="0.8781" gradientTransform="matrix(1 0 0 1 -186.5195 155.3325)" gradientUnits="userSpaceOnUse">
		<stop  offset="0" style="stop-color:#FFFFFF"/>
		<stop  offset="0.0582" style="stop-color:#DAD9D9"/>
		<stop  offset="0.1353" style="stop-color:#AFAEAE"/>
		<stop  offset="0.2184" style="stop-color:#898788"/>
		<stop  offset="0.3066" style="stop-color:#6A6768"/>
		<stop  offset="0.4013" style="stop-color:#504D4D"/>
		<stop  offset="0.5049" style="stop-color:#3C3839"/>
		<stop  offset="0.622" style="stop-color:#2E2A2B"/>
		<stop  offset="0.764" style="stop-color:#252223"/>
		<stop  offset="1" style="stop-color:#231F20"/>
	</radialGradient>
	<path fill="url(#SVGID_19_)" d="M8.025,9.818c0.27-0.27,1.436-0.45,1.759-0.091c0.239,0.267-0.305,1.167-0.681,1.239
		C8.607,11.06,7.674,10.169,8.025,9.818z"/>
	
		<radialGradient id="SVGID_20_" cx="211.7334" cy="-122.9995" r="11.787" gradientTransform="matrix(1 0 0 1 -186.5195 155.3325)" gradientUnits="userSpaceOnUse">
		<stop  offset="0.6124" style="stop-color:#FDCE8B"/>
		<stop  offset="1" style="stop-color:#FAB16A"/>
	</radialGradient>
	<path fill="url(#SVGID_20_)" d="M28.156,32.98c0,0,1.002,2.18,1.416,7.184c0,0,5.709,0.883,7.652,2.591
		c0,0-8.125-0.942-10.363-0.59c0,0-0.824-4.65-2.648-6.594"/>
	<path fill="none" stroke="#231F20" stroke-width="3" d="M9.635,6.503c0,0,0.765,1.106,1.852,1.126"/>
	<path fill="none" stroke="#231F20" stroke-width="3" d="M7.3,6.705c0,0-0.38,1.29-1.407,1.647"/>
	
		<radialGradient id="SVGID_21_" cx="205.2217" cy="-141.5762" r="2.1981" gradientTransform="matrix(1.0676 0.1957 -0.1957 1.0676 -224.1411 125.2504)" gradientUnits="userSpaceOnUse">
		<stop  offset="0.6124" style="stop-color:#FDCE8B"/>
		<stop  offset="1" style="stop-color:#FAB16A"/>
	</radialGradient>
	<path fill="url(#SVGID_21_)" d="M20.754,15.664c0,0,0.609-1.086,1.742-0.15c1.042,0.86,0.688,4.363,0.688,4.363
		S22.536,17.193,20.754,15.664z"/>
	
		<radialGradient id="SVGID_22_" cx="207.3369" cy="-141.6577" r="2.199" gradientTransform="matrix(1.0854 0 0 1.0854 -204.1725 168.0062)" gradientUnits="userSpaceOnUse">
		<stop  offset="0.6124" style="stop-color:#FDCE8B"/>
		<stop  offset="1" style="stop-color:#FAB16A"/>
	</radialGradient>
	<path fill="url(#SVGID_22_)" d="M19.175,16.135c0,0,0.388-1.302,1.672-0.586c1.18,0.66,1.464,4.169,1.464,4.169
		S21.202,17.318,19.175,16.135z"/>
</g>
</svg>
