<?xml version="1.0" encoding="utf-8"?>
<!-- Generator: Adobe Illustrator 14.0.0, SVG Export Plug-In . SVG Version: 6.00 Build 43363)  -->
<!DOCTYPE svg PUBLIC "-//W3C//DTD SVG 1.1//EN" "http://www.w3.org/Graphics/SVG/1.1/DTD/svg11.dtd">
<svg version="1.1" id="图层_1" xmlns="http://www.w3.org/2000/svg" xmlns:xlink="http://www.w3.org/1999/xlink" x="0px" y="0px"
	 width="50px" height="50px" viewBox="0 0 50 50" enable-background="new 0 0 50 50" xml:space="preserve">
<g>
	
		<radialGradient id="SVGID_1_" cx="44.8643" cy="-115.0557" r="8.2445" gradientTransform="matrix(1.1247 0 0 1.1247 -37.6397 169.5596)" gradientUnits="userSpaceOnUse">
		<stop  offset="0" style="stop-color:#E2A278"/>
		<stop  offset="1" style="stop-color:#964A07"/>
	</radialGradient>
	<ellipse fill="url(#SVGID_1_)" cx="16.208" cy="44.549" rx="4.687" ry="2.93"/>
	
		<radialGradient id="SVGID_2_" cx="64.501" cy="-106.1377" r="8.1661" gradientTransform="matrix(1.1247 0 0 1.1247 -37.6397 169.5596)" gradientUnits="userSpaceOnUse">
		<stop  offset="0" style="stop-color:#E2A278"/>
		<stop  offset="1" style="stop-color:#964A07"/>
	</radialGradient>
	<ellipse fill="url(#SVGID_2_)" cx="28.174" cy="45.721" rx="4.687" ry="2.928"/>
	
		<radialGradient id="SVGID_3_" cx="217.3359" cy="-150.9688" r="4.9244" gradientTransform="matrix(1.0449 0 0 1.0449 -200.8754 160.815)" gradientUnits="userSpaceOnUse">
		<stop  offset="0" style="stop-color:#E2A278"/>
		<stop  offset="1" style="stop-color:#964A07"/>
	</radialGradient>
	<path fill="url(#SVGID_3_)" d="M19.849,7.37c0,0,8.196-4.517,10.086-1.82c2.206,3.148-4.133,10.809-4.133,10.809L19.849,7.37z"/>
	
		<radialGradient id="SVGID_4_" cx="-132.9272" cy="-126.0596" r="3.4874" gradientTransform="matrix(0.8286 0.5677 -0.5677 0.8286 64.7986 188.3271)" gradientUnits="userSpaceOnUse">
		<stop  offset="0" style="stop-color:#3D0000"/>
		<stop  offset="1" style="stop-color:#7B3400"/>
	</radialGradient>
	<path fill="url(#SVGID_4_)" d="M20.571,7.808c0,0,7.538-4.055,8.991-1.772c1.201,1.891-2.626,7.715-2.626,7.715L20.571,7.808z"/>
	
		<radialGradient id="SVGID_5_" cx="200.4482" cy="-152.7471" r="5.2418" gradientTransform="matrix(1.0449 0 0 1.0449 -200.8754 160.815)" gradientUnits="userSpaceOnUse">
		<stop  offset="0" style="stop-color:#E2A278"/>
		<stop  offset="1" style="stop-color:#964A07"/>
	</radialGradient>
	<path fill="url(#SVGID_5_)" d="M8.541,10.419c0,0-0.394-8.582,2.594-9.044c3.489-0.54,7.224,7.789,7.224,7.789L8.541,10.419z"/>
	
		<radialGradient id="SVGID_6_" cx="-122.4985" cy="-104.8042" r="3.4873" gradientTransform="matrix(0.8038 -0.452 0.452 0.8038 157.9088 34.1789)" gradientUnits="userSpaceOnUse">
		<stop  offset="0" style="stop-color:#3D0000"/>
		<stop  offset="1" style="stop-color:#7B3400"/>
	</radialGradient>
	<path fill="url(#SVGID_6_)" d="M9.195,10.001c0,0-0.28-7.852,2.189-8.121c2.044-0.223,5.287,5.294,5.287,5.294L9.195,10.001z"/>
	
		<radialGradient id="SVGID_7_" cx="22.3521" cy="-144.3711" r="23.4501" gradientTransform="matrix(1.0449 0 0 1.0449 11.9342 160.815)" gradientUnits="userSpaceOnUse">
		<stop  offset="0" style="stop-color:#E2A278"/>
		<stop  offset="1" style="stop-color:#964A07"/>
	</radialGradient>
	<path fill="url(#SVGID_7_)" d="M36.49,11.021c-8.101,2.298-7.561,9.549-6.076,14.861c2.817,10.082-3.04,10.082-3.04,10.082
		l-3.539,0.172c0,0,1.534,1.305,7.714,4.285c4.896,2.363,12.611-5.061,7.298-12.65c-1.625-2.32-0.784-4.303,0.007-4.549
		c0.882,0.884,2.103,1.431,3.45,1.431c2.694,0,4.438-2.085,4.993-4.586C48.217,15.932,43.772,8.957,36.49,11.021z"/>
	
		<linearGradient id="SVGID_8_" gradientUnits="userSpaceOnUse" x1="63.6689" y1="-126.4888" x2="59.1869" y2="-125.6318" gradientTransform="matrix(1.1247 0 0 1.1247 -37.6397 169.5596)">
		<stop  offset="0" style="stop-color:#682900"/>
		<stop  offset="1" style="stop-color:#4A1400"/>
	</linearGradient>
	<path fill="url(#SVGID_8_)" d="M27.421,38.563c0,0,0.493,0.188,4.152-0.887c9.75-2.861-1.157-16.636,4.643-22.132
		c3.619-3.429,6.823-1.104,7.839-0.262c2.688,2.23,2.014,6.168-0.08,7.703c-2.128,1.563-4.088-0.229-4.088-0.229
		s2.126,0.366,3.458-0.6c1.579-1.145,1.657-3.84,0.79-4.931c-1.192-1.499-3.936-2.907-6.63,0.08
		c-1.995,2.213-1.188,7.313-0.246,9.372c2.427,5.314,2.488,8.795-0.173,11.512C33.938,41.402,28.218,39.107,27.421,38.563z"/>
	
		<linearGradient id="SVGID_9_" gradientUnits="userSpaceOnUse" x1="58.916" y1="-124.063" x2="56.3456" y2="-121.2947" gradientTransform="matrix(1.1247 0 0 1.1247 -37.6397 169.5596)">
		<stop  offset="0" style="stop-color:#682900"/>
		<stop  offset="1" style="stop-color:#4A1400"/>
	</linearGradient>
	<path fill="url(#SVGID_9_)" d="M23.595,38.969c0,0,2.436-0.762,6.151-2.932c7.117-4.15-2.521-16.134,3.839-21.888
		c4.325-3.911,9.752-0.927,9.752-0.927s-4.563-1.696-8.624,1.392c-2.294,1.744-2.777,5.658-1.378,10.422
		c1.516,5.163,1.652,11.438-2.624,12.114C27.078,37.721,24.391,39.512,23.595,38.969z"/>
	
		<radialGradient id="SVGID_10_" cx="47.5039" cy="-112.9341" r="15.1169" gradientTransform="matrix(1.1247 0 0 1.1247 -37.6397 169.5596)" gradientUnits="userSpaceOnUse">
		<stop  offset="0" style="stop-color:#E2A278"/>
		<stop  offset="1" style="stop-color:#964A07"/>
	</radialGradient>
	<path fill="url(#SVGID_10_)" d="M23.184,19.804c0,0-1.403,8.331,5.026,13.118c5.229,3.895,5.378,9.25,0.293,11.893
		c-5.962,3.094-12.387,1.865-14.231-5.086c-1.577-5.945,4.359-14.875,4.359-14.875L23.184,19.804z"/>
	
		<linearGradient id="SVGID_11_" gradientUnits="userSpaceOnUse" x1="56.9814" y1="-124.6611" x2="55.8739" y2="-127.7899" gradientTransform="matrix(1.1247 0 0 1.1247 -37.6397 169.5596)">
		<stop  offset="0" style="stop-color:#682900"/>
		<stop  offset="1" style="stop-color:#4A1400"/>
	</linearGradient>
	<path fill="url(#SVGID_11_)" d="M32.142,38.516c-0.332-1.91-1.647-3.891-3.932-5.594c-2.746-2.043-4.061-4.734-4.669-7.147
		l-0.514,0.653c0,0,0.787,4.855,4.198,7.02C29.064,34.615,31.173,36.174,32.142,38.516z"/>
	
		<radialGradient id="SVGID_12_" cx="46.1758" cy="-129.6572" r="13.2853" gradientTransform="matrix(1.1247 0 0 1.1247 -37.6397 169.5596)" gradientUnits="userSpaceOnUse">
		<stop  offset="0" style="stop-color:#E2A278"/>
		<stop  offset="1" style="stop-color:#964A07"/>
	</radialGradient>
	<circle fill="url(#SVGID_12_)" cx="16.991" cy="16.852" r="12.005"/>
	<path fill="#A2610A" d="M19.411,25.899c-0.487-0.839-2.022-0.437-2.022,0.656c-1.366-0.164-1.475,1.748-0.218,1.803
		c0.003,0.168-0.004,0.334-0.019,0.494c1.275-0.018,2.503-0.232,3.652-0.619c-0.069-0.152-0.133-0.295-0.186-0.412
		c0.76-0.391,0.869-1.43,0.267-1.921C20.286,25.408,19.8,25.687,19.411,25.899z"/>
	<path fill="none" stroke="#231F20" stroke-width="0.5" stroke-linecap="round" stroke-linejoin="round" d="M22.115,26.07
		c0,0,1.781,0.693,2.518,1.51"/>
	
		<linearGradient id="SVGID_13_" gradientUnits="userSpaceOnUse" x1="49.3809" y1="-143.561" x2="50.238" y2="-146.0657" gradientTransform="matrix(1.1247 0 0 1.1247 -37.6397 169.5596)">
		<stop  offset="0" style="stop-color:#682900"/>
		<stop  offset="1" style="stop-color:#4A1400"/>
	</linearGradient>
	<path fill="url(#SVGID_13_)" d="M17.843,4.88c-0.653,1.27-1.95,4.344-1.623,8.271c0,0,2.095-5.833,3.956-7.875
		C19.425,5.07,18.646,4.936,17.843,4.88z"/>
	
		<linearGradient id="SVGID_14_" gradientUnits="userSpaceOnUse" x1="52.6367" y1="-143.2383" x2="53.7574" y2="-145.1499" gradientTransform="matrix(1.1247 0 0 1.1247 -37.6397 169.5596)">
		<stop  offset="0" style="stop-color:#682900"/>
		<stop  offset="1" style="stop-color:#4A1400"/>
	</linearGradient>
	<path fill="url(#SVGID_14_)" d="M21.896,5.895c-0.957,1.332-2.438,3.875-2.823,7.306c0,0,2.522-4.209,4.642-6.295
		C23.144,6.518,22.534,6.18,21.896,5.895z"/>
	
		<linearGradient id="SVGID_15_" gradientUnits="userSpaceOnUse" x1="46.1133" y1="-143.7319" x2="47.234" y2="-146.8301" gradientTransform="matrix(1.1247 0 0 1.1247 -37.6397 169.5596)">
		<stop  offset="0" style="stop-color:#682900"/>
		<stop  offset="1" style="stop-color:#4A1400"/>
	</linearGradient>
	<path fill="url(#SVGID_15_)" d="M14.103,5.198c-0.538,1.613-1.046,4.017-0.696,6.832c0,0,1.455-4.639,3.021-7.169
		C15.63,4.897,14.853,5.013,14.103,5.198z"/>
	<path fill="none" stroke="#231F20" stroke-width="0.75" stroke-linecap="round" stroke-linejoin="round" d="M19.358,16.576
		c0.313-0.813,1.227-1.218,2.04-0.903c0.813,0.313,1.216,1.226,0.903,2.038"/>
	<path fill="none" stroke="#231F20" stroke-width="0.75" stroke-linecap="round" stroke-linejoin="round" d="M9.092,13.531
		c0.314-0.814,1.227-1.218,2.04-0.904c0.813,0.313,1.217,1.226,0.903,2.039"/>
	<circle fill="#BA8D6C" cx="14.516" cy="22.511" r="1.361"/>
	
		<radialGradient id="SVGID_16_" cx="47.0322" cy="-138.1992" r="1.8846" gradientTransform="matrix(1.1247 0 0 1.1247 -38.9453 176.9473)" gradientUnits="userSpaceOnUse">
		<stop  offset="0" style="stop-color:#FFFFFF"/>
		<stop  offset="0.118" style="stop-color:#B77049"/>
		<stop  offset="0.3385" style="stop-color:#AE6740"/>
		<stop  offset="0.7039" style="stop-color:#944D27"/>
		<stop  offset="1" style="stop-color:#7B340F"/>
	</radialGradient>
	<circle fill="url(#SVGID_16_)" cx="14.342" cy="22.354" r="1.361"/>
	
		<radialGradient id="SVGID_17_" cx="54.0186" cy="-127.063" r="5.4379" gradientTransform="matrix(1.1247 0 0 1.1247 -37.6397 169.5596)" gradientUnits="userSpaceOnUse">
		<stop  offset="0" style="stop-color:#7C3A00"/>
		<stop  offset="1" style="stop-color:#964A07"/>
	</radialGradient>
	<path fill="url(#SVGID_17_)" d="M20.066,29.178c0,0,1.584-0.385,2.185,1.584c0.603,1.967-0.764,4.045-2.13,4.535
		c-1.366,0.492-1.147-2.951-1.147-2.951L20.066,29.178z"/>
	
		<radialGradient id="SVGID_18_" cx="48.5781" cy="-131.873" r="12.3101" gradientTransform="matrix(1.1247 0 0 1.1247 -37.6397 169.5596)" gradientUnits="userSpaceOnUse">
		<stop  offset="0" style="stop-color:#E2A278"/>
		<stop  offset="1" style="stop-color:#964A07"/>
	</radialGradient>
	<path fill="url(#SVGID_18_)" d="M16.447,33.219c-0.442-1.947,0.314-3.072,0.286-4.586c-1.257-0.055-1.147-1.969,0.218-1.805
		c0-1.092,1.535-1.494,2.022-0.654c0.39-0.212,0.874-0.493,1.475,0c0.602,0.49,0.493,1.527-0.267,1.918
		c0.59,1.32,2.317,5.01,0.785,6.6C19.386,36.332,17.025,35.766,16.447,33.219z"/>
	
		<linearGradient id="SVGID_19_" gradientUnits="userSpaceOnUse" x1="45.5166" y1="-126.918" x2="45.859" y2="-128.3809" gradientTransform="matrix(1.1247 0 0 1.1247 -37.6397 169.5596)">
		<stop  offset="0" style="stop-color:#EC1C24"/>
		<stop  offset="0.2452" style="stop-color:#E71B23"/>
		<stop  offset="0.5176" style="stop-color:#DA1920"/>
		<stop  offset="0.8021" style="stop-color:#C4151B"/>
		<stop  offset="1" style="stop-color:#B01117"/>
	</linearGradient>
	<path fill="url(#SVGID_19_)" d="M12.01,24.292c0,0,0.49,0.875,1.926,0.281c0,0,0.42,1.295,2.042,0.995c0,0-1.248,2.06-2.742,1.491
		C11.751,26.49,12.01,24.292,12.01,24.292z"/>
	<path fill="#682900" d="M22.982,28.158c0,0,0.35,4.404,3.95,5.912c2.822,1.18,4.164,3.641,3.574,7.512c0,0-0.29-4.43-4.041-6.381
		C21.526,32.633,22.917,28.881,22.982,28.158z"/>
	
		<linearGradient id="SVGID_20_" gradientUnits="userSpaceOnUse" x1="45.8037" y1="-128.0015" x2="45.8392" y2="-128.9232" gradientTransform="matrix(1.1247 0 0 1.1247 -37.6397 169.5596)">
		<stop  offset="0" style="stop-color:#FFFFFF"/>
		<stop  offset="0.2801" style="stop-color:#FAFBFB"/>
		<stop  offset="0.5912" style="stop-color:#EDEEEE"/>
		<stop  offset="0.9163" style="stop-color:#D7D9DA"/>
		<stop  offset="1" style="stop-color:#D0D2D3"/>
	</linearGradient>
	<path fill="url(#SVGID_20_)" d="M14.425,26.07c0.073-0.049,0.239-0.298,0.364-0.599c-0.654-0.285-0.854-0.899-0.854-0.899
		c-0.313,0.129-0.578,0.186-0.806,0.201c-0.125,0.268-0.208,0.73-0.122,0.858C13.139,25.829,14.228,26.203,14.425,26.07z"/>
	<path fill="none" stroke="#231F20" stroke-width="0.5" stroke-linecap="round" stroke-linejoin="round" d="M22.582,25.268
		c0,0,1.912,0,2.896,0.492"/>
	<path fill="none" stroke="#231F20" stroke-width="0.5" stroke-linecap="round" stroke-linejoin="round" d="M7.77,23.354
		c0,0-1.832-0.55-2.915-0.362"/>
	<path fill="none" stroke="#231F20" stroke-width="0.5" stroke-linecap="round" stroke-linejoin="round" d="M7.895,22.434
		c0,0-1.506-1.179-2.583-1.397"/>
</g>
</svg>
