<?xml version="1.0" encoding="utf-8"?>
<!-- Generator: Adobe Illustrator 14.0.0, SVG Export Plug-In . SVG Version: 6.00 Build 43363)  -->
<!DOCTYPE svg PUBLIC "-//W3C//DTD SVG 1.1//EN" "http://www.w3.org/Graphics/SVG/1.1/DTD/svg11.dtd">
<svg version="1.1" id="图层_1" xmlns="http://www.w3.org/2000/svg" xmlns:xlink="http://www.w3.org/1999/xlink" x="0px" y="0px"
	 width="50px" height="50px" viewBox="0 0 50 50" enable-background="new 0 0 50 50" xml:space="preserve">
<g>
	<path fill="#231F20" d="M37.856,30.981c0,0-0.953-4.847,1.669-5.879c3.075-1.212,5.957,1.113,5.403,4.052
		c-0.557,2.938,1.746,3.177,1.746,3.177s-0.716,0.635-1.826,0.159c0,0,0.795,0.872,2.224,0.953c0,0-4.21,2.542-4.607-0.873
		c-0.267-2.302-1.545-3.774-2.542-3.576c-1.191,0.238-1.112,2.304-1.112,2.304L37.856,30.981z"/>
	
		<linearGradient id="SVGID_1_" gradientUnits="userSpaceOnUse" x1="107.3164" y1="-214.2583" x2="107.3164" y2="-209.6031" gradientTransform="matrix(0.1518 1.1324 1.1324 -0.1518 265.1749 -108.2286)">
		<stop  offset="0" style="stop-color:#58595B"/>
		<stop  offset="1" style="stop-color:#231F20"/>
	</linearGradient>
	<path fill="url(#SVGID_1_)" d="M39.739,44.004l-0.772,1.876l0.565,0.997c0,0,1.238,0.41,2.896,0.539c0,0,0.97-2.22-0.249-4.12
		C41.331,43.519,40.637,43.718,39.739,44.004z"/>
	
		<linearGradient id="SVGID_2_" gradientUnits="userSpaceOnUse" x1="-112.7861" y1="-293.8882" x2="-113.6599" y2="-299.2101" gradientTransform="matrix(1 0 0 1 149.4541 340.2798)">
		<stop  offset="0" style="stop-color:#985633"/>
		<stop  offset="0.3685" style="stop-color:#955330"/>
		<stop  offset="0.6599" style="stop-color:#8D4A26"/>
		<stop  offset="0.9242" style="stop-color:#803A15"/>
		<stop  offset="1" style="stop-color:#7B340F"/>
	</linearGradient>
	<path fill="url(#SVGID_2_)" d="M33.085,42.709c-0.799-1.339-1.265-2.926-0.612-4.937c0.552-1.698,2.725-1.392,3.64-0.482
		c1.127,1.125-1.14,5.348,0.959,6.799c1.909,1.323,2.668-0.085,2.668-0.085s-0.584,1.995-0.207,2.873
		C39.532,46.877,35.388,46.556,33.085,42.709z"/>
	
		<linearGradient id="SVGID_3_" gradientUnits="userSpaceOnUse" x1="124.8281" y1="-225.1133" x2="124.8281" y2="-220.4588" gradientTransform="matrix(-0.9701 0.6036 0.6036 0.9701 270.3659 185.9354)">
		<stop  offset="0" style="stop-color:#58595B"/>
		<stop  offset="1" style="stop-color:#231F20"/>
	</linearGradient>
	<path fill="url(#SVGID_3_)" d="M15.363,42.884l-2.027,0.065l-0.679,0.927c0,0,0.135,1.296,0.699,2.861c0,0,2.422-0.029,3.654-1.921
		C16.459,44.134,15.993,43.585,15.363,42.884z"/>
	
		<linearGradient id="SVGID_4_" gradientUnits="userSpaceOnUse" x1="-137.3066" y1="-302.4561" x2="-133.0177" y2="-301.2647" gradientTransform="matrix(1 0 0 1 149.4541 340.2798)">
		<stop  offset="0" style="stop-color:#985633"/>
		<stop  offset="0.3685" style="stop-color:#955330"/>
		<stop  offset="0.6599" style="stop-color:#8D4A26"/>
		<stop  offset="0.9242" style="stop-color:#803A15"/>
		<stop  offset="1" style="stop-color:#7B340F"/>
	</linearGradient>
	<path fill="url(#SVGID_4_)" d="M13.813,36.285c0.89-1.278,2.146-2.356,4.246-2.587c1.776-0.195,2.39,1.915,1.934,3.121
		c-0.562,1.49-5.342,1.156-5.805,3.667c-0.419,2.285,1.175,2.397,1.175,2.397s-2.059,0.287-2.706,0.992
		C12.657,43.876,11.248,39.964,13.813,36.285z"/>
	
		<linearGradient id="SVGID_5_" gradientUnits="userSpaceOnUse" x1="-134.2246" y1="-311.0562" x2="-126.5087" y2="-309.6143" gradientTransform="matrix(1 0 0 1 149.2061 343.498)">
		<stop  offset="0" style="stop-color:#FDE6D3"/>
		<stop  offset="0.3685" style="stop-color:#FDE4D0"/>
		<stop  offset="0.6599" style="stop-color:#FDDEC6"/>
		<stop  offset="0.9242" style="stop-color:#FCD4B5"/>
		<stop  offset="1" style="stop-color:#FCD0AF"/>
	</linearGradient>
	<path fill="url(#SVGID_5_)" d="M19.109,29.868c0,0-2.145-0.158-3.336,1.827c0,0,1.033-0.397,1.509-0.159
		c0,0-1.191,0.716-1.113,1.826c0,0,0.557-0.555,0.954-0.635c0,0-1.589,3.02,1.906,3.813c2.905,0.659,2.86-4.608,2.86-4.608
		L19.109,29.868z"/>
	
		<linearGradient id="SVGID_6_" gradientUnits="userSpaceOnUse" x1="124.584" y1="-223.6938" x2="124.584" y2="-219.0389" gradientTransform="matrix(-0.9019 0.7752 0.7752 0.9019 302.3953 149.9389)">
		<stop  offset="0" style="stop-color:#58595B"/>
		<stop  offset="1" style="stop-color:#231F20"/>
	</linearGradient>
	<path fill="url(#SVGID_6_)" d="M18.708,44.506l-2.075,0.391l-0.55,1.061c0,0,0.345,1.312,1.175,2.832c0,0,2.486-0.414,3.453-2.556
		C20.035,45.617,19.467,45.13,18.708,44.506z"/>
	<path fill="#231F20" d="M18.171,9.343c0,0,3.135-1.814,4.67,1.22c0,0-1.716-0.751-2.245,0.507c0,0,1.31-0.155,1.645,1.294
		c0.283,1.226,1.667,0.616,1.667,0.616s-1.258,1.874-2.387,1.331c0,0,1.631,0.997,1.243,2.799c0,0-0.392-1.242-1.357-0.681
		c-0.602,0.35-0.779,1.401,0.506,2.643c0.811,0.781,2.271,0.016,2.271,0.016s-0.938,1.951-2.901,1.795c0,0,3.896,1.165,2.663,3.302
		c0,0,0.016-1.09-1.011-1.402c0,0,1.767,2.613,0.436,4.668c0,0-0.231-0.908-0.686-1.394c0,0,0.277,1.306-1.101,2.125
		c-1.377,0.819,0.715,1.655,0.715,1.655s-0.834,0.894-1.463,0.027c0,0,1.79-2.266-0.9-0.502c-1.831,1.198-2.079-7.926-2.079-7.926
		L18.171,9.343z"/>
	<path fill="#231F20" d="M16.11,19.357c0,0-1.214,1.183,0.031,2.087c0.813,0.589,0,1.621-0.373,1.495c0,0,0.156,0.468,0.778,0.094
		c0,0-0.092,2.056,1.465,2.244c1.558,0.186,1.371-2.462,1.371-2.462l-1.402-3.458H16.11z"/>
	
		<linearGradient id="SVGID_7_" gradientUnits="userSpaceOnUse" x1="206.127" y1="-282.7646" x2="206.127" y2="-289.8926" gradientTransform="matrix(0.9325 -0.3612 0.3612 0.9325 -63.8254 364.8945)">
		<stop  offset="0" style="stop-color:#985633"/>
		<stop  offset="0.3685" style="stop-color:#955330"/>
		<stop  offset="0.6599" style="stop-color:#8D4A26"/>
		<stop  offset="0.9242" style="stop-color:#803A15"/>
		<stop  offset="1" style="stop-color:#7B340F"/>
	</linearGradient>
	<path fill="url(#SVGID_7_)" d="M37.937,30.266c-3.195-0.772-3.032,1.04-6.036,2.225c-2.621,1.032-5.426,0.797-8.734-3.819
		c-3.236-4.515-3.681-16.089-3.681-16.089s-0.774-3.01-2.039,4.786c-0.674,4.145,0.375,9.496,1.114,12.493
		c-4.196,10.44,9.528,16.122,17.3,11.505C42.489,37.43,40.977,31.002,37.937,30.266z"/>
	
		<linearGradient id="SVGID_8_" gradientUnits="userSpaceOnUse" x1="-120.084" y1="-292.7002" x2="-120.2428" y2="-301.4373" gradientTransform="matrix(1 0 0 1 149.4541 340.2798)">
		<stop  offset="0" style="stop-color:#FCD0AF"/>
		<stop  offset="0.2974" style="stop-color:#E1AF8E"/>
		<stop  offset="0.95" style="stop-color:#9D5D3A"/>
		<stop  offset="1" style="stop-color:#985633"/>
	</linearGradient>
	<path fill="url(#SVGID_8_)" d="M40.4,34.874H17.877c1.108,7.1,11.572,10.302,17.983,6.492c2.805-1.664,4.146-3.774,4.54-5.711
		V34.874z"/>
	
		<linearGradient id="SVGID_9_" gradientUnits="userSpaceOnUse" x1="-110.4292" y1="-299.0781" x2="-112.0558" y2="-303.9582" gradientTransform="matrix(1 0 0 1 149.4541 340.2798)">
		<stop  offset="0" style="stop-color:#985633"/>
		<stop  offset="0.3685" style="stop-color:#955330"/>
		<stop  offset="0.6599" style="stop-color:#8D4A26"/>
		<stop  offset="0.9242" style="stop-color:#803A15"/>
		<stop  offset="1" style="stop-color:#7B340F"/>
	</linearGradient>
	<path fill="url(#SVGID_9_)" d="M37.3,40.116c0,0,0.098,0.025,0.228,0.07c0.598-0.503,1.097-1.029,1.503-1.566
		c0.003-0.045,0.007-0.087,0.01-0.133c0.206-2.835-1.372-3.478-2.269-3.613h-0.589L37.3,40.116z"/>
	
		<linearGradient id="SVGID_10_" gradientUnits="userSpaceOnUse" x1="-120.084" y1="-292.7061" x2="-120.2428" y2="-301.4395" gradientTransform="matrix(1 0 0 1 149.4541 340.2798)">
		<stop  offset="0" style="stop-color:#FCD0AF"/>
		<stop  offset="0.2974" style="stop-color:#E1AF8E"/>
		<stop  offset="0.95" style="stop-color:#9D5D3A"/>
		<stop  offset="1" style="stop-color:#985633"/>
	</linearGradient>
	<line fill="url(#SVGID_10_)" x1="40.4" y1="34.874" x2="17.877" y2="34.874"/>
	
		<linearGradient id="SVGID_11_" gradientUnits="userSpaceOnUse" x1="-127.7754" y1="-298.6289" x2="-128.4903" y2="-302.3617" gradientTransform="matrix(1 0 0 1 149.4541 340.2798)">
		<stop  offset="0" style="stop-color:#985633"/>
		<stop  offset="0.3685" style="stop-color:#955330"/>
		<stop  offset="0.6599" style="stop-color:#8D4A26"/>
		<stop  offset="0.9242" style="stop-color:#803A15"/>
		<stop  offset="1" style="stop-color:#7B340F"/>
	</linearGradient>
	<path fill="url(#SVGID_11_)" d="M22.057,40.861c-0.373-1.544,0.23-4.081,0.23-4.081l-2.701,0.714l-0.026,1.149
		C20.243,39.501,21.093,40.244,22.057,40.861z"/>
	
		<radialGradient id="SVGID_12_" cx="161.0225" cy="-332.895" r="4.4295" gradientTransform="matrix(0.9671 0.3831 -0.3831 0.9671 -271.4098 261.8579)" gradientUnits="userSpaceOnUse">
		<stop  offset="0" style="stop-color:#CB8361"/>
		<stop  offset="0.346" style="stop-color:#C8805E"/>
		<stop  offset="0.6196" style="stop-color:#BE7754"/>
		<stop  offset="0.8676" style="stop-color:#AD6744"/>
		<stop  offset="1" style="stop-color:#A15C38"/>
	</radialGradient>
	<path fill="url(#SVGID_12_)" d="M15.191,6.425c0,0,0.718-1.627,0.488-2.341c-0.229-0.714-2.166-2.251-2.803-2.398
		c0,0-0.801,1.862-0.189,3.078c0.611,1.216,1.932,1.97,1.932,1.97L15.191,6.425z"/>
	<path fill="#231F20" d="M13.338,5.557c0,0,0.904-2.025,2.96-0.997c0.798,0.399,1.87-0.093,2.212-0.591c0,0,0.217,1.153-0.53,1.433
		c0,0,2.492,0.623,1.527,2.617c-0.966,1.993-2.99-0.375-2.99-0.375L13.338,5.557z"/>
	
		<radialGradient id="SVGID_13_" cx="126.1963" cy="-337.2603" r="4.4291" gradientTransform="matrix(-1.0742 -0.5103 -0.5103 1.0742 -11.8836 434.4333)" gradientUnits="userSpaceOnUse">
		<stop  offset="0" style="stop-color:#CB8361"/>
		<stop  offset="0.346" style="stop-color:#C8805E"/>
		<stop  offset="0.6196" style="stop-color:#BE7754"/>
		<stop  offset="0.8676" style="stop-color:#AD6744"/>
		<stop  offset="1" style="stop-color:#A15C38"/>
	</radialGradient>
	<path fill="url(#SVGID_13_)" d="M17.994,8.647c0,0,0.801-1.868,1.577-2.233c0.777-0.365,3.572,0.056,4.192,0.476
		c0,0-0.934,2.121-2.427,2.557c-1.494,0.437-3.151-0.08-3.151-0.08L17.994,8.647z"/>
	
		<radialGradient id="SVGID_14_" cx="127.6943" cy="-334.666" r="2.2515" gradientTransform="matrix(-1.0742 -0.5103 -0.5103 1.0742 -11.8836 434.4333)" gradientUnits="userSpaceOnUse">
		<stop  offset="0" style="stop-color:#FCD0AF"/>
		<stop  offset="0.5654" style="stop-color:#FBCEAD"/>
		<stop  offset="0.7691" style="stop-color:#F8C8A6"/>
		<stop  offset="0.9137" style="stop-color:#F2BD9B"/>
		<stop  offset="1" style="stop-color:#EDB38F"/>
	</radialGradient>
	<path fill="url(#SVGID_14_)" d="M18.659,8.68c0,0,0.908-1.915,1.858-2.117c0.949-0.202,3.15,0.362,3.15,0.362
		s-1.087,1.982-2.181,2.347C20.394,9.636,18.659,8.68,18.659,8.68z"/>
	
		<linearGradient id="SVGID_15_" gradientUnits="userSpaceOnUse" x1="168.2031" y1="-313.3164" x2="168.2031" y2="-315.4987" gradientTransform="matrix(1.0742 0.5103 -0.5103 1.0742 -334.9724 279.4373)">
		<stop  offset="0" style="stop-color:#A15C38"/>
		<stop  offset="0.3494" style="stop-color:#9E5935"/>
		<stop  offset="0.6257" style="stop-color:#954F2B"/>
		<stop  offset="0.8763" style="stop-color:#853F1A"/>
		<stop  offset="1" style="stop-color:#7B340F"/>
	</linearGradient>
	<path fill="url(#SVGID_15_)" d="M11.049,28.471c-0.693,0.842-2.947,0.912-5.344-0.229c-2.399-1.139-3.963-2.86-3.496-3.843
		C2.677,23.415,5,23.54,7.398,24.68C9.795,25.818,12.663,26.511,11.049,28.471z"/>
	
		<radialGradient id="SVGID_16_" cx="-144.9097" cy="-312.145" r="5.2179" gradientTransform="matrix(1 0 0 1 149.4541 340.2798)" gradientUnits="userSpaceOnUse">
		<stop  offset="0" style="stop-color:#FFFFFF"/>
		<stop  offset="0.284" style="stop-color:#FCFCFC"/>
		<stop  offset="0.5086" style="stop-color:#F2F2F3"/>
		<stop  offset="0.7129" style="stop-color:#E1E2E3"/>
		<stop  offset="0.9041" style="stop-color:#CACBCD"/>
		<stop  offset="1" style="stop-color:#BBBDBF"/>
	</radialGradient>
	<path fill="url(#SVGID_16_)" d="M3.405,23.117c0,0,2.935-4.382,7.781,3.696l-0.717,1.505c0,0-1.42,0.789-4.481-0.665
		c-1.11-0.528-2.821-1.574-3.417-2.78L3.405,23.117z"/>
	
		<radialGradient id="SVGID_17_" cx="163.5684" cy="-335.8979" r="12.4125" gradientTransform="matrix(1.0742 0.5103 -0.5103 1.0742 -334.3606 281.2703)" gradientUnits="userSpaceOnUse">
		<stop  offset="0" style="stop-color:#CB8361"/>
		<stop  offset="0.346" style="stop-color:#C8805E"/>
		<stop  offset="0.6196" style="stop-color:#BE7754"/>
		<stop  offset="0.8676" style="stop-color:#AD6744"/>
		<stop  offset="1" style="stop-color:#A15C38"/>
	</radialGradient>
	<path fill="url(#SVGID_17_)" d="M18.451,20.227c5.047-4.541,1.419-11.93-2.03-13.569c-3.879-1.843-6.731,0.912-7.502,3.757
		c-0.17,0.625-1.984,8.062-3.804,9.344c-1.471,1.035-4.166,1.918-1.692,4.618c0.617,0.673,0.7,1.581,1.794,2.13
		c2.023,1.019,2.355,0.225,4.982,1.333c3.765,1.472,3.2-4.368,3.2-4.368C12.844,19.05,16.358,22.112,18.451,20.227z"/>
	<path fill="#A15C38" d="M12.18,6.427c-1.296,1.206-1.546,3.124-1.546,3.124c0.233-0.75,1.838-1.28,1.838-1.28
		c-0.885,0.44-0.602,2.175-0.602,2.175c0.236-0.626,1.812-1.354,1.812-1.354c-1.076,2.134,1.501,2.928,1.501,2.928
		c-0.475-1.333,1.269-2.413,1.269-2.413c0.307,0.392-0.158,2.018-0.158,2.018c0.766-0.19,1.437-1.471,1.437-1.471
		c0.483,0.537,0.167,2.108,0.167,2.108s1.422-0.58,1.938-1.931c-0.876-1.711-2.156-3.076-3.414-3.674
		C14.802,5.89,13.364,5.922,12.18,6.427z"/>
	<path fill="#231F20" d="M13.087,5.481c1.576-0.728,5.346,0.141,6.319,2.757c0.972,2.615-1.516,3.709-1.516,3.709
		s0.316-1.573-0.167-2.109c0,0-0.67,1.281-1.437,1.47c0,0,0.464-1.625,0.158-2.017c0,0-1.744,1.079-1.269,2.412
		c0,0-2.577-0.793-1.501-2.928c0,0-1.576,0.729-1.812,1.354c0,0-0.283-1.734,0.603-2.175c0,0-1.605,0.53-1.838,1.28
		C10.627,9.235,10.98,6.455,13.087,5.481z"/>
	
		<radialGradient id="SVGID_18_" cx="172.6123" cy="-324.623" r="2.843" gradientTransform="matrix(1.0742 0.5103 -0.5103 1.0742 -338.8875 279.8211)" gradientUnits="userSpaceOnUse">
		<stop  offset="0" style="stop-color:#CB8361"/>
		<stop  offset="0.346" style="stop-color:#C8805E"/>
		<stop  offset="0.6196" style="stop-color:#BE7754"/>
		<stop  offset="0.8676" style="stop-color:#AD6744"/>
		<stop  offset="1" style="stop-color:#A15C38"/>
	</radialGradient>
	<path fill="url(#SVGID_18_)" d="M8.562,20.292c0,0,1.479-1.819,2.22-0.791c0.743,1.029-1.109,1.688-1.709,1.527"/>
	
		<ellipse transform="matrix(0.9294 -0.3692 0.3692 0.9294 -6.7977 5.0049)" fill="#681D00" cx="9.679" cy="20.265" rx="0.703" ry="0.251"/>
	
		<radialGradient id="SVGID_19_" cx="131.4121" cy="-324.4976" r="2.8431" gradientTransform="matrix(-1.0742 -0.5103 -0.5103 1.0742 -18.2722 431.886)" gradientUnits="userSpaceOnUse">
		<stop  offset="0" style="stop-color:#CB8361"/>
		<stop  offset="0.346" style="stop-color:#C8805E"/>
		<stop  offset="0.6196" style="stop-color:#BE7754"/>
		<stop  offset="0.8676" style="stop-color:#AD6744"/>
		<stop  offset="1" style="stop-color:#A15C38"/>
	</radialGradient>
	<path fill="url(#SVGID_19_)" d="M7.538,19.576c0,0,0.477-2.297-0.791-2.222c-1.267,0.076-0.608,1.926-0.104,2.289"/>
	
		<ellipse transform="matrix(-0.3004 -0.9538 0.9538 -0.3004 -8.9165 30.8412)" fill="#681D00" cx="6.852" cy="18.69" rx="0.703" ry="0.25"/>
	<path fill="none" stroke="#FFFFFF" stroke-width="0.8935" stroke-linecap="round" stroke-linejoin="round" d="M15.038,15.819
		c0.38-0.213,1.507-1.448,0.189-2.395c-1.382-0.995-2.534,0.794-1.912,1.657c0.783,1.084,1.98,0.098,1.642-0.681
		c-0.301-0.692-0.903-0.46-1.041-0.186"/>
	<path fill="none" stroke="#FFFFFF" stroke-width="0.8935" stroke-linecap="round" stroke-linejoin="round" d="M12.424,13.165
		c0.027-0.437-0.373-2.114-1.909-1.459c-1.437,0.611-0.709,2.561,0.354,2.505c1.336-0.069,1.156-1.61,0.32-1.749
		c-0.745-0.124-0.876,0.508-0.722,0.772"/>
	
		<linearGradient id="SVGID_20_" gradientUnits="userSpaceOnUse" x1="-126.6978" y1="-287.4526" x2="-129.1153" y2="-293.3242" gradientTransform="matrix(1 0 0 1 147.9473 333.3916)">
		<stop  offset="0" style="stop-color:#CB8361"/>
		<stop  offset="0.3195" style="stop-color:#C8805E"/>
		<stop  offset="0.5723" style="stop-color:#BE7755"/>
		<stop  offset="0.8013" style="stop-color:#AD6946"/>
		<stop  offset="1" style="stop-color:#985633"/>
	</linearGradient>
	<path fill="url(#SVGID_20_)" d="M16.063,37.965c0.714-1.457,1.833-2.764,3.957-3.336c1.796-0.483,2.764,1.589,2.487,2.9
		c-0.342,1.624-5.313,2.042-5.388,4.698c-0.069,2.417,1.589,2.278,1.589,2.278s-2.072,0.624-2.625,1.451
		C16.083,45.957,14.01,42.158,16.063,37.965z"/>
	
		<linearGradient id="SVGID_21_" gradientUnits="userSpaceOnUse" x1="108.9365" y1="-211.2651" x2="108.9365" y2="-206.6102" gradientTransform="matrix(0.3363 1.1408 1.1408 -0.3363 246.4985 -151.74)">
		<stop  offset="0" style="stop-color:#58595B"/>
		<stop  offset="1" style="stop-color:#231F20"/>
	</linearGradient>
	<path fill="url(#SVGID_21_)" d="M42.594,41.621l-0.497,2.052l0.742,0.937c0,0,1.338,0.224,3.063,0.094c0,0,0.643-2.438-0.913-4.199
		C44.151,40.867,43.473,41.184,42.594,41.621z"/>
	
		<linearGradient id="SVGID_22_" gradientUnits="userSpaceOnUse" x1="-102.8311" y1="-287.7842" x2="-105.2493" y2="-293.6572" gradientTransform="matrix(0.4108 -0.9117 0.9117 0.4108 349.5218 64.3618)">
		<stop  offset="0" style="stop-color:#CB8361"/>
		<stop  offset="0.3195" style="stop-color:#C8805E"/>
		<stop  offset="0.5723" style="stop-color:#BE7755"/>
		<stop  offset="0.8013" style="stop-color:#AD6946"/>
		<stop  offset="1" style="stop-color:#985633"/>
	</linearGradient>
	<path fill="url(#SVGID_22_)" d="M35.543,41.346c-1.036-1.25-1.768-2.808-1.418-4.979c0.298-1.836,2.585-1.867,3.668-1.077
		c1.34,0.979-0.322,5.684,2.069,6.843c2.175,1.056,2.731-0.512,2.731-0.512s-0.286,2.144,0.245,2.988
		C42.839,44.609,38.522,44.938,35.543,41.346z"/>
</g>
</svg>
