<?xml version="1.0" encoding="utf-8"?>
<!-- Generator: Adobe Illustrator 14.0.0, SVG Export Plug-In . SVG Version: 6.00 Build 43363)  -->
<!DOCTYPE svg PUBLIC "-//W3C//DTD SVG 1.1//EN" "http://www.w3.org/Graphics/SVG/1.1/DTD/svg11.dtd">
<svg version="1.1" id="图层_1" xmlns="http://www.w3.org/2000/svg" xmlns:xlink="http://www.w3.org/1999/xlink" x="0px" y="0px"
	 width="50px" height="50px" viewBox="0 0 50 50" enable-background="new 0 0 50 50" xml:space="preserve">
<g>
	
		<radialGradient id="SVGID_1_" cx="237.3701" cy="-70.4121" r="6.5834" gradientTransform="matrix(1 0 0 1 -203.8555 90.1108)" gradientUnits="userSpaceOnUse">
		<stop  offset="0" style="stop-color:#FFCA05"/>
		<stop  offset="0.3773" style="stop-color:#FDC706"/>
		<stop  offset="0.6756" style="stop-color:#F5BD0A"/>
		<stop  offset="0.9461" style="stop-color:#E8AC10"/>
		<stop  offset="1" style="stop-color:#E5A812"/>
	</radialGradient>
	<path fill="url(#SVGID_1_)" d="M27.452,12.769c0.784-0.051,2.958,2.31,3.468,4.766c0.433,2.082-1.928-0.731-2.529-1.084
		c-0.619-0.364-1.618-0.673-2.454-1.732C25.033,13.572,25.754,12.88,27.452,12.769z"/>
	
		<radialGradient id="SVGID_2_" cx="244.6357" cy="-71.415" r="6.5861" gradientTransform="matrix(-0.9373 0.3485 0.3485 0.9373 273.4209 3.8199)" gradientUnits="userSpaceOnUse">
		<stop  offset="0" style="stop-color:#FFCA05"/>
		<stop  offset="0.3773" style="stop-color:#FDC706"/>
		<stop  offset="0.6756" style="stop-color:#F5BD0A"/>
		<stop  offset="0.9461" style="stop-color:#E8AC10"/>
		<stop  offset="1" style="stop-color:#E5A812"/>
	</radialGradient>
	<path fill="url(#SVGID_2_)" d="M22.596,13.606c-0.752,0.225-1.969,3.196-1.59,5.676c0.321,2.1,1.552-1.357,1.993-1.899
		c0.454-0.555,1.283-1.194,1.697-2.479C25.145,13.516,24.226,13.119,22.596,13.606z"/>
	
		<radialGradient id="SVGID_3_" cx="219.5332" cy="-124.9487" r="6.5833" gradientTransform="matrix(1 0 0 1 -178.5137 167.6006)" gradientUnits="userSpaceOnUse">
		<stop  offset="0" style="stop-color:#FFE600"/>
		<stop  offset="0.295" style="stop-color:#FEE301"/>
		<stop  offset="0.5283" style="stop-color:#FAD904"/>
		<stop  offset="0.7405" style="stop-color:#F3C809"/>
		<stop  offset="0.939" style="stop-color:#E9B10F"/>
		<stop  offset="1" style="stop-color:#E5A812"/>
	</radialGradient>
	<path fill="url(#SVGID_3_)" d="M34.708,35.885c0.783-0.049,3.76,1.34,3.718,4.603c-0.024,2.125-1.927-0.73-2.529-1.085
		c-0.619-0.361-1.618-0.673-2.454-1.732C32.539,36.524,33.013,35.997,34.708,35.885z"/>
	
		<radialGradient id="SVGID_4_" cx="223.4434" cy="-127.5444" r="6.5829" gradientTransform="matrix(-0.8819 0.4714 0.4714 0.8819 280.4638 54.9204)" gradientUnits="userSpaceOnUse">
		<stop  offset="0" style="stop-color:#FFE600"/>
		<stop  offset="0.295" style="stop-color:#FEE301"/>
		<stop  offset="0.5283" style="stop-color:#FAD904"/>
		<stop  offset="0.7405" style="stop-color:#F3C809"/>
		<stop  offset="0.939" style="stop-color:#E9B10F"/>
		<stop  offset="1" style="stop-color:#E5A812"/>
	</radialGradient>
	<path fill="url(#SVGID_4_)" d="M25.463,38.828c-0.715,0.325-2.686,2.952-1.111,5.808c1.026,1.863,1.356-1.552,1.721-2.147
		c0.375-0.61,1.11-1.354,1.348-2.683C27.677,38.369,27.012,38.128,25.463,38.828z"/>
	
		<linearGradient id="SVGID_5_" gradientUnits="userSpaceOnUse" x1="48.3848" y1="-235.9351" x2="41.1775" y2="-233.9605" gradientTransform="matrix(-0.2284 -0.7922 0.7922 -0.2284 216.1801 -6.3521)">
		<stop  offset="0" style="stop-color:#FFDD00"/>
		<stop  offset="0.3075" style="stop-color:#FFDA01"/>
		<stop  offset="0.5507" style="stop-color:#FED006"/>
		<stop  offset="0.7719" style="stop-color:#FCBF0E"/>
		<stop  offset="0.9789" style="stop-color:#F9A819"/>
		<stop  offset="1" style="stop-color:#F9A51A"/>
	</linearGradient>
	<path fill="url(#SVGID_5_)" d="M23.986,14.931c0,0-3.298-4.826-8.73-4.167C8.546,11.579,7.816,3.457,8.802,1
		c0,0,3.24,3.637,9.184,2.25c4.942-1.154,9.638,5.452,6.8,10.702L23.986,14.931z"/>
	
		<radialGradient id="SVGID_6_" cx="57.7412" cy="-246.4722" r="9.3641" gradientTransform="matrix(-0.2284 -0.7922 0.7922 -0.2284 216.1801 -6.3521)" gradientUnits="userSpaceOnUse">
		<stop  offset="0" style="stop-color:#FFFFFF"/>
		<stop  offset="0.284" style="stop-color:#FCFCFC"/>
		<stop  offset="0.5086" style="stop-color:#F2F2F3"/>
		<stop  offset="0.7129" style="stop-color:#E1E2E3"/>
		<stop  offset="0.9041" style="stop-color:#CACBCD"/>
		<stop  offset="1" style="stop-color:#BBBDBF"/>
	</radialGradient>
	<path fill="url(#SVGID_6_)" d="M10.636,9.4l1.372-0.515l-0.573-1.104l1.251-0.361l-0.461-1.308l1.251-0.36L12.913,4.39l1.196-0.9
		C10.648,3.071,8.802,1,8.802,1C8.12,2.699,8.26,7.112,10.636,9.4z"/>
	
		<radialGradient id="SVGID_7_" cx="198.3398" cy="-155.3662" r="11.4466" gradientTransform="matrix(1 0 0 1 -176.5654 169.0625)" gradientUnits="userSpaceOnUse">
		<stop  offset="0" style="stop-color:#FFE600"/>
		<stop  offset="0.295" style="stop-color:#FEE301"/>
		<stop  offset="0.5283" style="stop-color:#FAD904"/>
		<stop  offset="0.7405" style="stop-color:#F3C809"/>
		<stop  offset="0.939" style="stop-color:#E9B10F"/>
		<stop  offset="1" style="stop-color:#E5A812"/>
	</radialGradient>
	<path fill="url(#SVGID_7_)" d="M23.988,24.704c0,0-4.872-8.414-1.139-11.64c2.604-2.252,5.96-0.647,6.453,1.392
		c1.615,6.686-3.1,9.045-2.152,10.122C28.1,25.653,23.988,24.704,23.988,24.704z"/>
	
		<radialGradient id="SVGID_8_" cx="-12.6899" cy="-354.4336" r="30.325" gradientTransform="matrix(0.6236 0 0 0.6236 33.9519 244.7766)" gradientUnits="userSpaceOnUse">
		<stop  offset="0" style="stop-color:#FFE600"/>
		<stop  offset="0.3333" style="stop-color:#FFE301"/>
		<stop  offset="0.5969" style="stop-color:#FED905"/>
		<stop  offset="0.8359" style="stop-color:#FDC80C"/>
		<stop  offset="1" style="stop-color:#FCB813"/>
	</radialGradient>
	<path fill="url(#SVGID_8_)" d="M21.228,24.225c0,0,3.361-2.506,7.384-2.045c0,0,1.532-3.853,4.038-4.71
		c0,0,1.685,2.973,1.739,5.722c0,0,6.992,4.012,7.413,8.985c0,0-3.987,3.986-6.296,7.701c-1.632,2.63-1.131,7.033-2.538,7.547
		c-0.763,0.278-1.928-1.704-4.124-3.327c-4.218-3.118-8.07-3.179-11.677-3.303c-2.059-5.288-0.49-11.559-0.49-11.559
		s-1.912-3.892-1.978-6.792C16.832,21.901,21.228,24.225,21.228,24.225z"/>
	<path fill="#FFCA05" d="M27.274,22.132c-2.058,0.075-3.836,0.822-4.922,1.404c-1.311,0.969-1.213,2.041-0.526,2.804
		c0.786,0.873,2.056,1.491,3.424,0.819c1.897-0.932,4.129-0.556,4.129-0.556S28.77,23.713,27.274,22.132z"/>
	<path fill="none" stroke="#404041" stroke-width="0.5" stroke-linecap="round" stroke-linejoin="round" d="M30.722,45.013
		c0,0-1.144,0.624-1.665,1.404"/>
	<path fill="none" stroke="#404041" stroke-width="0.5" stroke-linecap="round" stroke-linejoin="round" d="M30.051,44.438
		c0,0-1.3,0.363-1.769,0.78"/>
	<path fill="none" stroke="#404041" stroke-width="0.5" stroke-linecap="round" stroke-linejoin="round" d="M33.792,44.345
		c0,0,1.298,0.12,2.084,0.632"/>
	<path fill="none" stroke="#404041" stroke-width="0.5" stroke-linecap="round" stroke-linejoin="round" d="M33.954,43.461
		c0,0,1.34-0.18,1.933,0.019"/>
	
		<radialGradient id="SVGID_9_" cx="95.3574" cy="-378.585" r="3.109" gradientTransform="matrix(0.8364 -0.2861 0.2421 0.7077 44.0073 342.1646)" gradientUnits="userSpaceOnUse">
		<stop  offset="0" style="stop-color:#FFFFFF"/>
		<stop  offset="0.0513" style="stop-color:#DAD9D9"/>
		<stop  offset="0.1193" style="stop-color:#AFAEAE"/>
		<stop  offset="0.1927" style="stop-color:#898788"/>
		<stop  offset="0.2704" style="stop-color:#6A6768"/>
		<stop  offset="0.3539" style="stop-color:#504D4D"/>
		<stop  offset="0.4453" style="stop-color:#3C3839"/>
		<stop  offset="0.5486" style="stop-color:#2E2A2B"/>
		<stop  offset="0.6738" style="stop-color:#252223"/>
		<stop  offset="0.882" style="stop-color:#231F20"/>
		<stop  offset="1" style="stop-color:#808184"/>
	</radialGradient>
	<path fill="url(#SVGID_9_)" d="M34.556,46.927c0.232,0.681-0.231,1.459-1.039,1.733c-0.804,0.277-1.646-0.054-1.879-0.736
		c-0.235-0.682,0.229-1.457,1.035-1.733C33.479,45.913,34.322,46.244,34.556,46.927z"/>
	<g>
		<path fill="#F9A51A" d="M32.067,34.336c0.171,0.503,0.122,1.033-0.114,1.184c-0.232,0.154-0.563-0.129-0.735-0.632
			c-0.171-0.502-0.12-1.034,0.114-1.187C31.566,33.551,31.895,33.834,32.067,34.336z"/>
		<path fill="#FFF100" d="M32.158,34.696c0.174,0.502,0.125,1.034-0.111,1.187c-0.233,0.154-0.563-0.131-0.736-0.631
			c-0.173-0.503-0.121-1.035,0.112-1.184C31.655,33.91,31.987,34.195,32.158,34.696z"/>
		
			<radialGradient id="SVGID_10_" cx="223.2568" cy="-188.7939" r="0.6892" gradientTransform="matrix(0.4385 -1.312 0.9261 1.3009 108.243 573.2261)" gradientUnits="userSpaceOnUse">
			<stop  offset="0" style="stop-color:#FFFFFF"/>
			<stop  offset="0.0582" style="stop-color:#DAD9D9"/>
			<stop  offset="0.1353" style="stop-color:#AFAEAE"/>
			<stop  offset="0.2184" style="stop-color:#898788"/>
			<stop  offset="0.3066" style="stop-color:#6A6768"/>
			<stop  offset="0.4013" style="stop-color:#504D4D"/>
			<stop  offset="0.5049" style="stop-color:#3C3839"/>
			<stop  offset="0.622" style="stop-color:#2E2A2B"/>
			<stop  offset="0.764" style="stop-color:#252223"/>
			<stop  offset="1" style="stop-color:#231F20"/>
		</radialGradient>
		<path fill="url(#SVGID_10_)" d="M32.101,34.518c0.172,0.5,0.123,1.03-0.111,1.183c-0.235,0.152-0.563-0.131-0.735-0.632
			c-0.173-0.504-0.123-1.032,0.11-1.185C31.598,33.729,31.928,34.015,32.101,34.518z"/>
	</g>
	<g>
		<path fill="#F9A51A" d="M27.313,35.997c0.17,0.502,0.121,1.035-0.114,1.184c-0.232,0.154-0.563-0.128-0.735-0.63
			c-0.173-0.504-0.122-1.035,0.114-1.188C26.812,35.212,27.14,35.495,27.313,35.997z"/>
		<path fill="#FFF100" d="M27.406,36.358c0.171,0.503,0.12,1.033-0.114,1.186c-0.235,0.156-0.563-0.131-0.735-0.632
			c-0.174-0.502-0.126-1.033,0.111-1.185C26.902,35.573,27.231,35.858,27.406,36.358z"/>
		
			<radialGradient id="SVGID_11_" cx="233.5371" cy="-181.4619" r="0.6897" gradientTransform="matrix(0.4385 -1.312 0.9261 1.3009 92.1903 578.8375)" gradientUnits="userSpaceOnUse">
			<stop  offset="0" style="stop-color:#FFFFFF"/>
			<stop  offset="0.0582" style="stop-color:#DAD9D9"/>
			<stop  offset="0.1353" style="stop-color:#AFAEAE"/>
			<stop  offset="0.2184" style="stop-color:#898788"/>
			<stop  offset="0.3066" style="stop-color:#6A6768"/>
			<stop  offset="0.4013" style="stop-color:#504D4D"/>
			<stop  offset="0.5049" style="stop-color:#3C3839"/>
			<stop  offset="0.622" style="stop-color:#2E2A2B"/>
			<stop  offset="0.764" style="stop-color:#252223"/>
			<stop  offset="1" style="stop-color:#231F20"/>
		</radialGradient>
		<path fill="url(#SVGID_11_)" d="M27.345,36.178c0.176,0.503,0.123,1.033-0.111,1.184c-0.232,0.154-0.563-0.131-0.733-0.63
			c-0.174-0.504-0.125-1.035,0.109-1.187C26.843,35.393,27.175,35.676,27.345,36.178z"/>
	</g>
	
		<radialGradient id="SVGID_12_" cx="-14.3242" cy="-359.1748" r="7.3461" gradientTransform="matrix(0.8336 0 0 0.8336 25.6247 323.6619)" gradientUnits="userSpaceOnUse">
		<stop  offset="0" style="stop-color:#FDE6D3"/>
		<stop  offset="0.2969" style="stop-color:#FDE4D0"/>
		<stop  offset="0.5318" style="stop-color:#FCDDC6"/>
		<stop  offset="0.7454" style="stop-color:#FCD2B5"/>
		<stop  offset="0.9452" style="stop-color:#FAC29E"/>
		<stop  offset="1" style="stop-color:#FABD96"/>
	</radialGradient>
	<path fill="url(#SVGID_12_)" d="M14.756,22.575c-0.018,0.04-0.031,0.078-0.047,0.117c0.163,2.871,1.968,6.544,1.968,6.544
		c0.911-1.977,3.07-3.52,3.07-3.52C18.403,23.977,14.756,22.575,14.756,22.575z"/>
	
		<radialGradient id="SVGID_13_" cx="11.3691" cy="-363.7817" r="6.2741" gradientTransform="matrix(0.8336 0 0 0.8336 25.6247 323.6619)" gradientUnits="userSpaceOnUse">
		<stop  offset="0" style="stop-color:#FDE6D3"/>
		<stop  offset="0.2969" style="stop-color:#FDE4D0"/>
		<stop  offset="0.5318" style="stop-color:#FCDDC6"/>
		<stop  offset="0.7454" style="stop-color:#FCD2B5"/>
		<stop  offset="0.9452" style="stop-color:#FAC29E"/>
		<stop  offset="1" style="stop-color:#FABD96"/>
	</radialGradient>
	<path fill="url(#SVGID_13_)" d="M30.397,22.098c0,0,2.356,0.149,3.992,1.094c-0.055-2.749-1.739-5.722-1.739-5.722
		S30.291,19.385,30.397,22.098z"/>
	<g>
		<path fill="#00AE62" d="M21.939,25.886c-0.792-0.879-0.804-2.167,1.23-3.241c0,0-0.477-2.083,2.245-1.971
			c2.951,0.122,4.077,5.477,4.077,5.477s-2.229-0.375-4.128,0.558C23.994,27.379,22.726,26.761,21.939,25.886z"/>
		<path fill="#67C08B" d="M23.151,22.526c0.008,0.074,0.019,0.119,0.019,0.119c-0.061,0.032-0.12,0.063-0.176,0.097
			c3.308,0.682,6.491,3.396,6.491,3.396C26.782,23.546,24.149,22.748,23.151,22.526z"/>
		<path fill="#67C08B" d="M26.056,23.789c0,0,0.55,1.472,1.169,2.266c0,0-0.942-1.695-0.927-2.187L26.056,23.789z"/>
		<path fill="#67C08B" d="M23.896,22.909c0,0-0.51,1.904,0.692,3.952c0,0-0.988-2.239-0.425-3.859L23.896,22.909z"/>
		<path fill="#67C08B" d="M24.738,23.057c0,0,1.615-1.373,2.891-1.006c0,0-1.211-0.136-2.745,1.099L24.738,23.057z"/>
	</g>
	<path fill="none" stroke="#231F20" stroke-width="0.5" stroke-linecap="round" stroke-linejoin="round" d="M29.681,33.671
		c0,0-0.66-7.237,1.886-5.955"/>
	<path fill="none" stroke="#231F20" stroke-width="0.5" stroke-linecap="round" stroke-linejoin="round" d="M28.243,34.388
		c0,0-2.007-6.985-3.916-4.866"/>
</g>
</svg>
