<?xml version="1.0" encoding="utf-8"?>
<!-- Generator: Adobe Illustrator 14.0.0, SVG Export Plug-In . SVG Version: 6.00 Build 43363)  -->
<!DOCTYPE svg PUBLIC "-//W3C//DTD SVG 1.1//EN" "http://www.w3.org/Graphics/SVG/1.1/DTD/svg11.dtd">
<svg version="1.1" id="图层_1" xmlns="http://www.w3.org/2000/svg" xmlns:xlink="http://www.w3.org/1999/xlink" x="0px" y="0px"
	 width="100px" height="100px" viewBox="0 0 100 100" enable-background="new 0 0 100 100" xml:space="preserve">
<g>
	<g>
		
			<radialGradient id="SVGID_1_" cx="91.8896" cy="-20.4937" r="11.81" gradientTransform="matrix(0.9127 -0.4291 -0.4254 -0.905 -18.1484 92.0586)" gradientUnits="userSpaceOnUse">
			<stop  offset="0.2135" style="stop-color:#FFD17F"/>
			<stop  offset="1" style="stop-color:#DF8000"/>
		</radialGradient>
		<path fill="url(#SVGID_1_)" d="M80.708,78.747c-0.797-0.099-1.448-0.707-1.951-1.442c-0.642,0.24-1.562,0.243-2.876-0.185
			c-5.112-1.657-4.162-12.451-10.224-13.745c-4.979-1.063-5.426,1.647-5.426,1.647s0.881,5.873,1.649,5.241
			c4.269-3.525,4.377-1.771,7.702,6.391c2.438,5.974,7.31,6.93,11.456,5.136C81.383,80.345,81.808,78.886,80.708,78.747z"/>
		<radialGradient id="SVGID_2_" cx="83.0098" cy="74.9414" r="5.7001" gradientUnits="userSpaceOnUse">
			<stop  offset="0" style="stop-color:#140300"/>
			<stop  offset="1" style="stop-color:#3F1C00"/>
		</radialGradient>
		<path fill="url(#SVGID_2_)" d="M82.627,68.182c-6.805,1.71-2.497,5.779-2.497,5.779s0.479,2.656-1.373,3.344
			c0.503,0.735,1.154,1.344,1.951,1.442c1.1,0.139,0.675,1.598,0.331,3.043c1.515-0.654,2.935-1.674,4.102-2.953
			C89.502,74.057,86.371,67.237,82.627,68.182z"/>
	</g>
	<g>
		<path fill="none" d="M56.265,93.717c0.028-0.348,0.084-0.654,0.188-0.924c-0.172-0.052-0.317,0.024-0.454,0.212
			C56.169,93.152,56.242,93.396,56.265,93.717z"/>
		<path fill="none" d="M39.797,93.098c0.08-0.149,0.217-0.269,0.424-0.34c-0.425-1.113-0.457-1.96-0.457-1.96
			s0.059,0.905-0.271,2.009C39.6,92.868,39.703,92.958,39.797,93.098z"/>
		
			<radialGradient id="SVGID_3_" cx="21.4473" cy="83.416" r="27.4367" gradientTransform="matrix(0.9973 -0.0734 0.0761 1.035 12.0257 6.0357)" gradientUnits="userSpaceOnUse">
			<stop  offset="0.2921" style="stop-color:#FFF5BD"/>
			<stop  offset="0.4157" style="stop-color:#FFAC56"/>
			<stop  offset="1" style="stop-color:#BE7B00"/>
		</radialGradient>
		<path fill="url(#SVGID_3_)" d="M61.191,59.9c-4.966-2.66-33.235,3.708-38.189,12.048C19.467,77.907,23,88.106,27.719,93.381
			c1.395,0.243,3.772,0.57,6.442,0.546c3.052-0.024,4.472-1.631,5.333-1.12c0.33-1.104,0.271-2.009,0.271-2.009
			s0.032,0.847,0.457,1.96c0.354-0.125,0.91-0.12,1.783,0.11c4.056,1.077,10.135,0.834,12.73,0.096
			c0.647-0.186,1.038-0.157,1.265,0.041c0.137-0.188,0.282-0.264,0.454-0.212c0.619-1.662,2.587-1.977,4.8-3
			c1.821-0.845,3.374-1.182,4.392-1.32c0.856-1.313,1.423-3.074,2.473-4.986C75.906,69.289,61.191,59.9,61.191,59.9z"/>
		<radialGradient id="SVGID_4_" cx="61.0488" cy="90.9219" r="3.682" gradientUnits="userSpaceOnUse">
			<stop  offset="0" style="stop-color:#140300"/>
			<stop  offset="1" style="stop-color:#3F1C00"/>
		</radialGradient>
		<path fill="url(#SVGID_4_)" d="M56.453,92.793c0.051,0.016,0.104,0.024,0.161,0.067c1.143,0.813,5.262,1.399,9.03-4.388
			c-1.018,0.139-2.57,0.476-4.392,1.32C59.04,90.816,57.072,91.131,56.453,92.793z"/>
		<radialGradient id="SVGID_5_" cx="48.1099" cy="95.3184" r="5.8831" gradientUnits="userSpaceOnUse">
			<stop  offset="0" style="stop-color:#140300"/>
			<stop  offset="1" style="stop-color:#3F1C00"/>
		</radialGradient>
		<path fill="url(#SVGID_5_)" d="M47.973,97.897c6.55,0.642,7.231-3.793,8.026-4.893c-0.227-0.198-0.617-0.227-1.265-0.041
			c-2.596,0.738-8.675,0.981-12.73-0.096c-0.874-0.23-1.43-0.235-1.783-0.11C40.96,94.681,42.893,97.396,47.973,97.897z"/>
		<path fill="#351FFF" d="M56.265,93.717c-0.01,0.186-0.012,0.39-0.002,0.604C56.275,94.099,56.279,93.895,56.265,93.717z"/>
		<radialGradient id="SVGID_6_" cx="33.606" cy="94.7305" r="4.4021" gradientUnits="userSpaceOnUse">
			<stop  offset="0" style="stop-color:#140300"/>
			<stop  offset="1" style="stop-color:#3F1C00"/>
		</radialGradient>
		<path fill="url(#SVGID_6_)" d="M33.575,96.753c3.994-0.124,5.414-2.266,5.918-3.946c-0.861-0.511-2.281,1.096-5.333,1.12
			c-2.669,0.024-5.047-0.303-6.442-0.546C29.607,95.492,31.685,96.816,33.575,96.753z"/>
	</g>
	<radialGradient id="SVGID_7_" cx="50.0342" cy="47.8291" r="45.3538" gradientUnits="userSpaceOnUse">
		<stop  offset="0" style="stop-color:#140300"/>
		<stop  offset="1" style="stop-color:#3F1C00"/>
	</radialGradient>
	<path fill="url(#SVGID_7_)" d="M8.617,59.476c-0.254,4.059,2.282,1.014,3.552,4.565c0.486,1.365,0.052,4.928,0.252,6.597
		c0.324,2.678,3.299,0.507,5.075,2.029c1.774,1.522-1.017,1.522,1.267,3.806c2.284,2.282,3.552-0.254,4.059,1.777
		c0.508,2.027-0.507,2.027,0.762,4.057c1.268,2.031,2.79,1.016,3.551,2.538c0.762,1.521-1.014,3.043,0,4.565
		c1.016,1.522,2.284-1.267,3.552-0.253c1.27,1.014-0.086,4.569,1.522,4.565c1.61-0.002,0.508-4.313,2.03-4.313
		c1.522,0,4.821-1.269,5.328-2.536c0.507-1.271-3.044-0.762-2.283-2.789c0.761-2.031,3.551-0.763,5.835,0.253
		c2.283,1.012,3.804-1.271,1.521-3.554c-2.282-2.282,0.508-3.296,2.792-2.789c2.283,0.507,3.552,2.282,5.326,0.255
		c1.778-2.031-2.027-4.313,0.763-6.092c2.789-1.773,4.82,2.792,7.358,1.778c2.534-1.016-2.791-6.344,1.014-6.851
		c3.804-0.509,6.849,3.552,8.624,2.029c1.778-1.522-6.595-6.09-3.043-8.372c3.552-2.283,5.328,1.775,10.146,2.538
		c4.821,0.76,9.389-5.076,4.569-9.641c-2.217-2.099-6.27-8.919-3.047-10.655c3.791-2.042,10.909,3.551,14.207,0.506
		c3.301-3.043,0.761-9.892-4.059-11.669c-4.82-1.776-6.253-5.027-5.327-7.865c0.799-2.445,7.476-5.868,7.356-7.864
		c-0.255-4.313-9.893-5.074-15.221-3.297c-5.327,1.776-9.135,2.536-10.403-1.015c-1.268-3.552,2.791-9.387-3.043-9.387
		c-5.835,0-8.371,8.625-14.968,7.104c-6.596-1.522-9.64-8.879-17.504-7.357c-7.865,1.522,3.552,13.953-5.328,11.669
		c-8.878-2.282-14.009,0.244-17.505,3.299c-3.496,3.055,1.522,4.82,4.313,5.073c2.791,0.254,4.566,6.85,0.761,8.626
		c-3.805,1.777-7.864,4.566-7.102,8.118c0.761,3.553,6.595-0.762,6.341,2.537c-0.252,3.299-5.073,4.819-3.805,6.849
		c1.269,2.029,4.059-0.254,5.581,3.299C14.96,55.163,8.871,55.415,8.617,59.476z"/>
	
		<radialGradient id="SVGID_8_" cx="23.8906" cy="78.0361" r="5.6821" gradientTransform="matrix(1.533 0 0 1.1284 -10.5307 -16.9566)" gradientUnits="userSpaceOnUse">
		<stop  offset="0.1011" style="stop-color:#DF9000"/>
		<stop  offset="0.8764" style="stop-color:#E9FF9F"/>
	</radialGradient>
	<path fill="url(#SVGID_8_)" d="M20.914,71.511c0,0,0.843,2.886,6.023,2.886c5.181,0,6.721-3.813,6.721-3.813
		S22.733,67.797,20.914,71.511z"/>
	
		<radialGradient id="SVGID_9_" cx="70.3359" cy="-5.3086" r="20.7352" gradientTransform="matrix(0.9764 0.216 -0.2254 1.0191 -33.3022 58.7027)" gradientUnits="userSpaceOnUse">
		<stop  offset="0.2865" style="stop-color:#909090"/>
		<stop  offset="0.7472" style="stop-color:#D6D6D6"/>
	</radialGradient>
	<path fill="url(#SVGID_9_)" d="M32.936,72.689c0,0,2.85-0.124,5.071-0.135c2.219-0.01,3.095-0.32,2.092,1.47
		c-0.999,1.79-0.184,12.384-2.997,11.824C34.29,85.293,31.412,74.112,32.936,72.689z"/>
	
		<radialGradient id="SVGID_10_" cx="125.0537" cy="-0.2295" r="22.9713" gradientTransform="matrix(0.8125 0.1797 -0.2211 0.9994 -80.3393 42.2139)" gradientUnits="userSpaceOnUse">
		<stop  offset="0.2865" style="stop-color:#909090"/>
		<stop  offset="0.7472" style="stop-color:#D6D6D6"/>
	</radialGradient>
	<path fill="url(#SVGID_10_)" d="M17.694,68.898c0,0,2.395-0.21,4.259-0.288c1.863-0.079,2.607-0.41,1.711,1.365
		c-0.895,1.774,0.451,13.688-1.892,13.232C19.429,82.753,16.37,70.336,17.694,68.898z"/>
	<g>
		
			<radialGradient id="SVGID_11_" cx="162.5713" cy="172.8398" r="8.6728" gradientTransform="matrix(0.6481 -0.1934 0.2193 0.7352 -114.4012 -64.7942)" gradientUnits="userSpaceOnUse">
			<stop  offset="0" style="stop-color:#E9FF9F"/>
			<stop  offset="0.1021" style="stop-color:#E7ED86"/>
			<stop  offset="0.3152" style="stop-color:#E4CC56"/>
			<stop  offset="0.5181" style="stop-color:#E2B231"/>
			<stop  offset="0.7055" style="stop-color:#E09F16"/>
			<stop  offset="0.8719" style="stop-color:#DF9406"/>
			<stop  offset="1" style="stop-color:#DF9000"/>
		</radialGradient>
		<path fill="url(#SVGID_11_)" d="M34.421,30.88c0,0,0.572-9.626-7.544-6.262c-8.118,3.363-2.005,10.953-1.19,13.008
			C26.504,39.684,35.001,35.54,34.421,30.88z"/>
		<path fill="#FEF4AF" d="M33.357,32.578c0,0,0.003-7.179-5.171-5.044c-5.174,2.136-0.933,8.292-0.325,9.889
			C28.47,39.021,33.901,36.156,33.357,32.578z"/>
	</g>
	<g>
		
			<radialGradient id="SVGID_12_" cx="-1185.7729" cy="-313.4951" r="8.6735" gradientTransform="matrix(-0.6134 -0.3229 -0.3574 0.6789 -781.4584 -138.3274)" gradientUnits="userSpaceOnUse">
			<stop  offset="0" style="stop-color:#E9FF9F"/>
			<stop  offset="0.1021" style="stop-color:#E7ED86"/>
			<stop  offset="0.3152" style="stop-color:#E4CC56"/>
			<stop  offset="0.5181" style="stop-color:#E2B231"/>
			<stop  offset="0.7055" style="stop-color:#E09F16"/>
			<stop  offset="0.8719" style="stop-color:#DF9406"/>
			<stop  offset="1" style="stop-color:#DF9000"/>
		</radialGradient>
		<path fill="url(#SVGID_12_)" d="M52.359,30.633c0,0,1.23-9.592,8.734-4.621c7.506,4.971-0.039,11.192-1.242,13.049
			C58.647,40.92,50.908,35.103,52.359,30.633z"/>
		<path fill="#FEF4AF" d="M53.109,32.524c0,0,1.341-7.068,6.129-3.908c4.784,3.161-0.619,8.352-1.526,9.801
			C56.802,39.865,51.896,35.935,53.109,32.524z"/>
	</g>
	<radialGradient id="SVGID_13_" cx="28.1284" cy="64.4844" r="48.3057" gradientUnits="userSpaceOnUse">
		<stop  offset="0.2921" style="stop-color:#FFF5BD"/>
		<stop  offset="0.427" style="stop-color:#FFC76E"/>
		<stop  offset="1" style="stop-color:#B27800"/>
	</radialGradient>
	<path fill="url(#SVGID_13_)" d="M38.172,30.936c0,0-6.472-0.549-12.685,4.565c-9.714,7.999-4.681,9.099-6.142,14.214
		c-1.461,5.116-3.968,6.548-4.84,11.238c-0.732,3.926-0.276,5.755,2.647,9.319c2.924,3.562,7.216,0.184,8.77,0.271
		c1.554,0.092,12.367,8.465,23.412,2.25c8.771-4.932,19.028-19.279,13.191-31.458C57.029,29.863,43.835,30.021,38.172,30.936z"/>
	<g>
		
			<linearGradient id="SVGID_14_" gradientUnits="userSpaceOnUse" x1="20.6646" y1="57.6592" x2="20.6646" y2="69.7144" gradientTransform="matrix(0.897 0.0193 -0.0916 0.9855 14.0374 1.7641)">
			<stop  offset="0" style="stop-color:#BF3D00"/>
			<stop  offset="0.1444" style="stop-color:#9A2F00"/>
			<stop  offset="0.3006" style="stop-color:#792300"/>
			<stop  offset="0.462" style="stop-color:#601900"/>
			<stop  offset="0.6285" style="stop-color:#4D1200"/>
			<stop  offset="0.8033" style="stop-color:#430E00"/>
			<stop  offset="1" style="stop-color:#3F0D00"/>
		</linearGradient>
		<path fill="url(#SVGID_14_)" d="M19.205,63.167c-0.455,3.243,5.327,6.392,6.839,6.614c1.511,0.229,8.229-2.587,8.437-5.268
			c0.205-2.676-2.757-4.21-6.975-4.582C23.29,59.56,19.52,60.919,19.205,63.167z"/>
		
			<linearGradient id="SVGID_15_" gradientUnits="userSpaceOnUse" x1="59.6572" y1="55.3037" x2="59.6572" y2="61.4966" gradientTransform="matrix(-0.9154 -0.089 -0.1392 0.985 89.6012 10.4323)">
			<stop  offset="0" style="stop-color:#E68377"/>
			<stop  offset="0.176" style="stop-color:#E37F73"/>
			<stop  offset="0.3614" style="stop-color:#D97566"/>
			<stop  offset="0.551" style="stop-color:#C86351"/>
			<stop  offset="0.7437" style="stop-color:#B14B34"/>
			<stop  offset="0.9369" style="stop-color:#932C0E"/>
			<stop  offset="1" style="stop-color:#882000"/>
		</linearGradient>
		<path fill="url(#SVGID_15_)" d="M20.209,63.099c-0.261,1.836,12.742,3.101,13,1.264c0.259-1.838-2.44-3.615-6.03-3.963
			C23.589,60.054,20.469,61.26,20.209,63.099z"/>
	</g>
	<g>
		<g>
			<path fill="#FFFFFF" d="M26.042,39.139c4.959,0,8.996,4.04,8.996,8.998c0,4.964-4.037,8.999-8.996,8.999
				c-4.964,0-9-4.035-9-8.999C17.042,43.178,21.078,39.139,26.042,39.139z"/>
			
				<linearGradient id="SVGID_16_" gradientUnits="userSpaceOnUse" x1="21.5815" y1="48.1367" x2="41.1782" y2="48.1367" gradientTransform="matrix(-1 0 0 1 57.4189 0)">
				<stop  offset="0" style="stop-color:#272C34"/>
				<stop  offset="1" style="stop-color:#292933"/>
			</linearGradient>
			<path fill="url(#SVGID_16_)" d="M16.241,48.137c0,5.402,4.396,9.798,9.801,9.798c5.402,0,9.795-4.396,9.795-9.798
				c0-5.403-4.394-9.798-9.795-9.798C20.636,38.339,16.241,42.733,16.241,48.137z M17.042,48.137c0-4.958,4.035-8.998,9-8.998
				c4.959,0,8.996,4.04,8.996,8.998c0,4.964-4.037,8.999-8.996,8.999C21.078,57.136,17.042,53.101,17.042,48.137z"/>
		</g>
		
			<radialGradient id="SVGID_17_" cx="31.3789" cy="48.1367" r="9.1475" gradientTransform="matrix(-1 0 0 1 57.4189 0)" gradientUnits="userSpaceOnUse">
			<stop  offset="0" style="stop-color:#FFFFFF"/>
			<stop  offset="1" style="stop-color:#E5E5E5"/>
		</radialGradient>
		<path fill="url(#SVGID_17_)" d="M16.892,48.137c0,5.055,4.095,9.146,9.15,9.146c5.05,0,9.146-4.092,9.146-9.146
			c0-5.054-4.096-9.147-9.146-9.147C20.987,38.99,16.892,43.083,16.892,48.137z"/>
		
			<linearGradient id="SVGID_18_" gradientUnits="userSpaceOnUse" x1="24.4365" y1="48.1367" x2="38.3223" y2="48.1367" gradientTransform="matrix(-1 0 0 1 57.4189 0)">
			<stop  offset="0" style="stop-color:#F3AF18"/>
			<stop  offset="1" style="stop-color:#DF8000"/>
		</linearGradient>
		<circle fill="url(#SVGID_18_)" cx="26.04" cy="48.137" r="6.943"/>
		
			<radialGradient id="SVGID_19_" cx="31.3789" cy="48.1377" r="4.9949" gradientTransform="matrix(-1 0 0 1 57.4189 0)" gradientUnits="userSpaceOnUse">
			<stop  offset="0" style="stop-color:#1F1600"/>
			<stop  offset="1" style="stop-color:#000000"/>
		</radialGradient>
		<circle fill="url(#SVGID_19_)" cx="26.04" cy="48.137" r="4.995"/>
		
			<radialGradient id="SVGID_20_" cx="291.5137" cy="308.7539" r="2.6587" gradientTransform="matrix(-0.6642 -0.4101 -0.5253 0.8509 379.3198 -97.4959)" gradientUnits="userSpaceOnUse">
			<stop  offset="0" style="stop-color:#FFFFFF"/>
			<stop  offset="1" style="stop-color:#E5E5E5"/>
		</radialGradient>
		<path fill="url(#SVGID_20_)" d="M21.744,44.582c-0.774,1.248-0.608,2.748,0.368,3.354c0.977,0.602,2.392,0.075,3.164-1.172
			c0.772-1.254,0.605-2.751-0.369-3.353C23.93,42.805,22.515,43.332,21.744,44.582z"/>
		
			<radialGradient id="SVGID_21_" cx="-187.6748" cy="-122.8027" r="1.3965" gradientTransform="matrix(-0.6444 0.4405 0.5644 0.8255 -22.0567 235.8591)" gradientUnits="userSpaceOnUse">
			<stop  offset="0" style="stop-color:#FFFFFF"/>
			<stop  offset="1" style="stop-color:#E5E5E5"/>
		</radialGradient>
		<path fill="url(#SVGID_21_)" d="M28.67,52.43c0.437,0.642,1.192,0.88,1.688,0.536c0.499-0.337,0.55-1.129,0.114-1.766
			c-0.436-0.639-1.191-0.88-1.688-0.538C28.286,51,28.237,51.792,28.67,52.43z"/>
		
			<radialGradient id="SVGID_22_" cx="-118.9805" cy="-298.7891" r="1.3989" gradientTransform="matrix(-0.478 0.3268 0.4186 0.6124 95.2145 274.4133)" gradientUnits="userSpaceOnUse">
			<stop  offset="0" style="stop-color:#FFFFFF"/>
			<stop  offset="1" style="stop-color:#E5E5E5"/>
		</radialGradient>
		<path fill="url(#SVGID_22_)" d="M26.345,53.008c0.324,0.474,0.884,0.652,1.256,0.4c0.367-0.254,0.404-0.842,0.081-1.314
			c-0.324-0.472-0.884-0.651-1.252-0.399C26.061,51.945,26.022,52.532,26.345,53.008z"/>
	</g>
	<g>
		<g>
			<path fill="#FFFFFF" d="M49.062,35.718c6.44,0,11.683,5.249,11.683,11.685c0,6.446-5.242,11.688-11.683,11.688
				c-6.445,0-11.686-5.241-11.686-11.688C37.376,40.967,42.616,35.718,49.062,35.718z"/>
			
				<linearGradient id="SVGID_23_" gradientUnits="userSpaceOnUse" x1="-4.3633" y1="47.4038" x2="21.083" y2="47.4038" gradientTransform="matrix(-1 0 0 1 57.4189 0)">
				<stop  offset="0" style="stop-color:#272C34"/>
				<stop  offset="1" style="stop-color:#292933"/>
			</linearGradient>
			<path fill="url(#SVGID_23_)" d="M36.336,47.402c0,7.017,5.706,12.724,12.726,12.724c7.013,0,12.721-5.707,12.721-12.724
				c0-7.013-5.708-12.721-12.721-12.721C42.042,34.682,36.336,40.39,36.336,47.402z M37.376,47.402
				c0-6.436,5.24-11.685,11.686-11.685c6.44,0,11.683,5.249,11.683,11.685c0,6.446-5.242,11.688-11.683,11.688
				C42.616,59.09,37.376,53.849,37.376,47.402z"/>
		</g>
		
			<radialGradient id="SVGID_24_" cx="8.3589" cy="47.4033" r="11.8782" gradientTransform="matrix(-1 0 0 1 57.4189 0)" gradientUnits="userSpaceOnUse">
			<stop  offset="0" style="stop-color:#FFFFFF"/>
			<stop  offset="1" style="stop-color:#E5E5E5"/>
		</radialGradient>
		<path fill="url(#SVGID_24_)" d="M37.18,47.402c0,6.564,5.319,11.877,11.882,11.877c6.56,0,11.879-5.313,11.879-11.877
			c0-6.561-5.319-11.875-11.879-11.875C42.499,35.528,37.18,40.841,37.18,47.402z"/>
		
			<linearGradient id="SVGID_25_" gradientUnits="userSpaceOnUse" x1="-0.6582" y1="47.4053" x2="17.376" y2="47.4053" gradientTransform="matrix(-1 0 0 1 57.4189 0)">
			<stop  offset="0" style="stop-color:#F3AF18"/>
			<stop  offset="1" style="stop-color:#DF8000"/>
		</linearGradient>
		<path fill="url(#SVGID_25_)" d="M40.043,47.402c0,4.983,4.039,9.019,9.019,9.019c4.978,0,9.016-4.035,9.016-9.019
			c0-4.974-4.038-9.012-9.016-9.012C44.082,38.39,40.043,42.428,40.043,47.402z"/>
		
			<radialGradient id="SVGID_26_" cx="8.3584" cy="47.4053" r="6.4868" gradientTransform="matrix(-1 0 0 1 57.4189 0)" gradientUnits="userSpaceOnUse">
			<stop  offset="0" style="stop-color:#1F1600"/>
			<stop  offset="1" style="stop-color:#000000"/>
		</radialGradient>
		<path fill="url(#SVGID_26_)" d="M42.573,47.402c0,3.586,2.905,6.489,6.488,6.489c3.58,0,6.486-2.903,6.486-6.489
			c0-3.58-2.906-6.483-6.486-6.483C45.478,40.919,42.573,43.823,42.573,47.402z"/>
		
			<radialGradient id="SVGID_27_" cx="268.2305" cy="295.8086" r="3.4536" gradientTransform="matrix(-0.6642 -0.4101 -0.5253 0.8509 379.3198 -97.4959)" gradientUnits="userSpaceOnUse">
			<stop  offset="0" style="stop-color:#FFFFFF"/>
			<stop  offset="1" style="stop-color:#E5E5E5"/>
		</radialGradient>
		<path fill="url(#SVGID_27_)" d="M43.481,42.787c-1.005,1.621-0.789,3.573,0.477,4.357c1.269,0.782,3.105,0.095,4.109-1.521
			c1.002-1.627,0.786-3.574-0.48-4.354C46.32,40.482,44.482,41.165,43.481,42.787z"/>
		
			<radialGradient id="SVGID_28_" cx="-212.8691" cy="-108.915" r="1.8137" gradientTransform="matrix(-0.6444 0.4405 0.5644 0.8255 -22.0567 235.8591)" gradientUnits="userSpaceOnUse">
			<stop  offset="0" style="stop-color:#FFFFFF"/>
			<stop  offset="1" style="stop-color:#E5E5E5"/>
		</radialGradient>
		<path fill="url(#SVGID_28_)" d="M52.476,52.981c0.568,0.828,1.547,1.138,2.193,0.693c0.647-0.438,0.711-1.465,0.146-2.293
			c-0.565-0.829-1.547-1.142-2.192-0.698C51.975,51.123,51.912,52.152,52.476,52.981z"/>
		
			<radialGradient id="SVGID_29_" cx="-151.6445" cy="-280.4023" r="1.8159" gradientTransform="matrix(-0.478 0.3268 0.4186 0.6124 95.2145 274.4133)" gradientUnits="userSpaceOnUse">
			<stop  offset="0" style="stop-color:#FFFFFF"/>
			<stop  offset="1" style="stop-color:#E5E5E5"/>
		</radialGradient>
		<path fill="url(#SVGID_29_)" d="M49.455,53.729c0.42,0.617,1.149,0.847,1.631,0.521c0.477-0.331,0.523-1.09,0.106-1.704
			c-0.423-0.615-1.148-0.849-1.627-0.521C49.088,52.351,49.037,53.114,49.455,53.729z"/>
	</g>
</g>
</svg>
