<?xml version="1.0" encoding="utf-8"?>
<!-- Generator: Adobe Illustrator 14.0.0, SVG Export Plug-In . SVG Version: 6.00 Build 43363)  -->
<!DOCTYPE svg PUBLIC "-//W3C//DTD SVG 1.1//EN" "http://www.w3.org/Graphics/SVG/1.1/DTD/svg11.dtd">
<svg version="1.1" id="图层_1" xmlns="http://www.w3.org/2000/svg" xmlns:xlink="http://www.w3.org/1999/xlink" x="0px" y="0px"
	 width="100px" height="100px" viewBox="0 0 100 100" enable-background="new 0 0 100 100" xml:space="preserve">
<g>
	<g>
		
			<radialGradient id="SVGID_1_" cx="-1206.4702" cy="-342.8867" r="12.1376" gradientTransform="matrix(-0.6134 -0.3229 -0.3574 0.6789 -781.4584 -138.3274)" gradientUnits="userSpaceOnUse">
			<stop  offset="0.2135" style="stop-color:#3F3200"/>
			<stop  offset="1" style="stop-color:#5F4400"/>
		</radialGradient>
		<path fill="url(#SVGID_1_)" d="M72.882,17.105c0,0,3.222-13.208,13.42-6.452c10.199,6.755-1.608,15.38-3.241,17.904
			C81.423,31.083,70.908,23.178,72.882,17.105z"/>
		<path fill="#271700" d="M73.897,19.673c0,0,1.822-9.604,8.327-5.31c6.5,4.294-0.842,11.35-2.074,13.317
			C78.914,29.65,72.248,24.307,73.897,19.673z"/>
	</g>
	<g>
		
			<radialGradient id="SVGID_2_" cx="13.0566" cy="373.1836" r="12.1747" gradientTransform="matrix(0.7161 -0.4931 0.4351 0.6319 -150.1143 -211.4421)" gradientUnits="userSpaceOnUse">
			<stop  offset="0.2135" style="stop-color:#3F3200"/>
			<stop  offset="1" style="stop-color:#5F4400"/>
		</radialGradient>
		<path fill="url(#SVGID_2_)" d="M31.926,16.33c0,0-6.573-15.238-16.732-5.975c-9.367,8.54,1.954,16.992,3.93,19.266
			C21.104,31.896,34.378,22.284,31.926,16.33z"/>
		<path fill="#271700" d="M29.737,17.948c0,0-2.344-9.732-9.919-3.583c-7.574,6.151,1.223,11.827,2.717,13.612
			C24.03,29.76,31.776,22.459,29.737,17.948z"/>
	</g>
	<g>
		
			<radialGradient id="SVGID_3_" cx="82.8145" cy="83.4697" r="7.1047" gradientTransform="matrix(1 0 0 1.1273 0 -4.5265)" gradientUnits="userSpaceOnUse">
			<stop  offset="0" style="stop-color:#140300"/>
			<stop  offset="1" style="stop-color:#3F1C00"/>
		</radialGradient>
		<path fill="url(#SVGID_3_)" d="M73.26,87.773c2.754,2.881,6.003,5.508,10.475,5.291c3.077-0.146,6.075-2.382,8.634-5.998
			C84.839,85.165,78.041,86.281,73.26,87.773z"/>
		
			<radialGradient id="SVGID_4_" cx="17.3262" cy="83.1553" r="7.6576" gradientTransform="matrix(1 0 0 1.1273 0 -4.5265)" gradientUnits="userSpaceOnUse">
			<stop  offset="0" style="stop-color:#140300"/>
			<stop  offset="1" style="stop-color:#3F1C00"/>
		</radialGradient>
		<path fill="url(#SVGID_4_)" d="M6.951,87.543c3.292,3.555,7.222,5.338,11.165,5.156c4.459-0.2,7.315-2.793,9.585-5.633
			C19.465,84.647,11.999,85.904,6.951,87.543z"/>
		
			<radialGradient id="SVGID_5_" cx="51.7754" cy="74.3486" r="66.9985" gradientTransform="matrix(1 0 0 1.1273 0 -4.5265)" gradientUnits="userSpaceOnUse">
			<stop  offset="0" style="stop-color:#1F0F00"/>
			<stop  offset="1" style="stop-color:#5F3D00"/>
		</radialGradient>
		<path fill="url(#SVGID_5_)" d="M93.996,55.886c-10.17-21.55-22.372-42.978-43.111-42.772c-20.742,0.205-34.57,22.6-44.332,41.398
			C0.262,66.63,1.765,81.938,6.951,87.543c5.048-1.639,12.514-2.896,20.75-0.477c2.898-3.63,6.507-13.299,22.369-12.378
			c15.862,0.913,19.973,9.717,23.189,13.085c4.781-1.492,11.579-2.608,19.108-0.707C97.865,79.291,99.822,68.239,93.996,55.886z"/>
	</g>
	<g>
		
			<radialGradient id="SVGID_6_" cx="18.6523" cy="2.7627" r="6.073" gradientTransform="matrix(-0.7387 -0.6741 -0.5166 0.5662 53.6809 85.9892)" gradientUnits="userSpaceOnUse">
			<stop  offset="0.2135" style="stop-color:#FF1F1F"/>
			<stop  offset="1" style="stop-color:#DF0000"/>
		</radialGradient>
		<path fill="url(#SVGID_6_)" d="M43.792,77.408c0,0-2.581,5.24-6.819,2.641c-4.235-2.597-1.594-10.317-1.594-10.317
			S44.211,68.505,43.792,77.408z"/>
		<path fill="#B10D00" d="M41.716,70.027c0,0-1.946,8.772-3.658,7.636c-1.713-1.146,2.549-8.229,2.549-8.229L41.716,70.027z"/>
	</g>
	
		<radialGradient id="SVGID_7_" cx="-535.8926" cy="119.5498" r="26.8488" gradientTransform="matrix(-1 0 0 -0.8013 -486.3389 157.6871)" gradientUnits="userSpaceOnUse">
		<stop  offset="0" style="stop-color:#4A2E00"/>
		<stop  offset="1" style="stop-color:#7F5700"/>
	</radialGradient>
	<path fill="url(#SVGID_7_)" d="M52.737,77.459c26.027-0.651,36.415-37.25,31.54-47.391C79.402,19.929,72.506,11.99,51.484,11.99
		c-21.021,0-21.252,5.703-30.691,16.396C11.356,39.079,26.708,78.112,52.737,77.459z"/>
	<g>
		
			<linearGradient id="SVGID_8_" gradientUnits="userSpaceOnUse" x1="-55.96" y1="103.374" x2="-55.96" y2="91.8907" gradientTransform="matrix(-0.8274 -0.004 -0.1032 0.984 16.2533 -29.5039)">
			<stop  offset="0" style="stop-color:#000000"/>
			<stop  offset="0.2069" style="stop-color:#040404"/>
			<stop  offset="0.3965" style="stop-color:#0E0F0F"/>
			<stop  offset="0.5795" style="stop-color:#212121"/>
			<stop  offset="0.7583" style="stop-color:#3A3B3C"/>
			<stop  offset="0.9325" style="stop-color:#5B5C5D"/>
			<stop  offset="1" style="stop-color:#6A6B6C"/>
		</linearGradient>
		<path fill="url(#SVGID_8_)" d="M42.343,67.242c-0.405,3.104,3.776,5.632,9.346,5.655c5.57,0.019,10.415-2.477,10.823-5.578
			c0.403-3.101-3.781-5.631-9.352-5.654C47.591,61.647,42.748,64.138,42.343,67.242z"/>
		
			<linearGradient id="SVGID_9_" gradientUnits="userSpaceOnUse" x1="-55.9946" y1="92.1514" x2="-55.9946" y2="99.1982" gradientTransform="matrix(-0.8274 -0.004 -0.1032 0.984 16.2533 -29.5039)">
			<stop  offset="0" style="stop-color:#8C8C8C"/>
			<stop  offset="0.1961" style="stop-color:#7A7A7A"/>
			<stop  offset="0.5908" style="stop-color:#4A4A4A"/>
			<stop  offset="1" style="stop-color:#131313"/>
		</linearGradient>
		<path fill="url(#SVGID_9_)" d="M44.239,66.063c-0.275,2.088,16.413,2.155,16.685,0.063c0.275-2.087-3.241-3.795-7.85-3.815
			C48.467,62.294,44.512,63.975,44.239,66.063z"/>
	</g>
	<g>
		<g>
			<path fill="#FFFFFF" d="M66.202,19.141c7.516,0,13.636,6.129,13.636,13.642c0,7.526-6.12,13.648-13.636,13.648
				c-7.526,0-13.647-6.122-13.647-13.648C52.555,25.27,58.676,19.141,66.202,19.141z"/>
			
				<linearGradient id="SVGID_10_" gradientUnits="userSpaceOnUse" x1="-23.6318" y1="32.7861" x2="6.0771" y2="32.7861" gradientTransform="matrix(-1 0 0 1 57.4189 0)">
				<stop  offset="0" style="stop-color:#272C34"/>
				<stop  offset="1" style="stop-color:#292933"/>
			</linearGradient>
			<path fill="url(#SVGID_10_)" d="M51.342,32.783c0,8.193,6.661,14.858,14.86,14.858c8.188,0,14.849-6.665,14.849-14.858
				c0-8.188-6.661-14.852-14.849-14.852C58.003,17.932,51.342,24.596,51.342,32.783z M52.555,32.783
				c0-7.513,6.121-13.642,13.647-13.642c7.516,0,13.636,6.129,13.636,13.642c0,7.526-6.12,13.648-13.636,13.648
				C58.676,46.432,52.555,40.31,52.555,32.783z"/>
		</g>
		
			<radialGradient id="SVGID_11_" cx="-8.7798" cy="32.7866" r="13.8696" gradientTransform="matrix(-1 0 0 1 57.4189 0)" gradientUnits="userSpaceOnUse">
			<stop  offset="0" style="stop-color:#FFFFFF"/>
			<stop  offset="1" style="stop-color:#E5E5E5"/>
		</radialGradient>
		<path fill="url(#SVGID_11_)" d="M52.327,32.783c0,7.667,6.209,13.871,13.875,13.871c7.655,0,13.868-6.205,13.868-13.871
			c0-7.661-6.213-13.864-13.868-13.864C58.536,18.919,52.327,25.122,52.327,32.783z"/>
		
			<linearGradient id="SVGID_12_" gradientUnits="userSpaceOnUse" x1="-19.3037" y1="32.7871" x2="1.748" y2="32.7871" gradientTransform="matrix(-1 0 0 1 57.4189 0)">
			<stop  offset="0" style="stop-color:#F3AF18"/>
			<stop  offset="1" style="stop-color:#CAA21B"/>
		</linearGradient>
		<path fill="url(#SVGID_12_)" d="M55.671,32.783c0,5.819,4.716,10.527,10.531,10.527c5.811,0,10.521-4.708,10.521-10.527
			c0-5.808-4.71-10.52-10.521-10.52C60.387,22.263,55.671,26.975,55.671,32.783z"/>
		
			<radialGradient id="SVGID_13_" cx="-8.7783" cy="32.7881" r="7.5737" gradientTransform="matrix(-1 0 0 1 57.4189 0)" gradientUnits="userSpaceOnUse">
			<stop  offset="0" style="stop-color:#1F1600"/>
			<stop  offset="1" style="stop-color:#000000"/>
		</radialGradient>
		<path fill="url(#SVGID_13_)" d="M58.624,32.783c0,4.186,3.391,7.579,7.578,7.579c4.179,0,7.568-3.393,7.568-7.579
			c0-4.182-3.39-7.569-7.568-7.569C62.015,25.214,58.624,28.602,58.624,32.783z"/>
		
			<radialGradient id="SVGID_14_" cx="-241.7988" cy="-110.2178" r="2.1174" gradientTransform="matrix(-0.6444 0.4405 0.5644 0.8255 -22.0567 235.8591)" gradientUnits="userSpaceOnUse">
			<stop  offset="0" style="stop-color:#FFFFFF"/>
			<stop  offset="1" style="stop-color:#E5E5E5"/>
		</radialGradient>
		<path fill="url(#SVGID_14_)" d="M70.188,39.297c0.661,0.968,1.809,1.329,2.557,0.811c0.756-0.514,0.833-1.71,0.175-2.678
			c-0.661-0.968-1.809-1.337-2.561-0.816C69.603,37.126,69.529,38.331,70.188,39.297z"/>
		
			<radialGradient id="SVGID_15_" cx="-189.6943" cy="-282.3989" r="2.1194" gradientTransform="matrix(-0.478 0.3268 0.4186 0.6124 95.2145 274.4133)" gradientUnits="userSpaceOnUse">
			<stop  offset="0" style="stop-color:#FFFFFF"/>
			<stop  offset="1" style="stop-color:#E5E5E5"/>
		</radialGradient>
		<path fill="url(#SVGID_15_)" d="M66.661,40.169c0.489,0.72,1.339,0.991,1.903,0.608c0.557-0.384,0.611-1.273,0.125-1.99
			c-0.495-0.717-1.343-0.991-1.899-0.607C66.232,38.56,66.171,39.453,66.661,40.169z"/>
	</g>
	<g>
		<g>
			<path fill="#FFFFFF" d="M36.219,20.961c6.728,0,12.209,5.484,12.209,12.213c0,6.734-5.482,12.214-12.209,12.214
				c-6.736,0-12.213-5.48-12.213-12.214C24.006,26.446,29.483,20.961,36.219,20.961z"/>
			
				<linearGradient id="SVGID_16_" gradientUnits="userSpaceOnUse" x1="7.9077" y1="33.1758" x2="34.5005" y2="33.1758" gradientTransform="matrix(-1 0 0 1 57.4189 0)">
				<stop  offset="0" style="stop-color:#272C34"/>
				<stop  offset="1" style="stop-color:#292933"/>
			</linearGradient>
			<path fill="url(#SVGID_16_)" d="M22.918,33.174c0,7.332,5.962,13.299,13.301,13.299c7.33,0,13.292-5.968,13.292-13.299
				c0-7.331-5.962-13.297-13.292-13.297C28.88,19.877,22.918,25.844,22.918,33.174z M24.006,33.174
				c0-6.729,5.477-12.213,12.213-12.213c6.728,0,12.209,5.484,12.209,12.213c0,6.734-5.482,12.214-12.209,12.214
				C29.483,45.389,24.006,39.909,24.006,33.174z"/>
		</g>
		
			<radialGradient id="SVGID_17_" cx="21.2021" cy="33.1758" r="12.4153" gradientTransform="matrix(-1 0 0 1 57.4189 0)" gradientUnits="userSpaceOnUse">
			<stop  offset="0" style="stop-color:#FFFFFF"/>
			<stop  offset="1" style="stop-color:#E5E5E5"/>
		</radialGradient>
		<path fill="url(#SVGID_17_)" d="M23.8,33.174c0,6.86,5.559,12.416,12.419,12.416c6.853,0,12.414-5.556,12.414-12.416
			c0-6.858-5.561-12.413-12.414-12.413C29.359,20.762,23.8,26.316,23.8,33.174z"/>
		
			<linearGradient id="SVGID_18_" gradientUnits="userSpaceOnUse" x1="11.7793" y1="33.1753" x2="30.6255" y2="33.1753" gradientTransform="matrix(-1 0 0 1 57.4189 0)">
			<stop  offset="0" style="stop-color:#F3AF18"/>
			<stop  offset="1" style="stop-color:#CAA21B"/>
		</linearGradient>
		<path fill="url(#SVGID_18_)" d="M26.793,33.174c0,5.208,4.222,9.422,9.426,9.422c5.202,0,9.42-4.214,9.42-9.422
			c0-5.199-4.219-9.42-9.42-9.42C31.015,23.754,26.793,27.976,26.793,33.174z"/>
		
			<radialGradient id="SVGID_19_" cx="21.2036" cy="33.1772" r="6.7803" gradientTransform="matrix(-1 0 0 1 57.4189 0)" gradientUnits="userSpaceOnUse">
			<stop  offset="0" style="stop-color:#1F1600"/>
			<stop  offset="1" style="stop-color:#000000"/>
		</radialGradient>
		<path fill="url(#SVGID_19_)" d="M29.435,33.174c0,3.746,3.038,6.783,6.784,6.783c3.742,0,6.776-3.038,6.776-6.783
			c0-3.743-3.034-6.777-6.776-6.777C32.473,26.397,29.435,29.431,29.435,33.174z"/>
		
			<radialGradient id="SVGID_20_" cx="-209.6387" cy="-127.6157" r="1.895" gradientTransform="matrix(-0.6444 0.4405 0.5644 0.8255 -22.0567 235.8591)" gradientUnits="userSpaceOnUse">
			<stop  offset="0" style="stop-color:#FFFFFF"/>
			<stop  offset="1" style="stop-color:#E5E5E5"/>
		</radialGradient>
		<path fill="url(#SVGID_20_)" d="M39.787,39.003c0.589,0.869,1.617,1.191,2.29,0.725c0.676-0.457,0.745-1.529,0.154-2.396
			c-0.59-0.865-1.617-1.194-2.292-0.728C39.264,37.062,39.199,38.138,39.787,39.003z"/>
		
			<radialGradient id="SVGID_21_" cx="-147.0283" cy="-305.6782" r="1.8965" gradientTransform="matrix(-0.478 0.3268 0.4186 0.6124 95.2145 274.4133)" gradientUnits="userSpaceOnUse">
			<stop  offset="0" style="stop-color:#FFFFFF"/>
			<stop  offset="1" style="stop-color:#E5E5E5"/>
		</radialGradient>
		<path fill="url(#SVGID_21_)" d="M36.629,39.783c0.44,0.647,1.201,0.889,1.703,0.546c0.5-0.346,0.549-1.14,0.11-1.781
			c-0.439-0.643-1.201-0.885-1.698-0.545C36.246,38.343,36.191,39.144,36.629,39.783z"/>
	</g>
	<radialGradient id="SVGID_22_" cx="33.8677" cy="34.1064" r="23.3055" gradientUnits="userSpaceOnUse">
		<stop  offset="0" style="stop-color:#4A2E00"/>
		<stop  offset="1" style="stop-color:#7F5700"/>
	</radialGradient>
	<path fill="url(#SVGID_22_)" d="M36.202,19.292c-7.427,0-13.466,6.047-13.466,13.476c0,0.006,0,0.011,0,0.016h26.929
		c0-0.005,0-0.01,0-0.016C49.664,25.338,43.625,19.292,36.202,19.292z"/>
	<radialGradient id="SVGID_23_" cx="69.2725" cy="34.5542" r="26.8895" gradientUnits="userSpaceOnUse">
		<stop  offset="0" style="stop-color:#4A2E00"/>
		<stop  offset="1" style="stop-color:#7F5700"/>
	</radialGradient>
	<path fill="url(#SVGID_23_)" d="M66.125,17.858c-8.303,0-15.049,6.756-15.049,15.059c0,0.004,0,0.011,0,0.016h30.092
		c0-0.004,0-0.011,0-0.016C81.168,24.615,74.422,17.858,66.125,17.858z"/>
</g>
</svg>
