<?xml version="1.0" encoding="utf-8"?>
<!-- Generator: Adobe Illustrator 14.0.0, SVG Export Plug-In . SVG Version: 6.00 Build 43363)  -->
<!DOCTYPE svg PUBLIC "-//W3C//DTD SVG 1.1//EN" "http://www.w3.org/Graphics/SVG/1.1/DTD/svg11.dtd">
<svg version="1.1" id="图层_1" xmlns="http://www.w3.org/2000/svg" xmlns:xlink="http://www.w3.org/1999/xlink" x="0px" y="0px"
	 width="100px" height="100px" viewBox="0 0 100 100" enable-background="new 0 0 100 100" xml:space="preserve">
<g>
	<g>
		
			<radialGradient id="SVGID_1_" cx="120.5713" cy="106.8105" r="28.3246" gradientTransform="matrix(0.9602 0 0 1.2251 -23.2173 -60.3309)" gradientUnits="userSpaceOnUse">
			<stop  offset="0.0169" style="stop-color:#8EBF00"/>
			<stop  offset="1" style="stop-color:#325F00"/>
		</radialGradient>
		<path fill="url(#SVGID_1_)" d="M95.48,76.361c1.414-1.177,2.111-2.462,1.652-3.748c-0.697-1.962-2.236-2.247-4.454-1.962
			c-1.006,0.13-1.886-0.83-3.154-0.57c-0.979,0.198-1.781,1.361-2.951,1.757c-0.699,0.235-2.15-1.06-2.95-1.005
			c-1.264,0.086-1.921,1.422-3.162,1.362c-1.008-0.049-1.342-1.445-2.286-1.613c-0.795-0.143-2.212,0.959-2.955,0.75
			c-0.938-0.261-1.653-1.173-2.493-1.502c-0.867-0.342-1.861-0.107-2.608-0.479c-0.81-0.408-1.057-1.893-1.706-2.283
			c-1.993-1.201-3.645-1.128-3.645-1.128l-0.166,6.71c2.785,1.871,8.616,5.152,15.651,5.475
			C86.886,78.431,92.184,76.257,95.48,76.361z"/>
		<path fill="#8DBF3F" d="M77.845,81.373c5.646,0.298,14.004-1.991,17.636-5.012c-3.297-0.104-8.595,2.069-15.228,1.763
			c-7.035-0.322-12.866-3.604-15.651-5.475l-0.161,6.638C64.44,79.287,69.999,80.954,77.845,81.373z"/>
	</g>
	
		<radialGradient id="SVGID_2_" cx="17.4517" cy="38.9946" r="14.455" gradientTransform="matrix(1 0 0 1.1058 0 -1.2818)" gradientUnits="userSpaceOnUse">
		<stop  offset="0.2865" style="stop-color:#909090"/>
		<stop  offset="0.7472" style="stop-color:#D6D6D6"/>
	</radialGradient>
	<path fill="url(#SVGID_2_)" d="M15.058,45.789c0,0,2.618-0.741,4.676-1.232c2.055-0.496,2.805-0.991,2.244,0.987
		c-0.56,1.978,2.283,7.97-1.121,8.158C17.452,53.891,13.936,47.521,15.058,45.789z"/>
	<g>
		<path fill="none" d="M59.975,84.382c0.023-0.345,0.076-0.647,0.166-0.913c-0.154-0.052-0.282,0.023-0.406,0.21
			C59.887,83.822,59.952,84.064,59.975,84.382z"/>
		<path fill="none" d="M45.238,83.769c0.071-0.146,0.193-0.264,0.379-0.337c-0.381-1.1-0.408-1.938-0.408-1.938
			s0.053,0.896-0.244,1.986C45.062,83.544,45.153,83.632,45.238,83.769z"/>
		
			<radialGradient id="SVGID_3_" cx="64.2539" cy="75.4873" r="3.4836" gradientTransform="matrix(1 0 0 1.1058 0 -1.2818)" gradientUnits="userSpaceOnUse">
			<stop  offset="0" style="stop-color:#213F00"/>
			<stop  offset="1" style="stop-color:#171F00"/>
		</radialGradient>
		<path fill="url(#SVGID_3_)" d="M60.141,83.469c0.046,0.015,0.095,0.023,0.146,0.065c0.48,0.38,1.098,1.962,2.45,1.607
			c0.733-0.193,1.592-2.258,3.179-1.758c1.589,0.501,1.528-2.625,2.45-4.19c-0.911,0.137-2.3,0.473-3.928,1.307
			C62.455,81.511,60.693,81.823,60.141,83.469z"/>
		
			<radialGradient id="SVGID_4_" cx="52.6758" cy="78.8779" r="5.2589" gradientTransform="matrix(1 0 0 1.1058 0 -1.2818)" gradientUnits="userSpaceOnUse">
			<stop  offset="0" style="stop-color:#213F00"/>
			<stop  offset="1" style="stop-color:#171F00"/>
		</radialGradient>
		<path fill="url(#SVGID_4_)" d="M47.757,88.403c0.995,0.621,3.106-1.184,4.766-1.004c1.467,0.159,3.875,1.345,4.767,1.004
			c2.678-1.015,1.912-3.91,2.445-4.725c-0.201-0.198-0.552-0.227-1.131-0.041c-2.322,0.73-7.763,0.97-11.391-0.094
			c-0.781-0.231-1.278-0.232-1.596-0.112C46.038,84.64,46.028,87.324,47.757,88.403z"/>
		<path fill="#351FFF" d="M59.975,84.382c-0.01,0.184-0.01,0.386-0.004,0.599C59.982,84.759,59.986,84.559,59.975,84.382z"/>
		
			<radialGradient id="SVGID_5_" cx="39.6978" cy="78.3945" r="3.944" gradientTransform="matrix(1 0 0 1.1058 0 -1.2818)" gradientUnits="userSpaceOnUse">
			<stop  offset="0" style="stop-color:#213F00"/>
			<stop  offset="1" style="stop-color:#171F00"/>
		</radialGradient>
		<path fill="url(#SVGID_5_)" d="M35.726,86.647c1.205,1.047,3.159,0.042,4.313,0c0.893-0.03,2.776,0.995,3.405,0.752
			c1.887-0.726,1.186-2.672,1.522-3.919c-0.77-0.505-2.041,1.085-4.771,1.11c-2.391,0.022-4.517-0.3-5.764-0.54
			C34.967,84.715,35.166,86.159,35.726,86.647z"/>
	</g>
	<g>
		
			<radialGradient id="SVGID_6_" cx="27.7163" cy="67.2461" r="23.4705" gradientTransform="matrix(0.9973 -0.0812 0.0761 1.1445 12.0257 5.3923)" gradientUnits="userSpaceOnUse">
			<stop  offset="0.0169" style="stop-color:#8EBF00"/>
			<stop  offset="1" style="stop-color:#325F00"/>
		</radialGradient>
		<path fill="url(#SVGID_6_)" d="M59.56,54.015c-4.993-10.042-7.663-17.778-12.257-16.065c-6.051,2.254-15.891,15.187-17.593,22.717
			c-1.503,6.651,0.499,18.164,4.721,23.385c1.248,0.24,3.374,0.563,5.764,0.54c0,0-11.506-23.925-2.313-28.818
			c9.194-4.896,17.366,0.375,18.387,6.4c0.705,4.154-1.503,15.464-2.943,22.09c2.132-0.012,4.105-0.257,5.279-0.625
			c0.579-0.186,0.93-0.157,1.131,0.041c0.124-0.187,0.252-0.262,0.406-0.21c0.553-1.646,2.314-1.958,4.298-2.969
			c1.628-0.834,3.017-1.17,3.928-1.307c0.768-1.299,1.272-3.041,2.212-4.935C73.787,67.794,64.555,64.055,59.56,54.015z"/>
		<path fill="#8DBF3F" d="M56.268,62.173c-1.021-6.025-9.192-11.296-18.387-6.4c-9.192,4.894,2.313,28.818,2.313,28.818
			c2.73-0.025,4.001-1.615,4.771-1.11c0.296-1.091,0.244-1.986,0.244-1.986s0.027,0.838,0.408,1.938
			c0.317-0.12,0.814-0.119,1.596,0.112c1.793,0.523,4.028,0.732,6.112,0.719C54.765,77.637,56.973,66.327,56.268,62.173z"/>
	</g>
	<g>
		
			<radialGradient id="SVGID_7_" cx="42.0034" cy="181.0596" r="10.1275" gradientTransform="matrix(1 0 0 1.5551 0 -219.2672)" gradientUnits="userSpaceOnUse">
			<stop  offset="0.0169" style="stop-color:#4C7E00"/>
			<stop  offset="1" style="stop-color:#3F6D00"/>
		</radialGradient>
		<path fill="url(#SVGID_7_)" d="M53.778,61.868c0,0.64-0.326,1.001-0.731,0.825c-5.461-2.374-11.25-2.374-16.712,0
			c-0.406,0.176-0.73-0.186-0.73-0.825l0,0c0-0.643,0.325-1.315,0.73-1.491c5.462-2.373,11.25-2.373,16.712-0.002
			C53.452,60.551,53.778,61.226,53.778,61.868L53.778,61.868z"/>
	</g>
	<g>
		
			<radialGradient id="SVGID_8_" cx="42.3438" cy="151.3281" r="10.1279" gradientTransform="matrix(1 0 0 1.3995 0 -143.6232)" gradientUnits="userSpaceOnUse">
			<stop  offset="0.0169" style="stop-color:#4C7E00"/>
			<stop  offset="1" style="stop-color:#3F6D00"/>
		</radialGradient>
		<path fill="url(#SVGID_8_)" d="M54.119,67.771c0,0.576-0.326,0.902-0.729,0.742c-5.464-2.135-11.251-2.135-16.714,0
			c-0.405,0.16-0.731-0.166-0.731-0.742l0,0c0-0.576,0.327-1.184,0.731-1.342c5.462-2.135,11.25-2.135,16.714,0
			C53.793,66.587,54.119,67.195,54.119,67.771L54.119,67.771z"/>
	</g>
	<g>
		
			<radialGradient id="SVGID_9_" cx="43.0205" cy="136.2256" r="8.8621" gradientTransform="matrix(1 0 0 1.3218 0 -106.3176)" gradientUnits="userSpaceOnUse">
			<stop  offset="0.0169" style="stop-color:#4C7E00"/>
			<stop  offset="1" style="stop-color:#3F6D00"/>
		</radialGradient>
		<path fill="url(#SVGID_9_)" d="M53.324,73.421c0,0.478-0.285,0.745-0.64,0.612c-4.779-1.764-9.845-1.764-14.625,0
			c-0.354,0.133-0.639-0.135-0.639-0.612l0,0c0-0.477,0.285-0.979,0.639-1.109c4.779-1.765,9.846-1.765,14.625,0
			C53.039,72.442,53.324,72.944,53.324,73.421L53.324,73.421z"/>
	</g>
	<g>
		
			<radialGradient id="SVGID_10_" cx="133.0859" cy="118.3857" r="8.8605" gradientTransform="matrix(0.8828 0 0 1.2441 -73.4212 -67.7689)" gradientUnits="userSpaceOnUse">
			<stop  offset="0.0169" style="stop-color:#4C7E00"/>
			<stop  offset="1" style="stop-color:#3F6D00"/>
		</radialGradient>
		<path fill="url(#SVGID_10_)" d="M53.161,79.203c0,0.451-0.25,0.702-0.563,0.578c-4.22-1.66-8.691-1.66-12.911,0
			c-0.313,0.124-0.563-0.127-0.563-0.578l0,0c0-0.446,0.25-0.919,0.563-1.041c4.22-1.663,8.691-1.663,12.911-0.003
			C52.911,78.284,53.161,78.757,53.161,79.203L53.161,79.203z"/>
	</g>
	<g>
		
			<radialGradient id="SVGID_11_" cx="10.9673" cy="29.5439" r="38.8242" gradientTransform="matrix(1 0 0 1.1058 0 -1.2818)" gradientUnits="userSpaceOnUse">
			<stop  offset="0.0169" style="stop-color:#8EBF00"/>
			<stop  offset="1" style="stop-color:#325F00"/>
		</radialGradient>
		<path fill="url(#SVGID_11_)" d="M46.053,17.366c-8.172,0-10.99,12.032-10.99,12.032c-8.554,4.917-10.146,6.39-18.698,2.458
			c-3.719-1.474-7.066-4.915-10.413-1.474c-3.485,3.768-3.459,11.457-1.308,15.476c0.374,0.7,0.812,1.292,1.308,1.727
			c5.95,4.424,17.85-0.491,24.544-0.982c7.81-0.492,5.311-0.492,13.119-0.983c7.066-0.491,14.503,2.459,16.734-8.356
			c0.05-0.237,0.094-0.472,0.134-0.706C61.968,28.001,54.226,17.366,46.053,17.366z"/>
		<path fill="#C7FF7F" d="M4.838,33.986c-0.57-0.878,1.735-3.932,5.205-2.786c3.472,1.147,4.958,2.949,4.215,3.932
			c-0.743,0.985-2.106-1.965-4.586-2.129C7.192,32.84,5.582,35.132,4.838,33.986z"/>
	</g>
	<g>
		<g>
			<path fill="#FFFFFF" d="M30.488,17.024c4.349-0.974,8.606,2.15,9.487,6.96c0.882,4.813-1.94,9.52-6.29,10.496
				c-4.354,0.975-8.609-2.148-9.491-6.961C23.313,22.709,26.133,17.999,30.488,17.024z"/>
			
				<linearGradient id="SVGID_12_" gradientUnits="userSpaceOnUse" x1="37.8896" y1="-40.8569" x2="55.5" y2="-40.8569" gradientTransform="matrix(0.9801 -0.1985 0.1985 0.9801 -5.5723 75.065)">
				<stop  offset="0" style="stop-color:#272C34"/>
				<stop  offset="1" style="stop-color:#292933"/>
			</linearGradient>
			<path fill="url(#SVGID_12_)" d="M23.491,27.675c0.961,5.241,5.594,8.641,10.336,7.579c4.736-1.062,7.809-6.188,6.849-11.427
				c-0.96-5.239-5.594-8.638-10.331-7.577C25.605,17.312,22.532,22.438,23.491,27.675z M24.194,27.518
				c-0.881-4.809,1.939-9.52,6.294-10.494c4.349-0.974,8.606,2.15,9.487,6.96c0.882,4.813-1.94,9.52-6.29,10.496
				C29.332,35.454,25.076,32.332,24.194,27.518z"/>
		</g>
		
			<radialGradient id="SVGID_13_" cx="10.4795" cy="-41.5391" r="8.1851" gradientTransform="matrix(-0.9801 0.2195 0.1985 1.0838 50.6 68.4717)" gradientUnits="userSpaceOnUse">
			<stop  offset="0" style="stop-color:#FFFFFF"/>
			<stop  offset="1" style="stop-color:#E5E5E5"/>
		</radialGradient>
		<path fill="url(#SVGID_13_)" d="M24.061,27.549c0.899,4.9,5.218,8.065,9.651,7.072c4.428-0.992,7.294-5.765,6.395-10.667
			c-0.896-4.899-5.217-8.066-9.646-7.072C26.028,17.875,23.164,22.648,24.061,27.549z"/>
		
			<linearGradient id="SVGID_14_" gradientUnits="userSpaceOnUse" x1="4.498" y1="-40.2598" x2="16.978" y2="-40.2598" gradientTransform="matrix(-0.9801 0.1985 0.1985 0.9801 50.6 63.078)">
			<stop  offset="0" style="stop-color:#F3AF18"/>
			<stop  offset="1" style="stop-color:#DF8000"/>
		</linearGradient>
		<path fill="url(#SVGID_14_)" d="M25.995,27.114c0.683,3.721,3.962,6.122,7.324,5.369c3.362-0.753,5.535-4.375,4.854-8.096
			c-0.68-3.715-3.958-6.122-7.321-5.369C27.491,19.771,25.316,23.398,25.995,27.114z"/>
		
			<radialGradient id="SVGID_15_" cx="10.4785" cy="-41.5391" r="4.4695" gradientTransform="matrix(-0.9801 0.2195 0.1985 1.0838 50.6 68.4717)" gradientUnits="userSpaceOnUse">
			<stop  offset="0" style="stop-color:#1F1600"/>
			<stop  offset="1" style="stop-color:#000000"/>
		</radialGradient>
		<path fill="url(#SVGID_15_)" d="M27.704,26.732c0.49,2.676,2.85,4.405,5.269,3.863c2.419-0.542,3.982-3.151,3.492-5.827
			c-0.489-2.674-2.848-4.404-5.265-3.862C28.778,21.448,27.212,24.059,27.704,26.732z"/>
		
			<radialGradient id="SVGID_16_" cx="329.2578" cy="221.3379" r="2.3779" gradientTransform="matrix(-0.7324 -0.2987 -0.3459 1.0376 347.1359 -107.456)" gradientUnits="userSpaceOnUse">
			<stop  offset="0" style="stop-color:#FFFFFF"/>
			<stop  offset="1" style="stop-color:#E5E5E5"/>
		</radialGradient>
		<path fill="url(#SVGID_16_)" d="M27.687,23.148c-0.458,1.364-0.045,2.786,0.917,3.179c0.963,0.392,2.111-0.396,2.566-1.756
			c0.454-1.367,0.043-2.787-0.919-3.18C29.288,20.995,28.139,21.784,27.687,23.148z"/>
		
			<radialGradient id="SVGID_17_" cx="-274.125" cy="-186.4326" r="1.2495" gradientTransform="matrix(-0.5441 0.6189 0.7171 0.7708 20.3743 341.9828)" gradientUnits="userSpaceOnUse">
			<stop  offset="0" style="stop-color:#FFFFFF"/>
			<stop  offset="1" style="stop-color:#E5E5E5"/>
		</radialGradient>
		<path fill="url(#SVGID_17_)" d="M35.155,29.398c0.498,0.534,1.202,0.618,1.576,0.188c0.377-0.425,0.281-1.203-0.214-1.735
			c-0.496-0.533-1.202-0.62-1.577-0.191C34.563,28.087,34.66,28.865,35.155,29.398z"/>
		
			<radialGradient id="SVGID_18_" cx="-235.9072" cy="-384.2554" r="1.2512" gradientTransform="matrix(-0.4036 0.4591 0.5319 0.5718 142.8966 357.8815)" gradientUnits="userSpaceOnUse">
			<stop  offset="0" style="stop-color:#FFFFFF"/>
			<stop  offset="1" style="stop-color:#E5E5E5"/>
		</radialGradient>
		<path fill="url(#SVGID_18_)" d="M33.217,30.415c0.368,0.397,0.891,0.46,1.173,0.142c0.276-0.316,0.204-0.893-0.162-1.29
			c-0.369-0.394-0.893-0.459-1.169-0.141C32.78,29.439,32.85,30.02,33.217,30.415z"/>
	</g>
	<g>
		<g>
			<path fill="#FFFFFF" d="M51.382,13.368c5.646-1.265,11.178,2.793,12.319,9.038c1.145,6.25-2.521,12.364-8.169,13.629
				c-5.651,1.266-11.179-2.789-12.324-9.039C42.065,20.751,45.729,14.634,51.382,13.368z"/>
			
				<linearGradient id="SVGID_19_" gradientUnits="userSpaceOnUse" x1="56.416" y1="-37.6455" x2="79.2822" y2="-37.6455" gradientTransform="matrix(0.9801 -0.1985 0.1985 0.9801 -5.5723 75.065)">
				<stop  offset="0" style="stop-color:#272C34"/>
				<stop  offset="1" style="stop-color:#292933"/>
			</linearGradient>
			<path fill="url(#SVGID_19_)" d="M42.297,27.199c1.246,6.804,7.264,11.219,13.421,9.839c6.149-1.376,10.139-8.033,8.893-14.838
				c-1.246-6.801-7.264-11.215-13.414-9.837C45.042,13.742,41.051,20.398,42.297,27.199z M43.208,26.996
				c-1.143-6.245,2.521-12.362,8.174-13.628c5.646-1.265,11.178,2.793,12.319,9.038c1.145,6.25-2.521,12.364-8.169,13.629
				C49.881,37.3,44.353,33.246,43.208,26.996z"/>
		</g>
		
			<radialGradient id="SVGID_20_" cx="-10.6558" cy="-38.2275" r="10.6292" gradientTransform="matrix(-0.9801 0.2195 0.1985 1.0838 50.6 68.4717)" gradientUnits="userSpaceOnUse">
			<stop  offset="0" style="stop-color:#FFFFFF"/>
			<stop  offset="1" style="stop-color:#E5E5E5"/>
		</radialGradient>
		<path fill="url(#SVGID_20_)" d="M43.037,27.034c1.166,6.365,6.774,10.474,12.532,9.186c5.751-1.288,9.472-7.487,8.306-13.854
			c-1.166-6.363-6.775-10.473-12.528-9.183C45.59,14.472,41.872,20.672,43.037,27.034z"/>
		
			<linearGradient id="SVGID_21_" gradientUnits="userSpaceOnUse" x1="-18.52" y1="-37.0469" x2="-2.3145" y2="-37.0469" gradientTransform="matrix(-0.9801 0.1985 0.1985 0.9801 50.6 63.078)">
			<stop  offset="0" style="stop-color:#F3AF18"/>
			<stop  offset="1" style="stop-color:#DF8000"/>
		</linearGradient>
		<path fill="url(#SVGID_21_)" d="M45.549,26.471c0.884,4.832,5.142,7.951,9.509,6.972c4.365-0.978,7.188-5.683,6.305-10.514
			c-0.886-4.826-5.142-7.947-9.506-6.97C47.488,16.938,44.665,21.646,45.549,26.471z"/>
		
			<radialGradient id="SVGID_22_" cx="-10.6553" cy="-38.2266" r="5.8042" gradientTransform="matrix(-0.9801 0.2195 0.1985 1.0838 50.6 68.4717)" gradientUnits="userSpaceOnUse">
			<stop  offset="0" style="stop-color:#1F1600"/>
			<stop  offset="1" style="stop-color:#000000"/>
		</radialGradient>
		<path fill="url(#SVGID_22_)" d="M47.767,25.974c0.637,3.476,3.702,5.724,6.844,5.02c3.138-0.704,5.17-4.092,4.532-7.567
			c-0.637-3.474-3.699-5.718-6.839-5.015C49.161,19.115,47.13,22.5,47.767,25.974z"/>
		
			<radialGradient id="SVGID_23_" cx="305.1719" cy="212.8486" r="3.0894" gradientTransform="matrix(-0.7324 -0.2987 -0.3459 1.0376 347.1359 -107.456)" gradientUnits="userSpaceOnUse">
			<stop  offset="0" style="stop-color:#FFFFFF"/>
			<stop  offset="1" style="stop-color:#E5E5E5"/>
		</radialGradient>
		<path fill="url(#SVGID_23_)" d="M47.743,21.319c-0.594,1.77-0.057,3.618,1.192,4.13c1.25,0.508,2.742-0.518,3.333-2.281
			c0.589-1.776,0.057-3.621-1.194-4.128C49.824,18.526,48.332,19.549,47.743,21.319z"/>
		
			<radialGradient id="SVGID_24_" cx="-294.3662" cy="-170.4277" r="1.6223" gradientTransform="matrix(-0.5441 0.6189 0.7171 0.7708 20.3743 341.9828)" gradientUnits="userSpaceOnUse">
			<stop  offset="0" style="stop-color:#FFFFFF"/>
			<stop  offset="1" style="stop-color:#E5E5E5"/>
		</radialGradient>
		<path fill="url(#SVGID_24_)" d="M57.441,29.438c0.646,0.693,1.56,0.801,2.046,0.243c0.491-0.554,0.365-1.561-0.278-2.254
			c-0.642-0.691-1.559-0.805-2.046-0.245C56.672,27.734,56.801,28.746,57.441,29.438z"/>
		
			<radialGradient id="SVGID_25_" cx="-262.0303" cy="-362.9814" r="1.6243" gradientTransform="matrix(-0.4036 0.4591 0.5319 0.5718 142.8966 357.8815)" gradientUnits="userSpaceOnUse">
			<stop  offset="0" style="stop-color:#FFFFFF"/>
			<stop  offset="1" style="stop-color:#E5E5E5"/>
		</radialGradient>
		<path fill="url(#SVGID_25_)" d="M54.925,30.756c0.479,0.516,1.158,0.596,1.522,0.184c0.359-0.414,0.267-1.161-0.21-1.674
			c-0.479-0.513-1.156-0.597-1.517-0.185C54.357,29.491,54.448,30.242,54.925,30.756z"/>
	</g>
</g>
</svg>
