<?xml version="1.0" encoding="utf-8"?>
<!-- Generator: Adobe Illustrator 14.0.0, SVG Export Plug-In . SVG Version: 6.00 Build 43363)  -->
<!DOCTYPE svg PUBLIC "-//W3C//DTD SVG 1.1//EN" "http://www.w3.org/Graphics/SVG/1.1/DTD/svg11.dtd">
<svg version="1.1" id="图层_1" xmlns="http://www.w3.org/2000/svg" xmlns:xlink="http://www.w3.org/1999/xlink" x="0px" y="0px"
	 width="50px" height="50px" viewBox="0 0 50 50" enable-background="new 0 0 50 50" xml:space="preserve">
<g>
	<g>
		
			<linearGradient id="SVGID_1_" gradientUnits="userSpaceOnUse" x1="195.0049" y1="-324.6641" x2="191.5811" y2="-326.7603" gradientTransform="matrix(-1.3221 0 0 1.3221 272.6324 456.9506)">
			<stop  offset="0" style="stop-color:#78B6E3"/>
			<stop  offset="1" style="stop-color:#008ED3"/>
		</linearGradient>
		<path fill="url(#SVGID_1_)" d="M17.632,22.826c0,0-5.364,5.289-5.098,6.167c0.382,1.264,6.063-0.334,8.089-1.676"/>
		
			<linearGradient id="SVGID_2_" gradientUnits="userSpaceOnUse" x1="20.4731" y1="-347.0654" x2="17.1182" y2="-339.2636" gradientTransform="matrix(1 0 0 1 11.9697 348.8828)">
			<stop  offset="0" style="stop-color:#78B6E3"/>
			<stop  offset="1" style="stop-color:#008ED3"/>
		</linearGradient>
		<path fill="url(#SVGID_2_)" d="M26.317,4.901c0,0,4.215-5.091,6.856-3.78c2.642,1.31,0.637,8.67,0.637,8.67L26.317,4.901z"/>
		
			<radialGradient id="SVGID_3_" cx="6.1914" cy="-345.5825" r="11.3363" gradientTransform="matrix(1 0 0 1 11.9697 348.8828)" gradientUnits="userSpaceOnUse">
			<stop  offset="0" style="stop-color:#ACD6F2"/>
			<stop  offset="0.6245" style="stop-color:#88C0E8"/>
			<stop  offset="1" style="stop-color:#78B6E3"/>
		</radialGradient>
		<path fill="url(#SVGID_3_)" d="M12.736,14.603c0.196-5.541,3.75-14.419,15.983-10.81c5.439,1.604,9.176,7.302,10.995,13.304
			c3.765,12.419-3.509,20.978-7.255,23.132c-1.291,0.744,0.979,2.377-1.522,5.822c-1.021,1.406-3.76,2.773-5.819,3.043
			c0,0,2.32-2.502,1.855-4.865c-0.211-1.072,0.563-3.641,2.531-4.268c0,0-1.968,0.084-3.848-2.334
			c-1.3-1.67-2.403-1.762-3.941-1.785c0,0,1.612-2.506,4.656-2.326c0.893,0.053,2.847,0.318,4.369,2.691c0,0,4.521-4.83-5.412-6.947
			C17.841,27.667,12.459,22.456,12.736,14.603z"/>
		<path fill="#0086CA" d="M34.301,23.69c-1.728,1.709-7.367,4.1-7.609,3.213c-0.241-0.889,2.69-6.344,3.923-6.604
			C31.848,20.04,34.301,23.69,34.301,23.69z"/>
		<ellipse fill="#009DDA" cx="19.654" cy="12.328" rx="1.947" ry="3.232"/>
		<ellipse fill="#009DDA" cx="15.743" cy="12.328" rx="1.947" ry="3.232"/>
		<ellipse fill="#ACD6F2" cx="19.654" cy="12.824" rx="1.947" ry="3.232"/>
		<ellipse fill="#ACD6F2" cx="15.743" cy="12.824" rx="1.947" ry="3.232"/>
		
			<radialGradient id="SVGID_4_" cx="-145.8486" cy="-208.2534" r="32.4161" gradientTransform="matrix(0.1329 0 0 0.2205 38.1042 54.4662)" gradientUnits="userSpaceOnUse">
			<stop  offset="0.3034" style="stop-color:#FFFFFF"/>
			<stop  offset="0.4987" style="stop-color:#FCFCFC"/>
			<stop  offset="0.6358" style="stop-color:#F3F3F4"/>
			<stop  offset="0.7551" style="stop-color:#E3E4E5"/>
			<stop  offset="0.8642" style="stop-color:#CECFD0"/>
			<stop  offset="0.9654" style="stop-color:#B1B3B6"/>
			<stop  offset="1" style="stop-color:#A6A8AB"/>
		</radialGradient>
		<ellipse fill="url(#SVGID_4_)" cx="19.654" cy="12.633" rx="1.947" ry="3.232"/>
		
			<radialGradient id="SVGID_5_" cx="-82.8823" cy="-208.2534" r="32.4172" gradientTransform="matrix(0.1329 0 0 0.2205 25.8249 54.4662)" gradientUnits="userSpaceOnUse">
			<stop  offset="0.3034" style="stop-color:#FFFFFF"/>
			<stop  offset="0.4987" style="stop-color:#FCFCFC"/>
			<stop  offset="0.6358" style="stop-color:#F3F3F4"/>
			<stop  offset="0.7551" style="stop-color:#E3E4E5"/>
			<stop  offset="0.8642" style="stop-color:#CECFD0"/>
			<stop  offset="0.9654" style="stop-color:#B1B3B6"/>
			<stop  offset="1" style="stop-color:#A6A8AB"/>
		</radialGradient>
		<ellipse fill="url(#SVGID_5_)" cx="15.743" cy="12.633" rx="1.947" ry="3.232"/>
		
			<radialGradient id="SVGID_6_" cx="177.2285" cy="-313.8643" r="25.8194" gradientTransform="matrix(1.3221 0 0 1.3221 -200.7662 456.9506)" gradientUnits="userSpaceOnUse">
			<stop  offset="0" style="stop-color:#FFFFFF"/>
			<stop  offset="0.1919" style="stop-color:#FAFAFA"/>
			<stop  offset="0.4167" style="stop-color:#ECECED"/>
			<stop  offset="0.658" style="stop-color:#D4D5D7"/>
			<stop  offset="0.9093" style="stop-color:#B4B5B8"/>
			<stop  offset="1" style="stop-color:#A6A8AB"/>
		</radialGradient>
		<path fill="url(#SVGID_6_)" d="M31.769,23.191c-6.218-7.02-11.549-4.061-11.549-4.061l-2.714,1.889l-0.796,0.051
			c-2.334,4.658,1.94,8.13,5.636,8.316c10.069,0.504,8.396,6.822,8.396,6.822C35.594,34.321,34.62,26.411,31.769,23.191z"/>
		<path fill="#D0D2D3" d="M31.769,23.191c-0.733-0.827-1.452-1.51-2.151-2.081c-1.362,1.611-3.114,5.1-2.926,5.793
			c0.192,0.707,3.809-0.668,6.147-2.119C32.524,24.182,32.165,23.639,31.769,23.191z"/>
		
			<radialGradient id="SVGID_7_" cx="159.7559" cy="-333.6816" r="6.0845" gradientTransform="matrix(1.3202 0.0716 -0.0716 1.3202 -221.876 446.0157)" gradientUnits="userSpaceOnUse">
			<stop  offset="0" style="stop-color:#ACD6F2"/>
			<stop  offset="0.6245" style="stop-color:#88C0E8"/>
			<stop  offset="1" style="stop-color:#78B6E3"/>
		</radialGradient>
		<path fill="url(#SVGID_7_)" d="M12.852,17.45c2.417-2.291,10.233-1.53,10.283,1.416c0.052,3.003-7.08,7.256-10.835,6.127
			c-3.392-1.018-3.673-3.23-2.276-4.125C11.873,19.683,11.561,18.675,12.852,17.45z"/>
		
			<radialGradient id="SVGID_8_" cx="161.4531" cy="-333.0605" r="8.3367" gradientTransform="matrix(1.3202 0.0716 -0.0716 1.3202 -221.876 446.0157)" gradientUnits="userSpaceOnUse">
			<stop  offset="0" style="stop-color:#FFFFFF"/>
			<stop  offset="1" style="stop-color:#E6E7E8"/>
		</radialGradient>
		<path fill="url(#SVGID_8_)" d="M23.135,18.866c-0.004-0.289-0.096-0.545-0.253-0.774c-2.997,4.593-8.62,7.098-12.815,5.743
			c0.497,0.447,1.224,0.857,2.232,1.159C16.055,26.122,23.188,21.869,23.135,18.866z"/>
		<ellipse fill="#231F20" cx="18.46" cy="13.66" rx="0.383" ry="0.656"/>
		<ellipse fill="#231F20" cx="16.846" cy="13.66" rx="0.383" ry="0.656"/>
		<path fill="#009DDA" d="M34.301,23.69c-2.042,1.318-7.995,2.496-8.106,1.582c-0.189-1.546,4.538-5.533,4.538-5.533l3.568,3.663
			V23.69z"/>
		
			<radialGradient id="SVGID_9_" cx="170.6279" cy="-329.0586" r="3.2176" gradientTransform="matrix(1.3221 0 0 1.3221 -198.0807 456.9506)" gradientUnits="userSpaceOnUse">
			<stop  offset="0" style="stop-color:#ACD6F2"/>
			<stop  offset="0.6245" style="stop-color:#88C0E8"/>
			<stop  offset="1" style="stop-color:#78B6E3"/>
		</radialGradient>
		<path fill="url(#SVGID_9_)" d="M34.301,23.402c-2.042,1.318-8.052,2.501-8.106,1.583c-0.055-0.919,3.935-5.657,5.195-5.658
			C32.648,19.326,34.301,23.402,34.301,23.402z"/>
	</g>
</g>
</svg>
