<?xml version="1.0" encoding="utf-8"?>
<!-- Generator: Adobe Illustrator 14.0.0, SVG Export Plug-In . SVG Version: 6.00 Build 43363)  -->
<!DOCTYPE svg PUBLIC "-//W3C//DTD SVG 1.1//EN" "http://www.w3.org/Graphics/SVG/1.1/DTD/svg11.dtd">
<svg version="1.1" id="图层_1" xmlns="http://www.w3.org/2000/svg" xmlns:xlink="http://www.w3.org/1999/xlink" x="0px" y="0px"
	 width="50px" height="50px" viewBox="0 0 50 50" enable-background="new 0 0 50 50" xml:space="preserve">
<g>
	<g>
		
			<radialGradient id="SVGID_1_" cx="44.5439" cy="61.2979" r="0.6289" gradientTransform="matrix(1.3164 0 0 1.3164 -19.8592 -37.5828)" gradientUnits="userSpaceOnUse">
			<stop  offset="0" style="stop-color:#B77049"/>
			<stop  offset="1" style="stop-color:#7B340F"/>
		</radialGradient>
		<path fill="url(#SVGID_1_)" d="M37.949,43.542c-0.182,0.031-0.279,0.695,0.014,0.783c0.295,0.09,0.627-0.266,0.947-0.141
			C39.096,44.257,38.914,43.384,37.949,43.542z"/>
		
			<linearGradient id="SVGID_2_" gradientUnits="userSpaceOnUse" x1="-7744.2778" y1="-7735.2476" x2="-7747.9102" y2="-7733.959" gradientTransform="matrix(0.3121 0.0273 -0.0273 0.3121 2244.0483 2669.4377)">
			<stop  offset="0" style="stop-color:#FCB813"/>
			<stop  offset="1" style="stop-color:#E0851B"/>
		</linearGradient>
		<path fill="url(#SVGID_2_)" d="M36.686,43.685c0,0,1.031-0.553,1.428-0.137c0.27,0.285,0.346,1.164-0.727,1.076L36.686,43.685z"/>
		
			<linearGradient id="SVGID_3_" gradientUnits="userSpaceOnUse" x1="-7737.9595" y1="-7712.708" x2="-7731.2222" y2="-7712.708" gradientTransform="matrix(0.3506 0.0307 -0.0307 0.3506 2509.78 2986.7637)">
			<stop  offset="0" style="stop-color:#FCB813"/>
			<stop  offset="1" style="stop-color:#E0851B"/>
		</linearGradient>
		<path fill="url(#SVGID_3_)" d="M35.434,44.136c-0.104-0.008-1.953,1.266-2.068,2.129c0,0,2.82-0.918,2.805-0.98
			C36.154,45.22,35.434,44.136,35.434,44.136z"/>
		
			<linearGradient id="SVGID_4_" gradientUnits="userSpaceOnUse" x1="-3805.0005" y1="-3873.8091" x2="-3813.2188" y2="-3881.5291" gradientTransform="matrix(0.3408 0 0 0.3408 1331.396 1365.6123)">
			<stop  offset="0" style="stop-color:#FCB813"/>
			<stop  offset="1" style="stop-color:#E0851B"/>
		</linearGradient>
		<path fill="url(#SVGID_4_)" d="M33.402,40.278c0,0,2.496,2.084,3.504,3.355c0.803,1.047,2.027,4.357,0.303,4.795
			c-0.557,0.131-1.551,0.109-1.383-0.881c0.082-0.465,0.256-1.262,0.016-2.027c-0.828,0.299-1.938,3.697-3.086,2.146
			c-0.426-0.578,0.887-2.361,2.506-2.934c0.949-0.334-2.688-3.605-3.52-3.678C30.912,40.981,33.402,40.278,33.402,40.278z"/>
		
			<radialGradient id="SVGID_5_" cx="42.2939" cy="65.126" r="0.9174" gradientTransform="matrix(1.3164 0 0 1.3164 -19.8592 -37.5828)" gradientUnits="userSpaceOnUse">
			<stop  offset="0" style="stop-color:#B77049"/>
			<stop  offset="1" style="stop-color:#7B340F"/>
		</radialGradient>
		<path fill="url(#SVGID_5_)" d="M36.303,47.651c0.281-0.369,1.207-0.053,1.16,0.396c-0.043,0.449-0.756,0.865-0.725,1.16
			C36.771,49.503,35.541,48.655,36.303,47.651z"/>
		
			<radialGradient id="SVGID_6_" cx="39.542" cy="64.4453" r="0.8126" gradientTransform="matrix(1.3164 0 0 1.3164 -19.8592 -37.5828)" gradientUnits="userSpaceOnUse">
			<stop  offset="0" style="stop-color:#B77049"/>
			<stop  offset="1" style="stop-color:#7B340F"/>
		</radialGradient>
		<path fill="url(#SVGID_6_)" d="M32.803,47.253c0.273-0.33,0.879,0.168,0.803,0.52c-0.076,0.348-0.684,0.648-0.688,0.883
			C32.916,48.892,32.07,48.132,32.803,47.253z"/>
	</g>
	<g>
		
			<radialGradient id="SVGID_7_" cx="19.8394" cy="84.1221" r="0.6282" gradientTransform="matrix(0.4489 1.2375 -1.2375 0.4489 117.7526 -15.1394)" gradientUnits="userSpaceOnUse">
			<stop  offset="0" style="stop-color:#B77049"/>
			<stop  offset="1" style="stop-color:#7B340F"/>
		</radialGradient>
		<path fill="url(#SVGID_7_)" d="M21.777,46.485c-0.09-0.162-0.75-0.023-0.731,0.281c0.017,0.305,0.463,0.5,0.456,0.842
			C21.496,47.808,22.256,47.337,21.777,46.485z"/>
		
			<linearGradient id="SVGID_8_" gradientUnits="userSpaceOnUse" x1="-7838.6675" y1="-7631.2358" x2="-7842.3013" y2="-7629.9463" gradientTransform="matrix(0.0807 0.3027 -0.3027 0.0807 -1655.8168 3035.4487)">
			<stop  offset="0" style="stop-color:#FCB813"/>
			<stop  offset="1" style="stop-color:#E0851B"/>
		</linearGradient>
		<path fill="url(#SVGID_8_)" d="M21.213,45.345c0,0,0.871,0.783,0.614,1.297c-0.175,0.35-0.977,0.723-1.258-0.316L21.213,45.345z"
			/>
		
			<linearGradient id="SVGID_9_" gradientUnits="userSpaceOnUse" x1="-7822.062" y1="-7620.1709" x2="-7815.3281" y2="-7620.1709" gradientTransform="matrix(0.0907 0.3401 -0.3401 0.0907 -1863.3474 3394.408)">
			<stop  offset="0" style="stop-color:#FCB813"/>
			<stop  offset="1" style="stop-color:#E0851B"/>
		</linearGradient>
		<path fill="url(#SVGID_9_)" d="M20.362,44.325c-0.027-0.1-1.856-1.404-2.706-1.221c0,0,1.824,2.338,1.877,2.301
			C19.589,45.372,20.362,44.325,20.362,44.325z"/>
		
			<linearGradient id="SVGID_10_" gradientUnits="userSpaceOnUse" x1="-3899.8223" y1="-3786.4888" x2="-3908.0398" y2="-3794.2083" gradientTransform="matrix(0.1162 0.3204 -0.3204 0.1162 -741.1564 1733.5529)">
			<stop  offset="0" style="stop-color:#FCB813"/>
			<stop  offset="1" style="stop-color:#E0851B"/>
		</linearGradient>
		<path fill="url(#SVGID_10_)" d="M23.294,41.099c0,0-1.107,3.059-1.958,4.439c-0.711,1.111-3.405,3.389-4.404,1.918
			c-0.312-0.477-0.632-1.42,0.356-1.598c0.465-0.084,1.273-0.191,1.911-0.68c-0.563-0.676-4.135-0.561-3.069-2.17
			c0.396-0.596,2.521,0.029,3.609,1.357c0.641,0.779,2.474-3.756,2.26-4.563C21.785,38.997,23.294,41.099,23.294,41.099z"/>
		
			<radialGradient id="SVGID_11_" cx="17.5913" cy="87.9482" r="0.9171" gradientTransform="matrix(0.4489 1.2375 -1.2375 0.4489 117.7526 -15.1394)" gradientUnits="userSpaceOnUse">
			<stop  offset="0" style="stop-color:#B77049"/>
			<stop  offset="1" style="stop-color:#7B340F"/>
		</radialGradient>
		<path fill="url(#SVGID_11_)" d="M17.354,46.341c0.443,0.137,0.46,1.115,0.022,1.225c-0.438,0.111-1.07-0.416-1.337-0.287
			C15.773,47.409,16.148,45.966,17.354,46.341z"/>
		
			<radialGradient id="SVGID_12_" cx="14.8369" cy="87.2695" r="0.812" gradientTransform="matrix(0.4489 1.2375 -1.2375 0.4489 117.7526 -15.1394)" gradientUnits="userSpaceOnUse">
			<stop  offset="0" style="stop-color:#B77049"/>
			<stop  offset="1" style="stop-color:#7B340F"/>
		</radialGradient>
		<path fill="url(#SVGID_12_)" d="M16.533,42.911c0.404,0.146,0.143,0.887-0.212,0.932c-0.354,0.047-0.845-0.42-1.066-0.342
			C15.034,43.579,15.458,42.524,16.533,42.911z"/>
	</g>
	
		<radialGradient id="SVGID_13_" cx="30.8232" cy="47.3604" r="16.9069" gradientTransform="matrix(1.3164 0 0 1.3164 -19.8592 -37.5828)" gradientUnits="userSpaceOnUse">
		<stop  offset="0" style="stop-color:#E6E7E8"/>
		<stop  offset="0.0958" style="stop-color:#D7D8DA"/>
		<stop  offset="0.2402" style="stop-color:#C7C9CB"/>
		<stop  offset="0.4053" style="stop-color:#BEC0C2"/>
		<stop  offset="0.6348" style="stop-color:#BBBDBF"/>
		<stop  offset="0.8764" style="stop-color:#9C9EA1"/>
		<stop  offset="1" style="stop-color:#B1B3B5"/>
	</radialGradient>
	<path fill="url(#SVGID_13_)" d="M40.883,24.664c-7.861,5.667-17.073,0.448-17.073,0.448l-9.935,4.813
		c-0.003,0.012-0.005,0.021-0.009,0.031c-0.329-0.281-0.809-0.572-1.435-0.631c0,0,0.764,0.541,1.203,1.281
		c-0.389-0.191-0.92-0.352-1.535-0.258c0,0,0.732,0.285,1.321,0.801c-0.405-0.047-0.9-0.021-1.401,0.219
		c0,0,0.785,0.061,1.498,0.387c-0.155,2.027,0.394,4.357,1.777,6.26c4.855,6.676,14.896,6.83,20.765,2.436
		C43.059,35.208,40.883,24.664,40.883,24.664z"/>
	
		<linearGradient id="SVGID_14_" gradientUnits="userSpaceOnUse" x1="28.0684" y1="45.8281" x2="26.4416" y2="41.397" gradientTransform="matrix(1.3164 0 0 1.3164 -19.8592 -37.5828)">
		<stop  offset="0" style="stop-color:#009F5A"/>
		<stop  offset="1" style="stop-color:#006938"/>
	</linearGradient>
	<path fill="url(#SVGID_14_)" d="M9.958,12.425c0,0,8.73,7.463,3.917,17.5c0,0,6.658,0.307,9.935-4.813c0,0-1.946-5.327-8.09-12.702
		l-2.494,0.403L9.958,12.425z"/>
	
		<linearGradient id="SVGID_15_" gradientUnits="userSpaceOnUse" x1="-7790.5991" y1="-7767.2808" x2="-7783.2505" y2="-7752.1099" gradientTransform="matrix(0.432 0 0 0.432 3382.3347 3378.687)">
		<stop  offset="0" style="stop-color:#B77049"/>
		<stop  offset="1" style="stop-color:#7B340F"/>
	</linearGradient>
	<path fill="url(#SVGID_15_)" d="M23.81,25.112c0,0-0.656-1.798-2.411-4.75c-2.529,1.68-4.662,2.231-6.123,2.374
		c0.183,2.168-0.155,4.591-1.401,7.188C13.875,29.925,20.533,30.231,23.81,25.112z"/>
	
		<linearGradient id="SVGID_16_" gradientUnits="userSpaceOnUse" x1="26.9834" y1="46.0557" x2="31.0217" y2="44.1487" gradientTransform="matrix(1.3164 0 0 1.3164 -19.8592 -37.5828)">
		<stop  offset="0" style="stop-color:#FFFFFF"/>
		<stop  offset="0.7528" style="stop-color:#A6A8AB"/>
		<stop  offset="1" style="stop-color:#D0D2D3"/>
	</linearGradient>
	<path fill="url(#SVGID_16_)" d="M20.939,19.605c-2.317,2.213-4.398,2.606-5.724,2.553c0.054,0.417,0.087,0.846,0.101,1.283
		c1.563,0.031,3.835-0.453,6.297-2.712C21.406,20.372,21.182,19.998,20.939,19.605z"/>
	
		<radialGradient id="SVGID_17_" cx="26.2363" cy="30.2295" r="12.5716" gradientTransform="matrix(1.2013 0.1556 -0.1556 1.2013 -12.7491 -36.6755)" gradientUnits="userSpaceOnUse">
		<stop  offset="0" style="stop-color:#00AE62"/>
		<stop  offset="0.8371" style="stop-color:#006938"/>
		<stop  offset="1" style="stop-color:#009F5A"/>
	</radialGradient>
	<path fill="url(#SVGID_17_)" d="M16.494,2.339c0.653-0.01,1.288,0.063,1.896,0.205c0.371-0.269,1.497-0.982,2.603-0.684
		c0,0-1.092,0.245-1.724,0.649c0.571-0.188,1.407-0.343,2.144,0.004c0,0-0.927,0.04-1.616,0.263
		c0.409-0.037,0.849,0.001,1.259,0.195c0,0-0.529,0.022-1.085,0.129c2.591,1.24,4.398,3.867,4.441,6.934
		c0.063,4.311-3.382,7.857-7.694,7.918c-4.313,0.063-7.858-3.382-7.919-7.694C8.737,5.946,12.183,2.401,16.494,2.339z"/>
	
		<radialGradient id="SVGID_18_" cx="-14.0654" cy="35.3809" r="5.2262" gradientTransform="matrix(-1.2962 0.2299 0.2299 1.2962 -0.9189 -29.8525)" gradientUnits="userSpaceOnUse">
		<stop  offset="0" style="stop-color:#FFF100"/>
		<stop  offset="1" style="stop-color:#FCB813"/>
	</radialGradient>
	<path fill="url(#SVGID_18_)" d="M20.153,13.192c0.615-0.691,1.192-1.821,1.941-1.976c1.388-0.285,1.604,1.274,2.289,2.208
		c1.237,1.687,2.902,2.822,3.959,3.016c1.74,0.318,0.361,3.005-2.766,3.015c-2.679,0.011-4.631-1.338-6.417-3.17
		C17.774,14.868,18.256,13.451,20.153,13.192z"/>
	<circle fill="#007742" cx="18.073" cy="9.151" r="2.378"/>
	<circle fill="#00AE62" cx="18.02" cy="9.647" r="2.378"/>
	
		<radialGradient id="SVGID_19_" cx="26.0029" cy="33.4756" r="2.9746" gradientTransform="matrix(1.3164 0 0 1.3164 -16.8866 -36.3944)" gradientUnits="userSpaceOnUse">
		<stop  offset="0.3034" style="stop-color:#FFFFFF"/>
		<stop  offset="0.455" style="stop-color:#FAFAFA"/>
		<stop  offset="0.6469" style="stop-color:#EAEAEB"/>
		<stop  offset="0.8597" style="stop-color:#D0D1D3"/>
		<stop  offset="1" style="stop-color:#BBBDBF"/>
	</radialGradient>
	<circle fill="url(#SVGID_19_)" cx="18.036" cy="9.408" r="2.378"/>
	
		<linearGradient id="SVGID_20_" gradientUnits="userSpaceOnUse" x1="-7808.8257" y1="-7803.3159" x2="-7810.6074" y2="-7809.1821" gradientTransform="matrix(0.3665 -0.0053 0.0053 0.3665 2922.7185 2828.9604)">
		<stop  offset="0" style="stop-color:#AC7559"/>
		<stop  offset="1" style="stop-color:#6E3E38"/>
	</linearGradient>
	<circle fill="url(#SVGID_20_)" cx="19.088" cy="9.374" r="1.067"/>
	<circle fill="#231F20" cx="19.213" cy="9.244" r="0.573"/>
	<circle fill="#FFFFFF" cx="19.368" cy="8.807" r="0.238"/>
	
		<linearGradient id="SVGID_21_" gradientUnits="userSpaceOnUse" x1="37.0293" y1="47.8438" x2="38.8733" y2="56.7188" gradientTransform="matrix(1.3164 0 0 1.3164 -19.8592 -37.5828)">
		<stop  offset="0" style="stop-color:#0088CF"/>
		<stop  offset="0.809" style="stop-color:#2E3191"/>
		<stop  offset="1" style="stop-color:#0066B2"/>
	</linearGradient>
	<path fill="url(#SVGID_21_)" d="M21.666,35.132c-1.846-2.787,0.537-9.236,4.842-10.28c1.885-0.458,7.391,0.896,8.646-0.473
		c0.926-1.005,1.559-1.303,2.336-0.907c0.484,0.247,0.809,1.585-0.328,2.709c0,0,1.018-0.3,1.396,0.355
		c0.506,0.874-0.379,1.909-1.365,2.401c0,0,1.449-0.713,1.871,0.246c0.381,0.857-0.283,1.928-1.814,2.676
		c0,0,1.578-0.932,2.025,0.252C40.012,34.062,26.885,43.017,21.666,35.132z"/>
	
		<linearGradient id="SVGID_22_" gradientUnits="userSpaceOnUse" x1="34.2695" y1="47.2598" x2="39.2252" y2="55.8455" gradientTransform="matrix(1.3164 0 0 1.3164 -19.8592 -37.5828)">
		<stop  offset="0" style="stop-color:#B77049"/>
		<stop  offset="1" style="stop-color:#7B340F"/>
	</linearGradient>
	<path fill="url(#SVGID_22_)" d="M20.357,34.874c-1.922-2.902-1.277-9.401,3.204-10.488c1.963-0.477,7.208,0.883,9.001-0.491
		c1.514-1.161,1.619-1.357,2.43-0.944c0.504,0.256,0.842,1.651-0.342,2.819c0,0,1.059-0.313,1.453,0.369
		c0.527,0.913-0.395,1.989-1.418,2.503c0,0,1.504-0.744,1.945,0.256c0.396,0.891-0.293,2.004-1.889,2.783
		c0,0,1.674-0.98,2.109,0.264C37.672,34.296,25.789,43.081,20.357,34.874z"/>
</g>
</svg>
