<?xml version="1.0" encoding="utf-8"?>
<!-- Generator: Adobe Illustrator 14.0.0, SVG Export Plug-In . SVG Version: 6.00 Build 43363)  -->
<!DOCTYPE svg PUBLIC "-//W3C//DTD SVG 1.1//EN" "http://www.w3.org/Graphics/SVG/1.1/DTD/svg11.dtd">
<svg version="1.1" id="图层_1" xmlns="http://www.w3.org/2000/svg" xmlns:xlink="http://www.w3.org/1999/xlink" x="0px" y="0px"
	 width="100px" height="100px" viewBox="0 0 100 100" enable-background="new 0 0 100 100" xml:space="preserve">
<g>
	<g>
		
			<radialGradient id="SVGID_1_" cx="-241.5986" cy="130.6006" r="18.4183" gradientTransform="matrix(0.8978 0.2661 -0.2435 0.9646 324.2596 3.3852)" gradientUnits="userSpaceOnUse">
			<stop  offset="0" style="stop-color:#AF6900"/>
			<stop  offset="1" style="stop-color:#D28F30"/>
		</radialGradient>
		<path fill="url(#SVGID_1_)" d="M79.818,56.186c1.059-0.133,5.533-1.51,5.785,0c0.25,1.508-1.762,1.76-1.762,4.023
			c0,0.133-0.008,0.254-0.021,0.373c0.896-0.135,1.672-0.207,2.379-0.277c-0.068-1.658,2.033-3.514,4.924-4.266
			c0.357-0.094,0.709-0.164,1.057-0.215c-0.68-2.303-1.855-4.393-3.525-5.793c-0.951-0.798-2.053-1.479-3.242-2.027
			c-0.014,0.166-0.025,0.331-0.043,0.499c-0.35,3.312-1.791,5.853-3.227,5.675c-1.432-0.176-2.313-3.002-1.961-6.314
			c0.045-0.438,0.111-0.861,0.191-1.267c-2.711-0.314-5.523,0.04-8.021,1.242c1.271,2.552,1.463,5.048,0.363,5.81
			c-1.063,0.732-2.967-0.391-4.535-2.557c-1.254,1.5-2.266,3.398-2.922,5.75c-0.158,0.57-0.305,1.119-0.441,1.662
			c1.795,2.135,2.531,4.498,1.637,5.521c-0.555,0.639-1.623,0.621-2.846,0.08c-0.523,2.846-0.826,5.037-1.277,6.494
			c0.553,0.67,1.129,1.732,1.896,2.938c1.76,2.768-1.51,2.012-3.27,1.762c-0.938-0.137-1.16-1.482-1.164-2.713
			c-0.59-0.145-1.307-0.484-2.195-1.031c-1.104-0.682-0.92,7.525-0.92,7.525s3.098,3.396,8.635-0.273
			c1.711-1.131,2.703-3.152,3.4-5.467c-0.895-0.992-1.797-2.027-2.475-2.318c-1.76-0.754-1.006-4.023,0.252-4.777
			c1.016-0.609,2.195,0.094,3.674,0.652c0.309-1.451,0.648-2.811,1.111-3.947c-0.701-1.055-1.371-2.818-2.773-2.99
			c-2.012-0.254-0.836-3.814,0.754-3.02c3.018,1.508,3.771-2.012,5.533-1.258c0.83,0.357,0.592,2.168-0.018,3.984
			c0.986-0.268,1.797-0.25,2.447-0.055C77.662,58.148,78.6,56.338,79.818,56.186z M76.801,54.424
			c-1.76,0.252-1.725-4.601-0.252-4.275C78.813,50.653,78.561,54.172,76.801,54.424z"/>
		
			<radialGradient id="SVGID_2_" cx="-241.5449" cy="130.8428" r="18.9516" gradientTransform="matrix(0.8978 0.2661 -0.2435 0.9646 324.2596 3.3852)" gradientUnits="userSpaceOnUse">
			<stop  offset="0" style="stop-color:#AF6900"/>
			<stop  offset="1" style="stop-color:#D28F30"/>
		</radialGradient>
		<path fill="url(#SVGID_2_)" d="M79.561,61.773c0.006,0.012,0.014,0.027,0.018,0.041c0.018-0.01,0.031-0.02,0.049-0.029
			C79.604,61.781,79.584,61.777,79.561,61.773z"/>
		
			<radialGradient id="SVGID_3_" cx="-241.5977" cy="130.5986" r="18.4147" gradientTransform="matrix(0.8978 0.2661 -0.2435 0.9646 324.2596 3.3852)" gradientUnits="userSpaceOnUse">
			<stop  offset="0.1011" style="stop-color:#DF9000"/>
			<stop  offset="0.8764" style="stop-color:#BF8900"/>
		</radialGradient>
		<path fill="url(#SVGID_3_)" d="M82.143,54.178c1.436,0.178,2.877-2.363,3.227-5.675c0.018-0.168,0.029-0.333,0.043-0.499
			c-1.561-0.718-3.275-1.205-5.039-1.407c-0.08,0.406-0.146,0.829-0.191,1.267C79.83,51.176,80.711,54.002,82.143,54.178z"/>
		<radialGradient id="SVGID_4_" cx="76.5479" cy="50.1489" r="25.6767" gradientUnits="userSpaceOnUse">
			<stop  offset="0" style="stop-color:#BF6000"/>
			<stop  offset="1" style="stop-color:#7F4700"/>
		</radialGradient>
		<path fill="url(#SVGID_4_)" d="M82.143,54.178c1.436,0.178,2.877-2.363,3.227-5.675c0.018-0.168,0.029-0.333,0.043-0.499
			c-1.561-0.718-3.275-1.205-5.039-1.407c-0.08,0.406-0.146,0.829-0.191,1.267C79.83,51.176,80.711,54.002,82.143,54.178z"/>
		
			<radialGradient id="SVGID_5_" cx="-241.5972" cy="130.6016" r="18.4167" gradientTransform="matrix(0.8978 0.2661 -0.2435 0.9646 324.2596 3.3852)" gradientUnits="userSpaceOnUse">
			<stop  offset="0.1011" style="stop-color:#DF9000"/>
			<stop  offset="0.8764" style="stop-color:#BF8900"/>
		</radialGradient>
		<path fill="url(#SVGID_5_)" d="M86.199,60.305c1.59-0.162,2.846-0.344,4.434-1.354c0.705-0.449,1.377-0.865,1.99-1.129
			c-0.111-0.676-0.25-1.348-0.443-1.998c-0.348,0.051-0.699,0.121-1.057,0.215C88.232,56.791,86.131,58.646,86.199,60.305z"/>
		
			<radialGradient id="SVGID_6_" cx="-241.604" cy="130.5986" r="18.415" gradientTransform="matrix(0.8978 0.2661 -0.2435 0.9646 324.2596 3.3852)" gradientUnits="userSpaceOnUse">
			<stop  offset="0.1011" style="stop-color:#DF9000"/>
			<stop  offset="0.8764" style="stop-color:#BF8900"/>
		</radialGradient>
		<path fill="url(#SVGID_6_)" d="M72.715,53.648c1.1-0.762,0.908-3.257-0.363-5.81c-1.547,0.747-2.971,1.813-4.172,3.253
			C69.748,53.258,71.652,54.381,72.715,53.648z"/>
		<radialGradient id="SVGID_7_" cx="76.5469" cy="50.1489" r="25.6619" gradientUnits="userSpaceOnUse">
			<stop  offset="0" style="stop-color:#BF6000"/>
			<stop  offset="1" style="stop-color:#7F4700"/>
		</radialGradient>
		<path fill="url(#SVGID_7_)" d="M72.715,53.648c1.1-0.762,0.908-3.257-0.363-5.81c-1.547,0.747-2.971,1.813-4.172,3.253
			C69.748,53.258,71.652,54.381,72.715,53.648z"/>
		
			<radialGradient id="SVGID_8_" cx="-241.6001" cy="130.6016" r="18.4195" gradientTransform="matrix(0.8978 0.2661 -0.2435 0.9646 324.2596 3.3852)" gradientUnits="userSpaceOnUse">
			<stop  offset="0.1011" style="stop-color:#DF9000"/>
			<stop  offset="0.8764" style="stop-color:#BF8900"/>
		</radialGradient>
		<path fill="url(#SVGID_8_)" d="M66.453,64.025c0.895-1.023,0.158-3.387-1.637-5.521c-0.525,2.072-0.906,3.949-1.209,5.602
			C64.83,64.646,65.898,64.664,66.453,64.025z"/>
		<radialGradient id="SVGID_9_" cx="76.5479" cy="50.1479" r="25.6719" gradientUnits="userSpaceOnUse">
			<stop  offset="0" style="stop-color:#BF6000"/>
			<stop  offset="1" style="stop-color:#7F4700"/>
		</radialGradient>
		<path fill="url(#SVGID_9_)" d="M66.453,64.025c0.895-1.023,0.158-3.387-1.637-5.521c-0.525,2.072-0.906,3.949-1.209,5.602
			C64.83,64.646,65.898,64.664,66.453,64.025z"/>
		<radialGradient id="SVGID_10_" cx="76.5498" cy="50.1484" r="25.6755" gradientUnits="userSpaceOnUse">
			<stop  offset="0" style="stop-color:#BF6000"/>
			<stop  offset="1" style="stop-color:#7F4700"/>
		</radialGradient>
		<path fill="url(#SVGID_10_)" d="M74.789,55.682c-1.762-0.754-2.516,2.766-5.533,1.258c-1.59-0.795-2.766,2.766-0.754,3.02
			c1.402,0.172,2.072,1.936,2.773,2.99c0.563-1.373,1.303-2.422,2.4-2.904c0.391-0.172,0.75-0.287,1.096-0.379
			C75.381,57.85,75.619,56.039,74.789,55.682z"/>
		<radialGradient id="SVGID_11_" cx="76.5498" cy="50.1489" r="25.6718" gradientUnits="userSpaceOnUse">
			<stop  offset="0" style="stop-color:#BF6000"/>
			<stop  offset="1" style="stop-color:#7F4700"/>
		</radialGradient>
		<path fill="url(#SVGID_11_)" d="M76.549,50.149c-1.473-0.326-1.508,4.527,0.252,4.275S78.813,50.653,76.549,50.149z"/>
		<path fill="none" d="M83.82,60.582c-0.604,0.09-1.258,0.207-1.99,0.381c-0.92,0.217-1.635,0.504-2.203,0.822
			c0.225,0.049,0.455,0.104,0.695,0.184C81.742,62.441,83.605,62.469,83.82,60.582z"/>
		<radialGradient id="SVGID_12_" cx="76.5479" cy="50.1504" r="25.6718" gradientUnits="userSpaceOnUse">
			<stop  offset="0" style="stop-color:#BF6000"/>
			<stop  offset="1" style="stop-color:#7F4700"/>
		</radialGradient>
		<path fill="url(#SVGID_12_)" d="M92.623,57.822c-0.111-0.676-0.25-1.348-0.443-1.998c-0.348,0.051-0.699,0.121-1.057,0.215
			c-2.891,0.752-4.992,2.607-4.924,4.266c-0.707,0.07-1.482,0.143-2.379,0.277c0.014-0.119,0.021-0.24,0.021-0.373
			c0-2.264,2.012-2.516,1.762-4.023c-0.252-1.51-4.727-0.133-5.785,0c-1.219,0.152-2.156,1.963-2.6,3.426
			c1.373,0.408,2.061,1.543,2.342,2.162c0.023,0.004,0.043,0.008,0.066,0.012c-0.018,0.01-0.031,0.02-0.049,0.029
			c0.104,0.229,0.146,0.375,0.146,0.375s-3.193,6.135,5.639,7.691c4.531,0.799,6.992-3.012,7.439-7.646
			C92.938,60.803,92.869,59.297,92.623,57.822z"/>
		<radialGradient id="SVGID_13_" cx="76.5508" cy="50.1499" r="25.6704" gradientUnits="userSpaceOnUse">
			<stop  offset="0" style="stop-color:#BF6000"/>
			<stop  offset="1" style="stop-color:#7F4700"/>
		</radialGradient>
		<path fill="url(#SVGID_13_)" d="M66.49,66.244c-1.258,0.754-2.012,4.023-0.252,4.777c0.678,0.291,1.58,1.326,2.475,2.318
			c0.619-2.055,1.004-4.34,1.451-6.443C68.686,66.338,67.506,65.635,66.49,66.244z"/>
		<radialGradient id="SVGID_14_" cx="76.5508" cy="50.1489" r="25.6719" gradientUnits="userSpaceOnUse">
			<stop  offset="0" style="stop-color:#BF6000"/>
			<stop  offset="1" style="stop-color:#7F4700"/>
		</radialGradient>
		<path fill="url(#SVGID_14_)" d="M60.957,75.299c1.76,0.25,5.029,1.006,3.27-1.762c-0.768-1.205-1.344-2.268-1.896-2.938
			c-0.498,1.611-1.176,2.322-2.537,1.986C59.797,73.816,60.02,75.162,60.957,75.299z"/>
	</g>
	<g>
		
			<radialGradient id="SVGID_15_" cx="147.2031" cy="69.8887" r="5.3262" gradientTransform="matrix(0.6802 0 0 0.838 -43.6423 31.8836)" gradientUnits="userSpaceOnUse">
			<stop  offset="0.2135" style="stop-color:#3F3200"/>
			<stop  offset="1" style="stop-color:#5F4400"/>
		</radialGradient>
		<path fill="url(#SVGID_15_)" d="M51.805,92.143c0.051,0.023,0.102,0.039,0.156,0.092c1.064,1.051,5.074,2.092,9.205-4.352
			c-1.012,0.078-2.563,0.338-4.418,1.168C54.494,90.057,52.535,90.254,51.805,92.143z"/>
		
			<radialGradient id="SVGID_16_" cx="128.2422" cy="74.2695" r="8.5774" gradientTransform="matrix(0.6802 0 0 0.838 -43.6423 31.8836)" gradientUnits="userSpaceOnUse">
			<stop  offset="0.2135" style="stop-color:#3F3200"/>
			<stop  offset="1" style="stop-color:#5F4400"/>
		</radialGradient>
		<path fill="url(#SVGID_16_)" d="M43.09,97.379c6.4,1.313,7.391-3.813,8.253-5.025c-0.209-0.252-0.59-0.322-1.241-0.156
			c-2.608,0.639-8.61,0.4-12.522-1.207c-0.845-0.348-1.39-0.4-1.749-0.285C36.421,93.018,38.125,96.359,43.09,97.379z"/>
		
			<radialGradient id="SVGID_17_" cx="107.2324" cy="72.4395" r="6.3314" gradientTransform="matrix(0.6802 0 0 0.838 -43.6423 31.8836)" gradientUnits="userSpaceOnUse">
			<stop  offset="0.2135" style="stop-color:#3F3200"/>
			<stop  offset="1" style="stop-color:#5F4400"/>
		</radialGradient>
		<path fill="url(#SVGID_17_)" d="M29.001,94.809c3.938,0.193,5.494-2.189,6.111-4.109c-0.812-0.672-2.323,1.086-5.329,0.854
			c-2.632-0.201-4.947-0.789-6.301-1.195C25.188,92.988,27.138,94.717,29.001,94.809z"/>
	</g>
	<g>
		
			<radialGradient id="SVGID_18_" cx="110.4277" cy="65.1631" r="29.1478" gradientTransform="matrix(0.6802 0 0 0.838 -43.6423 31.8836)" gradientUnits="userSpaceOnUse">
			<stop  offset="0.2921" style="stop-color:#FFF5BD"/>
			<stop  offset="0.4157" style="stop-color:#FFAC56"/>
			<stop  offset="1" style="stop-color:#BE7B00"/>
		</radialGradient>
		<path fill="url(#SVGID_18_)" d="M61.773,80.832c-0.564-1.699-0.941-5.66,0.377-5.66c0.854,0,1.857-0.469,2.467-0.803
			c-0.207-0.959-0.508-1.891-0.877-2.783c-0.385,1.039-1.174,1.779-2.154,1.889c-1.697,0.189-2.83,2.074-5.094,2.074
			c-2.262,0-2.262-4.148-0.943-4.525c1.32-0.379,1.887-2.453,2.076-4.15c0.111-1.014,0.969-1.488,1.961-1.748
			c-0.578-0.658-1.16-1.268-1.729-1.824c-0.396,0.492-0.904,1.01-1.553,1.496c-2.264,1.699-4.338-3.584-6.791-6.412
			c-1.239-1.432-0.887-2.426-0.237-3.061c-2.027-2.85-4.465-7.467-6.439-14.775c-0.675,1.05-1.327,2.395-0.679,2.935
			c1.131,0.944,1.319,2.265,1.508,4.34c0.189,2.075-1.508,0.753-1.319,0c0.188-0.755-0.566-2.83-1.51-2.643
			c-0.942,0.19-1.698-3.018-1.887-4.525c-0.188-1.509,0.681-2.958,1.132-3.962c0.584-1.293,1.095-1.893,1.536-2.043
			c-0.565-4.043-0.664-8.242-0.598-12.315c-1.622-0.224-6.597-1.548-6.094,0.213c0.442,1.546-1.64,3.093-3.517,2.25
			c0.098,0.767,0.192,1.54,0.282,2.317c1.455,0.141,2.229,0.57,3.739-0.292c1.76-1.005,0.216-3.414,2.011-3.772
			c1.256-0.251,2.264,0.754,2.767,2.265c0.503,1.508-0.251,5.029-1.761,4.525c-1.508-0.503-4.024,2.515-5.785,3.268
			c-0.135,0.059-0.271,0.068-0.406,0.044c0.04,0.574,0.072,1.148,0.099,1.723c0.621-0.356,1.249-0.575,1.565-0.256
			c0.755,0.753,0,3.269,1.761,3.269c1.76,0,2.013,3.269,0.755,3.52c-0.968,0.194-2.973,1.871-4.192,2.178
			c-0.05,0.585-0.106,1.152-0.172,1.701c0.498,0.134,1.111,0.45,1.22,1.216c0.188,1.32,0.754,4.336,2.075,4.525
			c1.32,0.189,1.509,2.453,0,2.453c-1.509,0-3.207,0.566-4.15,1.697c-0.666,0.799-1.614,1.594-2.579,1.662
			c-0.814,1.492-1.696,2.771-2.583,3.951c0.655,0.049,1.395,0.24,1.767,0.799c0.754,1.133-0.377,2.641,0.188,4.15
			c0.566,1.508,0.943,3.205-1.131,3.018c-2.075-0.189-1.509-2.076-3.018-1.887c-0.777,0.098-1.551,0.141-2.173-0.068
			c-0.327,0.568-0.628,1.168-0.899,1.799c0.576-0.174,1.241-0.148,1.752,0.533c1.132,1.508-2.075,2.451-0.566,4.715
			c1.376,2.066-0.856,2.713-2.691,1.807c-0.143,2.441,0.085,4.617,0.531,6.52c0.942,0.076,2.112,0.303,2.727,0.916
			c1.132,1.131,3.206,1.131,3.772,2.83c0.566,1.697-2.263,0.941-2.829,2.264c-0.162,0.377-0.421,0.707-0.761,0.961
			c0.266,0.443,0.523,0.848,0.758,1.209c0.577,0.174,1.333,0.377,2.206,0.572c-0.866-1.029-1.492-2.113-0.506-1.99
			c1.509,0.189,3.772-1.695,3.207-3.016c-0.565-1.32,1.136-2.055,2.075-2.266c1.698-0.377,2.076,0.189,3.395,1.512
			c1.063,1.061,1.147,3.586,1.042,5.418c0.076,0.023,0.146,0.059,0.211,0.111c0.405-1.258,0.412-2.318,0.412-2.318
			s-0.029,0.99,0.308,2.324c0.358-0.115,0.904-0.063,1.749,0.285c1.883,0.773,4.249,1.227,6.49,1.42
			c0.022-0.904,0.374-2.078,1.859-2.715c2.642-1.131,3.395-2.074,4.527-3.961c0.589-0.984,2.83-0.188,3.583,1.51
			c0.754,1.695-1.697,1.885-2.451,3.018c-0.404,0.607-1.352,1.428-2.145,2.063c0.237-0.039,0.46-0.08,0.658-0.127
			c0.65-0.166,1.032-0.096,1.241,0.156c0.148-0.207,0.295-0.285,0.461-0.211c0.689-1.785,2.484-2.068,4.582-2.943
			c-0.717-0.232-1.215-0.689-1.215-1.578c0-2.643,1.697-3.963,1.697-3.963c0.945-0.941,3.02-1.885,3.963-0.564
			c0.66,0.926,1.043,2.119,1.475,2.82c0.279-0.531,0.559-1.102,0.834-1.711C62.316,83.928,62.213,82.154,61.773,80.832z
			 M49.325,60.082c1.697,0.943,0,3.018-2.828,6.037c-2.83,3.018-5.093,0.564-6.225-1.322c-1.132-1.885,1.32-3.395,2.829-3.395
			s0.505-4.859,1.509-4.715C45.93,56.877,47.628,59.139,49.325,60.082z M42.159,50.275c0.942,0.565,1.697-0.754,2.828-0.566
			c1.132,0.19,2.076,3.208,2.264,4.34c0.188,1.131-0.943,2.639-1.887,1.32c-0.941-1.32-2.64,0.375-4.903-0.189
			c-2.263-0.566-3.16-2.512-2.452-3.396C38.763,50.84,41.215,49.708,42.159,50.275z M37.192,36.758c-1.76,0-2.264-1.509-1.76-3.018
			c0.396-1.192,2.011-2.515,3.519-1.007C40.461,34.242,38.951,36.758,37.192,36.758z M35.934,49.332
			c-1.509-1.507-1.886-4.715-0.754-6.035c0.787-0.917,2.453-1.319,2.83,0.753c0.377,2.075,0.942,2.075,1.887,2.075
			c0.942,0,2.075,2.453,0.753,3.019C39.329,49.708,37.443,50.84,35.934,49.332z M33.859,55.555c0.229-1.594,3.018-1.885,4.15-0.752
			c1.131,1.129,2.263,2.074,3.395,1.885c1.132-0.188,2.075,2.451-0.188,3.207c-2.264,0.756-3.772,2.83-5.282,2.264
			c-1.509-0.566,0.378-3.396-0.942-3.961C33.671,57.631,33.671,56.877,33.859,55.555z M36.123,67.061
			c-1.698,0.379-1.131,2.832-2.451,4.152c-1.321,1.318-3.676-1.395-3.208-2.643c0.565-1.51,2.641-0.377,3.395-2.074
			c0.755-1.699,3.396-3.205,3.961-2.641C38.386,64.422,37.82,66.684,36.123,67.061z M31.973,56.5
			c0.844-0.422,0.189,2.262,1.132,2.639c0.943,0.379,0.189,1.887,0.754,3.207c0.566,1.322-2.074,5.471-3.96,4.15
			s0.942-4.338-0.377-5.094C28.201,60.65,28.955,58.008,31.973,56.5z M25.938,69.703c2.263,0.941,2.074,0.377,3.207,0.564
			c1.132,0.189,1.697,1.885,0.754,2.264c-0.943,0.377-1.887,1.887-3.018,2.83c-1.132,0.943-3.961-1.131-4.149-2.83
			C22.542,70.834,25.241,69.414,25.938,69.703z M28.955,80.266c0.189,1.887-0.377,3.959-2.641,3.205
			c-2.263-0.754-2.075-2.074-3.772-2.264c-1.697-0.188-3.207-4.715-0.566-4.338c2.641,0.379,6.979-2.451,8.11-1.697
			C31.002,75.781,28.766,78.377,28.955,80.266z M32.54,82.717c-1.699,0.754-3.018-2.262-1.699-3.961
			c1.321-1.697,3.584-1.32,4.715-0.943c0.326,0.109,0.823-0.053,1.391-0.318c-1.196,0.119-2.585-0.5-3.466-1.379
			c-1.509-1.508-1.886-4.527,0-4.338c1.887,0.189,2.641-1.133,3.019-2.453c0.376-1.32,1.83-2.459,2.828-2.641
			c2.075-0.377,4.904,1.699,3.961,3.02c-0.942,1.32,0.377,3.205-0.376,4.336c-0.755,1.133-3.018-0.564-3.962,1.887
			c-0.104,0.273-0.237,0.5-0.39,0.697c0.99-0.557,1.947-1.059,2.465-0.885c1.529,0.508-0.189,3.207-1.131,3.771
			c-0.944,0.566,1.697,4.148-0.944,3.771C36.312,82.906,34.237,81.963,32.54,82.717z M47.063,87.998
			c-1.509-0.377-2.83,1.697-5.093,2.643c-2.264,0.941-4.338-0.756-4.715-1.889c-0.378-1.131-1.509-3.961-0.567-4.148
			c2.83-0.566,3.961,0.566,6.413,1.32c2.453,0.754,4.338-2.076,5.281-0.754C49.325,86.49,48.572,88.375,47.063,87.998z
			 M48.948,83.471c1.133,0.943-1.697,1.699-4.715,1.32c-3.018-0.377-3.584-3.959-2.452-5.469s1.32-4.15,2.829-4.715
			c0.9-0.338,1.32,2.262,2.829,2.451S49.891,78,48.948,79.51C48.006,81.02,47.816,82.529,48.948,83.471z M44.799,71.588
			c-1.51-2.074,1.319-3.584,3.017-4.148c1.698-0.566,2.088-3.26,2.831-3.395c2.074-0.377,2.451,1.885,4.337,2.639
			c1.885,0.756-0.943,4.34-2.451,5.094c-1.512,0.754-0.189,3.771-2.832,4.715C47.063,77.436,46.307,73.664,44.799,71.588z
			 M60.264,79.699c-0.375,2.453-4.146,1.133-4.715,2.83c-0.564,1.695-3.205,3.018-4.902,0.941c-1.699-2.074-0.377-5.658,2.451-7.355
			c0.943-0.566,3.207,0,4.904-0.189C59.699,75.738,60.643,77.248,60.264,79.699z"/>
		
			<radialGradient id="SVGID_19_" cx="119.6699" cy="59.4648" r="37.622" gradientTransform="matrix(0.6802 0 0 0.838 -43.6423 31.8836)" gradientUnits="userSpaceOnUse">
			<stop  offset="0" style="stop-color:#BF6000"/>
			<stop  offset="1" style="stop-color:#7F5700"/>
		</radialGradient>
		<path fill="url(#SVGID_19_)" d="M32.665,33.11c1.76-0.753,4.276-3.771,5.785-3.268c1.509,0.503,2.264-3.018,1.761-4.525
			c-0.503-1.51-1.511-2.516-2.767-2.265c-1.794,0.359-0.251,2.767-2.011,3.772c-1.51,0.862-2.284,0.433-3.739,0.292
			c0.23,2.001,0.43,4.021,0.565,6.038C32.394,33.178,32.53,33.168,32.665,33.11z"/>
		<radialGradient id="SVGID_20_" cx="37.7583" cy="81.7109" r="28.0965" gradientUnits="userSpaceOnUse">
			<stop  offset="0" style="stop-color:#BF6000"/>
			<stop  offset="1" style="stop-color:#7F5700"/>
		</radialGradient>
		<path fill="url(#SVGID_20_)" d="M32.665,33.11c1.76-0.753,4.276-3.771,5.785-3.268c1.509,0.503,2.264-3.018,1.761-4.525
			c-0.503-1.51-1.511-2.516-2.767-2.265c-1.794,0.359-0.251,2.767-2.011,3.772c-1.51,0.862-2.284,0.433-3.739,0.292
			c0.23,2.001,0.43,4.021,0.565,6.038C32.394,33.178,32.53,33.168,32.665,33.11z"/>
		
			<radialGradient id="SVGID_21_" cx="119.6699" cy="59.459" r="37.6181" gradientTransform="matrix(0.6802 0 0 0.838 -43.6423 31.8836)" gradientUnits="userSpaceOnUse">
			<stop  offset="0" style="stop-color:#BF6000"/>
			<stop  offset="1" style="stop-color:#7F5700"/>
		</radialGradient>
		<path fill="url(#SVGID_21_)" d="M38.951,32.733c-1.508-1.508-3.123-0.185-3.519,1.007c-0.504,1.509,0,3.018,1.76,3.018
			C38.951,36.758,40.461,34.242,38.951,32.733z"/>
		<radialGradient id="SVGID_22_" cx="37.7573" cy="81.709" r="28.095" gradientUnits="userSpaceOnUse">
			<stop  offset="0" style="stop-color:#BF6000"/>
			<stop  offset="1" style="stop-color:#7F5700"/>
		</radialGradient>
		<path fill="url(#SVGID_22_)" d="M38.951,32.733c-1.508-1.508-3.123-0.185-3.519,1.007c-0.504,1.509,0,3.018,1.76,3.018
			C38.951,36.758,40.461,34.242,38.951,32.733z"/>
		
			<radialGradient id="SVGID_23_" cx="119.6699" cy="59.4629" r="37.6211" gradientTransform="matrix(0.6802 0 0 0.838 -43.6423 31.8836)" gradientUnits="userSpaceOnUse">
			<stop  offset="0" style="stop-color:#BF6000"/>
			<stop  offset="1" style="stop-color:#7F5700"/>
		</radialGradient>
		<path fill="url(#SVGID_23_)" d="M35.683,37.89c-1.761,0-1.006-2.516-1.761-3.269c-0.316-0.319-0.944-0.1-1.565,0.256
			c0.1,2.031,0.131,4.051,0.057,6.03c-0.036,0.94-0.096,1.823-0.168,2.68c1.219-0.307,3.224-1.983,4.192-2.178
			C37.695,41.159,37.443,37.89,35.683,37.89z"/>
		<radialGradient id="SVGID_24_" cx="37.7578" cy="81.7119" r="28.0969" gradientUnits="userSpaceOnUse">
			<stop  offset="0" style="stop-color:#BF6000"/>
			<stop  offset="1" style="stop-color:#7F5700"/>
		</radialGradient>
		<path fill="url(#SVGID_24_)" d="M35.683,37.89c-1.761,0-1.006-2.516-1.761-3.269c-0.316-0.319-0.944-0.1-1.565,0.256
			c0.1,2.031,0.131,4.051,0.057,6.03c-0.036,0.94-0.096,1.823-0.168,2.68c1.219-0.307,3.224-1.983,4.192-2.178
			C37.695,41.159,37.443,37.89,35.683,37.89z"/>
		
			<radialGradient id="SVGID_25_" cx="119.6709" cy="59.46" r="37.6177" gradientTransform="matrix(0.6802 0 0 0.838 -43.6423 31.8836)" gradientUnits="userSpaceOnUse">
			<stop  offset="0" style="stop-color:#BF6000"/>
			<stop  offset="1" style="stop-color:#7F5700"/>
		</radialGradient>
		<path fill="url(#SVGID_25_)" d="M40.083,36.694c-0.452,1.003-1.32,2.453-1.132,3.962c0.189,1.508,0.944,4.715,1.887,4.525
			c0.943-0.187,1.698,1.888,1.51,2.643c-0.189,0.753,1.508,2.075,1.319,0c-0.188-2.076-0.377-3.396-1.508-4.34
			c-0.648-0.54,0.003-1.884,0.679-2.935c-0.123-0.458-0.245-0.924-0.365-1.402c-0.366-1.466-0.64-2.972-0.853-4.496
			C41.178,34.801,40.667,35.401,40.083,36.694z"/>
		<radialGradient id="SVGID_26_" cx="37.7568" cy="81.7119" r="28.0961" gradientUnits="userSpaceOnUse">
			<stop  offset="0" style="stop-color:#BF6000"/>
			<stop  offset="1" style="stop-color:#7F5700"/>
		</radialGradient>
		<path fill="url(#SVGID_26_)" d="M40.083,36.694c-0.452,1.003-1.32,2.453-1.132,3.962c0.189,1.508,0.944,4.715,1.887,4.525
			c0.943-0.187,1.698,1.888,1.51,2.643c-0.189,0.753,1.508,2.075,1.319,0c-0.188-2.076-0.377-3.396-1.508-4.34
			c-0.648-0.54,0.003-1.884,0.679-2.935c-0.123-0.458-0.245-0.924-0.365-1.402c-0.366-1.466-0.64-2.972-0.853-4.496
			C41.178,34.801,40.667,35.401,40.083,36.694z"/>
		
			<radialGradient id="SVGID_27_" cx="119.6699" cy="59.4512" r="37.6117" gradientTransform="matrix(0.6802 0 0 0.838 -43.6423 31.8836)" gradientUnits="userSpaceOnUse">
			<stop  offset="0" style="stop-color:#BF6000"/>
			<stop  offset="1" style="stop-color:#7F5700"/>
		</radialGradient>
		<path fill="url(#SVGID_27_)" d="M40.649,49.144c1.321-0.566,0.189-3.019-0.753-3.019c-0.944,0-1.509,0-1.887-2.075
			c-0.376-2.073-2.042-1.67-2.83-0.753c-1.131,1.319-0.754,4.527,0.754,6.035C37.443,50.84,39.329,49.708,40.649,49.144z"/>
		<radialGradient id="SVGID_28_" cx="37.7568" cy="81.7061" r="28.0924" gradientUnits="userSpaceOnUse">
			<stop  offset="0" style="stop-color:#BF6000"/>
			<stop  offset="1" style="stop-color:#7F5700"/>
		</radialGradient>
		<path fill="url(#SVGID_28_)" d="M40.649,49.144c1.321-0.566,0.189-3.019-0.753-3.019c-0.944,0-1.509,0-1.887-2.075
			c-0.376-2.073-2.042-1.67-2.83-0.753c-1.131,1.319-0.754,4.527,0.754,6.035C37.443,50.84,39.329,49.708,40.649,49.144z"/>
		
			<radialGradient id="SVGID_29_" cx="119.6709" cy="59.4551" r="37.6135" gradientTransform="matrix(0.6802 0 0 0.838 -43.6423 31.8836)" gradientUnits="userSpaceOnUse">
			<stop  offset="0" style="stop-color:#BF6000"/>
			<stop  offset="1" style="stop-color:#7F5700"/>
		</radialGradient>
		<path fill="url(#SVGID_29_)" d="M31.218,55.18c0.943-1.131,2.641-1.697,4.15-1.697c1.509,0,1.32-2.264,0-2.453
			c-1.32-0.189-1.887-3.205-2.075-4.525c-0.109-0.766-0.722-1.082-1.22-1.216c-0.613,5.149-1.899,8.741-3.434,11.554
			C29.604,56.773,30.552,55.979,31.218,55.18z"/>
		<radialGradient id="SVGID_30_" cx="37.7573" cy="81.708" r="28.0932" gradientUnits="userSpaceOnUse">
			<stop  offset="0" style="stop-color:#BF6000"/>
			<stop  offset="1" style="stop-color:#7F5700"/>
		</radialGradient>
		<path fill="url(#SVGID_30_)" d="M31.218,55.18c0.943-1.131,2.641-1.697,4.15-1.697c1.509,0,1.32-2.264,0-2.453
			c-1.32-0.189-1.887-3.205-2.075-4.525c-0.109-0.766-0.722-1.082-1.22-1.216c-0.613,5.149-1.899,8.741-3.434,11.554
			C29.604,56.773,30.552,55.979,31.218,55.18z"/>
		
			<radialGradient id="SVGID_31_" cx="119.6699" cy="59.4668" r="37.6247" gradientTransform="matrix(0.6802 0 0 0.838 -43.6423 31.8836)" gradientUnits="userSpaceOnUse">
			<stop  offset="0" style="stop-color:#BF6000"/>
			<stop  offset="1" style="stop-color:#7F5700"/>
		</radialGradient>
		<path fill="url(#SVGID_31_)" d="M38.009,51.783c-0.708,0.885,0.189,2.83,2.452,3.396c2.263,0.564,3.961-1.131,4.903,0.189
			c0.943,1.318,2.075-0.189,1.887-1.32c-0.188-1.133-1.132-4.15-2.264-4.34c-1.131-0.188-1.886,1.132-2.828,0.566
			C41.215,49.708,38.763,50.84,38.009,51.783z"/>
		<radialGradient id="SVGID_32_" cx="37.7568" cy="81.7148" r="28.1004" gradientUnits="userSpaceOnUse">
			<stop  offset="0" style="stop-color:#BF6000"/>
			<stop  offset="1" style="stop-color:#7F5700"/>
		</radialGradient>
		<path fill="url(#SVGID_32_)" d="M38.009,51.783c-0.708,0.885,0.189,2.83,2.452,3.396c2.263,0.564,3.961-1.131,4.903,0.189
			c0.943,1.318,2.075-0.189,1.887-1.32c-0.188-1.133-1.132-4.15-2.264-4.34c-1.131-0.188-1.886,1.132-2.828,0.566
			C41.215,49.708,38.763,50.84,38.009,51.783z"/>
		
			<radialGradient id="SVGID_33_" cx="119.6699" cy="59.4619" r="37.6202" gradientTransform="matrix(0.6802 0 0 0.838 -43.6423 31.8836)" gradientUnits="userSpaceOnUse">
			<stop  offset="0" style="stop-color:#BF6000"/>
			<stop  offset="1" style="stop-color:#7F5700"/>
		</radialGradient>
		<path fill="url(#SVGID_33_)" d="M34.991,58.197c1.32,0.564-0.566,3.395,0.942,3.961c1.509,0.566,3.018-1.508,5.282-2.264
			c2.263-0.756,1.32-3.395,0.188-3.207c-1.131,0.189-2.263-0.756-3.395-1.885c-1.132-1.133-3.921-0.842-4.15,0.752
			C33.671,56.877,33.671,57.631,34.991,58.197z"/>
		<radialGradient id="SVGID_34_" cx="37.7578" cy="81.7129" r="28.0978" gradientUnits="userSpaceOnUse">
			<stop  offset="0" style="stop-color:#BF6000"/>
			<stop  offset="1" style="stop-color:#7F5700"/>
		</radialGradient>
		<path fill="url(#SVGID_34_)" d="M34.991,58.197c1.32,0.564-0.566,3.395,0.942,3.961c1.509,0.566,3.018-1.508,5.282-2.264
			c2.263-0.756,1.32-3.395,0.188-3.207c-1.131,0.189-2.263-0.756-3.395-1.885c-1.132-1.133-3.921-0.842-4.15,0.752
			C33.671,56.877,33.671,57.631,34.991,58.197z"/>
		
			<radialGradient id="SVGID_35_" cx="119.6689" cy="59.458" r="37.6154" gradientTransform="matrix(0.6802 0 0 0.838 -43.6423 31.8836)" gradientUnits="userSpaceOnUse">
			<stop  offset="0" style="stop-color:#BF6000"/>
			<stop  offset="1" style="stop-color:#7F5700"/>
		</radialGradient>
		<path fill="url(#SVGID_35_)" d="M29.521,61.402c1.319,0.756-1.51,3.773,0.377,5.094s4.526-2.828,3.96-4.15
			c-0.565-1.32,0.189-2.828-0.754-3.207c-0.943-0.377-0.288-3.061-1.132-2.639C28.955,58.008,28.201,60.65,29.521,61.402z"/>
		<radialGradient id="SVGID_36_" cx="37.7568" cy="81.709" r="28.0932" gradientUnits="userSpaceOnUse">
			<stop  offset="0" style="stop-color:#BF6000"/>
			<stop  offset="1" style="stop-color:#7F5700"/>
		</radialGradient>
		<path fill="url(#SVGID_36_)" d="M29.521,61.402c1.319,0.756-1.51,3.773,0.377,5.094s4.526-2.828,3.96-4.15
			c-0.565-1.32,0.189-2.828-0.754-3.207c-0.943-0.377-0.288-3.061-1.132-2.639C28.955,58.008,28.201,60.65,29.521,61.402z"/>
		
			<radialGradient id="SVGID_37_" cx="119.6699" cy="59.4629" r="37.6207" gradientTransform="matrix(0.6802 0 0 0.838 -43.6423 31.8836)" gradientUnits="userSpaceOnUse">
			<stop  offset="0" style="stop-color:#BF6000"/>
			<stop  offset="1" style="stop-color:#7F5700"/>
		</radialGradient>
		<path fill="url(#SVGID_37_)" d="M23.863,66.873c1.509-0.189,0.943,1.697,3.018,1.887c2.075,0.188,1.698-1.51,1.131-3.018
			c-0.565-1.51,0.566-3.018-0.188-4.15c-0.373-0.559-1.112-0.75-1.767-0.799c-1.566,2.086-3.14,3.871-4.367,6.012
			C22.312,67.014,23.086,66.971,23.863,66.873z"/>
		<radialGradient id="SVGID_38_" cx="37.7554" cy="81.71" r="28.0925" gradientUnits="userSpaceOnUse">
			<stop  offset="0" style="stop-color:#BF6000"/>
			<stop  offset="1" style="stop-color:#7F5700"/>
		</radialGradient>
		<path fill="url(#SVGID_38_)" d="M23.863,66.873c1.509-0.189,0.943,1.697,3.018,1.887c2.075,0.188,1.698-1.51,1.131-3.018
			c-0.565-1.51,0.566-3.018-0.188-4.15c-0.373-0.559-1.112-0.75-1.767-0.799c-1.566,2.086-3.14,3.871-4.367,6.012
			C22.312,67.014,23.086,66.971,23.863,66.873z"/>
		
			<radialGradient id="SVGID_39_" cx="119.6699" cy="59.46" r="37.6182" gradientTransform="matrix(0.6802 0 0 0.838 -43.6423 31.8836)" gradientUnits="userSpaceOnUse">
			<stop  offset="0" style="stop-color:#BF6000"/>
			<stop  offset="1" style="stop-color:#7F5700"/>
		</radialGradient>
		<path fill="url(#SVGID_39_)" d="M21.977,73.852c-1.509-2.264,1.698-3.207,0.566-4.715c-0.511-0.682-1.176-0.707-1.752-0.533
			c-0.387,0.908-0.713,1.889-0.952,2.984c-0.312,1.438-0.478,2.787-0.553,4.07C21.121,76.564,23.353,75.918,21.977,73.852z"/>
		<radialGradient id="SVGID_40_" cx="37.7573" cy="81.7109" r="28.0957" gradientUnits="userSpaceOnUse">
			<stop  offset="0" style="stop-color:#BF6000"/>
			<stop  offset="1" style="stop-color:#7F5700"/>
		</radialGradient>
		<path fill="url(#SVGID_40_)" d="M21.977,73.852c-1.509-2.264,1.698-3.207,0.566-4.715c-0.511-0.682-1.176-0.707-1.752-0.533
			c-0.387,0.908-0.713,1.889-0.952,2.984c-0.312,1.438-0.478,2.787-0.553,4.07C21.121,76.564,23.353,75.918,21.977,73.852z"/>
		
			<radialGradient id="SVGID_41_" cx="119.668" cy="59.46" r="37.6143" gradientTransform="matrix(0.6802 0 0 0.838 -43.6423 31.8836)" gradientUnits="userSpaceOnUse">
			<stop  offset="0" style="stop-color:#BF6000"/>
			<stop  offset="1" style="stop-color:#7F5700"/>
		</radialGradient>
		<path fill="url(#SVGID_41_)" d="M26.88,75.361c1.131-0.943,2.075-2.453,3.018-2.83c0.942-0.379,0.377-2.074-0.754-2.264
			c-1.132-0.188-0.943,0.377-3.207-0.564c-0.696-0.289-3.395,1.131-3.207,2.828C22.919,74.23,25.749,76.305,26.88,75.361z"/>
		<radialGradient id="SVGID_42_" cx="37.7578" cy="81.7129" r="28.0979" gradientUnits="userSpaceOnUse">
			<stop  offset="0" style="stop-color:#BF6000"/>
			<stop  offset="1" style="stop-color:#7F5700"/>
		</radialGradient>
		<path fill="url(#SVGID_42_)" d="M26.88,75.361c1.131-0.943,2.075-2.453,3.018-2.83c0.942-0.379,0.377-2.074-0.754-2.264
			c-1.132-0.188-0.943,0.377-3.207-0.564c-0.696-0.289-3.395,1.131-3.207,2.828C22.919,74.23,25.749,76.305,26.88,75.361z"/>
		
			<radialGradient id="SVGID_43_" cx="119.6709" cy="59.46" r="37.6172" gradientTransform="matrix(0.6802 0 0 0.838 -43.6423 31.8836)" gradientUnits="userSpaceOnUse">
			<stop  offset="0" style="stop-color:#BF6000"/>
			<stop  offset="1" style="stop-color:#7F5700"/>
		</radialGradient>
		<path fill="url(#SVGID_43_)" d="M33.859,66.496c-0.754,1.697-2.83,0.564-3.395,2.074c-0.468,1.248,1.887,3.961,3.208,2.643
			c1.32-1.32,0.753-3.773,2.451-4.152c1.698-0.377,2.264-2.639,1.698-3.205C37.255,63.291,34.614,64.797,33.859,66.496z"/>
		<radialGradient id="SVGID_44_" cx="37.7578" cy="81.7129" r="28.1001" gradientUnits="userSpaceOnUse">
			<stop  offset="0" style="stop-color:#BF6000"/>
			<stop  offset="1" style="stop-color:#7F5700"/>
		</radialGradient>
		<path fill="url(#SVGID_44_)" d="M33.859,66.496c-0.754,1.697-2.83,0.564-3.395,2.074c-0.468,1.248,1.887,3.961,3.208,2.643
			c1.32-1.32,0.753-3.773,2.451-4.152c1.698-0.377,2.264-2.639,1.698-3.205C37.255,63.291,34.614,64.797,33.859,66.496z"/>
		
			<radialGradient id="SVGID_45_" cx="119.6699" cy="59.4619" r="37.6192" gradientTransform="matrix(0.6802 0 0 0.838 -43.6423 31.8836)" gradientUnits="userSpaceOnUse">
			<stop  offset="0" style="stop-color:#BF6000"/>
			<stop  offset="1" style="stop-color:#7F5700"/>
		</radialGradient>
		<path fill="url(#SVGID_45_)" d="M43.101,61.402c-1.509,0-3.961,1.51-2.829,3.395c1.131,1.887,3.395,4.34,6.225,1.322
			c2.828-3.02,4.525-5.094,2.828-6.037c-1.696-0.943-3.395-3.205-4.715-3.395C43.606,56.543,44.61,61.402,43.101,61.402z"/>
		<radialGradient id="SVGID_46_" cx="37.7583" cy="81.7129" r="28.0962" gradientUnits="userSpaceOnUse">
			<stop  offset="0" style="stop-color:#BF6000"/>
			<stop  offset="1" style="stop-color:#7F5700"/>
		</radialGradient>
		<path fill="url(#SVGID_46_)" d="M43.101,61.402c-1.509,0-3.961,1.51-2.829,3.395c1.131,1.887,3.395,4.34,6.225,1.322
			c2.828-3.02,4.525-5.094,2.828-6.037c-1.696-0.943-3.395-3.205-4.715-3.395C43.606,56.543,44.61,61.402,43.101,61.402z"/>
		
			<radialGradient id="SVGID_47_" cx="119.6709" cy="59.4561" r="37.6162" gradientTransform="matrix(0.6802 0 0 0.838 -43.6423 31.8836)" gradientUnits="userSpaceOnUse">
			<stop  offset="0" style="stop-color:#BF6000"/>
			<stop  offset="1" style="stop-color:#7F5700"/>
		</radialGradient>
		<path fill="url(#SVGID_47_)" d="M49.514,58.385c2.453,2.828,4.527,8.111,6.791,6.412c0.648-0.486,1.156-1.004,1.553-1.496
			c-2.439-2.387-4.57-3.783-4.57-3.783c-0.229-0.174-1.898-1.227-4.01-4.193C48.627,55.959,48.275,56.953,49.514,58.385z"/>
		<radialGradient id="SVGID_48_" cx="37.7583" cy="81.708" r="28.094" gradientUnits="userSpaceOnUse">
			<stop  offset="0" style="stop-color:#BF6000"/>
			<stop  offset="1" style="stop-color:#7F5700"/>
		</radialGradient>
		<path fill="url(#SVGID_48_)" d="M49.514,58.385c2.453,2.828,4.527,8.111,6.791,6.412c0.648-0.486,1.156-1.004,1.553-1.496
			c-2.439-2.387-4.57-3.783-4.57-3.783c-0.229-0.174-1.898-1.227-4.01-4.193C48.627,55.959,48.275,56.953,49.514,58.385z"/>
		
			<radialGradient id="SVGID_49_" cx="119.6699" cy="59.459" r="37.6178" gradientTransform="matrix(0.6802 0 0 0.838 -43.6423 31.8836)" gradientUnits="userSpaceOnUse">
			<stop  offset="0" style="stop-color:#BF6000"/>
			<stop  offset="1" style="stop-color:#7F5700"/>
		</radialGradient>
		<path fill="url(#SVGID_49_)" d="M52.533,71.777c1.508-0.754,4.336-4.338,2.451-5.094c-1.887-0.754-2.264-3.016-4.337-2.639
			c-0.743,0.135-1.133,2.828-2.831,3.395c-1.697,0.564-4.526,2.074-3.017,4.148c1.508,2.076,2.264,5.848,4.902,4.904
			C52.344,75.549,51.021,72.531,52.533,71.777z"/>
		<radialGradient id="SVGID_50_" cx="37.7583" cy="81.7109" r="28.0945" gradientUnits="userSpaceOnUse">
			<stop  offset="0" style="stop-color:#BF6000"/>
			<stop  offset="1" style="stop-color:#7F5700"/>
		</radialGradient>
		<path fill="url(#SVGID_50_)" d="M52.533,71.777c1.508-0.754,4.336-4.338,2.451-5.094c-1.887-0.754-2.264-3.016-4.337-2.639
			c-0.743,0.135-1.133,2.828-2.831,3.395c-1.697,0.564-4.526,2.074-3.017,4.148c1.508,2.076,2.264,5.848,4.902,4.904
			C52.344,75.549,51.021,72.531,52.533,71.777z"/>
		
			<radialGradient id="SVGID_51_" cx="119.6689" cy="59.459" r="37.6207" gradientTransform="matrix(0.6802 0 0 0.838 -43.6423 31.8836)" gradientUnits="userSpaceOnUse">
			<stop  offset="0" style="stop-color:#BF6000"/>
			<stop  offset="1" style="stop-color:#7F5700"/>
		</radialGradient>
		<path fill="url(#SVGID_51_)" d="M57.625,66.873c-0.189,1.697-0.756,3.771-2.076,4.15c-1.318,0.377-1.318,4.525,0.943,4.525
			c2.264,0,3.396-1.885,5.094-2.074c0.98-0.109,1.77-0.85,2.154-1.889c-1.018-2.457-2.561-4.643-4.154-6.461
			C58.594,65.385,57.736,65.859,57.625,66.873z"/>
		<radialGradient id="SVGID_52_" cx="37.7578" cy="81.7109" r="28.0966" gradientUnits="userSpaceOnUse">
			<stop  offset="0" style="stop-color:#BF6000"/>
			<stop  offset="1" style="stop-color:#7F5700"/>
		</radialGradient>
		<path fill="url(#SVGID_52_)" d="M57.625,66.873c-0.189,1.697-0.756,3.771-2.076,4.15c-1.318,0.377-1.318,4.525,0.943,4.525
			c2.264,0,3.396-1.885,5.094-2.074c0.98-0.109,1.77-0.85,2.154-1.889c-1.018-2.457-2.561-4.643-4.154-6.461
			C58.594,65.385,57.736,65.859,57.625,66.873z"/>
		
			<radialGradient id="SVGID_53_" cx="119.6855" cy="59.46" r="37.6028" gradientTransform="matrix(0.6802 0 0 0.838 -43.6423 31.8836)" gradientUnits="userSpaceOnUse">
			<stop  offset="0" style="stop-color:#BF6000"/>
			<stop  offset="1" style="stop-color:#7F5700"/>
		</radialGradient>
		<path fill="url(#SVGID_53_)" d="M64.617,74.369c-0.609,0.334-1.613,0.803-2.467,0.803c-1.318,0-0.941,3.961-0.377,5.66
			c0.439,1.322,0.543,3.096,1.367,3.371c0.275-0.605,0.549-1.246,0.822-1.936C65.057,79.494,65.143,76.83,64.617,74.369z"/>
		<radialGradient id="SVGID_54_" cx="37.7656" cy="81.7119" r="28.0871" gradientUnits="userSpaceOnUse">
			<stop  offset="0" style="stop-color:#BF6000"/>
			<stop  offset="1" style="stop-color:#7F5700"/>
		</radialGradient>
		<path fill="url(#SVGID_54_)" d="M64.617,74.369c-0.609,0.334-1.613,0.803-2.467,0.803c-1.318,0-0.941,3.961-0.377,5.66
			c0.439,1.322,0.543,3.096,1.367,3.371c0.275-0.605,0.549-1.246,0.822-1.936C65.057,79.494,65.143,76.83,64.617,74.369z"/>
		
			<radialGradient id="SVGID_55_" cx="119.6748" cy="59.46" r="37.6115" gradientTransform="matrix(0.6802 0 0 0.838 -43.6423 31.8836)" gradientUnits="userSpaceOnUse">
			<stop  offset="0" style="stop-color:#BF6000"/>
			<stop  offset="1" style="stop-color:#7F5700"/>
		</radialGradient>
		<path fill="url(#SVGID_55_)" d="M58.002,75.926c-1.697,0.189-3.961-0.377-4.904,0.189c-2.828,1.697-4.15,5.281-2.451,7.355
			c1.697,2.076,4.337,0.754,4.902-0.941c0.568-1.697,4.34-0.377,4.715-2.83C60.643,77.248,59.699,75.738,58.002,75.926z"/>
		<radialGradient id="SVGID_56_" cx="37.7593" cy="81.7109" r="28.093" gradientUnits="userSpaceOnUse">
			<stop  offset="0" style="stop-color:#BF6000"/>
			<stop  offset="1" style="stop-color:#7F5700"/>
		</radialGradient>
		<path fill="url(#SVGID_56_)" d="M58.002,75.926c-1.697,0.189-3.961-0.377-4.904,0.189c-2.828,1.697-4.15,5.281-2.451,7.355
			c1.697,2.076,4.337,0.754,4.902-0.941c0.568-1.697,4.34-0.377,4.715-2.83C60.643,77.248,59.699,75.738,58.002,75.926z"/>
		
			<radialGradient id="SVGID_57_" cx="119.667" cy="59.459" r="37.6221" gradientTransform="matrix(0.6802 0 0 0.838 -43.6423 31.8836)" gradientUnits="userSpaceOnUse">
			<stop  offset="0" style="stop-color:#BF6000"/>
			<stop  offset="1" style="stop-color:#7F5700"/>
		</radialGradient>
		<path fill="url(#SVGID_57_)" d="M56.869,83.658c0,0-1.697,1.32-1.697,3.963c0,0.889,0.498,1.346,1.215,1.578
			c0.121-0.049,0.238-0.094,0.361-0.148c1.855-0.83,3.406-1.09,4.418-1.168c0.379-0.59,0.762-1.248,1.141-1.969
			c-0.432-0.701-0.814-1.895-1.475-2.82C59.889,81.773,57.814,82.717,56.869,83.658z"/>
		<radialGradient id="SVGID_58_" cx="37.7539" cy="81.71" r="28.1006" gradientUnits="userSpaceOnUse">
			<stop  offset="0" style="stop-color:#BF6000"/>
			<stop  offset="1" style="stop-color:#7F5700"/>
		</radialGradient>
		<path fill="url(#SVGID_58_)" d="M56.869,83.658c0,0-1.697,1.32-1.697,3.963c0,0.889,0.498,1.346,1.215,1.578
			c0.121-0.049,0.238-0.094,0.361-0.148c1.855-0.83,3.406-1.09,4.418-1.168c0.379-0.59,0.762-1.248,1.141-1.969
			c-0.432-0.701-0.814-1.895-1.475-2.82C59.889,81.773,57.814,82.717,56.869,83.658z"/>
		
			<radialGradient id="SVGID_59_" cx="119.6699" cy="59.4609" r="37.62" gradientTransform="matrix(0.6802 0 0 0.838 -43.6423 31.8836)" gradientUnits="userSpaceOnUse">
			<stop  offset="0" style="stop-color:#BF6000"/>
			<stop  offset="1" style="stop-color:#7F5700"/>
		</radialGradient>
		<path fill="url(#SVGID_59_)" d="M38.951,75.926c0.944-2.451,3.208-0.754,3.962-1.887c0.753-1.131-0.566-3.016,0.376-4.336
			c0.943-1.32-1.886-3.396-3.961-3.02c-0.999,0.182-2.452,1.32-2.828,2.641c-0.378,1.32-1.132,2.643-3.019,2.453
			c-1.886-0.189-1.509,2.83,0,4.338c0.88,0.879,2.27,1.498,3.466,1.379c0.504-0.238,1.063-0.561,1.614-0.871
			C38.714,76.426,38.847,76.199,38.951,75.926z"/>
		<radialGradient id="SVGID_60_" cx="37.7573" cy="81.7119" r="28.0966" gradientUnits="userSpaceOnUse">
			<stop  offset="0" style="stop-color:#BF6000"/>
			<stop  offset="1" style="stop-color:#7F5700"/>
		</radialGradient>
		<path fill="url(#SVGID_60_)" d="M38.951,75.926c0.944-2.451,3.208-0.754,3.962-1.887c0.753-1.131-0.566-3.016,0.376-4.336
			c0.943-1.32-1.886-3.396-3.961-3.02c-0.999,0.182-2.452,1.32-2.828,2.641c-0.378,1.32-1.132,2.643-3.019,2.453
			c-1.886-0.189-1.509,2.83,0,4.338c0.88,0.879,2.27,1.498,3.466,1.379c0.504-0.238,1.063-0.561,1.614-0.871
			C38.714,76.426,38.847,76.199,38.951,75.926z"/>
		
			<radialGradient id="SVGID_61_" cx="119.6719" cy="59.4609" r="37.6121" gradientTransform="matrix(0.6802 0 0 0.838 -43.6423 31.8836)" gradientUnits="userSpaceOnUse">
			<stop  offset="0" style="stop-color:#BF6000"/>
			<stop  offset="1" style="stop-color:#7F5700"/>
		</radialGradient>
		<path fill="url(#SVGID_61_)" d="M47.439,77.059c-1.509-0.189-1.929-2.789-2.829-2.451c-1.509,0.564-1.696,3.205-2.829,4.715
			s-0.566,5.092,2.452,5.469c3.018,0.379,5.848-0.377,4.715-1.32c-1.132-0.941-0.941-2.451,0-3.961
			C49.891,78,48.948,77.248,47.439,77.059z"/>
		<radialGradient id="SVGID_62_" cx="37.7578" cy="81.7119" r="28.0951" gradientUnits="userSpaceOnUse">
			<stop  offset="0" style="stop-color:#BF6000"/>
			<stop  offset="1" style="stop-color:#7F5700"/>
		</radialGradient>
		<path fill="url(#SVGID_62_)" d="M47.439,77.059c-1.509-0.189-1.929-2.789-2.829-2.451c-1.509,0.564-1.696,3.205-2.829,4.715
			s-0.566,5.092,2.452,5.469c3.018,0.379,5.848-0.377,4.715-1.32c-1.132-0.941-0.941-2.451,0-3.961
			C49.891,78,48.948,77.248,47.439,77.059z"/>
		
			<radialGradient id="SVGID_63_" cx="119.6699" cy="59.458" r="37.6202" gradientTransform="matrix(0.6802 0 0 0.838 -43.6423 31.8836)" gradientUnits="userSpaceOnUse">
			<stop  offset="0" style="stop-color:#BF6000"/>
			<stop  offset="1" style="stop-color:#7F5700"/>
		</radialGradient>
		<path fill="url(#SVGID_63_)" d="M39.896,79.51c0.942-0.564,2.661-3.264,1.131-3.771c-0.519-0.174-1.475,0.328-2.465,0.885
			c-0.417,0.541-0.987,0.809-1.614,0.871c-0.568,0.266-1.065,0.428-1.391,0.318c-1.131-0.377-3.395-0.754-4.715,0.943
			c-1.319,1.699,0,4.715,1.699,3.961c1.697-0.754,3.772,0.189,6.412,0.564C41.592,83.658,38.951,80.076,39.896,79.51z"/>
		
			<radialGradient id="SVGID_64_" cx="119.6709" cy="59.4707" r="37.6897" gradientTransform="matrix(0.6802 0 0 0.838 -43.6423 31.8836)" gradientUnits="userSpaceOnUse">
			<stop  offset="0" style="stop-color:#BF6000"/>
			<stop  offset="1" style="stop-color:#7F5700"/>
		</radialGradient>
		<path fill="url(#SVGID_64_)" d="M38.562,76.623c-0.552,0.311-1.11,0.633-1.614,0.871C37.575,77.432,38.145,77.164,38.562,76.623z"
			/>
		<radialGradient id="SVGID_65_" cx="37.7583" cy="81.7168" r="28.1301" gradientUnits="userSpaceOnUse">
			<stop  offset="0" style="stop-color:#BF6000"/>
			<stop  offset="1" style="stop-color:#7F5700"/>
		</radialGradient>
		<path fill="url(#SVGID_65_)" d="M38.562,76.623c-0.552,0.311-1.11,0.633-1.614,0.871C37.575,77.432,38.145,77.164,38.562,76.623z"
			/>
		<radialGradient id="SVGID_66_" cx="37.7583" cy="81.7168" r="28.1301" gradientUnits="userSpaceOnUse">
			<stop  offset="0" style="stop-color:#BF6000"/>
			<stop  offset="1" style="stop-color:#7F5700"/>
		</radialGradient>
		<path fill="url(#SVGID_66_)" d="M38.562,76.623c-0.552,0.311-1.11,0.633-1.614,0.871C37.575,77.432,38.145,77.164,38.562,76.623z"
			/>
		
			<radialGradient id="SVGID_67_" cx="119.6699" cy="59.459" r="37.6184" gradientTransform="matrix(0.6802 0 0 0.838 -43.6423 31.8836)" gradientUnits="userSpaceOnUse">
			<stop  offset="0" style="stop-color:#BF6000"/>
			<stop  offset="1" style="stop-color:#7F5700"/>
		</radialGradient>
		<path fill="url(#SVGID_67_)" d="M30.087,75.172c-1.132-0.754-5.47,2.076-8.11,1.697c-2.641-0.377-1.131,4.15,0.566,4.338
			c1.697,0.189,1.509,1.51,3.772,2.264c2.264,0.754,2.83-1.318,2.641-3.205C28.766,78.377,31.002,75.781,30.087,75.172z"/>
		<radialGradient id="SVGID_68_" cx="37.7573" cy="81.71" r="28.0976" gradientUnits="userSpaceOnUse">
			<stop  offset="0" style="stop-color:#BF6000"/>
			<stop  offset="1" style="stop-color:#7F5700"/>
		</radialGradient>
		<path fill="url(#SVGID_68_)" d="M30.087,75.172c-1.132-0.754-5.47,2.076-8.11,1.697c-2.641-0.377-1.131,4.15,0.566,4.338
			c1.697,0.189,1.509,1.51,3.772,2.264c2.264,0.754,2.83-1.318,2.641-3.205C28.766,78.377,31.002,75.781,30.087,75.172z"/>
		
			<radialGradient id="SVGID_69_" cx="119.668" cy="59.459" r="37.6169" gradientTransform="matrix(0.6802 0 0 0.838 -43.6423 31.8836)" gradientUnits="userSpaceOnUse">
			<stop  offset="0" style="stop-color:#BF6000"/>
			<stop  offset="1" style="stop-color:#7F5700"/>
		</radialGradient>
		<path fill="url(#SVGID_69_)" d="M23.485,88.188c0.566-1.322,3.395-0.566,2.829-2.264c-0.566-1.699-2.64-1.699-3.772-2.83
			c-0.615-0.613-1.785-0.84-2.727-0.916c0.69,2.947,1.874,5.258,2.909,6.971C23.064,88.895,23.324,88.564,23.485,88.188z"/>
		<radialGradient id="SVGID_70_" cx="37.7559" cy="81.7109" r="28.0931" gradientUnits="userSpaceOnUse">
			<stop  offset="0" style="stop-color:#BF6000"/>
			<stop  offset="1" style="stop-color:#7F5700"/>
		</radialGradient>
		<path fill="url(#SVGID_70_)" d="M23.485,88.188c0.566-1.322,3.395-0.566,2.829-2.264c-0.566-1.699-2.64-1.699-3.772-2.83
			c-0.615-0.613-1.785-0.84-2.727-0.916c0.69,2.947,1.874,5.258,2.909,6.971C23.064,88.895,23.324,88.564,23.485,88.188z"/>
		
			<radialGradient id="SVGID_71_" cx="119.6709" cy="59.457" r="37.6288" gradientTransform="matrix(0.6802 0 0 0.838 -43.6423 31.8836)" gradientUnits="userSpaceOnUse">
			<stop  offset="0" style="stop-color:#BF6000"/>
			<stop  offset="1" style="stop-color:#7F5700"/>
		</radialGradient>
		<path fill="url(#SVGID_71_)" d="M33.859,85.17c-1.319-1.322-1.697-1.889-3.395-1.512c-0.938,0.211-2.64,0.945-2.075,2.266
			c0.566,1.32-1.697,3.205-3.207,3.016c-0.986-0.123-0.36,0.961,0.506,1.99c1.181,0.262,2.582,0.506,4.095,0.623
			c2.765,0.213,4.263-1.248,5.117-0.965C35.006,88.756,34.921,86.23,33.859,85.17z"/>
		<radialGradient id="SVGID_72_" cx="37.7573" cy="81.71" r="28.1008" gradientUnits="userSpaceOnUse">
			<stop  offset="0" style="stop-color:#BF6000"/>
			<stop  offset="1" style="stop-color:#7F5700"/>
		</radialGradient>
		<path fill="url(#SVGID_72_)" d="M33.859,85.17c-1.319-1.322-1.697-1.889-3.395-1.512c-0.938,0.211-2.64,0.945-2.075,2.266
			c0.566,1.32-1.697,3.205-3.207,3.016c-0.986-0.123-0.36,0.961,0.506,1.99c1.181,0.262,2.582,0.506,4.095,0.623
			c2.765,0.213,4.263-1.248,5.117-0.965C35.006,88.756,34.921,86.23,33.859,85.17z"/>
		
			<radialGradient id="SVGID_73_" cx="119.6699" cy="59.46" r="37.6197" gradientTransform="matrix(0.6802 0 0 0.838 -43.6423 31.8836)" gradientUnits="userSpaceOnUse">
			<stop  offset="0" style="stop-color:#BF6000"/>
			<stop  offset="1" style="stop-color:#7F5700"/>
		</radialGradient>
		<path fill="url(#SVGID_73_)" d="M43.101,85.924c-2.452-0.754-3.583-1.887-6.413-1.32c-0.942,0.188,0.189,3.018,0.567,4.148
			c0.377,1.133,2.452,2.83,4.715,1.889c2.263-0.945,3.584-3.02,5.093-2.643s2.262-1.508,1.319-2.828
			C47.439,83.848,45.554,86.678,43.101,85.924z"/>
		<radialGradient id="SVGID_74_" cx="37.7578" cy="81.7119" r="28.0949" gradientUnits="userSpaceOnUse">
			<stop  offset="0" style="stop-color:#BF6000"/>
			<stop  offset="1" style="stop-color:#7F5700"/>
		</radialGradient>
		<path fill="url(#SVGID_74_)" d="M43.101,85.924c-2.452-0.754-3.583-1.887-6.413-1.32c-0.942,0.188,0.189,3.018,0.567,4.148
			c0.377,1.133,2.452,2.83,4.715,1.889c2.263-0.945,3.584-3.02,5.093-2.643s2.262-1.508,1.319-2.828
			C47.439,83.848,45.554,86.678,43.101,85.924z"/>
		
			<radialGradient id="SVGID_75_" cx="119.6699" cy="59.459" r="37.6195" gradientTransform="matrix(0.6802 0 0 0.838 -43.6423 31.8836)" gradientUnits="userSpaceOnUse">
			<stop  offset="0" style="stop-color:#BF6000"/>
			<stop  offset="1" style="stop-color:#7F5700"/>
		</radialGradient>
		<path fill="url(#SVGID_75_)" d="M51.59,90.262c0.754-1.133,3.205-1.322,2.451-3.018c-0.754-1.697-2.994-2.494-3.583-1.51
			c-1.133,1.887-1.886,2.83-4.527,3.961c-1.485,0.637-1.837,1.811-1.859,2.715c2.061,0.18,4.008,0.137,5.374-0.086
			C50.238,91.689,51.186,90.869,51.59,90.262z"/>
		<radialGradient id="SVGID_76_" cx="37.7573" cy="81.7119" r="28.0962" gradientUnits="userSpaceOnUse">
			<stop  offset="0" style="stop-color:#BF6000"/>
			<stop  offset="1" style="stop-color:#7F5700"/>
		</radialGradient>
		<path fill="url(#SVGID_76_)" d="M51.59,90.262c0.754-1.133,3.205-1.322,2.451-3.018c-0.754-1.697-2.994-2.494-3.583-1.51
			c-1.133,1.887-1.886,2.83-4.527,3.961c-1.485,0.637-1.837,1.811-1.859,2.715c2.061,0.18,4.008,0.137,5.374-0.086
			C50.238,91.689,51.186,90.869,51.59,90.262z"/>
	</g>
	<g>
		
			<radialGradient id="SVGID_77_" cx="169.1738" cy="145.1484" r="8.5985" gradientTransform="matrix(0.6481 -0.1934 0.2193 0.7352 -114.4012 -64.7942)" gradientUnits="userSpaceOnUse">
			<stop  offset="0" style="stop-color:#E9FF9F"/>
			<stop  offset="0.1021" style="stop-color:#E7ED86"/>
			<stop  offset="0.3152" style="stop-color:#E4CC56"/>
			<stop  offset="0.5181" style="stop-color:#E2B231"/>
			<stop  offset="0.7055" style="stop-color:#E09F16"/>
			<stop  offset="0.8719" style="stop-color:#DF9406"/>
			<stop  offset="1" style="stop-color:#DF9000"/>
		</radialGradient>
		<path fill="url(#SVGID_77_)" d="M32.58,9.243c0,0,0.567-9.541-7.48-6.207c-8.047,3.334-1.988,10.857-1.179,12.896
			C24.732,17.973,33.154,13.863,32.58,9.243z"/>
		<radialGradient id="SVGID_78_" cx="27.7231" cy="10.8569" r="4.6409" gradientUnits="userSpaceOnUse">
			<stop  offset="0" style="stop-color:#140300"/>
			<stop  offset="1" style="stop-color:#3F1C00"/>
		</radialGradient>
		<path fill="url(#SVGID_78_)" d="M31.525,10.928c0,0,0.002-7.117-5.127-5c-5.129,2.117-0.924,8.218-0.322,9.802
			C26.679,17.314,32.063,14.474,31.525,10.928z"/>
	</g>
	<g>
		
			<radialGradient id="SVGID_79_" cx="-1147.3389" cy="-280.1064" r="8.5985" gradientTransform="matrix(-0.5372 -0.4381 -0.4849 0.5945 -692.9969 -323.0125)" gradientUnits="userSpaceOnUse">
			<stop  offset="0" style="stop-color:#E9FF9F"/>
			<stop  offset="0.1021" style="stop-color:#E7ED86"/>
			<stop  offset="0.3152" style="stop-color:#E4CC56"/>
			<stop  offset="0.5181" style="stop-color:#E2B231"/>
			<stop  offset="0.7055" style="stop-color:#E09F16"/>
			<stop  offset="0.8719" style="stop-color:#DF9406"/>
			<stop  offset="1" style="stop-color:#DF9000"/>
		</radialGradient>
		<path fill="url(#SVGID_79_)" d="M53.975,10.954c0,0,3.078-9.079,9.393-2.771c6.316,6.306-2.238,10.866-3.773,12.435
			C58.061,22.187,51.684,15.011,53.975,10.954z"/>
		
			<radialGradient id="SVGID_80_" cx="21.9526" cy="43.8535" r="4.802" gradientTransform="matrix(0.9801 0.1983 -0.1983 0.9801 45.1952 -32.9017)" gradientUnits="userSpaceOnUse">
			<stop  offset="0" style="stop-color:#140300"/>
			<stop  offset="1" style="stop-color:#3F1C00"/>
		</radialGradient>
		<path fill="url(#SVGID_80_)" d="M54.328,12.938c0,0,2.695-6.603,6.721-2.592c4.029,4.011-2.24,7.994-3.408,9.223
			C56.475,20.797,52.48,16.013,54.328,12.938z"/>
	</g>
	
		<radialGradient id="SVGID_81_" cx="24.459" cy="58.9971" r="5.6322" gradientTransform="matrix(1.533 0 0 1.1284 -10.5307 -16.9566)" gradientUnits="userSpaceOnUse">
		<stop  offset="0.1011" style="stop-color:#DF9000"/>
		<stop  offset="0.8764" style="stop-color:#E9FF9F"/>
	</radialGradient>
	<path fill="url(#SVGID_81_)" d="M21.83,50.024c0,0,0.836,2.861,5.971,2.861c5.136,0,6.662-3.781,6.662-3.781
		S23.633,46.344,21.83,50.024z"/>
	<g>
		<radialGradient id="SVGID_82_" cx="26.7197" cy="42.3042" r="47.8831" gradientUnits="userSpaceOnUse">
			<stop  offset="0.1966" style="stop-color:#FFF5BD"/>
			<stop  offset="0.2865" style="stop-color:#FFC76E"/>
			<stop  offset="1" style="stop-color:#AF6900"/>
		</radialGradient>
		<path fill="url(#SVGID_82_)" d="M60.816,19.358C55.367,7.985,42.289,8.142,36.675,9.048c0,0-6.416-0.544-12.574,4.527
			c-9.629,7.929-4.64,9.021-6.087,14.091c-0.68,2.376-1.586,3.951-2.447,5.433c2.143-0.852,4.88-1.779,7.483-2.176
			c5.399-0.826,5.7-5.78,5.7-5.78l1.2,1.239c0,0-0.301,4.954-5.699,5.779c-3.762,0.576-7.807,2.25-9.92,3.215
			c-0.466,0.983-0.862,2.066-1.115,3.431c-0.725,3.892-0.272,5.706,2.625,9.236c2.897,3.533,7.153,0.182,8.693,0.271
			c1.307,0.077,9.231,6.065,18.295,4.106c0.279-2.769,0.263-9.701-5.573-16.226c-7.512-8.396,2.639-14.085,2.639-14.085l1.856-0.181
			c0,0-11.03,5.775-2.969,14.117c6.021,6.231,6.221,12.885,5.937,15.855c1.001-0.342,2.012-0.787,3.023-1.357
			C56.436,45.652,66.602,31.431,60.816,19.358z"/>
		<radialGradient id="SVGID_83_" cx="26.7188" cy="42.3037" r="47.8872" gradientUnits="userSpaceOnUse">
			<stop  offset="0.2921" style="stop-color:#FFF5BD"/>
			<stop  offset="0.427" style="stop-color:#FFC76E"/>
			<stop  offset="1" style="stop-color:#B27800"/>
		</radialGradient>
		<path fill="url(#SVGID_83_)" d="M38.781,36.043c-8.061-8.342,2.969-14.117,2.969-14.117l-1.856,0.181
			c0,0-10.15,5.689-2.639,14.085c5.835,6.525,5.852,13.457,5.573,16.226c0.625-0.137,1.256-0.305,1.89-0.52
			C45.001,48.928,44.802,42.275,38.781,36.043z"/>
		
			<radialGradient id="SVGID_84_" cx="44.4258" cy="57.1084" r="11.0786" gradientTransform="matrix(1.3177 -0.1286 0.1003 1.0275 -24.801 -14.902)" gradientUnits="userSpaceOnUse">
			<stop  offset="0" style="stop-color:#140300"/>
			<stop  offset="1" style="stop-color:#3F1C00"/>
		</radialGradient>
		<path fill="url(#SVGID_84_)" d="M38.781,36.043c-8.061-8.342,2.969-14.117,2.969-14.117l-1.856,0.181
			c0,0-10.15,5.689-2.639,14.085c5.835,6.525,5.852,13.457,5.573,16.226c0.625-0.137,1.256-0.305,1.89-0.52
			C45.001,48.928,44.802,42.275,38.781,36.043z"/>
		<radialGradient id="SVGID_85_" cx="26.7192" cy="42.3037" r="47.8841" gradientUnits="userSpaceOnUse">
			<stop  offset="0.2921" style="stop-color:#FFF5BD"/>
			<stop  offset="0.427" style="stop-color:#FFC76E"/>
			<stop  offset="1" style="stop-color:#B27800"/>
		</radialGradient>
		<path fill="url(#SVGID_85_)" d="M29.948,26.381l-1.2-1.239c0,0-0.301,4.954-5.7,5.78c-2.603,0.397-5.34,1.324-7.483,2.176
			c-0.436,0.75-0.859,1.481-1.236,2.276c2.113-0.965,6.158-2.639,9.92-3.215C29.647,31.334,29.948,26.381,29.948,26.381z"/>
		
			<radialGradient id="SVGID_86_" cx="-14.3428" cy="59.0449" r="5.389" gradientTransform="matrix(1.5902 0 0 1.0943 43.6088 -34.0017)" gradientUnits="userSpaceOnUse">
			<stop  offset="0" style="stop-color:#140300"/>
			<stop  offset="1" style="stop-color:#3F1C00"/>
		</radialGradient>
		<path fill="url(#SVGID_86_)" d="M29.948,26.381l-1.2-1.239c0,0-0.301,4.954-5.7,5.78c-2.603,0.397-5.34,1.324-7.483,2.176
			c-0.436,0.75-0.859,1.481-1.236,2.276c2.113-0.965,6.158-2.639,9.92-3.215C29.647,31.334,29.948,26.381,29.948,26.381z"/>
	</g>
	<g>
		<g>
			<path fill="#FFFFFF" d="M23.049,18.542c3.458,0,6.272,2.815,6.272,6.273c0,3.459-2.814,6.275-6.272,6.275
				c-3.459,0-6.274-2.816-6.274-6.275C16.775,21.358,19.589,18.542,23.049,18.542z"/>
			
				<linearGradient id="SVGID_87_" gradientUnits="userSpaceOnUse" x1="27.5415" y1="24.8164" x2="41.2017" y2="24.8164" gradientTransform="matrix(-1 0 0 1 57.4189 0)">
				<stop  offset="0" style="stop-color:#272C34"/>
				<stop  offset="1" style="stop-color:#292933"/>
			</linearGradient>
			<path fill="url(#SVGID_87_)" d="M16.217,24.815c0,3.766,3.063,6.831,6.832,6.831c3.766,0,6.829-3.065,6.829-6.831
				c0-3.766-3.063-6.83-6.829-6.83C19.28,17.986,16.217,21.05,16.217,24.815z M16.775,24.815c0-3.458,2.814-6.273,6.274-6.273
				c3.458,0,6.272,2.815,6.272,6.273c0,3.459-2.814,6.275-6.272,6.275C19.589,31.09,16.775,28.274,16.775,24.815z"/>
		</g>
		
			<radialGradient id="SVGID_88_" cx="34.3711" cy="24.8154" r="6.3774" gradientTransform="matrix(-1 0 0 1 57.4189 0)" gradientUnits="userSpaceOnUse">
			<stop  offset="0" style="stop-color:#FFFFFF"/>
			<stop  offset="1" style="stop-color:#E5E5E5"/>
		</radialGradient>
		<circle fill="url(#SVGID_88_)" cx="23.048" cy="24.815" r="6.378"/>
		
			<linearGradient id="SVGID_89_" gradientUnits="userSpaceOnUse" x1="29.5303" y1="24.8154" x2="39.21" y2="24.8154" gradientTransform="matrix(-1 0 0 1 57.4189 0)">
			<stop  offset="0" style="stop-color:#F3AF18"/>
			<stop  offset="1" style="stop-color:#DF8000"/>
		</linearGradient>
		<circle fill="url(#SVGID_89_)" cx="23.049" cy="24.815" r="4.84"/>
		
			<radialGradient id="SVGID_90_" cx="34.3711" cy="24.8164" r="3.4827" gradientTransform="matrix(-1 0 0 1 57.4189 0)" gradientUnits="userSpaceOnUse">
			<stop  offset="0" style="stop-color:#1F1600"/>
			<stop  offset="1" style="stop-color:#000000"/>
		</radialGradient>
		<circle fill="url(#SVGID_90_)" cx="23.048" cy="24.815" r="3.483"/>
		
			<radialGradient id="SVGID_91_" cx="309.1289" cy="290.7139" r="1.8545" gradientTransform="matrix(-0.6642 -0.4101 -0.5253 0.8509 379.3198 -97.4959)" gradientUnits="userSpaceOnUse">
			<stop  offset="0" style="stop-color:#FFFFFF"/>
			<stop  offset="1" style="stop-color:#E5E5E5"/>
		</radialGradient>
		<path fill="url(#SVGID_91_)" d="M20.054,22.337c-0.541,0.871-0.424,1.917,0.255,2.338c0.681,0.419,1.667,0.052,2.207-0.816
			c0.538-0.875,0.421-1.918-0.258-2.338C21.578,21.099,20.589,21.466,20.054,22.337z"/>
		
			<radialGradient id="SVGID_92_" cx="-201.0474" cy="-145.2676" r="0.9739" gradientTransform="matrix(-0.6444 0.4405 0.5644 0.8255 -22.0567 235.8591)" gradientUnits="userSpaceOnUse">
			<stop  offset="0" style="stop-color:#FFFFFF"/>
			<stop  offset="1" style="stop-color:#E5E5E5"/>
		</radialGradient>
		<path fill="url(#SVGID_92_)" d="M24.882,27.81c0.306,0.444,0.832,0.613,1.177,0.372c0.347-0.234,0.383-0.785,0.08-1.23
			c-0.304-0.445-0.831-0.613-1.178-0.375C24.614,26.813,24.579,27.364,24.882,27.81z"/>
		
			<radialGradient id="SVGID_93_" cx="-138.3247" cy="-328.7314" r="0.9744" gradientTransform="matrix(-0.478 0.3268 0.4186 0.6124 95.2145 274.4133)" gradientUnits="userSpaceOnUse">
			<stop  offset="0" style="stop-color:#FFFFFF"/>
			<stop  offset="1" style="stop-color:#E5E5E5"/>
		</radialGradient>
		<path fill="url(#SVGID_93_)" d="M23.261,28.211c0.226,0.331,0.616,0.456,0.875,0.279c0.255-0.175,0.281-0.586,0.055-0.915
			c-0.225-0.33-0.614-0.455-0.872-0.279C23.064,27.471,23.036,27.881,23.261,28.211z"/>
	</g>
	<g>
		<g>
			<path fill="#FFFFFF" d="M43.741,22.258c4.283,0,7.767,3.492,7.767,7.774c0,4.287-3.484,7.774-7.767,7.774
				c-4.288,0-7.773-3.487-7.773-7.774C35.967,25.75,39.453,22.258,43.741,22.258z"/>
			
				<linearGradient id="SVGID_94_" gradientUnits="userSpaceOnUse" x1="5.2178" y1="30.0322" x2="22.144" y2="30.0322" gradientTransform="matrix(-1 0 0 1 57.4189 0)">
				<stop  offset="0" style="stop-color:#272C34"/>
				<stop  offset="1" style="stop-color:#292933"/>
			</linearGradient>
			<path fill="url(#SVGID_94_)" d="M35.275,30.032c0,4.667,3.795,8.463,8.466,8.463c4.664,0,8.46-3.796,8.46-8.463
				c0-4.666-3.796-8.462-8.46-8.462C39.07,21.569,35.275,25.366,35.275,30.032z M35.967,30.032c0-4.282,3.485-7.774,7.773-7.774
				c4.283,0,7.767,3.492,7.767,7.774c0,4.287-3.484,7.774-7.767,7.774C39.453,37.806,35.967,34.318,35.967,30.032z"/>
		</g>
		
			<radialGradient id="SVGID_95_" cx="13.6797" cy="30.0313" r="7.9014" gradientTransform="matrix(-1 0 0 1 57.4189 0)" gradientUnits="userSpaceOnUse">
			<stop  offset="0" style="stop-color:#FFFFFF"/>
			<stop  offset="1" style="stop-color:#E5E5E5"/>
		</radialGradient>
		<path fill="url(#SVGID_95_)" d="M35.836,30.032c0,4.366,3.537,7.899,7.905,7.899c4.36,0,7.902-3.533,7.902-7.899
			c0-4.365-3.542-7.899-7.902-7.899C39.373,22.132,35.836,25.667,35.836,30.032z"/>
		
			<linearGradient id="SVGID_96_" gradientUnits="userSpaceOnUse" x1="7.6831" y1="30.0322" x2="19.6777" y2="30.0322" gradientTransform="matrix(-1 0 0 1 57.4189 0)">
			<stop  offset="0" style="stop-color:#F3AF18"/>
			<stop  offset="1" style="stop-color:#DF8000"/>
		</linearGradient>
		<circle fill="url(#SVGID_96_)" cx="43.739" cy="30.032" r="5.997"/>
		
			<radialGradient id="SVGID_97_" cx="13.6797" cy="30.0332" r="4.3154" gradientTransform="matrix(-1 0 0 1 57.4189 0)" gradientUnits="userSpaceOnUse">
			<stop  offset="0" style="stop-color:#1F1600"/>
			<stop  offset="1" style="stop-color:#000000"/>
		</radialGradient>
		<circle fill="url(#SVGID_97_)" cx="43.739" cy="30.032" r="4.315"/>
		
			<radialGradient id="SVGID_98_" cx="283.8027" cy="284.1543" r="2.2969" gradientTransform="matrix(-0.6642 -0.4101 -0.5253 0.8509 379.3198 -97.4959)" gradientUnits="userSpaceOnUse">
			<stop  offset="0" style="stop-color:#FFFFFF"/>
			<stop  offset="1" style="stop-color:#E5E5E5"/>
		</radialGradient>
		<path fill="url(#SVGID_98_)" d="M40.027,26.962c-0.667,1.077-0.524,2.374,0.319,2.896c0.842,0.518,2.064,0.064,2.732-1.011
			c0.668-1.083,0.522-2.376-0.319-2.897C41.916,25.428,40.693,25.881,40.027,26.962z"/>
		
			<radialGradient id="SVGID_99_" cx="-219.3364" cy="-128.4473" r="1.2058" gradientTransform="matrix(-0.6444 0.4405 0.5644 0.8255 -22.0567 235.8591)" gradientUnits="userSpaceOnUse">
			<stop  offset="0" style="stop-color:#FFFFFF"/>
			<stop  offset="1" style="stop-color:#E5E5E5"/>
		</radialGradient>
		<path fill="url(#SVGID_99_)" d="M46.011,33.741c0.378,0.552,1.03,0.758,1.456,0.462c0.432-0.293,0.475-0.973,0.1-1.525
			c-0.377-0.551-1.029-0.76-1.458-0.464C45.678,32.504,45.637,33.191,46.011,33.741z"/>
		
			<radialGradient id="SVGID_100_" cx="-162.2559" cy="-306.2422" r="1.2075" gradientTransform="matrix(-0.478 0.3268 0.4186 0.6124 95.2145 274.4133)" gradientUnits="userSpaceOnUse">
			<stop  offset="0" style="stop-color:#FFFFFF"/>
			<stop  offset="1" style="stop-color:#E5E5E5"/>
		</radialGradient>
		<path fill="url(#SVGID_100_)" d="M44.001,34.238c0.279,0.41,0.763,0.563,1.084,0.346c0.317-0.219,0.349-0.726,0.071-1.133
			c-0.28-0.409-0.765-0.565-1.081-0.346C43.758,33.321,43.723,33.831,44.001,34.238z"/>
	</g>
	<g>
		
			<linearGradient id="SVGID_101_" gradientUnits="userSpaceOnUse" x1="17.0059" y1="35.0835" x2="17.0059" y2="47.0339" gradientTransform="matrix(0.897 0.0193 -0.0916 0.9855 14.0374 1.7641)">
			<stop  offset="0" style="stop-color:#000000"/>
			<stop  offset="0.2069" style="stop-color:#040404"/>
			<stop  offset="0.3965" style="stop-color:#0E0F0F"/>
			<stop  offset="0.5795" style="stop-color:#212121"/>
			<stop  offset="0.7583" style="stop-color:#3A3B3C"/>
			<stop  offset="0.9325" style="stop-color:#5B5C5D"/>
			<stop  offset="1" style="stop-color:#6A6B6C"/>
		</linearGradient>
		<path fill="url(#SVGID_101_)" d="M18.061,40.81c-0.451,3.216,5.281,6.335,6.779,6.559c1.499,0.225,8.158-2.565,8.364-5.223
			c0.205-2.654-2.731-4.173-6.914-4.542C22.11,37.235,18.375,38.581,18.061,40.81z"/>
		
			<linearGradient id="SVGID_102_" gradientUnits="userSpaceOnUse" x1="64.3652" y1="33.0664" x2="64.3652" y2="39.2036" gradientTransform="matrix(-0.9154 -0.089 -0.1392 0.985 89.6012 10.4323)">
			<stop  offset="0" style="stop-color:#8C8C8C"/>
			<stop  offset="0.1961" style="stop-color:#7A7A7A"/>
			<stop  offset="0.5908" style="stop-color:#4A4A4A"/>
			<stop  offset="1" style="stop-color:#131313"/>
		</linearGradient>
		<path fill="url(#SVGID_102_)" d="M19.057,40.744c-0.258,1.819,12.63,3.076,12.888,1.252c0.259-1.821-2.42-3.583-5.979-3.927
			C22.407,37.723,19.314,38.92,19.057,40.744z"/>
	</g>
</g>
</svg>
