<?xml version="1.0" encoding="utf-8"?>
<!-- Generator: Adobe Illustrator 14.0.0, SVG Export Plug-In . SVG Version: 6.00 Build 43363)  -->
<!DOCTYPE svg PUBLIC "-//W3C//DTD SVG 1.1//EN" "http://www.w3.org/Graphics/SVG/1.1/DTD/svg11.dtd">
<svg version="1.1" id="图层_1" xmlns="http://www.w3.org/2000/svg" xmlns:xlink="http://www.w3.org/1999/xlink" x="0px" y="0px"
	 width="50px" height="50px" viewBox="0 0 50 50" enable-background="new 0 0 50 50" xml:space="preserve">
<g>
	<path fill="#231F20" d="M24.867,39.27c0,0,2.141-3.697,6.979-3.441c0,0,0.574-2.678-2.582-2.869
		c-2.869-0.174-5.258,1.912-5.258,1.912S22.762,37.453,24.867,39.27z"/>
	<path fill="#231F20" d="M24.26,35.449c0,0-1.658,1.797-0.896,3.027c0.604,0.973,1.785,1.111,1.785,1.111l0.111-0.6
		c0,0-1.233-0.756-1.178-1.361s0.855-1.418,0.855-1.418L24.26,35.449z"/>
	<polygon fill="#231F20" points="25.261,38.988 26.229,40.523 25.315,39.604 25.16,41.264 25.03,39.689 24.49,40.998 24.875,39.258 
			"/>
	<path fill="#231F20" d="M25.344,37.715c0,0-3.409-3.262-4.436,0.818c0,0-4.898-3.795-7.913-0.521c0,0-7.344-5.531-9.967,2.092
		c0,0-0.85-7.971,3.521-12.152c0,0,10.283,7.742,16.25,2.568l3.02,2.291L25.344,37.715z"/>
	
		<linearGradient id="SVGID_1_" gradientUnits="userSpaceOnUse" x1="-3891.4551" y1="-3835.1606" x2="-3894.0142" y2="-3843.071" gradientTransform="matrix(0.4111 0 0 0.4111 1619.7701 1613.42)">
		<stop  offset="0" style="stop-color:#6D6E70"/>
		<stop  offset="1" style="stop-color:#231F20"/>
	</linearGradient>
	<path fill="url(#SVGID_1_)" d="M18.181,32.176c0,0,1.195,4.309,2.667,6.201c0,0-1.957-4.377-2.198-6.367L18.181,32.176z"/>
	
		<linearGradient id="SVGID_2_" gradientUnits="userSpaceOnUse" x1="-3909.2651" y1="-3838.5845" x2="-3909.9629" y2="-3846.2605" gradientTransform="matrix(0.4111 0 0 0.4111 1619.7701 1613.42)">
		<stop  offset="0" style="stop-color:#6D6E70"/>
		<stop  offset="1" style="stop-color:#231F20"/>
	</linearGradient>
	<path fill="url(#SVGID_2_)" d="M12.154,30.879c0,0-0.465,3.889,0.818,7.043c0,0-0.687-4.299-0.265-6.816L12.154,30.879z"/>
	<path fill="#4D4D4F" d="M21.763,31.262c0,0-10.201,2.658-15.247-5.408c0,0-5.665,9.121-3.391,15.296c0,0-0.684-7.652,3.277-12.229
		c0,0,8.972,6.473,16.487,2.322L21.763,31.262z"/>
	<circle fill="#4D4D4F" cx="6.551" cy="26.507" r="0.872"/>
	
		<radialGradient id="SVGID_3_" cx="-181.0137" cy="51.3262" r="1.6169" gradientTransform="matrix(1 0 0 1 189.1831 -25.2734)" gradientUnits="userSpaceOnUse">
		<stop  offset="0" style="stop-color:#FFDD00"/>
		<stop  offset="0.2807" style="stop-color:#FFD902"/>
		<stop  offset="0.5379" style="stop-color:#FDCE07"/>
		<stop  offset="0.7851" style="stop-color:#FBBC0F"/>
		<stop  offset="1" style="stop-color:#F9A51A"/>
	</radialGradient>
	<path fill="url(#SVGID_3_)" d="M6.487,25.952c0,0,1.093-0.694,2.129,0.103c0,0-1.359,0.283-1.77,0.865
		C6.846,26.92,5.999,26.709,6.487,25.952z"/>
	<path fill="#231F20" d="M30.6,35.18c0,0-0.83-6.174,3.342-4.543c0,0,0.684-6.157,5.133-6.043c0,0,1.139-9.124,8.439-5.703
		c0,0-5.133-6.157-11.178-5.93c0,0-1.596,12.772-9.465,13.457l-0.457,3.764L30.6,35.18z"/>
	
		<linearGradient id="SVGID_4_" gradientUnits="userSpaceOnUse" x1="-3858.9995" y1="-3855.3887" x2="-3862.9543" y2="-3865.1602" gradientTransform="matrix(0.4111 0 0 0.4111 1619.7701 1614.545)">
		<stop  offset="0" style="stop-color:#6D6E70"/>
		<stop  offset="1" style="stop-color:#231F20"/>
	</linearGradient>
	<path fill="url(#SVGID_4_)" d="M31.273,24.252c0,0,2.264,3.857,2.598,6.232c0,0-1.781-4.451-3.043-6.009L31.273,24.252z"/>
	
		<linearGradient id="SVGID_5_" gradientUnits="userSpaceOnUse" x1="-3846.9668" y1="-3868.5435" x2="-3856.0393" y2="-3881.5703" gradientTransform="matrix(0.4111 0 0 0.4111 1619.7701 1614.545)">
		<stop  offset="0" style="stop-color:#6D6E70"/>
		<stop  offset="1" style="stop-color:#231F20"/>
	</linearGradient>
	<path fill="url(#SVGID_5_)" d="M34.539,19.023c0,0,3.115,2.373,4.488,5.49c0,0-2.67-3.497-4.711-4.934L34.539,19.023z"/>
	
		<radialGradient id="SVGID_6_" cx="-3883.6846" cy="-3829.8843" r="15.2387" gradientTransform="matrix(0.4111 0 0 0.4111 1619.7701 1614.545)" gradientUnits="userSpaceOnUse">
		<stop  offset="0" style="stop-color:#BBBDBF"/>
		<stop  offset="1" style="stop-color:#000000"/>
	</radialGradient>
	<path fill="url(#SVGID_6_)" d="M25.568,28.383c0,0,3.989,1.549,4.618,3.322c0.627,1.771-0.592,5.346-5.208,5.152
		c-4.132-0.174-2.679-6.607-2.679-6.607L25.568,28.383z"/>
	<path fill="#4D4D4F" d="M28.127,26.189c0,0,9.008-5.474,6.727-14.71c0,0,10.492,2.28,13.344,8.21c0,0-5.018-5.816-11.063-6.158
		c0,0-1.596,10.948-9.809,13.457L28.127,26.189z"/>
	<circle fill="#4D4D4F" cx="35.299" cy="11.957" r="0.871"/>
	
		<radialGradient id="SVGID_7_" cx="-155.9312" cy="38.1553" r="2.2363" gradientTransform="matrix(1 0 0 1 189.1831 -25.2734)" gradientUnits="userSpaceOnUse">
		<stop  offset="0" style="stop-color:#FFDD00"/>
		<stop  offset="0.2807" style="stop-color:#FFD902"/>
		<stop  offset="0.5379" style="stop-color:#FDCE07"/>
		<stop  offset="0.7851" style="stop-color:#FBBC0F"/>
		<stop  offset="1" style="stop-color:#F9A51A"/>
	</radialGradient>
	<path fill="url(#SVGID_7_)" d="M35.029,11.419c0,0-1.313,0.329-1.461,1.627c0,0,1.15-0.779,1.855-0.668
		C35.424,12.378,35.711,11.721,35.029,11.419z"/>
	<path fill="#231F20" d="M29.85,32.57c0,0,2.422,0.326,2.621,1.76c0.156,1.135-0.666,1.994-0.666,1.994l-0.471-0.391
		c0,0,0.471-1.367,0.041-1.799c-0.43-0.43-1.564-0.547-1.564-0.547L29.85,32.57z"/>
	<polygon fill="#231F20" points="31.334,35.934 31.57,37.732 31.688,36.441 32.877,37.688 31.961,36.324 33.213,36.988 
		31.805,35.895 	"/>
	<path fill="#231F20" d="M22.514,20.409c0,0,4.226-8.348,4.023-11.673c1.365,0.296,6.813,5.38,0.078,12.699L22.514,20.409z"/>
	
		<radialGradient id="SVGID_8_" cx="-154.3901" cy="46.416" r="6.631" gradientTransform="matrix(1.0979 0 0 1.0979 199.2583 -31.2202)" gradientUnits="userSpaceOnUse">
		<stop  offset="0" style="stop-color:#FFDD00"/>
		<stop  offset="0.2807" style="stop-color:#FFD902"/>
		<stop  offset="0.5379" style="stop-color:#FDCE07"/>
		<stop  offset="0.7851" style="stop-color:#FBBC0F"/>
		<stop  offset="1" style="stop-color:#F9A51A"/>
	</radialGradient>
	<path fill="url(#SVGID_8_)" d="M23.145,21.56c0,0,3.664-6.786,4.003-11.332c0,0,5.428,5.157-2.171,11.671L23.145,21.56z"/>
	<path fill="#231F20" d="M18.655,21.504c0,0-8.586-3.721-10.554-6.409c-0.795,1.562-1.782,8.515,8.055,9.818L18.655,21.504z"/>
	
		<radialGradient id="SVGID_9_" cx="-171.6392" cy="51.0273" r="6.7565" gradientTransform="matrix(1.0979 0 0 1.0979 199.2583 -31.2202)" gradientUnits="userSpaceOnUse">
		<stop  offset="0" style="stop-color:#FFDD00"/>
		<stop  offset="0.2807" style="stop-color:#FFD902"/>
		<stop  offset="0.5379" style="stop-color:#FDCE07"/>
		<stop  offset="0.7851" style="stop-color:#FBBC0F"/>
		<stop  offset="1" style="stop-color:#F9A51A"/>
	</radialGradient>
	<path fill="url(#SVGID_9_)" d="M18.905,22.793c0,0-7.154-2.879-10.32-6.159c0,0-0.881,7.436,9.126,7.59L18.905,22.793z"/>
	
		<linearGradient id="SVGID_10_" gradientUnits="userSpaceOnUse" x1="-167.6851" y1="46.335" x2="-164.1836" y2="49.8092" gradientTransform="matrix(1.0979 0 0 1.0979 199.2583 -31.2202)">
		<stop  offset="0" style="stop-color:#808184"/>
		<stop  offset="1" style="stop-color:#231F20"/>
	</linearGradient>
	<path fill="url(#SVGID_10_)" d="M18.128,21.035c3.32-2.054,6.476-0.832,9.495,0.796c1.086,0.584,1.832,0.896,1.832,0.896
		s-0.793,6.39-6.208,8.569c-2.612,1.051-6.446,0.508-9.296-1.73c0,0,0.021-0.428,0.407-2.885
		C14.659,24.769,15.376,22.738,18.128,21.035z"/>
	
		<radialGradient id="SVGID_11_" cx="-161.4004" cy="49.1592" r="2.8485" gradientTransform="matrix(1.0979 0 0 1.0979 199.2583 -31.2202)" gradientUnits="userSpaceOnUse">
		<stop  offset="0" style="stop-color:#FFDD00"/>
		<stop  offset="0.2807" style="stop-color:#FFD902"/>
		<stop  offset="0.5379" style="stop-color:#FDCE07"/>
		<stop  offset="0.7851" style="stop-color:#FBBC0F"/>
		<stop  offset="1" style="stop-color:#F9A51A"/>
	</radialGradient>
	<circle fill="url(#SVGID_11_)" cx="23.139" cy="23.376" r="1.745"/>
	
		<linearGradient id="SVGID_12_" gradientUnits="userSpaceOnUse" x1="-3859.6201" y1="-3885.2788" x2="-3861.4661" y2="-3887.8501" gradientTransform="matrix(0.4678 0 0 0.4678 1828.6401 1841.207)">
		<stop  offset="0" style="stop-color:#9564A9"/>
		<stop  offset="1" style="stop-color:#652D90"/>
	</linearGradient>
	<circle fill="url(#SVGID_12_)" cx="22.64" cy="23.02" r="0.787"/>
	<circle fill="#231F20" cx="22.581" cy="22.96" r="0.447"/>
	<circle fill="#FFFFFF" cx="22.343" cy="22.795" r="0.223"/>
	
		<radialGradient id="SVGID_13_" cx="-166.2798" cy="50.4258" r="3.1395" gradientTransform="matrix(1.0979 0 0 1.0979 199.2583 -31.2202)" gradientUnits="userSpaceOnUse">
		<stop  offset="0" style="stop-color:#FFDD00"/>
		<stop  offset="0.2807" style="stop-color:#FFD902"/>
		<stop  offset="0.5379" style="stop-color:#FDCE07"/>
		<stop  offset="0.7851" style="stop-color:#FBBC0F"/>
		<stop  offset="1" style="stop-color:#F9A51A"/>
	</radialGradient>
	<circle fill="url(#SVGID_13_)" cx="17.711" cy="25.242" r="1.746"/>
	
		<linearGradient id="SVGID_14_" gradientUnits="userSpaceOnUse" x1="-160.8857" y1="55.2432" x2="-161.5166" y2="53.7975" gradientTransform="matrix(1.0979 0 0 1.0979 199.2583 -31.2202)">
		<stop  offset="0" style="stop-color:#EC1C24"/>
		<stop  offset="1" style="stop-color:#8A0304"/>
	</linearGradient>
	<path fill="url(#SVGID_14_)" d="M16.542,28.553c0,0,2.153,3.271,6.037,1.994c4.541-1.494,4.468-4.866,3.75-5.504l-2.26,1.143
		c0,0-2.341,1.064-2.5,1.092c-0.16,0.025-4.176,0.531-4.176,0.531L16.542,28.553z"/>
	<path fill="#F48D83" d="M19.736,30.27c0,0,1.132-0.537,2.474-0.508c0,0,1.55-1.729,3.01-1.371c0,0-0.03,1.252-2.205,1.848
		C20.838,30.834,20.154,30.566,19.736,30.27z"/>
	
		<linearGradient id="SVGID_15_" gradientUnits="userSpaceOnUse" x1="-158.0693" y1="52.6797" x2="-158.3584" y2="52.0226" gradientTransform="matrix(1.0979 0 0 1.0979 199.2583 -31.2202)">
		<stop  offset="0" style="stop-color:#FFFFFF"/>
		<stop  offset="1" style="stop-color:#BBBDBF"/>
	</linearGradient>
	<path fill="url(#SVGID_15_)" d="M24.785,26.105c0,0,0.491,1.363,0.996,1.148c0.27-0.113,0.068-1.946,0.068-1.946L24.785,26.105z"/>
	
		<linearGradient id="SVGID_16_" gradientUnits="userSpaceOnUse" x1="-165.0068" y1="54.9014" x2="-164.9542" y2="54.3753" gradientTransform="matrix(1.0979 0 0 1.0979 199.2583 -31.2202)">
		<stop  offset="0" style="stop-color:#FFFFFF"/>
		<stop  offset="1" style="stop-color:#BBBDBF"/>
	</linearGradient>
	<path fill="url(#SVGID_16_)" d="M17.411,28.293c0,0,0.914,1.566,1.356,1.242c0.237-0.174-0.288-1.732-0.288-1.732L17.411,28.293z"
		/>
	
		<linearGradient id="SVGID_17_" gradientUnits="userSpaceOnUse" x1="-163.353" y1="54.917" x2="-163.353" y2="54.6282" gradientTransform="matrix(1.0979 0 0 1.0979 199.2583 -31.2202)">
		<stop  offset="0" style="stop-color:#FFFFFF"/>
		<stop  offset="1" style="stop-color:#BBBDBF"/>
	</linearGradient>
	<path fill="url(#SVGID_17_)" d="M19.298,27.938c0,0,0.644,1.592,1.137,1.352c0.263-0.129-0.117-2.203-0.117-2.203L19.298,27.938z"
		/>
	
		<linearGradient id="SVGID_18_" gradientUnits="userSpaceOnUse" x1="-159.2593" y1="53.3799" x2="-159.4695" y2="53.0383" gradientTransform="matrix(1.0979 0 0 1.0979 199.2583 -31.2202)">
		<stop  offset="0" style="stop-color:#FFFFFF"/>
		<stop  offset="1" style="stop-color:#BBBDBF"/>
	</linearGradient>
	<path fill="url(#SVGID_18_)" d="M23.101,26.447c0,0,0.644,1.59,1.137,1.354c0.264-0.129-0.115-2.205-0.115-2.205L23.101,26.447z"/>
	<path fill="#231F20" d="M16.009,29.537c0,0,0.506-1.305,1.996-1.012c1.489,0.295,3.749,0.613,5.478-0.85
		c0.91-0.77,2.979-2.846,3.831-2.714c0,0-0.398-0.531-1.17-0.424c-0.476,0.065-3.192,1.728-3.192,1.728s-2.687,0.664-2.899,0.664
		c-0.213,0-3.165,0.559-3.271,0.586c-0.107,0.027-1.09,0.852-1.09,0.852S15.637,29.217,16.009,29.537z"/>
	
		<linearGradient id="SVGID_19_" gradientUnits="userSpaceOnUse" x1="-160.6719" y1="55.8154" x2="-161.1094" y2="54.8546" gradientTransform="matrix(1.0979 0 0 1.0979 199.2583 -31.2202)">
		<stop  offset="0" style="stop-color:#FFFFFF"/>
		<stop  offset="1" style="stop-color:#BBBDBF"/>
	</linearGradient>
	<path fill="url(#SVGID_19_)" d="M25.37,27.822c-0.279-0.09-0.502,0.182-0.502,0.285c-0.002,0.102,0.257,0.301,0.232,0.477
		c-0.12,0.891-2.901,1.895-3.878,1.91c-1.596,0.027-1.108-0.488-1.209-0.68c-0.094-0.176-0.191-0.193-0.481-0.141
		c-0.289,0.055-0.386,0.563-0.231,0.926c0.892,0.293,1.989,0.371,3.278-0.053c1.579-0.52,2.6-1.266,3.229-2.045
		C25.862,28.021,25.649,27.912,25.37,27.822z"/>
	
		<linearGradient id="SVGID_20_" gradientUnits="userSpaceOnUse" x1="-3830.2705" y1="-3894.0537" x2="-3832.116" y2="-3896.624" gradientTransform="matrix(0.4678 0 0 0.4678 1809.6553 1846.8828)">
		<stop  offset="0" style="stop-color:#9564A9"/>
		<stop  offset="1" style="stop-color:#652D90"/>
	</linearGradient>
	<circle fill="url(#SVGID_20_)" cx="17.385" cy="24.59" r="0.786"/>
	<circle fill="#231F20" cx="17.326" cy="24.531" r="0.446"/>
	<circle fill="#FFFFFF" cx="17.089" cy="24.366" r="0.223"/>
</g>
</svg>
