<?xml version="1.0" encoding="utf-8"?>
<!-- Generator: Adobe Illustrator 14.0.0, SVG Export Plug-In . SVG Version: 6.00 Build 43363)  -->
<!DOCTYPE svg PUBLIC "-//W3C//DTD SVG 1.1//EN" "http://www.w3.org/Graphics/SVG/1.1/DTD/svg11.dtd">
<svg version="1.1" id="图层_1" xmlns="http://www.w3.org/2000/svg" xmlns:xlink="http://www.w3.org/1999/xlink" x="0px" y="0px"
	 width="50px" height="50px" viewBox="0 0 50 50" enable-background="new 0 0 50 50" xml:space="preserve">
<g>
	
		<radialGradient id="SVGID_1_" cx="44.46" cy="-105.8687" r="4.5902" gradientTransform="matrix(1.2399 0 0 1.2399 -18.2013 178.8495)" gradientUnits="userSpaceOnUse">
		<stop  offset="0.0056" style="stop-color:#F7AA9E"/>
		<stop  offset="1" style="stop-color:#DD786F"/>
	</radialGradient>
	<path fill="url(#SVGID_1_)" d="M36.535,39.903c0,0,1.137,3.221,0.947,4.83c0,0,2.842,0.758,4.073,0s0.378-4.169,0.378-4.169
		l-3.599-2.841L36.535,39.903z"/>
	
		<radialGradient id="SVGID_2_" cx="60.6328" cy="-107.1729" r="4.5904" gradientTransform="matrix(-1.2399 0 0 1.2399 100.7013 181.3202)" gradientUnits="userSpaceOnUse">
		<stop  offset="0.0056" style="stop-color:#F7AA9E"/>
		<stop  offset="1" style="stop-color:#DD786F"/>
	</radialGradient>
	<path fill="url(#SVGID_2_)" d="M25.913,40.754c0,0-1.137,3.222-0.949,4.831c0,0-3.492,0.854-4.723,0.097
		c-1.137-4.265,0.283-8.906,0.283-8.906l3.589,1.802L25.913,40.754z"/>
	
		<radialGradient id="SVGID_3_" cx="28.3506" cy="-138.7446" r="3.3925" gradientTransform="matrix(1.1443 -0.0713 0.0691 1.108 -11.3689 160.6828)" gradientUnits="userSpaceOnUse">
		<stop  offset="0" style="stop-color:#F9BEB6"/>
		<stop  offset="0.449" style="stop-color:#F9BCB3"/>
		<stop  offset="0.7744" style="stop-color:#F8B4AA"/>
		<stop  offset="1" style="stop-color:#F7AA9E"/>
	</radialGradient>
	<path fill="url(#SVGID_3_)" d="M14.926,6.972c0.087,1.401-0.86,2.599-2.115,2.678c-1.255,0.076-2.345-0.995-2.43-2.396
		c-0.088-1.399,0.859-2.598,2.114-2.676C13.75,4.5,14.839,5.572,14.926,6.972z"/>
	
		<radialGradient id="SVGID_4_" cx="28.1006" cy="-130.4395" r="3.6804" gradientTransform="matrix(1.0785 -0.263 0.263 1.0785 17.7665 157.0363)" gradientUnits="userSpaceOnUse">
		<stop  offset="0" style="stop-color:#F59686"/>
		<stop  offset="1" style="stop-color:#C95852"/>
	</radialGradient>
	<path fill="url(#SVGID_4_)" d="M13.804,7.115c0.285,1.168-0.144,2.278-0.96,2.476c-0.814,0.199-1.706-0.588-1.99-1.756
		c-0.286-1.169,0.144-2.279,0.958-2.477C12.627,5.159,13.519,5.946,13.804,7.115z"/>
	
		<radialGradient id="SVGID_5_" cx="18.5278" cy="-142.6167" r="3.3924" gradientTransform="matrix(1.1875 0.4792 -0.464 1.1498 -66.9177 157.8352)" gradientUnits="userSpaceOnUse">
		<stop  offset="0" style="stop-color:#F9BEB6"/>
		<stop  offset="0.449" style="stop-color:#F9BCB3"/>
		<stop  offset="0.7744" style="stop-color:#F8B4AA"/>
		<stop  offset="1" style="stop-color:#F7AA9E"/>
	</radialGradient>
	<path fill="url(#SVGID_5_)" d="M23.859,6.516c-0.587,1.455-2.119,2.206-3.421,1.678c-1.303-0.524-1.883-2.127-1.296-3.583
		c0.586-1.452,2.118-2.204,3.419-1.677C23.864,3.46,24.444,5.063,23.859,6.516z"/>
	
		<radialGradient id="SVGID_6_" cx="18.4033" cy="-136.0425" r="3.6852" gradientTransform="matrix(1.2135 0.2543 -0.2543 1.2135 -35.0603 168.3636)" gradientUnits="userSpaceOnUse">
		<stop  offset="0" style="stop-color:#F59686"/>
		<stop  offset="1" style="stop-color:#C95852"/>
	</radialGradient>
	<path fill="url(#SVGID_6_)" d="M22.659,6.12c-0.275,1.315-1.244,2.228-2.16,2.035c-0.917-0.193-1.436-1.415-1.162-2.731
		c0.277-1.314,1.244-2.226,2.16-2.033C22.414,3.582,22.934,4.806,22.659,6.12z"/>
	
		<radialGradient id="SVGID_7_" cx="25.7383" cy="-135.6494" r="21.8486" gradientTransform="matrix(1.2307 0 0 1.2399 -17.9132 178.8495)" gradientUnits="userSpaceOnUse">
		<stop  offset="0" style="stop-color:#F9BEB6"/>
		<stop  offset="0.0603" style="stop-color:#F8B5AB"/>
		<stop  offset="0.1507" style="stop-color:#F7ADA1"/>
		<stop  offset="0.2697" style="stop-color:#F7AA9E"/>
		<stop  offset="0.8315" style="stop-color:#F48D83"/>
		<stop  offset="1" style="stop-color:#F7AA9E"/>
	</radialGradient>
	<path fill="url(#SVGID_7_)" d="M34.968,20.21c0,8.028-6.434,14.537-14.368,14.537S6.232,28.238,6.232,20.21
		c0-8.03,3.708-14.538,14.367-14.538C28.534,5.672,34.968,12.18,34.968,20.21z"/>
	<path fill="#E8867E" d="M14.652,15.079c-3.272,0-6.244,1.07-8.448,2.812c-0.121,0.754-0.186,1.528-0.186,2.319
		c0,7.775,6.08,14.127,13.725,14.519c4.256-1.62,7.213-5.202,7.213-9.364C26.956,19.685,21.448,15.079,14.652,15.079z"/>
	
		<radialGradient id="SVGID_8_" cx="20.7954" cy="-129.0864" r="17.9645" gradientTransform="matrix(1.2399 0 0 1.2399 -18.2013 178.8495)" gradientUnits="userSpaceOnUse">
		<stop  offset="0" style="stop-color:#F9BEB6"/>
		<stop  offset="0.0968" style="stop-color:#F8B5AB"/>
		<stop  offset="0.2417" style="stop-color:#F7ADA1"/>
		<stop  offset="0.4326" style="stop-color:#F7AA9E"/>
		<stop  offset="0.8315" style="stop-color:#F48D83"/>
		<stop  offset="1" style="stop-color:#F7AA9E"/>
	</radialGradient>
	<ellipse fill="url(#SVGID_8_)" cx="13.582" cy="25.044" rx="12.305" ry="10.284"/>
	
		<linearGradient id="SVGID_9_" gradientUnits="userSpaceOnUse" x1="27.666" y1="-121.6328" x2="27.525" y2="-120.7405" gradientTransform="matrix(1.2399 0 0 1.2399 -18.2013 178.8495)">
		<stop  offset="0" style="stop-color:#FFFFFF"/>
		<stop  offset="0.442" style="stop-color:#EDEEEE"/>
		<stop  offset="1" style="stop-color:#D0D2D3"/>
	</linearGradient>
	<path fill="url(#SVGID_9_)" d="M14.633,29.132c0,0,0.342-1.627,0.787-2.164c0.525,0,1.222,0.243,1.717,0.359
		c-0.007,0.739,0.018,2.244,0.018,2.244S15.39,29.073,14.633,29.132z"/>
	
		<linearGradient id="SVGID_10_" gradientUnits="userSpaceOnUse" x1="47.624" y1="-110.376" x2="47.483" y2="-109.4837" gradientTransform="matrix(1.1575 -0.4444 0.4444 1.1575 0.6897 177.3908)">
		<stop  offset="0" style="stop-color:#FFFFFF"/>
		<stop  offset="0.442" style="stop-color:#EDEEEE"/>
		<stop  offset="1" style="stop-color:#D0D2D3"/>
	</linearGradient>
	<path fill="url(#SVGID_10_)" d="M5.832,30.067c0,0-0.055-1.513,0.131-2.42c0.364-0.069,0.853-0.192,1.56-0.163
		c0.269,0.582,0.728,1.99,0.728,1.99S6.518,29.743,5.832,30.067z"/>
	<path fill="#E8867E" d="M3.172,30.524c0.117,0.156,0.239,0.308,0.364,0.453c2.295-0.91,8.451-2.974,15.934-0.613
		C19.47,30.364,13.469,26.893,3.172,30.524z"/>
	
		<radialGradient id="SVGID_11_" cx="35.5313" cy="-128.0317" r="24.9964" gradientTransform="matrix(1.0456 0 0 1.0456 -8.9756 158.7538)" gradientUnits="userSpaceOnUse">
		<stop  offset="0" style="stop-color:#F9BEB6"/>
		<stop  offset="0.0603" style="stop-color:#F8B5AB"/>
		<stop  offset="0.1507" style="stop-color:#F7ADA1"/>
		<stop  offset="0.2697" style="stop-color:#F7AA9E"/>
		<stop  offset="0.8315" style="stop-color:#F48D83"/>
		<stop  offset="1" style="stop-color:#F7AA9E"/>
	</radialGradient>
	<path fill="url(#SVGID_11_)" d="M25.979,23.184c4.018-2.371,14.091-4.76,20.205,4.089c4.882,7.065,1.225,19.089,1.225,19.089
		s-3.437,1.049-6.59,0.156c0,0-0.19-5.848-5.813-5.848c-4.186,0-6.244,2.974-6.119,6.285c0,0-4.765,0.663-6.672-0.06
		C22.214,46.896,14.886,29.734,25.979,23.184z"/>
	
		<ellipse transform="matrix(0.9957 0.0929 -0.0929 0.9957 1.1457 -1.5161)" fill="#231F20" cx="16.862" cy="11.552" rx="0.321" ry="1.255"/>
	
		<ellipse transform="matrix(0.9955 0.0949 -0.0949 0.9955 1.1431 -1.122)" fill="#231F20" cx="12.365" cy="11.454" rx="0.301" ry="1.176"/>
	
		<radialGradient id="SVGID_12_" cx="26.5752" cy="-124.936" r="2.3438" gradientTransform="matrix(1.2399 0 0 1.2399 -18.2013 178.8495)" gradientUnits="userSpaceOnUse">
		<stop  offset="0" style="stop-color:#E8867E"/>
		<stop  offset="0.2958" style="stop-color:#E3827A"/>
		<stop  offset="0.6331" style="stop-color:#D6756D"/>
		<stop  offset="0.9898" style="stop-color:#BF6159"/>
		<stop  offset="1" style="stop-color:#BE6058"/>
	</radialGradient>
	<circle fill="url(#SVGID_12_)" cx="13.881" cy="22.098" r="1.37"/>
	
		<radialGradient id="SVGID_13_" cx="37.3613" cy="-124.936" r="2.3438" gradientTransform="matrix(1.2399 0 0 1.2399 -38.6319 178.8495)" gradientUnits="userSpaceOnUse">
		<stop  offset="0" style="stop-color:#E8867E"/>
		<stop  offset="0.2958" style="stop-color:#E3827A"/>
		<stop  offset="0.6331" style="stop-color:#D6756D"/>
		<stop  offset="0.9898" style="stop-color:#BF6159"/>
		<stop  offset="1" style="stop-color:#BE6058"/>
	</radialGradient>
	<circle fill="url(#SVGID_13_)" cx="6.824" cy="22.098" r="1.37"/>
	<path fill="#E8867E" d="M37.86,30.335c0,0,3.705,1.32,6.935-1.479c0,0-0.209,2.436-3.195,3.109
		C39.261,32.489,37.86,30.335,37.86,30.335z"/>
	
		<radialGradient id="SVGID_14_" cx="50.5264" cy="-122.3647" r="6.3186" gradientTransform="matrix(1.2399 0 0 1.2399 -18.2013 178.8495)" gradientUnits="userSpaceOnUse">
		<stop  offset="0" style="stop-color:#F9BEB6"/>
		<stop  offset="0.0968" style="stop-color:#F8B5AB"/>
		<stop  offset="0.2417" style="stop-color:#F7ADA1"/>
		<stop  offset="0.4326" style="stop-color:#F7AA9E"/>
		<stop  offset="0.8315" style="stop-color:#F48D83"/>
		<stop  offset="1" style="stop-color:#F7AA9E"/>
	</radialGradient>
	<path fill="url(#SVGID_14_)" d="M37.86,30.335c0,0,3.431,0.463,6.252-2.938c0,0,0.285,2.653-2.557,3.789
		C39.329,32.076,37.86,30.335,37.86,30.335z"/>
	<circle fill="#E8867E" cx="16.427" cy="17.969" r="0.194"/>
	<circle fill="#E8867E" cx="8.949" cy="16.778" r="0.194"/>
	<circle fill="#E8867E" cx="9.54" cy="18.175" r="0.194"/>
	<circle fill="#E8867E" cx="13.483" cy="16.538" r="0.194"/>
	<circle fill="#E8867E" cx="11.574" cy="17.255" r="0.194"/>
	<circle fill="#E8867E" cx="13.801" cy="17.891" r="0.194"/>
</g>
</svg>
