<?xml version="1.0" encoding="utf-8"?>
<!-- Generator: Adobe Illustrator 14.0.0, SVG Export Plug-In . SVG Version: 6.00 Build 43363)  -->
<!DOCTYPE svg PUBLIC "-//W3C//DTD SVG 1.1//EN" "http://www.w3.org/Graphics/SVG/1.1/DTD/svg11.dtd">
<svg version="1.1" id="图层_1" xmlns="http://www.w3.org/2000/svg" xmlns:xlink="http://www.w3.org/1999/xlink" x="0px" y="0px"
	 width="50px" height="50px" viewBox="0 0 50 50" enable-background="new 0 0 50 50" xml:space="preserve">
<g>
	
		<linearGradient id="SVGID_1_" gradientUnits="userSpaceOnUse" x1="18.7402" y1="-88.1016" x2="17.2488" y2="-90.8131" gradientTransform="matrix(1 0 0 1 10.3892 134.3257)">
		<stop  offset="0" style="stop-color:#24B57C"/>
		<stop  offset="1" style="stop-color:#009F5A"/>
	</linearGradient>
	<path fill="url(#SVGID_1_)" d="M27.67,42.728c0,0-0.618,2.253,0.698,3.03c1.199,0.712,1.327,1.476,0.59,2.692
		c0,0,1.613-1.798,0.205-2.78c-1.199-0.837-1.005-2.114-0.597-2.656C28.973,42.473,27.67,42.728,27.67,42.728z"/>
	
		<radialGradient id="SVGID_2_" cx="-1.9287" cy="-132.9609" r="17.6893" gradientTransform="matrix(1 0 0 1 10.3892 134.3257)" gradientUnits="userSpaceOnUse">
		<stop  offset="0" style="stop-color:#72C5A4"/>
		<stop  offset="1" style="stop-color:#24B57C"/>
	</radialGradient>
	<path fill="url(#SVGID_2_)" d="M17.451,1.114C11.15,0.202,5.902,6.64,7.073,12.493c0,0,4.786,2.997,3.949,3.637
		c-1.007,0.77-2.292,0.383-1.407,1.407c1.139,1.316,5.088,2.935,9.223,2.12c7.863-1.551,8.387-1.398,8.387-1.398
		S30.786,3.041,17.451,1.114z"/>
	<g>
		
			<linearGradient id="SVGID_3_" gradientUnits="userSpaceOnUse" x1="0.085" y1="-113.4058" x2="3.6077" y2="-110.1032" gradientTransform="matrix(1 0 0 1 10.3892 134.3257)">
			<stop  offset="0" style="stop-color:#24B57C"/>
			<stop  offset="1" style="stop-color:#009F5A"/>
		</linearGradient>
		<path fill="url(#SVGID_3_)" d="M18.955,23.094c-4.473-3.465-7.844-3.162-8.284-3.563C9.973,18.896,9,17.122,7.198,16.825
			c-0.109,0.364-0.149,0.673-0.151,1.059c-0.237-0.099-0.401-0.063-0.742-0.052c-0.083,0.21-0.116,0.755-0.14,1.038
			c-0.187-0.067-0.491-0.085-0.788-0.064c-0.233,2.62,1.148,4.095,1.404,4.407c0.477,0.577,1.456,1.338,3.268,0.589
			c1.974-0.3,4.782,4.405,7.501,5.503C21.051,30.716,20.648,24.406,18.955,23.094z"/>
		<path fill="#009252" d="M8.05,18.79l0.258,0.071l0.122-0.564c0,0-0.736-0.553-1.354-0.877c-0.019,0.147-0.027,0.299-0.028,0.464
			c-0.237-0.099-0.401-0.063-0.742-0.052c-0.083,0.21-0.116,0.755-0.14,1.038c-0.064-0.022-0.147-0.037-0.234-0.05
			c-0.081,0.42-0.117,0.852-0.047,1.208c0.214,1.069,1.236,0.7,1.236,0.7L8.05,18.79z"/>
		<path fill="#24B57C" d="M8.535,18.284c0,0-1.797-0.656-2.319-0.542c0,0-0.347,1.892,0.099,2.888
			c0.445,0.997,1.359,0.41,1.359,0.41l0.478-2.097l0.269,0.013L8.535,18.284z"/>
		<path fill="#009252" d="M7.021,19.988l0.229-0.205l0.596-0.253c0,0-0.917-0.884-1.728-0.995c-0.052,0.636-0.062,1.514,0.197,2.095
			c0.095,0.212,0.21,0.347,0.334,0.437L7.021,19.988z"/>
		<path fill="#24B57C" d="M8.169,19.655c0,0-1.839-1.014-2.593-0.824c0,0,0.027,1.156,0.473,2.151
			c0.444,0.997,1.759,0.55,1.759,0.55l-0.524-1.554L8.023,19.8L8.169,19.655z"/>
	</g>
	<g>
		
			<linearGradient id="SVGID_4_" gradientUnits="userSpaceOnUse" x1="-4.2568" y1="105.7383" x2="-6.9772" y2="101.362" gradientTransform="matrix(0.2041 1.0904 1.0904 -0.2041 -75.2577 69.7205)">
			<stop  offset="0" style="stop-color:#24B57C"/>
			<stop  offset="1" style="stop-color:#009F5A"/>
		</linearGradient>
		<path fill="url(#SVGID_4_)" d="M35.137,36.402c3.731,0.427,4.99,4.777,5.603,4.679c0.968-0.155,2.825-1.148,4.563-0.38
			c-0.109,0.377-0.251,0.668-0.47,1.007c0.263,0.048,0.385,0.171,0.676,0.375c-0.046,0.233-0.329,0.723-0.47,0.985
			c0.2,0.048,0.478,0.203,0.724,0.391c-1.139,2.968-4.974,4.382-5.358,4.536c-1.251,0.508-4.126,1.495-4.614-1.568
			c-0.404-4.017-2.962-4.827-5.954-5.418C25.982,40.247,32.921,36.148,35.137,36.402z"/>
		<path fill="#009252" d="M43.444,41.926l-0.266-0.087l0.215-0.56c0,0,0.954-0.062,1.679,0.008c-0.068,0.139-0.147,0.275-0.24,0.421
			c0.263,0.048,0.385,0.171,0.676,0.375c-0.046,0.233-0.329,0.723-0.47,0.985c0.069,0.016,0.15,0.049,0.231,0.09
			c-0.166,0.408-0.38,0.807-0.645,1.075c-0.796,0.812-1.475-0.093-1.475-0.093L43.444,41.926z"/>
		<path fill="#24B57C" d="M43.308,41.21c0,0,1.938,0.45,2.328,0.846c0,0-0.771,1.846-1.729,2.46
			c-0.955,0.614-1.417-0.418-1.417-0.418l0.776-2.097l-0.239-0.14L43.308,41.21z"/>
		<path fill="#009252" d="M43.658,43.553l-0.085-0.308L43.2,42.688c0,0,1.301-0.249,2.069,0.116
			c-0.316,0.583-0.808,1.354-1.362,1.712c-0.204,0.131-0.383,0.182-0.54,0.191L43.658,43.553z"/>
		<path fill="#24B57C" d="M42.847,42.61c0,0,2.177,0.165,2.728,0.76c0,0-1.414,2.073-2.368,2.688
			c-0.955,0.614-0.548-0.562-0.548-0.562l0.776-2.1l-0.541-0.576L42.847,42.61z"/>
	</g>
	<g>
		
			<linearGradient id="SVGID_5_" gradientUnits="userSpaceOnUse" x1="9.3926" y1="142.9717" x2="6.6724" y2="138.5958" gradientTransform="matrix(-0.8232 0.7436 -0.7436 -0.8232 125.0151 148.0647)">
			<stop  offset="0" style="stop-color:#24B57C"/>
			<stop  offset="1" style="stop-color:#009F5A"/>
		</linearGradient>
		<path fill="url(#SVGID_5_)" d="M18.449,34.148c-3.227-1.923-6.864,0.773-7.292,0.324c-0.677-0.709-1.552-2.625-3.399-3.068
			c-0.14,0.369-0.205,0.688-0.237,1.089c-0.237-0.121-0.41-0.098-0.765-0.11c-0.104,0.209-0.177,0.771-0.223,1.064
			c-0.188-0.081-0.503-0.126-0.812-0.126c-0.895,3.051,1.299,6.497,1.513,6.858c0.689,1.159,2.375,3.688,4.62,1.546
			c2.756-2.948,5.282-2.046,8.021-0.701C23.4,42.753,20.364,35.291,18.449,34.148z"/>
		<path fill="#009252" d="M8.494,33.505L8.757,33.6l0.169-0.575c0,0-0.723-0.631-1.34-1.013c-0.03,0.151-0.051,0.31-0.065,0.481
			c-0.237-0.121-0.41-0.098-0.765-0.11c-0.104,0.209-0.177,0.771-0.223,1.064c-0.065-0.026-0.15-0.049-0.24-0.067
			c-0.114,0.428-0.186,0.874-0.138,1.248c0.141,1.128,1.229,0.818,1.229,0.818L8.494,33.505z"/>
		<path fill="#24B57C" d="M9.036,33.021c0,0-1.815-0.816-2.366-0.738c0,0-0.502,1.937-0.114,3.003
			c0.387,1.069,1.379,0.527,1.379,0.527l0.653-2.139l0.277,0.034L9.036,33.021z"/>
		<path fill="#009252" d="M7.337,34.672l0.252-0.194l0.637-0.217c0,0-0.886-0.987-1.718-1.161c-0.102,0.654-0.179,1.565,0.047,2.186
			c0.082,0.229,0.191,0.378,0.313,0.481L7.337,34.672z"/>
		<path fill="#24B57C" d="M8.554,34.412c0,0-1.832-1.188-2.63-1.049c0,0-0.132,2.508,0.255,3.574
			c0.384,1.069,0.775-0.115,0.775-0.115l0.656-2.141l0.778-0.128L8.554,34.412z"/>
	</g>
	
		<radialGradient id="SVGID_6_" cx="10.2041" cy="-118.8765" r="31.7394" gradientTransform="matrix(1 0 0 1 10.3892 134.3257)" gradientUnits="userSpaceOnUse">
		<stop  offset="0" style="stop-color:#FFFFFF"/>
		<stop  offset="0.2777" style="stop-color:#E5E6E7"/>
		<stop  offset="0.8539" style="stop-color:#A6A8AB"/>
		<stop  offset="1" style="stop-color:#C5C7C9"/>
	</radialGradient>
	<circle fill="url(#SVGID_6_)" cx="28.598" cy="27.664" r="15.867"/>
	<circle fill="#D0D2D3" cx="28.808" cy="28.085" r="13.34"/>
	<circle fill="#BBBDBF" cx="28.457" cy="27.171" r="13.34"/>
	
		<radialGradient id="SVGID_7_" cx="13.0127" cy="-114.3838" r="22.2027" gradientTransform="matrix(1 0 0 1 10.3892 134.3257)" gradientUnits="userSpaceOnUse">
		<stop  offset="0" style="stop-color:#FFFFFF"/>
		<stop  offset="0.1292" style="stop-color:#009F5A"/>
		<stop  offset="1" style="stop-color:#006938"/>
	</radialGradient>
	<circle fill="url(#SVGID_7_)" cx="28.598" cy="27.664" r="13.34"/>
	
		<radialGradient id="SVGID_8_" cx="12.5396" cy="-116.9023" r="25.1032" gradientTransform="matrix(1 0 0 1 10.3892 134.3257)" gradientUnits="userSpaceOnUse">
		<stop  offset="0" style="stop-color:#FFFFFF"/>
		<stop  offset="0.2777" style="stop-color:#E5E6E7"/>
		<stop  offset="0.8539" style="stop-color:#A6A8AB"/>
		<stop  offset="1" style="stop-color:#C5C7C9"/>
	</radialGradient>
	<path fill="url(#SVGID_8_)" d="M37.203,37.855v-1.17l2.282-1.316c0.153-0.219,0.3-0.439,0.44-0.663l-2.893,1.67l-3.997-2.309
		v-4.639l3.979-2.299l4.047,2.336c0,0.2,0,1.706,0,2.948c0.114-0.296,0.217-0.593,0.308-0.896v-2.089l0.483-0.28
		c0.014-0.124,0.023-0.248,0.035-0.372c-0.358,0.205-0.617,0.356-0.688,0.396l-4.015-2.317v-4.621l2.755-1.589
		c-0.063-0.101-0.127-0.198-0.191-0.298l-2.734,1.578l-3.995-2.309V15.08c-0.134-0.048-0.268-0.093-0.403-0.137
		c0.025,0.015,0.048,0.027,0.061,0.036v4.64l-3.995,2.309l-3.999-2.309v-4.639c0.044-0.025,0.127-0.073,0.236-0.137
		c-0.194,0.057-0.385,0.116-0.576,0.181v4.595l-3.997,2.309l-2.856-1.65c-0.065,0.099-0.128,0.198-0.191,0.299l2.878,1.66v4.64
		l-3.981,2.298l-0.898-0.52c0.01,0.132,0.018,0.263,0.03,0.391l0.698,0.404v2.687c0.105,0.29,0.219,0.576,0.34,0.857v-3.563
		l3.981-2.299l4.015,2.318v4.621l-3.999,2.307l-3.208-1.852c0.131,0.218,0.27,0.433,0.413,0.646l2.626,1.515v1.337
		c0.112,0.09,0.226,0.18,0.34,0.267v-1.604l3.996-2.307l3.998,2.307v4.317c0.023,0,0.045,0.003,0.068,0.003
		c0.092,0,0.181-0.006,0.271-0.01v-4.311l3.996-2.307l3.998,2.307v1.445C36.977,38.041,37.091,37.948,37.203,37.855z M20.518,26.855
		v-4.621l3.997-2.308l3.998,2.308v4.64l-3.981,2.298L20.518,26.855z M32.696,34.069l-3.997,2.307l-3.998-2.309v-4.639l3.981-2.299
		l4.014,2.318V34.069z M28.851,26.855v-4.621l3.999-2.308l3.998,2.308v4.64l-3.982,2.298L28.851,26.855z"/>
	<path fill="#72C5A4" d="M11.865,7.82c-0.474,1.394-1.279,2.35-1.797,2.133C9.547,9.736,9.515,8.431,9.989,7.036
		c0.477-1.394,1.28-2.35,1.8-2.132C12.308,5.12,12.341,6.426,11.865,7.82z"/>
	<path fill="#009F5A" d="M11.993,7.477c-0.474,1.396-1.28,2.351-1.8,2.132C9.67,9.392,9.634,8.083,10.107,6.689
		c0.476-1.395,1.282-2.349,1.803-2.131C12.431,4.775,12.469,6.082,11.993,7.477z"/>
	
		<radialGradient id="SVGID_9_" cx="240.7686" cy="114.2676" r="2.1625" gradientTransform="matrix(0.8501 0 0 0.8501 -193.564 -91.564)" gradientUnits="userSpaceOnUse">
		<stop  offset="0" style="stop-color:#FFFFFF"/>
		<stop  offset="0.0582" style="stop-color:#DAD9D9"/>
		<stop  offset="0.1353" style="stop-color:#AFAEAE"/>
		<stop  offset="0.2184" style="stop-color:#898788"/>
		<stop  offset="0.3066" style="stop-color:#6A6768"/>
		<stop  offset="0.4013" style="stop-color:#504D4D"/>
		<stop  offset="0.5049" style="stop-color:#3C3839"/>
		<stop  offset="0.622" style="stop-color:#2E2A2B"/>
		<stop  offset="0.764" style="stop-color:#252223"/>
		<stop  offset="1" style="stop-color:#231F20"/>
	</radialGradient>
	<path fill="url(#SVGID_9_)" d="M11.854,7.625c-0.49,1.386-1.278,2.351-1.76,2.154C9.61,9.58,9.618,8.296,10.107,6.91
		c0.491-1.386,1.278-2.351,1.763-2.153C12.352,4.954,12.343,6.238,11.854,7.625z"/>
</g>
</svg>
