<?xml version="1.0" encoding="utf-8"?>
<!-- Generator: Adobe Illustrator 14.0.0, SVG Export Plug-In . SVG Version: 6.00 Build 43363)  -->
<!DOCTYPE svg PUBLIC "-//W3C//DTD SVG 1.1//EN" "http://www.w3.org/Graphics/SVG/1.1/DTD/svg11.dtd">
<svg version="1.1" id="图层_1" xmlns="http://www.w3.org/2000/svg" xmlns:xlink="http://www.w3.org/1999/xlink" x="0px" y="0px"
	 width="50px" height="50px" viewBox="0 0 50 50" enable-background="new 0 0 50 50" xml:space="preserve">
<g>
	
		<radialGradient id="SVGID_1_" cx="-39.501" cy="-114.8906" r="2.1881" gradientTransform="matrix(1.7304 0 0 1.7304 116.1961 243.2938)" gradientUnits="userSpaceOnUse">
		<stop  offset="0" style="stop-color:#FFDD00"/>
		<stop  offset="0.3697" style="stop-color:#FED305"/>
		<stop  offset="0.9976" style="stop-color:#FCB813"/>
		<stop  offset="1" style="stop-color:#FCB813"/>
	</radialGradient>
	<path fill="url(#SVGID_1_)" d="M45.972,40.868c0,0,0.352,2.017,1.251,2.255c0.588,0.149,0.471-0.474,0.392-0.628
		c-0.075-0.158-1.212-1.861-1.212-1.861L45.972,40.868z"/>
	
		<radialGradient id="SVGID_2_" cx="-40.0303" cy="-117.1924" r="4.7021" gradientTransform="matrix(1.7304 0 0 1.7304 116.1961 243.2938)" gradientUnits="userSpaceOnUse">
		<stop  offset="0" style="stop-color:#FFDD00"/>
		<stop  offset="0.3697" style="stop-color:#FED305"/>
		<stop  offset="0.9976" style="stop-color:#FCB813"/>
		<stop  offset="1" style="stop-color:#FCB813"/>
	</radialGradient>
	<path fill="url(#SVGID_2_)" d="M37.327,38.739l8.662,1.365c0,0,0.255-1.625,1.021-1.43c0.506,0.13-0.415,1.256-0.056,2.08
		c0.427,0.976,2.014,1.916,1.491,2.313c-0.577,0.439-2.088-1.194-2.387-2.089l-8.654-1.346L37.327,38.739z"/>
	
		<radialGradient id="SVGID_3_" cx="-41.2378" cy="-126.2061" r="4.3615" gradientTransform="matrix(1.7304 0 0 1.7304 116.1961 243.2938)" gradientUnits="userSpaceOnUse">
		<stop  offset="0" style="stop-color:#EC1C24"/>
		<stop  offset="0.3913" style="stop-color:#D71820"/>
		<stop  offset="1" style="stop-color:#B01117"/>
	</radialGradient>
	<path fill="url(#SVGID_3_)" d="M37.701,30.456c0,0,5.521-4.402,6.716-6.791c2.163,0.971,1.642,6.419-6.12,7.536L37.701,30.456z"/>
	
		<radialGradient id="SVGID_4_" cx="-48.9185" cy="-113.7676" r="4.3619" gradientTransform="matrix(1.4424 0.956 -0.956 1.4424 8.7935 241.5942)" gradientUnits="userSpaceOnUse">
		<stop  offset="0" style="stop-color:#00AE62"/>
		<stop  offset="0.5333" style="stop-color:#009A56"/>
		<stop  offset="1" style="stop-color:#00844A"/>
	</radialGradient>
	<path fill="url(#SVGID_4_)" d="M38.021,31.241c0,0,7.034-0.619,9.349-1.95c1.27,2.003-2.176,6.256-9.264,2.901L38.021,31.241z"/>
	
		<radialGradient id="SVGID_5_" cx="-49.917" cy="-102.5063" r="4.3621" gradientTransform="matrix(0.9122 1.4704 -1.4704 0.9122 -58.4516 202.3014)" gradientUnits="userSpaceOnUse">
		<stop  offset="0" style="stop-color:#00ADEE"/>
		<stop  offset="0.3378" style="stop-color:#0098DD"/>
		<stop  offset="1" style="stop-color:#0066B2"/>
	</radialGradient>
	<path fill="url(#SVGID_5_)" d="M38.206,32.339c0,0,6.654,2.371,9.313,2.127c0.315,2.351-4.589,4.778-9.631-1.226L38.206,32.339z"/>
	
		<radialGradient id="SVGID_6_" cx="-53.0542" cy="-124.0928" r="8.8647" gradientTransform="matrix(1.7304 0 0 1.7304 116.1961 243.2938)" gradientUnits="userSpaceOnUse">
		<stop  offset="0" style="stop-color:#E6E7E8"/>
		<stop  offset="0.3969" style="stop-color:#E4E5E6"/>
		<stop  offset="0.5952" style="stop-color:#DCDDDF"/>
		<stop  offset="0.7489" style="stop-color:#CFD0D2"/>
		<stop  offset="0.8798" style="stop-color:#BCBEC0"/>
		<stop  offset="0.8876" style="stop-color:#BBBDBF"/>
		<stop  offset="1" style="stop-color:#D0D2D3"/>
	</radialGradient>
	<path fill="url(#SVGID_6_)" d="M28.95,19.994c0,0-4.475,6.65-2.648,9.941c1.514,2.729,10.605-0.816,12.238,0.182
		c1.631,0.997,0.28,10.786-6.798,10.877c-9.567,0.122-13.191-10.844-5.622-19.306L28.95,19.994z"/>
	<path fill="#A6A8AB" d="M36.33,30.029c-1.827,0.231-4.355,0.815-6.446,0.939l-0.021,2.605
		C29.863,33.574,34.382,35.301,36.33,30.029z"/>
	
		<linearGradient id="SVGID_7_" gradientUnits="userSpaceOnUse" x1="4.0752" y1="-143.7715" x2="4.3699" y2="-149.4212" gradientTransform="matrix(1.0385 0 0 1.0385 21.5439 175.4638)">
		<stop  offset="0" style="stop-color:#E6E7E8"/>
		<stop  offset="1" style="stop-color:#929497"/>
	</linearGradient>
	<path fill="url(#SVGID_7_)" d="M25.944,27.007c0.483-3.261,3.006-7.013,3.006-7.013l-2.83,1.694
		c-1.521,1.702-2.583,3.515-3.242,5.319H25.944z"/>
	
		<radialGradient id="SVGID_8_" cx="-56.0806" cy="-132.9717" r="7.5509" gradientTransform="matrix(1.7304 0 0 1.7304 115.2606 242.827)" gradientUnits="userSpaceOnUse">
		<stop  offset="0.0112" style="stop-color:#FFFFFF"/>
		<stop  offset="0.1348" style="stop-color:#E6E7E8"/>
		<stop  offset="0.4714" style="stop-color:#E4E5E6"/>
		<stop  offset="0.6396" style="stop-color:#DCDDDF"/>
		<stop  offset="0.77" style="stop-color:#CFD0D2"/>
		<stop  offset="0.881" style="stop-color:#BCBEC0"/>
		<stop  offset="0.8876" style="stop-color:#BBBDBF"/>
		<stop  offset="1" style="stop-color:#D0D2D3"/>
	</radialGradient>
	<circle fill="url(#SVGID_8_)" cx="23.831" cy="15.453" r="7.164"/>
	<g>
		<ellipse fill="#D0D2D3" cx="20.609" cy="14.636" rx="1.035" ry="2.716"/>
		
			<radialGradient id="SVGID_9_" cx="0.8735" cy="62.3975" r="5.6304" gradientTransform="matrix(0.8315 0 0 0.8315 19.4489 -38.8895)" gradientUnits="userSpaceOnUse">
			<stop  offset="0.3034" style="stop-color:#FFFFFF"/>
			<stop  offset="0.493" style="stop-color:#FAFAFA"/>
			<stop  offset="0.7329" style="stop-color:#EAEBEB"/>
			<stop  offset="0.999" style="stop-color:#D0D2D3"/>
			<stop  offset="1" style="stop-color:#D0D2D3"/>
		</radialGradient>
		<ellipse fill="url(#SVGID_9_)" cx="20.609" cy="14.881" rx="1.035" ry="2.716"/>
		<g>
			
				<radialGradient id="SVGID_10_" cx="-163.2261" cy="326.7109" r="2.0161" gradientTransform="matrix(-0.9475 0.4305 0.2206 1.5002 -206.1964 -407.5969)" gradientUnits="userSpaceOnUse">
				<stop  offset="0.3034" style="stop-color:#8A0304"/>
				<stop  offset="0.4249" style="stop-color:#8F0406"/>
				<stop  offset="0.5788" style="stop-color:#9F080B"/>
				<stop  offset="0.7501" style="stop-color:#B90F13"/>
				<stop  offset="0.9328" style="stop-color:#DD181F"/>
				<stop  offset="1" style="stop-color:#EC1C24"/>
			</radialGradient>
			<path fill="url(#SVGID_10_)" d="M20.307,16.552c-0.311,0.031-0.568-0.801-0.575-1.861c-0.006-1.058,0.24-1.939,0.552-1.97
				c0.311-0.029,0.567,0.802,0.574,1.861C20.865,15.64,20.618,16.522,20.307,16.552z"/>
			<path fill="#231F20" d="M20.3,15.916c-0.206,0.02-0.377-0.533-0.381-1.234c-0.006-0.704,0.158-1.29,0.365-1.31
				c0.206-0.019,0.378,0.533,0.382,1.236C20.669,15.311,20.505,15.898,20.3,15.916z"/>
			
				<ellipse transform="matrix(-0.9984 -0.0562 0.0562 -0.9984 39.3544 28.4748)" fill="#FFFFFF" cx="20.077" cy="13.684" rx="0.135" ry="0.418"/>
		</g>
	</g>
	
		<radialGradient id="SVGID_11_" cx="-62.4277" cy="-133.5288" r="7.8735" gradientTransform="matrix(1.7304 0 0 1.7304 116.1961 243.2938)" gradientUnits="userSpaceOnUse">
		<stop  offset="0" style="stop-color:#FFDD00"/>
		<stop  offset="0.457" style="stop-color:#FFD305"/>
		<stop  offset="1" style="stop-color:#FFC10E"/>
	</radialGradient>
	<path fill="url(#SVGID_11_)" d="M16.81,15.743c0.64,0.046,1.008,1.65,2.015,2.2c1.009,0.55,4.675,1.833,4.492,3.665
		c-0.185,1.833-4.216,13.287-9.622,13.287S1.783,19.959,1.783,19.959S8.93,15.194,16.81,15.743z"/>
	
		<radialGradient id="SVGID_12_" cx="-61.3628" cy="-128.771" r="8.1203" gradientTransform="matrix(1.7304 0 0 1.7304 116.1961 243.2938)" gradientUnits="userSpaceOnUse">
		<stop  offset="0" style="stop-color:#FFDD00"/>
		<stop  offset="0.3386" style="stop-color:#FED305"/>
		<stop  offset="0.9135" style="stop-color:#FCB813"/>
		<stop  offset="0.9157" style="stop-color:#FCB813"/>
		<stop  offset="1" style="stop-color:#FFCA05"/>
	</radialGradient>
	<path fill="url(#SVGID_12_)" d="M13.694,34.895c7.131,0,9.438-11.454,9.622-13.287c0.057-0.575-0.266-1.095-0.766-1.558H1.823
		C1.875,21.884,2.767,34.895,13.694,34.895z"/>
	
		<radialGradient id="SVGID_13_" cx="-45.8413" cy="-118.5293" r="1.5864" gradientTransform="matrix(1.7304 0 0 1.7304 115.1346 243.2938)" gradientUnits="userSpaceOnUse">
		<stop  offset="0" style="stop-color:#FFFFFF"/>
		<stop  offset="0.1348" style="stop-color:#E6E7E8"/>
		<stop  offset="0.4714" style="stop-color:#E4E5E6"/>
		<stop  offset="0.6396" style="stop-color:#DCDDDF"/>
		<stop  offset="0.77" style="stop-color:#CFD0D2"/>
		<stop  offset="0.881" style="stop-color:#BCBEC0"/>
		<stop  offset="0.8876" style="stop-color:#BBBDBF"/>
		<stop  offset="1" style="stop-color:#D0D2D3"/>
	</radialGradient>
	<ellipse fill="url(#SVGID_13_)" cx="36.62" cy="39.038" rx="1.828" ry="1.642"/>
	<path fill="#C5C7C9" d="M29.356,33.234c-1.705-1.812,1.068-12.02,3.04-12.711c1.653-0.582,4.981,4.067,4.981,4.067
		s-2.869,2.764-2.426,4.542C35.697,32.116,30.956,34.936,29.356,33.234z"/>
	
		<linearGradient id="SVGID_14_" gradientUnits="userSpaceOnUse" x1="9.0796" y1="-136.5405" x2="10.927" y2="-147.6759" gradientTransform="matrix(1.0385 0 0 1.0385 22.8711 175.8437)">
		<stop  offset="0" style="stop-color:#D0D2D3"/>
		<stop  offset="1" style="stop-color:#929497"/>
	</linearGradient>
	<path fill="url(#SVGID_14_)" d="M29.676,33.234c-1.704-1.812,1.067-11.882,3.039-12.575c1.65-0.582,4.982,3.931,4.982,3.931
		s-2.871,2.764-2.427,4.542C36.017,32.116,31.276,34.936,29.676,33.234z"/>
	
		<radialGradient id="SVGID_15_" cx="225.5469" cy="-318.728" r="9.5313" gradientTransform="matrix(1.0385 0 0 1.0385 -195.6729 349.8101)" gradientUnits="userSpaceOnUse">
		<stop  offset="0" style="stop-color:#F1F1F2"/>
		<stop  offset="0.2075" style="stop-color:#ECECED"/>
		<stop  offset="0.4512" style="stop-color:#DEDFE0"/>
		<stop  offset="0.7121" style="stop-color:#C6C8CA"/>
		<stop  offset="0.8146" style="stop-color:#BBBDBF"/>
		<stop  offset="1" style="stop-color:#E6E7E8"/>
	</radialGradient>
	<path fill="url(#SVGID_15_)" d="M31.434,22.205c-0.25-2.415,5.696-4.262,7.995-2.611c2.298,1.65,3.251,5.381,1.863,6.235
		c-0.746,0.458-1.863-1.28-1.863-1.28s0.837,1.923-0.639,2.345c-0.938,0.269-1.813-1.544-1.813-1.544s0.438,1.812-0.693,2.184
		c-0.862,0.284-1.811-0.96-2.237-2.345C33.521,23.481,31.597,23.751,31.434,22.205z"/>
</g>
</svg>
