<?xml version="1.0" encoding="utf-8"?>
<!-- Generator: Adobe Illustrator 14.0.0, SVG Export Plug-In . SVG Version: 6.00 Build 43363)  -->
<!DOCTYPE svg PUBLIC "-//W3C//DTD SVG 1.1//EN" "http://www.w3.org/Graphics/SVG/1.1/DTD/svg11.dtd">
<svg version="1.1" id="图层_1" xmlns="http://www.w3.org/2000/svg" xmlns:xlink="http://www.w3.org/1999/xlink" x="0px" y="0px"
	 width="50px" height="50px" viewBox="0 0 50 50" enable-background="new 0 0 50 50" xml:space="preserve">
<g>
	
		<radialGradient id="SVGID_1_" cx="-171.375" cy="-158.0757" r="4.3194" gradientTransform="matrix(1 0 0 1 181.6182 162.3184)" gradientUnits="userSpaceOnUse">
		<stop  offset="0.2472" style="stop-color:#D0D2D3"/>
		<stop  offset="1" style="stop-color:#808184"/>
	</radialGradient>
	<path fill="url(#SVGID_1_)" d="M7.723,3.594c0,0,1.135-0.749,1.373-0.074C9.419,4.443,7.25,5.466,7.373,7.835
		c0.064,1.224-1.372-1.571-1.372-1.571L7.723,3.594z"/>
	
		<radialGradient id="SVGID_2_" cx="-172.7988" cy="-155.9458" r="4.8509" gradientTransform="matrix(1 0 0 1 181.5259 160.4512)" gradientUnits="userSpaceOnUse">
		<stop  offset="0.2472" style="stop-color:#D0D2D3"/>
		<stop  offset="1" style="stop-color:#898B8D"/>
	</radialGradient>
	<path fill="url(#SVGID_2_)" d="M7.92,7.896c0,0,0.325-2.618,1.347-2.367c0.709,0.173-0.08,1.417,0.224,2.345
		c0.539,1.643,0.263,3.827-1.272,4.392C6.684,12.832,7.274,8.623,7.92,7.896z"/>
	
		<radialGradient id="SVGID_3_" cx="-176.8208" cy="-158.2217" r="9.7821" gradientTransform="matrix(1 0 0 1 181.6182 162.3184)" gradientUnits="userSpaceOnUse">
		<stop  offset="0.2472" style="stop-color:#D0D2D3"/>
		<stop  offset="1" style="stop-color:#808184"/>
	</radialGradient>
	<path fill="url(#SVGID_3_)" d="M8.421,12.601c0,0,1.283-1.45,0.657-2.69C8.421,8.609,6.551,6.987,7.624,5.228
		c0.572-0.938,1.396-1.509,0.485-2.1c-0.999-0.648-4.846,3.23-3.15,9.446c1.695,6.219,4.061,3.569,4.061,3.569L8.421,12.601z"/>
	
		<radialGradient id="SVGID_4_" cx="-170.6831" cy="-121.1563" r="8.805" gradientTransform="matrix(1 0 0 1 181.6182 162.3184)" gradientUnits="userSpaceOnUse">
		<stop  offset="0.2472" style="stop-color:#D0D2D3"/>
		<stop  offset="1" style="stop-color:#A6A8AB"/>
	</radialGradient>
	<path fill="url(#SVGID_4_)" d="M17.073,43.02c0,0-2.341,2.342-4.199,2.26c-1.857-0.08-3.376,0.357-3.311,1.455
		c0.081,1.373,3.875,1.695,5.895,1.129c2.018-0.564,4.183,0.168,4.764,0.082c1.615-0.242,0.571-2.082-0.243-3.877
		C18.445,40.678,17.073,43.02,17.073,43.02z"/>
	
		<radialGradient id="SVGID_5_" cx="-137.7373" cy="-125.437" r="9.7553" gradientTransform="matrix(1 0 0 1 181.6182 162.3184)" gradientUnits="userSpaceOnUse">
		<stop  offset="0.2472" style="stop-color:#D0D2D3"/>
		<stop  offset="1" style="stop-color:#A6A8AB"/>
	</radialGradient>
	<path fill="url(#SVGID_5_)" d="M38.416,41.826c0,0,3.216,0.793,4.765-0.236c1.547-1.027,3.071-1.439,3.584-0.469
		c0.641,1.219-2.442,3.459-4.462,4.018c-2.021,0.559-3.493,2.307-4.036,2.531c-1.508,0.627-1.563-1.484-1.797-3.441
		C36.029,40.531,38.416,41.826,38.416,41.826z"/>
	<path fill="#231F20" d="M23.876,35.109c0,0-4.823-1.09-5.602,3.889c-1.026,1.197-1.419,2.061-1.445,4.504l1.292-0.645l0.23,1.121
		l0.819-0.879l0.807,0.969c0,0,0.603-2.359,1.798-3.438c3.189-2.875,9.774-4.033,14.677,3.357l0.16-1.697l1.212,0.729l0.242-1.291
		l1.212,0.322c0,0-0.325-4.443-7.269-7.107C26.131,32.688,23.876,35.109,23.876,35.109z"/>
	<path fill="#231F20" d="M18.526,24.769c0,0-2.181,7.106,5.653,11.55c7.832,4.439,15.988-4.525,13.808-10.661
		c-2.179-6.138-14.617-3.393-14.617-3.393L18.526,24.769z"/>
	<path fill="#231F20" d="M14.811,19.601c-0.324-1.051-2.584-3.957-5.088-1.21c0,0,1.616-2.747-1.21-5.25l-1.05,1.277L6.725,13
		L5.519,14.34l-0.56-1.766c0,0-3.094,3.651,0.25,8.506c-0.646,7.025,12.914,7.564,16.547,3.446
		C25.308,20.5,20.059,17.906,14.811,19.601z"/>
	
		<radialGradient id="SVGID_6_" cx="-150.2827" cy="-125.8413" r="8.139" gradientTransform="matrix(1.1103 0 0 1 196.3842 162.3184)" gradientUnits="userSpaceOnUse">
		<stop  offset="0.2472" style="stop-color:#BBBDBF"/>
		<stop  offset="1" style="stop-color:#808184"/>
	</radialGradient>
	<ellipse fill="url(#SVGID_6_)" cx="28.337" cy="31.996" rx="6.096" ry="4.158"/>
	
		<radialGradient id="SVGID_7_" cx="-152.0298" cy="-124.8721" r="13.804" gradientTransform="matrix(1 0 0 1 181.6182 162.3184)" gradientUnits="userSpaceOnUse">
		<stop  offset="0.2472" style="stop-color:#D0D2D3"/>
		<stop  offset="1" style="stop-color:#808184"/>
	</radialGradient>
	<path fill="url(#SVGID_7_)" d="M19.817,24.607c0,0-2.019,6.299,1.131,7.914c3.15,1.613,6.058-2.746,7.833-2.18
		c1.777,0.564,6.702,0.889,7.993-0.406c1.293-1.291,1.212-5.813-2.745-6.942"/>
	
		<radialGradient id="SVGID_8_" cx="-149.1226" cy="-130.2002" r="5.1839" gradientTransform="matrix(1 0 0 1 181.6182 162.3184)" gradientUnits="userSpaceOnUse">
		<stop  offset="0.2472" style="stop-color:#D0D2D3"/>
		<stop  offset="1" style="stop-color:#A6A8AB"/>
	</radialGradient>
	<path fill="url(#SVGID_8_)" d="M34.997,31.633c0,0-4.358,3.393-2.582,7.348c0.481,1.072,1.249,0.162,1.572,0.484
		c0.323,0.324,0.85,0.809,1.577,0.486c0.367-0.166,2.468,1.613,3.229,0.564c0.775-1.072-0.969-0.646-1.453-1.211
		c-0.483-0.564,1.776-2.1,0.404-4.926l1.372-2.02l-2.504-2.018L34.997,31.633z"/>
	<path fill="#231F20" d="M38.47,14.109c0,0,7.326,2.753,3.796,9.287c0,0,4.119,6.54-4.521,10.983l0.403-1.939l-1.695,0.244
		l0.078-1.453l-1.534,0.402c0,0-0.725-5.088,2.585-6.622c0,0-2.585,0.727-3.553-3.069C33.353,19.296,38.47,14.109,38.47,14.109z"/>
	<g>
		
			<radialGradient id="SVGID_9_" cx="-69.0273" cy="-136.0327" r="10.8704" gradientTransform="matrix(0.4744 -0.2349 0.2349 0.4744 97.7218 59.6778)" gradientUnits="userSpaceOnUse">
			<stop  offset="0.2472" style="stop-color:#D0D2D3"/>
			<stop  offset="1" style="stop-color:#A6A8AB"/>
		</radialGradient>
		<path fill="url(#SVGID_9_)" d="M33.2,16.095c0.522-0.875,0.448-2.124,0.188-2.588c-0.823-1.483,0.299-2.99,1.686-3.399
			c1.55-0.459,2.846,0.348,3.401,0.834c1.964,1.72,1.488,5.245-0.042,7.097c-1.519,1.838-4.268,3.159-5.649,1.069
			C32.112,18.092,32.387,17.463,33.2,16.095z"/>
		
			<radialGradient id="SVGID_10_" cx="-64.2749" cy="-120.0674" r="15.2186" gradientTransform="matrix(0.4744 -0.2349 0.2349 0.4744 97.7218 59.6778)" gradientUnits="userSpaceOnUse">
			<stop  offset="0" style="stop-color:#929497"/>
			<stop  offset="0.4488" style="stop-color:#909295"/>
			<stop  offset="0.642" style="stop-color:#898B8E"/>
			<stop  offset="0.786" style="stop-color:#7D7F81"/>
			<stop  offset="0.905" style="stop-color:#6C6D70"/>
			<stop  offset="1" style="stop-color:#58595B"/>
		</radialGradient>
		<path fill="url(#SVGID_10_)" d="M33.729,13.082c-0.037-0.61,0.889-2.405,3.003-1.99c2.282,0.445,3.08,3.521,2.469,5.055
			c-0.809,2.04-2.841,3.719-4.643,3.6c-0.669-0.046,1.153-1.414-0.285-2.049c-1.142-0.506-0.601-1.667,0.167-2.273
			C35.208,14.82,33.795,14.117,33.729,13.082z"/>
		<path fill="#A6A8AB" d="M36.465,15.882c-0.377-0.919-1.323-1.084-1.853-1.1c0.097,0.231,0.084,0.443-0.172,0.642
			c-0.768,0.605-1.309,1.767-0.167,2.273c0.549,0.242,0.623,0.59,0.542,0.93C35.764,18.102,36.872,16.879,36.465,15.882z"/>
		
			<radialGradient id="SVGID_11_" cx="-72.7026" cy="-122.7002" r="6.776" gradientTransform="matrix(0.4744 -0.2349 0.2349 0.4744 97.7218 59.6778)" gradientUnits="userSpaceOnUse">
			<stop  offset="0" style="stop-color:#929497"/>
			<stop  offset="0.4488" style="stop-color:#909295"/>
			<stop  offset="0.642" style="stop-color:#898B8E"/>
			<stop  offset="0.786" style="stop-color:#7D7F81"/>
			<stop  offset="0.905" style="stop-color:#6C6D70"/>
			<stop  offset="1" style="stop-color:#58595B"/>
		</radialGradient>
		<path fill="url(#SVGID_11_)" d="M36.077,16.071c-0.285-0.695-0.927-0.918-1.414-0.982c-0.017,0.116-0.083,0.227-0.223,0.335
			c-0.018,0.016-0.038,0.032-0.058,0.048c-0.032,0.062-0.083,0.122-0.157,0.18c-0.059,0.047-0.113,0.095-0.168,0.145
			c-0.523,0.629-0.721,1.486,0.216,1.9c0.432,0.19,0.568,0.447,0.567,0.714C35.632,17.868,36.409,16.887,36.077,16.071z"/>
	</g>
	<g>
		
			<radialGradient id="SVGID_12_" cx="-50.4902" cy="-126.855" r="10.8703" gradientTransform="matrix(-0.4744 -0.2349 -0.2349 0.4744 -34.5079 59.6778)" gradientUnits="userSpaceOnUse">
			<stop  offset="0.2472" style="stop-color:#D0D2D3"/>
			<stop  offset="1" style="stop-color:#A6A8AB"/>
		</radialGradient>
		<path fill="url(#SVGID_12_)" d="M19.063,16.095c-0.521-0.875-0.446-2.124-0.188-2.588c0.825-1.483-0.296-2.99-1.682-3.399
			c-1.552-0.459-2.846,0.348-3.402,0.834c-1.962,1.72-1.49,5.245,0.041,7.097c1.519,1.838,4.268,3.159,5.649,1.069
			C20.151,18.092,19.877,17.463,19.063,16.095z"/>
		
			<radialGradient id="SVGID_13_" cx="-45.7397" cy="-110.8901" r="15.2179" gradientTransform="matrix(-0.4744 -0.2349 -0.2349 0.4744 -34.5079 59.6778)" gradientUnits="userSpaceOnUse">
			<stop  offset="0" style="stop-color:#929497"/>
			<stop  offset="0.4488" style="stop-color:#909295"/>
			<stop  offset="0.642" style="stop-color:#898B8E"/>
			<stop  offset="0.786" style="stop-color:#7D7F81"/>
			<stop  offset="0.905" style="stop-color:#6C6D70"/>
			<stop  offset="1" style="stop-color:#58595B"/>
		</radialGradient>
		<path fill="url(#SVGID_13_)" d="M18.532,13.082c0.039-0.61-0.887-2.405-3-1.99c-2.282,0.445-3.079,3.521-2.47,5.055
			c0.811,2.04,2.844,3.719,4.643,3.6c0.669-0.046-1.154-1.414,0.284-2.049c1.144-0.506,0.601-1.667-0.166-2.273
			C17.056,14.82,18.469,14.117,18.532,13.082z"/>
		<path fill="#A6A8AB" d="M15.799,15.882c0.376-0.919,1.324-1.084,1.852-1.1c-0.097,0.231-0.083,0.443,0.172,0.642
			c0.767,0.605,1.31,1.767,0.166,2.273c-0.547,0.242-0.622,0.59-0.542,0.93C16.5,18.102,15.392,16.879,15.799,15.882z"/>
		
			<radialGradient id="SVGID_14_" cx="-54.1655" cy="-113.522" r="6.7707" gradientTransform="matrix(-0.4744 -0.2349 -0.2349 0.4744 -34.5079 59.6778)" gradientUnits="userSpaceOnUse">
			<stop  offset="0" style="stop-color:#929497"/>
			<stop  offset="0.4488" style="stop-color:#909295"/>
			<stop  offset="0.642" style="stop-color:#898B8E"/>
			<stop  offset="0.786" style="stop-color:#7D7F81"/>
			<stop  offset="0.905" style="stop-color:#6C6D70"/>
			<stop  offset="1" style="stop-color:#58595B"/>
		</radialGradient>
		<path fill="url(#SVGID_14_)" d="M16.188,16.071c0.284-0.695,0.924-0.918,1.413-0.982c0.016,0.116,0.084,0.227,0.222,0.335
			c0.019,0.016,0.038,0.032,0.057,0.048c0.034,0.062,0.083,0.122,0.16,0.18c0.056,0.047,0.111,0.095,0.166,0.145
			c0.526,0.629,0.721,1.486-0.217,1.9c-0.43,0.19-0.567,0.447-0.567,0.714C16.632,17.868,15.854,16.887,16.188,16.071z"/>
	</g>
	<ellipse fill="#231F20" cx="26.212" cy="12.504" rx="8.912" ry="9.976"/>
	
		<radialGradient id="SVGID_15_" cx="-156.3164" cy="-153.4214" r="18.5579" gradientTransform="matrix(1 0 0 1 181.6182 162.3184)" gradientUnits="userSpaceOnUse">
		<stop  offset="0" style="stop-color:#E6E7E8"/>
		<stop  offset="0.0958" style="stop-color:#D7D8DA"/>
		<stop  offset="0.2402" style="stop-color:#C7C9CB"/>
		<stop  offset="0.4053" style="stop-color:#BEC0C2"/>
		<stop  offset="0.6348" style="stop-color:#BBBDBF"/>
		<stop  offset="0.8764" style="stop-color:#9C9EA1"/>
		<stop  offset="1" style="stop-color:#B1B3B5"/>
	</radialGradient>
	<path fill="url(#SVGID_15_)" d="M31.1,16.281c1.228-0.649,2.054-1.855,2.054-3.238c0-2.071-1.847-3.75-4.125-3.75
		c-1.067,0-2.036,0.372-2.769,0.973c-0.732-0.602-1.702-0.973-2.768-0.973c-2.28,0-4.127,1.68-4.127,3.75
		c0,1.369,0.812,2.563,2.018,3.219c-2.779,1.039-4.646,2.948-4.646,5.132c0,3.292,4.243,5.963,9.476,5.963
		c5.233,0,9.475-2.671,9.475-5.963C35.688,19.224,33.847,17.326,31.1,16.281z"/>
	<path fill="#A6A8AB" d="M27.598,11.634l-0.615-1.842c-0.109,0.057-0.215,0.119-0.318,0.185L27.598,11.634z"/>
	<path fill="#A6A8AB" d="M26.045,10.106l0.629,2.152l-0.201-2.15c-0.073,0.052-0.145,0.102-0.213,0.158
		C26.191,10.209,26.119,10.157,26.045,10.106z"/>
	<path fill="#A6A8AB" d="M25.522,9.786l-0.468,2.173l0.835-1.96C25.772,9.921,25.648,9.85,25.522,9.786z"/>
	<path fill="#929497" d="M27.57,13.543c0,1.032,0.838,2.048,1.869,2.048c1.032,0,1.869-1.017,1.869-2.048H27.57z"/>
	
		<radialGradient id="SVGID_16_" cx="-153.1919" cy="-153.9829" r="3.2348" gradientTransform="matrix(1 0 0 1 181.6182 166.3232)" gradientUnits="userSpaceOnUse">
		<stop  offset="0.3034" style="stop-color:#FFFFFF"/>
		<stop  offset="0.455" style="stop-color:#FAFAFA"/>
		<stop  offset="0.6469" style="stop-color:#EAEAEB"/>
		<stop  offset="0.8597" style="stop-color:#D0D1D3"/>
		<stop  offset="1" style="stop-color:#BBBDBF"/>
	</radialGradient>
	<path fill="url(#SVGID_16_)" d="M27.57,13.543c0,1.032,0.838,1.869,1.869,1.869c1.032,0,1.869-0.837,1.869-1.869H27.57z"/>
	
		<radialGradient id="SVGID_17_" cx="145.8252" cy="-312.5449" r="2.6599" gradientTransform="matrix(1.0503 0 0 1.0503 -123.8967 345.95)" gradientUnits="userSpaceOnUse">
		<stop  offset="0" style="stop-color:#E6E7E8"/>
		<stop  offset="0.3426" style="stop-color:#E3E4E5"/>
		<stop  offset="0.6136" style="stop-color:#D9DADC"/>
		<stop  offset="0.8593" style="stop-color:#C8CACC"/>
		<stop  offset="1" style="stop-color:#BBBDBF"/>
	</radialGradient>
	<path fill="url(#SVGID_17_)" d="M26.99,19.725c0,0,0.459-1.883,1.379-1.378c0.917,0.506-0.229,1.654-0.734,1.746"/>
	
		<ellipse transform="matrix(0.682 -0.7313 0.7313 0.682 -5.2754 26.482)" fill="#6D6E70" cx="27.817" cy="19.308" rx="0.58" ry="0.205"/>
	
		<radialGradient id="SVGID_18_" cx="156.4189" cy="-312.5449" r="2.6601" gradientTransform="matrix(-1.0503 0 0 1.0503 187.3596 345.95)" gradientUnits="userSpaceOnUse">
		<stop  offset="0" style="stop-color:#E6E7E8"/>
		<stop  offset="0.3426" style="stop-color:#E3E4E5"/>
		<stop  offset="0.6136" style="stop-color:#D9DADC"/>
		<stop  offset="0.8593" style="stop-color:#C8CACC"/>
		<stop  offset="1" style="stop-color:#BBBDBF"/>
	</radialGradient>
	<path fill="url(#SVGID_18_)" d="M25.35,19.725c0,0-0.46-1.883-1.38-1.378c-0.918,0.506,0.229,1.654,0.735,1.746"/>
	
		<ellipse transform="matrix(-0.6825 -0.7309 0.7309 -0.6825 27.1471 50.4086)" fill="#6D6E70" cx="24.522" cy="19.308" rx="0.58" ry="0.207"/>
	
		<radialGradient id="SVGID_19_" cx="-152.8472" cy="-151.9795" r="0.3076" gradientTransform="matrix(1 0 0 1 181.9067 165.645)" gradientUnits="userSpaceOnUse">
		<stop  offset="0" style="stop-color:#FFFFFF"/>
		<stop  offset="0.0582" style="stop-color:#DAD9D9"/>
		<stop  offset="0.1353" style="stop-color:#AFAEAE"/>
		<stop  offset="0.2184" style="stop-color:#898788"/>
		<stop  offset="0.3066" style="stop-color:#6A6768"/>
		<stop  offset="0.4013" style="stop-color:#504D4D"/>
		<stop  offset="0.5049" style="stop-color:#3C3839"/>
		<stop  offset="0.622" style="stop-color:#2E2A2B"/>
		<stop  offset="0.764" style="stop-color:#252223"/>
		<stop  offset="1" style="stop-color:#231F20"/>
	</radialGradient>
	<circle fill="url(#SVGID_19_)" cx="29.165" cy="13.818" r="0.213"/>
	<path fill="#929497" d="M21.339,13.543c0,1.032,0.838,2.048,1.87,2.048c1.033,0,1.869-1.017,1.87-2.048H21.339z"/>
	
		<radialGradient id="SVGID_20_" cx="-138.6709" cy="-153.9829" r="3.235" gradientTransform="matrix(1 0 0 1 160.8667 166.3232)" gradientUnits="userSpaceOnUse">
		<stop  offset="0.3034" style="stop-color:#FFFFFF"/>
		<stop  offset="0.455" style="stop-color:#FAFAFA"/>
		<stop  offset="0.6469" style="stop-color:#EAEAEB"/>
		<stop  offset="0.8597" style="stop-color:#D0D1D3"/>
		<stop  offset="1" style="stop-color:#BBBDBF"/>
	</radialGradient>
	<path fill="url(#SVGID_20_)" d="M21.339,13.543c0,1.032,0.838,1.869,1.87,1.869c1.033,0,1.869-0.837,1.87-1.869H21.339z"/>
	
		<radialGradient id="SVGID_21_" cx="-138.3267" cy="-151.9795" r="0.3076" gradientTransform="matrix(1 0 0 1 161.1553 165.645)" gradientUnits="userSpaceOnUse">
		<stop  offset="0" style="stop-color:#FFFFFF"/>
		<stop  offset="0.0582" style="stop-color:#DAD9D9"/>
		<stop  offset="0.1353" style="stop-color:#AFAEAE"/>
		<stop  offset="0.2184" style="stop-color:#898788"/>
		<stop  offset="0.3066" style="stop-color:#6A6768"/>
		<stop  offset="0.4013" style="stop-color:#504D4D"/>
		<stop  offset="0.5049" style="stop-color:#3C3839"/>
		<stop  offset="0.622" style="stop-color:#2E2A2B"/>
		<stop  offset="0.764" style="stop-color:#252223"/>
		<stop  offset="1" style="stop-color:#231F20"/>
	</radialGradient>
	<circle fill="url(#SVGID_21_)" cx="22.934" cy="13.818" r="0.213"/>
	<path fill="#C5C7C9" d="M24.937,25.914c-0.126-0.528,0.507-1.215,1.675-0.949c0.464,0.106,1.396-1.219,2.15-1.385
		c1.167-0.253,2.114,1.13,1.201,2.078c-0.661,0.69-2.44,0.008-3.204,0.475C25.877,26.668,25.156,26.824,24.937,25.914z"/>
	
		<linearGradient id="SVGID_22_" gradientUnits="userSpaceOnUse" x1="-153.9438" y1="-140.8818" x2="-154.3082" y2="-142.303" gradientTransform="matrix(1 0 0 1 181.6182 166.3232)">
		<stop  offset="0" style="stop-color:#EC1C24"/>
		<stop  offset="0.8527" style="stop-color:#990709"/>
		<stop  offset="1" style="stop-color:#8A0304"/>
	</linearGradient>
	<path fill="url(#SVGID_22_)" d="M24.901,25.77c-0.126-0.528,0.508-1.216,1.675-0.948c0.463,0.106,1.396-1.219,2.152-1.384
		c1.166-0.255,2.113,1.129,1.201,2.076c-0.663,0.691-2.443,0.009-3.207,0.475C25.842,26.525,25.12,26.682,24.901,25.77z"/>
	
		<linearGradient id="SVGID_23_" gradientUnits="userSpaceOnUse" x1="-144.9653" y1="-150.9902" x2="-144.9653" y2="-151.9745" gradientTransform="matrix(1 0 0 1 173.9731 174.938)">
		<stop  offset="0" style="stop-color:#FFFFFF"/>
		<stop  offset="1" style="stop-color:#BBBDBF"/>
	</linearGradient>
	<path fill="url(#SVGID_23_)" d="M28.947,24.094c0.117,0.058,0.322-0.236,0.48-0.611c-0.213-0.076-0.451-0.101-0.699-0.045
		c-0.047,0.009-0.094,0.024-0.142,0.043C28.697,23.804,28.841,24.041,28.947,24.094z"/>
	<polygon fill="#231F20" points="26.601,9.184 27.488,11.85 25.834,8.905 	"/>
	<polygon fill="#231F20" points="26.011,9.373 24.912,11.958 25.622,8.657 	"/>
	<polygon fill="#231F20" points="26.268,9.569 26.528,12.365 25.584,9.123 	"/>
	<path fill="#231F20" d="M22.32,41.883c-0.39,0.787-1.253,1.16-1.928,0.828s-0.906-1.244-0.516-2.033
		c0.389-0.789,1.252-1.16,1.927-0.828C22.477,40.182,22.708,41.092,22.32,41.883z"/>
	
		<ellipse transform="matrix(0.7769 -0.6296 0.6296 0.7769 -18.4374 30.6886)" fill="#231F20" cx="34.089" cy="41.363" rx="1.362" ry="1.596"/>
</g>
</svg>
