<?xml version="1.0" encoding="utf-8"?>
<!-- Generator: Adobe Illustrator 14.0.0, SVG Export Plug-In . SVG Version: 6.00 Build 43363)  -->
<!DOCTYPE svg PUBLIC "-//W3C//DTD SVG 1.1//EN" "http://www.w3.org/Graphics/SVG/1.1/DTD/svg11.dtd">
<svg version="1.1" id="图层_1" xmlns="http://www.w3.org/2000/svg" xmlns:xlink="http://www.w3.org/1999/xlink" x="0px" y="0px"
	 width="50px" height="50px" viewBox="0 0 50 50" enable-background="new 0 0 50 50" xml:space="preserve">
<g>
	
		<linearGradient id="SVGID_1_" gradientUnits="userSpaceOnUse" x1="-191.2559" y1="75.916" x2="-189.658" y2="75.1516" gradientTransform="matrix(1.1862 0 0 1.1862 232.7945 -66.3041)">
		<stop  offset="0" style="stop-color:#FAB16A"/>
		<stop  offset="0.31" style="stop-color:#F1A962"/>
		<stop  offset="0.8238" style="stop-color:#D7934E"/>
		<stop  offset="1" style="stop-color:#CD8A46"/>
	</linearGradient>
	<path fill="url(#SVGID_1_)" d="M4.547,25.094l0.639,0.203c0.529-1.665,3.359-3.256,3.388-3.27L8.248,21.44
		C8.122,21.51,5.156,23.175,4.547,25.094z"/>
	
		<radialGradient id="SVGID_2_" cx="-173.7422" cy="109.5986" r="4.6354" gradientTransform="matrix(1.0688 0 0 1.0688 224.3245 -73.5525)" gradientUnits="userSpaceOnUse">
		<stop  offset="0" style="stop-color:#7B340F"/>
		<stop  offset="0.4523" style="stop-color:#79310D"/>
		<stop  offset="0.7882" style="stop-color:#712807"/>
		<stop  offset="1" style="stop-color:#681D00"/>
	</radialGradient>
	<path fill="url(#SVGID_2_)" d="M35.098,42.741c0,0,2.867,0.679,3.438,1.809c0.442,0.875,0.453,2.04,0.453,2.04h-6.348
		c0,0-0.786-1.571,0.136-2.902c0.923-1.328,1.679-0.518,1.679-0.518L35.098,42.741z"/>
	
		<radialGradient id="SVGID_3_" cx="-149.0508" cy="89.7705" r="1.2888" gradientTransform="matrix(1.0688 0 0 1.0688 198.6428 -50.8699)" gradientUnits="userSpaceOnUse">
		<stop  offset="0" style="stop-color:#E6E7E8"/>
		<stop  offset="0.3548" style="stop-color:#E3E4E5"/>
		<stop  offset="0.6185" style="stop-color:#DADBDC"/>
		<stop  offset="0.8521" style="stop-color:#CACBCD"/>
		<stop  offset="1" style="stop-color:#BBBDBF"/>
	</radialGradient>
	<path fill="url(#SVGID_3_)" d="M38.418,45.255c0.477-0.236,1.483,0.377,1.708,1.331h-1.903
		C38.223,46.586,37.723,45.604,38.418,45.255z"/>
	
		<radialGradient id="SVGID_4_" cx="-164.3101" cy="92.1787" r="4.5757" gradientTransform="matrix(1.1862 0 0 1.1862 232.7945 -66.3041)" gradientUnits="userSpaceOnUse">
		<stop  offset="0" style="stop-color:#A15C38"/>
		<stop  offset="0.3614" style="stop-color:#9E5935"/>
		<stop  offset="0.6301" style="stop-color:#95502C"/>
		<stop  offset="0.868" style="stop-color:#87401C"/>
		<stop  offset="1" style="stop-color:#7B340F"/>
	</radialGradient>
	<path fill="url(#SVGID_4_)" d="M35.098,42.741c0,0,2.434,0.679,3.004,1.809c0.442,0.875,0.454,2.04,0.454,2.04h-6.349
		c0,0-0.786-1.571,0.137-2.902c0.923-1.328,1.98-1.328,1.98-1.328L35.098,42.741z"/>
	
		<radialGradient id="SVGID_5_" cx="-167.9023" cy="92.4531" r="10.0779" gradientTransform="matrix(1.1862 0 0 1.1862 232.7945 -66.3041)" gradientUnits="userSpaceOnUse">
		<stop  offset="0" style="stop-color:#FAB16A"/>
		<stop  offset="0.3886" style="stop-color:#F7AF69"/>
		<stop  offset="0.6776" style="stop-color:#EEA965"/>
		<stop  offset="0.9335" style="stop-color:#DE9E5F"/>
		<stop  offset="1" style="stop-color:#D89A5D"/>
	</radialGradient>
	<path fill="url(#SVGID_5_)" d="M25.547,26.651c0,0,1.402,3.326,2.876,6.129c0.853,1.623,1.831,2.472,2.472,2.994
		c0.692,0.564,0.966,2.567,1.587,3.477c1.306,1.911,2.616,3.49,2.616,3.49l-2.754,0.946c0,0-0.162-1.614-0.919-3.15
		c-0.586-1.19-1.662-1.436-2.645-2.494c-0.267-0.286-0.519-1.257-1.346-2.503c-1.299-1.954-2.888-4.564-3.78-5.877
		C22.191,27.512,25.547,26.651,25.547,26.651z"/>
	
		<radialGradient id="SVGID_6_" cx="-149.5625" cy="90.0039" r="1.333" gradientTransform="matrix(1.0688 0 0 1.0688 198.6428 -50.8699)" gradientUnits="userSpaceOnUse">
		<stop  offset="0" style="stop-color:#FFFFFF"/>
		<stop  offset="0.3427" style="stop-color:#FCFCFC"/>
		<stop  offset="0.5975" style="stop-color:#F3F3F3"/>
		<stop  offset="0.8232" style="stop-color:#E3E4E4"/>
		<stop  offset="1" style="stop-color:#D0D2D3"/>
	</radialGradient>
	<path fill="url(#SVGID_6_)" d="M37.984,45.255c0.476-0.236,1.484,0.377,1.708,1.331h-1.904
		C37.788,46.586,37.288,45.604,37.984,45.255z"/>
	
		<radialGradient id="SVGID_7_" cx="-135.689" cy="109.5986" r="4.6355" gradientTransform="matrix(1.0688 0 0 1.0688 167.6145 -73.5525)" gradientUnits="userSpaceOnUse">
		<stop  offset="0" style="stop-color:#A6A8AB"/>
		<stop  offset="0.4775" style="stop-color:#A3A5A8"/>
		<stop  offset="0.8321" style="stop-color:#9A9C9F"/>
		<stop  offset="1" style="stop-color:#929497"/>
	</radialGradient>
	<path fill="url(#SVGID_7_)" d="M19.059,42.741c0,0,2.868,0.679,3.439,1.809c0.441,0.875,0.454,2.04,0.454,2.04h-6.348
		c0,0-0.786-1.571,0.136-2.902c0.922-1.328,1.678-0.518,1.678-0.518L19.059,42.741z"/>
	
		<radialGradient id="SVGID_8_" cx="-112.1753" cy="89.7705" r="1.2888" gradientTransform="matrix(1.0688 0 0 1.0688 143.6887 -50.8699)" gradientUnits="userSpaceOnUse">
		<stop  offset="0" style="stop-color:#E6E7E8"/>
		<stop  offset="0.3548" style="stop-color:#E3E4E5"/>
		<stop  offset="0.6185" style="stop-color:#DADBDC"/>
		<stop  offset="0.8521" style="stop-color:#CACBCD"/>
		<stop  offset="1" style="stop-color:#BBBDBF"/>
	</radialGradient>
	<path fill="url(#SVGID_8_)" d="M22.876,45.255c0.476-0.236,1.484,0.377,1.708,1.331h-1.904
		C22.681,46.586,22.181,45.604,22.876,45.255z"/>
	
		<radialGradient id="SVGID_9_" cx="-134.6592" cy="109.6006" r="4.6324" gradientTransform="matrix(1.0688 0 0 1.0688 166.0803 -73.5525)" gradientUnits="userSpaceOnUse">
		<stop  offset="0" style="stop-color:#A15C38"/>
		<stop  offset="0.3614" style="stop-color:#9E5935"/>
		<stop  offset="0.6301" style="stop-color:#95502C"/>
		<stop  offset="0.868" style="stop-color:#87401C"/>
		<stop  offset="1" style="stop-color:#7B340F"/>
	</radialGradient>
	<path fill="url(#SVGID_9_)" d="M19.059,42.741c0,0,2.435,0.679,3.005,1.809c0.441,0.875,0.454,2.04,0.454,2.04h-6.348
		c0,0-0.786-1.571,0.136-2.902c0.922-1.328,1.98-1.328,1.98-1.328L19.059,42.741z"/>
	
		<radialGradient id="SVGID_10_" cx="-133.6147" cy="92.4531" r="10.0742" gradientTransform="matrix(1.1862 0 0 1.1862 176.0846 -66.3041)" gradientUnits="userSpaceOnUse">
		<stop  offset="0" style="stop-color:#FAB16A"/>
		<stop  offset="0.3886" style="stop-color:#F7AF69"/>
		<stop  offset="0.6776" style="stop-color:#EEA965"/>
		<stop  offset="0.9335" style="stop-color:#DE9E5F"/>
		<stop  offset="1" style="stop-color:#D89A5D"/>
	</radialGradient>
	<path fill="url(#SVGID_10_)" d="M9.508,26.651c0,0,1.402,3.326,2.876,6.129c0.853,1.623,1.831,2.472,2.473,2.994
		c0.69,0.564,0.964,2.567,1.586,3.477c1.305,1.911,2.615,3.49,2.615,3.49l-2.753,0.946c0,0-0.162-1.614-0.919-3.15
		c-0.586-1.19-1.663-1.436-2.645-2.494c-0.266-0.286-0.518-1.257-1.346-2.503c-1.298-1.954-2.887-4.564-3.78-5.877
		C6.152,27.512,9.508,26.651,9.508,26.651z"/>
	
		<radialGradient id="SVGID_11_" cx="-111.5093" cy="90.0039" r="1.3329" gradientTransform="matrix(1.0688 0 0 1.0688 141.9329 -50.8699)" gradientUnits="userSpaceOnUse">
		<stop  offset="0" style="stop-color:#FFFFFF"/>
		<stop  offset="0.3427" style="stop-color:#FCFCFC"/>
		<stop  offset="0.5975" style="stop-color:#F3F3F3"/>
		<stop  offset="0.8232" style="stop-color:#E3E4E4"/>
		<stop  offset="1" style="stop-color:#D0D2D3"/>
	</radialGradient>
	<path fill="url(#SVGID_11_)" d="M21.946,45.255c0.476-0.236,1.483,0.377,1.707,1.331H21.75
		C21.75,46.586,21.25,45.604,21.946,45.255z"/>
	
		<radialGradient id="SVGID_12_" cx="-182.7637" cy="114.4541" r="4.6342" gradientTransform="matrix(1.1862 0 0 1.1862 261.2975 -91.4789)" gradientUnits="userSpaceOnUse">
		<stop  offset="0" style="stop-color:#B77049"/>
		<stop  offset="0.4602" style="stop-color:#B46D47"/>
		<stop  offset="0.8019" style="stop-color:#AB653F"/>
		<stop  offset="1" style="stop-color:#A15C38"/>
	</radialGradient>
	<path fill="url(#SVGID_12_)" d="M40.647,43.415c0,0,3.183,0.75,3.818,2.005c0.488,0.972,0.502,2.265,0.502,2.265h-7.045
		c0,0-0.873-1.744,0.15-3.22c1.023-1.477,1.863-0.576,1.863-0.576L40.647,43.415z"/>
	
		<radialGradient id="SVGID_13_" cx="-158.0718" cy="94.625" r="1.2882" gradientTransform="matrix(1.1862 0 0 1.1862 232.7945 -66.3041)" gradientUnits="userSpaceOnUse">
		<stop  offset="0" style="stop-color:#FBC69A"/>
		<stop  offset="0.3097" style="stop-color:#F9C497"/>
		<stop  offset="0.54" style="stop-color:#F4BD8E"/>
		<stop  offset="0.7446" style="stop-color:#EBB17D"/>
		<stop  offset="0.9331" style="stop-color:#DEA167"/>
		<stop  offset="1" style="stop-color:#D89A5D"/>
	</radialGradient>
	<path fill="url(#SVGID_13_)" d="M44.333,46.204c0.529-0.264,1.648,0.42,1.896,1.476h-2.113
		C44.116,47.68,43.562,46.59,44.333,46.204z"/>
	
		<radialGradient id="SVGID_14_" cx="-181.7354" cy="114.4541" r="4.6342" gradientTransform="matrix(1.1862 0 0 1.1862 259.5953 -91.4789)" gradientUnits="userSpaceOnUse">
		<stop  offset="0" style="stop-color:#CB8361"/>
		<stop  offset="0.358" style="stop-color:#C8805E"/>
		<stop  offset="0.6242" style="stop-color:#BF7755"/>
		<stop  offset="0.86" style="stop-color:#AF6945"/>
		<stop  offset="1" style="stop-color:#A15C38"/>
	</radialGradient>
	<path fill="url(#SVGID_14_)" d="M40.647,43.415c0,0,2.702,0.75,3.336,2.005c0.49,0.972,0.502,2.265,0.502,2.265h-7.044
		c0,0-0.872-1.744,0.151-3.22c1.022-1.477,2.197-1.477,2.197-1.477L40.647,43.415z"/>
	
		<radialGradient id="SVGID_15_" cx="-182.2554" cy="103.9375" r="11.7968" gradientTransform="matrix(1.1862 0 0 1.1862 259.5953 -91.4789)" gradientUnits="userSpaceOnUse">
		<stop  offset="0" style="stop-color:#FCD0AF"/>
		<stop  offset="0.2953" style="stop-color:#FCCFAC"/>
		<stop  offset="0.5148" style="stop-color:#FCCAA3"/>
		<stop  offset="0.7099" style="stop-color:#FBC392"/>
		<stop  offset="0.8897" style="stop-color:#FBB97C"/>
		<stop  offset="1" style="stop-color:#FAB16A"/>
	</radialGradient>
	<path fill="url(#SVGID_15_)" d="M31.887,12.736c0,0,3.014,9.512,0.173,10.069c-1.275,0.25-5.444-10.743-8.938-9.847
		c-1.945,0.499-2.769,6.627-3.915,6.627c-1.146,0-3.125-6.771-4.958-6.667c-3.079,0.171-3.927,6.063-6.135,8.405
		c-2.346,2.49-2.085,8.157,1.257,9.97c3.342,1.815,21.964,6.438,27.645-5.646c2.195-4.67-1.893-13.756-1.893-13.756L31.887,12.736z"
		/>
	
		<linearGradient id="SVGID_16_" gradientUnits="userSpaceOnUse" x1="-178.7944" y1="86.291" x2="-178.7944" y2="81.9832" gradientTransform="matrix(1.1862 0 0 1.1862 232.7945 -66.3041)">
		<stop  offset="0" style="stop-color:#FCD0AF"/>
		<stop  offset="0.2953" style="stop-color:#FCCFAC"/>
		<stop  offset="0.5148" style="stop-color:#FCCAA3"/>
		<stop  offset="0.7099" style="stop-color:#FBC392"/>
		<stop  offset="0.8897" style="stop-color:#FBB97C"/>
		<stop  offset="1" style="stop-color:#FAB16A"/>
	</linearGradient>
	<path fill="url(#SVGID_16_)" d="M30.113,28.917L9.319,28.349v2.915c0.018,0.009,0.035,0.021,0.052,0.029
		c2.653,1.442,14.937,4.651,22.729-0.134L30.113,28.917z"/>
	
		<linearGradient id="SVGID_17_" gradientUnits="userSpaceOnUse" x1="-166.688" y1="70.585" x2="-168.1239" y2="66.8158" gradientTransform="matrix(1.1862 0 0 1.1862 232.7945 -66.3041)">
		<stop  offset="0" style="stop-color:#FAB16A"/>
		<stop  offset="0.31" style="stop-color:#F1A962"/>
		<stop  offset="0.8238" style="stop-color:#D7934E"/>
		<stop  offset="1" style="stop-color:#CD8A46"/>
	</linearGradient>
	<path fill="url(#SVGID_17_)" d="M35.123,11.891l-3.236,0.845c0,0,0.856,2.704,1.225,5.313l4.077,0.212
		C36.453,14.851,35.123,11.891,35.123,11.891z"/>
	<path fill="#D89A5D" d="M11.074,15.87c0.236,0.784,0.712-0.145,0.922-0.545c0.221-0.418,0.403,1.044,0.843,1.464
		c0.441,0.418,0.553-1.044,0.921-1.296c0.368-0.251,0.755,1.097,1.27,1.18c0.515,0.083,0.421-0.76,0.789-1.095
		c0.366-0.335,0.901,1.33,1.167,0.64c-0.867-1.681-1.821-3.351-2.738-3.299C12.835,12.997,11.894,14.278,11.074,15.87z"/>
	<path fill="#D89A5D" d="M22.738,16.161c0.503,0.419,0.671-0.251,1.089-0.504c0.421-0.251,0.756,1.594,1.343,1.678
		c0.587,0.083,0.587-1.258,1.006-1.593c0.294-0.235,0.753,0.065,0.972,0.003c-1.312-1.786-2.716-3.122-4.027-2.787
		c-0.94,0.242-1.618,1.796-2.197,3.34c0.287,0.212,0.692-0.479,0.891-0.808C22.068,15.07,22.235,15.742,22.738,16.161z"/>
	
		<radialGradient id="SVGID_18_" cx="-181.3921" cy="85.8457" r="3.7471" gradientTransform="matrix(1.1862 0 0 1.1862 259.5953 -91.4789)" gradientUnits="userSpaceOnUse">
		<stop  offset="0" style="stop-color:#FFE5CA"/>
		<stop  offset="0.3138" style="stop-color:#FEE2C7"/>
		<stop  offset="0.547" style="stop-color:#FBDABE"/>
		<stop  offset="0.7542" style="stop-color:#F6CDAD"/>
		<stop  offset="0.9453" style="stop-color:#EFBA97"/>
		<stop  offset="1" style="stop-color:#EDB38F"/>
	</radialGradient>
	<path fill="url(#SVGID_18_)" d="M41.862,9.76c0,0,2.652,1.593,1.888,3.312c-0.764,1.719-2.788,0.407-2.788,0.407l-0.269-3.671
		L41.862,9.76z"/>
	<path fill="#D79B7A" d="M41.28,10.98c0,0,0.204-0.813,0.553-1.162c-0.639-0.146-0.959,0.349-0.959,0.349L41.28,10.98z"/>
	
		<radialGradient id="SVGID_19_" cx="-194.6938" cy="82.5645" r="7.3399" gradientTransform="matrix(1.1862 0 0 1.1862 259.5953 -91.4789)" gradientUnits="userSpaceOnUse">
		<stop  offset="0" style="stop-color:#FAB16A"/>
		<stop  offset="0.5586" style="stop-color:#F8B069"/>
		<stop  offset="0.7598" style="stop-color:#F1AB67"/>
		<stop  offset="0.9027" style="stop-color:#E6A362"/>
		<stop  offset="1" style="stop-color:#D89A5D"/>
	</radialGradient>
	<path fill="url(#SVGID_19_)" d="M34.105,2.845c1.813-1.208,2.941,3.233,2.941,5.228c0,3.19-2.528,5.858-4.948,5.458
		c-2.69-0.442-3.877-1.995-3.877-5.186c0-3.191,1.999-6.313,3.88-6.226C33.02,2.162,33.584,3.195,34.105,2.845z"/>
	<path fill="#D89A5D" d="M35.516,3.98c0.22,0,0.396-0.173,0.408-0.391c-0.479-0.806-1.093-1.227-1.818-0.745
		c-0.315,0.211-0.646-0.082-1.06-0.355c0.011,0.049,0.03,0.094,0.063,0.131c-0.056,0.084-0.089,0.185-0.089,0.294
		c0,0.03,0.004,0.058,0.008,0.087c-0.059,0.051-0.099,0.124-0.099,0.209c0,0.143,0.11,0.256,0.25,0.272
		c-0.021,0.055-0.033,0.114-0.033,0.177c0,0.239,0.16,0.439,0.38,0.502c0.073,0.206,0.266,0.352,0.494,0.352
		c0.124,0,0.235-0.044,0.324-0.115c0.036,0.042,0.085,0.069,0.144,0.069c0.091,0,0.163-0.066,0.179-0.153
		c0.086-0.01,0.168-0.026,0.247-0.052c0.038,0.009,0.076,0.014,0.116,0.014c0.21,0,0.389-0.123,0.474-0.299
		C35.506,3.978,35.511,3.98,35.516,3.98z"/>
	<ellipse fill="#CE9258" cx="36.089" cy="6.568" rx="0.544" ry="1.028"/>
	
		<radialGradient id="SVGID_20_" cx="-210.9336" cy="89.6748" r="1.9728" gradientTransform="matrix(0.7946 0 0 0.9716 203.1221 -81.0634)" gradientUnits="userSpaceOnUse">
		<stop  offset="0.3034" style="stop-color:#FFFFFF"/>
		<stop  offset="0.4322" style="stop-color:#FAFAFA"/>
		<stop  offset="0.5953" style="stop-color:#EAEAEB"/>
		<stop  offset="0.7768" style="stop-color:#D0D1D3"/>
		<stop  offset="0.9705" style="stop-color:#ACAEB1"/>
		<stop  offset="1" style="stop-color:#A6A8AB"/>
	</radialGradient>
	<ellipse fill="url(#SVGID_20_)" cx="36.089" cy="6.687" rx="0.544" ry="1.029"/>
	<g>
		
			<radialGradient id="SVGID_21_" cx="143.0605" cy="-110.0933" r="0.6589" gradientTransform="matrix(0.4477 0 0 0.4477 -28.0311 56.0368)" gradientUnits="userSpaceOnUse">
			<stop  offset="0" style="stop-color:#FFFFFF"/>
			<stop  offset="0.0582" style="stop-color:#DAD9D9"/>
			<stop  offset="0.1353" style="stop-color:#AFAEAE"/>
			<stop  offset="0.2184" style="stop-color:#898788"/>
			<stop  offset="0.3066" style="stop-color:#6A6768"/>
			<stop  offset="0.4013" style="stop-color:#504D4D"/>
			<stop  offset="0.5049" style="stop-color:#3C3839"/>
			<stop  offset="0.622" style="stop-color:#2E2A2B"/>
			<stop  offset="0.764" style="stop-color:#252223"/>
			<stop  offset="1" style="stop-color:#231F20"/>
		</radialGradient>
		<circle fill="url(#SVGID_21_)" cx="36.218" cy="7.03" r="0.22"/>
	</g>
	
		<linearGradient id="SVGID_22_" gradientUnits="userSpaceOnUse" x1="-196.02" y1="86.1797" x2="-194.7736" y2="84.8529" gradientTransform="matrix(1.1862 0 0 1.1862 259.5953 -91.4789)">
		<stop  offset="0" style="stop-color:#FAB16A"/>
		<stop  offset="1" style="stop-color:#D89A5D"/>
	</linearGradient>
	<path fill="url(#SVGID_22_)" d="M28.44,10.403c0.423-0.823,1.465-1.807,1.465-1.807l-1.098-0.644l-0.585,0.47
		C28.229,9.171,28.299,9.83,28.44,10.403z"/>
	<path fill="#FAB16A" d="M29.952,7.714c0,0-1.264-1.646-2.026-1.717s-2.957,1.502-3.337,2.193c0,0,1.453,1.86,2.837,1.717
		c1.382-0.144,2.598-1.359,2.598-1.359L29.952,7.714z"/>
	
		<radialGradient id="SVGID_23_" cx="-183.9634" cy="88.9316" r="6.1251" gradientTransform="matrix(1.1862 0 0 1.1862 259.5953 -91.4789)" gradientUnits="userSpaceOnUse">
		<stop  offset="0" style="stop-color:#FFE5CA"/>
		<stop  offset="0.2597" style="stop-color:#FFE3C7"/>
		<stop  offset="0.4529" style="stop-color:#FEDEBE"/>
		<stop  offset="0.6244" style="stop-color:#FED6AD"/>
		<stop  offset="0.7835" style="stop-color:#FCC997"/>
		<stop  offset="0.9326" style="stop-color:#FBBA7A"/>
		<stop  offset="1" style="stop-color:#FAB16A"/>
	</radialGradient>
	<path fill="url(#SVGID_23_)" d="M41.28,11.039c0,0,1.853,1.811,0.61,3.339c-1.241,1.529-6.245,1.077-8.455-1.61
		c-2.107-2.561,1.963-4.148,1.963-4.148l3.48,0.327L41.28,11.039z"/>
	<path fill="#D79B7A" d="M41.28,10.98c0,0-2.381-0.987-4.414-1.162c-2.034-0.174,2.033-0.552,2.033-0.552l1.802,0.203L41.28,10.98z"
		/>
	
		<radialGradient id="SVGID_24_" cx="-183.7671" cy="85.3564" r="4.811" gradientTransform="matrix(1.1862 0 0 1.1862 259.5953 -91.4789)" gradientUnits="userSpaceOnUse">
		<stop  offset="0" style="stop-color:#FFE5CA"/>
		<stop  offset="0.2597" style="stop-color:#FFE3C7"/>
		<stop  offset="0.4529" style="stop-color:#FEDEBE"/>
		<stop  offset="0.6244" style="stop-color:#FED6AD"/>
		<stop  offset="0.7835" style="stop-color:#FCC997"/>
		<stop  offset="0.9326" style="stop-color:#FBBA7A"/>
		<stop  offset="1" style="stop-color:#FAB16A"/>
	</radialGradient>
	<path fill="url(#SVGID_24_)" d="M34.745,7.668c0,0,5.52-0.9,7.117,2.091c-0.262,0.146-0.552,0.552-0.582,1.221
		c0,0-2.12-1.772-8.162-0.813C33.844,8.511,34.745,7.668,34.745,7.668z"/>
	<ellipse fill="#CE9258" cx="34.049" cy="7.255" rx="0.812" ry="1.255"/>
	
		<radialGradient id="SVGID_25_" cx="-193.5034" cy="83.2676" r="1.9723" gradientTransform="matrix(1.1862 0 0 1.1862 262.7848 -92.0258)" gradientUnits="userSpaceOnUse">
		<stop  offset="0.3034" style="stop-color:#FFFFFF"/>
		<stop  offset="0.4322" style="stop-color:#FAFAFA"/>
		<stop  offset="0.5953" style="stop-color:#EAEAEB"/>
		<stop  offset="0.7768" style="stop-color:#D0D1D3"/>
		<stop  offset="0.9705" style="stop-color:#ACAEB1"/>
		<stop  offset="1" style="stop-color:#A6A8AB"/>
	</radialGradient>
	<ellipse fill="url(#SVGID_25_)" cx="34.049" cy="7.397" rx="0.812" ry="1.255"/>
	
		<radialGradient id="SVGID_26_" cx="-163.0088" cy="93.4785" r="12.182" gradientTransform="matrix(1.1862 0 0 1.1862 232.7945 -66.3041)" gradientUnits="userSpaceOnUse">
		<stop  offset="0" style="stop-color:#FCD0AF"/>
		<stop  offset="0.2953" style="stop-color:#FCCFAC"/>
		<stop  offset="0.5148" style="stop-color:#FCCAA3"/>
		<stop  offset="0.7099" style="stop-color:#FBC392"/>
		<stop  offset="0.8897" style="stop-color:#FBB97C"/>
		<stop  offset="1" style="stop-color:#FAB16A"/>
	</radialGradient>
	<path fill="url(#SVGID_26_)" d="M30.048,25.556c0,0,1.558,3.692,3.192,6.802c0.946,1.802,2.031,2.744,2.744,3.324
		c0.766,0.623,1.07,2.847,1.762,3.858c1.447,2.119,2.901,3.874,2.901,3.874l-3.055,1.05c0,0-0.181-1.793-1.021-3.499
		c-0.65-1.317-1.846-1.592-2.937-2.767c-0.294-0.319-0.572-1.394-1.492-2.777c-1.44-2.169-3.205-5.066-4.195-6.524
		C26.323,26.512,30.048,25.556,30.048,25.556z"/>
	<g>
		
			<radialGradient id="SVGID_27_" cx="165.1084" cy="-123.7061" r="0.6585" gradientTransform="matrix(0.5607 0 0 0.5607 -58.2916 76.6459)" gradientUnits="userSpaceOnUse">
			<stop  offset="0" style="stop-color:#FFFFFF"/>
			<stop  offset="0.0582" style="stop-color:#DAD9D9"/>
			<stop  offset="0.1353" style="stop-color:#AFAEAE"/>
			<stop  offset="0.2184" style="stop-color:#898788"/>
			<stop  offset="0.3066" style="stop-color:#6A6768"/>
			<stop  offset="0.4013" style="stop-color:#504D4D"/>
			<stop  offset="0.5049" style="stop-color:#3C3839"/>
			<stop  offset="0.622" style="stop-color:#2E2A2B"/>
			<stop  offset="0.764" style="stop-color:#252223"/>
			<stop  offset="1" style="stop-color:#231F20"/>
		</radialGradient>
		<circle fill="url(#SVGID_27_)" cx="34.325" cy="7.436" r="0.275"/>
	</g>
	
		<radialGradient id="SVGID_28_" cx="-195.2227" cy="86.5518" r="3.6487" gradientTransform="matrix(1.1862 0 0 1.1862 259.5953 -91.4789)" gradientUnits="userSpaceOnUse">
		<stop  offset="0" style="stop-color:#F7AAA5"/>
		<stop  offset="0.509" style="stop-color:#F6A8A4"/>
		<stop  offset="0.6924" style="stop-color:#F1A19E"/>
		<stop  offset="0.823" style="stop-color:#E99695"/>
		<stop  offset="0.9279" style="stop-color:#DE8589"/>
		<stop  offset="1" style="stop-color:#D2747C"/>
	</radialGradient>
	<path fill="url(#SVGID_28_)" d="M29.408,8.016c0,0-1.367-1.652-2.223-1.481c-0.854,0.171-2.506,1.653-2.506,1.653
		s1.538,1.653,2.563,1.595C28.269,9.726,29.408,8.016,29.408,8.016z"/>
	
		<radialGradient id="SVGID_29_" cx="-190.4858" cy="78.5479" r="2.0622" gradientTransform="matrix(1.1862 0 0 1.1862 259.5953 -91.4789)" gradientUnits="userSpaceOnUse">
		<stop  offset="0" style="stop-color:#A26233"/>
		<stop  offset="0.3761" style="stop-color:#9F6032"/>
		<stop  offset="0.6557" style="stop-color:#965A2D"/>
		<stop  offset="0.9034" style="stop-color:#864F25"/>
		<stop  offset="1" style="stop-color:#7D4921"/>
	</radialGradient>
	<path fill="url(#SVGID_29_)" d="M35.367,2.994c0.036-0.042,0.06-0.096,0.06-0.157c0-0.065-0.026-0.125-0.069-0.169
		c0.028-0.064,0.044-0.135,0.044-0.209c0-0.099-0.029-0.19-0.075-0.269c0.005-0.02,0.013-0.039,0.013-0.061
		c0-0.131-0.103-0.235-0.231-0.244c0-0.004,0.004-0.011,0.004-0.015c0-0.155-0.125-0.279-0.279-0.279
		c-0.014,0-0.027,0.006-0.039,0.009c0-0.003,0.001-0.006,0.001-0.009c0-0.154-0.125-0.278-0.278-0.278
		c-0.083,0-0.156,0.039-0.207,0.096c-0.052-0.052-0.121-0.083-0.199-0.083c-0.079,0-0.149,0.034-0.201,0.087
		c-0.049-0.029-0.104-0.05-0.166-0.05c-0.157,0-0.286,0.11-0.325,0.257c-0.031-0.025-0.067-0.042-0.111-0.042
		c-0.048,0-0.09,0.02-0.123,0.049c-0.019-0.006-0.035-0.011-0.056-0.011c-0.103,0-0.186,0.083-0.186,0.185
		c0,0.026,0.005,0.051,0.015,0.073c-0.03-0.011-0.062-0.019-0.096-0.019c-0.153,0-0.279,0.124-0.279,0.278
		c0,0.072,0.029,0.136,0.074,0.186c-0.058,0.083-0.09,0.185-0.09,0.293c0,0.031,0.005,0.06,0.009,0.088
		c-0.059,0.051-0.099,0.124-0.099,0.209c0,0.142,0.11,0.256,0.249,0.272c-0.021,0.055-0.033,0.114-0.033,0.176
		c0,0.24,0.162,0.44,0.381,0.503c0.071,0.204,0.265,0.352,0.495,0.352c0.122,0,0.234-0.044,0.323-0.116
		c0.035,0.042,0.084,0.07,0.142,0.07c0.092,0,0.164-0.066,0.18-0.153c0.086-0.009,0.169-0.026,0.248-0.052
		c0.038,0.009,0.077,0.013,0.116,0.013c0.209,0,0.389-0.122,0.474-0.3c0.004,0,0.008,0.003,0.012,0.003
		c0.229,0,0.413-0.184,0.413-0.412C35.475,3.16,35.432,3.067,35.367,2.994z"/>
	
		<radialGradient id="SVGID_30_" cx="-199.3408" cy="87.6572" r="3.5749" gradientTransform="matrix(1.1862 0 0 1.1862 259.5953 -91.4789)" gradientUnits="userSpaceOnUse">
		<stop  offset="0" style="stop-color:#A26233"/>
		<stop  offset="0.3761" style="stop-color:#9F6032"/>
		<stop  offset="0.6557" style="stop-color:#965A2D"/>
		<stop  offset="0.9034" style="stop-color:#864F25"/>
		<stop  offset="1" style="stop-color:#7D4921"/>
	</radialGradient>
	<path fill="url(#SVGID_30_)" d="M20.667,15.563c-0.192-0.768,1.281-2.992,2.781-3.05c2.308-0.089,3.678,1.793,3.761,2.547
		c0.084,0.755-0.67,0-1.09,0.335c-0.419,0.335-0.419,1.678-1.007,1.593c-0.586-0.083-0.922-1.928-1.342-1.678
		c-0.42,0.252-0.587,0.923-1.09,0.504c-0.503-0.42-0.671-1.091-0.923-0.672C21.506,15.563,20.919,16.57,20.667,15.563z"/>
	
		<radialGradient id="SVGID_31_" cx="-174.6841" cy="88.0273" r="3.5747" gradientTransform="matrix(1.0398 0 0 1.1862 194.7171 -92.0902)" gradientUnits="userSpaceOnUse">
		<stop  offset="0" style="stop-color:#A26233"/>
		<stop  offset="0.3761" style="stop-color:#9F6032"/>
		<stop  offset="0.6557" style="stop-color:#965A2D"/>
		<stop  offset="0.9034" style="stop-color:#864F25"/>
		<stop  offset="1" style="stop-color:#7D4921"/>
	</radialGradient>
	<path fill="url(#SVGID_31_)" d="M11.04,15.39c-0.168-0.768,1.123-2.993,2.438-3.049c2.024-0.089,3.859,2.594,3.513,3.516
		c-0.267,0.71-0.804-0.969-1.171-0.634s-0.274,1.179-0.789,1.095c-0.515-0.084-0.902-1.43-1.27-1.18
		c-0.368,0.252-0.48,1.715-0.921,1.296c-0.44-0.42-0.623-1.882-0.843-1.463C11.775,15.39,11.26,16.397,11.04,15.39z"/>
	
		<radialGradient id="SVGID_32_" cx="-158.5835" cy="94.8584" r="1.3319" gradientTransform="matrix(1.1862 0 0 1.1862 232.7945 -66.3041)" gradientUnits="userSpaceOnUse">
		<stop  offset="0" style="stop-color:#FCD0AF"/>
		<stop  offset="0.2953" style="stop-color:#FCCFAC"/>
		<stop  offset="0.5148" style="stop-color:#FCCAA3"/>
		<stop  offset="0.7099" style="stop-color:#FBC392"/>
		<stop  offset="0.8897" style="stop-color:#FBB97C"/>
		<stop  offset="1" style="stop-color:#FAB16A"/>
	</radialGradient>
	<path fill="url(#SVGID_32_)" d="M43.853,46.204c0.527-0.264,1.646,0.42,1.895,1.476h-2.113C43.634,47.68,43.08,46.59,43.853,46.204
		z"/>
	
		<radialGradient id="SVGID_33_" cx="-141.6509" cy="114.4541" r="4.6343" gradientTransform="matrix(1.1862 0 0 1.1862 193.2965 -91.4789)" gradientUnits="userSpaceOnUse">
		<stop  offset="0" style="stop-color:#B77049"/>
		<stop  offset="0.4602" style="stop-color:#B46D47"/>
		<stop  offset="0.8019" style="stop-color:#AB653F"/>
		<stop  offset="1" style="stop-color:#A15C38"/>
	</radialGradient>
	<path fill="url(#SVGID_33_)" d="M21.416,43.415c0,0,3.183,0.75,3.817,2.005c0.49,0.972,0.502,2.265,0.502,2.265h-7.044
		c0,0-0.873-1.744,0.15-3.22c1.023-1.477,1.861-0.576,1.861-0.576L21.416,43.415z"/>
	
		<radialGradient id="SVGID_34_" cx="-116.959" cy="94.625" r="1.2881" gradientTransform="matrix(1.1862 0 0 1.1862 164.7936 -66.3041)" gradientUnits="userSpaceOnUse">
		<stop  offset="0" style="stop-color:#FBC69A"/>
		<stop  offset="0.3097" style="stop-color:#F9C497"/>
		<stop  offset="0.54" style="stop-color:#F4BD8E"/>
		<stop  offset="0.7446" style="stop-color:#EBB17D"/>
		<stop  offset="0.9331" style="stop-color:#DEA167"/>
		<stop  offset="1" style="stop-color:#D89A5D"/>
	</radialGradient>
	<path fill="url(#SVGID_34_)" d="M25.101,46.204c0.528-0.264,1.648,0.42,1.895,1.476h-2.113C24.883,47.68,24.33,46.59,25.101,46.204
		z"/>
	
		<radialGradient id="SVGID_35_" cx="-140.6191" cy="114.4541" r="4.6341" gradientTransform="matrix(1.1862 0 0 1.1862 191.5924 -91.4789)" gradientUnits="userSpaceOnUse">
		<stop  offset="0" style="stop-color:#CB8361"/>
		<stop  offset="0.358" style="stop-color:#C8805E"/>
		<stop  offset="0.6242" style="stop-color:#BF7755"/>
		<stop  offset="0.86" style="stop-color:#AF6945"/>
		<stop  offset="1" style="stop-color:#A15C38"/>
	</radialGradient>
	<path fill="url(#SVGID_35_)" d="M21.416,43.415c0,0,2.701,0.75,3.334,2.005c0.49,0.972,0.504,2.265,0.504,2.265h-7.046
		c0,0-0.872-1.744,0.151-3.22c1.023-1.477,2.197-1.477,2.197-1.477L21.416,43.415z"/>
	
		<radialGradient id="SVGID_36_" cx="-121.8945" cy="93.4785" r="12.1836" gradientTransform="matrix(1.1862 0 0 1.1862 164.7936 -66.3041)" gradientUnits="userSpaceOnUse">
		<stop  offset="0" style="stop-color:#FCD0AF"/>
		<stop  offset="0.2953" style="stop-color:#FCCFAC"/>
		<stop  offset="0.5148" style="stop-color:#FCCAA3"/>
		<stop  offset="0.7099" style="stop-color:#FBC392"/>
		<stop  offset="0.8897" style="stop-color:#FBB97C"/>
		<stop  offset="1" style="stop-color:#FAB16A"/>
	</radialGradient>
	<path fill="url(#SVGID_36_)" d="M10.816,25.556c0,0,1.556,3.692,3.191,6.802c0.947,1.802,2.031,2.744,2.744,3.324
		c0.767,0.623,1.072,2.847,1.762,3.858c1.447,2.119,2.902,3.874,2.902,3.874l-3.056,1.05c0,0-0.181-1.793-1.021-3.499
		c-0.65-1.317-1.845-1.592-2.935-2.767c-0.297-0.319-0.574-1.394-1.494-2.777c-1.441-2.169-3.205-5.066-4.196-6.524
		C7.092,26.512,10.816,25.556,10.816,25.556z"/>
	
		<radialGradient id="SVGID_37_" cx="-117.4702" cy="94.8584" r="1.3322" gradientTransform="matrix(1.1862 0 0 1.1862 164.7936 -66.3041)" gradientUnits="userSpaceOnUse">
		<stop  offset="0" style="stop-color:#FCD0AF"/>
		<stop  offset="0.2953" style="stop-color:#FCCFAC"/>
		<stop  offset="0.5148" style="stop-color:#FCCAA3"/>
		<stop  offset="0.7099" style="stop-color:#FBC392"/>
		<stop  offset="0.8897" style="stop-color:#FBB97C"/>
		<stop  offset="1" style="stop-color:#FAB16A"/>
	</radialGradient>
	<path fill="url(#SVGID_37_)" d="M24.619,46.204c0.529-0.264,1.647,0.42,1.896,1.476h-2.114
		C24.401,47.68,23.846,46.59,24.619,46.204z"/>
	
		<radialGradient id="SVGID_38_" cx="-193.5776" cy="77.4482" r="3.1829" gradientTransform="matrix(1.1862 0 0 1.1862 232.7945 -66.3041)" gradientUnits="userSpaceOnUse">
		<stop  offset="0" style="stop-color:#A26233"/>
		<stop  offset="0.3761" style="stop-color:#9F6032"/>
		<stop  offset="0.6557" style="stop-color:#965A2D"/>
		<stop  offset="0.9034" style="stop-color:#864F25"/>
		<stop  offset="1" style="stop-color:#7D4921"/>
	</radialGradient>
	<path fill="url(#SVGID_38_)" d="M2.993,26.558c0.204-0.946,0.784-1.828,1.873-1.61c1.135,0.226,1.731,2.473,0.578,3.378
		c-1.154,0.907-1.567,2.061-1.567,2.061S2.629,28.243,2.993,26.558z"/>
</g>
</svg>
