<?xml version="1.0" encoding="utf-8"?>
<!-- Generator: Adobe Illustrator 14.0.0, SVG Export Plug-In . SVG Version: 6.00 Build 43363)  -->
<!DOCTYPE svg PUBLIC "-//W3C//DTD SVG 1.1//EN" "http://www.w3.org/Graphics/SVG/1.1/DTD/svg11.dtd">
<svg version="1.1" id="图层_1" xmlns="http://www.w3.org/2000/svg" xmlns:xlink="http://www.w3.org/1999/xlink" x="0px" y="0px"
	 width="50px" height="50px" viewBox="0 0 50 50" enable-background="new 0 0 50 50" xml:space="preserve">
<g>
	<g>
		
			<radialGradient id="SVGID_1_" cx="240.3545" cy="67.7363" r="7.459" gradientTransform="matrix(-0.8904 0.2535 0.2535 0.8904 223.9212 -81.5964)" gradientUnits="userSpaceOnUse">
			<stop  offset="0" style="stop-color:#CB8361"/>
			<stop  offset="1" style="stop-color:#7B340F"/>
		</radialGradient>
		<path fill="url(#SVGID_1_)" d="M28.568,44.05c-1.394-0.004-1.749,0.801-1.788,1.271s0.049,1.604-0.312,1.964
			c-0.309,0.307-0.572,0.227-1.583,0.238c-0.2,0.218-0.711,0.138-0.829-0.03c-0.359,0.142-0.624,0.108-0.813-0.021
			c-0.135,0.084-0.392,0.058-0.519-0.047c-0.709-0.682-0.069-1.546,0.665-1.366c1.391,0.342,1.433-1.051,1.433-1.051
			c-0.017-1.944,0.252-4.734,2.186-5.504c2.19-0.87,3.271-0.047,3.805,1.452C31.143,41.876,30.521,44.056,28.568,44.05z"/>
		<path fill="#541000" d="M24.327,46.284c0,0-0.583,0.313-0.273,1.203c0,0-0.284-0.215-0.209-0.662
			C23.906,46.449,24.327,46.284,24.327,46.284z"/>
		<path fill="#541000" d="M23.503,46.25c0,0-0.583,0.311-0.272,1.201c0,0-0.285-0.214-0.212-0.661
			C23.082,46.414,23.503,46.25,23.503,46.25z"/>
	</g>
	
		<linearGradient id="SVGID_2_" gradientUnits="userSpaceOnUse" x1="220.8672" y1="320.5352" x2="216.7961" y2="322.3807" gradientTransform="matrix(1 0 0 1 -181.2607 -285.5205)">
		<stop  offset="0" style="stop-color:#A15C38"/>
		<stop  offset="1" style="stop-color:#541000"/>
	</linearGradient>
	<path fill="url(#SVGID_2_)" d="M35.152,38.511c0,0,5.234-3.758,5.657-7.388c0,0,3.674,8.315-5.558,8.085L35.152,38.511z"/>
	
		<radialGradient id="SVGID_3_" cx="213.7832" cy="86.8662" r="12.5338" gradientTransform="matrix(1 0 0 1 -181.0654 -41.2881)" gradientUnits="userSpaceOnUse">
		<stop  offset="0.4101" style="stop-color:#CB8361"/>
		<stop  offset="0.5064" style="stop-color:#C47C5A"/>
		<stop  offset="0.6488" style="stop-color:#B16847"/>
		<stop  offset="0.8197" style="stop-color:#914728"/>
		<stop  offset="1" style="stop-color:#681D00"/>
	</radialGradient>
	<path fill="url(#SVGID_3_)" d="M31.616,31.798c0,0,0.436,3.788,4.529,5.108c3.149,1.016,1.692,5.948-2.125,7.74
		c-2.534,1.19-5.749,1.194-9.041-0.887c-6.112-3.862-0.154-13.512-0.154-13.512L31.616,31.798z"/>
	<ellipse fill="#ABE0F9" cx="40.409" cy="46.95" rx="1.47" ry="0.569"/>
	<g>
		
			<radialGradient id="SVGID_4_" cx="216.085" cy="78.626" r="7.4596" gradientTransform="matrix(1 0 0 1 -181.0654 -41.2881)" gradientUnits="userSpaceOnUse">
			<stop  offset="0" style="stop-color:#CB8361"/>
			<stop  offset="1" style="stop-color:#7B340F"/>
		</radialGradient>
		<path fill="url(#SVGID_4_)" d="M35.271,42.272c1.448-0.418,1.763,0.398,1.943,0.876c0.179,0.477,0.424,1.681,0.902,1.946
			c0.412,0.228,0.661,0.066,1.715-0.221c0.272,0.168,0.78-0.066,0.853-0.275c0.415,0.04,0.68-0.071,0.839-0.261
			c0.164,0.045,0.424-0.058,0.527-0.203c0.533-0.92-0.388-1.627-1.097-1.223c-1.345,0.766-1.799-0.669-1.799-0.669
			c-0.559-2.026-1.704-4.98-3.928-5.308c-2.344-0.343-3.146,1.115-3.261,2.83C31.898,40.817,33.246,42.856,35.271,42.272z"/>
		<path fill="#541000" d="M40.048,43.422c0,0,0.698,0.151,0.64,1.169c0,0,0.231-0.307,0.021-0.748
			C40.534,43.471,40.048,43.422,40.048,43.422z"/>
		<path fill="#541000" d="M40.892,43.143c0,0,0.699,0.15,0.64,1.168c0,0,0.232-0.306,0.023-0.748
			C41.379,43.19,40.892,43.143,40.892,43.143z"/>
	</g>
	<g>
		<path fill="#B77049" d="M14.482,22.214c0.771-6.107,0.307-10.892-1.335-11.271c-2.23-0.518-0.685,6.424-5.582,10.698
			c-6.722,5.862-4.422,10.217-0.732,10.375C10.359,32.165,13.949,26.419,14.482,22.214z"/>
		
			<linearGradient id="SVGID_5_" gradientUnits="userSpaceOnUse" x1="209.1807" y1="319.0205" x2="215.4774" y2="316.6866" gradientTransform="matrix(1.2627 -0.2711 0.2711 1.2627 -346.7777 -320.0536)">
			<stop  offset="0" style="stop-color:#A15C38"/>
			<stop  offset="1" style="stop-color:#541000"/>
		</linearGradient>
		<path fill="url(#SVGID_5_)" d="M14.856,22.41c0.771-6.106,0.306-10.892-1.338-11.272c-2.228-0.517-0.683,6.427-5.582,10.698
			c-6.721,5.864-4.422,10.219-0.731,10.376C10.73,32.362,14.322,26.614,14.856,22.41z"/>
		<path fill="#B77049" d="M32.304,18.388c-3.211-5.251-4.75-9.805-3.409-10.827c1.819-1.387,3.263,5.578,9.481,7.464
			c8.536,2.587,8.226,7.502,4.926,9.161C40.148,25.77,34.515,22.003,32.304,18.388z"/>
		
			<linearGradient id="SVGID_6_" gradientUnits="userSpaceOnUse" x1="208.7217" y1="319.0117" x2="215.0186" y2="316.6777" gradientTransform="matrix(-1.2627 0.2711 0.2711 1.2627 220.6629 -441.8686)">
			<stop  offset="0" style="stop-color:#A15C38"/>
			<stop  offset="1" style="stop-color:#541000"/>
		</linearGradient>
		<path fill="url(#SVGID_6_)" d="M32.045,18.718c-3.212-5.25-4.752-9.804-3.409-10.827c1.82-1.385,3.263,5.581,9.481,7.464
			c8.535,2.588,8.226,7.503,4.927,9.161C39.89,26.102,34.257,22.334,32.045,18.718z"/>
		
			<linearGradient id="SVGID_7_" gradientUnits="userSpaceOnUse" x1="208.1514" y1="76.6465" x2="207.4221" y2="73.4379" gradientTransform="matrix(1 0 0 1 -181.0654 -41.2881)">
			<stop  offset="0" style="stop-color:#F38486"/>
			<stop  offset="0.3076" style="stop-color:#F38284"/>
			<stop  offset="0.4887" style="stop-color:#F2797C"/>
			<stop  offset="0.6371" style="stop-color:#F16B6E"/>
			<stop  offset="0.7676" style="stop-color:#F0575C"/>
			<stop  offset="0.8854" style="stop-color:#EE3D43"/>
			<stop  offset="0.9944" style="stop-color:#EC1E26"/>
			<stop  offset="1" style="stop-color:#EC1C24"/>
		</linearGradient>
		<path fill="url(#SVGID_7_)" d="M21.636,33.62c0,0,2.333,2.624,4.813,1.959c1.337-0.36,2.697-0.774,3.354-3.126
			c2.584-9.262-2.525-2.634-2.525-2.634l-3.687,0.555L21.636,33.62z"/>
		
			<radialGradient id="SVGID_8_" cx="224.9883" cy="327.1973" r="19.5948" gradientTransform="matrix(1.2627 -0.2711 0.2711 1.2627 -346.7777 -320.0536)" gradientUnits="userSpaceOnUse">
			<stop  offset="0" style="stop-color:#CB8361"/>
			<stop  offset="1" style="stop-color:#681D00"/>
		</radialGradient>
		<path fill="url(#SVGID_8_)" d="M36.459,23.104c-0.165-0.528-0.367-1.082-0.604-1.646h0.006c-1.028-2.188-1.137-3.707-1.137-3.707
			h-0.001c-0.014-0.891-0.113-1.798-0.308-2.708c-1.233-5.74-5.832-9.82-11.041-10.321c1.575-0.797,3.187-1.144,3.187-1.144
			c-1.618-0.578-3.287,0.137-4.381,0.814c1.531-2.683,3.752-2.933,3.752-2.933c-2.911-0.174-4.541,1.796-5.37,3.342
			c-0.212,0.033-0.424,0.072-0.638,0.118c-6.503,1.396-10.558,8.192-9.059,15.18c0.2,0.926,0.489,1.809,0.854,2.641
			c0.075,0.231,0.426,1.384,0.464,3.223c-0.001,0.17-0.001,0.34,0.002,0.506c0,0.022,0.002,0.069,0.002,0.069
			c0.016,0.612,0.06,1.199,0.124,1.749c0.304,2.543,1.164,4.566,2.739,5.891c1.951,1.645,4.514,2.213,6.222,0.873
			c4.166-3.267,4.691-3.379,9.792-2.103c2.105,0.527,4.211-1.049,5.317-3.351C37.272,27.744,37.227,25.547,36.459,23.104z"/>
		
			<ellipse transform="matrix(0.9777 -0.2099 0.2099 0.9777 -2.5086 6.1459)" fill="#681D00" cx="27.695" cy="14.889" rx="1.313" ry="2.049"/>
		
			<ellipse transform="matrix(0.9779 -0.2092 0.2092 0.9779 -2.6441 6.1714)" fill="#CB8361" cx="27.844" cy="15.582" rx="1.314" ry="2.049"/>
		
			<radialGradient id="SVGID_9_" cx="358.6318" cy="-42.1606" r="2.7513" gradientTransform="matrix(1.2627 -0.2711 0.2711 1.2627 -414.7562 164.236)" gradientUnits="userSpaceOnUse">
			<stop  offset="0" style="stop-color:#FFFFFF"/>
			<stop  offset="0.3231" style="stop-color:#FDFDFD"/>
			<stop  offset="0.5133" style="stop-color:#F4F4F5"/>
			<stop  offset="0.6691" style="stop-color:#E6E7E7"/>
			<stop  offset="0.8062" style="stop-color:#D2D3D5"/>
			<stop  offset="0.93" style="stop-color:#B8BABC"/>
			<stop  offset="1" style="stop-color:#A6A8AB"/>
		</radialGradient>
		<path fill="url(#SVGID_9_)" d="M29.055,14.96c0.237,1.106-0.145,2.126-0.855,2.278c-0.709,0.153-1.476-0.621-1.715-1.727
			c-0.236-1.107,0.145-2.129,0.855-2.281C28.049,13.079,28.815,13.852,29.055,14.96z"/>
		
			<radialGradient id="SVGID_10_" cx="-184.1826" cy="167.7197" r="0.7179" gradientTransform="matrix(0.9171 -0.1969 0.1969 0.9171 163.3464 -173.6626)" gradientUnits="userSpaceOnUse">
			<stop  offset="0" style="stop-color:#FFFFFF"/>
			<stop  offset="0.0582" style="stop-color:#DAD9D9"/>
			<stop  offset="0.1353" style="stop-color:#AFAEAE"/>
			<stop  offset="0.2184" style="stop-color:#898788"/>
			<stop  offset="0.3066" style="stop-color:#6A6768"/>
			<stop  offset="0.4013" style="stop-color:#504D4D"/>
			<stop  offset="0.5049" style="stop-color:#3C3839"/>
			<stop  offset="0.622" style="stop-color:#2E2A2B"/>
			<stop  offset="0.764" style="stop-color:#252223"/>
			<stop  offset="1" style="stop-color:#231F20"/>
		</radialGradient>
		<circle fill="url(#SVGID_10_)" cx="27.651" cy="16.483" r="0.558"/>
		
			<ellipse transform="matrix(0.9776 -0.2103 0.2103 0.9776 -3.2153 4.016)" fill="#681D00" cx="17.276" cy="17.127" rx="1.313" ry="2.049"/>
		
			<ellipse transform="matrix(0.9778 -0.2097 0.2097 0.9778 -3.3499 4.0511)" fill="#CB8361" cx="17.425" cy="17.819" rx="1.314" ry="2.048"/>
		
			<radialGradient id="SVGID_11_" cx="350.5254" cy="-41.8691" r="2.3508" gradientTransform="matrix(1.2627 -0.2711 0.2711 1.2627 -414.7562 164.236)" gradientUnits="userSpaceOnUse">
			<stop  offset="0" style="stop-color:#FFFFFF"/>
			<stop  offset="0.3231" style="stop-color:#FDFDFD"/>
			<stop  offset="0.5133" style="stop-color:#F4F4F5"/>
			<stop  offset="0.6691" style="stop-color:#E6E7E7"/>
			<stop  offset="0.8062" style="stop-color:#D2D3D5"/>
			<stop  offset="0.93" style="stop-color:#B8BABC"/>
			<stop  offset="1" style="stop-color:#A6A8AB"/>
		</radialGradient>
		<path fill="url(#SVGID_11_)" d="M18.635,17.197c0.237,1.107-0.145,2.127-0.854,2.278c-0.709,0.153-1.477-0.62-1.715-1.726
			c-0.237-1.108,0.146-2.129,0.854-2.281C17.63,15.315,18.398,16.09,18.635,17.197z"/>
		
			<radialGradient id="SVGID_12_" cx="-158.5781" cy="167.7217" r="0.7176" gradientTransform="matrix(0.9171 -0.1969 0.1969 0.9171 130.197 -166.5454)" gradientUnits="userSpaceOnUse">
			<stop  offset="0" style="stop-color:#FFFFFF"/>
			<stop  offset="0.0582" style="stop-color:#DAD9D9"/>
			<stop  offset="0.1353" style="stop-color:#AFAEAE"/>
			<stop  offset="0.2184" style="stop-color:#898788"/>
			<stop  offset="0.3066" style="stop-color:#6A6768"/>
			<stop  offset="0.4013" style="stop-color:#504D4D"/>
			<stop  offset="0.5049" style="stop-color:#3C3839"/>
			<stop  offset="0.622" style="stop-color:#2E2A2B"/>
			<stop  offset="0.764" style="stop-color:#252223"/>
			<stop  offset="1" style="stop-color:#231F20"/>
		</radialGradient>
		<circle fill="url(#SVGID_12_)" cx="17.984" cy="18.558" r="0.559"/>
		<circle fill="#681D00" cx="24.229" cy="24.028" r="2.221"/>
		
			<radialGradient id="SVGID_13_" cx="-161.1343" cy="178.3779" r="2.9362" gradientTransform="matrix(1.2627 -0.2711 0.2711 1.2627 177.732 -246.3182)" gradientUnits="userSpaceOnUse">
			<stop  offset="0" style="stop-color:#FFFFFF"/>
			<stop  offset="0.1629" style="stop-color:#808184"/>
			<stop  offset="0.5768" style="stop-color:#484648"/>
			<stop  offset="0.8371" style="stop-color:#231F20"/>
			<stop  offset="1" style="stop-color:#58595B"/>
		</radialGradient>
		<circle fill="url(#SVGID_13_)" cx="23.93" cy="23.834" r="2.221"/>
	</g>
	<g>
		
			<radialGradient id="SVGID_14_" cx="210.1885" cy="82.541" r="6.3736" gradientTransform="matrix(1 0 0 1 -181.0654 -41.2881)" gradientUnits="userSpaceOnUse">
			<stop  offset="0" style="stop-color:#CB8361"/>
			<stop  offset="1" style="stop-color:#7B340F"/>
		</radialGradient>
		<path fill="url(#SVGID_14_)" d="M32.104,43.172c-0.429,1.101-0.297,2.131-0.212,2.635c0.107,0.647,0.053,1.731-0.336,2.12
			c-0.334,0.33-0.617,0.245-1.708,0.258c-0.217,0.235-0.771,0.147-0.897-0.032c-0.387,0.152-0.673,0.117-0.879-0.021
			c-0.144,0.089-0.423,0.061-0.562-0.053c-0.765-0.735-0.073-1.669,0.72-1.475c1.503,0.367,1.393-1.137,1.393-1.137
			c-0.016-1.407-2.235-2.24-0.774-4.366c0.574-0.836,1.887-0.627,2.265-0.397C32.123,41.313,32.322,42.608,32.104,43.172z"/>
		<path fill="#541000" d="M29.242,46.847c0,0-0.63,0.336-0.294,1.298c0,0-0.308-0.231-0.227-0.714
			C28.789,47.025,29.242,46.847,29.242,46.847z"/>
		<path fill="#541000" d="M28.353,46.809c0,0-0.631,0.337-0.294,1.298c0,0-0.306-0.231-0.228-0.714
			C27.899,46.987,28.353,46.809,28.353,46.809z"/>
	</g>
</g>
</svg>
