<?xml version="1.0" encoding="utf-8"?>
<!-- Generator: Adobe Illustrator 14.0.0, SVG Export Plug-In . SVG Version: 6.00 Build 43363)  -->
<!DOCTYPE svg PUBLIC "-//W3C//DTD SVG 1.1//EN" "http://www.w3.org/Graphics/SVG/1.1/DTD/svg11.dtd">
<svg version="1.1" id="图层_1" xmlns="http://www.w3.org/2000/svg" xmlns:xlink="http://www.w3.org/1999/xlink" x="0px" y="0px"
	 width="50px" height="50px" viewBox="0 0 50 50" enable-background="new 0 0 50 50" xml:space="preserve">
<g>
	
		<radialGradient id="SVGID_1_" cx="199.6572" cy="277.4355" r="7.4134" gradientTransform="matrix(1 0 0 1 -193.6934 -268.0146)" gradientUnits="userSpaceOnUse">
		<stop  offset="0" style="stop-color:#00BFF2"/>
		<stop  offset="0.2094" style="stop-color:#00BBF0"/>
		<stop  offset="0.41" style="stop-color:#00B0E8"/>
		<stop  offset="0.6063" style="stop-color:#009CDC"/>
		<stop  offset="0.7584" style="stop-color:#0088CF"/>
		<stop  offset="1" style="stop-color:#00ADEE"/>
	</radialGradient>
	<path fill="url(#SVGID_1_)" d="M3.821,18.129c0,0,2.48-7.783,5.391-8.125c1.625-0.194-2.836-2.238-5.841-0.373
		c-2.173,1.354-1.354,5.24-1.02,6.148C2.687,16.688,3.293,17.891,3.821,18.129z"/>
	
		<radialGradient id="SVGID_2_" cx="202.5918" cy="277.7109" r="12.8447" gradientTransform="matrix(1 0 0 1 -193.5264 -267.8477)" gradientUnits="userSpaceOnUse">
		<stop  offset="0" style="stop-color:#A780B8"/>
		<stop  offset="0.1717" style="stop-color:#A47CB6"/>
		<stop  offset="0.3362" style="stop-color:#9B71B1"/>
		<stop  offset="0.4979" style="stop-color:#8B5DA7"/>
		<stop  offset="0.6567" style="stop-color:#76429A"/>
		<stop  offset="0.7584" style="stop-color:#652D90"/>
		<stop  offset="1" style="stop-color:#7E499B"/>
	</radialGradient>
	<path fill="url(#SVGID_2_)" d="M5.392,23.704c0,0,4.216-13.271,8.806-13.813c2.565-0.303-2.756-2.976-7.495-0.028
		c-3.431,2.131-4.135,7.532-3.629,10.134C3.467,22.017,4.562,23.329,5.392,23.704z"/>
	
		<radialGradient id="SVGID_3_" cx="207.5586" cy="277.9531" r="19.7843" gradientTransform="matrix(1 0 0 1 -193.6934 -268.0146)" gradientUnits="userSpaceOnUse">
		<stop  offset="0" style="stop-color:#00BFF2"/>
		<stop  offset="0.2094" style="stop-color:#00BBF0"/>
		<stop  offset="0.41" style="stop-color:#00B0E8"/>
		<stop  offset="0.6063" style="stop-color:#009CDC"/>
		<stop  offset="0.7584" style="stop-color:#0088CF"/>
		<stop  offset="1" style="stop-color:#00ADEE"/>
	</radialGradient>
	<path fill="url(#SVGID_3_)" d="M9.805,30.464c0,0,4.848-18.762,12.359-19.644c4.197-0.496-4.936-4.197-11.107-0.618
		C6.45,12.873,4.339,21.457,5.522,25.961C6.157,28.382,8.446,29.849,9.805,30.464z"/>
	
		<radialGradient id="SVGID_4_" cx="220.833" cy="286.6299" r="26.6829" gradientTransform="matrix(1 0 0 1 -193.6934 -268.0146)" gradientUnits="userSpaceOnUse">
		<stop  offset="0" style="stop-color:#FFCA05"/>
		<stop  offset="0.246" style="stop-color:#FEC607"/>
		<stop  offset="0.4817" style="stop-color:#FDBB0C"/>
		<stop  offset="0.7124" style="stop-color:#F9A714"/>
		<stop  offset="0.8989" style="stop-color:#F6921E"/>
		<stop  offset="1" style="stop-color:#FCB813"/>
	</radialGradient>
	<path fill="url(#SVGID_4_)" d="M43.906,39.156c0-1.003-0.158,1.521-0.817,0.078c-0.235-0.516-1.62,2.261,1.249-0.118
		c4.885-4.962,6.541-12.29,1.984-18.2c-7.828-10.157-23.788-3.5-23.788-3.5S5.847,35.589,22.699,43.002
		c6.991,3.073,13.821,1.838,18.77-1.507C41.182,41.179,43.906,39.605,43.906,39.156z"/>
	
		<radialGradient id="SVGID_5_" cx="-3838.8696" cy="-3574.5288" r="15.2739" gradientTransform="matrix(1.4635 0 0 1.4635 5633.9043 5243.6699)" gradientUnits="userSpaceOnUse">
		<stop  offset="0" style="stop-color:#A780B8"/>
		<stop  offset="0.1717" style="stop-color:#A47CB6"/>
		<stop  offset="0.3362" style="stop-color:#9B71B1"/>
		<stop  offset="0.4979" style="stop-color:#8B5DA7"/>
		<stop  offset="0.6567" style="stop-color:#76429A"/>
		<stop  offset="0.7584" style="stop-color:#652D90"/>
		<stop  offset="1" style="stop-color:#7E499B"/>
	</radialGradient>
	<path fill="url(#SVGID_5_)" d="M13.275,37.037c0,0,7.241-23.514,16.551-24.607c5.197-0.615-5.993-5.668-14.41-0.352
		c-5.58,3.523-8.418,14.324-7.306,19.159C8.83,34.364,11.594,36.269,13.275,37.037z"/>
	
		<radialGradient id="SVGID_6_" cx="224.542" cy="280.9795" r="30.5616" gradientTransform="matrix(1 0 0 1 -193.6934 -268.0146)" gradientUnits="userSpaceOnUse">
		<stop  offset="0" style="stop-color:#00BFF2"/>
		<stop  offset="0.2094" style="stop-color:#00BBF0"/>
		<stop  offset="0.41" style="stop-color:#00B0E8"/>
		<stop  offset="0.6063" style="stop-color:#009CDC"/>
		<stop  offset="0.7584" style="stop-color:#0088CF"/>
		<stop  offset="1" style="stop-color:#00ADEE"/>
	</radialGradient>
	<path fill="url(#SVGID_6_)" d="M21.115,42.901c0,0,5.131-22.386,17.415-25.991c5.061-1.485-4.41-10.403-15.522-3.025
		c-7.888,5.239-10.877,17.886-10.23,21.57C13.737,40.918,17.96,42.52,21.115,42.901z"/>
</g>
</svg>
