<?xml version="1.0" encoding="utf-8"?>
<!-- Generator: Adobe Illustrator 14.0.0, SVG Export Plug-In . SVG Version: 6.00 Build 43363)  -->
<!DOCTYPE svg PUBLIC "-//W3C//DTD SVG 1.1//EN" "http://www.w3.org/Graphics/SVG/1.1/DTD/svg11.dtd">
<svg version="1.1" id="图层_1" xmlns="http://www.w3.org/2000/svg" xmlns:xlink="http://www.w3.org/1999/xlink" x="0px" y="0px"
	 width="50px" height="50px" viewBox="0 0 50 50" enable-background="new 0 0 50 50" xml:space="preserve">
<g>
	
		<radialGradient id="SVGID_1_" cx="-171.2739" cy="-118.3032" r="6.3771" gradientTransform="matrix(1.1181 0 0 1.1181 209.6784 162.5876)" gradientUnits="userSpaceOnUse">
		<stop  offset="0" style="stop-color:#E2A278"/>
		<stop  offset="1" style="stop-color:#844500"/>
	</radialGradient>
	<path fill="url(#SVGID_1_)" d="M24.021,31.958c0,0-4.598,2.01-5.541,2.741l1.278,1.734c0,0,2.04,0.273,3.775-0.364
		c1.192-0.44,1.309-1.646,1.309-1.646L24.021,31.958z"/>
	
		<radialGradient id="SVGID_2_" cx="-101.8359" cy="-115.0483" r="14.566" gradientTransform="matrix(0.7756 -0.5769 0.5769 0.7756 192.3624 62.8763)" gradientUnits="userSpaceOnUse">
		<stop  offset="0" style="stop-color:#E2A278"/>
		<stop  offset="1" style="stop-color:#7C3F00"/>
	</radialGradient>
	<path fill="url(#SVGID_2_)" d="M35.701,40.999c0,0,8.188-6.442,10.318-3.553c2.239,3.039-3.868,5.93-9.507,5.768
		C36.513,43.214,34.907,41.882,35.701,40.999z"/>
	
		<radialGradient id="SVGID_3_" cx="-179.2231" cy="-116.4546" r="13.5864" gradientTransform="matrix(0.9666 0 0 0.9666 184.5847 150.0144)" gradientUnits="userSpaceOnUse">
		<stop  offset="0" style="stop-color:#E2A278"/>
		<stop  offset="1" style="stop-color:#975606"/>
	</radialGradient>
	<path fill="url(#SVGID_3_)" d="M24.356,43.381c0,0-10.106-1.201-9.831,3.888h13.401l-1.397-2.912L24.356,43.381z"/>
	
		<radialGradient id="SVGID_4_" cx="-181.6157" cy="-116.4546" r="13.5864" gradientTransform="matrix(0.9666 0 0 0.9666 188.3386 150.0144)" gradientUnits="userSpaceOnUse">
		<stop  offset="0" style="stop-color:#E2A278"/>
		<stop  offset="1" style="stop-color:#975606"/>
	</radialGradient>
	<path fill="url(#SVGID_4_)" d="M25.799,43.381c0,0-10.108-1.201-9.833,3.888h13.401l-1.398-2.912L25.799,43.381z"/>
	
		<radialGradient id="SVGID_5_" cx="-184.5234" cy="-116.4546" r="13.5859" gradientTransform="matrix(0.9666 0 0 0.9666 192.9016 150.0144)" gradientUnits="userSpaceOnUse">
		<stop  offset="0" style="stop-color:#E2A278"/>
		<stop  offset="1" style="stop-color:#975606"/>
	</radialGradient>
	<path fill="url(#SVGID_5_)" d="M27.551,43.381c0,0-10.107-1.201-9.832,3.888h11.018l0.983-2.912L27.551,43.381z"/>
	
		<radialGradient id="SVGID_6_" cx="-152.0234" cy="-116.4546" r="13.5859" gradientTransform="matrix(-0.9666 0 0 0.9666 -98.5642 150.0144)" gradientUnits="userSpaceOnUse">
		<stop  offset="0" style="stop-color:#E2A278"/>
		<stop  offset="1" style="stop-color:#975606"/>
	</radialGradient>
	<path fill="url(#SVGID_6_)" d="M35.373,43.381c0,0,10.106-1.201,9.831,3.888h-13.4l1.399-2.912L35.373,43.381z"/>
	
		<radialGradient id="SVGID_7_" cx="-154.4155" cy="-116.4546" r="13.5855" gradientTransform="matrix(-0.9666 0 0 0.9666 -102.3181 150.0144)" gradientUnits="userSpaceOnUse">
		<stop  offset="0" style="stop-color:#E2A278"/>
		<stop  offset="1" style="stop-color:#975606"/>
	</radialGradient>
	<path fill="url(#SVGID_7_)" d="M33.932,43.381c0,0,10.107-1.201,9.831,3.888H30.363l1.398-2.912L33.932,43.381z"/>
	
		<radialGradient id="SVGID_8_" cx="-157.3262" cy="-116.4546" r="13.5865" gradientTransform="matrix(-0.9666 0 0 0.9666 -106.8816 150.0144)" gradientUnits="userSpaceOnUse">
		<stop  offset="0" style="stop-color:#E2A278"/>
		<stop  offset="1" style="stop-color:#975606"/>
	</radialGradient>
	<path fill="url(#SVGID_8_)" d="M32.179,43.381c0,0,10.108-1.201,9.833,3.888h-11.02l-0.983-2.912L32.179,43.381z"/>
	
		<radialGradient id="SVGID_9_" cx="-172.0269" cy="-107.3486" r="15.5181" gradientTransform="matrix(1.1181 0 0 1.1181 209.6784 162.5876)" gradientUnits="userSpaceOnUse">
		<stop  offset="0" style="stop-color:#E2A278"/>
		<stop  offset="0.8034" style="stop-color:#975606"/>
		<stop  offset="1" style="stop-color:#844500"/>
	</radialGradient>
	<path fill="url(#SVGID_9_)" d="M28.79,27.874c0,0,13.48,6.172,8.96,14.688c-3.029,5.714-12.02,6.435-14.798,1.635
		c-3.635-6.283,3.145-17.599,3.145-17.599L28.79,27.874z"/>
	<path fill="none" stroke="#231F20" stroke-width="0.5" stroke-linecap="round" stroke-linejoin="round" d="M7.788,17.744
		c0,0-1.416,0.214-2.33,0.808"/>
	<path fill="none" stroke="#231F20" stroke-width="0.5" stroke-linecap="round" stroke-linejoin="round" d="M7.942,18.771
		c0,0-1.421,0.338-2.872,1.799"/>
	
		<radialGradient id="SVGID_10_" cx="-177.6567" cy="-150.1328" r="18.6841" gradientTransform="matrix(1.1181 0 0 1.1181 209.6843 162.5935)" gradientUnits="userSpaceOnUse">
		<stop  offset="0" style="stop-color:#E2A278"/>
		<stop  offset="1" style="stop-color:#975606"/>
	</radialGradient>
	<path fill="url(#SVGID_10_)" d="M25.205,2.827C11.453-0.379,7.941,24.843,12.796,28.781c0.938,0.762,2.114,1.358,3.431,1.791
		c0.668,1.064,1.699,1.618,2.409,1.248c0.232-0.122,0.404-0.33,0.512-0.592c6.122,0.805,13.685-1.407,16.353-7.323
		C38.832,16.525,32.295,4.479,25.205,2.827z"/>
	<g>
		<path fill="#692E00" d="M17.538,11.009c0.037,0.597-0.175,1.163-0.475,1.256c-0.3,0.096-0.575-0.309-0.613-0.907
			c-0.038-0.6,0.176-1.162,0.476-1.259C17.228,10.004,17.5,10.412,17.538,11.009z"/>
		<path fill="#BF6616" d="M17.53,11.353c0.038,0.6-0.176,1.163-0.476,1.259c-0.3,0.097-0.575-0.311-0.613-0.908
			c-0.038-0.6,0.174-1.162,0.476-1.256C17.217,10.348,17.492,10.758,17.53,11.353z"/>
		
			<radialGradient id="SVGID_11_" cx="221.1416" cy="-158.8818" r="0.8944" gradientTransform="matrix(0.6701 -1.0011 0.4785 1.3056 -55.649 439.6836)" gradientUnits="userSpaceOnUse">
			<stop  offset="0" style="stop-color:#FFFFFF"/>
			<stop  offset="0.0582" style="stop-color:#DAD9D9"/>
			<stop  offset="0.1353" style="stop-color:#AFAEAE"/>
			<stop  offset="0.2184" style="stop-color:#898788"/>
			<stop  offset="0.3066" style="stop-color:#6A6768"/>
			<stop  offset="0.4013" style="stop-color:#504D4D"/>
			<stop  offset="0.5049" style="stop-color:#3C3839"/>
			<stop  offset="0.622" style="stop-color:#2E2A2B"/>
			<stop  offset="0.764" style="stop-color:#252223"/>
			<stop  offset="1" style="stop-color:#231F20"/>
		</radialGradient>
		<path fill="url(#SVGID_11_)" d="M17.521,11.216c0.039,0.599-0.174,1.162-0.474,1.256c-0.303,0.097-0.576-0.311-0.613-0.909
			c-0.038-0.598,0.174-1.16,0.476-1.256C17.209,10.21,17.483,10.618,17.521,11.216z"/>
	</g>
	
		<radialGradient id="SVGID_12_" cx="-180.957" cy="-134.916" r="29.313" gradientTransform="matrix(0.7417 0 0 0.7417 138.4419 104.354)" gradientUnits="userSpaceOnUse">
		<stop  offset="0" style="stop-color:#E2A278"/>
		<stop  offset="1" style="stop-color:#975606"/>
	</radialGradient>
	<path fill="url(#SVGID_12_)" d="M24.775,17.833c0,0-11.259-10.119-16.592-8.039c-4.658,1.815-0.351,19.608,8.129,20.436
		C24.791,31.056,24.775,17.833,24.775,17.833z"/>
	<path fill="none" stroke="#231F20" stroke-width="0.5" stroke-linecap="round" stroke-linejoin="round" d="M18.022,16.371
		c0,0,1.429,0.077,2.396,0.58"/>
	<path fill="none" stroke="#231F20" stroke-width="0.5" stroke-linecap="round" stroke-linejoin="round" d="M17.966,17.407
		c0,0,1.447,0.201,3.031,1.515"/>
	
		<radialGradient id="SVGID_13_" cx="-167.6353" cy="-120.5864" r="8.9925" gradientTransform="matrix(1.1181 0 0 1.1181 207.9821 164.239)" gradientUnits="userSpaceOnUse">
		<stop  offset="0" style="stop-color:#E2A278"/>
		<stop  offset="1" style="stop-color:#975606"/>
	</radialGradient>
	<path fill="url(#SVGID_13_)" d="M25.55,31.774c1.015-0.281,2.59,0.054,2.763,1.95c0.177,1.95-3.061,4.567-5.389,4.506
		c0,0,0.153,1.796-1.097,1.429c-1.68-0.492-2.069-2.464-0.121-2.707C21.707,36.952,23.033,32.466,25.55,31.774z"/>
	<g>
		<path fill="#692E00" d="M22.527,11.265c0.037,0.597-0.175,1.163-0.475,1.254c-0.3,0.098-0.574-0.308-0.613-0.907
			c-0.037-0.599,0.175-1.162,0.477-1.258C22.217,10.26,22.49,10.666,22.527,11.265z"/>
		<path fill="#BF6616" d="M22.52,11.607c0.039,0.599-0.176,1.163-0.476,1.258c-0.3,0.098-0.575-0.311-0.613-0.906
			c-0.038-0.599,0.174-1.163,0.476-1.258C22.206,10.603,22.481,11.012,22.52,11.607z"/>
		
			<radialGradient id="SVGID_14_" cx="213.5664" cy="-165.0039" r="0.8946" gradientTransform="matrix(0.6701 -1.0011 0.4785 1.3056 -42.6539 440.3467)" gradientUnits="userSpaceOnUse">
			<stop  offset="0" style="stop-color:#FFFFFF"/>
			<stop  offset="0.0582" style="stop-color:#DAD9D9"/>
			<stop  offset="0.1353" style="stop-color:#AFAEAE"/>
			<stop  offset="0.2184" style="stop-color:#898788"/>
			<stop  offset="0.3066" style="stop-color:#6A6768"/>
			<stop  offset="0.4013" style="stop-color:#504D4D"/>
			<stop  offset="0.5049" style="stop-color:#3C3839"/>
			<stop  offset="0.622" style="stop-color:#2E2A2B"/>
			<stop  offset="0.764" style="stop-color:#252223"/>
			<stop  offset="1" style="stop-color:#231F20"/>
		</radialGradient>
		<path fill="url(#SVGID_14_)" d="M22.511,11.47c0.038,0.599-0.176,1.163-0.476,1.257c-0.302,0.096-0.575-0.312-0.613-0.909
			c-0.038-0.598,0.174-1.162,0.475-1.257C22.198,10.465,22.472,10.873,22.511,11.47z"/>
	</g>
	
		<radialGradient id="SVGID_15_" cx="-171.2832" cy="-109.751" r="2.5044" gradientTransform="matrix(1.3158 -0.0438 0.0438 1.3158 248.7637 170.5022)" gradientUnits="userSpaceOnUse">
		<stop  offset="0" style="stop-color:#E2A278"/>
		<stop  offset="1" style="stop-color:#975606"/>
	</radialGradient>
	<path fill="url(#SVGID_15_)" d="M19.312,34.6c0.671,0.607,0.837,1.519,0.372,2.037c-0.469,0.516-1.391,0.442-2.064-0.165
		c-0.672-0.605-0.837-1.519-0.37-2.034S18.639,33.992,19.312,34.6z"/>
	<g>
		<g>
			
				<ellipse transform="matrix(0.8776 -0.4793 0.4793 0.8776 -11.892 11.7593)" fill="#844500" cx="17.086" cy="29.171" rx="1.079" ry="2.023"/>
			
				<ellipse transform="matrix(0.8781 -0.4786 0.4786 0.8781 -12.037 11.8916)" fill="#CA7317" cx="17.315" cy="29.564" rx="1.077" ry="2.022"/>
			
				<radialGradient id="SVGID_16_" cx="-172.979" cy="-123.6587" r="3.7306" gradientTransform="matrix(1.1181 0 0 1.1181 211.5456 169.8054)" gradientUnits="userSpaceOnUse">
				<stop  offset="0" style="stop-color:#F59695"/>
				<stop  offset="1" style="stop-color:#C75D5A"/>
			</radialGradient>
			<path fill="url(#SVGID_16_)" d="M18.151,28.856c0.535,0.981,0.546,2.005,0.022,2.291c-0.523,0.286-1.38-0.278-1.916-1.259
				c-0.533-0.98-0.543-2.007-0.021-2.291C16.76,27.312,17.617,27.876,18.151,28.856z"/>
		</g>
		
			<linearGradient id="SVGID_17_" gradientUnits="userSpaceOnUse" x1="-175.6274" y1="-122.8042" x2="-175.8067" y2="-123.4015" gradientTransform="matrix(1 0 0 1 192.2241 150.9658)">
			<stop  offset="0" style="stop-color:#FFFFFF"/>
			<stop  offset="1" style="stop-color:#BBBDBF"/>
		</linearGradient>
		<path fill="url(#SVGID_17_)" d="M16.298,28.7c0.149,0,1.016-0.181,1.016-0.359c0-0.073-0.148-0.373-0.321-0.696
			c-0.278-0.133-0.544-0.162-0.756-0.047c-0.166,0.093-0.273,0.263-0.332,0.481C16.038,28.362,16.212,28.7,16.298,28.7z"/>
	</g>
	<path fill="none" stroke="#231F20" stroke-width="0.5" stroke-linecap="round" stroke-linejoin="round" d="M20.888,10.031
		c0.157-0.653,0.812-1.053,1.464-0.896c0.651,0.157,1.052,0.812,0.894,1.464"/>
	<path fill="none" stroke="#231F20" stroke-width="0.5" stroke-linecap="round" stroke-linejoin="round" d="M15.667,9.88
		c0.157-0.654,0.813-1.054,1.464-0.897s1.052,0.811,0.896,1.463"/>
</g>
</svg>
