<?xml version="1.0" encoding="utf-8"?>
<!-- Generator: Adobe Illustrator 14.0.0, SVG Export Plug-In . SVG Version: 6.00 Build 43363)  -->
<!DOCTYPE svg PUBLIC "-//W3C//DTD SVG 1.1//EN" "http://www.w3.org/Graphics/SVG/1.1/DTD/svg11.dtd">
<svg version="1.1" id="图层_1" xmlns="http://www.w3.org/2000/svg" xmlns:xlink="http://www.w3.org/1999/xlink" x="0px" y="0px"
	 width="100px" height="100px" viewBox="0 0 100 100" enable-background="new 0 0 100 100" xml:space="preserve">
<g>
	<g>
		<path fill="#565656" d="M46.139,86.227c-2.396-0.888-4.249-1.213-5.624-1.292c0.283,2.124,1.088,3.84,2.807,4.458
			c1.825,0.658,3.627-0.229,5.25-1.772C47.952,87.091,47.167,86.61,46.139,86.227z"/>
		<path fill="#C8C8C8" d="M49.257,73.018c-5.711-2.504-6.958-0.991-6.958-0.991s-0.213,0.663-0.496,1.726
			c-0.193,0.725-0.417,1.63-0.631,2.646c-0.223,1.058-0.431,2.232-0.577,3.433c-0.105,0.864-0.176,1.737-0.195,2.596
			c-0.022,0.87,0.012,1.714,0.116,2.508c1.375,0.079,3.229,0.404,5.624,1.292c1.027,0.384,1.813,0.864,2.433,1.394
			c0.487-0.464,0.958-0.985,1.411-1.545c0.533-0.661,1.034-1.366,1.501-2.088c0.466-0.711,0.894-1.433,1.28-2.124
			c0.473-0.85,0.886-1.654,1.219-2.343c0.627-1.298,0.982-2.186,0.982-2.186S54.966,75.523,49.257,73.018z"/>
	</g>
	<g>
		<path fill="#565656" d="M84.05,86.025c-2.518-0.251-4.389-0.094-5.742,0.183c0.723,1.993,1.87,3.456,3.672,3.617
			c1.913,0.172,3.477-1.154,4.729-3.069C85.997,86.399,85.131,86.131,84.05,86.025z"/>
		<path fill="#C8C8C8" d="M84.291,72.38c-6.081-0.972-6.976,0.817-6.976,0.817s-0.066,0.702-0.117,1.805
			c-0.035,0.752-0.06,1.691-0.056,2.735c0.009,1.089,0.053,2.283,0.164,3.489c0.08,0.864,0.196,1.733,0.356,2.571
			c0.164,0.853,0.374,1.668,0.645,2.41c1.354-0.276,3.225-0.434,5.742-0.183c1.081,0.105,1.947,0.374,2.659,0.73
			c0.376-0.579,0.724-1.206,1.046-1.864c0.378-0.779,0.719-1.597,1.022-2.417c0.299-0.811,0.563-1.622,0.793-2.395
			c0.282-0.946,0.512-1.834,0.691-2.59c0.336-1.425,0.494-2.375,0.494-2.375S90.373,73.35,84.291,72.38z"/>
	</g>
	
		<radialGradient id="SVGID_1_" cx="52.8926" cy="72" r="30.3908" gradientTransform="matrix(0.9975 -0.078 0.0708 1.099 -12.163 -54.6125)" gradientUnits="userSpaceOnUse">
		<stop  offset="0" style="stop-color:#DFDFDF"/>
		<stop  offset="0.8764" style="stop-color:#A9A9A9"/>
	</radialGradient>
	<path fill="url(#SVGID_1_)" d="M61.461,31.696c5.613,2.714,4.42,27.901-6.803,33.019c-11.225,5.124-17.278-37.307-9.263-43.334
		C53.409,15.354,61.461,31.696,61.461,31.696L61.461,31.696z"/>
	<g>
		
			<radialGradient id="SVGID_2_" cx="-248.9199" cy="124.1162" r="12.7331" gradientTransform="matrix(1.9897 -0.2229 0.1012 1.0961 577.4678 -131.5626)" gradientUnits="userSpaceOnUse">
			<stop  offset="0" style="stop-color:#DFDFDF"/>
			<stop  offset="0.5169" style="stop-color:#A9A9A9"/>
			<stop  offset="1" style="stop-color:#C9C9C9"/>
		</radialGradient>
		<path fill="url(#SVGID_2_)" d="M87.553,57.625c0,0,10.331,1.427,8.07,6.399c-2.263,4.972-2.9,9.089-1.474,9.829
			c1.428,0.736-0.162,1.927-0.162,1.927s-1.773-0.814-2.029-3.595c-0.257-2.779-0.659-7.116-2.4-7.596
			C87.813,64.111,87.553,57.625,87.553,57.625z"/>
		<path d="M93.063,73.361c0.435-0.131,0.542-0.356,0.542-0.356s2.221,1.977,1.895,2.859c-0.327,0.888-1.396,1.944-0.264,2.394
			c1.13,0.452,0.394,1.105-0.539,0.379c-0.931-0.73-0.579-1.158-0.915-1.121c-0.332,0.038-0.405,0.615-0.295,1.129
			c0.111,0.516,0.843,0.854,0.411,1.007c-1.348,0.479-2.17-0.867-1.643-2.028c0.527-1.164-0.819-1.417-0.311-2.663
			c0.508-1.245,0.223-1.622,0.223-1.622S92.63,73.495,93.063,73.361z"/>
	</g>
	<g>
		
			<radialGradient id="SVGID_3_" cx="77.3574" cy="55.3809" r="40.7487" gradientTransform="matrix(1.3198 0 0 1.2577 -58.9016 -21.128)" gradientUnits="userSpaceOnUse">
			<stop  offset="0.2865" style="stop-color:#909090"/>
			<stop  offset="0.6124" style="stop-color:#E3E3E3"/>
			<stop  offset="1" style="stop-color:#E3E3E3"/>
		</radialGradient>
		<path fill="url(#SVGID_3_)" d="M89.5,86.826c1.554-2.433,2.989-8.019,3.108-12.614c0.146-5.661,0.488-18.136-5.72-22.496
			c-6.209-4.361-11.111-9.032-25.815-4.048c-14.709,4.983-12.091,5.917-16.995,10.587c-3.72,3.542-2.544,20.159,1.52,27.845
			c1.446-0.247,3.257-0.44,5.477-0.44c2.096,0,4.079,0.303,5.812,0.708c1.785-2.506,2.224-5.376,2.224-5.376
			s5.231,2.178,11.766,1.242c6.538-0.934,7.845-3.111,7.845-3.111s0.252,5.022,1.561,7.641c1.342-0.199,2.936-0.347,4.857-0.347
			C86.671,86.416,88.139,86.58,89.5,86.826z"/>
		
			<radialGradient id="SVGID_4_" cx="51.4863" cy="84.2188" r="6.7329" gradientTransform="matrix(1 0 0 1.1018 0 -8.8012)" gradientUnits="userSpaceOnUse">
			<stop  offset="0" style="stop-color:#C8C8C8"/>
			<stop  offset="1" style="stop-color:#848484"/>
		</radialGradient>
		<path fill="url(#SVGID_4_)" d="M45.598,86.1c1.291,2.447,2.875,3.995,4.691,3.921c3.2-0.132,5.268-1.794,6.598-3.653
			c-1.732-0.405-3.716-0.708-5.812-0.708C48.855,85.659,47.044,85.853,45.598,86.1z"/>
		
			<radialGradient id="SVGID_5_" cx="84.0508" cy="86.0684" r="4.0324" gradientTransform="matrix(1 0 0 1.1018 0 -8.8012)" gradientUnits="userSpaceOnUse">
			<stop  offset="0" style="stop-color:#C8C8C8"/>
			<stop  offset="1" style="stop-color:#848484"/>
		</radialGradient>
		<path fill="url(#SVGID_5_)" d="M85.139,86.416c-1.922,0-3.516,0.147-4.857,0.347c0.913,1.822,2.234,3.449,4.114,3.705
			c1.466,0.199,3.468-1.082,5.104-3.642C88.139,86.58,86.671,86.416,85.139,86.416z"/>
	</g>
	<g>
		
			<radialGradient id="SVGID_6_" cx="63.0713" cy="51.1533" r="22.1551" gradientTransform="matrix(1 0 0 1.1018 0 -8.8012)" gradientUnits="userSpaceOnUse">
			<stop  offset="0" style="stop-color:#DFDFDF"/>
			<stop  offset="0.4326" style="stop-color:#A9A9A9"/>
			<stop  offset="0.691" style="stop-color:#DBDBDB"/>
			<stop  offset="0.8146" style="stop-color:#D4D4D4"/>
			<stop  offset="1" style="stop-color:#C9C9C9"/>
		</radialGradient>
		<path fill="url(#SVGID_6_)" d="M42.032,32.53c0,0,9.085-11.654,22.458-10.272c9.622,0.994,20.312,8.129,17.905,28.344
			C79.987,70.812,65.29,84.332,57.07,76.6c-7.506-7.058-6.917-25.514-7.821-29.822c-0.903-4.308-2.706-6.96-2.706-9.609
			C46.544,34.516,42.032,32.53,42.032,32.53z"/>
		
			<radialGradient id="SVGID_7_" cx="52.5322" cy="52.5078" r="32.2233" gradientTransform="matrix(1 0 0 1.1018 0 -8.8012)" gradientUnits="userSpaceOnUse">
			<stop  offset="0" style="stop-color:#B3B3B3"/>
			<stop  offset="0.691" style="stop-color:#DBDBDB"/>
		</radialGradient>
		<path fill="url(#SVGID_7_)" d="M46.846,38.611c0,0,6.042-9.836,15.453-8.864c6.773,0.7,16.176,8.54,14.483,22.767
			c-1.695,14.229-15.119,23.185-19.354,17.117c-4.233-6.063-7.376-17.486-8.011-20.52c-0.634-3.031,0.601-5.37,0.601-7.234
			C50.019,40.009,46.846,38.611,46.846,38.611z"/>
	</g>
	<g>
		
			<radialGradient id="SVGID_8_" cx="29.9453" cy="43.5767" r="26.648" gradientTransform="matrix(1 0 0 1.1018 0 -8.8012)" gradientUnits="userSpaceOnUse">
			<stop  offset="0" style="stop-color:#B3B3B3"/>
			<stop  offset="0.691" style="stop-color:#DBDBDB"/>
		</radialGradient>
		<path fill="url(#SVGID_8_)" d="M42.795,31.079c-6.625-0.498-7.502,9.723-12.319,13.686C20.347,53.096,6.533,46.63,12.317,31.548
			c4.997-13.031,0.352-22.646-4.439-22.05c-3.981,0.496-4.227,2.835-3.057,3.398c0.238,0.114,0.531,0.163,0.867,0.099
			c1.989-0.377,3.061,0.648,3.161,2.192c0.005,0.079-0.009,0.144-0.025,0.206c-0.305,1.124-4.085-0.703-4.954,0.628
			c-0.291,0.445-0.29,0.98-0.047,1.472c0.52,1.058,2.159,1.921,4.452,1.288c2.043-0.564,3.077-0.551,3.236,0.561
			c0.104,0.72-0.153,1.893-0.749,3.68C9.965,25.411,6.033,32.375,4.74,39.88c0.038-0.001,0.074-0.008,0.111-0.008
			c1.137,0,2.057,0.767,2.057,1.714c0,0.946-0.92,1.713-2.057,1.713c-0.17,0-0.333-0.021-0.493-0.054
			c-0.12,2.399,0.11,4.791,0.875,7.05c0.15-0.146,0.312-0.283,0.494-0.401c1.164-0.75,2.524-0.57,3.038,0.399
			c0.513,0.97-0.012,2.363-1.176,3.111c-0.224,0.145-0.454,0.244-0.682,0.319c1.197,1.813,2.867,3.474,5.14,4.898
			c0.03,0.02,0.058,0.033,0.086,0.052c0.073-0.243,0.163-0.484,0.286-0.721c0.713-1.359,2.005-2.005,2.887-1.443
			c0.883,0.563,1.021,2.118,0.308,3.476c-0.075,0.144-0.159,0.274-0.247,0.4c0.33,0.146,0.656,0.28,0.979,0.405
			c2.367,0.906,4.609,1.496,6.701,1.859c-0.022-0.185-0.036-0.375-0.037-0.569c-0.011-1.691,0.783-3.07,1.775-3.077
			c0.993-0.01,1.807,1.354,1.818,3.047c0.003,0.358-0.038,0.695-0.102,1.017c7.847,0.513,13.662-5.33,13.13-1.075
			c-0.531,4.253,0.274,7.313,5.28,6.923c1.738-0.137,5.562-2.368,7.669-5.487C62.671,48.498,49.421,31.577,42.795,31.079z"/>
		<path fill="#C8C8C8" d="M6.909,41.586c0-0.948-0.92-1.714-2.057-1.714c-0.037,0-0.073,0.007-0.111,0.008
			c-0.191,1.115-0.325,2.24-0.381,3.365c0.159,0.033,0.322,0.054,0.493,0.054C5.988,43.299,6.909,42.532,6.909,41.586z"/>
		<path fill="#C8C8C8" d="M6.909,41.586c0-0.948-0.92-1.714-2.057-1.714c-0.037,0-0.073,0.007-0.111,0.008
			c-0.191,1.115-0.325,2.24-0.381,3.365c0.159,0.033,0.322,0.054,0.493,0.054C5.988,43.299,6.909,42.532,6.909,41.586z"/>
		<path fill="#C8C8C8" d="M8.766,50.293c-0.514-0.969-1.874-1.149-3.038-0.399c-0.183,0.118-0.344,0.254-0.494,0.401
			c0.402,1.186,0.952,2.333,1.674,3.429c0.228-0.075,0.458-0.175,0.682-0.319C8.754,52.656,9.279,51.263,8.766,50.293z"/>
		<path fill="#C8C8C8" d="M8.766,50.293c-0.514-0.969-1.874-1.149-3.038-0.399c-0.183,0.118-0.344,0.254-0.494,0.401
			c0.402,1.186,0.952,2.333,1.674,3.429c0.228-0.075,0.458-0.175,0.682-0.319C8.754,52.656,9.279,51.263,8.766,50.293z"/>
		<path fill="#C8C8C8" d="M15.307,56.51c-0.882-0.562-2.174,0.084-2.887,1.443c-0.124,0.236-0.213,0.478-0.286,0.721
			c1.101,0.685,2.18,1.25,3.234,1.712c0.088-0.126,0.172-0.257,0.247-0.4C16.328,58.628,16.19,57.072,15.307,56.51z"/>
		<path fill="#C8C8C8" d="M15.307,56.51c-0.882-0.562-2.174,0.084-2.887,1.443c-0.124,0.236-0.213,0.478-0.286,0.721
			c1.101,0.685,2.18,1.25,3.234,1.712c0.088-0.126,0.172-0.257,0.247-0.4C16.328,58.628,16.19,57.072,15.307,56.51z"/>
		<path fill="#C8C8C8" d="M24.786,59.004c-0.992,0.007-1.786,1.386-1.775,3.077c0.001,0.194,0.015,0.385,0.037,0.569
			c1.202,0.208,2.357,0.341,3.454,0.417c0.064-0.321,0.105-0.658,0.102-1.017C26.593,60.357,25.779,58.994,24.786,59.004z"/>
		<path fill="#C8C8C8" d="M24.786,59.004c-0.992,0.007-1.786,1.386-1.775,3.077c0.001,0.194,0.015,0.385,0.037,0.569
			c1.202,0.208,2.357,0.341,3.454,0.417c0.064-0.321,0.105-0.658,0.102-1.017C26.593,60.357,25.779,58.994,24.786,59.004z"/>
	</g>
	
		<radialGradient id="SVGID_9_" cx="34.9834" cy="102.0605" r="17.4733" gradientTransform="matrix(0.9975 -0.078 0.0708 1.099 -12.163 -54.6125)" gradientUnits="userSpaceOnUse">
		<stop  offset="0" style="stop-color:#FFFFFF"/>
		<stop  offset="1" style="stop-color:#C8C8C8"/>
	</radialGradient>
	<path fill="url(#SVGID_9_)" d="M43.283,58.55c-1.706-0.599-2.334,1.29-5.816,0.345c-4.709-1.281-6.366-4.918-6.789-4.793
		c-0.423,0.127-0.149,7.08,5.171,9.354c5.319,2.272,6.899,0.949,7.711,0.577C44.903,63.413,45.855,59.458,43.283,58.55z"/>
	<g>
		<g>
			<path fill="#FFFFFF" d="M52.046,28.779c4.791,0,8.691,4.303,8.691,9.58c0,5.283-3.9,9.58-8.691,9.58
				c-4.795,0-8.694-4.297-8.694-9.58C43.352,33.082,47.25,28.779,52.046,28.779z"/>
			
				<linearGradient id="SVGID_10_" gradientUnits="userSpaceOnUse" x1="-4.0908" y1="38.3594" x2="14.8408" y2="38.3594" gradientTransform="matrix(-1 0 0 1 57.4189 0)">
				<stop  offset="0" style="stop-color:#272C34"/>
				<stop  offset="1" style="stop-color:#292933"/>
			</linearGradient>
			<path fill="url(#SVGID_10_)" d="M42.578,38.359c0,5.75,4.244,10.43,9.468,10.43c5.218,0,9.464-4.68,9.464-10.43
				c0-5.751-4.246-10.429-9.464-10.429C46.822,27.93,42.578,32.608,42.578,38.359z M43.352,38.359c0-5.277,3.899-9.58,8.694-9.58
				c4.791,0,8.691,4.303,8.691,9.58c0,5.283-3.9,9.58-8.691,9.58C47.25,47.939,43.352,43.642,43.352,38.359z"/>
		</g>
		
			<radialGradient id="SVGID_11_" cx="5.3745" cy="42.8057" r="8.8376" gradientTransform="matrix(-1 0 0 1.1018 57.4189 -8.8012)" gradientUnits="userSpaceOnUse">
			<stop  offset="0" style="stop-color:#FFFFFF"/>
			<stop  offset="1" style="stop-color:#E5E5E5"/>
		</radialGradient>
		<ellipse fill="url(#SVGID_11_)" cx="52.044" cy="38.359" rx="8.838" ry="9.737"/>
	</g>
	<g>
		
			<linearGradient id="SVGID_12_" gradientUnits="userSpaceOnUse" x1="1.1367" y1="38.8433" x2="10.042" y2="38.8433" gradientTransform="matrix(-1 0 0 1 57.4189 0)">
			<stop  offset="0" style="stop-color:#F3AF18"/>
			<stop  offset="1" style="stop-color:#CAA21B"/>
		</linearGradient>
		<ellipse fill="url(#SVGID_12_)" cx="51.83" cy="38.843" rx="4.453" ry="4.906"/>
		
			<radialGradient id="SVGID_13_" cx="5.5894" cy="43.2441" r="3.2041" gradientTransform="matrix(-1 0 0 1.1018 57.4189 -8.8012)" gradientUnits="userSpaceOnUse">
			<stop  offset="0" style="stop-color:#1F1600"/>
			<stop  offset="1" style="stop-color:#000000"/>
		</radialGradient>
		<ellipse fill="url(#SVGID_13_)" cx="51.83" cy="38.843" rx="3.204" ry="3.531"/>
		
			<radialGradient id="SVGID_14_" cx="265.1084" cy="291.3154" r="1.7051" gradientTransform="matrix(-0.6642 -0.4518 -0.5253 0.9375 379.3198 -116.2187)" gradientUnits="userSpaceOnUse">
			<stop  offset="0" style="stop-color:#FFFFFF"/>
			<stop  offset="1" style="stop-color:#E5E5E5"/>
		</radialGradient>
		<path fill="url(#SVGID_14_)" d="M49.073,36.331c-0.496,0.881-0.388,1.942,0.237,2.37c0.627,0.427,1.535,0.053,2.028-0.828
			c0.497-0.885,0.39-1.944-0.236-2.37C50.478,35.077,49.569,35.448,49.073,36.331z"/>
		
			<radialGradient id="SVGID_15_" cx="-218.1016" cy="-114.0923" r="0.8958" gradientTransform="matrix(-0.6444 0.4853 0.5644 0.9095 -22.0567 251.0589)" gradientUnits="userSpaceOnUse">
			<stop  offset="0" style="stop-color:#FFFFFF"/>
			<stop  offset="1" style="stop-color:#E5E5E5"/>
		</radialGradient>
		<path fill="url(#SVGID_15_)" d="M53.518,41.877c0.278,0.45,0.763,0.619,1.082,0.378c0.318-0.24,0.352-0.798,0.072-1.248
			c-0.279-0.451-0.765-0.622-1.083-0.38C53.269,40.867,53.238,41.427,53.518,41.877z"/>
		
			<radialGradient id="SVGID_16_" cx="-161.5635" cy="-286.6411" r="0.8962" gradientTransform="matrix(-0.478 0.3601 0.4186 0.6747 95.2145 293.5373)" gradientUnits="userSpaceOnUse">
			<stop  offset="0" style="stop-color:#FFFFFF"/>
			<stop  offset="1" style="stop-color:#E5E5E5"/>
		</radialGradient>
		<path fill="url(#SVGID_16_)" d="M52.024,42.284c0.209,0.335,0.566,0.461,0.807,0.283c0.233-0.18,0.257-0.593,0.051-0.927
			c-0.207-0.334-0.567-0.461-0.801-0.283C51.844,41.534,51.818,41.95,52.024,42.284z"/>
	</g>
	<g>
		<g>
			<path fill="#FFFFFF" d="M35.029,32.393c3.649,0,6.619,3.274,6.619,7.293c0,4.023-2.969,7.294-6.619,7.294
				c-3.649,0-6.62-3.271-6.62-7.294C28.41,35.667,31.38,32.393,35.029,32.393z"/>
			
				<linearGradient id="SVGID_17_" gradientUnits="userSpaceOnUse" x1="15.1831" y1="39.6865" x2="29.5977" y2="39.6865" gradientTransform="matrix(-1 0 0 1 57.4189 0)">
				<stop  offset="0" style="stop-color:#272C34"/>
				<stop  offset="1" style="stop-color:#292933"/>
			</linearGradient>
			<path fill="url(#SVGID_17_)" d="M27.821,39.686c0,4.379,3.232,7.942,7.208,7.942c3.974,0,7.207-3.563,7.207-7.942
				c0-4.377-3.233-7.94-7.207-7.94C31.054,31.745,27.821,35.309,27.821,39.686z M28.41,39.686c0-4.019,2.971-7.293,6.62-7.293
				c3.649,0,6.619,3.274,6.619,7.293c0,4.023-2.969,7.294-6.619,7.294C31.38,46.98,28.41,43.708,28.41,39.686z"/>
		</g>
		
			<radialGradient id="SVGID_18_" cx="22.3896" cy="44.0098" r="6.7295" gradientTransform="matrix(-1 0 0 1.1018 57.4189 -8.8012)" gradientUnits="userSpaceOnUse">
			<stop  offset="0" style="stop-color:#FFFFFF"/>
			<stop  offset="1" style="stop-color:#E5E5E5"/>
		</radialGradient>
		<ellipse fill="url(#SVGID_18_)" cx="35.03" cy="39.686" rx="6.73" ry="7.415"/>
	</g>
	<g>
		
			<linearGradient id="SVGID_19_" gradientUnits="userSpaceOnUse" x1="17.4937" y1="40.2563" x2="26.416" y2="40.2563" gradientTransform="matrix(-1 0 0 1 57.4189 0)">
			<stop  offset="0" style="stop-color:#F3AF18"/>
			<stop  offset="1" style="stop-color:#CAA21B"/>
		</linearGradient>
		<path fill="url(#SVGID_19_)" d="M31.003,40.255c0,2.716,1.998,4.915,4.462,4.915c2.462,0,4.46-2.199,4.46-4.915
			c0-2.711-1.998-4.912-4.46-4.912C33.001,35.343,31.003,37.544,31.003,40.255z"/>
		
			<radialGradient id="SVGID_20_" cx="21.9541" cy="44.5264" r="3.2095" gradientTransform="matrix(-1 0 0 1.1018 57.4189 -8.8012)" gradientUnits="userSpaceOnUse">
			<stop  offset="0" style="stop-color:#1F1600"/>
			<stop  offset="1" style="stop-color:#000000"/>
		</radialGradient>
		<ellipse fill="url(#SVGID_20_)" cx="35.465" cy="40.255" rx="3.209" ry="3.538"/>
		
			<radialGradient id="SVGID_21_" cx="282.0889" cy="301.0039" r="1.708" gradientTransform="matrix(-0.6642 -0.4518 -0.5253 0.9375 379.3198 -116.2187)" gradientUnits="userSpaceOnUse">
			<stop  offset="0" style="stop-color:#FFFFFF"/>
			<stop  offset="1" style="stop-color:#E5E5E5"/>
		</radialGradient>
		<path fill="url(#SVGID_21_)" d="M32.704,37.74c-0.498,0.883-0.391,1.946,0.235,2.373c0.628,0.426,1.538,0.052,2.034-0.829
			c0.495-0.886,0.388-1.948-0.238-2.374C34.108,36.483,33.198,36.854,32.704,37.74z"/>
		
			<radialGradient id="SVGID_22_" cx="-199.8667" cy="-122.2642" r="0.8975" gradientTransform="matrix(-0.6444 0.4853 0.5644 0.9095 -22.0567 251.0589)" gradientUnits="userSpaceOnUse">
			<stop  offset="0" style="stop-color:#FFFFFF"/>
			<stop  offset="1" style="stop-color:#E5E5E5"/>
		</radialGradient>
		<path fill="url(#SVGID_22_)" d="M37.154,43.296c0.281,0.451,0.766,0.621,1.085,0.377c0.32-0.239,0.352-0.799,0.072-1.25
			c-0.279-0.452-0.765-0.624-1.085-0.382C36.906,42.281,36.875,42.844,37.154,43.296z"/>
		
			<radialGradient id="SVGID_23_" cx="-136.9785" cy="-297.6602" r="0.8982" gradientTransform="matrix(-0.478 0.3601 0.4186 0.6747 95.2145 293.5373)" gradientUnits="userSpaceOnUse">
			<stop  offset="0" style="stop-color:#FFFFFF"/>
			<stop  offset="1" style="stop-color:#E5E5E5"/>
		</radialGradient>
		<path fill="url(#SVGID_23_)" d="M35.66,43.703c0.207,0.336,0.567,0.463,0.807,0.284c0.236-0.179,0.26-0.595,0.053-0.929
			c-0.209-0.334-0.57-0.462-0.806-0.284C35.478,42.951,35.453,43.369,35.66,43.703z"/>
	</g>
</g>
</svg>
