<?xml version="1.0" encoding="utf-8"?>
<!-- Generator: Adobe Illustrator 14.0.0, SVG Export Plug-In . SVG Version: 6.00 Build 43363)  -->
<!DOCTYPE svg PUBLIC "-//W3C//DTD SVG 1.1//EN" "http://www.w3.org/Graphics/SVG/1.1/DTD/svg11.dtd">
<svg version="1.1" id="图层_1" xmlns="http://www.w3.org/2000/svg" xmlns:xlink="http://www.w3.org/1999/xlink" x="0px" y="0px"
	 width="50px" height="50px" viewBox="0 0 50 50" enable-background="new 0 0 50 50" xml:space="preserve">
<g>
	
		<linearGradient id="SVGID_1_" gradientUnits="userSpaceOnUse" x1="2.8516" y1="-6.5791" x2="19.3341" y2="2.7635" gradientTransform="matrix(0.8048 0 0 0.8048 4.7593 15.793)">
		<stop  offset="0" style="stop-color:#D0D2D3"/>
		<stop  offset="1" style="stop-color:#A6A8AB"/>
	</linearGradient>
	<path fill="url(#SVGID_1_)" d="M12.501,15.343c-2.755-1.886-8.442-3.522-7.592-4.921c1.581-2.597,11.569,1.225,16.035,5.063
		c4.467,3.836,2.687,7.718,2.687,7.718S18.044,19.136,12.501,15.343z"/>
	<path fill="#231F20" d="M5.172,11.048c1.581-2.598,11.568,1.225,16.036,5.062c1.189,1.022,1.933,2.046,2.388,3
		c-0.408-1.122-1.166-2.66-2.621-3.91C16.508,11.364,6.49,7.825,4.909,10.422c-0.167,0.274-0.08,0.558,0.185,0.851
		C5.104,11.198,5.127,11.123,5.172,11.048z"/>
	<path fill="#231F20" d="M22.484,2.836c0,0,1.777,1.188,4.417,4.156c1.302,1.464,4.128,3.479,5.073,4.219
		c8.131,6.356,13.202,17.098,6.633,26.081c-5.133,7.02-17.5,4.577-20.108,1.743c-1.675-1.821,3.955-26.824,0.898-29.611
		L22.484,2.836z"/>
	
		<linearGradient id="SVGID_2_" gradientUnits="userSpaceOnUse" x1="-424.2559" y1="121.2305" x2="-423.9861" y2="119.8817" gradientTransform="matrix(1.0776 0 0 1.0776 485.8427 -86.4707)">
		<stop  offset="0" style="stop-color:#FCB813"/>
		<stop  offset="1" style="stop-color:#F6921E"/>
	</linearGradient>
	<path fill="url(#SVGID_2_)" d="M26.83,39.927c0,0,0.708,4.145,0.491,4.577c-0.874,1.741-2.536,1.268-2.446,2.532
		c0.069,0.952,1.934-0.653,2.885,0.866c0.576,0.921,1.067,0.804,1.46,0.631c0.51-0.224,2.704-0.892,2.157-2.849
		c-0.857-3.072,0.089-4.6,0.089-4.6L26.83,39.927z"/>
	
		<radialGradient id="SVGID_3_" cx="24.2446" cy="40.6445" r="1.717" gradientTransform="matrix(0.8048 0 0 0.8048 5.1846 13.6597)" gradientUnits="userSpaceOnUse">
		<stop  offset="0" style="stop-color:#FFF100"/>
		<stop  offset="1" style="stop-color:#FCB813"/>
	</radialGradient>
	<path fill="url(#SVGID_3_)" d="M27.292,45.943c0,0-1.236-0.489-2.503,0.49c0,0-0.785,0.648-0.008,1.066
		C25.854,48.079,28.116,46.677,27.292,45.943z"/>
	
		<radialGradient id="SVGID_4_" cx="-446.3672" cy="113.1826" r="2.2723" gradientTransform="matrix(0.9655 0.1332 -0.1332 0.9655 470.4369 -2.597)" gradientUnits="userSpaceOnUse">
		<stop  offset="0" style="stop-color:#F399C0"/>
		<stop  offset="1" style="stop-color:#EB008B"/>
	</radialGradient>
	<path fill="url(#SVGID_4_)" d="M24.711,46.921c0,0-0.768,0.275-0.516,1.012c0.1-0.167,0.397-0.487,0.755-0.492
		C25.272,47.435,25.227,46.809,24.711,46.921z"/>
	
		<radialGradient id="SVGID_5_" cx="26.0469" cy="41.6387" r="1.9777" gradientTransform="matrix(0.8048 0 0 0.8048 4.9717 13.2339)" gradientUnits="userSpaceOnUse">
		<stop  offset="0" style="stop-color:#FFF100"/>
		<stop  offset="1" style="stop-color:#FCB813"/>
	</radialGradient>
	<path fill="url(#SVGID_5_)" d="M28.228,46.616c0,0-1.425-0.702-2.69,0.334c0,0-0.72,0.863,0.001,1.245
		C26.538,48.722,29.052,47.348,28.228,46.616z"/>
	
		<radialGradient id="SVGID_6_" cx="-449.0024" cy="120.3691" r="2.2734" gradientTransform="matrix(1.0628 0.1776 -0.1776 1.0628 523.6061 -0.5153)" gradientUnits="userSpaceOnUse">
		<stop  offset="0" style="stop-color:#F399C0"/>
		<stop  offset="1" style="stop-color:#EB008B"/>
	</radialGradient>
	<path fill="url(#SVGID_6_)" d="M25.521,47.468c0,0-0.858,0.28-0.604,1.102c0.116-0.181,0.456-0.524,0.852-0.519
		C26.125,48.054,26.094,47.36,25.521,47.468z"/>
	
		<radialGradient id="SVGID_7_" cx="27.6553" cy="42.0684" r="1.9215" gradientTransform="matrix(0.8048 0 0 0.8048 4.9717 13.2339)" gradientUnits="userSpaceOnUse">
		<stop  offset="0" style="stop-color:#FFF100"/>
		<stop  offset="1" style="stop-color:#FCB813"/>
	</radialGradient>
	<path fill="url(#SVGID_7_)" d="M29.65,47.21c0,0-1.207-0.863-2.703,0.173c0,0-0.787,0.688,0.173,1.261
		C28.04,49.194,30.802,48.359,29.65,47.21z"/>
	
		<radialGradient id="SVGID_8_" cx="-457.0107" cy="128.3311" r="2.2724" gradientTransform="matrix(1.1453 0.2881 -0.2881 1.1453 587.1259 32.6925)" gradientUnits="userSpaceOnUse">
		<stop  offset="0" style="stop-color:#F399C0"/>
		<stop  offset="1" style="stop-color:#EB008B"/>
	</radialGradient>
	<path fill="url(#SVGID_8_)" d="M26.979,47.871c0,0-0.961,0.229-0.756,1.149c0.143-0.185,0.544-0.53,0.975-0.49
		C27.587,48.566,27.614,47.806,26.979,47.871z"/>
	<path fill="#231F20" d="M35.397,33.873c0,0,2.926,5.248,7.41,4.322c0,0-4.628,5.67-12.042,0.824
		C25.754,35.743,35.397,33.873,35.397,33.873z"/>
	
		<radialGradient id="SVGID_9_" cx="31.8018" cy="40.9961" r="9.5602" gradientTransform="matrix(0.8048 0 0 0.8048 4.9717 13.2339)" gradientUnits="userSpaceOnUse">
		<stop  offset="0.3933" style="stop-color:#FFFFFF"/>
		<stop  offset="0.8708" style="stop-color:#A6A8AB"/>
		<stop  offset="1" style="stop-color:#D0D2D3"/>
	</radialGradient>
	<path fill="url(#SVGID_9_)" d="M24.662,31.941c0,0-0.619,5,1.479,9.455c0.567,1.203,2.735,2.079,4.687,1.133
		c2.324-1.126,2.848-5.001,3.153-6.761C34.268,34.108,24.662,31.941,24.662,31.941z"/>
	
		<linearGradient id="SVGID_10_" gradientUnits="userSpaceOnUse" x1="-400.9844" y1="121.6123" x2="-400.7146" y2="120.2635" gradientTransform="matrix(1.024 0 0 1.024 430.2705 -81.8047)">
		<stop  offset="0" style="stop-color:#FCB813"/>
		<stop  offset="1" style="stop-color:#F6921E"/>
	</linearGradient>
	<path fill="url(#SVGID_10_)" d="M17.917,38.717c0,0,0.671,3.941,0.465,4.352c-0.829,1.653-2.409,1.204-2.324,2.406
		c0.065,0.905,1.837-0.621,2.742,0.821c0.548,0.877,1.014,0.765,1.387,0.6c0.483-0.212,2.569-0.848,2.05-2.706
		c-0.815-2.918,0.084-4.372,0.084-4.372L17.917,38.717z"/>
	
		<radialGradient id="SVGID_11_" cx="55.8896" cy="41.6621" r="1.7166" gradientTransform="matrix(0.7647 0 0 0.7647 -27.0233 12.8063)" gradientUnits="userSpaceOnUse">
		<stop  offset="0" style="stop-color:#FFF100"/>
		<stop  offset="1" style="stop-color:#FCB813"/>
	</radialGradient>
	<path fill="url(#SVGID_11_)" d="M18.355,44.436c0,0-1.175-0.466-2.378,0.465c0,0-0.746,0.615-0.007,1.014
		C16.99,46.465,19.139,45.132,18.355,44.436z"/>
	
		<radialGradient id="SVGID_12_" cx="-419.6001" cy="102.8828" r="2.2715" gradientTransform="matrix(0.8458 0.1167 -0.1167 0.8458 382.4233 7.6044)" gradientUnits="userSpaceOnUse">
		<stop  offset="0" style="stop-color:#F399C0"/>
		<stop  offset="1" style="stop-color:#EB008B"/>
	</radialGradient>
	<path fill="url(#SVGID_12_)" d="M15.828,45.358c0,0-0.673,0.243-0.453,0.887c0.087-0.146,0.35-0.425,0.663-0.431
		C16.319,45.81,16.28,45.261,15.828,45.358z"/>
	
		<radialGradient id="SVGID_13_" cx="57.6914" cy="42.6582" r="1.9773" gradientTransform="matrix(0.7647 0 0 0.7647 -27.2255 12.4005)" gradientUnits="userSpaceOnUse">
		<stop  offset="0" style="stop-color:#FFF100"/>
		<stop  offset="1" style="stop-color:#FCB813"/>
	</radialGradient>
	<path fill="url(#SVGID_13_)" d="M19.244,45.074c0,0-1.354-0.666-2.556,0.318c0,0-0.684,0.82,0,1.183
		C17.638,47.076,20.028,45.771,19.244,45.074z"/>
	
		<radialGradient id="SVGID_14_" cx="-426.7583" cy="117.0332" r="2.274" gradientTransform="matrix(1.01 0.1687 -0.1687 1.01 467.2354 -0.1597)" gradientUnits="userSpaceOnUse">
		<stop  offset="0" style="stop-color:#F399C0"/>
		<stop  offset="1" style="stop-color:#EB008B"/>
	</radialGradient>
	<path fill="url(#SVGID_14_)" d="M16.672,45.884c0,0-0.815,0.266-0.574,1.046c0.11-0.17,0.434-0.498,0.81-0.492
		C17.246,46.441,17.216,45.782,16.672,45.884z"/>
	
		<radialGradient id="SVGID_15_" cx="59.2998" cy="43.0879" r="1.9217" gradientTransform="matrix(0.7647 0 0 0.7647 -27.2255 12.4005)" gradientUnits="userSpaceOnUse">
		<stop  offset="0" style="stop-color:#FFF100"/>
		<stop  offset="1" style="stop-color:#FCB813"/>
	</radialGradient>
	<path fill="url(#SVGID_15_)" d="M20.597,45.64c0,0-1.149-0.82-2.57,0.162c0,0-0.748,0.653,0.163,1.2
		C19.065,47.525,21.69,46.732,20.597,45.64z"/>
	
		<radialGradient id="SVGID_16_" cx="-436.0454" cy="123.459" r="2.2726" gradientTransform="matrix(1.0883 0.2738 -0.2738 1.0883 526.0254 31.3771)" gradientUnits="userSpaceOnUse">
		<stop  offset="0" style="stop-color:#F399C0"/>
		<stop  offset="1" style="stop-color:#EB008B"/>
	</radialGradient>
	<path fill="url(#SVGID_16_)" d="M18.057,46.268c0,0-0.913,0.219-0.718,1.093c0.134-0.177,0.516-0.507,0.927-0.467
		C18.636,46.928,18.662,46.204,18.057,46.268z"/>
	
		<radialGradient id="SVGID_17_" cx="17.5996" cy="40.9355" r="12.5849" gradientTransform="matrix(0.8048 0 0 0.8048 4.9717 13.2339)" gradientUnits="userSpaceOnUse">
		<stop  offset="0.3933" style="stop-color:#FFFFFF"/>
		<stop  offset="0.8708" style="stop-color:#A6A8AB"/>
		<stop  offset="1" style="stop-color:#D0D2D3"/>
	</radialGradient>
	<path fill="url(#SVGID_17_)" d="M15.855,31.129c0,0-0.928,4.413,1.406,8.983c0.574,1.128,2.6,1.979,4.453,1.079
		c2.208-1.069,2.706-4.753,2.996-6.426C24.984,33.188,15.855,31.129,15.855,31.129z"/>
	
		<radialGradient id="SVGID_18_" cx="19.1572" cy="-1.4985" r="37.7738" gradientTransform="matrix(0.8048 0 0 0.8048 4.9717 13.2339)" gradientUnits="userSpaceOnUse">
		<stop  offset="0.3933" style="stop-color:#FFFFFF"/>
		<stop  offset="0.8708" style="stop-color:#BBBDBF"/>
		<stop  offset="1" style="stop-color:#D0D2D3"/>
	</radialGradient>
	<path fill="url(#SVGID_18_)" d="M22.484,8.599c0,0,2.415,3.083,3.912,4.22c4.769,3.62,7.163,10.937,7.838,12.881
		c1.883,5.431,1.333,11.604-2.178,13.979c-2.619,1.774-12.937,1.514-16.333-2.706c-2.107-2.617-2.315-8.422,1.357-15.492
		c1.92-3.697,1.595-9.589,0.772-11.133L22.484,8.599z"/>
	<g>
		
			<radialGradient id="SVGID_19_" cx="11.1938" cy="-19.9019" r="12.2614" gradientTransform="matrix(0.9597 0 0 0.9597 6.0722 21.9643)" gradientUnits="userSpaceOnUse">
			<stop  offset="0" style="stop-color:#929497"/>
			<stop  offset="0.0342" style="stop-color:#7E8083"/>
			<stop  offset="0.1031" style="stop-color:#5D5E60"/>
			<stop  offset="0.179" style="stop-color:#404142"/>
			<stop  offset="0.2623" style="stop-color:#28292A"/>
			<stop  offset="0.356" style="stop-color:#161717"/>
			<stop  offset="0.4659" style="stop-color:#0A0A0A"/>
			<stop  offset="0.6076" style="stop-color:#020202"/>
			<stop  offset="0.8933" style="stop-color:#000000"/>
			<stop  offset="1" style="stop-color:#58595B"/>
		</radialGradient>
		<path fill="url(#SVGID_19_)" d="M26.181,7.085c0,2.454-1.469,4.563-3.575,5.499c-0.745,0.331-1.222-0.247-2.09-0.247
			c-0.81,0-1.931,0.602-2.637,0.311c-2.186-0.9-3.725-3.051-3.725-5.563c0-3.321,2.691-6.013,6.013-6.013
			C23.488,1.072,26.181,3.764,26.181,7.085z"/>
		<circle fill="#77787B" cx="16.45" cy="7.97" r="1.091"/>
		<path fill="#231F20" d="M17.142,8.42c-0.371,0.475-1.058,0.558-1.533,0.189c-0.474-0.374-0.557-1.059-0.186-1.533
			c0.371-0.475,1.058-0.558,1.531-0.188C17.43,7.26,17.512,7.946,17.142,8.42z"/>
		<circle fill="#231F20" cx="16.329" cy="7.719" r="1.091"/>
		
			<radialGradient id="SVGID_20_" cx="9.9058" cy="-15.1108" r="2.1112" gradientTransform="matrix(0.9597 0 0 0.9597 6.0722 21.9643)" gradientUnits="userSpaceOnUse">
			<stop  offset="0.0056" style="stop-color:#FFFFFF"/>
			<stop  offset="0.2061" style="stop-color:#FBFCFC"/>
			<stop  offset="0.3859" style="stop-color:#F1F1F1"/>
			<stop  offset="0.5577" style="stop-color:#DEDFE0"/>
			<stop  offset="0.7236" style="stop-color:#C5C6C8"/>
			<stop  offset="0.8764" style="stop-color:#A6A8AB"/>
			<stop  offset="1" style="stop-color:#BBBDBF"/>
		</radialGradient>
		<circle fill="url(#SVGID_20_)" cx="16.356" cy="7.854" r="1.092"/>
		
			<radialGradient id="SVGID_21_" cx="-3795.8105" cy="-3920.1167" r="2.8959" gradientTransform="matrix(-0.2372 0.3034 0.3034 0.2372 305.1086 2089.0117)" gradientUnits="userSpaceOnUse">
			<stop  offset="0" style="stop-color:#96C051"/>
			<stop  offset="1" style="stop-color:#00A551"/>
		</radialGradient>
		<circle fill="url(#SVGID_21_)" cx="15.9" cy="8.014" r="0.527"/>
		<circle fill="#231F20" cx="15.907" cy="7.998" r="0.281"/>
		<circle fill="#FFFFFF" cx="15.655" cy="7.944" r="0.136"/>
		<circle fill="#77787B" cx="20.818" cy="6.534" r="1.091"/>
		<circle fill="#231F20" cx="20.651" cy="6.312" r="1.091"/>
		<circle fill="#231F20" cx="20.697" cy="6.282" r="1.091"/>
		
			<radialGradient id="SVGID_22_" cx="14.5635" cy="-16.5317" r="2.0695" gradientTransform="matrix(0.9597 0 0 0.9597 6.0722 21.9643)" gradientUnits="userSpaceOnUse">
			<stop  offset="0.0056" style="stop-color:#FFFFFF"/>
			<stop  offset="0.2061" style="stop-color:#FBFCFC"/>
			<stop  offset="0.3859" style="stop-color:#F1F1F1"/>
			<stop  offset="0.5577" style="stop-color:#DEDFE0"/>
			<stop  offset="0.7236" style="stop-color:#C5C6C8"/>
			<stop  offset="0.8764" style="stop-color:#A6A8AB"/>
			<stop  offset="1" style="stop-color:#BBBDBF"/>
		</radialGradient>
		<circle fill="url(#SVGID_22_)" cx="20.725" cy="6.418" r="1.091"/>
		
			<radialGradient id="SVGID_23_" cx="-3768.9478" cy="-3938.0835" r="2.8913" gradientTransform="matrix(-0.2372 0.3034 0.3034 0.2372 321.299 2083.6875)" gradientUnits="userSpaceOnUse">
			<stop  offset="0" style="stop-color:#96C051"/>
			<stop  offset="1" style="stop-color:#00A551"/>
		</radialGradient>
		<circle fill="url(#SVGID_23_)" cx="20.268" cy="6.577" r="0.526"/>
		<circle fill="#231F20" cx="20.276" cy="6.561" r="0.282"/>
		<circle fill="#FFFFFF" cx="20.024" cy="6.508" r="0.136"/>
		
			<linearGradient id="SVGID_24_" gradientUnits="userSpaceOnUse" x1="-396.6187" y1="50.3408" x2="-397.2829" y2="56.5332" gradientTransform="matrix(0.9643 0 0 0.9643 407.2597 -41.9107)">
			<stop  offset="0" style="stop-color:#FFDD00"/>
			<stop  offset="1" style="stop-color:#F9A51A"/>
		</linearGradient>
		<path fill="url(#SVGID_24_)" d="M25.995,5.597c-0.31-0.307-0.729-0.491-1.294-0.352c-1.401,0.34-1.853,2.241-0.961,3.522
			c0.399,0.571,0.521,2.424-0.829,3.667c1.94-0.997,3.27-3.018,3.27-5.35C26.181,6.571,26.116,6.072,25.995,5.597z"/>
		
			<linearGradient id="SVGID_25_" gradientUnits="userSpaceOnUse" x1="-406.4063" y1="56.6445" x2="-405.1248" y2="57.3565" gradientTransform="matrix(0.9643 0 0 0.9643 407.2597 -41.9107)">
			<stop  offset="0" style="stop-color:#FFFFFF"/>
			<stop  offset="1" style="stop-color:#1A1A1A"/>
		</linearGradient>
		<path fill="url(#SVGID_25_)" d="M18.57,10.987c0,0-1.138,0.192-1.396,0.389c-0.389,0.297-1.968,3.889-1.579,5.148
			c0,0,1.441-4.393,2.906-4.92C19.966,11.077,18.57,10.987,18.57,10.987z"/>
		
			<linearGradient id="SVGID_26_" gradientUnits="userSpaceOnUse" x1="-405.2188" y1="56.3477" x2="-401.6641" y2="58.3225" gradientTransform="matrix(0.9643 0 0 0.9643 407.2597 -41.9107)">
			<stop  offset="0" style="stop-color:#FFDD00"/>
			<stop  offset="1" style="stop-color:#F9A51A"/>
		</linearGradient>
		<path fill="url(#SVGID_26_)" d="M20.766,10.186c0,0,0.299,1.328-0.457,1.762c-0.539,0.31-4.049,2.859-4.713,4.576
			c0,0,0.412-2.472,1.647-3.569C18.479,11.856,20.241,10.141,20.766,10.186z"/>
		
			<linearGradient id="SVGID_27_" gradientUnits="userSpaceOnUse" x1="-406.418" y1="55.4424" x2="-403.8323" y2="57.1268" gradientTransform="matrix(0.9643 0 0 0.9643 407.2597 -41.9107)">
			<stop  offset="0" style="stop-color:#FFFFFF"/>
			<stop  offset="1" style="stop-color:#1A1A1A"/>
		</linearGradient>
		<path fill="url(#SVGID_27_)" d="M19.166,10.415c0,0,1.229-0.366,1.6-0.229c0,0-4.644,4.118-5.193,6.406
			C15.573,16.592,15.962,11.833,19.166,10.415z"/>
		
			<linearGradient id="SVGID_28_" gradientUnits="userSpaceOnUse" x1="664.9063" y1="23.6943" x2="657.9822" y2="28.0106" gradientTransform="matrix(0.8295 0 0 0.8295 -527.7228 -17.462)">
			<stop  offset="0" style="stop-color:#F05A22"/>
			<stop  offset="1" style="stop-color:#EC1C24"/>
		</linearGradient>
		<path fill="url(#SVGID_28_)" d="M18.576,6.218c0,0,1.725-4.844,5.796-5.02c0,0-1.343,0.425-1.696,0.919
			c0,0,1.562-0.573,2.409-0.219c0,0-1.807,0.228-2.231,0.723c0,0,1.694-0.454,2.58-0.009C25.434,2.612,21.056,2.911,18.576,6.218z"
			/>
		
			<linearGradient id="SVGID_29_" gradientUnits="userSpaceOnUse" x1="655.4561" y1="30.5879" x2="663.4141" y2="33.6902" gradientTransform="matrix(0.76 0 0 0.76 -484.9861 -18.0852)">
			<stop  offset="0" style="stop-color:#F05A22"/>
			<stop  offset="1" style="stop-color:#EC1C24"/>
		</linearGradient>
		<path fill="url(#SVGID_29_)" d="M17.604,6.759c0,0-2.249-3.198-5.479-2.262c0,0,1.089-0.018,1.47,0.259
			c0,0-1.285-0.038-1.821,0.429c0,0,1.381-0.275,1.813-0.016c0,0-1.354,0.082-1.894,0.625C11.693,5.793,14.977,4.941,17.604,6.759z"
			/>
	</g>
	<path fill="#231F20" d="M30.604,14.705c-2.314,0-4.998,2.8-6.724,5.512c-1.543,2.426-1.471,7.084-0.289,7.297
		c1.722,0.31,2.558-2.95,3.816-4.21c2.646-2.645,5.649-3.052,6.504-3.968C35.825,17.285,33.428,14.705,30.604,14.705z"/>
</g>
</svg>
