<?xml version="1.0" encoding="utf-8"?>
<!-- Generator: Adobe Illustrator 14.0.0, SVG Export Plug-In . SVG Version: 6.00 Build 43363)  -->
<!DOCTYPE svg PUBLIC "-//W3C//DTD SVG 1.1//EN" "http://www.w3.org/Graphics/SVG/1.1/DTD/svg11.dtd">
<svg version="1.1" id="图层_1" xmlns="http://www.w3.org/2000/svg" xmlns:xlink="http://www.w3.org/1999/xlink" x="0px" y="0px"
	 width="50px" height="50px" viewBox="0 0 50 50" enable-background="new 0 0 50 50" xml:space="preserve">
<g>
	
		<radialGradient id="SVGID_1_" cx="-203.4121" cy="1.792" r="3.0566" gradientTransform="matrix(-0.9009 0.3398 0.3398 0.9009 -165.6438 108.7398)" gradientUnits="userSpaceOnUse">
		<stop  offset="0" style="stop-color:#98857F"/>
		<stop  offset="0.3795" style="stop-color:#95837D"/>
		<stop  offset="0.6273" style="stop-color:#8D7B76"/>
		<stop  offset="0.8368" style="stop-color:#7E6E6B"/>
		<stop  offset="1" style="stop-color:#6C5F5D"/>
	</radialGradient>
	<path fill="url(#SVGID_1_)" d="M16.771,44.449c0,0-0.414-1.533,1.185-1.71c0.965-0.108,1.447,1.513,1.462,1.689
		c0.015,0.174-0.983,0.397-0.983,0.397L16.771,44.449z"/>
	
		<radialGradient id="SVGID_2_" cx="-202.4067" cy="-0.4663" r="3.382" gradientTransform="matrix(-0.9009 0.3398 0.3398 0.9009 -165.3138 109.6031)" gradientUnits="userSpaceOnUse">
		<stop  offset="0" style="stop-color:#FFFFFF"/>
		<stop  offset="0.1963" style="stop-color:#FCFCFB"/>
		<stop  offset="0.3711" style="stop-color:#F3F1F1"/>
		<stop  offset="0.5378" style="stop-color:#E5E0DE"/>
		<stop  offset="0.6995" style="stop-color:#D0C8C5"/>
		<stop  offset="0.856" style="stop-color:#B6A8A4"/>
		<stop  offset="1" style="stop-color:#98857F"/>
	</radialGradient>
	<path fill="url(#SVGID_2_)" d="M16.339,44.668c0,0-0.415-1.532,1.185-1.709c0.964-0.106,1.575,1.442,1.589,1.617
		c0.014,0.174-1.111,0.47-1.111,0.47L16.339,44.668z"/>
	
		<radialGradient id="SVGID_3_" cx="-213.9497" cy="3.7397" r="9.8161" gradientTransform="matrix(-0.9009 0.3398 0.3398 0.9009 -166.7454 108.8287)" gradientUnits="userSpaceOnUse">
		<stop  offset="0" style="stop-color:#98857F"/>
		<stop  offset="0.3795" style="stop-color:#95837D"/>
		<stop  offset="0.6273" style="stop-color:#8D7B76"/>
		<stop  offset="0.8368" style="stop-color:#7E6E6B"/>
		<stop  offset="1" style="stop-color:#6C5F5D"/>
	</radialGradient>
	<path fill="url(#SVGID_3_)" d="M21.326,27.462c0,0,7.744-1.73,8.223,0.975c1.23,6.938,5.709,5.311,7.155,11.366
		c1.313,5.481-6.938,11.556-12.489,8.221c-6.464-3.883-5.141-18.411-5.141-18.411L21.326,27.462z"/>
	<path fill="#7E6F6C" d="M18.968,31.925c2.274-0.56,2.135-1.196,5.483-0.274c4.324,1.192,4.44,7.023-0.02,8.339
		c-1.313,0.386-2.919,0.702-4.643,0.674C19.035,37.482,18.931,34.099,18.968,31.925z"/>
	
		<radialGradient id="SVGID_4_" cx="-206.687" cy="3.9199" r="2.4057" gradientTransform="matrix(-0.9009 0.3398 0.3398 0.9009 -166.7454 108.8287)" gradientUnits="userSpaceOnUse">
		<stop  offset="0" style="stop-color:#FFFFFF"/>
		<stop  offset="0.2164" style="stop-color:#F7F8F8"/>
		<stop  offset="0.5428" style="stop-color:#E3E4E4"/>
		<stop  offset="0.9368" style="stop-color:#C1C3C5"/>
		<stop  offset="1" style="stop-color:#BBBDBF"/>
	</radialGradient>
	<path fill="url(#SVGID_4_)" d="M18.97,30.575c0,0-0.819,11.452,2.723,13.75c2.578,1.675,3.801-1.126,3.801-1.126
		s-2.747-4.073-1.625-7.254C24.448,34.304,18.97,30.575,18.97,30.575z"/>
	
		<radialGradient id="SVGID_5_" cx="-197.0962" cy="-10.9053" r="8.6779" gradientTransform="matrix(-0.8715 0.3288 0.3288 0.8715 -162.6527 105.7002)" gradientUnits="userSpaceOnUse">
		<stop  offset="0" style="stop-color:#FFFFFF"/>
		<stop  offset="0.1885" style="stop-color:#FCFCFB"/>
		<stop  offset="0.3563" style="stop-color:#F4F2F1"/>
		<stop  offset="0.5164" style="stop-color:#E7E2DE"/>
		<stop  offset="0.6717" style="stop-color:#D4CCC5"/>
		<stop  offset="0.8235" style="stop-color:#BCAFA4"/>
		<stop  offset="0.9708" style="stop-color:#9F8C7C"/>
		<stop  offset="1" style="stop-color:#988473"/>
	</radialGradient>
	<path fill="url(#SVGID_5_)" d="M8.165,34.291c-0.052-0.626,2.396,0.559,3.367-0.099l0.161,0.817
		C11.693,35.01,8.231,35.073,8.165,34.291z"/>
	
		<radialGradient id="SVGID_6_" cx="-199.0391" cy="-6.5103" r="8.6754" gradientTransform="matrix(-0.8336 0.4155 0.4155 0.8336 -157.6753 120.2246)" gradientUnits="userSpaceOnUse">
		<stop  offset="0" style="stop-color:#FFFFFF"/>
		<stop  offset="0.1885" style="stop-color:#FCFCFB"/>
		<stop  offset="0.3563" style="stop-color:#F4F2F1"/>
		<stop  offset="0.5164" style="stop-color:#E7E2DE"/>
		<stop  offset="0.6717" style="stop-color:#D4CCC5"/>
		<stop  offset="0.8235" style="stop-color:#BCAFA4"/>
		<stop  offset="0.9708" style="stop-color:#9F8C7C"/>
		<stop  offset="1" style="stop-color:#988473"/>
	</radialGradient>
	<path fill="url(#SVGID_6_)" d="M7.167,32.28c-0.422,0.466,2.242,1.008,2.613,2.122l0.625-0.551
		C10.406,33.852,7.694,31.697,7.167,32.28z"/>
	
		<radialGradient id="SVGID_7_" cx="-199.0381" cy="-6.5093" r="8.674" gradientTransform="matrix(-0.8336 0.4155 0.4155 0.8336 -157.6753 120.2246)" gradientUnits="userSpaceOnUse">
		<stop  offset="0" style="stop-color:#FFFFFF"/>
		<stop  offset="0.1885" style="stop-color:#FCFCFB"/>
		<stop  offset="0.3563" style="stop-color:#F4F2F1"/>
		<stop  offset="0.5164" style="stop-color:#E7E2DE"/>
		<stop  offset="0.6717" style="stop-color:#D4CCC5"/>
		<stop  offset="0.8235" style="stop-color:#BCAFA4"/>
		<stop  offset="0.9708" style="stop-color:#9F8C7C"/>
		<stop  offset="1" style="stop-color:#988473"/>
	</radialGradient>
	<path fill="url(#SVGID_7_)" d="M7.8,31.607c-0.42,0.466,2.244,1.009,2.614,2.121l0.625-0.552
		C11.039,33.177,8.328,31.024,7.8,31.607z"/>
	
		<radialGradient id="SVGID_8_" cx="-197.168" cy="-6.1646" r="8.6782" gradientTransform="matrix(-0.8617 0.4296 0.4296 0.8617 -161.7337 122.123)" gradientUnits="userSpaceOnUse">
		<stop  offset="0" style="stop-color:#FFFFFF"/>
		<stop  offset="0.1885" style="stop-color:#FCFCFB"/>
		<stop  offset="0.3563" style="stop-color:#F4F2F1"/>
		<stop  offset="0.5164" style="stop-color:#E7E2DE"/>
		<stop  offset="0.6717" style="stop-color:#D4CCC5"/>
		<stop  offset="0.8235" style="stop-color:#BCAFA4"/>
		<stop  offset="0.9708" style="stop-color:#9F8C7C"/>
		<stop  offset="1" style="stop-color:#988473"/>
	</radialGradient>
	<path fill="url(#SVGID_8_)" d="M8.936,31.203c-0.436,0.481,2.317,1.042,2.702,2.195l0.646-0.57
		C12.283,32.828,9.479,30.602,8.936,31.203z"/>
	
		<radialGradient id="SVGID_9_" cx="-197.0967" cy="-10.9004" r="8.6712" gradientTransform="matrix(-0.8715 0.3288 0.3288 0.8715 -162.6527 105.7002)" gradientUnits="userSpaceOnUse">
		<stop  offset="0" style="stop-color:#FFFFFF"/>
		<stop  offset="0.1885" style="stop-color:#FCFCFB"/>
		<stop  offset="0.3563" style="stop-color:#F4F2F1"/>
		<stop  offset="0.5164" style="stop-color:#E7E2DE"/>
		<stop  offset="0.6717" style="stop-color:#D4CCC5"/>
		<stop  offset="0.8235" style="stop-color:#BCAFA4"/>
		<stop  offset="0.9708" style="stop-color:#9F8C7C"/>
		<stop  offset="1" style="stop-color:#988473"/>
	</radialGradient>
	<path fill="url(#SVGID_9_)" d="M8.544,35.394c-0.147-0.612,2.452,0.192,3.312-0.605l0.284,0.783
		C12.14,35.571,8.724,36.156,8.544,35.394z"/>
	
		<radialGradient id="SVGID_10_" cx="-195.0718" cy="16.8208" r="20.9995" gradientTransform="matrix(-0.9009 0.3398 0.3398 0.9009 -171.595 104.2437)" gradientUnits="userSpaceOnUse">
		<stop  offset="0" style="stop-color:#FFFFFF"/>
		<stop  offset="0.1963" style="stop-color:#FCFCFB"/>
		<stop  offset="0.3711" style="stop-color:#F3F1F1"/>
		<stop  offset="0.5378" style="stop-color:#E5E0DE"/>
		<stop  offset="0.6995" style="stop-color:#D0C8C5"/>
		<stop  offset="0.856" style="stop-color:#B6A8A4"/>
		<stop  offset="1" style="stop-color:#98857F"/>
	</radialGradient>
	<path fill="url(#SVGID_10_)" d="M24.502,39.637c-4.826,1.82-14.748-0.076-15.135-5.072c-0.229-2.945,4.571-2.342,8.66-2.812
		c3.297-0.378,2.969-1.347,6.756-0.302C28.22,32.401,28.428,38.155,24.502,39.637z"/>
	
		<radialGradient id="SVGID_11_" cx="-155.2373" cy="32.166" r="15.3041" gradientTransform="matrix(-0.7975 -0.5395 -0.5395 0.7975 -92.7873 -55.145)" gradientUnits="userSpaceOnUse">
		<stop  offset="0" style="stop-color:#FFFFFF"/>
		<stop  offset="0.1963" style="stop-color:#FCFCFB"/>
		<stop  offset="0.3711" style="stop-color:#F3F1F1"/>
		<stop  offset="0.5378" style="stop-color:#E5E0DE"/>
		<stop  offset="0.6995" style="stop-color:#D0C8C5"/>
		<stop  offset="0.856" style="stop-color:#B6A8A4"/>
		<stop  offset="1" style="stop-color:#98857F"/>
	</radialGradient>
	<path fill="url(#SVGID_11_)" d="M16.147,44.504c0.066-0.852,0.85-1.299,1.459-1.12c0.651,0.192,0.985,0.971,0.985,0.971
		c0.567-1.55,2.941-3.479,5.305-3.874c1.983-0.65,4.148,0.367,4.894,2.341c0.767,2.027-0.259,4.291-2.287,5.057
		c-1.546,0.585-3.227,0.125-4.28-1.022c-0.312,0.15-0.702,0.275-1.149,0.322c-0.277,0.486-1.149,1.685-2.364,0.101
		C18.104,46.488,16.068,45.512,16.147,44.504z"/>
	
		<radialGradient id="SVGID_12_" cx="-143.3311" cy="13.688" r="28.5101" gradientTransform="matrix(0.462 -0.0092 0.0092 0.462 108.6386 3.9336)" gradientUnits="userSpaceOnUse">
		<stop  offset="0" style="stop-color:#98857F"/>
		<stop  offset="0.3795" style="stop-color:#95837D"/>
		<stop  offset="0.6273" style="stop-color:#8D7B76"/>
		<stop  offset="0.8368" style="stop-color:#7E6E6B"/>
		<stop  offset="1" style="stop-color:#6C5F5D"/>
	</radialGradient>
	<path fill="url(#SVGID_12_)" d="M46.771,11.969c-0.278-0.962-0.938-1.765-1.596-2.367c1.167,0.839,1.751,1.767,1.751,1.767
		c-0.518-1.777-2.325-3.011-3.022-3.43C39.993,4.292,33.87,8.771,33.87,8.771s-6.48,8.645,1.021,12.962
		c5.938,3.418,10.892-3.852,10.799-9.379c0.258,0.306,0.389,0.511,0.389,0.511c-0.096-0.329-0.235-0.636-0.403-0.925
		c-0.001-0.003-0.001-0.006-0.001-0.008c0.422,0.45,0.635,0.786,0.635,0.786c-0.147-0.501-0.396-0.958-0.694-1.369
		c-0.002-0.015-0.004-0.032-0.005-0.047c0.586,0.571,0.88,1.037,0.88,1.037c-0.199-0.684-0.591-1.287-1.035-1.794
		c-0.001-0.003-0.001-0.004-0.001-0.005C46.33,11.271,46.771,11.969,46.771,11.969z"/>
	
		<radialGradient id="SVGID_13_" cx="-200.8853" cy="-40.5391" r="11.9277" gradientTransform="matrix(0.7204 0.6596 -0.6078 0.7598 162.7609 173.8822)" gradientUnits="userSpaceOnUse">
		<stop  offset="0" style="stop-color:#E6E7E8"/>
		<stop  offset="0.2045" style="stop-color:#E4E4E4"/>
		<stop  offset="0.3865" style="stop-color:#DCDBDA"/>
		<stop  offset="0.5602" style="stop-color:#D0CBC7"/>
		<stop  offset="0.7285" style="stop-color:#BFB6AE"/>
		<stop  offset="0.8917" style="stop-color:#A99A8D"/>
		<stop  offset="1" style="stop-color:#988473"/>
	</radialGradient>
	<path fill="url(#SVGID_13_)" d="M33.615,19.378c2.452,2.87,5.878,2.262,8.427-0.438c2.547-2.698,2.893-7.085,0.799-9.336
		c-2.092-2.25-5.854-1.887-8.4,0.813C31.893,13.117,31.619,17.041,33.615,19.378z"/>
	
		<radialGradient id="SVGID_14_" cx="-202.1689" cy="-41.1016" r="11.9283" gradientTransform="matrix(0.7204 0.6596 -0.6077 0.7598 163.6176 175.7475)" gradientUnits="userSpaceOnUse">
		<stop  offset="0" style="stop-color:#FFFFFF"/>
		<stop  offset="0.1885" style="stop-color:#FCFCFB"/>
		<stop  offset="0.3563" style="stop-color:#F4F2F1"/>
		<stop  offset="0.5164" style="stop-color:#E7E2DE"/>
		<stop  offset="0.6717" style="stop-color:#D4CCC5"/>
		<stop  offset="0.8235" style="stop-color:#BCAFA4"/>
		<stop  offset="0.9708" style="stop-color:#9F8C7C"/>
		<stop  offset="1" style="stop-color:#988473"/>
	</radialGradient>
	<path fill="url(#SVGID_14_)" d="M42.852,10.185c-2.093-2.25-5.854-1.886-8.403,0.814c-1.379,1.461-2.088,3.28-2.136,5.013
		c0.075,1.256,0.511,2.436,1.303,3.366c2.452,2.87,5.878,2.262,8.427-0.438c1.388-1.47,2.121-3.44,2.163-5.295
		C44.129,12.314,43.685,11.081,42.852,10.185z"/>
	
		<radialGradient id="SVGID_15_" cx="-153.2852" cy="10.7119" r="28.5115" gradientTransform="matrix(-0.4126 -0.2079 -0.2079 0.4126 -49.3524 -31.6191)" gradientUnits="userSpaceOnUse">
		<stop  offset="0" style="stop-color:#98857F"/>
		<stop  offset="0.3795" style="stop-color:#95837D"/>
		<stop  offset="0.6273" style="stop-color:#8D7B76"/>
		<stop  offset="0.8368" style="stop-color:#7E6E6B"/>
		<stop  offset="1" style="stop-color:#6C5F5D"/>
	</radialGradient>
	<path fill="url(#SVGID_15_)" d="M7.559,3.67c0.668-0.748,1.611-1.187,2.463-1.446C8.608,2.476,7.68,3.061,7.68,3.061
		c1.234-1.378,3.398-1.711,4.208-1.789c5.104-1.6,8.69,5.083,8.69,5.083s2.113,10.595-6.519,11.251
		C7.228,18.125,5.9,9.429,8.37,4.482C8.005,4.647,7.799,4.775,7.799,4.775c0.228-0.254,0.487-0.472,0.763-0.66
		c0.001-0.002,0.003-0.004,0.005-0.007C7.99,4.332,7.655,4.544,7.655,4.544c0.348-0.39,0.771-0.696,1.217-0.936
		c0.007-0.014,0.017-0.027,0.026-0.04C8.122,3.83,7.655,4.123,7.655,4.123C8.13,3.592,8.743,3.217,9.364,2.952
		C9.365,2.95,9.367,2.949,9.367,2.947C8.26,3.229,7.559,3.67,7.559,3.67z"/>
	
		<radialGradient id="SVGID_16_" cx="-206.0215" cy="-39.4111" r="11.9285" gradientTransform="matrix(-0.9346 0.2838 0.22 0.9478 -172.0574 100.1029)" gradientUnits="userSpaceOnUse">
		<stop  offset="0" style="stop-color:#E6E7E8"/>
		<stop  offset="0.2045" style="stop-color:#E4E4E4"/>
		<stop  offset="0.3865" style="stop-color:#DCDBDA"/>
		<stop  offset="0.5602" style="stop-color:#D0CBC7"/>
		<stop  offset="0.7285" style="stop-color:#BFB6AE"/>
		<stop  offset="0.8917" style="stop-color:#A99A8D"/>
		<stop  offset="1" style="stop-color:#988473"/>
	</radialGradient>
	<path fill="url(#SVGID_16_)" d="M19.352,7.595c-1.131-3.536-4.367-5.488-7.226-4.362c-2.86,1.126-4.443,5.231-3.312,8.766
		c1.132,3.535,3.96,5.565,7.411,4.034C19.035,14.785,20.485,11.129,19.352,7.595z"/>
	
		<radialGradient id="SVGID_17_" cx="-206.8638" cy="-40.3638" r="11.9288" gradientTransform="matrix(-0.9346 0.2838 0.22 0.9478 -172.9031 101.7748)" gradientUnits="userSpaceOnUse">
		<stop  offset="0" style="stop-color:#FFFFFF"/>
		<stop  offset="0.1885" style="stop-color:#FCFCFB"/>
		<stop  offset="0.3563" style="stop-color:#F4F2F1"/>
		<stop  offset="0.5164" style="stop-color:#E7E2DE"/>
		<stop  offset="0.6717" style="stop-color:#D4CCC5"/>
		<stop  offset="0.8235" style="stop-color:#BCAFA4"/>
		<stop  offset="0.9708" style="stop-color:#9F8C7C"/>
		<stop  offset="1" style="stop-color:#988473"/>
	</radialGradient>
	<path fill="url(#SVGID_17_)" d="M11.866,3.752c2.86-1.125,6.094,0.827,7.227,4.363c0.614,1.912,0.469,3.861-0.238,5.443
		c-0.611,1.1-1.512,1.978-2.63,2.474c-3.45,1.531-6.278-0.5-7.411-4.034c-0.615-1.925-0.426-4.02,0.338-5.71
		C9.794,5.121,10.729,4.2,11.866,3.752z"/>
	<g>
		<path fill="#7E6F6C" d="M31.245,32.651c-0.028,0.05-0.045,0.078-0.045,0.078c0.023-0.015,0.045-0.03,0.066-0.047
			C31.259,32.67,31.251,32.664,31.245,32.651z"/>
	</g>
	
		<radialGradient id="SVGID_18_" cx="-208.8149" cy="-18.3105" r="24.4477" gradientTransform="matrix(-0.9361 0.1022 0.1022 0.9361 -177.438 58.1113)" gradientUnits="userSpaceOnUse">
		<stop  offset="0" style="stop-color:#98857F"/>
		<stop  offset="0.3795" style="stop-color:#95837D"/>
		<stop  offset="0.6273" style="stop-color:#8D7B76"/>
		<stop  offset="0.8368" style="stop-color:#7E6E6B"/>
		<stop  offset="1" style="stop-color:#6C5F5D"/>
	</radialGradient>
	<path fill="url(#SVGID_18_)" d="M29.221,5.439c0.716-0.78,1.6-1.478,1.6-1.478c-0.674,0.019-1.722,0.584-2.279,1.028
		c0.348-0.668,1.328-1.293,1.328-1.293c-1.192,0.063-1.958,0.688-2.416,1.265c-6.852-1.384-13.788,2.541-15.975,9.32
		c-2.354,7.288,1.678,15.114,9.001,17.478c3.822,1.233,7.786,0.734,11.036-1.061c-0.15,0.572-0.421,1.025-0.421,1.025
		c0.453-0.297,0.766-0.765,0.98-1.219c-0.073,0.782-0.512,1.517-0.512,1.517c0.809-0.531,1.171-1.593,1.317-2.182
		c2.336-1.666,4.175-4.064,5.12-7C40.331,15.626,36.403,7.888,29.221,5.439z"/>
	
		<ellipse transform="matrix(-0.9492 -0.3147 0.3147 -0.9492 31.4969 53.6297)" fill="#7E6F6C" cx="20.077" cy="24.272" rx="3.825" ry="4.958"/>
	
		<radialGradient id="SVGID_19_" cx="-503.3872" cy="-152.623" r="7.1308" gradientTransform="matrix(-0.9851 0.2421 0.2421 0.9851 -441.4716 291.2769)" gradientUnits="userSpaceOnUse">
		<stop  offset="0" style="stop-color:#A7B6BE"/>
		<stop  offset="1" style="stop-color:#000000"/>
	</radialGradient>
	<path fill="url(#SVGID_19_)" d="M16.152,22.784c-0.86,2.599,0.066,5.245,2.071,5.91c2.005,0.665,4.33-0.903,5.19-3.501
		c0.861-2.6-0.065-5.243-2.071-5.907C19.337,18.618,17.015,20.186,16.152,22.784z"/>
	<path fill="none" stroke="#231F20" stroke-linecap="round" stroke-linejoin="round" d="M23.856,18.805
		c1.188-2.068,3.131-3.182,4.342-2.487c1.21,0.694,1.228,2.936,0.039,5.004"/>
	<path fill="none" stroke="#231F20" stroke-linecap="round" stroke-linejoin="round" d="M16.238,14.874
		c1.189-2.068,3.132-3.182,4.342-2.487c1.21,0.694,1.229,2.935,0.04,5.004"/>
</g>
</svg>
