<?xml version="1.0" encoding="utf-8"?>
<!-- Generator: Adobe Illustrator 14.0.0, SVG Export Plug-In . SVG Version: 6.00 Build 43363)  -->
<!DOCTYPE svg PUBLIC "-//W3C//DTD SVG 1.1//EN" "http://www.w3.org/Graphics/SVG/1.1/DTD/svg11.dtd">
<svg version="1.1" id="图层_1" xmlns="http://www.w3.org/2000/svg" xmlns:xlink="http://www.w3.org/1999/xlink" x="0px" y="0px"
	 width="100px" height="100px" viewBox="0 0 100 100" enable-background="new 0 0 100 100" xml:space="preserve">
<g>
	<g>
		<g>
			<path fill="#FF7700" d="M76.789,82.911c0-0.186,0.398-0.186,0.738-0.151c-0.038-0.411-0.152-0.813-0.395-1.185
				c-0.517,0.082-0.861,0.12-1.292-0.284c-0.237-0.223,0.048-0.445,0.354-0.601c-0.171-0.111-0.354-0.214-0.546-0.311
				c-0.228,0.063-0.528,0.114-0.842,0.144c-0.862,0.08-0.085-0.203-0.862-0.527c-0.291-0.12-0.351-0.243-0.313-0.348
				c-1.185-0.312-2.187-0.42-2.187-0.42l1.86,1.792c0.275-0.033,0.697-0.094,1.156-0.215c0.775-0.202,0.604,0.243,0.604,0.607
				c0,0.328-0.145,0.522-0.8,0.53l0.286,0.275c0.216-0.097,0.569-0.228,0.686-0.118c0.174,0.163-0.172,0.364,0.344,0.525
				c0.485,0.153,0.436,0.409,0,0.438c0.077,0.083,0.146,0.174,0.21,0.274c0.218-0.091,0.541-0.195,0.651-0.064
				c0.173,0.202,0.432,0.526,0,0.688c-0.143,0.055-0.286,0.063-0.413,0.051c0.01,0.106,0.007,0.222-0.006,0.341
				c0.121-0.013,0.269,0.012,0.419,0.134c0.346,0.284-0.085,0.526-0.517,0.445l0,0c-0.045,0.243-0.082,0.455-0.104,0.646
				c0.127,0.007,0.3,0.088,0.363,0.163c0.086,0.102-0.043,0.384-0.215,0.384c-0.049,0-0.106-0.031-0.161-0.077
				c0.017,0.21,0.075,0.412,0.188,0.632c0.101-0.019,0.212-0.027,0.274,0.012c0.1,0.063-0.027,0.147-0.169,0.174
				c0.051,0.082,0.104,0.165,0.169,0.252c0.688,0.93,0.403,1.848,0.661,1.861c0.258,0.012,0.185-0.381,0.086-0.757
				c-0.096-0.376,0.004-0.818-0.17-1.211c-0.028,0.02-0.062,0.035-0.104,0.045c-0.172,0.041-0.294-0.087-0.214-0.183
				c0.042-0.049,0.146-0.054,0.244-0.047c-0.046-0.153-0.03-0.358,0.025-0.604c-0.129-0.021-0.26-0.062-0.357-0.098
				c-0.214-0.081,0-0.202,0.173-0.304c0.06-0.035,0.175-0.021,0.288,0.02c0.053-0.176,0.114-0.367,0.179-0.564
				c-0.14-0.057-0.292-0.2-0.208-0.345c0.085-0.146,0.265-0.188,0.377-0.198c0.139-0.478,0.258-0.988,0.284-1.495
				C77.195,83.309,76.789,83.226,76.789,82.911z M75.67,82.304c-0.174-0.203-0.088-0.364,0-0.526
				c0.127-0.238,0.516,0.162,1.032,0.162s0.949,0.525,0.087,0.566C75.927,82.545,75.841,82.506,75.67,82.304z M76.573,86.531
				c-0.172,0.121-0.689-0.062-0.518-0.243C76.136,86.206,76.745,86.41,76.573,86.531z M76.488,85.601
				c-0.259-0.041-0.518-0.203-0.476-0.364c0.043-0.162,0.346-0.243,0.561-0.202c0.216,0.04-0.13,0.202,0.086,0.284
				C76.875,85.397,76.745,85.642,76.488,85.601z M76.919,84.468c-0.346-0.04-0.431-0.607,0.172-0.647
				C77.694,83.781,77.264,84.509,76.919,84.468z"/>
			<path fill="#DF4800" d="M73.945,79.996c0.777,0.324,0,0.607,0.862,0.527c0.313-0.029,0.614-0.081,0.842-0.144
				c-0.633-0.319-1.354-0.558-2.017-0.731C73.595,79.753,73.654,79.876,73.945,79.996z"/>
			<path fill="#DF4800" d="M75.066,81.413c0-0.364,0.172-0.81-0.604-0.607c-0.459,0.121-0.881,0.182-1.156,0.215l0.96,0.923
				C74.922,81.936,75.066,81.741,75.066,81.413z"/>
			<path fill="#DF4800" d="M75.841,81.291c0.431,0.404,0.775,0.366,1.292,0.284c-0.218-0.34-0.548-0.633-0.938-0.885
				C75.889,80.846,75.604,81.068,75.841,81.291z"/>
			<path fill="#DF4800" d="M76.702,81.939c-0.517,0-0.905-0.4-1.032-0.162c-0.088,0.162-0.174,0.323,0,0.526
				c0.171,0.202,0.257,0.241,1.119,0.202C77.651,82.465,77.219,81.939,76.702,81.939z"/>
			<path fill="#DF4800" d="M75.582,82.626c-0.516-0.161-0.17-0.362-0.344-0.525c-0.116-0.109-0.47,0.021-0.686,0.118l0.34,0.326
				c0,0,0.37,0.173,0.689,0.52C76.018,83.035,76.067,82.779,75.582,82.626z"/>
			<path fill="#DF4800" d="M77.527,82.76c-0.34-0.034-0.738-0.034-0.738,0.151c0,0.314,0.406,0.397,0.747,0.328
				C77.543,83.079,77.542,82.919,77.527,82.76z"/>
			<path fill="#DF4800" d="M76.443,83.962c0.432-0.161,0.173-0.485,0-0.688c-0.11-0.131-0.434-0.026-0.651,0.064
				c0.118,0.19,0.211,0.414,0.238,0.674C76.157,84.025,76.301,84.017,76.443,83.962z"/>
			<path fill="#DF4800" d="M77.091,83.82c-0.603,0.04-0.518,0.607-0.172,0.647C77.264,84.509,77.694,83.781,77.091,83.82z"/>
			<path fill="#DF4800" d="M76.443,84.487c-0.15-0.122-0.298-0.146-0.419-0.134c-0.005,0.032-0.006,0.061-0.012,0.095
				c-0.028,0.176-0.059,0.337-0.086,0.484l0,0C76.358,85.014,76.789,84.771,76.443,84.487z"/>
			<path fill="#DF4800" d="M76.875,84.933c-0.084,0.145,0.068,0.288,0.208,0.345c0.057-0.175,0.112-0.355,0.169-0.543
				C77.14,84.744,76.96,84.786,76.875,84.933z"/>
			<path fill="#DF4800" d="M76.573,85.034c-0.215-0.041-0.518,0.04-0.561,0.202c-0.042,0.161,0.217,0.323,0.476,0.364
				c0.257,0.041,0.387-0.203,0.171-0.282C76.443,85.236,76.789,85.074,76.573,85.034z"/>
			<path fill="#DF4800" d="M75.971,86.126c0.172,0,0.301-0.282,0.215-0.384c-0.063-0.075-0.236-0.156-0.363-0.163
				c-0.02,0.167-0.025,0.32-0.013,0.47C75.864,86.095,75.922,86.126,75.971,86.126z"/>
			<path fill="#DF4800" d="M76.616,85.822c-0.173,0.102-0.387,0.223-0.173,0.304c0.098,0.036,0.229,0.076,0.357,0.098
				c0.026-0.119,0.063-0.248,0.104-0.382C76.791,85.802,76.676,85.787,76.616,85.822z"/>
			<path fill="#DF4800" d="M76.056,86.288c-0.172,0.182,0.346,0.364,0.518,0.243S76.136,86.206,76.056,86.288z"/>
			<path fill="#DF4800" d="M76.271,86.692c-0.063-0.039-0.174-0.03-0.274-0.012c0.031,0.061,0.064,0.123,0.105,0.186
				C76.244,86.84,76.371,86.755,76.271,86.692z"/>
			<path fill="#DF4800" d="M76.531,86.874c-0.08,0.096,0.042,0.224,0.214,0.183c0.042-0.01,0.075-0.025,0.104-0.045
				c-0.021-0.046-0.042-0.093-0.06-0.138c-0.006-0.014-0.011-0.03-0.014-0.047C76.678,86.82,76.573,86.825,76.531,86.874z"/>
		</g>
		<path d="M76.78,87.576c0,0-0.81,0.882-0.554,1.376c0.255,0.492,0.169,1.503-0.085,1.911c-0.256,0.408-0.299,0.645-0.087,0.603
			c0.214-0.045,0.512-0.603,0.598-1.355c0.086-0.752,0.298-0.988,0.384-0.536c0.084,0.451-0.044,1.052-0.215,1.289
			c-0.169,0.235,0,0.473,0.257,0.191c0.256-0.278,0.297-1.203,0.214-1.48c-0.087-0.28,0.34-0.151,0.255,0.688
			c-0.085,0.837-0.639,1.375-0.597,1.782c0.042,0.408-0.042,1.01,0.384,0.967c0.425-0.042-0.256-0.43-0.129-0.923
			c0.129-0.494,0.767-1.59,0.597-2.236c-0.17-0.642-0.043-0.966-0.298-1.503C77.247,87.813,77.036,87.599,76.78,87.576z"/>
	</g>
	<g>
		<g>
			<path fill="#FF7F00" d="M47.416,17.653c0.586,3.526,0.202,3.688-1.917,0.81c-1.308-4.253-3.066-8.414-5.203-12.318
				c-0.587-3.526-0.204-3.688,1.916-0.81C43.521,9.589,45.278,13.75,47.416,17.653z"/>
		</g>
		<circle fill="#DF4800" cx="40.636" cy="4.471" r="2.662"/>
	</g>
	<g>
		<g>
			<path fill="#FF7F00" d="M50.71,18.929c-1.422,3.28-1.833,3.208-2.049-0.361c1.209-4.281,1.992-8.73,2.319-13.169
				c1.419-3.28,1.831-3.208,2.046,0.36C51.816,10.042,51.033,14.492,50.71,18.929z"/>
		</g>
		<circle fill="#DF4800" cx="52.173" cy="4.179" r="2.663"/>
	</g>
	<g>
		
			<radialGradient id="SVGID_1_" cx="166.6543" cy="73.5303" r="3.7259" gradientTransform="matrix(0.6802 0 0 0.838 -43.6423 31.8836)" gradientUnits="userSpaceOnUse">
			<stop  offset="0.2135" style="stop-color:#3F3200"/>
			<stop  offset="1" style="stop-color:#5F4400"/>
		</radialGradient>
		<path fill="url(#SVGID_1_)" d="M66.441,94.685c0.035,0.019,0.07,0.026,0.109,0.065c0.744,0.734,3.55,1.464,6.439-3.044
			c-0.707,0.053-1.794,0.235-3.09,0.815C68.322,93.226,66.951,93.364,66.441,94.685z"/>
		
			<radialGradient id="SVGID_2_" cx="153.3867" cy="76.5938" r="6.0031" gradientTransform="matrix(0.6802 0 0 0.838 -43.6423 31.8836)" gradientUnits="userSpaceOnUse">
			<stop  offset="0.2135" style="stop-color:#3F3200"/>
			<stop  offset="1" style="stop-color:#5F4400"/>
		</radialGradient>
		<path fill="url(#SVGID_2_)" d="M60.344,98.349c4.479,0.92,5.172-2.668,5.775-3.515c-0.146-0.178-0.414-0.226-0.869-0.111
			c-1.824,0.447-6.023,0.281-8.762-0.845c-0.591-0.241-0.973-0.279-1.224-0.198C55.678,95.297,56.869,97.636,60.344,98.349z"/>
		
			<radialGradient id="SVGID_3_" cx="138.6865" cy="75.3145" r="4.4304" gradientTransform="matrix(0.6802 0 0 0.838 -43.6423 31.8836)" gradientUnits="userSpaceOnUse">
			<stop  offset="0.2135" style="stop-color:#3F3200"/>
			<stop  offset="1" style="stop-color:#5F4400"/>
		</radialGradient>
		<path fill="url(#SVGID_3_)" d="M50.486,96.55c2.756,0.136,3.843-1.532,4.276-2.875c-0.568-0.468-1.625,0.76-3.729,0.598
			c-1.842-0.142-3.462-0.552-4.41-0.835C47.819,95.278,49.181,96.486,50.486,96.55z"/>
	</g>
	<g>
		<radialGradient id="SVGID_4_" cx="66.2803" cy="95.0479" r="0.2931" gradientUnits="userSpaceOnUse">
			<stop  offset="0.073" style="stop-color:#CA3F00"/>
			<stop  offset="1" style="stop-color:#DF5100"/>
		</radialGradient>
		<path fill="url(#SVGID_4_)" d="M66.119,94.834c0.108,0.13,0.146,0.33,0.146,0.596c0.038-0.284,0.092-0.531,0.176-0.745
			C66.325,94.634,66.223,94.686,66.119,94.834z"/>
		<radialGradient id="SVGID_5_" cx="55.0137" cy="92.9922" r="0.6876" gradientUnits="userSpaceOnUse">
			<stop  offset="0.073" style="stop-color:#CA3F00"/>
			<stop  offset="1" style="stop-color:#DF5100"/>
		</radialGradient>
		<path fill="url(#SVGID_5_)" d="M55.05,92.052c0,0-0.006,0.743-0.288,1.623c0.07,0.06,0.136,0.138,0.194,0.257
			c0.062-0.117,0.162-0.204,0.309-0.252C55.029,92.745,55.05,92.052,55.05,92.052z"/>
		
			<radialGradient id="SVGID_6_" cx="145.2734" cy="7.5532" r="61.1364" gradientTransform="matrix(0.6802 0 0 0.838 -43.6423 31.8836)" gradientUnits="userSpaceOnUse">
			<stop  offset="0" style="stop-color:#BB3000"/>
			<stop  offset="0.0909" style="stop-color:#C43900"/>
			<stop  offset="0.4732" style="stop-color:#E45B00"/>
			<stop  offset="0.79" style="stop-color:#F86F00"/>
			<stop  offset="1" style="stop-color:#FF7700"/>
		</radialGradient>
		<path fill="url(#SVGID_6_)" d="M73.417,86.771c-0.397-1.188-0.661-3.958,0.263-3.958c0.598,0,1.301-0.33,1.726-0.564
			c-0.145-0.671-0.354-1.321-0.613-1.947c-0.269,0.729-0.821,1.247-1.508,1.322c-1.188,0.133-1.979,1.452-3.563,1.452
			c-1.584,0-1.584-2.904-0.659-3.167c0.923-0.265,1.317-1.716,1.45-2.904c0.079-0.711,0.677-1.04,1.372-1.222
			c-0.403-0.46-0.811-0.888-1.207-1.277c-0.278,0.346-0.632,0.708-1.089,1.049c-1.583,1.188-3.034-2.508-4.751-4.488
			c-0.867-1.002-0.62-1.697-0.165-2.144c-1.42-1.993-3.124-5.223-4.506-10.336c-0.473,0.735-0.929,1.676-0.477,2.053
			c0.793,0.661,0.925,1.585,1.056,3.035c0.134,1.453-1.056,0.529-0.922,0c0.131-0.525-0.396-1.978-1.057-1.846
			c-0.659,0.132-1.188-2.112-1.32-3.168c-0.132-1.054,0.476-2.069,0.793-2.771c0.408-0.905,0.766-1.324,1.074-1.432
			c-0.396-2.828-0.463-5.764-0.418-8.615c-1.136-0.158-2.654-1.459-1.976-2.139c0.879-0.88-0.528-2.287,0.176-3.695
			c0.414-0.83,1.315-0.618,1.988-0.308c0.22-6.765,0.053-11.915-4.42-11.915c-4.86,0-4.359,6.074-3.283,13.967
			c0.412,0.042,0.875-0.022,1.314-0.336c1.233-0.879,3.168-0.704,3.168,1.055c0,1.76-1.584,2.287-1.231,3.519
			c0.309,1.083-1.148,2.165-2.462,1.575c0.068,0.538,0.136,1.078,0.198,1.62c1.019,0.099,1.561,0.401,2.615-0.204
			c1.232-0.703,0.151-2.388,1.408-2.64c0.879-0.175,1.583,0.528,1.936,1.584s-0.177,3.519-1.231,3.167
			c-1.056-0.351-2.816,1.76-4.048,2.288c-0.095,0.038-0.189,0.046-0.284,0.029c0.027,0.401,0.05,0.805,0.068,1.205
			c0.436-0.25,0.875-0.4,1.097-0.179c0.526,0.526,0,2.288,1.232,2.288c1.23,0,1.406,2.285,0.525,2.463
			c-0.677,0.134-2.078,1.308-2.933,1.523c-0.034,0.408-0.074,0.805-0.119,1.188c0.349,0.095,0.776,0.315,0.853,0.85
			c0.133,0.923,0.528,3.037,1.452,3.169c0.924,0.131,1.057,1.714,0,1.714s-2.244,0.396-2.902,1.188
			c-0.467,0.56-1.131,1.116-1.805,1.163c-0.571,1.047-1.188,1.939-1.808,2.765c0.457,0.035,0.976,0.169,1.236,0.559
			c0.528,0.793-0.264,1.849,0.132,2.905c0.396,1.055,0.661,2.242-0.791,2.11s-1.056-1.452-2.111-1.32
			c-0.544,0.069-1.085,0.098-1.522-0.049c-0.228,0.399-0.439,0.818-0.627,1.261c0.402-0.122,0.868-0.105,1.224,0.373
			c0.792,1.055-1.451,1.714-0.395,3.299c0.962,1.445-0.599,1.897-1.882,1.264c-0.1,1.708,0.059,3.229,0.371,4.563
			c0.659,0.053,1.477,0.209,1.906,0.64c0.792,0.793,2.244,0.793,2.641,1.98c0.396,1.188-1.585,0.66-1.981,1.584
			c-0.112,0.265-0.295,0.495-0.533,0.673c0.188,0.311,0.367,0.594,0.531,0.847c0.404,0.119,0.934,0.264,1.544,0.398
			c-0.606-0.718-1.044-1.478-0.354-1.392c1.057,0.133,2.641-1.188,2.244-2.11c-0.396-0.923,0.795-1.438,1.452-1.583
			c1.188-0.265,1.452,0.13,2.375,1.055c0.744,0.743,0.805,2.51,0.73,3.791c0.051,0.019,0.102,0.041,0.147,0.078
			c0.282-0.88,0.288-1.623,0.288-1.623s-0.021,0.693,0.215,1.628c0.251-0.081,0.633-0.043,1.224,0.198
			c1.318,0.542,2.973,0.859,4.543,0.995c0.015-0.634,0.26-1.455,1.3-1.901c1.849-0.79,2.376-1.449,3.167-2.77
			c0.412-0.689,1.98-0.133,2.508,1.055c0.529,1.188-1.188,1.32-1.716,2.111c-0.283,0.425-0.944,1.001-1.499,1.443
			c0.164-0.025,0.321-0.055,0.459-0.089c0.455-0.114,0.723-0.066,0.869,0.111c0.104-0.148,0.206-0.2,0.322-0.149
			c0.482-1.248,1.738-1.445,3.206-2.059c-0.501-0.164-0.849-0.483-0.849-1.104c0-1.849,1.187-2.771,1.187-2.771
			c0.66-0.66,2.11-1.321,2.771-0.397c0.465,0.648,0.732,1.483,1.033,1.975c0.195-0.373,0.391-0.773,0.583-1.198
			C73.797,88.938,73.724,87.696,73.417,86.771z M64.707,72.254c1.188,0.66,0,2.11-1.98,4.223s-3.562,0.396-4.354-0.923
			c-0.793-1.321,0.922-2.376,1.979-2.376c1.056,0,0.352-3.4,1.056-3.299C62.331,70.011,63.519,71.594,64.707,72.254z M59.69,65.391
			c0.661,0.397,1.189-0.527,1.981-0.396s1.45,2.242,1.582,3.035c0.133,0.792-0.657,1.849-1.318,0.925
			c-0.66-0.925-1.848,0.264-3.432-0.133c-1.583-0.396-2.211-1.759-1.715-2.375C57.315,65.788,59.031,64.995,59.69,65.391z
			 M56.217,55.934c-1.232,0-1.584-1.056-1.232-2.111c0.277-0.835,1.408-1.761,2.463-0.705
			C58.504,54.176,57.447,55.934,56.217,55.934z M55.337,64.73c-1.057-1.057-1.32-3.299-0.528-4.222
			c0.551-0.644,1.715-0.924,1.98,0.527c0.264,1.451,0.658,1.451,1.319,1.451c0.659,0,1.451,1.716,0.527,2.111
			C57.712,64.995,56.393,65.788,55.337,64.73z M53.884,69.087c0.16-1.115,2.113-1.32,2.905-0.529
			c0.791,0.793,1.584,1.453,2.376,1.321c0.79-0.133,1.45,1.715-0.134,2.243c-1.584,0.527-2.639,1.979-3.694,1.583
			c-1.057-0.396,0.264-2.375-0.66-2.771C53.752,70.538,53.752,70.011,53.884,69.087z M55.469,77.137
			c-1.188,0.264-0.792,1.979-1.717,2.903c-0.924,0.924-2.569-0.973-2.243-1.848c0.396-1.056,1.849-0.265,2.375-1.451
			c0.529-1.188,2.377-2.245,2.771-1.848C57.053,75.289,56.655,76.872,55.469,77.137z M52.564,69.746
			c0.591-0.295,0.132,1.584,0.793,1.848c0.659,0.264,0.131,1.32,0.526,2.243c0.396,0.924-1.451,3.827-2.771,2.904
			c-1.319-0.924,0.66-3.036-0.263-3.563C49.926,72.649,50.454,70.802,52.564,69.746z M48.342,78.984
			c1.584,0.659,1.452,0.264,2.244,0.396c0.792,0.133,1.187,1.319,0.527,1.584c-0.658,0.264-1.319,1.32-2.11,1.98
			c-0.792,0.658-2.772-0.792-2.905-1.98C45.966,79.775,47.855,78.782,48.342,78.984z M50.454,86.374
			c0.131,1.32-0.264,2.772-1.847,2.244c-1.585-0.527-1.452-1.452-2.641-1.583c-1.188-0.132-2.243-3.3-0.395-3.036
			c1.848,0.264,4.883-1.715,5.675-1.187C51.886,83.238,50.322,85.055,50.454,86.374z M52.961,88.091
			c-1.188,0.527-2.112-1.585-1.188-2.771c0.924-1.188,2.508-0.924,3.3-0.659c0.227,0.074,0.574-0.038,0.974-0.226
			c-0.836,0.085-1.81-0.348-2.425-0.964c-1.057-1.056-1.319-3.168,0-3.035c1.319,0.132,1.848-0.792,2.111-1.714
			c0.265-0.926,1.28-1.722,1.979-1.85c1.453-0.265,3.432,1.188,2.771,2.112c-0.659,0.924,0.263,2.243-0.264,3.035
			c-0.529,0.793-2.111-0.396-2.772,1.319c-0.072,0.191-0.166,0.352-0.271,0.487c0.693-0.39,1.361-0.74,1.724-0.619
			c1.07,0.358-0.132,2.244-0.791,2.641c-0.661,0.395,1.187,2.903-0.661,2.639C55.601,88.223,54.149,87.562,52.961,88.091z
			 M63.122,91.786c-1.056-0.264-1.979,1.186-3.563,1.847c-1.584,0.66-3.036-0.529-3.299-1.319c-0.264-0.791-1.056-2.772-0.396-2.902
			c1.98-0.396,2.771,0.395,4.487,0.923c1.715,0.527,3.035-1.453,3.694-0.528C64.707,90.729,64.18,92.05,63.122,91.786z
			 M64.442,88.618c0.793,0.659-1.188,1.188-3.299,0.923c-2.112-0.264-2.508-2.771-1.715-3.826c0.791-1.055,0.923-2.902,1.979-3.3
			c0.63-0.235,0.924,1.584,1.979,1.716s1.717,0.659,1.056,1.717C63.782,86.903,63.651,87.959,64.442,88.618z M61.539,80.303
			c-1.056-1.45,0.925-2.507,2.112-2.902c1.187-0.396,1.46-2.281,1.979-2.375c1.452-0.265,1.716,1.32,3.036,1.847
			c1.319,0.528-0.66,3.036-1.716,3.563c-1.055,0.528-0.132,2.64-1.979,3.3C63.122,84.396,62.597,81.756,61.539,80.303z
			 M72.36,85.979c-0.265,1.716-2.901,0.792-3.298,1.98c-0.396,1.188-2.244,2.11-3.433,0.659c-1.188-1.452-0.262-3.958,1.716-5.147
			c0.66-0.396,2.243,0,3.433-0.132C71.965,83.207,72.624,84.263,72.36,85.979z"/>
		
			<radialGradient id="SVGID_7_" cx="145.2734" cy="7.5532" r="61.1369" gradientTransform="matrix(0.6802 0 0 0.838 -43.6423 31.8836)" gradientUnits="userSpaceOnUse">
			<stop  offset="0.073" style="stop-color:#CA3F00"/>
			<stop  offset="1" style="stop-color:#DF5100"/>
		</radialGradient>
		<path fill="url(#SVGID_7_)" d="M54.633,45.991c-0.353-1.232,1.231-1.759,1.231-3.519c0-1.759-1.935-1.935-3.168-1.055
			c-0.439,0.314-0.902,0.379-1.314,0.336c0.253,1.854,0.535,3.811,0.789,5.813C53.484,48.156,54.941,47.074,54.633,45.991z"/>
		<radialGradient id="SVGID_8_" cx="52.1504" cy="41.9614" r="5.6647" gradientUnits="userSpaceOnUse">
			<stop  offset="0.073" style="stop-color:#CA3F00"/>
			<stop  offset="1" style="stop-color:#DF5100"/>
		</radialGradient>
		<path fill="url(#SVGID_8_)" d="M54.633,45.991c-0.353-1.232,1.231-1.759,1.231-3.519c0-1.759-1.935-1.935-3.168-1.055
			c-0.439,0.314-0.902,0.379-1.314,0.336c0.253,1.854,0.535,3.811,0.789,5.813C53.484,48.156,54.941,47.074,54.633,45.991z"/>
		
			<radialGradient id="SVGID_9_" cx="145.2754" cy="7.5532" r="61.1239" gradientTransform="matrix(0.6802 0 0 0.838 -43.6423 31.8836)" gradientUnits="userSpaceOnUse">
			<stop  offset="0.073" style="stop-color:#CA3F00"/>
			<stop  offset="1" style="stop-color:#DF5100"/>
		</radialGradient>
		<path fill="url(#SVGID_9_)" d="M57.097,40.009c-0.704,1.408,0.703,2.815-0.176,3.695c-0.679,0.68,0.84,1.981,1.976,2.139
			c0.035-2.125,0.126-4.2,0.188-6.142C58.412,39.391,57.511,39.179,57.097,40.009z"/>
		<radialGradient id="SVGID_10_" cx="57.9873" cy="40.4258" r="4.8384" gradientUnits="userSpaceOnUse">
			<stop  offset="0.073" style="stop-color:#CA3F00"/>
			<stop  offset="1" style="stop-color:#DF5100"/>
		</radialGradient>
		<path fill="url(#SVGID_10_)" d="M57.097,40.009c-0.704,1.408,0.703,2.815-0.176,3.695c-0.679,0.68,0.84,1.981,1.976,2.139
			c0.035-2.125,0.126-4.2,0.188-6.142C58.412,39.391,57.511,39.179,57.097,40.009z"/>
		
			<radialGradient id="SVGID_11_" cx="145.2725" cy="7.5513" r="61.1427" gradientTransform="matrix(0.6802 0 0 0.838 -43.6423 31.8836)" gradientUnits="userSpaceOnUse">
			<stop  offset="0.073" style="stop-color:#CA3F00"/>
			<stop  offset="1" style="stop-color:#DF5100"/>
		</radialGradient>
		<path fill="url(#SVGID_11_)" d="M53.049,53.383c1.231-0.528,2.992-2.639,4.048-2.288c1.055,0.352,1.584-2.112,1.231-3.167
			s-1.057-1.759-1.936-1.584c-1.257,0.252-0.176,1.937-1.408,2.64c-1.055,0.604-1.597,0.303-2.615,0.204
			c0.16,1.4,0.301,2.813,0.396,4.226C52.859,53.429,52.954,53.421,53.049,53.383z"/>
		<radialGradient id="SVGID_12_" cx="53.8271" cy="47.4194" r="6.2454" gradientUnits="userSpaceOnUse">
			<stop  offset="0.073" style="stop-color:#CA3F00"/>
			<stop  offset="1" style="stop-color:#DF5100"/>
		</radialGradient>
		<path fill="url(#SVGID_12_)" d="M53.049,53.383c1.231-0.528,2.992-2.639,4.048-2.288c1.055,0.352,1.584-2.112,1.231-3.167
			s-1.057-1.759-1.936-1.584c-1.257,0.252-0.176,1.937-1.408,2.64c-1.055,0.604-1.597,0.303-2.615,0.204
			c0.16,1.4,0.301,2.813,0.396,4.226C52.859,53.429,52.954,53.421,53.049,53.383z"/>
		
			<radialGradient id="SVGID_13_" cx="145.2725" cy="7.5474" r="61.1526" gradientTransform="matrix(0.6802 0 0 0.838 -43.6423 31.8836)" gradientUnits="userSpaceOnUse">
			<stop  offset="0.073" style="stop-color:#CA3F00"/>
			<stop  offset="1" style="stop-color:#DF5100"/>
		</radialGradient>
		<path fill="url(#SVGID_13_)" d="M57.447,53.117c-1.055-1.056-2.186-0.13-2.463,0.705c-0.352,1.056,0,2.111,1.232,2.111
			C57.447,55.934,58.504,54.176,57.447,53.117z"/>
		<radialGradient id="SVGID_14_" cx="55.9453" cy="53.1553" r="2.7943" gradientUnits="userSpaceOnUse">
			<stop  offset="0.073" style="stop-color:#CA3F00"/>
			<stop  offset="1" style="stop-color:#DF5100"/>
		</radialGradient>
		<path fill="url(#SVGID_14_)" d="M57.447,53.117c-1.055-1.056-2.186-0.13-2.463,0.705c-0.352,1.056,0,2.111,1.232,2.111
			C57.447,55.934,58.504,54.176,57.447,53.117z"/>
		
			<radialGradient id="SVGID_15_" cx="145.2725" cy="7.5513" r="61.1431" gradientTransform="matrix(0.6802 0 0 0.838 -43.6423 31.8836)" gradientUnits="userSpaceOnUse">
			<stop  offset="0.073" style="stop-color:#CA3F00"/>
			<stop  offset="1" style="stop-color:#DF5100"/>
		</radialGradient>
		<path fill="url(#SVGID_15_)" d="M55.162,56.727c-1.232,0-0.706-1.762-1.232-2.288c-0.222-0.222-0.661-0.071-1.097,0.179
			c0.069,1.424,0.092,2.834,0.041,4.221c-0.025,0.656-0.067,1.275-0.119,1.875c0.854-0.216,2.256-1.39,2.933-1.523
			C56.568,59.012,56.393,56.727,55.162,56.727z"/>
		<radialGradient id="SVGID_16_" cx="53.2969" cy="55.3262" r="5.0924" gradientUnits="userSpaceOnUse">
			<stop  offset="0.073" style="stop-color:#CA3F00"/>
			<stop  offset="1" style="stop-color:#DF5100"/>
		</radialGradient>
		<path fill="url(#SVGID_16_)" d="M55.162,56.727c-1.232,0-0.706-1.762-1.232-2.288c-0.222-0.222-0.661-0.071-1.097,0.179
			c0.069,1.424,0.092,2.834,0.041,4.221c-0.025,0.656-0.067,1.275-0.119,1.875c0.854-0.216,2.256-1.39,2.933-1.523
			C56.568,59.012,56.393,56.727,55.162,56.727z"/>
		
			<radialGradient id="SVGID_17_" cx="145.2715" cy="7.5513" r="61.1383" gradientTransform="matrix(0.6802 0 0 0.838 -43.6423 31.8836)" gradientUnits="userSpaceOnUse">
			<stop  offset="0.073" style="stop-color:#CA3F00"/>
			<stop  offset="1" style="stop-color:#DF5100"/>
		</radialGradient>
		<path fill="url(#SVGID_17_)" d="M58.24,55.89c-0.317,0.701-0.925,1.717-0.793,2.771c0.133,1.056,0.661,3.3,1.32,3.168
			c0.661-0.132,1.188,1.32,1.057,1.846c-0.134,0.529,1.056,1.453,0.922,0c-0.131-1.45-0.263-2.374-1.056-3.035
			c-0.452-0.377,0.004-1.317,0.477-2.053c-0.088-0.32-0.172-0.646-0.256-0.979c-0.257-1.027-0.446-2.08-0.597-3.148
			C59.006,54.565,58.648,54.984,58.24,55.89z"/>
		<radialGradient id="SVGID_18_" cx="58.6719" cy="55.9854" r="7.222" gradientUnits="userSpaceOnUse">
			<stop  offset="0.073" style="stop-color:#CA3F00"/>
			<stop  offset="1" style="stop-color:#DF5100"/>
		</radialGradient>
		<path fill="url(#SVGID_18_)" d="M58.24,55.89c-0.317,0.701-0.925,1.717-0.793,2.771c0.133,1.056,0.661,3.3,1.32,3.168
			c0.661-0.132,1.188,1.32,1.057,1.846c-0.134,0.529,1.056,1.453,0.922,0c-0.131-1.45-0.263-2.374-1.056-3.035
			c-0.452-0.377,0.004-1.317,0.477-2.053c-0.088-0.32-0.172-0.646-0.256-0.979c-0.257-1.027-0.446-2.08-0.597-3.148
			C59.006,54.565,58.648,54.984,58.24,55.89z"/>
		
			<radialGradient id="SVGID_19_" cx="145.2725" cy="7.5498" r="61.1429" gradientTransform="matrix(0.6802 0 0 0.838 -43.6423 31.8836)" gradientUnits="userSpaceOnUse">
			<stop  offset="0.073" style="stop-color:#CA3F00"/>
			<stop  offset="1" style="stop-color:#DF5100"/>
		</radialGradient>
		<path fill="url(#SVGID_19_)" d="M58.636,64.599c0.924-0.396,0.132-2.111-0.527-2.111c-0.661,0-1.056,0-1.319-1.451
			c-0.266-1.451-1.43-1.171-1.98-0.527c-0.792,0.923-0.528,3.165,0.528,4.222C56.393,65.788,57.712,64.995,58.636,64.599z"/>
		<radialGradient id="SVGID_20_" cx="56.0449" cy="60.8027" r="4.4377" gradientUnits="userSpaceOnUse">
			<stop  offset="0.073" style="stop-color:#CA3F00"/>
			<stop  offset="1" style="stop-color:#DF5100"/>
		</radialGradient>
		<path fill="url(#SVGID_20_)" d="M58.636,64.599c0.924-0.396,0.132-2.111-0.527-2.111c-0.661,0-1.056,0-1.319-1.451
			c-0.266-1.451-1.43-1.171-1.98-0.527c-0.792,0.923-0.528,3.165,0.528,4.222C56.393,65.788,57.712,64.995,58.636,64.599z"/>
		
			<radialGradient id="SVGID_21_" cx="145.2734" cy="7.5552" r="61.1317" gradientTransform="matrix(0.6802 0 0 0.838 -43.6423 31.8836)" gradientUnits="userSpaceOnUse">
			<stop  offset="0.073" style="stop-color:#CA3F00"/>
			<stop  offset="1" style="stop-color:#DF5100"/>
		</radialGradient>
		<path fill="url(#SVGID_21_)" d="M52.038,68.822c0.658-0.792,1.846-1.188,2.902-1.188s0.924-1.583,0-1.714
			c-0.924-0.132-1.319-2.246-1.452-3.169c-0.076-0.534-0.504-0.755-0.853-0.85c-0.429,3.603-1.329,6.116-2.402,8.084
			C50.907,69.938,51.571,69.382,52.038,68.822z"/>
		<radialGradient id="SVGID_22_" cx="51.5693" cy="63.0947" r="6.6272" gradientUnits="userSpaceOnUse">
			<stop  offset="0.073" style="stop-color:#CA3F00"/>
			<stop  offset="1" style="stop-color:#DF5100"/>
		</radialGradient>
		<path fill="url(#SVGID_22_)" d="M52.038,68.822c0.658-0.792,1.846-1.188,2.902-1.188s0.924-1.583,0-1.714
			c-0.924-0.132-1.319-2.246-1.452-3.169c-0.076-0.534-0.504-0.755-0.853-0.85c-0.429,3.603-1.329,6.116-2.402,8.084
			C50.907,69.938,51.571,69.382,52.038,68.822z"/>
		
			<radialGradient id="SVGID_23_" cx="145.2744" cy="7.5444" r="61.1499" gradientTransform="matrix(0.6802 0 0 0.838 -43.6423 31.8836)" gradientUnits="userSpaceOnUse">
			<stop  offset="0.073" style="stop-color:#CA3F00"/>
			<stop  offset="1" style="stop-color:#DF5100"/>
		</radialGradient>
		<path fill="url(#SVGID_23_)" d="M56.789,66.447c-0.496,0.616,0.132,1.979,1.715,2.375c1.584,0.396,2.771-0.792,3.432,0.133
			c0.661,0.924,1.451-0.133,1.318-0.925c-0.132-0.793-0.79-2.903-1.582-3.035s-1.32,0.793-1.981,0.396
			C59.031,64.995,57.315,65.788,56.789,66.447z"/>
		<radialGradient id="SVGID_24_" cx="59.0176" cy="65.6553" r="4.6286" gradientUnits="userSpaceOnUse">
			<stop  offset="0.073" style="stop-color:#CA3F00"/>
			<stop  offset="1" style="stop-color:#DF5100"/>
		</radialGradient>
		<path fill="url(#SVGID_24_)" d="M56.789,66.447c-0.496,0.616,0.132,1.979,1.715,2.375c1.584,0.396,2.771-0.792,3.432,0.133
			c0.661,0.924,1.451-0.133,1.318-0.925c-0.132-0.793-0.79-2.903-1.582-3.035s-1.32,0.793-1.981,0.396
			C59.031,64.995,57.315,65.788,56.789,66.447z"/>
		
			<radialGradient id="SVGID_25_" cx="145.2715" cy="7.5576" r="61.1298" gradientTransform="matrix(0.6802 0 0 0.838 -43.6423 31.8836)" gradientUnits="userSpaceOnUse">
			<stop  offset="0.073" style="stop-color:#CA3F00"/>
			<stop  offset="1" style="stop-color:#DF5100"/>
		</radialGradient>
		<path fill="url(#SVGID_25_)" d="M54.677,70.934c0.924,0.396-0.396,2.375,0.66,2.771c1.056,0.396,2.11-1.056,3.694-1.583
			c1.584-0.528,0.924-2.376,0.134-2.243c-0.792,0.132-1.585-0.528-2.376-1.321c-0.792-0.791-2.745-0.586-2.905,0.529
			C53.752,70.011,53.752,70.538,54.677,70.934z"/>
		<radialGradient id="SVGID_26_" cx="56.0479" cy="68.9648" r="5.1353" gradientUnits="userSpaceOnUse">
			<stop  offset="0.073" style="stop-color:#CA3F00"/>
			<stop  offset="1" style="stop-color:#DF5100"/>
		</radialGradient>
		<path fill="url(#SVGID_26_)" d="M54.677,70.934c0.924,0.396-0.396,2.375,0.66,2.771c1.056,0.396,2.11-1.056,3.694-1.583
			c1.584-0.528,0.924-2.376,0.134-2.243c-0.792,0.132-1.585-0.528-2.376-1.321c-0.792-0.791-2.745-0.586-2.905,0.529
			C53.752,70.011,53.752,70.538,54.677,70.934z"/>
		
			<radialGradient id="SVGID_27_" cx="145.2705" cy="7.5527" r="61.1366" gradientTransform="matrix(0.6802 0 0 0.838 -43.6423 31.8836)" gradientUnits="userSpaceOnUse">
			<stop  offset="0.073" style="stop-color:#CA3F00"/>
			<stop  offset="1" style="stop-color:#DF5100"/>
		</radialGradient>
		<path fill="url(#SVGID_27_)" d="M50.849,73.178c0.923,0.527-1.056,2.64,0.263,3.563c1.32,0.923,3.168-1.98,2.771-2.904
			c-0.396-0.923,0.133-1.979-0.526-2.243c-0.661-0.264-0.202-2.143-0.793-1.848C50.454,70.802,49.926,72.649,50.849,73.178z"/>
		<radialGradient id="SVGID_28_" cx="51.6826" cy="70.833" r="5.3569" gradientUnits="userSpaceOnUse">
			<stop  offset="0.073" style="stop-color:#CA3F00"/>
			<stop  offset="1" style="stop-color:#DF5100"/>
		</radialGradient>
		<path fill="url(#SVGID_28_)" d="M50.849,73.178c0.923,0.527-1.056,2.64,0.263,3.563c1.32,0.923,3.168-1.98,2.771-2.904
			c-0.396-0.923,0.133-1.979-0.526-2.243c-0.661-0.264-0.202-2.143-0.793-1.848C50.454,70.802,49.926,72.649,50.849,73.178z"/>
		
			<radialGradient id="SVGID_29_" cx="145.2754" cy="7.5547" r="61.1341" gradientTransform="matrix(0.6802 0 0 0.838 -43.6423 31.8836)" gradientUnits="userSpaceOnUse">
			<stop  offset="0.073" style="stop-color:#CA3F00"/>
			<stop  offset="1" style="stop-color:#DF5100"/>
		</radialGradient>
		<path fill="url(#SVGID_29_)" d="M46.891,77.004c1.056-0.132,0.66,1.188,2.111,1.32s1.188-1.056,0.791-2.11
			c-0.396-1.057,0.396-2.112-0.132-2.905c-0.261-0.39-0.779-0.523-1.236-0.559c-1.095,1.46-2.197,2.709-3.056,4.205
			C45.806,77.102,46.347,77.073,46.891,77.004z"/>
		<radialGradient id="SVGID_30_" cx="46.5195" cy="73.6074" r="4.8962" gradientUnits="userSpaceOnUse">
			<stop  offset="0.073" style="stop-color:#CA3F00"/>
			<stop  offset="1" style="stop-color:#DF5100"/>
		</radialGradient>
		<path fill="url(#SVGID_30_)" d="M46.891,77.004c1.056-0.132,0.66,1.188,2.111,1.32s1.188-1.056,0.791-2.11
			c-0.396-1.057,0.396-2.112-0.132-2.905c-0.261-0.39-0.779-0.523-1.236-0.559c-1.095,1.46-2.197,2.709-3.056,4.205
			C45.806,77.102,46.347,77.073,46.891,77.004z"/>
		
			<radialGradient id="SVGID_31_" cx="145.2627" cy="7.5513" r="61.1366" gradientTransform="matrix(0.6802 0 0 0.838 -43.6423 31.8836)" gradientUnits="userSpaceOnUse">
			<stop  offset="0.073" style="stop-color:#CA3F00"/>
			<stop  offset="1" style="stop-color:#DF5100"/>
		</radialGradient>
		<path fill="url(#SVGID_31_)" d="M45.571,81.888c-1.056-1.585,1.188-2.244,0.395-3.299c-0.356-0.479-0.822-0.495-1.224-0.373
			c-0.271,0.635-0.5,1.321-0.667,2.087c-0.216,1.006-0.334,1.949-0.386,2.849C44.972,83.785,46.533,83.333,45.571,81.888z"/>
		<radialGradient id="SVGID_32_" cx="44.0381" cy="78.9707" r="4.0703" gradientUnits="userSpaceOnUse">
			<stop  offset="0.073" style="stop-color:#CA3F00"/>
			<stop  offset="1" style="stop-color:#DF5100"/>
		</radialGradient>
		<path fill="url(#SVGID_32_)" d="M45.571,81.888c-1.056-1.585,1.188-2.244,0.395-3.299c-0.356-0.479-0.822-0.495-1.224-0.373
			c-0.271,0.635-0.5,1.321-0.667,2.087c-0.216,1.006-0.334,1.949-0.386,2.849C44.972,83.785,46.533,83.333,45.571,81.888z"/>
		
			<radialGradient id="SVGID_33_" cx="145.2705" cy="7.5522" r="61.1381" gradientTransform="matrix(0.6802 0 0 0.838 -43.6423 31.8836)" gradientUnits="userSpaceOnUse">
			<stop  offset="0.073" style="stop-color:#CA3F00"/>
			<stop  offset="1" style="stop-color:#DF5100"/>
		</radialGradient>
		<path fill="url(#SVGID_33_)" d="M49.002,82.944c0.791-0.66,1.452-1.717,2.11-1.98c0.66-0.265,0.265-1.451-0.527-1.584
			c-0.792-0.132-0.66,0.264-2.244-0.396c-0.487-0.202-2.376,0.791-2.244,1.979C46.23,82.152,48.21,83.603,49.002,82.944z"/>
		<radialGradient id="SVGID_34_" cx="48.021" cy="79.6016" r="4.0453" gradientUnits="userSpaceOnUse">
			<stop  offset="0.073" style="stop-color:#CA3F00"/>
			<stop  offset="1" style="stop-color:#DF5100"/>
		</radialGradient>
		<path fill="url(#SVGID_34_)" d="M49.002,82.944c0.791-0.66,1.452-1.717,2.11-1.98c0.66-0.265,0.265-1.451-0.527-1.584
			c-0.792-0.132-0.66,0.264-2.244-0.396c-0.487-0.202-2.376,0.791-2.244,1.979C46.23,82.152,48.21,83.603,49.002,82.944z"/>
		
			<radialGradient id="SVGID_35_" cx="145.2715" cy="7.5508" r="61.1399" gradientTransform="matrix(0.6802 0 0 0.838 -43.6423 31.8836)" gradientUnits="userSpaceOnUse">
			<stop  offset="0.073" style="stop-color:#CA3F00"/>
			<stop  offset="1" style="stop-color:#DF5100"/>
		</radialGradient>
		<path fill="url(#SVGID_35_)" d="M53.884,76.741c-0.526,1.187-1.979,0.396-2.375,1.451c-0.326,0.875,1.319,2.771,2.243,1.848
			c0.925-0.924,0.528-2.64,1.717-2.903c1.187-0.265,1.584-1.848,1.187-2.243C56.261,74.496,54.413,75.554,53.884,76.741z"/>
		<radialGradient id="SVGID_36_" cx="53.3906" cy="75.6592" r="4.7458" gradientUnits="userSpaceOnUse">
			<stop  offset="0.073" style="stop-color:#CA3F00"/>
			<stop  offset="1" style="stop-color:#DF5100"/>
		</radialGradient>
		<path fill="url(#SVGID_36_)" d="M53.884,76.741c-0.526,1.187-1.979,0.396-2.375,1.451c-0.326,0.875,1.319,2.771,2.243,1.848
			c0.925-0.924,0.528-2.64,1.717-2.903c1.187-0.265,1.584-1.848,1.187-2.243C56.261,74.496,54.413,75.554,53.884,76.741z"/>
		
			<radialGradient id="SVGID_37_" cx="145.2734" cy="7.5586" r="61.1305" gradientTransform="matrix(0.6802 0 0 0.838 -43.6423 31.8836)" gradientUnits="userSpaceOnUse">
			<stop  offset="0.073" style="stop-color:#CA3F00"/>
			<stop  offset="1" style="stop-color:#DF5100"/>
		</radialGradient>
		<path fill="url(#SVGID_37_)" d="M60.352,73.178c-1.057,0-2.771,1.055-1.979,2.376c0.792,1.318,2.373,3.035,4.354,0.923
			s3.169-3.563,1.98-4.223s-2.376-2.243-3.3-2.375C60.703,69.777,61.407,73.178,60.352,73.178z"/>
		<radialGradient id="SVGID_38_" cx="60.6973" cy="71.0557" r="6.4584" gradientUnits="userSpaceOnUse">
			<stop  offset="0.073" style="stop-color:#CA3F00"/>
			<stop  offset="1" style="stop-color:#DF5100"/>
		</radialGradient>
		<path fill="url(#SVGID_38_)" d="M60.352,73.178c-1.057,0-2.771,1.055-1.979,2.376c0.792,1.318,2.373,3.035,4.354,0.923
			s3.169-3.563,1.98-4.223s-2.376-2.243-3.3-2.375C60.703,69.777,61.407,73.178,60.352,73.178z"/>
		
			<radialGradient id="SVGID_39_" cx="145.2686" cy="7.5391" r="61.1564" gradientTransform="matrix(0.6802 0 0 0.838 -43.6423 31.8836)" gradientUnits="userSpaceOnUse">
			<stop  offset="0.073" style="stop-color:#CA3F00"/>
			<stop  offset="1" style="stop-color:#DF5100"/>
		</radialGradient>
		<path fill="url(#SVGID_39_)" d="M64.838,71.065c1.717,1.98,3.168,5.676,4.751,4.488c0.457-0.341,0.811-0.703,1.089-1.049
			c-1.709-1.67-3.199-2.647-3.199-2.647c-0.161-0.12-1.328-0.856-2.806-2.936C64.218,69.368,63.971,70.063,64.838,71.065z"/>
		<radialGradient id="SVGID_40_" cx="66.8936" cy="69.4561" r="6.4936" gradientUnits="userSpaceOnUse">
			<stop  offset="0.073" style="stop-color:#CA3F00"/>
			<stop  offset="1" style="stop-color:#DF5100"/>
		</radialGradient>
		<path fill="url(#SVGID_40_)" d="M64.838,71.065c1.717,1.98,3.168,5.676,4.751,4.488c0.457-0.341,0.811-0.703,1.089-1.049
			c-1.709-1.67-3.199-2.647-3.199-2.647c-0.161-0.12-1.328-0.856-2.806-2.936C64.218,69.368,63.971,70.063,64.838,71.065z"/>
		
			<radialGradient id="SVGID_41_" cx="145.2734" cy="7.5562" r="61.133" gradientTransform="matrix(0.6802 0 0 0.838 -43.6423 31.8836)" gradientUnits="userSpaceOnUse">
			<stop  offset="0.073" style="stop-color:#CA3F00"/>
			<stop  offset="1" style="stop-color:#DF5100"/>
		</radialGradient>
		<path fill="url(#SVGID_41_)" d="M66.95,80.436c1.056-0.527,3.035-3.035,1.716-3.563c-1.32-0.526-1.584-2.111-3.036-1.847
			c-0.519,0.094-0.792,1.979-1.979,2.375c-1.188,0.396-3.168,1.452-2.112,2.902c1.058,1.453,1.583,4.093,3.433,3.433
			C66.818,83.075,65.896,80.964,66.95,80.436z"/>
		<radialGradient id="SVGID_42_" cx="64.0732" cy="76.3691" r="7.4327" gradientUnits="userSpaceOnUse">
			<stop  offset="0.073" style="stop-color:#CA3F00"/>
			<stop  offset="1" style="stop-color:#DF5100"/>
		</radialGradient>
		<path fill="url(#SVGID_42_)" d="M66.95,80.436c1.056-0.527,3.035-3.035,1.716-3.563c-1.32-0.526-1.584-2.111-3.036-1.847
			c-0.519,0.094-0.792,1.979-1.979,2.375c-1.188,0.396-3.168,1.452-2.112,2.902c1.058,1.453,1.583,4.093,3.433,3.433
			C66.818,83.075,65.896,80.964,66.95,80.436z"/>
		
			<radialGradient id="SVGID_43_" cx="145.2734" cy="7.5542" r="61.1354" gradientTransform="matrix(0.6802 0 0 0.838 -43.6423 31.8836)" gradientUnits="userSpaceOnUse">
			<stop  offset="0.073" style="stop-color:#CA3F00"/>
			<stop  offset="1" style="stop-color:#DF5100"/>
		</radialGradient>
		<path fill="url(#SVGID_43_)" d="M70.513,77.004c-0.133,1.188-0.527,2.64-1.45,2.904c-0.925,0.263-0.925,3.167,0.659,3.167
			c1.583,0,2.374-1.319,3.563-1.452c0.687-0.075,1.239-0.593,1.508-1.322c-0.711-1.718-1.791-3.248-2.907-4.519
			C71.189,75.964,70.592,76.293,70.513,77.004z"/>
		<radialGradient id="SVGID_44_" cx="70.79" cy="76.7207" r="6.2773" gradientUnits="userSpaceOnUse">
			<stop  offset="0.073" style="stop-color:#CA3F00"/>
			<stop  offset="1" style="stop-color:#DF5100"/>
		</radialGradient>
		<path fill="url(#SVGID_44_)" d="M70.513,77.004c-0.133,1.188-0.527,2.64-1.45,2.904c-0.925,0.263-0.925,3.167,0.659,3.167
			c1.583,0,2.374-1.319,3.563-1.452c0.687-0.075,1.239-0.593,1.508-1.322c-0.711-1.718-1.791-3.248-2.907-4.519
			C71.189,75.964,70.592,76.293,70.513,77.004z"/>
		
			<radialGradient id="SVGID_45_" cx="145.2578" cy="7.5508" r="61.1444" gradientTransform="matrix(0.6802 0 0 0.838 -43.6423 31.8836)" gradientUnits="userSpaceOnUse">
			<stop  offset="0.073" style="stop-color:#CA3F00"/>
			<stop  offset="1" style="stop-color:#DF5100"/>
		</radialGradient>
		<path fill="url(#SVGID_45_)" d="M75.405,82.248c-0.425,0.234-1.128,0.564-1.726,0.564c-0.924,0-0.66,2.771-0.263,3.958
			c0.307,0.926,0.38,2.168,0.955,2.359c0.193-0.424,0.386-0.872,0.574-1.353C75.715,85.835,75.775,83.973,75.405,82.248z"/>
		<radialGradient id="SVGID_46_" cx="74.3145" cy="83.1279" r="5.3103" gradientUnits="userSpaceOnUse">
			<stop  offset="0.073" style="stop-color:#CA3F00"/>
			<stop  offset="1" style="stop-color:#DF5100"/>
		</radialGradient>
		<path fill="url(#SVGID_46_)" d="M75.405,82.248c-0.425,0.234-1.128,0.564-1.726,0.564c-0.924,0-0.66,2.771-0.263,3.958
			c0.307,0.926,0.38,2.168,0.955,2.359c0.193-0.424,0.386-0.872,0.574-1.353C75.715,85.835,75.775,83.973,75.405,82.248z"/>
		
			<radialGradient id="SVGID_47_" cx="145.2744" cy="7.5557" r="61.1334" gradientTransform="matrix(0.6802 0 0 0.838 -43.6423 31.8836)" gradientUnits="userSpaceOnUse">
			<stop  offset="0.073" style="stop-color:#CA3F00"/>
			<stop  offset="1" style="stop-color:#DF5100"/>
		</radialGradient>
		<path fill="url(#SVGID_47_)" d="M70.778,83.339c-1.189,0.132-2.772-0.264-3.433,0.132c-1.978,1.189-2.903,3.695-1.716,5.147
			c1.188,1.451,3.036,0.528,3.433-0.659c0.396-1.188,3.033-0.265,3.298-1.98C72.624,84.263,71.965,83.207,70.778,83.339z"/>
		<radialGradient id="SVGID_48_" cx="67.7383" cy="84.2334" r="5.7289" gradientUnits="userSpaceOnUse">
			<stop  offset="0.073" style="stop-color:#CA3F00"/>
			<stop  offset="1" style="stop-color:#DF5100"/>
		</radialGradient>
		<path fill="url(#SVGID_48_)" d="M70.778,83.339c-1.189,0.132-2.772-0.264-3.433,0.132c-1.978,1.189-2.903,3.695-1.716,5.147
			c1.188,1.451,3.036,0.528,3.433-0.659c0.396-1.188,3.033-0.265,3.298-1.98C72.624,84.263,71.965,83.207,70.778,83.339z"/>
		
			<radialGradient id="SVGID_49_" cx="145.2773" cy="7.5659" r="61.1242" gradientTransform="matrix(0.6802 0 0 0.838 -43.6423 31.8836)" gradientUnits="userSpaceOnUse">
			<stop  offset="0.073" style="stop-color:#CA3F00"/>
			<stop  offset="1" style="stop-color:#DF5100"/>
		</radialGradient>
		<path fill="url(#SVGID_49_)" d="M69.985,88.751c0,0-1.187,0.923-1.187,2.771c0,0.62,0.348,0.939,0.849,1.104
			c0.084-0.033,0.167-0.065,0.253-0.104c1.296-0.58,2.383-0.763,3.09-0.815c0.266-0.414,0.532-0.873,0.799-1.378
			c-0.301-0.491-0.568-1.326-1.033-1.975C72.096,87.43,70.646,88.091,69.985,88.751z"/>
		<radialGradient id="SVGID_50_" cx="70.8223" cy="88.668" r="4.5564" gradientUnits="userSpaceOnUse">
			<stop  offset="0.073" style="stop-color:#CA3F00"/>
			<stop  offset="1" style="stop-color:#DF5100"/>
		</radialGradient>
		<path fill="url(#SVGID_50_)" d="M69.985,88.751c0,0-1.187,0.923-1.187,2.771c0,0.62,0.348,0.939,0.849,1.104
			c0.084-0.033,0.167-0.065,0.253-0.104c1.296-0.58,2.383-0.763,3.09-0.815c0.266-0.414,0.532-0.873,0.799-1.378
			c-0.301-0.491-0.568-1.326-1.033-1.975C72.096,87.43,70.646,88.091,69.985,88.751z"/>
		
			<radialGradient id="SVGID_51_" cx="145.2734" cy="7.5518" r="61.1372" gradientTransform="matrix(0.6802 0 0 0.838 -43.6423 31.8836)" gradientUnits="userSpaceOnUse">
			<stop  offset="0.073" style="stop-color:#CA3F00"/>
			<stop  offset="1" style="stop-color:#DF5100"/>
		</radialGradient>
		<path fill="url(#SVGID_51_)" d="M57.447,83.339c0.661-1.716,2.243-0.526,2.772-1.319c0.526-0.792-0.396-2.111,0.264-3.035
			c0.66-0.924-1.318-2.377-2.771-2.112c-0.699,0.128-1.715,0.924-1.979,1.85c-0.264,0.922-0.792,1.846-2.111,1.714
			c-1.319-0.133-1.057,1.979,0,3.035c0.615,0.616,1.589,1.049,2.425,0.964c0.352-0.165,0.743-0.393,1.13-0.608
			C57.281,83.69,57.375,83.53,57.447,83.339z"/>
		<radialGradient id="SVGID_52_" cx="55.5693" cy="78.0215" r="6.7428" gradientUnits="userSpaceOnUse">
			<stop  offset="0.073" style="stop-color:#CA3F00"/>
			<stop  offset="1" style="stop-color:#DF5100"/>
		</radialGradient>
		<path fill="url(#SVGID_52_)" d="M57.447,83.339c0.661-1.716,2.243-0.526,2.772-1.319c0.526-0.792-0.396-2.111,0.264-3.035
			c0.66-0.924-1.318-2.377-2.771-2.112c-0.699,0.128-1.715,0.924-1.979,1.85c-0.264,0.922-0.792,1.846-2.111,1.714
			c-1.319-0.133-1.057,1.979,0,3.035c0.615,0.616,1.589,1.049,2.425,0.964c0.352-0.165,0.743-0.393,1.13-0.608
			C57.281,83.69,57.375,83.53,57.447,83.339z"/>
		
			<radialGradient id="SVGID_53_" cx="145.2715" cy="7.5503" r="61.1392" gradientTransform="matrix(0.6802 0 0 0.838 -43.6423 31.8836)" gradientUnits="userSpaceOnUse">
			<stop  offset="0.073" style="stop-color:#CA3F00"/>
			<stop  offset="1" style="stop-color:#DF5100"/>
		</radialGradient>
		<path fill="url(#SVGID_53_)" d="M63.387,84.131c-1.056-0.132-1.35-1.951-1.979-1.716c-1.056,0.397-1.188,2.245-1.979,3.3
			c-0.793,1.056-0.397,3.563,1.715,3.826c2.11,0.265,4.092-0.264,3.299-0.923c-0.791-0.659-0.66-1.715,0-2.771
			C65.104,84.79,64.442,84.263,63.387,84.131z"/>
		<radialGradient id="SVGID_54_" cx="61.0889" cy="83.5137" r="5.8504" gradientUnits="userSpaceOnUse">
			<stop  offset="0.073" style="stop-color:#CA3F00"/>
			<stop  offset="1" style="stop-color:#DF5100"/>
		</radialGradient>
		<path fill="url(#SVGID_54_)" d="M63.387,84.131c-1.056-0.132-1.35-1.951-1.979-1.716c-1.056,0.397-1.188,2.245-1.979,3.3
			c-0.793,1.056-0.397,3.563,1.715,3.826c2.11,0.265,4.092-0.264,3.299-0.923c-0.791-0.659-0.66-1.715,0-2.771
			C65.104,84.79,64.442,84.263,63.387,84.131z"/>
		
			<radialGradient id="SVGID_55_" cx="145.2734" cy="7.5405" r="61.1501" gradientTransform="matrix(0.6802 0 0 0.838 -43.6423 31.8836)" gradientUnits="userSpaceOnUse">
			<stop  offset="0.073" style="stop-color:#CA3F00"/>
			<stop  offset="1" style="stop-color:#DF5100"/>
		</radialGradient>
		<path fill="url(#SVGID_55_)" d="M58.108,85.848c0.659-0.396,1.861-2.282,0.791-2.641c-0.362-0.121-1.03,0.229-1.724,0.619
			c-0.293,0.38-0.691,0.564-1.13,0.608c-0.399,0.188-0.747,0.3-0.974,0.226c-0.792-0.265-2.376-0.529-3.3,0.659
			c-0.923,1.187,0,3.299,1.188,2.771c1.188-0.529,2.64,0.132,4.486,0.396C59.295,88.751,57.447,86.242,58.108,85.848z"/>
		<radialGradient id="SVGID_56_" cx="54.2539" cy="84.0088" r="5.594" gradientUnits="userSpaceOnUse">
			<stop  offset="0.073" style="stop-color:#CA3F00"/>
			<stop  offset="1" style="stop-color:#DF5100"/>
		</radialGradient>
		<path fill="url(#SVGID_56_)" d="M58.108,85.848c0.659-0.396,1.861-2.282,0.791-2.641c-0.362-0.121-1.03,0.229-1.724,0.619
			c-0.293,0.38-0.691,0.564-1.13,0.608c-0.399,0.188-0.747,0.3-0.974,0.226c-0.792-0.265-2.376-0.529-3.3,0.659
			c-0.923,1.187,0,3.299,1.188,2.771c1.188-0.529,2.64,0.132,4.486,0.396C59.295,88.751,57.447,86.242,58.108,85.848z"/>
		
			<radialGradient id="SVGID_57_" cx="145.2734" cy="7.5356" r="61.1549" gradientTransform="matrix(0.6802 0 0 0.838 -43.6423 31.8836)" gradientUnits="userSpaceOnUse">
			<stop  offset="0.073" style="stop-color:#CA3F00"/>
			<stop  offset="1" style="stop-color:#DF5100"/>
		</radialGradient>
		<path fill="url(#SVGID_57_)" d="M57.176,83.826c-0.387,0.216-0.778,0.443-1.13,0.608C56.484,84.391,56.883,84.206,57.176,83.826z"
			/>
		<radialGradient id="SVGID_58_" cx="55.5703" cy="78.0264" r="6.7375" gradientUnits="userSpaceOnUse">
			<stop  offset="0.073" style="stop-color:#CA3F00"/>
			<stop  offset="1" style="stop-color:#DF5100"/>
		</radialGradient>
		<path fill="url(#SVGID_58_)" d="M57.176,83.826c-0.387,0.216-0.778,0.443-1.13,0.608C56.484,84.391,56.883,84.206,57.176,83.826z"
			/>
		<radialGradient id="SVGID_59_" cx="54.2549" cy="84.0098" r="5.5929" gradientUnits="userSpaceOnUse">
			<stop  offset="0.073" style="stop-color:#CA3F00"/>
			<stop  offset="1" style="stop-color:#DF5100"/>
		</radialGradient>
		<path fill="url(#SVGID_59_)" d="M57.176,83.826c-0.387,0.216-0.778,0.443-1.13,0.608C56.484,84.391,56.883,84.206,57.176,83.826z"
			/>
		
			<radialGradient id="SVGID_60_" cx="145.2725" cy="7.5635" r="61.1264" gradientTransform="matrix(0.6802 0 0 0.838 -43.6423 31.8836)" gradientUnits="userSpaceOnUse">
			<stop  offset="0.073" style="stop-color:#CA3F00"/>
			<stop  offset="1" style="stop-color:#DF5100"/>
		</radialGradient>
		<path fill="url(#SVGID_60_)" d="M51.246,82.813c-0.792-0.528-3.828,1.45-5.675,1.187c-1.848-0.264-0.792,2.904,0.395,3.036
			c1.189,0.131,1.056,1.056,2.641,1.583c1.583,0.528,1.979-0.924,1.847-2.244C50.322,85.055,51.886,83.238,51.246,82.813z"/>
		<radialGradient id="SVGID_61_" cx="47.0303" cy="83.6553" r="5.5262" gradientUnits="userSpaceOnUse">
			<stop  offset="0.073" style="stop-color:#CA3F00"/>
			<stop  offset="1" style="stop-color:#DF5100"/>
		</radialGradient>
		<path fill="url(#SVGID_61_)" d="M51.246,82.813c-0.792-0.528-3.828,1.45-5.675,1.187c-1.848-0.264-0.792,2.904,0.395,3.036
			c1.189,0.131,1.056,1.056,2.641,1.583c1.583,0.528,1.979-0.924,1.847-2.244C50.322,85.055,51.886,83.238,51.246,82.813z"/>
		
			<radialGradient id="SVGID_62_" cx="145.2725" cy="7.5723" r="61.118" gradientTransform="matrix(0.6802 0 0 0.838 -43.6423 31.8836)" gradientUnits="userSpaceOnUse">
			<stop  offset="0.073" style="stop-color:#CA3F00"/>
			<stop  offset="1" style="stop-color:#DF5100"/>
		</radialGradient>
		<path fill="url(#SVGID_62_)" d="M46.626,91.918c0.396-0.924,2.376-0.396,1.981-1.584c-0.397-1.188-1.849-1.188-2.641-1.98
			c-0.43-0.431-1.248-0.587-1.906-0.64c0.482,2.063,1.31,3.678,2.033,4.877C46.331,92.413,46.514,92.183,46.626,91.918z"/>
		<radialGradient id="SVGID_63_" cx="44.7134" cy="88.5059" r="4.912" gradientUnits="userSpaceOnUse">
			<stop  offset="0.073" style="stop-color:#CA3F00"/>
			<stop  offset="1" style="stop-color:#DF5100"/>
		</radialGradient>
		<path fill="url(#SVGID_63_)" d="M46.626,91.918c0.396-0.924,2.376-0.396,1.981-1.584c-0.397-1.188-1.849-1.188-2.641-1.98
			c-0.43-0.431-1.248-0.587-1.906-0.64c0.482,2.063,1.31,3.678,2.033,4.877C46.331,92.413,46.514,92.183,46.626,91.918z"/>
		
			<radialGradient id="SVGID_64_" cx="145.2744" cy="7.5581" r="61.1317" gradientTransform="matrix(0.6802 0 0 0.838 -43.6423 31.8836)" gradientUnits="userSpaceOnUse">
			<stop  offset="0.073" style="stop-color:#CA3F00"/>
			<stop  offset="1" style="stop-color:#DF5100"/>
		</radialGradient>
		<path fill="url(#SVGID_64_)" d="M53.884,89.806c-0.923-0.925-1.188-1.319-2.375-1.055c-0.656,0.146-1.847,0.66-1.452,1.583
			c0.397,0.923-1.187,2.243-2.244,2.11c-0.689-0.086-0.251,0.674,0.354,1.392c0.827,0.186,1.807,0.354,2.865,0.437
			c1.934,0.149,2.982-0.875,3.581-0.676C54.688,92.315,54.628,90.549,53.884,89.806z"/>
		<radialGradient id="SVGID_65_" cx="50.0483" cy="89.7031" r="5.9858" gradientUnits="userSpaceOnUse">
			<stop  offset="0.073" style="stop-color:#CA3F00"/>
			<stop  offset="1" style="stop-color:#DF5100"/>
		</radialGradient>
		<path fill="url(#SVGID_65_)" d="M53.884,89.806c-0.923-0.925-1.188-1.319-2.375-1.055c-0.656,0.146-1.847,0.66-1.452,1.583
			c0.397,0.923-1.187,2.243-2.244,2.11c-0.689-0.086-0.251,0.674,0.354,1.392c0.827,0.186,1.807,0.354,2.865,0.437
			c1.934,0.149,2.982-0.875,3.581-0.676C54.688,92.315,54.628,90.549,53.884,89.806z"/>
		
			<radialGradient id="SVGID_66_" cx="145.2734" cy="7.5645" r="61.127" gradientTransform="matrix(0.6802 0 0 0.838 -43.6423 31.8836)" gradientUnits="userSpaceOnUse">
			<stop  offset="0.073" style="stop-color:#CA3F00"/>
			<stop  offset="1" style="stop-color:#DF5100"/>
		</radialGradient>
		<path fill="url(#SVGID_66_)" d="M60.352,90.334c-1.716-0.528-2.507-1.319-4.487-0.923c-0.659,0.13,0.133,2.111,0.396,2.902
			c0.263,0.79,1.715,1.979,3.299,1.319c1.584-0.661,2.507-2.11,3.563-1.847c1.058,0.264,1.585-1.058,0.924-1.98
			C63.387,88.881,62.066,90.861,60.352,90.334z"/>
		<radialGradient id="SVGID_67_" cx="58.7539" cy="90.0049" r="5.5833" gradientUnits="userSpaceOnUse">
			<stop  offset="0.073" style="stop-color:#CA3F00"/>
			<stop  offset="1" style="stop-color:#DF5100"/>
		</radialGradient>
		<path fill="url(#SVGID_67_)" d="M60.352,90.334c-1.716-0.528-2.507-1.319-4.487-0.923c-0.659,0.13,0.133,2.111,0.396,2.902
			c0.263,0.79,1.715,1.979,3.299,1.319c1.584-0.661,2.507-2.11,3.563-1.847c1.058,0.264,1.585-1.058,0.924-1.98
			C63.387,88.881,62.066,90.861,60.352,90.334z"/>
		
			<radialGradient id="SVGID_68_" cx="145.2754" cy="7.541" r="61.147" gradientTransform="matrix(0.6802 0 0 0.838 -43.6423 31.8836)" gradientUnits="userSpaceOnUse">
			<stop  offset="0.073" style="stop-color:#CA3F00"/>
			<stop  offset="1" style="stop-color:#DF5100"/>
		</radialGradient>
		<path fill="url(#SVGID_68_)" d="M66.29,93.368c0.528-0.791,2.245-0.924,1.716-2.111c-0.527-1.188-2.096-1.744-2.508-1.055
			c-0.791,1.32-1.318,1.979-3.167,2.77c-1.04,0.446-1.285,1.268-1.3,1.901c1.44,0.126,2.804,0.096,3.76-0.062
			C65.346,94.369,66.007,93.793,66.29,93.368z"/>
		<radialGradient id="SVGID_69_" cx="63.5801" cy="90.8076" r="5.5275" gradientUnits="userSpaceOnUse">
			<stop  offset="0.073" style="stop-color:#CA3F00"/>
			<stop  offset="1" style="stop-color:#DF5100"/>
		</radialGradient>
		<path fill="url(#SVGID_69_)" d="M66.29,93.368c0.528-0.791,2.245-0.924,1.716-2.111c-0.527-1.188-2.096-1.744-2.508-1.055
			c-0.791,1.32-1.318,1.979-3.167,2.77c-1.04,0.446-1.285,1.268-1.3,1.901c1.44,0.126,2.804,0.096,3.76-0.062
			C65.346,94.369,66.007,93.793,66.29,93.368z"/>
	</g>
	<g>
		<path fill="#FF9200" d="M33.502,33.752c4.381-2.347,8.293-2.661,14.552-1.878c6.259,0.784,9.7,0.625,10.481-2.034
			c0.783-2.66-1.095-5.945-1.095-7.823c0-0.382,0.066-0.929,0.188-1.553c-0.386-0.336-0.824-0.574-1.323-0.682
			c0,0-1.188-7.354-9.812-4.715c-8.622,2.64-7.236,8.218-7.236,8.218c-1.634,1.869-3.878,4.678-6.226,4.365
			c-3.018-0.402-6.721,0.518-8.291,2.66c-1.721,2.348-0.964,3.86-0.47,4.85c0.851,1.703,3.352,2.082,5.477,1.564
			C30.288,35.644,31.285,34.94,33.502,33.752z"/>
		<path fill="#FF8100" d="M35.067,34.535c3.932-1.018,8.634-1.016,12.363-0.507c4.672,0.466,13.312,4.903,13.078-4.437
			c-0.199-2.375-0.732-7.264-2.88-9.127c-0.122,0.624-0.188,1.171-0.188,1.553c0,1.878,1.878,5.163,1.095,7.823
			c-0.781,2.659-4.223,2.817-10.481,2.034c-6.259-0.783-10.171-0.468-14.552,1.878c-2.217,1.188-3.214,1.891-3.754,2.972
			c0.607-0.148,1.181-0.347,1.667-0.578C33.599,35.101,33.583,34.918,35.067,34.535z"/>
	</g>
	<path fill="#FFC728" d="M25.694,30.609c-0.261,1.218,0.796,1.017,2.034-0.03c1.847-1.56,4.307,0.803,4.569,0.09
		c0.262-0.71-1.383-1.841-3.255-1.94C27.169,28.628,25.838,29.942,25.694,30.609z"/>
	<path fill="#FF7F00" d="M63.349,17.764c-2.625,0.86-4.186,2.549-5.477,1.389c-1.29-1.158-0.059-2.654,0.803-5.59
		c0.762-2.608,4.184-2.55,5.474-1.39C65.438,13.332,65.842,16.943,63.349,17.764z"/>
	<path fill="#DF4800" d="M62.009,17.67c-1.775,0.584-2.83,1.726-3.703,0.942c-0.872-0.785-0.039-1.796,0.543-3.783
		c0.515-1.763,2.829-1.724,3.702-0.939C63.422,14.674,63.695,17.118,62.009,17.67z"/>
	<g>
		<g>
			<path fill="#FFFFFF" d="M40.055,15.895c2.926,0,5.307,2.383,5.307,5.308c0,2.928-2.381,5.31-5.307,5.31
				c-2.927,0-5.308-2.381-5.308-5.31C34.747,18.278,37.128,15.895,40.055,15.895z"/>
			
				<linearGradient id="SVGID_70_" gradientUnits="userSpaceOnUse" x1="11.5854" y1="21.2036" x2="23.1431" y2="21.2036" gradientTransform="matrix(-1 0 0 1 57.4189 0)">
				<stop  offset="0" style="stop-color:#272C34"/>
				<stop  offset="1" style="stop-color:#292933"/>
			</linearGradient>
			<path fill="url(#SVGID_70_)" d="M34.276,21.203c0,3.188,2.592,5.78,5.779,5.78s5.778-2.593,5.778-5.78
				c0-3.186-2.591-5.778-5.778-5.778S34.276,18.017,34.276,21.203z M34.747,21.203c0-2.924,2.381-5.308,5.308-5.308
				c2.926,0,5.307,2.383,5.307,5.308c0,2.928-2.381,5.31-5.307,5.31C37.128,26.512,34.747,24.131,34.747,21.203z"/>
		</g>
		
			<radialGradient id="SVGID_71_" cx="17.3652" cy="21.2036" r="5.3958" gradientTransform="matrix(-1 0 0 1 57.4189 0)" gradientUnits="userSpaceOnUse">
			<stop  offset="0" style="stop-color:#FFFFFF"/>
			<stop  offset="1" style="stop-color:#E5E5E5"/>
		</radialGradient>
		<circle fill="url(#SVGID_71_)" cx="40.054" cy="21.203" r="5.396"/>
		
			<linearGradient id="SVGID_72_" gradientUnits="userSpaceOnUse" x1="13.269" y1="21.2036" x2="21.4595" y2="21.2036" gradientTransform="matrix(-1 0 0 1 57.4189 0)">
			<stop  offset="0" style="stop-color:#F3AF18"/>
			<stop  offset="1" style="stop-color:#DF8000"/>
		</linearGradient>
		<circle fill="url(#SVGID_72_)" cx="40.055" cy="21.203" r="4.095"/>
		
			<radialGradient id="SVGID_73_" cx="17.3638" cy="21.2031" r="2.9468" gradientTransform="matrix(-1 0 0 1 57.4189 0)" gradientUnits="userSpaceOnUse">
			<stop  offset="0" style="stop-color:#1F1600"/>
			<stop  offset="1" style="stop-color:#000000"/>
		</radialGradient>
		<circle fill="url(#SVGID_73_)" cx="40.055" cy="21.203" r="2.947"/>
		
			<radialGradient id="SVGID_74_" cx="292.5498" cy="278.7871" r="1.5679" gradientTransform="matrix(-0.6642 -0.4101 -0.5253 0.8509 379.3198 -97.4959)" gradientUnits="userSpaceOnUse">
			<stop  offset="0" style="stop-color:#FFFFFF"/>
			<stop  offset="1" style="stop-color:#E5E5E5"/>
		</radialGradient>
		<path fill="url(#SVGID_74_)" d="M37.521,19.107c-0.457,0.736-0.359,1.621,0.216,1.977c0.577,0.355,1.41,0.043,1.865-0.69
			c0.456-0.74,0.359-1.624-0.217-1.978C38.811,18.059,37.976,18.369,37.521,19.107z"/>
		
			<radialGradient id="SVGID_75_" cx="-221.5293" cy="-139.1909" r="0.8235" gradientTransform="matrix(-0.6444 0.4405 0.5644 0.8255 -22.0567 235.8591)" gradientUnits="userSpaceOnUse">
			<stop  offset="0" style="stop-color:#FFFFFF"/>
			<stop  offset="1" style="stop-color:#E5E5E5"/>
		</radialGradient>
		<path fill="url(#SVGID_75_)" d="M41.607,23.736c0.258,0.377,0.703,0.519,0.995,0.316c0.294-0.2,0.325-0.665,0.067-1.042
			c-0.257-0.377-0.703-0.519-0.996-0.318C41.379,22.893,41.35,23.359,41.607,23.736z"/>
		
			<radialGradient id="SVGID_76_" cx="-166.4058" cy="-320.4185" r="0.8252" gradientTransform="matrix(-0.478 0.3268 0.4186 0.6124 95.2145 274.4133)" gradientUnits="userSpaceOnUse">
			<stop  offset="0" style="stop-color:#FFFFFF"/>
			<stop  offset="1" style="stop-color:#E5E5E5"/>
		</radialGradient>
		<path fill="url(#SVGID_76_)" d="M40.234,24.076c0.192,0.28,0.521,0.386,0.742,0.236c0.216-0.149,0.237-0.496,0.047-0.775
			c-0.191-0.279-0.522-0.385-0.738-0.236C40.068,23.45,40.045,23.796,40.234,24.076z"/>
	</g>
	<g>
		<g>
			<path fill="#FFFFFF" d="M53.634,13.878c3.801,0,6.892,3.094,6.892,6.894c0,3.8-3.091,6.893-6.892,6.893
				c-3.8,0-6.891-3.092-6.891-6.893C46.743,16.973,49.833,13.878,53.634,13.878z"/>
			
				<linearGradient id="SVGID_77_" gradientUnits="userSpaceOnUse" x1="-3.7188" y1="20.7705" x2="11.2905" y2="20.7705" gradientTransform="matrix(-1 0 0 1 57.4189 0)">
				<stop  offset="0" style="stop-color:#272C34"/>
				<stop  offset="1" style="stop-color:#292933"/>
			</linearGradient>
			<path fill="url(#SVGID_77_)" d="M46.128,20.772c0,4.138,3.366,7.504,7.505,7.504c4.139,0,7.504-3.366,7.504-7.504
				c0-4.138-3.365-7.506-7.504-7.506C49.494,13.266,46.128,16.634,46.128,20.772z M46.743,20.772c0-3.799,3.091-6.894,6.891-6.894
				c3.801,0,6.892,3.094,6.892,6.894c0,3.8-3.091,6.893-6.892,6.893C49.833,27.665,46.743,24.572,46.743,20.772z"/>
		</g>
		
			<radialGradient id="SVGID_78_" cx="3.7847" cy="20.7715" r="7.0068" gradientTransform="matrix(-1 0 0 1 57.4189 0)" gradientUnits="userSpaceOnUse">
			<stop  offset="0" style="stop-color:#FFFFFF"/>
			<stop  offset="1" style="stop-color:#E5E5E5"/>
		</radialGradient>
		<path fill="url(#SVGID_78_)" d="M46.626,20.772c0,3.872,3.137,7.005,7.008,7.005c3.869,0,7.009-3.133,7.009-7.005
			c0-3.871-3.14-7.006-7.009-7.006C49.763,13.766,46.626,16.901,46.626,20.772z"/>
		
			<linearGradient id="SVGID_79_" gradientUnits="userSpaceOnUse" x1="-1.5332" y1="20.7715" x2="9.104" y2="20.7715" gradientTransform="matrix(-1 0 0 1 57.4189 0)">
			<stop  offset="0" style="stop-color:#F3AF18"/>
			<stop  offset="1" style="stop-color:#DF8000"/>
		</linearGradient>
		<circle fill="url(#SVGID_79_)" cx="53.634" cy="20.772" r="5.319"/>
		
			<radialGradient id="SVGID_80_" cx="3.7852" cy="20.7715" r="3.8267" gradientTransform="matrix(-1 0 0 1 57.4189 0)" gradientUnits="userSpaceOnUse">
			<stop  offset="0" style="stop-color:#1F1600"/>
			<stop  offset="1" style="stop-color:#000000"/>
		</radialGradient>
		<circle fill="url(#SVGID_80_)" cx="53.634" cy="20.772" r="3.826"/>
		
			<radialGradient id="SVGID_81_" cx="278.8164" cy="271.1514" r="2.0366" gradientTransform="matrix(-0.6642 -0.4101 -0.5253 0.8509 379.3198 -97.4959)" gradientUnits="userSpaceOnUse">
			<stop  offset="0" style="stop-color:#FFFFFF"/>
			<stop  offset="1" style="stop-color:#E5E5E5"/>
		</radialGradient>
		<path fill="url(#SVGID_81_)" d="M50.343,18.048c-0.593,0.956-0.466,2.106,0.283,2.569c0.748,0.461,1.832,0.056,2.422-0.897
			c0.592-0.959,0.465-2.108-0.283-2.568C52.018,16.688,50.932,17.091,50.343,18.048z"/>
		
			<radialGradient id="SVGID_82_" cx="-236.3926" cy="-131" r="1.0693" gradientTransform="matrix(-0.6444 0.4405 0.5644 0.8255 -22.0567 235.8591)" gradientUnits="userSpaceOnUse">
			<stop  offset="0" style="stop-color:#FFFFFF"/>
			<stop  offset="1" style="stop-color:#E5E5E5"/>
		</radialGradient>
		<path fill="url(#SVGID_82_)" d="M55.649,24.06c0.335,0.49,0.912,0.672,1.291,0.41c0.383-0.259,0.421-0.863,0.089-1.352
			c-0.335-0.489-0.913-0.676-1.295-0.412C55.354,22.964,55.316,23.572,55.649,24.06z"/>
		
			<radialGradient id="SVGID_83_" cx="-185.6738" cy="-309.5728" r="1.0706" gradientTransform="matrix(-0.478 0.3268 0.4186 0.6124 95.2145 274.4133)" gradientUnits="userSpaceOnUse">
			<stop  offset="0" style="stop-color:#FFFFFF"/>
			<stop  offset="1" style="stop-color:#E5E5E5"/>
		</radialGradient>
		<path fill="url(#SVGID_83_)" d="M53.867,24.501c0.248,0.364,0.678,0.499,0.961,0.307c0.282-0.195,0.309-0.644,0.063-1.005
			c-0.248-0.363-0.676-0.5-0.959-0.308C53.65,23.688,53.621,24.139,53.867,24.501z"/>
	</g>
</g>
</svg>
