<?xml version="1.0" encoding="utf-8"?>
<!-- Generator: Adobe Illustrator 14.0.0, SVG Export Plug-In . SVG Version: 6.00 Build 43363)  -->
<!DOCTYPE svg PUBLIC "-//W3C//DTD SVG 1.1//EN" "http://www.w3.org/Graphics/SVG/1.1/DTD/svg11.dtd">
<svg version="1.1" id="图层_1" xmlns="http://www.w3.org/2000/svg" xmlns:xlink="http://www.w3.org/1999/xlink" x="0px" y="0px"
	 width="50px" height="50px" viewBox="0 0 50 50" enable-background="new 0 0 50 50" xml:space="preserve">
<g>
	
		<linearGradient id="SVGID_1_" gradientUnits="userSpaceOnUse" x1="-140.4595" y1="-136.9878" x2="-142.7223" y2="-136.3541" gradientTransform="matrix(1 0 0 1 180.5684 170.9448)">
		<stop  offset="0" style="stop-color:#FCD0AF"/>
		<stop  offset="1" style="stop-color:#CC8B6A"/>
	</linearGradient>
	<path fill="url(#SVGID_1_)" d="M43.137,27.761c-1.14,0.909-1.135,3.289-1.129,5.594c0.006,1.535,0.01,3.124-0.346,4.033
		c-0.242,0.614-0.637,1.037-1.17,1.254c-1.264,0.513-2.937-0.234-2.954-0.244c-0.163-0.072-0.358-0.001-0.434,0.163
		c-0.075,0.166-0.004,0.36,0.162,0.435c0.079,0.036,1.941,0.872,3.469,0.256c0.709-0.286,1.226-0.831,1.537-1.623
		c0.404-1.025,0.397-2.605,0.395-4.276c-0.007-2.046-0.014-4.364,0.88-5.076c0.296-0.237,0.697-0.296,1.224-0.173
		c0.178,0.043,0.354-0.068,0.394-0.246c0.041-0.176-0.069-0.352-0.247-0.393C44.194,27.297,43.594,27.396,43.137,27.761z"/>
	
		<radialGradient id="SVGID_2_" cx="-143.5688" cy="-132.9907" r="11.5785" gradientTransform="matrix(1 0 0 1 180.5684 170.9448)" gradientUnits="userSpaceOnUse">
		<stop  offset="0" style="stop-color:#FCD0AF"/>
		<stop  offset="0.2272" style="stop-color:#F9CBAA"/>
		<stop  offset="0.4797" style="stop-color:#F0BE9D"/>
		<stop  offset="0.7432" style="stop-color:#E0A887"/>
		<stop  offset="1" style="stop-color:#CC8B6A"/>
	</radialGradient>
	<path fill="url(#SVGID_2_)" d="M29.469,32.056c0,0,0.62,7.961,5.687,5.508c4.716-2.282,8.502,7.944,1.12,9.806
		c-4.209,1.061-8.408,0.673-10.208-0.302c-5.915-3.199-7.101-13.821-7.101-13.821L29.469,32.056z"/>
	<path fill="#D7926F" d="M38.313,41.181c-0.402-0.366-1.92,2.607-1.92,2.607S36.2,46.637,36.2,46.685
		c0,0.019,0.36,0.229,0.784,0.466c0.552-0.199,1.024-0.453,1.434-0.748c-0.04-0.426,0.038-0.968,0.405-1.621
		C39.56,43.468,38.839,41.659,38.313,41.181z"/>
	<g>
		
			<radialGradient id="SVGID_3_" cx="-154.6475" cy="-131.5713" r="9.8082" gradientTransform="matrix(1 0 0 1 180.5684 170.9448)" gradientUnits="userSpaceOnUse">
			<stop  offset="0" style="stop-color:#D79B7A"/>
			<stop  offset="0.3289" style="stop-color:#DC9F7E"/>
			<stop  offset="0.6937" style="stop-color:#E9AC88"/>
			<stop  offset="1" style="stop-color:#FABD96"/>
		</radialGradient>
		<path fill="url(#SVGID_3_)" d="M24.433,40.202c0.15,2.943,0.564,5.048,0.408,6.054c-0.217,1.383,0.239,2.244,0.771,2.566
			c0.508,0.307,0.784,0.293,2.162,0.288c0.277,0.294,0.976,0.171,1.131-0.06c0.492,0.184,0.854,0.132,1.108-0.048
			c0.185,0.108,0.536,0.067,0.707-0.077c1.04-0.797,0.03-2.696-0.969-2.43c-1.888,0.495-1.354-1.72-1.354-1.72
			c0.286-2.602,2.047-8.696-0.563-9.817c-2.748-1.178-3.548-2.327-4.243-0.271C23.166,35.949,24.295,37.542,24.433,40.202z"/>
		<path fill="#CB8361" d="M28.51,47.406c0,0,0.802,0.414,0.399,1.636c0,0,0.383-0.3,0.271-0.906
			C29.087,47.623,28.51,47.406,28.51,47.406z"/>
		<path fill="#CB8361" d="M29.631,47.339c0,0,0.803,0.414,0.401,1.633c0,0,0.382-0.297,0.271-0.904
			C30.209,47.555,29.631,47.339,29.631,47.339z"/>
	</g>
	<g>
		
			<radialGradient id="SVGID_4_" cx="-149.9658" cy="-131.5713" r="9.8079" gradientTransform="matrix(-1 0 0 1 -127.1484 170.9448)" gradientUnits="userSpaceOnUse">
			<stop  offset="0" style="stop-color:#D79B7A"/>
			<stop  offset="0.3289" style="stop-color:#DC9F7E"/>
			<stop  offset="0.6937" style="stop-color:#E9AC88"/>
			<stop  offset="1" style="stop-color:#FABD96"/>
		</radialGradient>
		<path fill="url(#SVGID_4_)" d="M24.306,40.202c-0.15,2.943-0.564,5.048-0.408,6.054c0.215,1.383-0.239,2.244-0.771,2.566
			c-0.509,0.307-0.785,0.293-2.164,0.288c-0.276,0.294-0.974,0.171-1.129-0.06c-0.492,0.184-0.853,0.132-1.109-0.048
			c-0.184,0.108-0.534,0.067-0.707-0.077c-1.039-0.797-0.052-2.588,0.968-2.43c1.908,0.292,1.482-1.936,1.482-1.936
			c0-3.29-1.008-8.521,1.597-9.638c2.751-1.183,2.387-2.291,3.082-0.235C25.572,35.949,24.443,37.542,24.306,40.202z"/>
		<path fill="#CB8361" d="M20.229,47.406c0,0-0.802,0.414-0.4,1.636c0,0-0.382-0.3-0.272-0.906
			C19.652,47.623,20.229,47.406,20.229,47.406z"/>
		<path fill="#CB8361" d="M19.106,47.339c0,0-0.801,0.414-0.399,1.633c0,0-0.383-0.297-0.271-0.904
			C18.529,47.555,19.106,47.339,19.106,47.339z"/>
	</g>
	<g>
		
			<radialGradient id="SVGID_5_" cx="-146.1348" cy="-129.2251" r="7.9924" gradientTransform="matrix(1 0 0 1 180.5684 170.9448)" gradientUnits="userSpaceOnUse">
			<stop  offset="0" style="stop-color:#FDDBBC"/>
			<stop  offset="0.2068" style="stop-color:#FAD7B7"/>
			<stop  offset="0.4367" style="stop-color:#F2CAAA"/>
			<stop  offset="0.6776" style="stop-color:#E5B494"/>
			<stop  offset="0.9246" style="stop-color:#D39675"/>
			<stop  offset="1" style="stop-color:#CC8B6A"/>
		</radialGradient>
		<path fill="url(#SVGID_5_)" d="M37.709,45.784c-0.128,0.435,0.03,0.646,0.041,0.696c0.278,1.372-0.244,2.02-0.775,2.342
			c-0.508,0.307-0.785,0.293-2.162,0.288c-0.278,0.294-0.975,0.171-1.133-0.06c-0.491,0.184-0.85,0.132-1.106-0.048
			c-0.185,0.108-0.536,0.067-0.707-0.077c-1.04-0.797-0.03-2.696,0.968-2.43c1.888,0.495,1.355-1.72,1.355-1.72
			c-0.299-1.595-0.784-3.467,1.049-4.298c1.209-0.549,3.307-0.162,3.601,1.987C39.078,44.204,38.184,44.191,37.709,45.784z"/>
		<path fill="#B77049" d="M34.075,47.406c0,0-0.801,0.414-0.398,1.636c0,0-0.382-0.3-0.271-0.906
			C33.499,47.623,34.075,47.406,34.075,47.406z"/>
		<path fill="#B77049" d="M32.953,47.339c0,0-0.801,0.414-0.399,1.633c0,0-0.38-0.297-0.27-0.904
			C32.377,47.555,32.953,47.339,32.953,47.339z"/>
	</g>
	<path fill="none" d="M17.814,4.114c0,0,2.191-2.739,4.822-1.424"/>
	<path fill="#A2CE62" d="M33.22,23.426c0,0,2.636-0.014,3.655,0.987c0,0-2.732-0.673-3.425,0.036L33.22,23.426z"/>
	<path fill="#A2CE62" d="M12.731,30.456c0,0-2.622,0.273-3.525,1.379c0,0,2.641-0.971,3.408-0.339L12.731,30.456z"/>
	<ellipse fill="#A15C38" cx="24.119" cy="30.774" rx="8.374" ry="6.583"/>
	<path fill="#A04827" d="M38.698,25.273c0.062-0.4,3.276-0.787,3.307-1.186c0.031-0.401-1.431-1.222-1.435-1.623
		c-0.004-0.402,2.881-0.95,2.843-1.35c-0.036-0.395-2.599-1.485-3.457-1.81c-0.144-0.256,1.772-1.938,1.688-2.161
		c-0.06-0.162-2.646-0.389-3.106-0.5c0.03-0.139,2.325-2.116,2.1-2.431c-0.23-0.321-2.382-0.908-2.536-0.946
		c0.215-0.141,1.813-1.724,1.684-2.052c-0.112-0.277-4.054-0.892-4.381-0.77c0.316-0.414,1.534-1.646,1.239-2.061
		c-0.192-0.266-1.819,0.248-2.075,0.034c-0.247-0.21,0.063-2.119-0.203-2.313c-0.081-0.057-2.433,1.131-2.723,0.917
		C31.35,6.81,31.496,5.604,31.18,5.431c-0.316-0.171-1.152,0.793-1.482,0.64c-0.116-0.053-0.361-3.882-0.707-3.995
		c-0.343-0.112-3.537,2.02-3.896,1.968c-0.358-0.053-0.354-3.293-0.72-3.327c-0.354-0.032-0.954,2.764-1.314,2.751
		c-0.012-0.001-0.027,0.003-0.04,0.006c-0.071-0.283-0.534-0.742-0.62-0.74c-0.354,0.01-0.446,0.545-0.776,0.87
		c-0.005,0.005-0.017,0.005-0.026,0.009c-0.279-1.059-0.575-2.566-0.814-2.55c-0.357,0.024-0.594,1.887-0.954,1.929
		c-0.346,0.042-0.878-1.025-1.219-0.969c-0.348,0.061-0.523,1.153-0.863,1.229c-0.351,0.078-1.011-0.943-1.354-0.849
		c-0.344,0.096,0.203,3.008-0.131,3.119c-0.342,0.115-1.219-1.354-1.549-1.223C14.38,4.43,14.65,5.845,14.33,5.994
		c-0.331,0.15-1.998-2.341-2.315-2.173c-0.268,0.142,0.596,3.178,0.55,3.275c-0.321,0.088-2.744-1.016-3.027-0.794
		c-0.284,0.222-0.223,2.058-0.15,3.33C9.02,9.627,4.721,9.389,4.531,9.687c-0.198,0.307,2.994,2.09,2.824,2.407
		c-0.172,0.319-2.206-0.148-2.349,0.18c-0.085,0.193,0.497,0.988,0.46,1.191c-0.348-0.044-0.621-0.053-0.676,0.042
		c-0.083,0.143-0.031,0.355,0.027,0.568c-0.73,0.081-1.935,0.041-1.996,0.29c-0.085,0.344,1.026,2.44,1.306,2.569
		c-0.44,0.088-2.333,1.583-2.36,1.728c-0.059,0.314,2.845,1.764,2.97,1.875c-0.698,0.398-1.574,0.84-1.514,1.037
		c0.067,0.223,1.904,1.008,2.143,1.145c-0.381,0.245-2.399,3.196-2.338,3.306c0.058,0.104,1.952,0.36,2.793,0.436
		c0.033,0.203-2.844,3.094-2.806,3.494c0.036,0.395,3.313,1.358,3.456,1.738c0.141,0.374-0.737,1.124-0.562,1.489
		c0.168,0.347,2.188-0.419,2.38-0.094c0.199,0.335-2.617,4.295-2.36,4.593c0.257,0.301,4.671-1.949,4.976-1.698
		c0.308,0.252-0.66,2.002-0.333,2.229c0.327,0.228,2.322-0.394,2.677-0.22c0.356,0.173-0.073,1.94,0.297,2.089
		c0.371,0.147,1.635-0.983,2.019-0.861c0.382,0.121,1.084,1.435,1.479,1.505c0.393,0.067,0.912-1.252,1.315-1.207
		c0.393,0.041,1.8,3.979,2.201,3.973c0.4-0.002,1.94-3.392,2.335-3.465c0.394-0.071,2.594,3.349,2.988,3.252
		c0.384-0.092-0.142-3.995,0.237-4.131c0.377-0.136,2.559,2.869,2.931,2.712c0.365-0.153-0.579-2.831-0.219-3.007
		c0.348-0.168,1.866,1.355,2.198,1.174c0.344-0.188-0.181-2.069,0.147-2.272c0.337-0.206,2.108,1.105,2.429,0.884
		c0.322-0.225-1.312-3.11-1.006-3.348c0.316-0.242,1.772,0.999,2.07,0.739c0.3-0.258-0.503-1.659-0.221-1.931
		c0.29-0.279,3.729,1.449,3.998,1.158c0.271-0.293-2.059-3.002-1.811-3.308c0.253-0.306,3.281-0.037,3.494-0.374
		c0.218-0.335-2.578-2.374-2.433-2.743c0.147-0.375,4.464-0.803,4.555-1.186C42.348,27.25,38.637,25.67,38.698,25.273z"/>
	
		<radialGradient id="SVGID_6_" cx="-169.8882" cy="-153.9292" r="4.1644" gradientTransform="matrix(1.1217 0 0 1.1217 198.9442 186.243)" gradientUnits="userSpaceOnUse">
		<stop  offset="0" style="stop-color:#FDE6D3"/>
		<stop  offset="0.2546" style="stop-color:#FCE3CE"/>
		<stop  offset="0.5375" style="stop-color:#F8D9C1"/>
		<stop  offset="0.8329" style="stop-color:#F2C9AB"/>
		<stop  offset="1" style="stop-color:#EEBD9B"/>
	</radialGradient>
	<circle fill="url(#SVGID_6_)" cx="11.826" cy="15.858" r="3.792"/>
	
		<linearGradient id="SVGID_7_" gradientUnits="userSpaceOnUse" x1="-164.5396" y1="-153.0654" x2="-163.0592" y2="-152.1053" gradientTransform="matrix(0.933 0 0 0.933 165.1942 158.5726)">
		<stop  offset="0" style="stop-color:#7B340F"/>
		<stop  offset="1" style="stop-color:#681D00"/>
	</linearGradient>
	<circle fill="url(#SVGID_7_)" cx="11.826" cy="15.858" r="1.997"/>
	
		<radialGradient id="SVGID_8_" cx="-154.6992" cy="-160.7397" r="5.6427" gradientTransform="matrix(1.1217 0 0 1.1217 199.9012 186.7909)" gradientUnits="userSpaceOnUse">
		<stop  offset="0" style="stop-color:#FDE6D3"/>
		<stop  offset="0.2546" style="stop-color:#FCE3CE"/>
		<stop  offset="0.5375" style="stop-color:#F8D9C1"/>
		<stop  offset="0.8329" style="stop-color:#F2C9AB"/>
		<stop  offset="1" style="stop-color:#EEBD9B"/>
	</radialGradient>
	<circle fill="url(#SVGID_8_)" cx="27.038" cy="11.729" r="3.792"/>
	
		<linearGradient id="SVGID_9_" gradientUnits="userSpaceOnUse" x1="-154.3682" y1="-155.9004" x2="-155.1683" y2="-154.34" gradientTransform="matrix(1.1217 0 0 1.1217 200.4471 186.1073)">
		<stop  offset="0" style="stop-color:#7B340F"/>
		<stop  offset="1" style="stop-color:#681D00"/>
	</linearGradient>
	<circle fill="url(#SVGID_9_)" cx="27.039" cy="11.729" r="1.997"/>
	
		<radialGradient id="SVGID_10_" cx="-31.4849" cy="-143.5601" r="95.5704" gradientTransform="matrix(0.2574 0 0 0.2574 22.3581 47.8293)" gradientUnits="userSpaceOnUse">
		<stop  offset="0" style="stop-color:#FCD0AF"/>
		<stop  offset="0.4588" style="stop-color:#FCCBAD"/>
		<stop  offset="0.9678" style="stop-color:#FABEA7"/>
		<stop  offset="1" style="stop-color:#FABDA7"/>
	</radialGradient>
	<path fill="url(#SVGID_10_)" d="M12.832,16.748c3.161-5.336,8.777-6.741,15.028-2.809c8.198,5.159,8.254,11.439,4.704,13.975
		c-6.326,4.517-15.027,7.653-20.855,3.159C8.298,28.444,10.901,20.007,12.832,16.748z"/>
	<path fill="#E3AC89" d="M34.699,22.31c-0.597-0.081-1.461-0.141-2.091,0.063c0,0,1.372,0.088,2.156,0.403
		C34.749,22.623,34.726,22.468,34.699,22.31z"/>
	<path fill="#E3AC89" d="M10.553,29.521c0.103,0.244,0.224,0.477,0.364,0.689c0.645-0.817,1.78-1.447,1.78-1.447
		C11.962,28.795,11.073,29.229,10.553,29.521z"/>
	<path fill="#E3AC89" d="M10.065,27.157c0.642-0.615,1.499-1.065,1.499-1.065c-0.574-0.015-1.091,0.139-1.511,0.328
		C10.049,26.671,10.053,26.916,10.065,27.157z"/>
	<path fill="#E3AC89" d="M19.802,10.792c0,0-0.596,1.79,1.896,3.687c0,0-3.519-0.656-4.109-2.634
		C17.086,10.151,19.802,10.792,19.802,10.792z"/>
	<path fill="#E3AC89" d="M20.301,9.448c0,0-0.598,1.791,1.896,3.687c0,0-3.065-0.394-3.655-2.373
		C18.039,9.069,20.301,9.448,20.301,9.448z"/>
	<path fill="#E3AC89" d="M19.397,14.758c-0.508-0.781-0.631-1.913-0.639-2.792c-0.626,0.164-1.228,0.395-1.803,0.693
		C17.823,13.966,19.397,14.758,19.397,14.758z"/>
	<path fill="#ECAA93" d="M20.82,20.993c3.172-0.463,5.275,2.646,6.043,4.726c0.888,2.412-2.506,4.591-4.696,4.857
		c-1.27,0.153-4.338-0.574-4.581-2.254C17.463,27.47,17.047,21.542,20.82,20.993z"/>
	<path fill="#ECAA93" d="M33.821,26.65c-0.986-1.88-3.834-2.642-6.384-1.661c-2.364,0.907-3.42,1.901-3.505,2.913
		c-0.086,1.036,0.339,1.608,0.674,3.044c0.26,0.238,0.7,0.492,1.212,0.721c2.379-0.961,4.688-2.284,6.745-3.753
		C33.058,27.562,33.481,27.136,33.821,26.65z"/>
	<path fill="#E3AC91" d="M21.963,19.856c3.258-0.466,5.417,2.64,6.202,4.72c0.91,2.411-2.581,4.594-4.829,4.863
		c-1.304,0.154-4.457-0.567-4.704-2.249C18.508,26.337,18.086,20.41,21.963,19.856z"/>
	
		<radialGradient id="SVGID_11_" cx="-156.7246" cy="-134.9478" r="4.2061" gradientTransform="matrix(1.1923 0 0 1.1923 211.967 197.0266)" gradientUnits="userSpaceOnUse">
		<stop  offset="0" style="stop-color:#FDE6D3"/>
		<stop  offset="0.2546" style="stop-color:#FCE3CE"/>
		<stop  offset="0.5375" style="stop-color:#F8D9C1"/>
		<stop  offset="0.8329" style="stop-color:#F2C9AB"/>
		<stop  offset="1" style="stop-color:#EEBD9B"/>
	</radialGradient>
	<path fill="url(#SVGID_11_)" d="M24.715,35.541c2.786-0.393,5.276-2.685,5.003-4.621c-0.273-1.939-2.753-3.19-5.54-2.797
		c-2.786,0.393-4.824,2.28-4.55,4.219C19.901,34.28,21.927,35.934,24.715,35.541z"/>
	<path fill="#E3AC89" d="M29.146,32.908c0.331-0.488,0.537-0.998,0.579-1.501c-0.003-0.043,0-0.086-0.006-0.128
		c-0.273-1.938-2.753-3.191-5.54-2.799c-2.53,0.356-4.437,1.95-4.562,3.688c0.003,0.059,0.003,0.116,0.012,0.173
		c0.104,0.73,0.456,1.422,1.004,1.977c0.155-0.055,0.312-0.105,0.46-0.169c1.009-0.427,2.446-1.755,2.98-2.647
		c0.004,0.02,0.008,0.035,0.012,0.053c0.71,0.653,2.78,1.438,3.972,1.438C28.418,32.992,28.783,32.96,29.146,32.908z"/>
	
		<radialGradient id="SVGID_12_" cx="-157.6553" cy="-133.3555" r="3.7091" gradientTransform="matrix(1.1923 0 0 1.1923 212.675 194.9006)" gradientUnits="userSpaceOnUse">
		<stop  offset="0" style="stop-color:#EC1C24"/>
		<stop  offset="0.3257" style="stop-color:#E91B23"/>
		<stop  offset="0.5529" style="stop-color:#E01A21"/>
		<stop  offset="0.7501" style="stop-color:#D1171E"/>
		<stop  offset="0.9291" style="stop-color:#BB1319"/>
		<stop  offset="1" style="stop-color:#B01117"/>
	</radialGradient>
	<path fill="url(#SVGID_12_)" d="M22.977,27.978c0,0-2.697,2.639-2.339,4.538c0.407,2.149,6.476,3.674,7.666-1.625
		c0.773-3.443-1.885-4.178-1.885-4.178L22.977,27.978z"/>
	
		<radialGradient id="SVGID_13_" cx="90.2314" cy="153.2598" r="46.6122" gradientTransform="matrix(0.1769 0 0 0.1769 14.7666 3.6298)" gradientUnits="userSpaceOnUse">
		<stop  offset="0" style="stop-color:#FDE6D3"/>
		<stop  offset="0.2546" style="stop-color:#FCE3CE"/>
		<stop  offset="0.5375" style="stop-color:#F8D9C1"/>
		<stop  offset="0.8329" style="stop-color:#F2C9AB"/>
		<stop  offset="1" style="stop-color:#EEBD9B"/>
	</radialGradient>
	<path fill="url(#SVGID_13_)" d="M23.998,30.946c0.711,0.653,2.78,1.437,3.973,1.437c2.533,0,5.277-1.283,5.576-3.804
		c0.381-3.21-3.422-4.857-6.718-3.59c-2.366,0.907-3.424,1.901-3.508,2.913C23.235,28.938,23.659,29.511,23.998,30.946z"/>
	
		<radialGradient id="SVGID_14_" cx="259.9326" cy="-50.895" r="27.688" gradientTransform="matrix(-0.237 0.1003 0.1003 0.237 84.2272 18.8094)" gradientUnits="userSpaceOnUse">
		<stop  offset="0" style="stop-color:#FDE6D3"/>
		<stop  offset="0.2546" style="stop-color:#FCE3CE"/>
		<stop  offset="0.5375" style="stop-color:#F8D9C1"/>
		<stop  offset="0.8329" style="stop-color:#F2C9AB"/>
		<stop  offset="1" style="stop-color:#EEBD9B"/>
	</radialGradient>
	<path fill="url(#SVGID_14_)" d="M24.104,30.668c-0.397,0.877-2,2.409-3.096,2.873c-2.335,0.987-5.362,0.876-6.619-1.328
		c-1.602-2.81,0.779-5.956,4.787-5.926c2.533,0.019,3.891,0.416,4.366,1.317C24.023,28.521,23.856,29.214,24.104,30.668z"/>
	<path fill="#D8A58B" d="M27.413,24.907c-0.053-0.143-0.111-0.292-0.177-0.441c-3.886,0.026-7.481,1.632-9.149,2.503
		c0.018,0.247,0.036,0.433,0.051,0.54c0.243,1.682,3.312,2.407,4.581,2.254C24.906,29.498,28.303,27.316,27.413,24.907z"/>
	
		<radialGradient id="SVGID_15_" cx="29.4922" cy="93.5029" r="32.2358" gradientTransform="matrix(0.1769 0 0 0.1769 14.7666 3.6298)" gradientUnits="userSpaceOnUse">
		<stop  offset="0" style="stop-color:#FDE6D3"/>
		<stop  offset="0.2546" style="stop-color:#FCE3CE"/>
		<stop  offset="0.5375" style="stop-color:#F8D9C1"/>
		<stop  offset="0.8329" style="stop-color:#F2C9AB"/>
		<stop  offset="1" style="stop-color:#EEBD9B"/>
	</radialGradient>
	<path fill="url(#SVGID_15_)" d="M21.256,19.772c3.17-0.462,5.273,2.645,6.041,4.727c0.89,2.411-2.506,4.594-4.695,4.857
		c-1.269,0.154-4.338-0.574-4.58-2.255C17.899,26.251,17.483,20.321,21.256,19.772z"/>
	<polygon fill="#CB8361" points="23.334,28.948 24.051,31.18 23.717,28.826 	"/>
	
		<radialGradient id="SVGID_16_" cx="-160.8857" cy="-141.5259" r="4.1406" gradientTransform="matrix(1.1923 0 0 1.1923 212.675 194.9006)" gradientUnits="userSpaceOnUse">
		<stop  offset="0" style="stop-color:#FFFFFF"/>
		<stop  offset="0.118" style="stop-color:#B77049"/>
		<stop  offset="0.3385" style="stop-color:#AE6740"/>
		<stop  offset="0.7039" style="stop-color:#944D27"/>
		<stop  offset="1" style="stop-color:#7B340F"/>
	</radialGradient>
	<path fill="url(#SVGID_16_)" d="M27.297,24.499c-0.053-0.141-0.11-0.289-0.177-0.438c-3.885,0.026-7.48,1.631-9.15,2.504
		c0.016,0.245,0.038,0.432,0.052,0.537c0.242,1.681,3.312,2.409,4.58,2.255C24.791,29.093,28.187,26.91,27.297,24.499z"/>
	<path fill="none" stroke="#FFFFFF" stroke-width="0.5" stroke-linecap="round" stroke-linejoin="round" d="M29.688,26.84
		c0,0,2.453-0.9,6.482,1.038"/>
	<path fill="none" stroke="#FFFFFF" stroke-width="0.5" stroke-linecap="round" stroke-linejoin="round" d="M30.251,28.286
		c0,0,3.296,0.293,6.449,2.479"/>
	<path fill="none" stroke="#FFFFFF" stroke-width="0.5" stroke-linecap="round" stroke-linejoin="round" d="M30.125,30.059
		c0,0,3.319,0.319,5.566,3.497"/>
	<path fill="none" stroke="#FFFFFF" stroke-width="0.5" stroke-linecap="round" stroke-linejoin="round" d="M15.723,29.832
		c-2.287,0.582-3.284,1.371-5.226,3.103"/>
	<path fill="none" stroke="#FFFFFF" stroke-width="0.5" stroke-linecap="round" stroke-linejoin="round" d="M16.054,31.327
		c0,0-2.93,1.219-4.937,3.856"/>
	<path fill="none" stroke="#FFFFFF" stroke-width="0.5" stroke-linecap="round" stroke-linejoin="round" d="M17.323,32.595
		c0,0-4.112,2.278-5.508,4.759"/>
	<path fill="#A04827" d="M20.134,10.603c0,0-0.597,1.792,1.898,3.687c0,0-3.521-0.655-4.109-2.632
		C17.418,9.965,20.134,10.603,20.134,10.603z"/>
	<path fill="#A04827" d="M20.599,9.209c0,0-0.596,1.791,1.896,3.688c0,0-3.407-0.511-4.106-2.633
		C17.835,8.585,20.599,9.209,20.599,9.209z"/>
	<path fill="#A04827" d="M19.24,10.556c0,0-0.38,2.66,0.562,4.109c0,0-3.043-1.533-2.998-3.85
		C16.838,9.049,19.24,10.556,19.24,10.556z"/>
	<path fill="#A04827" d="M29.742,35.242c0,0-0.378-1.51-1.482-2.354c0,0,0.697,2.265,0.523,2.961L29.742,35.242z"/>
	<path fill="#A04827" d="M29.13,36.288c0,0-0.609-1.657-1.48-2.354c0,0,0.697,2.267,0.523,2.963L29.13,36.288z"/>
	<path fill="#A04827" d="M35.354,22.238c0,0-1.718-0.403-2.778-0.058c0,0,2.105,0.135,2.59,0.665L35.354,22.238z"/>
	<path fill="#A04827" d="M8.979,26.824c0,0,1.109-1.059,2.584-1.023c0,0-1.936,1.019-2.173,2.082L8.979,26.824z"/>
	<path fill="#A04827" d="M12.697,28.415c-1.116,0.048-3.062,1.394-3.062,1.394l-0.12,0.401c0.116,0.122,1-0.031,1.124,0.082
		C11.143,29.276,12.697,28.415,12.697,28.415z"/>
	<g>
		<g>
			<path fill="#CC8B6A" d="M26.9,17.283c0.065,0.743-0.484,1.4-1.229,1.465c-0.745,0.065-1.4-0.484-1.463-1.228
				c-0.068-0.743,0.482-1.4,1.226-1.465C26.178,15.99,26.834,16.539,26.9,17.283z"/>
			
				<radialGradient id="SVGID_17_" cx="66.6309" cy="80.2129" r="9.6493" gradientTransform="matrix(0.1762 -0.0155 0.0155 0.1762 12.6747 5.3924)" gradientUnits="userSpaceOnUse">
				<stop  offset="0" style="stop-color:#ABE0F9"/>
				<stop  offset="1" style="stop-color:#00ADEE"/>
			</radialGradient>
			<circle fill="url(#SVGID_17_)" cx="25.57" cy="17.594" r="1.352"/>
			<circle fill="#231F20" cx="25.562" cy="17.681" r="0.641"/>
		</g>
		
			<ellipse transform="matrix(0.9961 -0.0886 0.0886 0.9961 -1.4408 2.2838)" fill="#FFFFFF" cx="25.018" cy="17.38" rx="0.323" ry="0.371"/>
	</g>
	<g>
		<g>
			<circle fill="#CC8B6A" cx="16.145" cy="19.434" r="1.353"/>
			
				<radialGradient id="SVGID_18_" cx="177.0908" cy="66.3203" r="9.6531" gradientTransform="matrix(0.1762 -0.0155 0.0155 0.1762 -15.9811 11.5843)" gradientUnits="userSpaceOnUse">
				<stop  offset="0" style="stop-color:#ABE0F9"/>
				<stop  offset="1" style="stop-color:#00ADEE"/>
			</radialGradient>
			<circle fill="url(#SVGID_18_)" cx="16.162" cy="19.627" r="1.353"/>
			<circle fill="#231F20" cx="16.154" cy="19.714" r="0.642"/>
		</g>
		<path fill="#FFFFFF" d="M15.931,19.383c0.017,0.204-0.112,0.382-0.289,0.399c-0.179,0.013-0.337-0.139-0.353-0.342
			c-0.02-0.204,0.109-0.382,0.288-0.398C15.754,19.028,15.912,19.18,15.931,19.383z"/>
	</g>
	<circle fill="#B77049" cx="29.19" cy="28.795" r="0.174"/>
	<circle fill="#B77049" cx="27.883" cy="30.363" r="0.174"/>
	<path fill="#B77049" d="M31.542,29.666c0,0.098-0.078,0.175-0.176,0.175c-0.094,0-0.175-0.077-0.175-0.175
		c0-0.097,0.081-0.175,0.175-0.175C31.464,29.491,31.542,29.569,31.542,29.666z"/>
	<circle fill="#B77049" cx="30.409" cy="25.919" r="0.173"/>
	<circle fill="#B77049" cx="32.5" cy="27.777" r="0.174"/>
	<circle fill="#B77049" cx="19.433" cy="32.105" r="0.174"/>
	<circle fill="#B77049" cx="17.43" cy="31.495" r="0.174"/>
	<circle fill="#B77049" cx="14.874" cy="31.031" r="0.174"/>
	<circle fill="#B77049" cx="16.384" cy="28.621" r="0.174"/>
	<circle fill="#B77049" cx="16.035" cy="32.453" r="0.174"/>
	<path fill="none" stroke="#E3AC89" stroke-linecap="round" stroke-linejoin="round" d="M23.267,14.799c0,0,1.624-0.871,3.542,0.117
		"/>
	<path fill="none" stroke="#A04827" stroke-linecap="round" stroke-linejoin="round" d="M23.209,14.684c0,0,1.624-0.872,3.541,0.115
		"/>
	<g>
		<path fill="none" stroke="#E3AC89" stroke-linecap="round" stroke-linejoin="round" d="M13.383,18.38c0,0,0.842-1.641,2.98-1.919"
			/>
		<path fill="none" stroke="#A04827" stroke-linecap="round" stroke-linejoin="round" d="M13.269,18.318
			c0,0,0.843-1.641,2.979-1.919"/>
	</g>
	<path fill="#A04827" d="M44.429,27.75c0.103-0.861,1.057-0.96,1.584-0.48c0.805,0.733-0.192,1.439,0.959,2.161
		C46.972,29.431,44.236,29.383,44.429,27.75z"/>
</g>
</svg>
