<?xml version="1.0" encoding="utf-8"?>
<!-- Generator: Adobe Illustrator 14.0.0, SVG Export Plug-In . SVG Version: 6.00 Build 43363)  -->
<!DOCTYPE svg PUBLIC "-//W3C//DTD SVG 1.1//EN" "http://www.w3.org/Graphics/SVG/1.1/DTD/svg11.dtd">
<svg version="1.1" id="图层_1" xmlns="http://www.w3.org/2000/svg" xmlns:xlink="http://www.w3.org/1999/xlink" x="0px" y="0px"
	 width="100px" height="100px" viewBox="0 0 100 100" enable-background="new 0 0 100 100" xml:space="preserve">
<g>
	<g>
		<path fill="#C8C8C8" d="M28.152,84.517c-0.326,0.801-0.585,1.602-0.754,2.375c1.379,0.6,3.163,1.615,5.305,3.36
			c0.919,0.747,1.555,1.498,2.004,2.226c0.661-0.244,1.326-0.549,1.981-0.896c-0.68-1.186-1.616-2.456-2.907-3.628
			C31.749,86.109,29.69,85.082,28.152,84.517z"/>
		<path fill="#C8C8C8" d="M43.063,87.028c1.094-0.962,1.768-1.65,1.768-1.65s0.631-1.685-4.34-6.201
			c-4.973-4.514-6.774-3.588-6.774-3.588s-0.45,0.535-1.109,1.412c1.657,0.751,3.766,1.966,5.909,3.912
			C40.813,82.997,42.224,85.268,43.063,87.028z"/>
		<path fill="#C8C8C8" d="M36.635,82.984c-2.006-1.823-3.989-3.007-5.592-3.768c-0.597,0.897-1.219,1.908-1.787,2.967
			c1.57,0.482,4.006,1.519,6.407,3.699c1.555,1.412,2.595,2.964,3.291,4.34c0.722-0.483,1.412-0.989,2.049-1.483
			C40.146,87.033,38.779,84.93,36.635,82.984z"/>
		<path d="M32.703,90.252c-2.142-1.745-3.926-2.761-5.305-3.36c-0.45,2.083-0.222,3.986,1.319,5.219
			c1.639,1.311,3.793,1.177,5.99,0.367C34.258,91.75,33.622,90.999,32.703,90.252z"/>
		<path d="M29.256,82.184c-0.409,0.76-0.784,1.548-1.104,2.333c1.538,0.565,3.596,1.593,5.629,3.438
			c1.291,1.172,2.227,2.442,2.907,3.628c0.775-0.409,1.536-0.872,2.265-1.359c-0.696-1.376-1.736-2.928-3.291-4.34
			C33.262,83.702,30.826,82.666,29.256,82.184z"/>
		<path d="M41.002,88.739c0.78-0.608,1.482-1.199,2.062-1.711c-0.84-1.761-2.25-4.031-4.546-6.115
			c-2.143-1.946-4.252-3.161-5.909-3.912c-0.448,0.597-0.993,1.353-1.565,2.216c1.604,0.761,3.586,1.944,5.592,3.768
			C38.779,84.93,40.146,87.033,41.002,88.739z"/>
	</g>
	<g>
		<path fill="#C8C8C8" d="M70.666,89.867c0.178,0.843,0.408,1.65,0.703,2.389c1.479-0.273,3.525-0.43,6.277-0.182
			c1.18,0.105,2.127,0.369,2.906,0.723c0.41-0.57,0.791-1.194,1.141-1.848c-1.227-0.602-2.713-1.134-4.439-1.385
			C74.537,89.174,72.258,89.473,70.666,89.867z"/>
		<path fill="#C8C8C8" d="M84.434,83.608c0.367-1.412,0.541-2.355,0.541-2.355s-0.418-1.752-7.066-2.714
			c-6.646-0.964-7.621,0.813-7.621,0.813s-0.074,0.695-0.129,1.789c1.791-0.302,4.221-0.474,7.084-0.058
			C80.313,81.525,82.75,82.619,84.434,83.608z"/>
		<path fill="#C8C8C8" d="M76.842,83.852c-2.684-0.389-4.99-0.264-6.744,0.003c0.01,1.078,0.057,2.264,0.178,3.46
			c1.572-0.479,4.17-0.984,7.381-0.519c2.078,0.302,3.809,1.006,5.152,1.758c0.33-0.806,0.621-1.61,0.871-2.375
			C82.016,85.245,79.707,84.268,76.842,83.852z"/>
		<path d="M77.646,92.074c-2.752-0.248-4.799-0.092-6.277,0.182c0.791,1.978,2.045,3.429,4.014,3.588
			c2.09,0.172,3.801-1.146,5.17-3.047C79.773,92.443,78.826,92.18,77.646,92.074z"/>
		<path d="M70.275,87.314c0.088,0.859,0.217,1.721,0.391,2.553c1.592-0.395,3.871-0.693,6.588-0.303
			c1.727,0.251,3.213,0.783,4.439,1.385c0.414-0.771,0.787-1.581,1.115-2.396c-1.344-0.752-3.074-1.456-5.152-1.758
			C74.445,86.33,71.848,86.836,70.275,87.314z"/>
		<path d="M83.68,86.179c0.307-0.939,0.559-1.821,0.754-2.57c-1.684-0.989-4.121-2.083-7.191-2.525
			c-2.863-0.416-5.293-0.244-7.084,0.058c-0.039,0.747-0.068,1.678-0.061,2.714c1.754-0.267,4.061-0.392,6.744-0.003
			C79.707,84.268,82.016,85.245,83.68,86.179z"/>
	</g>
	<g>
		<g>
			<path fill="#9B9B9B" d="M90.92,71.219c0.689-0.184,1.354-0.407,1.943-0.669c-0.096-0.537-0.098-1.123-0.078-1.754
				c-0.654,0.324-1.342,0.622-2.068,0.897C90.797,70.234,90.854,70.753,90.92,71.219z"/>
			<path fill="#9B9B9B" d="M90.633,69.143c0.766-0.309,1.488-0.646,2.176-1.011c0.016-0.461,0.029-0.939,0.012-1.44
				c-0.811,0.354-1.629,0.682-2.541,0.93C90.436,68.113,90.547,68.631,90.633,69.143z"/>
			<path fill="#9B9B9B" d="M93.912,74.815c0.465-0.105,0.596-0.354,0.543-0.7c-0.605,0.179-1.229,0.342-1.854,0.503
				C92.979,74.854,93.408,74.93,93.912,74.815z"/>
			<path fill="#9B9B9B" d="M91.158,72.339c0.051,0.147,0.104,0.289,0.158,0.428c0.768-0.15,1.516-0.322,2.252-0.513
				c-0.16-0.286-0.32-0.586-0.461-0.896c-0.039-0.088-0.07-0.175-0.102-0.265c-0.621,0.246-1.303,0.454-2.002,0.627
				C91.047,71.952,91.098,72.16,91.158,72.339z"/>
			<path fill="#9B9B9B" d="M90.105,67.134c0.957-0.277,1.809-0.645,2.68-1.035c-0.049-0.586-0.146-1.194-0.338-1.83
				c-0.033-0.109-0.076-0.213-0.123-0.311c-0.977,0.602-2.08,1.136-3.191,1.682C89.563,66.047,89.873,66.563,90.105,67.134z"/>
			<path fill="#9B9B9B" d="M92.141,74.216c0.732-0.188,1.457-0.38,2.158-0.595c-0.121-0.271-0.291-0.577-0.479-0.913
				c-0.752,0.194-1.518,0.371-2.305,0.521C91.705,73.623,91.91,73.956,92.141,74.216z"/>
			<path fill="#9B9B9B" d="M85.115,61.676l-0.463,2.264c0,0,0.002,0.003,1.279,0.385c0.766-0.803,1.135-1.688,1.338-2.594
				C86.057,61.628,85.115,61.676,85.115,61.676z"/>
			<path fill="#9B9B9B" d="M88.127,61.827c-0.225,0.952-0.627,1.88-1.432,2.726c0.328,0.099,0.707,0.213,1.148,0.345
				c0.293,0.087,0.555,0.208,0.789,0.354c1.182-0.575,2.357-1.146,3.357-1.808C91.168,62.478,89.574,62.029,88.127,61.827z"/>
			<path d="M87.27,61.73c-0.203,0.906-0.572,1.791-1.338,2.594c0.217,0.065,0.469,0.142,0.764,0.229
				c0.805-0.846,1.207-1.773,1.432-2.726C87.832,61.784,87.545,61.754,87.27,61.73z"/>
			<path d="M88.633,65.251c0.182,0.113,0.348,0.243,0.5,0.389c1.111-0.546,2.215-1.08,3.191-1.682
				c-0.088-0.188-0.201-0.358-0.334-0.515C90.99,64.105,89.814,64.676,88.633,65.251z"/>
			<path d="M90.279,67.621c0.912-0.248,1.73-0.576,2.541-0.93c-0.006-0.195-0.018-0.394-0.035-0.593
				c-0.871,0.391-1.723,0.758-2.68,1.035C90.17,67.295,90.227,67.456,90.279,67.621z"/>
			<path d="M90.717,69.693c0.727-0.275,1.414-0.573,2.068-0.897c0.006-0.217,0.016-0.437,0.023-0.664
				c-0.688,0.364-1.41,0.702-2.176,1.011C90.666,69.328,90.691,69.512,90.717,69.693z"/>
			<path d="M91.004,71.72c0.699-0.173,1.381-0.381,2.002-0.627c-0.063-0.174-0.109-0.357-0.143-0.543
				c-0.59,0.262-1.254,0.485-1.943,0.669C90.947,71.393,90.973,71.561,91.004,71.72z"/>
			<path d="M91.516,73.229c0.787-0.15,1.553-0.327,2.305-0.521c-0.082-0.146-0.168-0.298-0.252-0.454
				c-0.736,0.19-1.484,0.362-2.252,0.513C91.383,72.93,91.445,73.084,91.516,73.229z"/>
			<path d="M92.602,74.618c0.625-0.161,1.248-0.324,1.854-0.503c-0.023-0.15-0.076-0.313-0.156-0.494
				c-0.701,0.215-1.426,0.407-2.158,0.595C92.285,74.379,92.438,74.514,92.602,74.618z"/>
		</g>
		<path d="M92.553,72.082c0,0-1.113,0.172-0.795,1.371c0.318,1.196,1.115,2.91,0.318,4.451c-0.795,1.541-1.908,3.937-0.953,3.337
			c0.953-0.599,0.953-1.026,1.43-2.567c0.479-1.541,0.16-1.969,0.479-1.541c0.109,0.147,0.049,0.552-0.063,1.091
			c-0.215,1.031-0.625,2.548-0.416,3.62c0.32,1.623,1.594,2.393,1.115,0.854c-0.479-1.542,0-2.825,0.316-4.196
			c0.32-1.369,0.799-0.854,0.48,0.429c-0.318,1.284,0,4.366,1.113,4.879c1.113,0.515,0-1.626,0-3.595s1.59-4.451,0.158-5.735
			S93.951,71.824,92.553,72.082z"/>
	</g>
	<g>
		<path fill="none" d="M33.25,86.368c0.444-0.168,1.269-0.449,2.413-0.718c-0.129-0.449-0.256-0.913-0.38-1.385
			C34.444,85.098,33.749,85.827,33.25,86.368z"/>
		<radialGradient id="SVGID_1_" cx="36.8535" cy="50.1543" r="39.0796" gradientUnits="userSpaceOnUse">
			<stop  offset="0.2865" style="stop-color:#909090"/>
			<stop  offset="0.6124" style="stop-color:#E3E3E3"/>
			<stop  offset="1" style="stop-color:#E3E3E3"/>
		</radialGradient>
		<path fill="url(#SVGID_1_)" d="M37.743,91.446c0.208,0.44,0.414,0.854,0.617,1.201c1.583-0.246,3.561-0.437,5.988-0.437
			c2.288,0,4.457,0.3,6.349,0.702c0.108-0.139,0.21-0.277,0.308-0.418c-1.372-0.454-3.095-0.901-5.196-1.215
			C42.553,90.793,39.717,91.07,37.743,91.446z"/>
		<radialGradient id="SVGID_2_" cx="36.855" cy="50.1538" r="39.0793" gradientUnits="userSpaceOnUse">
			<stop  offset="0.2865" style="stop-color:#909090"/>
			<stop  offset="0.6124" style="stop-color:#E3E3E3"/>
			<stop  offset="1" style="stop-color:#E3E3E3"/>
		</radialGradient>
		<path fill="url(#SVGID_2_)" d="M36.437,88.136c0.164,0.485,0.33,0.948,0.495,1.387c1.958-0.447,5.145-0.895,8.878-0.338
			c2.661,0.4,4.726,1.011,6.221,1.579c0.125-0.253,0.238-0.499,0.338-0.738c-1.699-0.729-4.064-1.523-7.119-2.033
			C41.739,87.401,38.651,87.695,36.437,88.136z"/>
		<radialGradient id="SVGID_3_" cx="36.8545" cy="50.1494" r="39.0833" gradientUnits="userSpaceOnUse">
			<stop  offset="0.2865" style="stop-color:#909090"/>
			<stop  offset="0.6124" style="stop-color:#E3E3E3"/>
			<stop  offset="1" style="stop-color:#E3E3E3"/>
		</radialGradient>
		<path fill="url(#SVGID_3_)" d="M55.512,85.845c-0.934-2.239,0.187-6.155,7.275-7.462c7.09-1.307,11.008-7.462,11.195-14.553
			c0.119-4.565,1.242-7.884,2.029-9.673c-1.82-0.799-3.83-1.392-6.203-1.637c-1.195,2.536-3.07,7.313-3.334,12.847
			c-0.395,8.213-9.659,10.061-16.753,10.061c-4.739,0-10.88,5.311-14.438,8.838c0.124,0.472,0.25,0.936,0.38,1.385
			c2.237-0.523,5.646-0.976,9.587-0.311c3.525,0.59,6.133,1.552,7.854,2.364c0.017-0.081,0.024-0.126,0.024-0.126
			s1.813,0.685,4.672,1.119C56.813,87.771,55.881,86.735,55.512,85.845z"/>
		<radialGradient id="SVGID_4_" cx="36.854" cy="50.1489" r="39.0833" gradientUnits="userSpaceOnUse">
			<stop  offset="0.2865" style="stop-color:#909090"/>
			<stop  offset="0.6124" style="stop-color:#E3E3E3"/>
			<stop  offset="1" style="stop-color:#E3E3E3"/>
		</radialGradient>
		<path fill="url(#SVGID_4_)" d="M62.602,64.39c0.262-5.236,2.174-9.729,3.293-11.948c-1.898,0.103-4.006,0.398-6.387,0.942
			c-0.891,1.28-2.023,3.395-3.201,6.88c-2.595,7.68-6.186,6.186-14.367,7.893c-4.334,0.906-7.087,3.063-8.731,4.895
			c0.281,2.521,0.685,5.006,1.168,7.341c3.708-3.349,9.223-7.605,13.299-7.605C54.392,72.786,62.229,71.854,62.602,64.39z"/>
		<path fill="#C8C8C8" d="M46.368,47.675c-1.471-0.92-3.569-1.023-7.026,0.733c-2.458,1.249-4.104,3.67-5.134,6.77
			c1.734-0.525,4.124-1.53,7.248-3.56C43.427,50.338,45.052,48.968,46.368,47.675z"/>
		<radialGradient id="SVGID_5_" cx="36.855" cy="50.1499" r="39.082" gradientUnits="userSpaceOnUse">
			<stop  offset="0.2865" style="stop-color:#909090"/>
			<stop  offset="0.6124" style="stop-color:#E3E3E3"/>
			<stop  offset="1" style="stop-color:#E3E3E3"/>
		</radialGradient>
		<path fill="url(#SVGID_5_)" d="M52.34,59.913c0.885-2.451,1.744-4.124,2.479-5.271c-1.287,0.305-2.26,0.135-3.041-0.332
			c-1.355,2.229-3.735,5.195-7.709,7.532c-5.238,3.078-9.162,3.935-11.283,4.25c0.005,1.054,0.042,2.12,0.104,3.191
			c1.496-1.028,3.458-1.968,6.019-2.467C46.556,65.322,49.915,66.629,52.34,59.913z"/>
		<radialGradient id="SVGID_6_" cx="36.854" cy="50.1538" r="39.082" gradientUnits="userSpaceOnUse">
			<stop  offset="0.2865" style="stop-color:#909090"/>
			<stop  offset="0.6124" style="stop-color:#E3E3E3"/>
			<stop  offset="1" style="stop-color:#E3E3E3"/>
		</radialGradient>
		<path fill="url(#SVGID_6_)" d="M74.965,89.075c0.078,0.44,0.17,0.895,0.277,1.349c2.176-0.66,5.508-1.396,9.463-1.338
			c1.285,0.019,2.451,0.09,3.508,0.192c0.307-0.939,0.584-1.952,0.814-2.995c-1.074-0.011-2.264,0.021-3.566,0.116
			C80.672,86.751,76.902,88.185,74.965,89.075z"/>
		<radialGradient id="SVGID_7_" cx="36.8574" cy="50.1519" r="39.0806" gradientUnits="userSpaceOnUse">
			<stop  offset="0.2865" style="stop-color:#909090"/>
			<stop  offset="0.6124" style="stop-color:#E3E3E3"/>
			<stop  offset="1" style="stop-color:#E3E3E3"/>
		</radialGradient>
		<path fill="url(#SVGID_7_)" d="M78.662,82.83c-5.469,0.416-7.43,2.831-7.621,4.887c2.82-0.945,3.52-1.992,3.52-1.992
			s0.027,0.501,0.109,1.266c1.971-0.895,5.68-2.277,10.371-2.621c1.639-0.121,3.092-0.137,4.365-0.097
			c0.182-1.158,0.297-2.315,0.328-3.416c0.051-1.81,0.125-4.321-0.025-7.037C88.02,78.747,84.172,82.414,78.662,82.83z"/>
		<radialGradient id="SVGID_8_" cx="36.854" cy="50.1494" r="39.0871" gradientUnits="userSpaceOnUse">
			<stop  offset="0.2865" style="stop-color:#909090"/>
			<stop  offset="0.6124" style="stop-color:#E3E3E3"/>
			<stop  offset="1" style="stop-color:#E3E3E3"/>
		</radialGradient>
		<path fill="url(#SVGID_8_)" d="M49.623,51.867c-0.53-0.866-1.029-1.798-1.628-2.612c-1.332,1.646-3.207,3.511-5.792,5.188
			c-3.817,2.479-6.86,3.749-8.886,4.42c-0.175,1.031-0.305,2.102-0.391,3.208c1.926-0.338,5.178-1.224,9.947-4.029
			C45.866,56.284,48.066,53.979,49.623,51.867z"/>
		<radialGradient id="SVGID_9_" cx="36.8496" cy="50.1558" r="39.0828" gradientUnits="userSpaceOnUse">
			<stop  offset="0.2865" style="stop-color:#909090"/>
			<stop  offset="0.6124" style="stop-color:#E3E3E3"/>
			<stop  offset="1" style="stop-color:#E3E3E3"/>
		</radialGradient>
		<path fill="url(#SVGID_9_)" d="M75.838,92.379c0.131,0.329,0.27,0.642,0.426,0.924c1.469-0.194,3.209-0.343,5.309-0.343
			c1.674,0,3.277,0.164,4.766,0.405c0.391-0.553,0.773-1.277,1.133-2.111c-0.785-0.059-1.629-0.097-2.527-0.11
			C81.195,91.09,78.014,91.746,75.838,92.379z"/>
		<radialGradient id="SVGID_10_" cx="36.855" cy="50.1494" r="39.0827" gradientUnits="userSpaceOnUse">
			<stop  offset="0.2865" style="stop-color:#909090"/>
			<stop  offset="0.6124" style="stop-color:#E3E3E3"/>
			<stop  offset="1" style="stop-color:#E3E3E3"/>
		</radialGradient>
		<path fill="url(#SVGID_10_)" d="M74.598,81.519c6.713-0.508,10.965-5.836,11.842-12.4c0.277-2.064,0.746-3.832,1.26-5.283
			c-0.941-2.187-2.289-4.065-4.215-5.293c-1.182-0.754-2.322-1.515-3.48-2.235c-0.699,1.915-1.447,4.78-1.545,8.456
			c-0.186,7.091-4.105,13.247-11.193,14.553c-7.09,1.307-8.211,5.224-7.275,7.462c0.291,0.703,0.932,1.494,1.672,2.253
			c1.352,0.033,2.803-0.021,4.326-0.217c0.529-0.069,1.018-0.146,1.486-0.227c-0.166-0.3-0.297-0.59-0.377-0.86
			C66.453,85.554,67.885,82.026,74.598,81.519z"/>
		<path d="M38.36,92.647c1.414,2.427,3.143,3.963,5.128,3.89c3.496-0.132,5.758-1.78,7.209-3.624
			c-1.893-0.402-4.061-0.702-6.349-0.702C41.921,92.211,39.943,92.401,38.36,92.647z"/>
		<path d="M76.264,93.303c0.998,1.808,2.441,3.422,4.496,3.677c1.602,0.197,3.789-1.075,5.578-3.614
			c-1.488-0.241-3.092-0.405-4.766-0.405C79.473,92.96,77.732,93.108,76.264,93.303z"/>
		<path d="M36.932,89.522c0.271,0.709,0.542,1.354,0.811,1.924c1.974-0.376,4.81-0.653,8.067-0.166
			c2.101,0.313,3.824,0.761,5.196,1.215c0.414-0.582,0.751-1.17,1.025-1.731c-1.496-0.568-3.561-1.179-6.221-1.579
			C42.077,88.628,38.891,89.075,36.932,89.522z"/>
		<path d="M35.663,85.65c0.251,0.879,0.51,1.709,0.774,2.485c2.214-0.44,5.302-0.734,8.813-0.144c3.055,0.51,5.42,1.305,7.119,2.033
			c0.461-1.107,0.672-2.004,0.735-2.321c-1.722-0.813-4.33-1.774-7.854-2.364C41.309,84.675,37.9,85.127,35.663,85.65z"/>
		<path d="M84.705,89.086c-3.955-0.058-7.287,0.678-9.463,1.338c0.16,0.678,0.357,1.347,0.596,1.955
			c2.176-0.633,5.357-1.289,9.105-1.235c0.898,0.014,1.742,0.052,2.527,0.11c0.262-0.604,0.51-1.269,0.742-1.976
			C87.156,89.176,85.99,89.104,84.705,89.086z"/>
		<path d="M85.041,84.369c-4.691,0.344-8.4,1.727-10.371,2.621c0.063,0.575,0.158,1.304,0.295,2.085
			c1.938-0.891,5.707-2.324,10.496-2.676c1.303-0.096,2.492-0.127,3.566-0.116c0.146-0.664,0.271-1.335,0.379-2.011
			C88.133,84.232,86.68,84.248,85.041,84.369z"/>
		<path d="M47.995,49.255c-0.461-0.627-0.985-1.179-1.626-1.58c-1.316,1.293-2.941,2.663-4.912,3.943
			c-3.125,2.029-5.514,3.034-7.248,3.56c-0.38,1.144-0.671,2.383-0.891,3.686c2.025-0.671,5.069-1.94,8.886-4.42
			C44.788,52.766,46.663,50.9,47.995,49.255z"/>
		<path d="M51.777,54.31c-0.893-0.533-1.545-1.441-2.154-2.442c-1.557,2.111-3.757,4.417-6.75,6.175
			c-4.769,2.806-8.021,3.691-9.947,4.029c-0.102,1.305-0.149,2.649-0.142,4.021c2.121-0.315,6.045-1.172,11.283-4.25
			C48.042,59.505,50.422,56.539,51.777,54.31z"/>
		<path d="M41.939,68.156c8.181-1.707,11.772-0.213,14.367-7.893c1.178-3.485,2.311-5.6,3.201-6.88
			c-1.324,0.303-2.732,0.681-4.234,1.143c-0.159,0.05-0.305,0.08-0.455,0.115c-0.734,1.147-1.594,2.82-2.479,5.271
			c-2.425,6.716-5.784,5.409-13.433,6.903c-2.56,0.499-4.523,1.438-6.019,2.467c0.073,1.255,0.18,2.515,0.319,3.768
			C34.852,71.219,37.605,69.063,41.939,68.156z"/>
		<path d="M49.721,75.428c7.094,0,16.359-1.848,16.753-10.061c0.264-5.533,2.139-10.311,3.334-12.847
			c-1.201-0.123-2.5-0.155-3.914-0.079c-1.119,2.22-3.031,6.712-3.293,11.948c-0.373,7.464-8.21,8.396-14.926,8.396
			c-4.077,0-9.592,4.257-13.299,7.605c0.279,1.351,0.583,2.646,0.906,3.874C38.841,80.738,44.982,75.428,49.721,75.428z"/>
		<path d="M59.99,86.777c-0.936-2.238,0.186-6.155,7.275-7.462c7.088-1.306,11.008-7.462,11.193-14.553
			c0.098-3.676,0.846-6.541,1.545-8.456c-1.277-0.793-2.58-1.531-3.992-2.149c-0.787,1.789-1.91,5.107-2.029,9.673
			c-0.188,7.091-4.105,13.246-11.195,14.553c-7.089,1.307-8.209,5.223-7.275,7.462c0.369,0.891,1.301,1.926,2.289,2.853
			c1.135,0.172,2.443,0.3,3.861,0.333C60.922,88.271,60.281,87.48,59.99,86.777z"/>
		<path d="M78.662,82.83c5.51-0.416,9.357-4.083,11.047-9.011c-0.184-3.323-0.705-6.951-2.01-9.984
			c-0.514,1.451-0.982,3.219-1.26,5.283c-0.877,6.564-5.129,11.893-11.842,12.4s-8.145,4.035-7.5,6.208
			c0.08,0.271,0.211,0.561,0.377,0.86c1.457-0.25,2.631-0.555,3.566-0.87C71.232,85.661,73.193,83.246,78.662,82.83z"/>
	</g>
	<radialGradient id="SVGID_11_" cx="47.0527" cy="25.7715" r="22.772" gradientUnits="userSpaceOnUse">
		<stop  offset="0.2865" style="stop-color:#909090"/>
		<stop  offset="0.6124" style="stop-color:#E3E3E3"/>
		<stop  offset="1" style="stop-color:#E3E3E3"/>
	</radialGradient>
	<path fill="url(#SVGID_11_)" d="M45.22,26.959c2.487,1.741,10.198-0.498,12.935-4.478c2.736-3.98,4.104-13.728,1.244-15.174
		c-2.859-1.448-12.189,4.229-14.179,8.209C43.229,19.497,42.732,25.217,45.22,26.959z"/>
	<path d="M46.371,26.095c1.865,1.308,7.65-0.374,9.704-3.358c2.051-2.987,3.078-10.298,0.934-11.383
		c-2.147-1.086-9.146,3.172-10.637,6.158C44.876,20.496,44.504,24.789,46.371,26.095z"/>
	<radialGradient id="SVGID_12_" cx="26.1572" cy="22.7852" r="16.0541" gradientUnits="userSpaceOnUse">
		<stop  offset="0.2865" style="stop-color:#909090"/>
		<stop  offset="0.6124" style="stop-color:#E3E3E3"/>
		<stop  offset="1" style="stop-color:#E3E3E3"/>
	</radialGradient>
	<path fill="url(#SVGID_12_)" d="M25.941,26.68c-2.924,0.667-9.171-4.329-10.213-9.044c-1.042-4.716,1.298-14.242,4.456-14.494
		c3.157-0.252,9.62,8.531,9.977,12.964C30.519,20.539,28.865,26.015,25.941,26.68z"/>
	<path d="M25.204,25.445c-2.193,0.5-6.88-3.248-7.662-6.786c-0.782-3.537,0.975-10.683,3.343-10.872
		c2.369-0.189,7.217,6.401,7.485,9.726C28.638,20.838,27.398,24.946,25.204,25.445z"/>
	<g>
		<radialGradient id="SVGID_13_" cx="19.9395" cy="57.1143" r="30.0262" gradientUnits="userSpaceOnUse">
			<stop  offset="0.2528" style="stop-color:#000000"/>
			<stop  offset="0.3371" style="stop-color:#909090"/>
			<stop  offset="0.6124" style="stop-color:#E3E3E3"/>
			<stop  offset="1" style="stop-color:#E3E3E3"/>
		</radialGradient>
		<path fill="url(#SVGID_13_)" d="M9.174,39.795C8.32,41.898,7.301,43.324,6.46,44.96c1.362-0.185,2.913-0.359,4.538-0.477
			c5.147-0.377,11.028-0.181,13.96,2.099c4.112,3.197,6.911,10.7,2.075,15.858c2.486-0.455,5.052-1.157,7.592-2.082
			c-0.314-4.371-1.401-10.844-4.936-14.958C26.023,41.135,15.969,40.035,9.174,39.795z"/>
		<radialGradient id="SVGID_14_" cx="19.939" cy="57.1162" r="30.0256" gradientUnits="userSpaceOnUse">
			<stop  offset="0.2528" style="stop-color:#000000"/>
			<stop  offset="0.3371" style="stop-color:#909090"/>
			<stop  offset="0.6124" style="stop-color:#E3E3E3"/>
			<stop  offset="1" style="stop-color:#E3E3E3"/>
		</radialGradient>
		<path fill="url(#SVGID_14_)" d="M13.38,28.672c-3.478,3.405-3.048,4.528-3.129,6.652c5.663,0.337,19.173,1.682,23.669,6.913
			c3.694,4.299,4.799,11.593,5.118,16.255c0.859-0.416,1.711-0.847,2.542-1.315c0.449-0.252,0.888-0.513,1.321-0.778
			c-1.354-3.931-1.286-10.01-6.865-18.815C30.581,28.977,18.841,28.421,13.38,28.672z"/>
		<radialGradient id="SVGID_15_" cx="19.937" cy="57.1143" r="30.0271" gradientUnits="userSpaceOnUse">
			<stop  offset="0.2528" style="stop-color:#000000"/>
			<stop  offset="0.3371" style="stop-color:#909090"/>
			<stop  offset="0.6124" style="stop-color:#E3E3E3"/>
			<stop  offset="1" style="stop-color:#E3E3E3"/>
		</radialGradient>
		<path fill="url(#SVGID_15_)" d="M47.154,28.845c4.16,7.754,4.587,13.362,5.186,17.436c1.523-3.649,1.816-8.012,0.325-13.273
			c-2.664-9.399-10.822-12.647-16.903-13.183C40.223,21.384,44.613,24.109,47.154,28.845z"/>
		<radialGradient id="SVGID_16_" cx="19.939" cy="57.1133" r="30.0259" gradientUnits="userSpaceOnUse">
			<stop  offset="0.2528" style="stop-color:#000000"/>
			<stop  offset="0.3371" style="stop-color:#909090"/>
			<stop  offset="0.6124" style="stop-color:#E3E3E3"/>
			<stop  offset="1" style="stop-color:#E3E3E3"/>
		</radialGradient>
		<path fill="url(#SVGID_16_)" d="M48.792,51.688c-0.855-4.174-0.687-10.261-5.486-19.208c-4.191-7.811-13.409-10.154-19.676-10.818
			c-1.929,0.727-3.99,1.758-5.895,3.214c5.779-0.13,16.541,0.814,21.694,8.945c6.094,9.616,5.451,15.986,7.281,19.848
			C47.452,53.041,48.146,52.382,48.792,51.688z"/>
		<linearGradient id="SVGID_17_" gradientUnits="userSpaceOnUse" x1="17.7471" y1="62.7588" x2="17.0008" y2="46.7145">
			<stop  offset="0" style="stop-color:#000000"/>
			<stop  offset="1" style="stop-color:#191919"/>
		</linearGradient>
		<path fill="url(#SVGID_17_)" d="M24.958,46.583c-2.932-2.28-8.813-2.476-13.96-2.099c-1.625,0.117-3.176,0.292-4.538,0.477
			c-0.57,1.107-1.06,2.313-1.355,3.902c-0.717,3.851,2.367,9.539,6.127,12.046c3.423,2.28,9.338,2.721,15.801,1.533
			C31.869,57.283,29.07,49.78,24.958,46.583z"/>
		<g>
			<linearGradient id="SVGID_18_" gradientUnits="userSpaceOnUse" x1="16.7788" y1="56.4336" x2="16.7788" y2="45.9306">
				<stop  offset="0" style="stop-color:#000000"/>
				<stop  offset="1" style="stop-color:#909090"/>
			</linearGradient>
			<path fill="url(#SVGID_18_)" d="M11.707,50.033c4.211-0.01,8.998-0.147,11.388,1.714c1.642,1.274,3.023,3.392,3.549,5.715
				c0.902-3.637-1.017-7.603-3.549-9.571c-2.391-1.86-7.188-2.019-11.388-1.712c-1.325,0.095-2.792,0.615-3.969,1.578
				c-1.674,1.369-0.914,3.91-0.636,4.955C7.34,51.835,9.108,50.039,11.707,50.033z"/>
		</g>
		<path d="M10.251,35.324c-0.026,0.694-0.107,1.494-0.4,2.519c-0.207,0.723-0.436,1.36-0.677,1.953
			c6.795,0.239,16.85,1.34,20.515,5.606c3.535,4.114,4.622,10.586,4.936,14.958c1.49-0.543,2.966-1.17,4.413-1.867
			c-0.319-4.662-1.424-11.956-5.118-16.255C29.424,37.006,15.914,35.662,10.251,35.324z"/>
		<path d="M17.735,24.875c-0.181,0.139-0.362,0.28-0.54,0.428c-1.628,1.341-2.865,2.438-3.815,3.369
			c5.46-0.25,17.2,0.305,22.656,8.912c5.579,8.805,5.511,14.884,6.865,18.815c1.362-0.837,2.641-1.742,3.809-2.73
			c-1.83-3.862-1.187-10.232-7.281-19.848C34.276,25.689,23.515,24.745,17.735,24.875z"/>
		<path d="M43.306,32.479c4.799,8.947,4.63,15.035,5.486,19.208c1.493-1.606,2.708-3.397,3.548-5.406
			c-0.599-4.074-1.025-9.682-5.186-17.436c-2.541-4.736-6.932-7.461-11.392-9.021c-1.684-0.149-3.209-0.09-4.414,0.105
			c0,0-3.55,0.159-7.718,1.731C29.897,22.325,39.115,24.668,43.306,32.479z"/>
	</g>
	<g>
		<g>
			<g>
				<path fill="#FFFFFF" d="M37.135,20.825c5.936,0,10.769,4.837,10.769,10.772c0,5.941-4.833,10.774-10.769,10.774
					c-5.943,0-10.774-4.833-10.774-10.774C26.36,25.662,31.192,20.825,37.135,20.825z"/>
				
					<linearGradient id="SVGID_19_" gradientUnits="userSpaceOnUse" x1="8.5591" y1="31.5981" x2="32.0166" y2="31.5981" gradientTransform="matrix(-1 0 0 1 57.4189 0)">
					<stop  offset="0" style="stop-color:#272C34"/>
					<stop  offset="1" style="stop-color:#292933"/>
				</linearGradient>
				<path fill="url(#SVGID_19_)" d="M25.402,31.598c0,6.468,5.259,11.73,11.732,11.73c6.467,0,11.725-5.262,11.725-11.73
					c0-6.466-5.258-11.729-11.725-11.729C30.662,19.869,25.402,25.132,25.402,31.598z M26.36,31.598
					c0-5.936,4.832-10.772,10.774-10.772c5.936,0,10.769,4.837,10.769,10.772c0,5.941-4.833,10.774-10.769,10.774
					C31.192,42.372,26.36,37.539,26.36,31.598z"/>
			</g>
			
				<radialGradient id="SVGID_20_" cx="20.2861" cy="31.5981" r="10.9512" gradientTransform="matrix(-1 0 0 1 57.4189 0)" gradientUnits="userSpaceOnUse">
				<stop  offset="0" style="stop-color:#FFFFFF"/>
				<stop  offset="1" style="stop-color:#E5E5E5"/>
			</radialGradient>
			<path fill="url(#SVGID_20_)" d="M26.18,31.598c0,6.05,4.903,10.95,10.955,10.95c6.046,0,10.95-4.9,10.95-10.95
				c0-6.05-4.904-10.949-10.95-10.949C31.083,20.648,26.18,25.548,26.18,31.598z"/>
		</g>
		<g>
			
				<linearGradient id="SVGID_21_" gradientUnits="userSpaceOnUse" x1="14.1646" y1="32.2114" x2="25.1987" y2="32.2114" gradientTransform="matrix(-1 0 0 1 57.4189 0)">
				<stop  offset="0" style="stop-color:#F3AF18"/>
				<stop  offset="1" style="stop-color:#CAA21B"/>
			</linearGradient>
			<circle fill="url(#SVGID_21_)" cx="37.737" cy="32.211" r="5.517"/>
			
				<radialGradient id="SVGID_22_" cx="19.6812" cy="32.2129" r="3.9697" gradientTransform="matrix(-1 0 0 1 57.4189 0)" gradientUnits="userSpaceOnUse">
				<stop  offset="0" style="stop-color:#1F1600"/>
				<stop  offset="1" style="stop-color:#000000"/>
			</radialGradient>
			<circle fill="url(#SVGID_22_)" cx="37.738" cy="32.211" r="3.97"/>
			
				<radialGradient id="SVGID_23_" cx="288.5723" cy="289.2148" r="2.1133" gradientTransform="matrix(-0.6642 -0.4101 -0.5253 0.8509 379.3198 -97.4959)" gradientUnits="userSpaceOnUse">
				<stop  offset="0" style="stop-color:#FFFFFF"/>
				<stop  offset="1" style="stop-color:#E5E5E5"/>
			</radialGradient>
			<path fill="url(#SVGID_23_)" d="M34.323,29.388c-0.614,0.992-0.482,2.185,0.293,2.664c0.776,0.478,1.9,0.058,2.513-0.931
				c0.614-0.996,0.482-2.187-0.293-2.664C36.061,27.976,34.936,28.393,34.323,29.388z"/>
			
				<radialGradient id="SVGID_24_" cx="-211.3384" cy="-130.3809" r="1.1099" gradientTransform="matrix(-0.6444 0.4405 0.5644 0.8255 -22.0567 235.8591)" gradientUnits="userSpaceOnUse">
				<stop  offset="0" style="stop-color:#FFFFFF"/>
				<stop  offset="1" style="stop-color:#E5E5E5"/>
			</radialGradient>
			<path fill="url(#SVGID_24_)" d="M39.828,35.625c0.347,0.506,0.947,0.697,1.341,0.425c0.398-0.27,0.437-0.897,0.089-1.405
				c-0.345-0.506-0.946-0.699-1.341-0.426C39.52,34.489,39.483,35.117,39.828,35.625z"/>
			
				<radialGradient id="SVGID_25_" cx="-151.7754" cy="-308.7729" r="1.1108" gradientTransform="matrix(-0.478 0.3268 0.4186 0.6124 95.2145 274.4133)" gradientUnits="userSpaceOnUse">
				<stop  offset="0" style="stop-color:#FFFFFF"/>
				<stop  offset="1" style="stop-color:#E5E5E5"/>
			</radialGradient>
			<path fill="url(#SVGID_25_)" d="M37.978,36.081c0.258,0.378,0.704,0.519,0.999,0.319c0.292-0.201,0.321-0.667,0.065-1.042
				c-0.257-0.375-0.702-0.519-0.994-0.318C37.754,35.238,37.723,35.707,37.978,36.081z"/>
		</g>
		<g>
			<g>
				<path fill="#FFFFFF" d="M15.677,23.395c4.521,0,8.201,3.683,8.201,8.203c0,4.523-3.68,8.204-8.201,8.204
					c-4.523,0-8.203-3.681-8.203-8.204C7.475,27.078,11.154,23.395,15.677,23.395z"/>
				
					<linearGradient id="SVGID_26_" gradientUnits="userSpaceOnUse" x1="32.8125" y1="31.5986" x2="50.6738" y2="31.5986" gradientTransform="matrix(-1 0 0 1 57.4189 0)">
					<stop  offset="0" style="stop-color:#272C34"/>
					<stop  offset="1" style="stop-color:#292933"/>
				</linearGradient>
				<path fill="url(#SVGID_26_)" d="M6.745,31.598c0,4.925,4.006,8.932,8.932,8.932c4.924,0,8.929-4.006,8.929-8.932
					c0-4.923-4.005-8.93-8.929-8.93C10.751,22.668,6.745,26.674,6.745,31.598z M7.475,31.598c0-4.52,3.679-8.203,8.203-8.203
					c4.521,0,8.201,3.683,8.201,8.203c0,4.523-3.68,8.204-8.201,8.204C11.154,39.801,7.475,36.121,7.475,31.598z"/>
			</g>
			
				<radialGradient id="SVGID_27_" cx="41.7422" cy="31.5986" r="8.3384" gradientTransform="matrix(-1 0 0 1 57.4189 0)" gradientUnits="userSpaceOnUse">
				<stop  offset="0" style="stop-color:#FFFFFF"/>
				<stop  offset="1" style="stop-color:#E5E5E5"/>
			</radialGradient>
			<circle fill="url(#SVGID_27_)" cx="15.677" cy="31.598" r="8.339"/>
		</g>
		<g>
			
				<linearGradient id="SVGID_28_" gradientUnits="userSpaceOnUse" x1="36.0493" y1="31.8652" x2="47.1045" y2="31.8652" gradientTransform="matrix(-1 0 0 1 57.4189 0)">
				<stop  offset="0" style="stop-color:#F3AF18"/>
				<stop  offset="1" style="stop-color:#CAA21B"/>
			</linearGradient>
			<path fill="url(#SVGID_28_)" d="M10.314,31.864c0,3.056,2.476,5.528,5.529,5.528c3.051,0,5.526-2.473,5.526-5.528
				c0-3.05-2.476-5.525-5.526-5.525C12.79,26.339,10.314,28.814,10.314,31.864z"/>
			
				<radialGradient id="SVGID_29_" cx="41.5771" cy="31.8662" r="3.9766" gradientTransform="matrix(-1 0 0 1 57.4189 0)" gradientUnits="userSpaceOnUse">
				<stop  offset="0" style="stop-color:#1F1600"/>
				<stop  offset="1" style="stop-color:#000000"/>
			</radialGradient>
			<path fill="url(#SVGID_29_)" d="M11.866,31.864c0,2.199,1.781,3.979,3.978,3.979c2.193,0,3.975-1.781,3.975-3.979
				c0-2.194-1.781-3.975-3.975-3.975C13.646,27.889,11.866,29.669,11.866,31.864z"/>
			
				<radialGradient id="SVGID_30_" cx="312.6797" cy="300.4219" r="2.1177" gradientTransform="matrix(-0.6642 -0.4101 -0.5253 0.8509 379.3198 -97.4959)" gradientUnits="userSpaceOnUse">
				<stop  offset="0" style="stop-color:#FFFFFF"/>
				<stop  offset="1" style="stop-color:#E5E5E5"/>
			</radialGradient>
			<path fill="url(#SVGID_30_)" d="M12.421,29.034c-0.615,0.994-0.483,2.191,0.293,2.671c0.778,0.479,1.904,0.058,2.518-0.932
				c0.616-0.998,0.482-2.192-0.293-2.67C14.163,27.622,13.034,28.04,12.421,29.034z"/>
			
				<radialGradient id="SVGID_31_" cx="-188.4355" cy="-143.0166" r="1.1113" gradientTransform="matrix(-0.6444 0.4405 0.5644 0.8255 -22.0567 235.8591)" gradientUnits="userSpaceOnUse">
				<stop  offset="0" style="stop-color:#FFFFFF"/>
				<stop  offset="1" style="stop-color:#E5E5E5"/>
			</radialGradient>
			<path fill="url(#SVGID_31_)" d="M17.937,35.284c0.346,0.508,0.948,0.699,1.343,0.425c0.397-0.269,0.436-0.897,0.089-1.406
				c-0.346-0.506-0.948-0.701-1.344-0.427C17.629,34.144,17.589,34.776,17.937,35.284z"/>
			
				<radialGradient id="SVGID_32_" cx="-120.8916" cy="-325.8096" r="1.1133" gradientTransform="matrix(-0.478 0.3268 0.4186 0.6124 95.2145 274.4133)" gradientUnits="userSpaceOnUse">
				<stop  offset="0" style="stop-color:#FFFFFF"/>
				<stop  offset="1" style="stop-color:#E5E5E5"/>
			</radialGradient>
			<path fill="url(#SVGID_32_)" d="M16.084,35.744c0.258,0.377,0.703,0.517,0.999,0.317c0.293-0.202,0.323-0.669,0.065-1.045
				c-0.258-0.377-0.705-0.519-0.996-0.318C15.858,34.897,15.827,35.367,16.084,35.744z"/>
		</g>
	</g>
</g>
</svg>
