<?xml version="1.0" encoding="utf-8"?>
<!-- Generator: Adobe Illustrator 14.0.0, SVG Export Plug-In . SVG Version: 6.00 Build 43363)  -->
<!DOCTYPE svg PUBLIC "-//W3C//DTD SVG 1.1//EN" "http://www.w3.org/Graphics/SVG/1.1/DTD/svg11.dtd">
<svg version="1.1" id="图层_1" xmlns="http://www.w3.org/2000/svg" xmlns:xlink="http://www.w3.org/1999/xlink" x="0px" y="0px"
	 width="100px" height="100px" viewBox="0 0 100 100" enable-background="new 0 0 100 100" xml:space="preserve">
<g>
	<g>
		<path fill="none" d="M65.72,94.188c0.021-0.254,0.068-0.479,0.15-0.676c-0.141-0.036-0.257,0.02-0.371,0.155
			C65.637,93.776,65.7,93.953,65.72,94.188z"/>
		<path fill="none" d="M52.148,93.735c0.065-0.107,0.18-0.194,0.349-0.248c-0.349-0.814-0.376-1.432-0.376-1.432
			s0.051,0.661-0.222,1.465C51.987,93.567,52.071,93.633,52.148,93.735z"/>
		
			<radialGradient id="SVGID_1_" cx="36.2261" cy="84.5967" r="20.3289" gradientTransform="matrix(1.1251 -0.0734 0.0858 1.035 4.1326 6.0357)" gradientUnits="userSpaceOnUse">
			<stop  offset="0.0169" style="stop-color:#763100"/>
			<stop  offset="1" style="stop-color:#BE7B00"/>
		</radialGradient>
		<path fill="url(#SVGID_1_)" d="M64.398,70.105c-8.362,1.482-6.266-12.904-14.111-10.563c-5.571,1.664-10.28,16.217-11.975,18.747
			c-2.914,4.351-0.003,11.801,3.886,15.652c1.147,0.179,3.105,0.415,5.307,0.4c2.515-0.019,3.684-1.192,4.394-0.821
			c0.272-0.804,0.222-1.465,0.222-1.465s0.027,0.617,0.376,1.432c0.292-0.091,0.752-0.09,1.473,0.08
			c3.341,0.786,8.35,0.61,10.488,0.071c0.532-0.139,0.854-0.118,1.041,0.028c0.114-0.136,0.23-0.191,0.371-0.155
			c0.514-1.213,2.135-1.444,3.959-2.189c1.498-0.616,2.78-0.863,3.617-0.967c0.706-0.956,1.171-2.243,2.037-3.642
			C81.899,76.347,72.759,68.622,64.398,70.105z"/>
		
			<radialGradient id="SVGID_2_" cx="70.1113" cy="92.1455" r="2.6904" gradientTransform="matrix(1.1281 0 0 1 -9.4336 0)" gradientUnits="userSpaceOnUse">
			<stop  offset="0" style="stop-color:#140300"/>
			<stop  offset="1" style="stop-color:#3F1C00"/>
		</radialGradient>
		<path fill="url(#SVGID_2_)" d="M65.87,93.512c0.044,0.011,0.088,0.02,0.136,0.05c0.939,0.596,4.336,1.025,7.44-3.206
			c-0.837,0.104-2.119,0.351-3.617,0.967C68.005,92.067,66.384,92.299,65.87,93.512z"/>
		
			<radialGradient id="SVGID_3_" cx="60.6611" cy="95.3574" r="4.2974" gradientTransform="matrix(1.1281 0 0 1 -9.4336 0)" gradientUnits="userSpaceOnUse">
			<stop  offset="0" style="stop-color:#140300"/>
			<stop  offset="1" style="stop-color:#3F1C00"/>
		</radialGradient>
		<path fill="url(#SVGID_3_)" d="M58.886,97.242c5.396,0.468,5.957-2.774,6.613-3.575c-0.187-0.146-0.509-0.167-1.041-0.028
			c-2.139,0.539-7.147,0.715-10.488-0.071c-0.721-0.17-1.181-0.171-1.473-0.08C53.108,94.891,54.701,96.876,58.886,97.242z"/>
		<path fill="#351FFF" d="M65.72,94.188c-0.009,0.138-0.013,0.286-0.002,0.443C65.725,94.466,65.729,94.316,65.72,94.188z"/>
		
			<radialGradient id="SVGID_4_" cx="50.0684" cy="94.9277" r="3.2154" gradientTransform="matrix(1.1281 0 0 1 -9.4336 0)" gradientUnits="userSpaceOnUse">
			<stop  offset="0" style="stop-color:#140300"/>
			<stop  offset="1" style="stop-color:#3F1C00"/>
		</radialGradient>
		<path fill="url(#SVGID_4_)" d="M47.023,96.406c3.291-0.091,4.459-1.656,4.876-2.886c-0.71-0.371-1.879,0.803-4.394,0.821
			c-2.202,0.015-4.16-0.222-5.307-0.4C43.753,95.486,45.466,96.45,47.023,96.406z"/>
	</g>
	
		<radialGradient id="SVGID_5_" cx="54.9775" cy="61.9521" r="16.3978" gradientTransform="matrix(1.1281 0 0 1 -9.4336 0)" gradientUnits="userSpaceOnUse">
		<stop  offset="0" style="stop-color:#894700"/>
		<stop  offset="1" style="stop-color:#5F3600"/>
	</radialGradient>
	<path fill="url(#SVGID_5_)" d="M45.061,61.673c0,0-1.253,2.779,0,4.446c1.256,1.669-2.195,5.282-0.313,5.559
		c1.882,0.28,5.331,3.059,3.762,5.283c-1.567,2.223,0.941,4.445,2.51,4.169c1.568-0.28-0.941,5.002,0.94,5.28
		c1.883,0.276,2.508-3.892,4.076-5.004c1.568-1.11,2.195-6.115,0.627-7.503c-1.567-1.39-2.508-2.226-0.315-4.171
		c2.196-1.944,4.392-3.058,2.196-5.28c-2.196-2.224-1.565-4.168-1.565-4.168L45.061,61.673z"/>
	
		<radialGradient id="SVGID_6_" cx="35.9316" cy="37.5308" r="13.2899" gradientTransform="matrix(1.1281 0 0 1 -9.4336 0)" gradientUnits="userSpaceOnUse">
		<stop  offset="0" style="stop-color:#1F0F00"/>
		<stop  offset="1" style="stop-color:#5F3D00"/>
	</radialGradient>
	<path fill="url(#SVGID_6_)" d="M47.884,38.417c0,0-7.944-4.446-5.018-17.787S49.137,3.954,45.375,2.1
		c-3.763-1.853-6.69,4.446-6.69,9.636c0,5.188-5.435,7.782-8.779,3.705c-3.344-4.076-1.255-9.265-5.436-9.265
		c-4.18,0-2.508,15.193,4.599,15.936c7.108,0.741,9.197,5.188,6.69,8.896c-2.509,3.705-8.779-4.078-12.542-2.225
		c-3.762,1.853,1.672,7.412,7.943,7.783c6.271,0.371,13.671,5.156,13.671,5.156L47.884,38.417z"/>
	
		<radialGradient id="SVGID_7_" cx="-1385.5552" cy="39.0117" r="13.2907" gradientTransform="matrix(-0.8563 0 0 1 -1118.3607 0)" gradientUnits="userSpaceOnUse">
		<stop  offset="0" style="stop-color:#1F0F00"/>
		<stop  offset="1" style="stop-color:#5F3D00"/>
	</radialGradient>
	<path fill="url(#SVGID_7_)" d="M55.408,39.9c0,0,6.032-4.449,3.81-17.789C56.995,8.77,54.456,5.436,57.313,3.582
		c2.854-1.854,5.077,4.446,5.077,9.635s4.128,7.783,6.667,3.706c2.54-4.077,0.95-9.266,4.126-9.266
		c3.173,0,1.904,15.194-3.494,15.936c-5.392,0.742-6.982,5.188-5.075,8.896c1.904,3.706,6.666-4.077,9.521-2.224
		c2.855,1.852-1.271,7.412-6.029,7.782c-4.762,0.37-10.381,5.156-10.381,5.156L55.408,39.9z"/>
	<g>
		
			<radialGradient id="SVGID_8_" cx="53.4717" cy="43.1162" r="20.3336" gradientTransform="matrix(1.1281 0 0 1 -9.4336 0)" gradientUnits="userSpaceOnUse">
			<stop  offset="0.2865" style="stop-color:#BF7400"/>
			<stop  offset="1" style="stop-color:#DF8800"/>
		</radialGradient>
		<path fill="url(#SVGID_8_)" d="M32.597,67.299c3.101-1.571,9.8-4.508,11.914-4.446c4.891,0.139,7.03,4.383,16.306-1.946
			c9.277-6.329-6.585-23.903-13.17-24.183c-6.584-0.277-7.958,12.287-7.958,12.287l0.038,0.068c-7.635,2.308-18.87,6.156-20.085,14
			C19.209,65.385,21.623,72.858,32.597,67.299z"/>
	</g>
	<path fill="#EDA900" d="M31.312,53.713c1.41,1.25-2.525,1.26-5.047,4.056c-2.522,2.794-3.312,7.127-4.573,6.709
		c-1.261-0.419,0.473-3.775,2.366-6.291C25.95,55.67,30.837,53.296,31.312,53.713z"/>
	<g>
		<g>
			<g>
				<path fill="#FFFFFF" d="M58.706,37.571c4.987,0,9.052,3.604,9.052,8.023c0,4.427-4.064,8.025-9.052,8.025
					c-4.992,0-9.051-3.599-9.051-8.025C49.655,41.175,53.714,37.571,58.706,37.571z"/>
				
					<linearGradient id="SVGID_9_" gradientUnits="userSpaceOnUse" x1="-11.1416" y1="45.5967" x2="8.5703" y2="45.5967" gradientTransform="matrix(-1 0 0 1 57.4189 0)">
					<stop  offset="0" style="stop-color:#272C34"/>
					<stop  offset="1" style="stop-color:#292933"/>
				</linearGradient>
				<path fill="url(#SVGID_9_)" d="M48.849,45.595c0,4.819,4.42,8.738,9.857,8.738c5.436,0,9.854-3.919,9.854-8.738
					c0-4.816-4.419-8.734-9.854-8.734C53.269,36.86,48.849,40.779,48.849,45.595z M49.655,45.595c0-4.419,4.059-8.023,9.051-8.023
					c4.987,0,9.052,3.604,9.052,8.023c0,4.427-4.064,8.025-9.052,8.025C53.714,53.62,49.655,50.021,49.655,45.595z"/>
			</g>
			
				<radialGradient id="SVGID_10_" cx="-2.9824" cy="45.5962" r="8.1567" gradientTransform="matrix(-1.1281 0 0 1 55.3408 0)" gradientUnits="userSpaceOnUse">
				<stop  offset="0" style="stop-color:#FFFFFF"/>
				<stop  offset="1" style="stop-color:#E5E5E5"/>
			</radialGradient>
			<path fill="url(#SVGID_10_)" d="M49.503,45.595c0,4.508,4.118,8.157,9.203,8.157c5.082,0,9.202-3.649,9.202-8.157
				c0-4.505-4.12-8.154-9.202-8.154C53.621,37.44,49.503,41.09,49.503,45.595z"/>
		</g>
		<g>
			
				<linearGradient id="SVGID_11_" gradientUnits="userSpaceOnUse" x1="-5.7002" y1="46.001" x2="3.5732" y2="46.001" gradientTransform="matrix(-1 0 0 1 57.4189 0)">
				<stop  offset="0" style="stop-color:#F3AF18"/>
				<stop  offset="1" style="stop-color:#CAA21B"/>
			</linearGradient>
			<ellipse fill="url(#SVGID_11_)" cx="58.482" cy="46.003" rx="4.637" ry="4.107"/>
			
				<radialGradient id="SVGID_12_" cx="-2.7852" cy="46.002" r="2.957" gradientTransform="matrix(-1.1281 0 0 1 55.3408 0)" gradientUnits="userSpaceOnUse">
				<stop  offset="0" style="stop-color:#1F1600"/>
				<stop  offset="1" style="stop-color:#000000"/>
			</radialGradient>
			<path fill="url(#SVGID_12_)" d="M55.147,46.003c0,1.63,1.494,2.956,3.336,2.956c1.84,0,3.335-1.325,3.335-2.956
				c0-1.635-1.495-2.958-3.335-2.958C56.642,43.045,55.147,44.368,55.147,46.003z"/>
			
				<radialGradient id="SVGID_13_" cx="253.9063" cy="289.3008" r="1.5742" gradientTransform="matrix(-0.7493 -0.4101 -0.5926 0.8509 418.4782 -97.4959)" gradientUnits="userSpaceOnUse">
				<stop  offset="0" style="stop-color:#FFFFFF"/>
				<stop  offset="1" style="stop-color:#E5E5E5"/>
			</radialGradient>
			<path fill="url(#SVGID_13_)" d="M55.614,43.898c-0.519,0.738-0.407,1.627,0.245,1.986c0.651,0.354,1.597,0.042,2.112-0.694
				c0.517-0.741,0.406-1.63-0.248-1.987C57.072,42.846,56.127,43.157,55.614,43.898z"/>
			
				<radialGradient id="SVGID_14_" cx="-224.9102" cy="-107.3379" r="0.8267" gradientTransform="matrix(-0.7269 0.4405 0.6367 0.8255 -34.3163 235.8591)" gradientUnits="userSpaceOnUse">
				<stop  offset="0" style="stop-color:#FFFFFF"/>
				<stop  offset="1" style="stop-color:#E5E5E5"/>
			</radialGradient>
			<path fill="url(#SVGID_14_)" d="M60.238,48.543c0.291,0.38,0.797,0.52,1.127,0.317c0.333-0.202,0.368-0.668,0.077-1.045
				c-0.291-0.378-0.795-0.522-1.129-0.317C59.981,47.696,59.949,48.165,60.238,48.543z"/>
			
				<radialGradient id="SVGID_15_" cx="-170.959" cy="-277.4819" r="0.8276" gradientTransform="matrix(-0.5392 0.3268 0.4722 0.6124 97.9785 274.4133)" gradientUnits="userSpaceOnUse">
				<stop  offset="0" style="stop-color:#FFFFFF"/>
				<stop  offset="1" style="stop-color:#E5E5E5"/>
			</radialGradient>
			<path fill="url(#SVGID_15_)" d="M58.685,48.884c0.219,0.281,0.592,0.387,0.839,0.236c0.243-0.149,0.269-0.496,0.056-0.776
				c-0.217-0.279-0.592-0.385-0.837-0.237C58.498,48.255,58.468,48.604,58.685,48.884z"/>
		</g>
		<g>
			<g>
				<path fill="#FFFFFF" d="M40.99,40.597c3.798,0,6.891,2.745,6.891,6.111c0,3.369-3.092,6.11-6.891,6.11
					c-3.8,0-6.892-2.741-6.892-6.11C34.098,43.342,37.19,40.597,40.99,40.597z"/>
				
					<linearGradient id="SVGID_16_" gradientUnits="userSpaceOnUse" x1="8.9253" y1="46.7085" x2="23.9336" y2="46.7085" gradientTransform="matrix(-1 0 0 1 57.4189 0)">
					<stop  offset="0" style="stop-color:#272C34"/>
					<stop  offset="1" style="stop-color:#292933"/>
				</linearGradient>
				<path fill="url(#SVGID_16_)" d="M33.485,46.708c0,3.668,3.365,6.652,7.505,6.652c4.138,0,7.503-2.984,7.503-6.652
					c0-3.667-3.366-6.651-7.503-6.651C36.85,40.057,33.485,43.041,33.485,46.708z M34.098,46.708c0-3.366,3.092-6.111,6.892-6.111
					c3.798,0,6.891,2.745,6.891,6.111c0,3.369-3.092,6.11-6.891,6.11C37.19,52.818,34.098,50.077,34.098,46.708z"/>
			</g>
			
				<radialGradient id="SVGID_17_" cx="12.7217" cy="46.708" r="6.2109" gradientTransform="matrix(-1.1281 0 0 1 55.3408 0)" gradientUnits="userSpaceOnUse">
				<stop  offset="0" style="stop-color:#FFFFFF"/>
				<stop  offset="1" style="stop-color:#E5E5E5"/>
			</radialGradient>
			<path fill="url(#SVGID_17_)" d="M33.982,46.708c0,3.433,3.138,6.21,7.008,6.21c3.869,0,7.007-2.777,7.007-6.21
				c0-3.43-3.139-6.21-7.007-6.21C37.12,40.498,33.982,43.278,33.982,46.708z"/>
		</g>
		<g>
			
				<linearGradient id="SVGID_18_" gradientUnits="userSpaceOnUse" x1="11.3325" y1="47.1855" x2="20.6216" y2="47.1855" gradientTransform="matrix(-1 0 0 1 57.4189 0)">
				<stop  offset="0" style="stop-color:#F3AF18"/>
				<stop  offset="1" style="stop-color:#CAA21B"/>
			</linearGradient>
			<ellipse fill="url(#SVGID_18_)" cx="41.442" cy="47.186" rx="4.645" ry="4.117"/>
			
				<radialGradient id="SVGID_19_" cx="12.3203" cy="47.1851" r="2.9617" gradientTransform="matrix(-1.1281 0 0 1 55.3408 0)" gradientUnits="userSpaceOnUse">
				<stop  offset="0" style="stop-color:#1F1600"/>
				<stop  offset="1" style="stop-color:#000000"/>
			</radialGradient>
			<ellipse fill="url(#SVGID_19_)" cx="41.443" cy="47.186" rx="3.341" ry="2.961"/>
			
				<radialGradient id="SVGID_20_" cx="269.5801" cy="298.2432" r="1.5762" gradientTransform="matrix(-0.7493 -0.4101 -0.5926 0.8509 418.4782 -97.4959)" gradientUnits="userSpaceOnUse">
				<stop  offset="0" style="stop-color:#FFFFFF"/>
				<stop  offset="1" style="stop-color:#E5E5E5"/>
			</radialGradient>
			<path fill="url(#SVGID_20_)" d="M38.569,45.076c-0.519,0.742-0.408,1.632,0.244,1.989c0.654,0.359,1.602,0.043,2.117-0.693
				c0.518-0.746,0.407-1.632-0.248-1.989C40.031,44.023,39.084,44.337,38.569,45.076z"/>
			
				<radialGradient id="SVGID_21_" cx="-208.0815" cy="-114.8789" r="0.8281" gradientTransform="matrix(-0.7269 0.4405 0.6367 0.8255 -34.3163 235.8591)" gradientUnits="userSpaceOnUse">
				<stop  offset="0" style="stop-color:#FFFFFF"/>
				<stop  offset="1" style="stop-color:#E5E5E5"/>
			</radialGradient>
			<path fill="url(#SVGID_21_)" d="M43.203,49.732c0.291,0.378,0.796,0.521,1.129,0.317c0.333-0.201,0.365-0.67,0.076-1.048
				c-0.292-0.377-0.797-0.522-1.129-0.318C42.944,48.884,42.911,49.353,43.203,49.732z"/>
			
				<radialGradient id="SVGID_22_" cx="-148.2666" cy="-287.6514" r="0.8293" gradientTransform="matrix(-0.5392 0.3268 0.4722 0.6124 97.9785 274.4133)" gradientUnits="userSpaceOnUse">
				<stop  offset="0" style="stop-color:#FFFFFF"/>
				<stop  offset="1" style="stop-color:#E5E5E5"/>
			</radialGradient>
			<path fill="url(#SVGID_22_)" d="M41.646,50.074c0.216,0.282,0.589,0.384,0.838,0.236c0.246-0.151,0.271-0.499,0.057-0.777
				c-0.219-0.281-0.593-0.389-0.839-0.238C41.456,49.445,41.43,49.792,41.646,50.074z"/>
		</g>
	</g>
</g>
</svg>
