<?xml version="1.0" encoding="utf-8"?>
<!-- Generator: Adobe Illustrator 14.0.0, SVG Export Plug-In . SVG Version: 6.00 Build 43363)  -->
<!DOCTYPE svg PUBLIC "-//W3C//DTD SVG 1.1//EN" "http://www.w3.org/Graphics/SVG/1.1/DTD/svg11.dtd">
<svg version="1.1" id="图层_1" xmlns="http://www.w3.org/2000/svg" xmlns:xlink="http://www.w3.org/1999/xlink" x="0px" y="0px"
	 width="50px" height="50px" viewBox="0 0 50 50" enable-background="new 0 0 50 50" xml:space="preserve">
<g>
	
		<linearGradient id="SVGID_1_" gradientUnits="userSpaceOnUse" x1="-153.8242" y1="62.1094" x2="-154.3878" y2="63.8004" gradientTransform="matrix(0.9529 0 0 0.9529 184.2837 -39.8252)">
		<stop  offset="0" style="stop-color:#929497"/>
		<stop  offset="1" style="stop-color:#58595B"/>
	</linearGradient>
	<path fill="url(#SVGID_1_)" d="M35.842,21.532c0,0,1.759-1.271,2.101-1.074c0.341,0.194,0.048,1.464,0.048,1.464L35.842,21.532z"/>
	
		<linearGradient id="SVGID_2_" gradientUnits="userSpaceOnUse" x1="-153.75" y1="71.873" x2="-151.9549" y2="71.873" gradientTransform="matrix(0.9529 0 0 0.9529 184.2837 -39.8252)">
		<stop  offset="0" style="stop-color:#929497"/>
		<stop  offset="1" style="stop-color:#58595B"/>
	</linearGradient>
	<path fill="url(#SVGID_2_)" d="M37.743,29.496c0,0,0.891,0.223,1.446-0.221c0.556-0.445,0.111-1.502,0.111-1.502L37.743,29.496z"/>
	
		<linearGradient id="SVGID_3_" gradientUnits="userSpaceOnUse" x1="-179.2969" y1="80.6523" x2="-172.2383" y2="80.6523" gradientTransform="matrix(0.9529 0 0 0.9529 184.2837 -39.8252)">
		<stop  offset="0" style="stop-color:#929497"/>
		<stop  offset="1" style="stop-color:#58595B"/>
	</linearGradient>
	<path fill="url(#SVGID_3_)" d="M16.346,35.555c0,0-2.223,1.445-2.947,2.945c0,0,4.391-2.389,6.726-2.443
		C20.125,36.057,17.625,35.555,16.346,35.555z"/>
	
		<linearGradient id="SVGID_4_" gradientUnits="userSpaceOnUse" x1="-165.0381" y1="58.5986" x2="-166.8484" y2="62.7559" gradientTransform="matrix(0.9529 0 0 0.9529 184.2837 -39.8252)">
		<stop  offset="0" style="stop-color:#929497"/>
		<stop  offset="1" style="stop-color:#58595B"/>
	</linearGradient>
	<path fill="url(#SVGID_4_)" d="M22.513,19.292c0,0,4.09-4.729,7.603-4.026c0,0-2.911,3.048-2.443,5.36
		c0.016,0.078,0.035,0.154,0.06,0.23C28.454,23.189,22.513,19.292,22.513,19.292z"/>
	
		<radialGradient id="SVGID_5_" cx="-181.4038" cy="72.6914" r="4.8101" gradientTransform="matrix(0.9529 0 0 0.9529 184.2837 -39.8252)" gradientUnits="userSpaceOnUse">
		<stop  offset="0" style="stop-color:#EC1C24"/>
		<stop  offset="0.1766" style="stop-color:#E71B22"/>
		<stop  offset="0.3945" style="stop-color:#D8171D"/>
		<stop  offset="0.6341" style="stop-color:#BF1015"/>
		<stop  offset="0.8876" style="stop-color:#9C080A"/>
		<stop  offset="1" style="stop-color:#8A0304"/>
	</radialGradient>
	<path fill="url(#SVGID_5_)" d="M13.827,28.676c0,0-3.686,4.941-2.565,6.139c1.753-0.072,4.923-1.309,4.923-1.309l2.434-2.164
		L13.827,28.676z"/>
	
		<radialGradient id="SVGID_6_" cx="-167.2168" cy="52.2266" r="18.5553" gradientTransform="matrix(0.9529 0 0 0.9529 184.2837 -39.8252)" gradientUnits="userSpaceOnUse">
		<stop  offset="0" style="stop-color:#929497"/>
		<stop  offset="1" style="stop-color:#58595B"/>
	</radialGradient>
	<path fill="url(#SVGID_6_)" d="M43.23,21.069c-0.171-2.056,0.542-4.76,1.081-6.92l-1.034-0.479l1.397-0.766
		c0.537-1.604,1.345-3.181,2.508-4.67c0,0-3.36,1.48-5.977,4.164c-2.429,2.493-1.329,9.007-1.329,9.007S29.7,21.523,21.199,18.051
		c-10.32-4.214-19.692-9.197-19.396-4.909c0.239,3.473,4.43,11.973,6.346,13.29c1.915,1.318,8.095,3.1,7.902,3.832
		c-0.599,2.275-5.389,3.953-4.79,4.551c0.599,0.6,18.679,7.303,29.693-8.861c0,0,4.404,5.501,8.559,5.449
		C45.101,27.039,44.321,25.016,43.23,21.069z"/>
	
		<linearGradient id="SVGID_7_" gradientUnits="userSpaceOnUse" x1="-177.5068" y1="73.4033" x2="-177.2571" y2="72.8762" gradientTransform="matrix(0.9529 0 0 0.9529 184.2837 -39.8252)">
		<stop  offset="0" style="stop-color:#FFFFFF"/>
		<stop  offset="1" style="stop-color:#A6A8AB"/>
	</linearGradient>
	<path fill="url(#SVGID_7_)" d="M15.063,29.332c0,0-0.077,1.045,0.039,1.158c0.116,0.117,0.657-0.734,0.657-0.734L15.063,29.332z"/>
	
		<linearGradient id="SVGID_8_" gradientUnits="userSpaceOnUse" x1="-174.3481" y1="75.2617" x2="-174.0985" y2="74.7348" gradientTransform="matrix(0.9529 0 0 0.9529 180.1504 -42.2568)">
		<stop  offset="0" style="stop-color:#FFFFFF"/>
		<stop  offset="1" style="stop-color:#A6A8AB"/>
	</linearGradient>
	<path fill="url(#SVGID_8_)" d="M13.939,28.672c0,0-0.078,1.043,0.039,1.158c0.115,0.117,0.656-0.734,0.656-0.734L13.939,28.672z"/>
	
		<linearGradient id="SVGID_9_" gradientUnits="userSpaceOnUse" x1="-243.1553" y1="96.8164" x2="-242.905" y2="96.2882" gradientTransform="matrix(-0.5936 0.7454 -0.7454 -0.5936 -59.8222 272.1123)">
		<stop  offset="0" style="stop-color:#FFFFFF"/>
		<stop  offset="1" style="stop-color:#A6A8AB"/>
	</linearGradient>
	<path fill="url(#SVGID_9_)" d="M12.991,33.783c0,0-0.769-0.711-0.932-0.693s0.165,0.971,0.165,0.971L12.991,33.783z"/>
	
		<radialGradient id="SVGID_10_" cx="-173.7505" cy="85.4014" r="17.3411" gradientTransform="matrix(0.9529 0 0 0.9529 184.2837 -39.8252)" gradientUnits="userSpaceOnUse">
		<stop  offset="0" style="stop-color:#FFFFFF"/>
		<stop  offset="1" style="stop-color:#BBBDBF"/>
	</radialGradient>
	<path fill="url(#SVGID_10_)" d="M42.272,22.242c0,0-3.719,8.028-14.541,7.725C17.008,29.664,7.669,18.77,5.274,15.896
		c-1.641-1.969-2.762-3.139-3.454-3.227c-0.021,0.144-0.03,0.298-0.018,0.473c0.239,3.473,4.43,11.973,6.346,13.29
		c1.915,1.318,8.095,3.1,7.902,3.832c-0.599,2.275-5.389,3.953-4.79,4.551c0.595,0.596,18.865,7.381,29.693-8.861
		C41.745,24.029,42.272,22.242,42.272,22.242z"/>
	
		<radialGradient id="SVGID_11_" cx="-181.3628" cy="61.1748" r="1.9794" gradientTransform="matrix(0.9529 0 0 0.9529 184.2837 -39.8252)" gradientUnits="userSpaceOnUse">
		<stop  offset="0" style="stop-color:#FFFFFF"/>
		<stop  offset="1" style="stop-color:#BBBDBF"/>
	</radialGradient>
	<circle fill="url(#SVGID_11_)" cx="12.011" cy="19.246" r="1.004"/>
	<path fill="#231F20" d="M11.354,18.667c-0.066,0-0.128,0.014-0.186,0.035c-0.102,0.157-0.162,0.344-0.162,0.544
		c0,0.16,0.041,0.311,0.107,0.444c0.073,0.036,0.153,0.059,0.24,0.059c0.299,0,0.541-0.242,0.541-0.541
		C11.895,18.909,11.653,18.667,11.354,18.667z"/>
	<path fill="#231F20" d="M18.735,22.57c0,0,1.43,1.546,0.734,4.29C19.469,26.859,19.508,24.501,18.735,22.57z"/>
	<path fill="#231F20" d="M19.739,22.879c0,0,1.431,1.546,0.735,4.289C20.474,27.168,20.512,24.812,19.739,22.879z"/>
	<path fill="#231F20" d="M20.59,23.227c0,0,1.43,1.545,0.734,4.289C21.324,27.516,21.362,25.159,20.59,23.227z"/>
	<path fill="#58595B" d="M25.004,32.645c-0.318-2.109-1.213-2.109-1.404-3.77c0,0,0.061-0.115,0.128-0.256
		c0,0,4.856,3.451,6.453,3.896c0,0,0.2,4.043,3.834,5.111c-0.031,0.094-0.031,0.178-0.031,0.275
		C33.983,37.902,25.811,37.963,25.004,32.645z"/>
	
		<linearGradient id="SVGID_12_" gradientUnits="userSpaceOnUse" x1="-161.7432" y1="73.4521" x2="-165.5559" y2="82.2078" gradientTransform="matrix(0.9529 0 0 0.9529 184.2837 -39.8252)">
		<stop  offset="0" style="stop-color:#929497"/>
		<stop  offset="1" style="stop-color:#58595B"/>
	</linearGradient>
	<path fill="url(#SVGID_12_)" d="M25.133,32.391c-0.319-2.109-1.214-2.109-1.405-3.771c0,0,1.98,0.895,3.386,0.768
		c0,0,1.597,2.428,3.194,2.875c0,0,0.384,3.834,3.707,5.365C34.015,37.627,25.938,37.709,25.133,32.391z"/>
	
		<radialGradient id="SVGID_13_" cx="-157.6567" cy="74.5332" r="3.8916" gradientTransform="matrix(0.9529 0 0 0.9529 184.2837 -39.8252)" gradientUnits="userSpaceOnUse">
		<stop  offset="0" style="stop-color:#FFFFFF"/>
		<stop  offset="1" style="stop-color:#BBBDBF"/>
	</radialGradient>
	<path fill="url(#SVGID_13_)" d="M33.632,32.164c0,0,1.222-0.443,1.944-0.777c0,0,0.89,2.223,1.835,2.557
		C37.411,33.943,35.131,35,33.632,32.164z"/>
</g>
</svg>
